<?xml version="1.0" encoding="UTF-8" standalone="no"?>
<svg
   xmlns:dc="http://purl.org/dc/elements/1.1/"
   xmlns:cc="http://creativecommons.org/ns#"
   xmlns:rdf="http://www.w3.org/1999/02/22-rdf-syntax-ns#"
   xmlns:svg="http://www.w3.org/2000/svg"
   xmlns="http://www.w3.org/2000/svg"
   xmlns:sodipodi="http://sodipodi.sourceforge.net/DTD/sodipodi-0.dtd"
   xmlns:inkscape="http://www.inkscape.org/namespaces/inkscape"
   width="16.000002"
   height="16.000004"
   viewBox="0 0 4.2333341 4.2333345"
   version="1.1"
   id="svg2151"
   inkscape:version="1.0.1 (3bc2e813f5, 2020-09-07)"
   sodipodi:docname="rblackfav.svg">
  <defs
     id="defs2145" />
  <sodipodi:namedview
     id="base"
     pagecolor="#ffffff"
     bordercolor="#666666"
     borderopacity="1.0"
     inkscape:pageopacity="0.0"
     inkscape:pageshadow="2"
     inkscape:zoom="0.35"
     inkscape:cx="-91.236649"
     inkscape:cy="-68.376844"
     inkscape:document-units="mm"
     inkscape:current-layer="layer1"
     inkscape:document-rotation="0"
     showgrid="false"
     fit-margin-top="0"
     fit-margin-left="0"
     fit-margin-right="0"
     fit-margin-bottom="0"
     units="px"
     showborder="false"
     inkscape:window-width="1318"
     inkscape:window-height="704"
     inkscape:window-x="48"
     inkscape:window-y="27"
     inkscape:window-maximized="1" />
  <metadata
     id="metadata2148">
    <rdf:RDF>
      <cc:Work
         rdf:about="">
        <dc:format>image/svg+xml</dc:format>
        <dc:type
           rdf:resource="http://purl.org/dc/dcmitype/StillImage" />
        <dc:title></dc:title>
      </cc:Work>
    </rdf:RDF>
  </metadata>
  <g
     inkscape:label="Layer 1"
     inkscape:groupmode="layer"
     id="layer1"
     transform="translate(-129.97303,-166.25804)">
    <path
       style="fill:#000000;stroke-width:0.0409977"
       d="m 133.81208,170.49125 -0.36232,-0.002 -0.93082,-0.9308 -0.93083,-0.9308 0.0124,-0.37256 0.0124,-0.37255 0.80291,-7.8e-4 0.8029,-7.7e-4 v -0.31878 -0.31877 l -1.1302,6.2e-4 -1.1302,6.2e-4 v 1.11527 1.11526 l 0.56573,0.001 0.56572,0.001 0.24711,0.24711 0.24711,0.24709 -0.002,0.25961 -0.002,0.25962 h -1.30348 -1.30348 l 3.1e-4,-2.11599 3.1e-4,-2.11599 2.11604,-3.1e-4 2.11606,-3.1e-4 v 1.30389 1.30388 l -0.39202,0.002 c -0.21561,7.8e-4 -0.40081,0.0103 -0.41158,0.0211 -0.0108,0.0108 0.16531,0.20262 0.39128,0.42635 l 0.41085,0.40678 0.002,0.36929 c 9.3e-4,0.20311 -0.006,0.37657 -0.0145,0.38546 -0.009,0.009 -0.17921,0.0154 -0.37849,0.0145 z"
       id="path899" />
  </g>
</svg>
