<?xml version="1.0" encoding="UTF-8" standalone="no"?>
<svg
   xmlns:dc="http://purl.org/dc/elements/1.1/"
   xmlns:cc="http://creativecommons.org/ns#"
   xmlns:rdf="http://www.w3.org/1999/02/22-rdf-syntax-ns#"
   xmlns:svg="http://www.w3.org/2000/svg"
   xmlns="http://www.w3.org/2000/svg"
   xmlns:sodipodi="http://sodipodi.sourceforge.net/DTD/sodipodi-0.dtd"
   xmlns:inkscape="http://www.inkscape.org/namespaces/inkscape"
   width="169.81999mm"
   height="20.950041mm"
   viewBox="0 0 169.81999 20.950041"
   version="1.1"
   id="svg23785"
   inkscape:version="1.0 (b51213c273, 2020-08-10)">
  <defs
     id="defs23779" />
  <sodipodi:namedview
     id="base"
     pagecolor="#ffffff"
     bordercolor="#666666"
     borderopacity="1.0"
     inkscape:pageopacity="0.0"
     inkscape:pageshadow="2"
     inkscape:zoom="0.35"
     inkscape:cx="-453.43394"
     inkscape:cy="60.690243"
     inkscape:document-units="mm"
     inkscape:current-layer="layer1"
     inkscape:document-rotation="0"
     showgrid="false"
     inkscape:snap-global="false"
     fit-margin-top="0"
     fit-margin-left="0"
     fit-margin-right="0"
     fit-margin-bottom="0"
     showborder="false"
     inkscape:window-width="1318"
     inkscape:window-height="704"
     inkscape:window-x="48"
     inkscape:window-y="27"
     inkscape:window-maximized="1" />
  <metadata
     id="metadata23782">
    <rdf:RDF>
      <cc:Work
         rdf:about="">
        <dc:format>image/svg+xml</dc:format>
        <dc:type
           rdf:resource="http://purl.org/dc/dcmitype/StillImage" />
        <dc:title></dc:title>
      </cc:Work>
    </rdf:RDF>
  </metadata>
  <g
     inkscape:label="Layer 1"
     inkscape:groupmode="layer"
     id="layer1"
     transform="translate(-17.548882,-132.10904)">
    <path
       id="path21250"
       style="fill:#000000;stroke-width:0.295333"
       d="m 187.36887,142.80589 c -0.002,-5.09493 -0.0236,-10.19227 -0.0236,-10.25446 0,-0.3923 -9.63028,-0.44239 -84.8981,-0.44239 H 17.548882 v 3.39076 16.80725 0.73726 h 84.898198 84.58896 c 0.10526,0.0157 0.20238,0.0225 0.23536,0.002 0,0 0,-0.002 0,-0.002 h 0.0733 v -1.74307 -0.89386 c 0.0188,-1.96561 0.0246,-4.767 0.0236,-7.60194 z m -2.40792,6.62558 -0.9412,0.0343 c -0.2984,0.0109 -4.83159,-0.11298 -10.28192,-0.058 -5.45035,0.055 -17.63035,0.16205 -27.06675,0.23888 -18.08004,0.14642 -30.56453,0.36502 -33.27897,0.58243 -0.89482,0.0718 -11.20105,0.19855 -22.902748,0.28212 -11.70168,0.0835 -22.21784,0.22845 -23.3692,0.32213 -1.15135,0.0936 -11.14523,0.22548 -22.20862,0.29326 -11.06339,0.0676 -20.91392,0.19488 -21.89011,0.28177 -0.97618,0.0868 -2.14092,0.0823 -2.58832,-0.0112 -0.87324,-0.18201 -1.09393,-0.83704 -0.3747,-1.11207 0.24137,-0.092 4.33471,-0.16882 9.09627,-0.16882 7.45673,0 16.64417,-0.10627 40.90097,-0.46993 2.76584,-0.0414 12.54981,-0.10932 21.74218,-0.15179 9.550358,-0.0437 17.093698,-0.19688 17.600808,-0.35763 0.51071,-0.16188 8.92446,-0.32276 19.81946,-0.3783 10.41259,-0.0536 21.72739,-0.18929 25.14401,-0.30217 7.4213,-0.24493 6.65838,-0.23267 9.02231,-0.14574 1.05756,0.0431 6.88141,0.0533 12.94184,0.0317 l 8.67049,0.002 c 0.002,0 0.32119,0.16982 0.32253,0.5256 0.0114,0.26494 -0.18091,0.45002 -0.35833,0.56135 z m 0.10327,-3.45413 -0.75101,0.20876 c -1.66873,0.0688 -4.16359,-0.0711 -5.54653,0.044 -1.38294,0.11486 -3.01357,0.12045 -3.62369,0.0124 -0.61012,-0.10819 -1.67503,-0.0886 -2.36648,0.0436 -0.69147,0.13204 -3.52023,0.2238 -6.28607,0.20555 -2.76585,-0.0189 -7.82425,0.014 -11.24087,0.0714 -6.07822,0.10377 -15.8414,0.11601 -18.48826,0.0235 -0.73215,-0.0255 -3.3944,0.0278 -5.91621,0.11917 -4.99541,0.18072 -14.19934,0.31883 -15.38226,0.23184 -0.40674,-0.03 -1.40517,0.003 -2.21863,0.0725 -1.4343,0.12337 -5.15213,0.17056 -6.65576,0.0847 -0.40676,-0.0232 -1.13883,0.0474 -1.62692,0.15652 -1.06911,0.23993 -11.791468,0.27938 -12.940218,0.0479 -0.4465,-0.09 -2.11047,-0.0429 -3.69766,0.10474 -1.5872,0.14701 -3.41823,0.17708 -4.06903,0.0656 -0.65079,-0.11179 -1.76699,-0.0981 -2.48039,0.0301 -1.43621,0.25804 -9.66407,0.34764 -12.90187,0.14067 -1.13889,-0.0727 -3.0025,-0.0327 -4.14137,0.0891 -1.13887,0.12174 -2.30056,0.10368 -2.58154,-0.0404 -0.30519,-0.15567 -1.31462,-0.13304 -2.50722,0.0568 -2.35087,0.37484 -11.96977,0.40618 -13.25161,0.0436 -0.48808,-0.13834 -1.28682,-0.14833 -1.77491,-0.0225 -0.80146,0.20658 -10.47791,0.57616 -15.67807,0.59972 -2.55613,0.0112 -9.05143,-0.26538 -9.17451,-0.39086 -0.17609,-0.17927 -0.2635,-5.23068 -0.0934,-5.40017 0.095,-0.0948 0.92051,0.65131 1.83438,1.65794 1.53772,1.69372 1.71559,1.80544 2.38739,1.50036 0.39922,-0.18119 1.41065,-1.19805 2.24752,-2.25954 1.62131,-2.05649 2.38999,-2.38289 2.98163,-1.26654 0.78509,1.48153 2.99113,4.05421 3.47632,4.05421 0.80951,0 1.66184,-0.97033 2.67723,-3.04785 1.32034,-2.70144 2.05528,-2.81518 3.29452,-0.51005 0.31095,0.57856 1.10663,1.64031 1.76821,2.35971 l 1.20286,1.30782 0.94639,-0.53882 c 1.4969,-0.85228 2.57195,-1.96649 3.33486,-3.45674 0.38847,-0.75882 0.85036,-1.46878 1.02642,-1.5769 0.37396,-0.23036 1.41858,0.63231 1.79503,1.48233 0.29453,0.66508 0.91979,1.69423 1.16433,1.91662 0.0892,0.0811 0.46432,0.57869 0.83361,1.10575 0.36932,0.52692 0.86119,0.95813 1.09315,0.95813 0.60461,0 2.05751,-2.11573 2.84774,-4.14718 0.82441,-2.11914 1.31031,-2.38633 1.87777,-1.03247 0.56509,1.34806 3.60885,4.59001 4.3094,4.59001 0.36667,0 0.94043,-0.62259 1.66904,-1.81136 0.61067,-0.99618 1.39456,-2.153 1.74201,-2.57042 0.56774,-0.68213 0.68465,-0.71518 1.1551,-0.32634 0.28789,0.23812 0.69246,0.83076 0.8991,1.31726 0.45356,1.0679 2.2795,3.09609 2.78738,3.09609 0.4091,0 2.0884,-1.67447 3.33968,-3.33006 0.45436,-0.60114 1.05341,-1.09238 1.33119,-1.09238 0.28037,0 0.89987,0.6234 1.39245,1.4006 2.68477,4.23555 3.65645,4.30891 5.61261,0.42385 1.3895,-2.75983 1.95203,-2.82489 3.49867,-0.40503 0.6028,0.94307 1.49851,2.09919 1.99053,2.56908 l 0.89461,0.8543 1.00524,-0.53964 c 1.33238,-0.71519 2.49996,-1.96124 3.27431,-3.49425 0.99932,-1.97843 1.68728,-1.75836 3.46077,1.10718 2.14691,3.46888 2.14864,3.46995 3.34719,2.10291 0.54993,-0.62721 1.3594,-2.05356 1.7987,-3.16961 0.439288,-1.11613 0.964648,-2.0292 1.167528,-2.0292 0.2029,0 0.70748,0.57572 1.12131,1.27956 1.01899,1.7333 3.02465,3.92655 3.76769,4.12025 0.50126,0.13054 0.8867,-0.27429 2.2146,-2.32611 0.88426,-1.36635 1.79869,-2.48415 2.03203,-2.48415 0.23332,0 0.93138,0.74738 1.55126,1.6608 0.61986,0.91325 1.36801,1.91632 1.6625,2.22904 0.52861,0.56187 0.54746,0.56158 1.47901,-0.0243 0.51899,-0.32656 1.48251,-1.29649 2.1412,-2.15559 1.68823,-2.20175 2.32633,-2.19885 3.76267,0.0167 0.61305,0.94571 1.44664,2.03033 1.85244,2.41036 0.73585,0.68901 0.73992,0.68943 1.50092,0.12016 0.4197,-0.31402 1.2618,-1.49968 1.87131,-2.63498 1.39921,-2.60587 1.93381,-2.74709 3.13411,-0.82781 1.17685,1.88185 2.77013,3.62902 3.30918,3.62902 0.4095,0 1.59687,-0.7364 2.84598,-1.76482 0.2982,-0.24566 0.86936,-1.08301 1.2692,-1.86108 0.39987,-0.77793 0.94456,-1.49783 1.21038,-1.59929 0.52932,-0.20251 0.51092,-0.22388 2.77352,3.23494 0.82219,1.25678 1.66918,2.2852 1.88215,2.2852 0.58246,0 1.74106,-1.66915 2.75796,-3.97308 0.49916,-1.1311 1.02964,-2.09648 1.17881,-2.1465 0.14917,-0.0496 0.74847,0.67683 1.33182,1.61418 0.58337,0.93729 1.6066,2.23204 2.27381,2.87724 1.47593,1.42716 1.71533,1.3361 3.48849,-1.32699 1.75664,-2.63833 1.99198,-2.84706 2.62116,-2.32699 0.27743,0.22936 0.67341,0.81496 0.88004,1.30147 0.42926,1.01067 2.26903,3.09599 2.73148,3.09599 0.37621,0 1.92763,-1.52212 3.25178,-3.19046 0.53794,-0.67777 1.21793,-1.23241 1.51103,-1.23241 0.3296,0 0.93387,0.64679 1.58417,1.69548 0.57824,0.93251 1.40302,2.02368 1.83287,2.42512 0.73149,0.68308 0.8326,0.70169 1.57907,0.29068 0.48107,-0.26505 1.2193,-1.25669 1.86041,-2.49895 1.35483,-2.62551 2.12644,-2.86292 3.23264,-0.99503 0.40331,0.68122 1.28639,1.84409 1.96236,2.58425 1.18406,1.29683 1.2575,1.33079 2.01027,0.92917 1.17625,-0.62737 2.75969,-2.26285 3.39736,-3.50869 0.82288,-1.60788 1.24942,-1.88833 2.03604,-1.3392 0.35498,0.24786 0.64539,0.58312 0.64539,0.74501 0,0.23482 -0.11728,1.31277 0.63403,2.34043 0.002,0.58213 0.0809,1.36612 0.0829,1.93606 0.002,0.45925 0.009,0.63531 0.0109,1.08089 z m 0.29216,-8.20005 -2.22491,-1.33118 c -3.73091,-2.23224 -1.29307,-1.23213 -1.87126,-0.55894 -0.274,0.31892 -0.89485,1.49034 -1.37965,2.6029 -1.17631,2.69946 -1.50428,3.03292 -2.28786,2.32611 -0.33045,-0.29803 -0.60084,-0.64767 -0.60084,-0.77691 0,-0.12932 -0.5983,-1.08826 -1.3295,-2.13082 -1.57286,-2.2427 -2.56571,-3.00224 -3.36598,-2.57543 -0.70728,0.37725 -2.29886,2.18405 -2.53324,2.87546 -0.26526,0.78265 -1.56654,1.64181 -2.06089,1.36049 -0.22761,-0.12942 -1.18052,-1.09783 -2.11751,-2.15193 -0.93701,-1.05417 -1.81076,-1.95928 -1.94169,-2.01146 -0.69014,-0.27496 -4.1041,3.63944 -4.1041,4.7057 0,0.93778 -0.77114,0.60622 -1.63737,-0.704 -0.85233,-1.28903 -2.79183,-3.46448 -3.08885,-3.46448 -0.0919,0 -0.68088,0.99518 -1.30874,2.21139 -0.63524,1.23055 -1.33419,2.21139 -1.57576,2.21139 -0.23877,0 -1.05335,-0.64671 -1.81024,-1.43723 -1.74602,-1.82346 -3.33762,-2.98555 -4.08889,-2.98555 -0.73899,0 -1.71207,1.01976 -2.291,2.4008 -0.79167,1.88861 -1.12609,1.82321 -4.94227,-0.96801 -1.07745,-0.78811 -2.15627,-1.43279 -2.3975,-1.43279 -0.26366,0 -0.935,1.06487 -1.68316,2.67001 -0.68451,1.46842 -1.43771,2.74385 -1.6737,2.8341 -0.55432,0.21204 -1.20577,-0.33788 -1.76561,-1.49045 -0.73989,-1.52325 -2.3544,-3.54574 -3.18024,-3.98371 -0.71383,-0.37852 -0.86092,-0.34864 -1.80021,0.36547 -0.56258,0.42762 -1.33419,1.34011 -1.71465,2.02758 -0.42288,0.76412 -1.01383,1.36299 -1.52015,1.54037 -0.76477,0.26816 -0.93011,0.1781 -2.1555,-1.17312 -0.72997,-0.80485 -1.53621,-1.76198 -1.79173,-2.1268 -0.45638,-0.65177 -1.5798,-0.92796 -1.5798,-0.38855 0,0.15133 -0.23297,0.35519 -0.51767,0.4521 -0.66795,0.22856 -2.54434,2.74616 -2.73634,3.67155 -0.23922,1.15282 -0.81599,1.04091 -1.69337,-0.32847 -0.9197,-1.43552 -2.71972,-3.48044 -3.06362,-3.48044 -0.12362,0 -0.72165,0.98882 -1.32894,2.19732 -0.60732,1.20841 -1.28965,2.26795 -1.5164,2.3549 -0.23043,0.0881 -0.80604,-0.26331 -1.30516,-0.79671 -0.4911,-0.52496 -1.22488,-1.30487 -1.63059,-1.73336 -0.40571,-0.42848 -1.32023,-1.0872 -2.03218,-1.4638 -1.28894,-0.68202 -1.29717,-0.68242 -1.937228,-0.1058 -0.35356,0.3185 -0.96354,1.20927 -1.35542,1.97963 -0.48077,0.94499 -0.89909,1.40052 -1.28603,1.40052 -0.3154,0 -1.74411,-0.84569 -3.17496,-1.87954 -1.84196,-1.33069 -2.73564,-1.81028 -3.06086,-1.64252 -0.53278,0.27509 -1.8261,2.58685 -2.33365,4.17143 -0.34556,1.07865 -1.49604,1.8578 -1.72644,1.16884 -0.33725,-1.00849 -3.3148,-4.91946 -4.11767,-5.40846 l -0.94604,-0.57618 -1.34657,1.30452 c -0.74061,0.71746 -1.34649,1.51255 -1.34649,1.76704 0,0.51059 -1.3449,1.68461 -1.92987,1.68461 -0.20406,0 -1.21773,-0.98616 -2.25264,-2.19152 -1.03491,-1.20526 -1.96303,-2.20027 -2.06242,-2.21148 -0.24118,-0.0265 -2.64228,2.31949 -3.29506,3.21944 -0.50821,0.70074 -0.5541,0.81383 -0.62856,1.54812 -0.082,0.80791 -1.00706,0.50015 -1.72279,-0.57315 -0.41008,-0.61507 -1.31761,-1.70379 -2.01673,-2.41935 l -1.27108,-1.30104 -1.14044,2.25934 c -1.35093,2.67615 -1.79457,2.81354 -3.32602,1.03034 -1.23285,-1.43572 -3.61175,-3.19386 -4.32148,-3.19386 -0.6265,0 -1.27762,0.71796 -2.15534,2.37631 -0.43101,0.81438 -0.9283,1.34404 -1.31562,1.40096 -0.40325,0.0593 -1.52065,-0.59143 -3.17076,-1.84638 -2.06052,-1.5668 -2.65114,-1.88275 -3.08696,-1.65037 -0.5423,0.28928 -1.91923,2.88893 -2.27185,4.28952 -0.15836,0.62879 -0.89216,1.32715 -1.39478,1.32715 -0.0709,0 -0.86815,-1.16096 -1.77169,-2.57997 -0.9685,-1.52105 -2.02571,-2.80423 -2.57562,-3.1261 -0.92562,-0.5419 -0.93897,-0.54084 -1.7236,0.14751 -1.36451,1.19672 -1.67233,1.55534 -2.03658,2.37317 -0.44906,1.0084 -1.68522,1.84266 -2.24242,1.51346 -0.22777,-0.13452 -1.17919,-1.10714 -2.11429,-2.1613 -0.93511,-1.0541 -1.79576,-1.95274 -1.91254,-1.99629 -0.54207,-0.20368 -3.5597,3.28607 -3.8866,4.49454 -0.28536,1.05493 -1.05244,0.84968 -1.84495,-0.49338 -0.41144,-0.69724 -1.09353,-1.58927 -1.51577,-1.98249 -0.6187,-0.5761 -0.76771,-0.98761 -0.76771,-2.12039 0,-0.77288 0.0998,-1.46456 0.22187,-1.53804 0.26386,-0.1579 10.92756,-0.60211 13.68137,-0.57039 9.34886,0.10836 13.86125,0.10536 24.25657,-0.0162 6.58923,-0.077 13.64436,-0.24141 15.67806,-0.36536 2.03371,-0.12333 3.99719,-0.20628 4.36326,-0.18272 1.21056,0.0784 1.69304,0.0908 2.44042,0.065 0.40675,-0.0157 4.00087,-0.0296 7.98694,-0.0296 3.98608,-0.002 8.91135,-0.0388 10.94505,-0.0824 2.033718,-0.0437 4.609758,0 5.724478,0.0981 1.11473,0.0979 2.97835,0.0702 4.14137,-0.0613 1.16303,-0.1315 3.77858,-0.30675 5.8123,-0.39032 2.03372,-0.0832 4.62944,-0.21924 5.7683,-0.30279 1.13889,-0.0837 2.20378,-0.14132 2.36646,-0.1289 0.47886,0.0367 11.18541,0.36359 11.83253,0.36359 0.32537,-0.002 2.12243,-0.0824 3.99347,-0.18158 3.0618,-0.16199 8.6618,-0.18498 14.34688,-0.0594 1.13885,0.0251 5.13235,-0.0979 8.8744,-0.27329 3.74201,-0.1748 7.73547,-0.27854 8.87432,-0.22855 4.7668,0.20808 14.08299,0.53512 14.39879,0.53512 0.0295,0 0.0802,0.80723 0.32576,4.03871 z"
       sodipodi:nodetypes="cscccccccsccccsccscccccscccscscccccsccsccccccccsscsccccccccsccsccscsscccsscsscsscscscssscccsccssssssccssccccscscsscccssccscssssssssccccccsscsccscsssssscscscssscssssccsscscscscssssccscscscccsscssscccscscccssccccssccssscsscscccccccccscccccscccssc" />
  </g>
</svg>
