<?xml version="1.0" encoding="UTF-8" standalone="no"?>
<svg
   xmlns:dc="http://purl.org/dc/elements/1.1/"
   xmlns:cc="http://creativecommons.org/ns#"
   xmlns:rdf="http://www.w3.org/1999/02/22-rdf-syntax-ns#"
   xmlns:svg="http://www.w3.org/2000/svg"
   xmlns="http://www.w3.org/2000/svg"
   xmlns:sodipodi="http://sodipodi.sourceforge.net/DTD/sodipodi-0.dtd"
   xmlns:inkscape="http://www.inkscape.org/namespaces/inkscape"
   width="121.45847mm"
   height="981.34259mm"
   viewBox="0 0 121.45847 981.34259"
   version="1.1"
   id="svg21305"
   inkscape:version="1.0 (b51213c273, 2020-08-10)">
  <defs
     id="defs21299" />
  <sodipodi:namedview
     id="base"
     pagecolor="#ffffff"
     bordercolor="#666666"
     borderopacity="1.0"
     inkscape:pageopacity="0.0"
     inkscape:pageshadow="2"
     inkscape:zoom="0.35"
     inkscape:cx="20.955679"
     inkscape:cy="1807.849"
     inkscape:document-units="mm"
     inkscape:current-layer="layer1"
     inkscape:document-rotation="0"
     showgrid="false"
     inkscape:snap-global="false"
     fit-margin-top="0"
     fit-margin-left="0"
     fit-margin-right="0"
     fit-margin-bottom="0"
     showborder="false"
     inkscape:window-width="1318"
     inkscape:window-height="704"
     inkscape:window-x="48"
     inkscape:window-y="27"
     inkscape:window-maximized="1" />
  <metadata
     id="metadata21302">
    <rdf:RDF>
      <cc:Work
         rdf:about="">
        <dc:format>image/svg+xml</dc:format>
        <dc:type
           rdf:resource="http://purl.org/dc/dcmitype/StillImage" />
        <dc:title></dc:title>
      </cc:Work>
    </rdf:RDF>
  </metadata>
  <g
     inkscape:label="Layer 1"
     inkscape:groupmode="layer"
     id="layer1"
     transform="translate(-100.28881,540.56431)">
    <path
       id="path3805"
       style="fill:#000000;stroke-width:0.295325"
       d="m 110.98552,-123.27999 c -5.09488,0.002 -10.19213,0.0236 -10.25433,0.0236 -0.39228,0 -0.44238,9.63052 -0.44238,84.900228 l 3e-4,84.900398 h 3.39072 16.80703 0.73723 v -84.900302 -84.591074 c 0.0157,-0.10526 0.0226,-0.20239 10e-4,-0.23537 0,0 -10e-4,-3e-4 -10e-4,-5.8e-4 v -0.0732 h -1.7431 -0.89385 c -1.96557,-0.0188 -4.76693,-0.0246 -7.60183,-0.0236 z m 6.62549,2.40799 0.0344,0.94121 c 0.0109,0.29842 -0.11296,4.83171 -0.058,10.28217 0.055,5.45049 0.16203,17.630807 0.23888,27.067434 0.14641,18.080499 0.36502,30.565282 0.58241,33.2798 0.0718,0.894845 0.19854,11.201331 0.28211,22.90332 0.0835,11.701977 0.22847,22.2183905 0.32214,23.3697799 0.0936,1.1513773 0.22546,11.1455179 0.29326,22.2091871 0.0677,11.063651 0.19487,20.914423 0.28175,21.89064 0.0869,0.976205 0.0823,2.140971 -0.0113,2.588397 -0.182,0.873251 -0.83702,1.093947 -1.11205,0.374697 -0.0919,-0.241377 -0.16884,-4.334811 -0.16884,-9.096494 -5.7e-4,-7.456917 -0.10625,-16.644572 -0.4699,-40.9019794 -0.0415,-2.7659178 -0.10933,-12.5501266 -0.15181,-21.7427306 -0.0437,-9.550598 -0.19686,-17.094128 -0.35762,-17.601245 -0.16188,-0.510712 -0.32274,-8.924689 -0.37828,-19.819949 -0.0536,-10.412851 -0.18929,-21.72794 -0.30217,-25.144648 -0.24494,-7.421488 -0.23268,-6.658543 -0.14575,-9.022539 0.0432,-1.05758 0.0533,-6.88157 0.0317,-12.94215 l 0.002,-8.67072 c 0,-0.001 0.1698,-0.32119 0.52558,-0.32253 0.26493,-0.0113 0.45002,0.18092 0.56135,0.35835 z m -3.45408,-0.10328 0.20876,0.75104 c 0.0688,1.66875 -0.0711,4.16368 0.044,5.54666 0.11486,1.38297 0.12045,3.01365 0.0125,3.62379 -0.10819,0.61013 -0.0886,1.67505 0.0436,2.36652 0.13205,0.69149 0.22381,3.52033 0.20555,6.28623 -0.0189,2.765923 0.0139,7.824438 0.0714,11.241148 0.10377,6.078372 0.11602,15.8418 0.0235,18.488727 -0.0254,0.732169 0.0278,3.39449 0.11918,5.916359 0.18071,4.995528 0.31883,14.199693 0.23185,15.382632 -0.03,0.406763 0.002,1.405199 0.0725,2.2187 0.12335,1.434326 0.17055,5.152251 0.0847,6.65592 -0.0232,0.406768 0.0474,1.138861 0.15652,1.626959 0.23994,1.06913 0.27938,11.791765 0.0478,12.940544 -0.09,0.446519 -0.0429,2.110517 0.10474,3.697747 0.14701,1.587239 0.17707,3.418324 0.0656,4.069136 -0.11178,0.650799 -0.0981,1.76702 0.0301,2.480456 0.25804,1.436233 0.34763,9.6643138 0.14065,12.9021763 -0.0727,1.138916 -0.0327,3.0025844 0.0891,4.14148815 0.12174,1.13889453 0.10369,2.30061075 -0.0404,2.58159585 -0.15567,0.3051916 -0.13305,1.3146507 0.0569,2.507284 0.37482,2.3509346 0.40615,11.9700707 0.0436,13.2519367 -0.13834,0.488099 -0.14832,1.286857 -0.0226,1.774957 0.20657,0.801482 0.57614,10.478179 0.5997,15.67846 0.0113,2.556199 -0.26536,9.051656 -0.39084,9.174743 -0.17929,0.176088 -5.23063,0.26351 -5.4001,0.09345 -0.0948,-0.09507 0.6513,-0.920549 1.6579,-1.834427 1.6937,-1.537751 1.80542,-1.71565 1.50034,-2.387451 -0.18118,-0.399231 -1.19803,-1.41069 -2.25951,-2.247588 -2.05646,-1.621349 -2.38286,-2.390054 -1.26652,-2.981699 1.48152,-0.785099 4.05416,-2.991204 4.05416,-3.476411 0,-0.809523 -0.97031,-1.661879 -3.04781,-2.677289 -2.70141,-1.320375 -2.81512,-2.055342 -0.51003,-3.294595 0.57856,-0.310971 1.64028,-1.106656 2.35968,-1.768259 l 1.30779,-1.202894 -0.53883,-0.946413 c -0.85225,-1.496944 -1.96643,-2.57202 -3.45667,-3.334934 -0.7588,-0.388495 -1.46877,-0.850394 -1.57689,-1.026454 -0.23036,-0.373968 0.6323,-1.418633 1.48232,-1.795083 0.66508,-0.294529 1.6942,-0.919808 1.9166,-1.164349 0.0811,-0.08917 0.57867,-0.464335 1.10571,-0.833641 0.52693,-0.369318 0.95813,-0.861212 0.95813,-1.09316 0,-0.604638 -2.11571,-2.057581 -4.14712,-2.8478293 -2.11911,-0.824414 -2.3863,-1.3103329 -1.03246,-1.8778023 1.34804,-0.5651149 4.58995,-3.6089442 4.58995,-4.3095202 0,-0.3666748 -0.62258,-0.9404555 -1.81133,-1.6690776 -0.99617,-0.610687 -2.15298,-1.39459531 -2.5704,-1.74205186 -0.68212,-0.56776269 -0.71516,-0.68467316 -0.32633,-1.15513464 0.23812,-0.2878854 0.83075,-0.6924649 1.31725,-0.8991052 1.06787,-0.4535712 3.09604,-2.2795749 3.09604,-2.7874627 0,-0.4091167 -1.67444,-2.0884487 -3.33001,-3.3397651 -0.60113,-0.4543654 -1.09236,-1.0534311 -1.09236,-1.3312217 3e-4,-0.280365 0.62339,-0.8998854 1.40059,-1.3924724 4.23548,-2.684841 4.30883,-3.656554 0.42384,-5.612755 -2.75979,-1.389537 -2.82487,-1.952077 -0.40504,-3.498766 0.94306,-0.602802 2.09917,-1.498551 2.56907,-1.990573 l 0.85427,-0.894634 -0.53962,-1.005256 c -0.71523,-1.332432 -1.96124,-2.500031 -3.49425,-3.274396 -1.97839,-0.999348 -1.75834,-1.687316 1.10717,-3.460854 3.46882,-2.146972 3.4699,-2.148703 2.10289,-3.347274 -0.62721,-0.54996 -2.05354,-1.359441 -3.16958,-1.798747 -1.1161,-0.439312 -2.02916,-0.964683 -2.02916,-1.167569 0,-0.202893 0.5757,-0.707486 1.27954,-1.121333 1.73327,-1.019021 3.92649,-3.024713 4.12019,-3.767769 0.13054,-0.501294 -0.27429,-0.886737 -2.32608,-2.214674 -1.36632,-0.884284 -2.48412,-1.798736 -2.48412,-2.032069 0,-0.233334 0.74739,-0.931409 1.66077,-1.551297 0.91325,-0.619882 1.91629,-1.368052 2.22903,-1.662552 0.56186,-0.528626 0.56157,-0.547468 -0.0244,-1.479045 -0.32656,-0.519003 -1.29647,-1.482539 -2.15557,-2.141254 -2.20172,-1.688277 -2.19881,-2.326395 0.0168,-3.762759 0.94571,-0.61307 2.0303,-1.446671 2.41033,-1.852495 0.68899,-0.735865 0.6894,-0.739931 0.12014,-1.500956 -0.31401,-0.419701 -1.49964,-1.261835 -2.63493,-1.871365 -2.60585,-1.399231 -2.74706,-1.933849 -0.82779,-3.134169 1.88181,-1.176894 3.62896,-2.770203 3.62896,-3.309272 0,-0.40951 -0.73639,-1.596903 -1.7648,-2.846035 -0.24566,-0.29822 -1.083,-0.869395 -1.86106,-1.269247 -0.7779,-0.399878 -1.4978,-0.944579 -1.59927,-1.210404 -0.20249,-0.529335 -0.22385,-0.510946 3.23492,-2.773597 1.25676,-0.822198 2.28517,-1.669211 2.28517,-1.882191 0,-0.582487 -1.66914,-1.741112 -3.97304,-2.758038 -1.13108,-0.499175 -2.09645,-1.029661 -2.14648,-1.178836 -0.0496,-0.149169 0.67686,-0.748483 1.61416,-1.331845 0.93731,-0.58338 2.232,-1.606652 2.87721,-2.273879 1.42714,-1.475969 1.33609,-1.715365 -1.32697,-3.488572 -2.63829,-1.75668 -2.84702,-1.992027 -2.32698,-2.621213 0.22938,-0.277441 0.81497,-0.673435 1.30148,-0.880059 1.01065,-0.429275 3.09595,-2.269099 3.09595,-2.731568 0,-0.376216 -1.52212,-1.927677 -3.19043,-3.25186 -0.67777,-0.537953 -1.23238,-1.217962 -1.23238,-1.511062 0,-0.32961 0.64676,-0.93389 1.69543,-1.58421 0.93252,-0.57826 2.02369,-1.40304 2.42511,-1.83291 0.68306,-0.73151 0.70167,-0.83263 0.29067,-1.57911 -0.26503,-0.48109 -1.25667,-1.21933 -2.49891,-1.86046 -2.62546,-1.35486 -2.86288,-2.12649 -0.99501,-3.23272 0.68121,-0.40331 1.84406,-1.28642 2.5842,-1.9624 1.29681,-1.1841 1.33077,-1.25755 0.92916,-2.01033 -0.62736,-1.17628 -2.26281,-2.75977 -3.50864,-3.39745 -1.60787,-0.8229 -1.88831,-1.24944 -1.33918,-2.03609 0.24785,-0.35498 0.58313,-0.6454 0.745,-0.6454 0.23481,0 1.31274,0.11729 2.34039,-0.63405 0.58212,-0.002 1.3661,-0.081 1.93604,-0.0828 0.45926,-0.002 0.63531,-0.009 1.08087,-0.0108 z m -8.19995,-0.29216 -1.33115,2.22495 c -2.23222,3.73101 -1.23211,1.2931 -0.55892,1.87131 0.3189,0.27401 1.49029,0.89487 2.60284,1.37968 2.69944,1.17636 3.03289,1.50432 2.32608,2.28792 -0.29802,0.33046 -0.64765,0.60087 -0.77691,0.60087 -0.1293,0 -1.08822,0.5983 -2.13079,1.32952 -2.24265,1.5729 -3.00217,2.56577 -2.57537,3.36606 0.37724,0.7073 2.18402,2.29892 2.87542,2.5333 0.78264,0.26528 1.64177,1.5666 1.36047,2.06095 -0.12942,0.22762 -1.09783,1.18055 -2.15192,2.11756 -1.05414,0.93703 -1.95925,1.810814 -2.01142,1.941748 -0.27497,0.69015 3.6394,4.104193 4.70563,4.104193 0.93778,0 0.60622,0.771171 -0.70399,1.63742 -1.28901,0.852356 -3.46442,2.791893 -3.46442,3.088921 0,0.09193 0.99517,0.680904 2.21135,1.308774 1.23054,0.635263 2.21137,1.334225 2.21137,1.575805 0,0.23878 -0.6467,1.05337 -1.43721,1.810284 -1.82344,1.746053 -2.98551,3.337692 -2.98551,4.088993 0,0.739005 1.01975,1.712115 2.40077,2.291046 1.88859,0.791702 1.82317,1.12612 -0.96801,4.942404 -0.7881,1.077473 -1.43276,2.156326 -1.43276,2.397555 0,0.263664 1.06484,0.93503 2.66995,1.683207 1.46842,0.684528 2.74384,1.437734 2.83406,1.67373 0.21206,0.554337 -0.33786,1.205808 -1.49042,1.765659 -1.52323,0.739918 -3.54567,2.354463 -3.98365,3.180319 -0.37851,0.713846 -0.34864,0.860941 0.36547,1.800265 0.42761,0.562593 1.34009,1.33421 2.02757,1.714686 0.76409,0.422889 1.36295,1.013857 1.54033,1.520182 0.26815,0.764798 0.1781,0.930138 -1.17311,2.155562 -0.80484,0.729992 -1.76195,1.536235 -2.12677,1.791773 -0.65176,0.456392 -0.92795,1.579833 -0.38854,1.579833 0.15133,0 0.35518,0.232978 0.4521,0.517697 0.22856,0.667963 2.74611,2.544397 3.67148,2.736399 1.15281,0.239217 1.04091,0.816006 -0.32845,1.693399 -1.4355,0.919732 -3.4804,2.719801 -3.4804,3.063705 0,0.123622 0.9888,0.721664 2.19729,1.328982 1.20839,0.607318 2.26791,1.289682 2.35486,1.516428 0.0881,0.230432 -0.26329,0.806056 -0.79668,1.305194 -0.52496,0.491109 -1.30485,1.224903 -1.73333,1.630624 -0.42848,0.405733 -1.0872,1.320259 -1.46378,2.032247 -0.68203,1.288962 -0.68241,1.2972 -0.10582,1.937269 0.31851,0.353572 1.20926,0.96356 1.97962,1.355456 0.94497,0.480785 1.40049,0.89912 1.40049,1.286057 0,0.315419 -0.84568,1.744163 -1.8795,3.175044 -1.33069,1.841994 -1.81027,2.735707 -1.64251,3.060932 0.27508,0.532805 2.58681,1.826136 4.17136,2.333702 1.07864,0.345578 1.85778,1.496091 1.16883,1.726489 -1.00847,0.337268 -4.91938,3.314891 -5.40837,4.117787 l -0.57618,0.946056 1.30451,1.346604 c 0.71744,0.740619 1.51253,1.346513 1.76701,1.346513 0.51058,0 1.68458,1.344936 1.68458,1.929938 0,0.204051 -0.98615,1.217753 -2.1915,2.252683 -1.20522,1.0349328 -2.20024,1.9630716 -2.21144,2.0624715 -0.0266,0.24118 2.31946,2.64235 3.21939,3.2951394 0.70074,0.5082286 0.81382,0.5541304 1.54811,0.6285892 0.8079,0.081953 0.50014,1.0070808 -0.57314,1.7228256 -0.61505,0.4100862 -1.70377,1.3176369 -2.41931,2.0167742 l -1.30103,1.2711241 2.25932,1.1404692 c 2.6761,1.3509542 2.81349,1.7946076 1.03031,3.3260842 -1.43568,1.2328827 -3.1938,3.6118414 -3.1938,4.3215917 0,0.626528 0.71792,1.2776539 2.37626,2.1553879 0.81438,0.431042 1.34404,0.928335 1.40094,1.31566 0.0593,0.403275 -0.59143,1.520692 -1.84635,3.170833 -1.56677,2.060578 -1.88272,2.65121 -1.65036,3.087048 0.2893,0.542317 2.88889,1.919275 4.28948,2.271908 0.62877,0.158358 1.32714,0.892179 1.32714,1.394805 0,0.07089 -1.16095,0.868172 -2.57994,1.771741 -1.52103,0.968535 -2.80421,2.025764 -3.12607,2.575693 -0.54189,0.92564 -0.54082,0.93898 0.14752,1.723628 1.19671,1.364549 1.55532,1.672378 2.37313,2.036628 1.00839,0.44908 1.84263,1.685267 1.51344,2.242492 -0.13452,0.227759 -1.10712,1.179211 -2.16127,2.114337 -1.05409,0.935126 -1.95272,1.795806 -1.99628,1.912587 -0.20367,0.542079 3.28603,3.559795 4.49449,3.886709 1.05491,0.285349 0.84967,1.05244 -0.49337,1.844978 -0.69723,0.411461 -1.58923,1.093559 -1.98247,1.515803 -0.57609,0.618724 -0.98759,0.767739 -2.12035,0.767739 -0.77286,0 -1.46456,-0.09984 -1.53804,-0.22187 -0.15789,-0.263869 -0.6021,-10.927838 -0.57038,-13.68172 0.10837,-9.349095 0.10537,-13.861585 -0.0163,-24.2571672 -0.077,-6.58938956 -0.2414,-13.644704 -0.36534,-15.6784623 -0.12335,-2.0337585 -0.2063,-3.9972785 -0.18274,-4.3633595 0.0784,-1.210584 0.0908,-1.693073 0.065,-2.440482 -0.0157,-0.406765 -0.0296,-4.000966 -0.0296,-7.987144 -0.002,-3.986175 -0.0388,-8.911565 -0.0824,-10.945317 -0.0437,-2.033767 0,-4.609871 0.098,-5.724623 0.0979,-1.114763 0.0702,-2.978429 -0.0613,-4.141487 -0.1315,-1.16305 -0.30675,-3.778665 -0.39034,-5.812441 -0.0832,-2.033755 -0.21923,-4.629535 -0.30277,-5.768445 -0.0837,-1.138914 -0.14133,-2.203826 -0.1289,-2.36652 0.0367,-0.478873 0.36358,-11.185676 0.36358,-11.832806 -0.001,-0.325381 -0.0825,-2.122491 -0.18156,-3.99357 -0.16202,-3.061877 -0.185,-8.662013 -0.0594,-14.347241 0.0251,-1.138882 -0.0979,-5.132491 -0.27328,-8.874628 -0.1748,-3.742097 -0.27853,-7.735657 -0.22854,-8.874527 0.20806,-4.76693 0.53509,-14.08334 0.53509,-14.39915 0,-0.0295 0.80724,-0.0802 4.03868,-0.32577 z"
       sodipodi:nodetypes="cscccccccsccccsccscccccscccscscccccsccsccccccccsscsccccccccsccsccscsscccsscsscsscscscssscccsccssssssccssccccscscsscccssccscssssssssccccccsscsccscsssssscscscssscssssccsscscscscssssccscscscccsscssscccscscccssccccssccssscsscscccccccccscccccscccssc" />
  </g>
</svg>
