<?xml version="1.0" encoding="UTF-8" standalone="no"?>
<svg
   xmlns:dc="http://purl.org/dc/elements/1.1/"
   xmlns:cc="http://creativecommons.org/ns#"
   xmlns:rdf="http://www.w3.org/1999/02/22-rdf-syntax-ns#"
   xmlns:svg="http://www.w3.org/2000/svg"
   xmlns="http://www.w3.org/2000/svg"
   xmlns:sodipodi="http://sodipodi.sourceforge.net/DTD/sodipodi-0.dtd"
   xmlns:inkscape="http://www.inkscape.org/namespaces/inkscape"
   width="169.81996mm"
   height="29.500011mm"
   viewBox="0 0 169.81996 29.500011"
   version="1.1"
   id="svg24387"
   inkscape:version="1.0 (b51213c273, 2020-08-10)">
  <defs
     id="defs24381" />
  <sodipodi:namedview
     id="base"
     pagecolor="#ffffff"
     bordercolor="#666666"
     borderopacity="1.0"
     inkscape:pageopacity="0.0"
     inkscape:pageshadow="2"
     inkscape:zoom="0.35"
     inkscape:cx="363.16223"
     inkscape:cy="213.17896"
     inkscape:document-units="mm"
     inkscape:current-layer="layer1"
     inkscape:document-rotation="0"
     showgrid="false"
     inkscape:snap-global="false"
     fit-margin-top="0"
     fit-margin-left="0"
     fit-margin-right="0"
     fit-margin-bottom="0"
     showborder="false"
     inkscape:window-width="1318"
     inkscape:window-height="704"
     inkscape:window-x="48"
     inkscape:window-y="27"
     inkscape:window-maximized="1" />
  <metadata
     id="metadata24384">
    <rdf:RDF>
      <cc:Work
         rdf:about="">
        <dc:format>image/svg+xml</dc:format>
        <dc:type
           rdf:resource="http://purl.org/dc/dcmitype/StillImage" />
        <dc:title></dc:title>
      </cc:Work>
    </rdf:RDF>
  </metadata>
  <g
     inkscape:label="Layer 1"
     inkscape:groupmode="layer"
     id="layer1"
     transform="translate(-9.7466613,-91.763067)">
    <path
       id="path21252"
       style="fill:#ff0000;stroke-width:0.339339"
       d="m 179.50642,107.71812 c 0.0399,-6.73165 0.0597,-13.466665 0.0602,-13.548846 0.003,-0.518313 -9.61852,-0.687817 -84.822609,-1.49535 l -84.8264097,-0.910857 -0.0277,4.479999 -0.13724,22.206394 -0.006,0.9741 84.8263097,0.91085 84.517349,0.90754 c 0.10504,0.0216 0.20203,0.0319 0.23514,0.005 0,0 1e-5,-0.002 1e-5,-0.002 l 0.0732,6.8e-4 0.0142,-2.30302 0.007,-1.18101 c 0.0348,-2.59681 0.0635,-6.29806 0.0857,-10.04371 z m -2.45998,8.72814 -0.94068,0.0353 c -0.29824,0.0112 -4.82659,-0.20109 -10.27272,-0.18696 -5.44619,0.0141 -17.61677,0.0249 -27.04581,0.0252 -18.06593,-4.6e-4 -30.54161,0.15436 -33.25554,0.41248 -0.89466,0.0852 -11.193199,0.14214 -22.885679,0.12702 -11.69245,-0.0152 -22.20089,0.0635 -23.35204,0.1749 -1.15113,0.11126 -11.13763,0.17833 -22.19221,0.1492 -11.05456,-0.0293 -20.8978,0.0331 -21.87387,0.13743 -0.97606,0.10427 -2.13977,0.0857 -2.58604,-0.0426 -0.87101,-0.24985 -1.08616,-1.11764 -0.36531,-1.47331 0.24194,-0.11891 4.33242,-0.17657 9.08995,-0.12548 7.45044,0.08 16.63094,0.0382 40.87017,-0.18205 2.76385,-0.0251 12.54008,-0.01 21.72503,0.0327 9.54262,0.0448 17.080839,-0.0767 17.588829,-0.28365 0.51158,-0.20843 8.91954,-0.3307 19.80575,-0.28719 10.40422,0.041 21.71054,-0.017 25.12521,-0.12947 7.41703,-0.244 6.65463,-0.23598 9.01586,-0.0958 1.05629,0.0683 6.87513,0.14418 12.93062,0.18077 l 8.66312,0.0958 c 0.002,2e-5 0.31953,0.22779 0.31796,0.69788 0.009,0.35018 -0.18442,0.59265 -0.3626,0.73785 z m 0.13139,-4.56262 -0.75208,0.26777 c -1.66787,0.073 -4.1595,-0.13863 -5.54219,-0.001 -1.38271,0.13692 -3.01201,0.12683 -3.62073,-0.0225 -0.60872,-0.14948 -1.67288,-0.13502 -2.36482,0.0322 -0.69196,0.16703 -3.51908,0.25791 -6.28243,0.20412 -2.76336,-0.0546 -7.81774,-0.0655 -11.23193,-0.0263 -6.07393,0.0719 -15.82894,-0.0167 -18.47281,-0.16727 -0.73132,-0.0415 -3.39176,4.5e-4 -5.91217,0.094 -4.99265,0.18518 -14.18992,0.26891 -15.37113,0.14129 -0.40616,-0.044 -1.40399,-0.0116 -2.21735,0.0719 -1.43408,0.1476 -5.14915,0.17009 -6.650819,0.0405 -0.40622,-0.035 -1.13826,0.0504 -1.62681,0.18934 -1.07016,0.30554 -11.78377,0.24262 -12.92966,-0.0756 -0.4454,-0.12367 -2.10832,-0.0793 -3.69538,0.0987 -1.58705,0.17721 -3.4168,0.19727 -4.06612,0.043 -0.64932,-0.15468 -1.76468,-0.14858 -2.47855,0.0132 -1.43707,0.32553 -9.65873,0.35562 -12.89207,0.0474 -1.13732,-0.10823 -2.9997,-0.0755 -4.13861,0.0733 -1.1389,0.14863 -2.29945,0.1123 -2.57901,-0.0811 -0.30366,-0.20895 -1.31242,-0.18988 -2.50558,0.0483 -2.35193,0.47002 -11.96295,0.40821 -13.24072,-0.0846 -0.48655,-0.18804 -1.28454,-0.20978 -1.77324,-0.0488 -0.80247,0.26434 -10.47375,0.64882 -15.66969,0.62416 -2.55406,-0.0126 -9.0416,-0.44774 -9.16356,-0.61486 -0.17446,-0.23874 -0.22056,-6.91382 -0.0493,-7.13593 0.0958,-0.12421 0.91444,0.87043 1.8193,2.21022 1.52258,2.2543 1.69941,2.40382 2.37311,2.00794 0.40037,-0.23511 1.41925,-1.56775 2.26408,-2.96125 1.63673,-2.69973 2.40743,-3.12273 2.98944,-1.64142 0.77233,1.96589 2.9555,5.38867 3.44028,5.39387 0.80881,0.009 1.66835,-1.26422 2.69984,-3.99823 1.34128,-3.55507 2.07654,-3.69744 3.2959,-0.63853 0.30596,0.76776 1.0923,2.17912 1.74744,3.13672 l 1.19117,1.74085 0.94999,-0.70179 c 1.50259,-1.11 2.58582,-2.57059 3.36024,-4.53137 0.39435,-0.99841 0.86165,-1.93152 1.03845,-2.07245 0.37552,-0.30038 1.41223,0.85063 1.78141,1.97776 0.28884,0.8819 0.90517,2.24836 1.14769,2.54481 0.0884,0.10809 0.45919,0.76957 0.82387,1.46988 0.3647,0.70015 0.85265,1.27518 1.08439,1.27767 0.60411,0.006 2.07307,-2.77331 2.87922,-5.44886 0.84099,-2.79105 1.32867,-3.13886 1.88459,-1.344 0.55362,1.78718 3.56832,6.10322 4.26829,6.11074 0.36635,0.004 0.94472,-0.8125 1.68241,-2.37533 0.61828,-1.30964 1.41096,-2.82966 1.76152,-3.37746 0.57284,-0.89516 0.68992,-0.93757 1.15681,-0.41877 0.28567,0.31771 0.68506,1.10504 0.88755,1.75005 0.44446,1.4158 2.2523,4.11512 2.75975,4.12056 0.40876,0.004 2.10029,-2.18993 3.36404,-4.36397 0.45889,-0.78935 1.06144,-1.43197 1.33899,-1.42898 0.28013,0.003 0.894,0.83331 1.37982,1.86546 2.64791,5.62497 3.61819,5.73233 5.6044,0.62022 1.41086,-3.63148 1.97345,-3.71143 3.49904,-0.49762 0.59456,1.25249 1.48009,2.78963 1.96785,3.41575 l 0.88687,1.13832 1.00879,-0.7022 c 1.33711,-0.93065 2.51387,-2.56445 3.30007,-4.58161 1.01464,-2.60325 1.70022,-2.30512 3.4488,1.49995 2.11678,4.60628 2.11849,4.60769 3.32718,2.81436 0.55461,-0.82279 1.37504,-2.69864 1.82308,-4.16851 0.44804,-1.46994 0.98041,-2.67069 1.18311,-2.66851 0.20271,0.002 0.70218,0.76823 1.10991,1.70261 1.00397,2.30104 2.99001,5.22036 3.73083,5.48426 0.4998,0.17788 0.88822,-0.35287 2.231749,-3.04957 0.89468,-1.79578 1.81745,-3.26285 2.05058,-3.26035 0.23313,0.003 0.92449,0.99746 1.53638,2.21094 0.61188,1.21327 1.35122,2.54658 1.6429,2.96295 0.52358,0.74801 0.54241,0.74785 1.47796,-0.0163 0.52122,-0.42589 1.49184,-1.69708 2.15698,-2.8251 1.70478,-2.8909 2.34233,-2.88022 3.75935,0.0625 0.60481,1.25609 1.42883,2.69805 1.8312,3.20451 0.72961,0.91824 0.73365,0.91883 1.49866,0.17486 0.4219,-0.41039 1.27299,-1.96788 1.89125,-3.46133 1.4193,-3.42798 1.95461,-3.60882 3.1382,-1.06012 1.16051,2.499 2.73815,4.82452 3.27676,4.8303 0.40915,0.004 1.60153,-0.95582 2.85797,-2.3012 0.29996,-0.32138 0.87747,-1.42162 1.28333,-2.44534 0.40589,-1.02352 0.956,-1.96884 1.22241,-2.10004 0.53054,-0.26188 0.51233,-0.29031 2.74476,4.30389 0.81122,1.66933 1.6491,3.03721 1.8619,3.03949 0.58197,0.006 1.75321,-2.18669 2.78807,-5.21982 0.50798,-1.48911 1.04588,-2.75891 1.19533,-2.8234 0.14946,-0.0639 0.74231,0.90232 1.31752,2.14701 0.57522,1.24467 1.587,2.96629 2.24839,3.82593 1.46303,1.90144 1.70296,1.78372 3.49636,-1.71583 1.7767,-3.46703 2.01355,-3.74029 2.63794,-3.04642 0.27532,0.30604 0.66619,1.08401 0.86867,1.72902 0.42065,1.33995 2.24182,4.11489 2.7039,4.11985 0.37589,0.004 1.93844,-1.99043 3.27507,-4.1805 0.54304,-0.88971 1.22697,-1.61521 1.51981,-1.61207 0.32934,0.004 0.92781,0.86456 1.56898,2.2571 0.57015,1.23828 1.38531,2.68885 1.81153,3.22386 0.72529,0.91033 0.82617,0.93603 1.57535,0.401 0.48284,-0.34503 1.22852,-1.64732 1.87925,-3.28175 1.37512,-3.45439 2.14801,-3.75979 3.23803,-1.27999 0.39739,0.90438 1.27023,2.45029 1.93958,3.43546 1.17248,1.72613 1.24559,1.77179 2.00099,1.24922 1.18037,-0.8163 2.77583,-2.96015 3.42313,-4.59936 0.83532,-2.11557 1.26379,-2.48154 2.04526,-1.74755 0.35265,0.33127 0.64007,0.77736 0.63876,0.99125 -0.002,0.31026 -0.1279,1.73322 0.61437,3.09906 -0.003,0.76914 0.0697,1.80582 0.067,2.5589 -0.002,0.6068 0.004,0.83949 0.002,1.42823 z m 0.35887,-10.8311 -2.21215,-1.782663 c -3.70954,-2.989356 -1.28191,-1.641811 -1.86511,-0.758564 -0.27637,0.418425 -0.90626,1.959487 -1.39974,3.424237 -1.19737,3.55402 -1.52777,3.99106 -2.30491,3.04878 -0.32775,-0.39731 -0.59505,-0.86216 -0.594,-1.03293 0.002,-0.17086 -0.5889,-1.44424 -1.31097,-2.82956 -1.55322,-2.980017 -2.53902,-3.994205 -3.34209,-3.438875 -0.70977,0.490852 -2.31475,2.860985 -2.55459,3.771995 -0.27143,1.03122 -1.57862,2.15241 -2.07024,1.77543 -0.22638,-0.17344 -1.17056,-1.46319 -2.09816,-2.86596 -0.9276,-1.402869 -1.79323,-2.608106 -1.92362,-2.67845 -0.68731,-0.370677 -4.13034,4.76455 -4.13905,6.17334 -0.008,1.23903 -0.77543,0.79269 -1.63023,-0.94772 -0.84109,-1.71226 -2.76117,-4.607353 -3.05795,-4.610539 -0.0919,-9.12e-4 -0.68844,1.307567 -1.32569,2.907729 -0.64475,1.61903 -1.35112,2.90746 -1.59248,2.90487 -0.23858,-0.003 -1.04718,-0.86577 -1.79698,-1.91835 -1.72963,-2.427962 -3.31039,-3.980428 -4.06104,-3.988487 -0.73837,-0.0079 -1.71895,1.32898 -2.30867,3.147447 -0.80642,2.48682 -1.14001,2.39681 -4.93017,-1.33202 -1.0701,-1.052813 -2.14275,-1.916165 -2.38377,-1.918754 -0.26344,-0.0028 -0.94292,1.396913 -1.70354,3.509634 -0.69594,1.9328 -1.4589,3.60988 -1.69542,3.72659 -0.55558,0.27421 -1.202,-0.45937 -1.75195,-1.98821 -0.72684,-2.02048 -2.32345,-4.710005 -3.14501,-5.297529 -0.71013,-0.507786 -0.85735,-0.469892 -1.80168,0.463563 -0.5656,0.558951 -1.344,1.756286 -1.72976,2.660526 -0.42876,1.00504 -1.02409,1.78995 -1.53143,2.01889 -0.76632,0.34609 -0.93078,0.22533 -2.14411,-1.5731 -0.72277,-1.07124 -1.5205,-2.344486 -1.77284,-2.829237 -0.45067,-0.866042 -1.57087,-1.243009 -1.57528,-0.530317 -0.002,0.199937 -0.23568,0.466792 -0.52094,0.591772 -0.66926,0.294824 -2.56461,3.601012 -2.764,4.821622 -0.24842,1.52058 -0.82379,1.36655 -1.68925,-0.45214 -0.90719,-1.90652 -2.68899,-4.627663 -3.0326,-4.631353 -0.12352,-0.0014 -0.72911,1.298698 -1.34577,2.888893 -0.616659,1.59009 -1.307079,2.98267 -1.534339,3.09512 -0.23095,0.11396 -0.80321,-0.35651 -1.29755,-1.06663 -0.48639,-0.69886 -1.21318,-1.73718 -1.61505,-2.30766 -0.40187,-0.57048 -1.31022,-1.450623 -2.01851,-1.955836 -1.28227,-0.914949 -1.2905,-0.915559 -1.93472,-0.160577 -0.35586,0.417024 -0.97261,1.587403 -1.37043,2.601023 -0.48809,1.24337 -0.90979,1.84077 -1.29638,1.83662 -0.31514,-0.003 -1.73574,-1.13609 -3.15694,-2.51738 -1.82952,-1.777948 -2.71853,-2.421167 -3.04484,-2.203002 -0.5346,0.357741 -1.84567,3.398232 -2.36574,5.486392 -0.35408,1.42145 -1.50996,2.43858 -1.73453,1.52583 -0.32874,-1.33609 -3.27182,-6.535358 -4.07003,-7.190047 l -0.94052,-0.77143 -1.35608,1.709142 c -0.74584,0.939985 -1.35769,1.983995 -1.35978,2.320235 -0.004,0.67461 -1.35752,2.21131 -1.942,2.20504 -0.20388,-0.002 -1.20865,-1.316 -2.23284,-2.91969 -1.02418,-1.603513 -1.9434,-2.928136 -2.04261,-2.944016 -0.24076,-0.03762 -2.65899,3.036246 -3.31855,4.218296 -0.51351,0.92039 -0.56029,1.06933 -0.64068,2.03871 -0.0885,1.06656 -1.0103,0.65001 -1.71665,-0.77575 -0.40471,-0.81705 -1.30258,-2.26525 -1.99525,-3.21817 l -1.2594,-1.732623 -1.15793,2.972893 c -1.37162,3.52134 -1.81601,3.6981 -3.33161,1.32564 -1.22007,-1.91016 -3.5826,-4.258604 -4.29173,-4.266218 -0.62598,-0.0067 -1.28241,0.934858 -2.17292,3.116518 -0.43732,1.07139 -0.93851,1.76587 -1.32594,1.8369 -0.40341,0.074 -1.51454,-0.79772 -3.15301,-2.47351 -2.04599,-2.092221 -2.63351,-2.516004 -3.07087,-2.213652 -0.54421,0.376394 -1.9412,3.796352 -2.30497,5.643102 -0.16334,0.82906 -0.90223,1.74392 -1.40442,1.73852 -0.0708,-6.8e-4 -0.85792,-1.54322 -1.74912,-3.42776 -0.95527,-2.02006 -2.0011,-3.726823 -2.54792,-4.157986 -0.92041,-0.72588 -0.93374,-0.724631 -1.72333,0.176433 -1.37315,1.566513 -1.68364,2.037013 -2.05423,3.113673 -0.45693,1.32751 -1.69886,2.41651 -2.25291,1.97558 -0.22646,-0.18018 -1.16913,-1.47545 -2.09483,-2.87827 -0.92572,-1.402757 -1.77831,-2.599329 -1.89462,-2.658127 -0.53996,-0.274921 -3.58354,4.303497 -3.92003,5.896657 -0.29372,1.39076 -1.05846,1.11137 -1.83935,-0.67166 -0.4054,-0.92563 -1.07962,-2.11152 -1.49828,-2.63559 -0.61348,-0.7678 -0.75902,-1.313102 -0.74977,-2.80977 0.006,-1.021153 0.11172,-1.933987 0.23424,-2.029763 0.26493,-0.205789 10.92325,-0.67827 13.67447,-0.606814 9.34004,0.24347 13.84864,0.287916 24.23616,0.238823 6.58426,-0.03104 13.63476,-0.172584 15.66776,-0.314534 2.033,-0.141128 3.99549,-0.229684 4.36105,-0.194624 1.20889,0.11659 1.69085,0.138107 2.43784,0.112032 0.40654,-0.01614 3.99771,0.0039 7.98041,0.0466 3.98273,0.0398 8.90412,0.04435 10.93645,0.0086 2.03236,-0.03593 4.60586,0.04946 5.71883,0.190955 1.11299,0.141317 2.97527,0.124734 4.138379,-0.03659 1.16312,-0.161272 3.77789,-0.364758 5.81058,-0.453357 2.03265,-0.08814 4.62727,-0.240017 5.76587,-0.338193 1.13862,-0.0984 2.20308,-0.163052 2.36552,-0.144897 0.47816,0.05359 11.17296,0.600397 11.81953,0.607341 0.3251,0.0011 2.1213,-0.08619 3.99157,-0.197065 3.06053,-0.181196 8.65598,-0.15147 14.33523,0.0755 1.13766,0.04545 5.1288,-0.07434 8.86911,-0.265875 3.74026,-0.190807 7.73119,-0.285019 8.86866,-0.206756 4.76107,0.326059 14.06671,0.858086 14.38223,0.861475 0.0295,2.27e-4 0.0736,1.067434 0.29251,5.339622 z"
       sodipodi:nodetypes="cscccccccsccccsccscccccscccscscccccsccsccccccccsscsccccccccsccsccscsscccsscsscsscscscssscccsccssssssccssccccscscsscccssccscssssssssccccccsscsccscsssssscscscssscssssccsscscscscssssccscscscccsscssscccscscccssccccssccssscsscscccccccccscccccscccssc" />
  </g>
</svg>
