<?xml version="1.0" encoding="UTF-8" standalone="no"?>
<svg
   xmlns:dc="http://purl.org/dc/elements/1.1/"
   xmlns:cc="http://creativecommons.org/ns#"
   xmlns:rdf="http://www.w3.org/1999/02/22-rdf-syntax-ns#"
   xmlns:svg="http://www.w3.org/2000/svg"
   xmlns="http://www.w3.org/2000/svg"
   xmlns:sodipodi="http://sodipodi.sourceforge.net/DTD/sodipodi-0.dtd"
   xmlns:inkscape="http://www.inkscape.org/namespaces/inkscape"
   width="20.950041mm"
   height="169.82001mm"
   viewBox="0 0 20.950041 169.82001"
   version="1.1"
   id="svg21931"
   inkscape:version="1.0 (b51213c273, 2020-08-10)">
  <defs
     id="defs21925" />
  <sodipodi:namedview
     id="base"
     pagecolor="#ffffff"
     bordercolor="#666666"
     borderopacity="1.0"
     inkscape:pageopacity="0.0"
     inkscape:pageshadow="2"
     inkscape:zoom="0.35"
     inkscape:cx="-5.9752315"
     inkscape:cy="462.7728"
     inkscape:document-units="mm"
     inkscape:current-layer="layer1"
     inkscape:document-rotation="0"
     showgrid="false"
     inkscape:snap-global="false"
     fit-margin-top="0"
     fit-margin-left="0"
     fit-margin-right="0"
     fit-margin-bottom="0"
     showborder="false"
     inkscape:window-width="1318"
     inkscape:window-height="704"
     inkscape:window-x="48"
     inkscape:window-y="27"
     inkscape:window-maximized="1" />
  <metadata
     id="metadata21928">
    <rdf:RDF>
      <cc:Work
         rdf:about="">
        <dc:format>image/svg+xml</dc:format>
        <dc:type
           rdf:resource="http://purl.org/dc/dcmitype/StillImage" />
        <dc:title></dc:title>
      </cc:Work>
    </rdf:RDF>
  </metadata>
  <g
     inkscape:label="Layer 1"
     inkscape:groupmode="layer"
     id="layer1"
     transform="translate(-107.41428,-56.218039)">
    <path
       id="path3808"
       style="fill:#ff0000;stroke-width:0.295334"
       d="m 118.11062,56.218039 c -5.09493,0.002 -10.19215,0.02 -10.25435,0.02 -0.39199,0 -0.44199,9.6305 -0.44199,84.899901 v 84.9001 h 3.39075 16.80704 0.73699 v -84.9 -84.590791 c 0.02,-0.10501 0.02,-0.20201 0.002,-0.23501 0,0 -0.002,0 -0.002,0 v -0.07 h -1.74307 -0.89399 c -1.96557,-0.02 -4.76693,-0.02 -7.60188,-0.02 z m 6.6255,2.40795 0.03,0.94102 c 0.01,0.29801 -0.113,4.8317 -0.06,10.28212 0.05,5.45051 0.16199,17.63077 0.23899,27.06737 0.146,18.080391 0.365,30.565151 0.58199,33.279711 0.07,0.89502 0.198,11.20124 0.282,22.90318 0.08,11.70195 0.229,22.21827 0.32199,23.3697 0.09,1.15132 0.225,11.14544 0.293,22.20907 0.07,11.06363 0.195,20.91434 0.282,21.89056 0.09,0.97602 0.08,2.14095 -0.01,2.58846 -0.182,0.87302 -0.83699,1.09392 -1.11209,0.37501 -0.09,-0.24101 -0.16899,-4.3349 -0.16899,-9.0965 0,-7.45685 -0.106,-16.64455 -0.47,-40.90186 -0.04,-2.76586 -0.109,-12.55007 -0.152,-21.74266 -0.04,-9.55051 -0.19699,-17.09407 -0.35799,-17.60118 -0.162,-0.51101 -0.32299,-8.92459 -0.37799,-19.81982 -0.05,-10.41282 -0.189,-21.727861 -0.302,-25.144631 -0.245,-7.42146 -0.233,-6.65844 -0.146,-9.02249 0.04,-1.05752 0.05,-6.88155 0.03,-12.94208 l 0.002,-8.67068 c 0,-0.002 0.17,-0.32101 0.52599,-0.32201 0.265,-0.01 0.45,0.18101 0.561,0.35801 z m -3.45415,-0.103 0.209,0.75101 c 0.07,1.66874 -0.07,4.16369 0.04,5.54662 0.115,1.38293 0.12,3.01367 0.01,3.62378 -0.10799,0.61001 -0.09,1.67503 0.04,2.36655 0.132,0.69101 0.224,3.52027 0.206,6.28613 -0.02,2.76596 0.01,7.82447 0.07,11.24114 0.104,6.07833 0.116,15.841741 0.02,18.488691 -0.03,0.73202 0.03,3.39447 0.119,5.91633 0.18099,4.9955 0.31899,14.1996 0.23199,15.38252 -0.03,0.40701 0.003,1.40523 0.07,2.21875 0.123,1.43433 0.171,5.15221 0.08,6.65584 -0.02,0.40701 0.05,1.13883 0.156,1.62694 0.24,1.06912 0.279,11.79175 0.05,12.94057 -0.09,0.44701 -0.04,2.11045 0.105,3.69768 0.14699,1.58723 0.17699,3.41837 0.07,4.06909 -0.112,0.65101 -0.1,1.76703 0.03,2.48045 0.25799,1.43623 0.34799,9.6643 0.14099,12.90217 -0.07,1.13893 -0.03,3.00257 0.09,4.14149 0.122,1.13882 0.104,2.30055 -0.04,2.58155 -0.156,0.30501 -0.133,1.31463 0.06,2.50726 0.375,2.35095 0.406,11.97005 0.04,13.25188 -0.138,0.48801 -0.148,1.28693 -0.02,1.77504 0.207,0.80101 0.57599,10.47812 0.59999,15.67833 0.01,2.55625 -0.26499,9.05169 -0.39099,9.17469 -0.179,0.17601 -5.23062,0.26301 -5.40012,0.09 -0.09,-0.10001 0.65099,-0.92002 1.65798,-1.83444 1.69367,-1.53774 1.80537,-1.71564 1.50027,-2.38745 -0.18099,-0.39901 -1.19798,-1.41063 -2.25946,-2.24755 -2.05647,-1.62134 -2.38287,-2.39005 -1.26648,-2.98167 1.48147,-0.78501 4.05413,-2.99126 4.05413,-3.47647 0,-0.80902 -0.96998,-1.66183 -3.04785,-2.67726 -2.70136,-1.32032 -2.81516,-2.05534 -0.50999,-3.29457 0.57899,-0.311 1.64027,-1.10662 2.35966,-1.76823 l 1.30778,-1.20293 -0.53899,-0.94602 c -0.85199,-1.49693 -1.96647,-2.57195 -3.45675,-3.33487 -0.75898,-0.38901 -1.46877,-0.85002 -1.57687,-1.02642 -0.23,-0.37401 0.63199,-1.41863 1.48238,-1.79514 0.66498,-0.29401 1.69417,-0.92002 1.91657,-1.16432 0.08,-0.09 0.57899,-0.46401 1.10568,-0.83402 0.52699,-0.36901 0.95798,-0.86102 0.95798,-1.09322 0,-0.60502 -2.11576,-2.05755 -4.14713,-2.84777 -2.11917,-0.82401 -2.38637,-1.31032 -1.03249,-1.87783 1.34808,-0.56502 4.58993,-3.60888 4.58993,-4.3095 0,-0.367 -0.62299,-0.94002 -1.81127,-1.66903 -0.99598,-0.61101 -2.15297,-1.39463 -2.57046,-1.74204 -0.68199,-0.56801 -0.71499,-0.68501 -0.32599,-1.15512 0.23799,-0.28801 0.83098,-0.69302 1.31728,-0.89902 1.06778,-0.45401 3.09595,-2.27955 3.09595,-2.78746 0,-0.40901 -1.67438,-2.08845 -3.32995,-3.33977 -0.60099,-0.45401 -1.09238,-1.05342 -1.09238,-1.33123 0,-0.28001 0.62299,-0.90002 1.40057,-1.39243 4.23554,-2.68486 4.30884,-3.65658 0.424,-5.61272 -2.75986,-1.38953 -2.82496,-1.95214 -0.405,-3.49877 0.94299,-0.60302 2.09917,-1.49853 2.56906,-1.99055 l 0.85399,-0.89501 -0.53999,-1.00523 c -0.71499,-1.33242 -1.96127,-2.50005 -3.49425,-3.27436 -1.97837,-0.99903 -1.75827,-1.68734 1.10719,-3.46088 3.46884,-2.14694 3.46984,-2.14864 2.10286,-3.34727 -0.62699,-0.55001 -2.05346,-1.35943 -3.16955,-1.79874 -1.11608,-0.43901 -2.02917,-0.96502 -2.02917,-1.16752 0,-0.20301 0.57599,-0.70802 1.27948,-1.12133 1.73328,-1.01902 3.92654,-3.02466 4.12024,-3.76778 0.131,-0.50101 -0.27399,-0.88701 -2.32606,-2.21464 -1.36628,-0.88402 -2.48417,-1.79874 -2.48417,-2.03205 0,-0.233 0.74699,-0.93102 1.66078,-1.55133 0.91298,-0.62001 1.91637,-1.36803 2.22906,-1.66253 0.562,-0.52901 0.562,-0.54702 -0.02,-1.47904 -0.327,-0.51901 -1.29658,-1.48253 -2.15567,-2.14124 -2.20167,-1.68824 -2.19877,-2.32635 0.02,-3.76278 0.94598,-0.61301 2.03027,-1.44663 2.41026,-1.85244 0.68899,-0.73602 0.68899,-0.74002 0.12,-1.50093 -0.314,-0.42001 -1.49968,-1.26183 -2.63496,-1.87134 -2.60586,-1.39923 -2.74706,-1.93384 -0.82799,-3.13417 1.88187,-1.17692 3.62895,-2.77026 3.62895,-3.30927 0,-0.41001 -0.73599,-1.59693 -1.76478,-2.84606 -0.24599,-0.298 -1.08298,-0.86902 -1.86107,-1.26922 -0.77799,-0.40001 -1.49778,-0.94502 -1.59927,-1.21043 -0.203,-0.52901 -0.224,-0.51101 3.23495,-2.77356 1.25678,-0.82202 2.28516,-1.66923 2.28516,-1.88224 0,-0.58201 -1.66917,-1.741041 -3.97304,-2.757961 -1.13108,-0.49901 -2.09647,-1.02972 -2.14646,-1.17882 -0.05,-0.14901 0.67699,-0.74802 1.61417,-1.33183 0.93699,-0.58301 2.23197,-1.60663 2.87716,-2.27395 1.42718,-1.47593 1.33608,-1.71534 -1.32698,-3.48847 -2.63826,-1.75674 -2.84706,-1.99205 -2.32697,-2.62126 0.229,-0.277 0.81499,-0.67301 1.30148,-0.88002 1.01069,-0.42901 3.09596,-2.26915 3.09596,-2.73156 0,-0.376 -1.52208,-1.92774 -3.19046,-3.25186 -0.67799,-0.53802 -1.23238,-1.21793 -1.23238,-1.51104 0,-0.33 0.64699,-0.93402 1.69548,-1.58423 0.93198,-0.57801 2.02367,-1.40303 2.42506,-1.83294 0.68299,-0.73101 0.70199,-0.83302 0.291,-1.57903 -0.265,-0.48101 -1.25668,-1.21933 -2.49887,-1.86054 -2.62556,-1.35483 -2.86295,-2.12645 -0.99498,-3.23267 0.68099,-0.40301 1.84407,-1.28643 2.58426,-1.96234 1.29678,-1.18413 1.33078,-1.25763 0.92899,-2.01034 -0.62699,-1.17633 -2.26277,-2.75976 -3.50865,-3.39748 -1.60778,-0.82301 -1.88827,-1.24942 -1.33918,-2.03604 0.248,-0.35501 0.58299,-0.64501 0.74499,-0.64501 0.23499,0 1.31268,0.117 2.34036,-0.63402 0.58199,-0.002 1.36608,-0.08 1.93607,-0.08 0.459,-0.002 0.63499,-0.009 1.08089,-0.01 z m -8.19988,-0.29201 -1.33118,2.22495 c -2.23226,3.73098 -1.23218,1.29303 -0.55899,1.87134 0.319,0.27401 1.49038,0.89502 2.60286,1.37963 2.69946,1.17632 3.03296,1.50433 2.32607,2.28795 -0.298,0.33 -0.64799,0.60101 -0.77699,0.60101 -0.129,0 -1.08818,0.59801 -2.13077,1.32953 -2.24266,1.57293 -3.00215,2.56575 -2.57536,3.36607 0.377,0.70701 2.18397,2.29885 2.87546,2.53325 0.78299,0.26501 1.64177,1.56664 1.36048,2.06095 -0.129,0.228 -1.09789,1.18052 -2.15197,2.11754 -1.05418,0.93702 -1.95927,1.81084 -2.01147,1.94174 -0.275,0.69002 3.63944,4.10419 4.70573,4.10419 0.93798,0 0.60599,0.77102 -0.70399,1.63743 -1.28908,0.85202 -3.46445,2.79186 -3.46445,3.08887 0,0.09 0.99499,0.68101 2.21137,1.30883 1.23048,0.63501 2.21136,1.33423 2.21136,1.57573 0,0.23901 -0.64699,1.05342 -1.43727,1.81034 -1.82338,1.74604 -2.98546,3.33767 -2.98546,4.08899 0,0.73901 1.01969,1.71203 2.40076,2.29104 1.88858,0.792021 1.82318,1.126131 -0.96798,4.942311 -0.78799,1.07752 -1.43268,2.15635 -1.43268,2.39755 0,0.26401 1.06479,0.93502 2.66996,1.68324 1.46838,0.68401 2.74376,1.43773 2.83406,1.67373 0.21199,0.55401 -0.338,1.20583 -1.49048,1.76564 -1.52318,0.74001 -3.54565,2.35445 -3.98364,3.18027 -0.37799,0.71401 -0.34899,0.86101 0.366,1.80033 0.42799,0.56202 1.34008,1.33413 2.02756,1.71464 0.76399,0.42301 1.36298,1.01382 1.54038,1.52013 0.268,0.76502 0.178,0.93002 -1.17318,2.15565 -0.80499,0.73001 -1.76197,1.53623 -2.12677,1.79174 -0.65199,0.45601 -0.92798,1.57983 -0.38799,1.57983 0.151,0 0.35499,0.23301 0.45199,0.51801 0.229,0.66802 2.74606,2.54436 3.67144,2.73636 1.15279,0.239 1.04089,0.81602 -0.32799,1.69344 -1.43558,0.92001 -3.48045,2.71975 -3.48045,3.06366 0,0.124 0.98899,0.72202 2.19727,1.32893 1.20838,0.60701 2.26796,1.28973 2.35486,1.51643 0.09,0.23001 -0.26299,0.80602 -0.79698,1.30523 -0.525,0.49101 -1.30478,1.22492 -1.73328,1.63063 -0.42899,0.40601 -1.08718,1.32023 -1.46378,2.03225 -0.68199,1.28892 -0.68299,1.29712 -0.10599,1.93724 0.31799,0.354 1.20918,0.96402 1.97957,1.35543 0.94498,0.48101 1.40047,0.89901 1.40047,1.28602 0,0.31501 -0.84598,1.74424 -1.87947,3.17507 -1.33068,1.84194 -1.81027,2.73566 -1.64247,3.06097 0.27499,0.53301 2.58676,1.82603 4.17133,2.33364 1.07859,0.34601 1.85778,1.49604 1.16879,1.72644 -1.00849,0.33701 -4.91933,3.31487 -5.40832,4.11779 l -0.57599,0.94602 1.30448,1.34653 c 0.71799,0.74101 1.51257,1.34653 1.76707,1.34653 0.50999,0 1.68448,1.34492 1.68448,1.92994 0,0.204 -0.98599,1.21772 -2.19147,2.25264 -1.20518,1.03493 -2.20027,1.96305 -2.21147,2.06245 -0.03,0.241 2.31947,2.64235 3.21945,3.29517 0.70099,0.50801 0.81399,0.55401 1.54808,0.62901 0.80799,0.08 0.49999,1.00702 -0.57299,1.72284 -0.61499,0.41001 -1.70378,1.31763 -2.41936,2.01674 l -1.30099,1.27113 2.25927,1.14042 c 2.67616,1.35093 2.81356,1.79464 1.03038,3.32607 -1.43577,1.23293 -3.19385,3.61188 -3.19385,4.32159 0,0.62602 0.71799,1.27763 2.37627,2.15535 0.81398,0.43101 1.34408,0.92802 1.40098,1.31573 0.06,0.40301 -0.592,1.52063 -1.84638,3.17076 -1.56677,2.06055 -1.88277,2.65126 -1.65037,3.08707 0.28899,0.54201 2.88886,1.91924 4.28943,2.27185 0.62899,0.158 1.32718,0.89202 1.32718,1.39483 0,0.07 -1.16098,0.86802 -2.57996,1.77174 -1.52097,0.96902 -2.80415,2.02574 -3.12605,2.57565 -0.54199,0.92602 -0.54099,0.93902 0.147,1.72364 1.19668,1.36453 1.55537,1.67243 2.37316,2.03664 1.00839,0.44901 1.84267,1.68524 1.51348,2.24245 -0.135,0.228 -1.10718,1.17922 -2.16127,2.11434 -1.05408,0.93502 -1.95277,1.79584 -1.99637,1.91264 -0.20399,0.54201 3.28605,3.55978 4.49453,3.88668 1.05489,0.28501 0.84999,1.05243 -0.49299,1.84494 -0.69699,0.41101 -1.58917,1.09353 -1.98247,1.51584 -0.57599,0.61901 -0.98798,0.76801 -2.12037,0.76801 -0.77298,0 -1.46447,-0.1 -1.53797,-0.222 -0.158,-0.26401 -0.60199,-10.92773 -0.56999,-13.68169 0.10799,-9.349 0.10499,-13.8615 -0.02,-24.25702 -0.08,-6.58934 -0.241,-13.64469 -0.365,-15.67843 -0.123,-2.03374 -0.20599,-3.99728 -0.183,-4.36329 0.08,-1.21063 0.09,-1.69314 0.06,-2.44055 -0.02,-0.40701 -0.03,-4.00089 -0.03,-7.98707 -0.002,-3.98619 -0.04,-8.91149 -0.08,-10.94533 -0.04,-2.03375 0,-4.6098 0.1,-5.72453 0.1,-1.11482 0.07,-2.97846 -0.06,-4.14148 -0.132,-1.16303 -0.307,-3.77868 -0.39,-5.81243 -0.08,-2.03374 -0.219,-4.62949 -0.30299,-5.76842 -0.08,-1.13892 -0.141,-2.20385 -0.129,-2.36655 0.04,-0.47901 0.36399,-11.18564 0.36399,-11.83275 -0.002,-0.32501 -0.08,-2.12245 -0.182,-3.99358 -0.16199,-3.06187 -0.18499,-8.661991 -0.06,-14.347111 0.03,-1.13892 -0.1,-5.13251 -0.273,-8.87459 -0.175,-3.74208 -0.279,-7.73566 -0.229,-8.87459 0.208,-4.7669 0.535,-14.08329 0.535,-14.399 0,-0.03 0.80698,-0.08 4.03873,-0.32601 z"
       sodipodi:nodetypes="cscccccccsccccsccscccccscccscscccccsccsccccccccsscsccccccccsccsccscsscccsscsscsscscscssscccsccssssssccssccccscscsscccssccscssssssssccccccsscsccscsssssscscscssscssssccsscscscscssssccscscscccsscssscccscscccssccccssccssscsscscccccccccscccccscccssc" />
  </g>
</svg>
