<?xml version="1.0" encoding="UTF-8" standalone="no"?>
<svg
   xmlns:dc="http://purl.org/dc/elements/1.1/"
   xmlns:cc="http://creativecommons.org/ns#"
   xmlns:rdf="http://www.w3.org/1999/02/22-rdf-syntax-ns#"
   xmlns:svg="http://www.w3.org/2000/svg"
   xmlns="http://www.w3.org/2000/svg"
   xmlns:sodipodi="http://sodipodi.sourceforge.net/DTD/sodipodi-0.dtd"
   xmlns:inkscape="http://www.inkscape.org/namespaces/inkscape"
   width="169.81999mm"
   height="20.949965mm"
   viewBox="0 0 169.81999 20.949965"
   version="1.1"
   id="svg25014"
   inkscape:version="1.0 (b51213c273, 2020-08-10)">
  <defs
     id="defs25008" />
  <sodipodi:namedview
     id="base"
     pagecolor="#ffffff"
     bordercolor="#666666"
     borderopacity="1.0"
     inkscape:pageopacity="0.0"
     inkscape:pageshadow="2"
     inkscape:zoom="0.35"
     inkscape:cx="-464.59926"
     inkscape:cy="231.35229"
     inkscape:document-units="mm"
     inkscape:current-layer="layer1"
     inkscape:document-rotation="0"
     showgrid="false"
     inkscape:snap-global="false"
     fit-margin-top="0"
     fit-margin-left="0"
     fit-margin-right="0"
     fit-margin-bottom="0"
     showborder="false"
     inkscape:window-width="1318"
     inkscape:window-height="704"
     inkscape:window-x="48"
     inkscape:window-y="27"
     inkscape:window-maximized="1" />
  <metadata
     id="metadata25011">
    <rdf:RDF>
      <cc:Work
         rdf:about="">
        <dc:format>image/svg+xml</dc:format>
        <dc:type
           rdf:resource="http://purl.org/dc/dcmitype/StillImage" />
        <dc:title></dc:title>
      </cc:Work>
    </rdf:RDF>
  </metadata>
  <g
     inkscape:label="Layer 1"
     inkscape:groupmode="layer"
     id="layer1"
     transform="translate(-18.168108,-86.954706)">
    <path
       id="path21254"
       style="fill:#000000;stroke-width:0.292364"
       d="m 187.9881,97.437549 c -0.002,-4.992995 -0.0236,-9.988353 -0.0236,-10.049308 0,-0.384446 -9.63028,-0.433535 -84.8981,-0.433535 H 18.168108 v 3.322919 16.470995 0.72251 h 84.898202 84.58896 c 0.10526,0.0152 0.20238,0.0221 0.23536,0.002 0,0 0,-0.002 0,-0.002 h 0.0732 v -1.70819 -0.87598 c 0.0188,-1.92628 0.0246,-4.67163 0.0236,-7.449853 z m -2.40792,6.493021 -0.9412,0.0336 c -0.2984,0.0106 -4.83159,-0.1107 -10.28192,-0.0568 -5.45035,0.0539 -17.63035,0.15882 -27.06675,0.23411 -18.08004,0.14349 -30.56451,0.35772 -33.27897,0.57077 -0.89482,0.0703 -11.20103,0.19457 -22.902752,0.27648 -11.70168,0.0818 -22.21782,0.22388 -23.36919,0.31569 -1.15134,0.0917 -11.14524,0.22096 -22.20863,0.2874 -11.06337,0.0663 -20.9139,0.19098 -21.89009,0.27612 -0.97618,0.0851 -2.14092,0.0806 -2.58834,-0.011 -0.87322,-0.17837 -1.09391,-0.82029 -0.37469,-1.08983 0.24137,-0.0901 4.3347,-0.16543 9.09628,-0.16543 7.45673,0 16.64415,-0.10415 40.90095,-0.46053 2.76584,-0.0406 12.54981,-0.10714 21.74219,-0.14876 9.550352,-0.0428 17.093702,-0.19294 17.600802,-0.35047 0.51071,-0.15864 8.92446,-0.3163 19.81946,-0.37073 10.41259,-0.0525 21.72739,-0.18551 25.14402,-0.29613 7.42129,-0.24003 6.65837,-0.22801 9.0223,-0.14282 1.05756,0.0423 6.88141,0.0522 12.94184,0.0311 l 8.67049,0.002 c 0.002,0 0.32119,0.16641 0.32253,0.51506 0.0114,0.25966 -0.18091,0.44104 -0.35833,0.55014 z m 0.10327,-3.38502 -0.75101,0.20459 c -1.66873,0.0674 -4.16359,-0.0697 -5.54653,0.0431 -1.38294,0.11257 -3.01357,0.11804 -3.62369,0.0122 -0.61012,-0.10602 -1.67503,-0.0868 -2.36648,0.0427 -0.69147,0.1294 -3.52023,0.21933 -6.28607,0.20144 -2.76585,-0.0185 -7.82425,0.0137 -11.24087,0.07 -6.07822,0.10169 -15.84139,0.11369 -18.48826,0.0231 -0.73215,-0.025 -3.3944,0.0273 -5.91621,0.11679 -4.9954,0.1771 -14.19934,0.31245 -15.38226,0.2272 -0.40674,-0.0294 -1.40515,0.003 -2.21863,0.071 -1.43429,0.1209 -5.15212,0.16715 -6.65576,0.083 -0.40675,-0.0228 -1.13883,0.0464 -1.62692,0.15339 -1.06909,0.23513 -11.791472,0.27379 -12.940222,0.0469 -0.4465,-0.0882 -2.11045,-0.042 -3.69765,0.10264 -1.58719,0.14407 -3.41824,0.17353 -4.06904,0.0643 -0.65077,-0.10956 -1.76697,-0.0962 -2.48039,0.0295 -1.43619,0.25289 -9.66407,0.34069 -12.90185,0.13785 -1.13889,-0.0712 -3.00252,-0.0321 -4.14139,0.0873 -1.13887,0.11932 -2.30056,0.10163 -2.58154,-0.0396 -0.30517,-0.15256 -1.3146,-0.13038 -2.50722,0.0557 -2.35087,0.36734 -11.96977,0.39805 -13.25159,0.0427 -0.4881,-0.13557 -1.28683,-0.14535 -1.77493,-0.0221 -0.80146,0.20244 -10.47791,0.56463 -15.67805,0.58772 -2.55614,0.011 -9.05144,-0.26007 -9.17453,-0.38305 -0.17607,-0.17568 -0.2635,-5.126028 -0.0934,-5.292128 0.0951,-0.0929 0.92053,0.638275 1.83438,1.624772 1.53772,1.659826 1.71561,1.769316 2.3874,1.470316 0.39921,-0.17754 1.41064,-1.174058 2.24753,-2.214309 1.62131,-2.015352 2.38999,-2.335225 2.98163,-1.241204 0.78507,1.451894 2.99111,3.973103 3.47632,3.973103 0.80949,0 1.66183,-0.950937 2.67721,-2.986878 1.32034,-2.647389 2.0553,-2.758853 3.29452,-0.499848 0.31097,0.56699 1.10663,1.607494 1.76821,2.312505 l 1.20286,1.281661 0.94639,-0.52805 c 1.4969,-0.835223 2.57195,-1.927148 3.33486,-3.387578 0.38847,-0.743637 0.85038,-1.439402 1.02642,-1.545356 0.37396,-0.225751 1.4186,0.619647 1.79503,1.452673 0.29453,0.65178 0.91979,1.660335 1.16433,1.878277 0.0892,0.07946 0.46432,0.567109 0.83363,1.083625 0.3693,0.516379 0.86119,0.938969 1.09313,0.938969 0.60461,0 2.05753,-2.073407 2.84776,-4.064215 0.82439,-2.076747 1.31029,-2.338588 1.87775,-1.011817 0.56511,1.321091 3.60885,4.498182 4.30942,4.498182 0.36665,0 0.94041,-0.610129 1.66902,-1.775114 0.61069,-0.976252 1.39456,-2.10993 1.74201,-2.519002 0.56776,-0.668484 0.68467,-0.700872 1.15512,-0.319807 0.28787,0.23336 0.69244,0.814143 0.89908,1.290902 0.45356,1.046537 2.27952,3.034149 2.78738,3.034149 0.40912,0 2.0884,-1.640962 3.33968,-3.263433 0.45436,-0.58912 1.05341,-1.070527 1.3312,-1.070527 0.28036,0 0.89986,0.610925 1.39244,1.372581 2.68477,4.150811 3.65647,4.222701 5.61261,0.415363 1.3895,-2.704609 1.95203,-2.76837 3.49869,-0.396921 0.60278,0.924205 1.49851,2.057189 1.99051,2.517686 l 0.89463,0.837203 1.00522,-0.528841 c 1.33239,-0.700888 2.49996,-1.92201 3.27431,-3.424345 0.99932,-1.938844 1.68728,-1.723183 3.46077,1.085028 2.14693,3.399488 2.14866,3.400528 3.34719,2.060841 0.54995,-0.61466 1.359402,-2.012479 1.798702,-3.106195 0.43931,-1.0938 0.96467,-1.988608 1.16755,-1.988608 0.20288,0 0.70746,0.564201 1.1213,1.253964 1.019,1.698625 3.02464,3.847991 3.76768,4.037822 0.50128,0.127927 0.88671,-0.268808 2.21462,-2.279577 0.88424,-1.339011 1.79869,-2.434452 2.03201,-2.434452 0.23332,0 0.93138,0.732429 1.55126,1.627576 0.61986,0.89496 1.36802,1.877973 1.66251,2.184441 0.52862,0.550628 0.54745,0.550343 1.479,-0.02385 0.51899,-0.320025 1.48251,-1.270551 2.1412,-2.112467 1.68823,-2.157699 2.32635,-2.15486 3.76267,0.0164 0.61306,0.926792 1.44664,1.989693 1.85246,2.362135 0.73583,0.675229 0.7399,0.675635 1.50092,0.117753 0.41968,-0.307736 1.2618,-1.469675 1.87131,-2.582258 1.39919,-2.55374 1.93381,-2.692132 3.13409,-0.811253 1.17687,1.844202 2.77013,3.556414 3.3092,3.556414 0.40948,0 1.59685,-0.721662 2.84596,-1.729507 0.29821,-0.240745 0.86936,-1.061345 1.2692,-1.823847 0.39989,-0.762366 0.94456,-1.467866 1.21038,-1.567295 0.52932,-0.198454 0.51094,-0.219396 2.77354,3.170227 0.82217,1.231636 1.66916,2.239481 1.88213,2.239481 0.58248,0 1.74108,-1.63576 2.75796,-3.893598 0.49918,-1.108472 1.02964,-2.054533 1.17881,-2.103572 0.14917,-0.04855 0.74847,0.663308 1.33182,1.5819 0.58337,0.918544 1.6066,2.187385 2.27383,2.819676 1.47593,1.398611 1.71531,1.309377 3.48847,-1.300437 1.75664,-2.585554 1.99198,-2.790107 2.62116,-2.280455 0.27743,0.224789 0.67341,0.798675 0.88004,1.27545 0.42926,0.990453 2.26903,3.034051 2.73148,3.034051 0.37621,0 1.92765,-1.49167 3.25178,-3.126633 0.53796,-0.664204 1.21793,-1.207749 1.51103,-1.207749 0.3296,0 0.93387,0.633846 1.58417,1.661551 0.57824,0.913861 1.40302,1.983202 1.83287,2.376605 0.73149,0.669414 0.8326,0.687653 1.57907,0.284865 0.48107,-0.259744 1.2193,-1.23155 1.86041,-2.448952 1.35483,-2.57298 2.12644,-2.805644 3.23264,-0.975121 0.40331,0.667586 1.28639,1.807197 1.96236,2.532545 1.18406,1.270887 1.2575,1.304171 2.01027,0.910579 1.17625,-0.614813 2.75969,-2.217572 3.39736,-3.438492 0.82288,-1.575714 1.24942,-1.850556 2.03604,-1.312401 0.35498,0.24289 0.64539,0.571453 0.64539,0.730096 0,0.230129 -0.11728,1.286506 0.63403,2.293607 0.002,0.570474 0.081,1.338788 0.0829,1.897329 0.002,0.450065 0.009,0.622605 0.0109,1.059269 z m 0.29216,-8.036 -2.22491,-1.304542 c -3.73091,-2.187585 -1.29305,-1.20748 -1.87126,-0.547755 -0.274,0.312537 -0.89485,1.460517 -1.37965,2.550817 -1.17631,2.645464 -1.50428,2.972249 -2.28786,2.279577 -0.33045,-0.292066 -0.60084,-0.634708 -0.60084,-0.761369 0,-0.126727 -0.5983,-1.066485 -1.3295,-2.088191 -1.57286,-2.197829 -2.56571,-2.942176 -3.36598,-2.523906 -0.70728,0.369706 -2.29886,2.140357 -2.53324,2.817933 -0.26526,0.766998 -1.56654,1.608965 -2.06089,1.333281 -0.22761,-0.126832 -1.18052,-1.075867 -2.11751,-2.108881 -0.93701,-1.033085 -1.81076,-1.920084 -1.94169,-1.971218 -0.69014,-0.269465 -4.1041,3.566625 -4.1041,4.611556 0,0.919015 -0.77114,0.594088 -1.63737,-0.689916 -0.85233,-1.263246 -2.79183,-3.395168 -3.08885,-3.395168 -0.0919,0 -0.68088,0.975272 -1.30874,2.167151 -0.63524,1.205925 -1.33419,2.167147 -1.57576,2.167147 -0.23877,0 -1.05335,-0.633776 -1.81024,-1.408484 -1.74602,-1.786979 -3.33762,-2.925814 -4.08889,-2.925814 -0.73899,0 -1.71207,0.999361 -2.291,2.352773 -0.79167,1.850824 -1.12609,1.786725 -4.94227,-0.948648 -1.07745,-0.772341 -2.15627,-1.404125 -2.3975,-1.404125 -0.26366,0 -0.935,1.043563 -1.68316,2.616591 -0.68451,1.439046 -1.43769,2.688955 -1.6737,2.777396 -0.5543,0.207802 -1.20577,-0.331113 -1.76559,-1.460633 -0.73991,-1.492767 -2.35442,-3.474801 -3.18024,-3.904008 -0.71385,-0.370957 -0.86094,-0.341662 -1.80023,0.35816 -0.56258,0.419066 -1.33418,1.3133 -1.71464,1.987021 -0.42288,0.748826 -1.01384,1.335713 -1.52015,1.509554 -0.76478,0.262787 -0.93012,0.174531 -2.15551,-1.149653 -0.72997,-0.788752 -1.53621,-1.726733 -1.79173,-2.084252 -0.45638,-0.638732 -1.5798,-0.909397 -1.5798,-0.380778 0,0.148298 -0.23297,0.348085 -0.51767,0.443052 -0.66795,0.223995 -2.54434,2.69122 -2.73634,3.5981 -0.2392,1.129754 -0.81597,1.020083 -1.69335,-0.321903 -0.91972,-1.406794 -2.71974,-3.410803 -3.06364,-3.410803 -0.12361,0 -0.72163,0.969035 -1.32894,2.153355 -0.6073,1.184237 -1.28965,2.222579 -1.5164,2.307791 -0.23041,0.08636 -0.80602,-0.258038 -1.30515,-0.780775 -0.49111,-0.514455 -1.22487,-1.278763 -1.63058,-1.698675 -0.40573,-0.419909 -1.32023,-1.065454 -2.0322,-1.434515 -1.28894,-0.668382 -1.29717,-0.668771 -1.93721,-0.103689 -0.35358,0.312129 -0.963542,1.185081 -1.355422,1.940028 -0.48079,0.926062 -0.89911,1.372495 -1.28604,1.372495 -0.31541,0 -1.74412,-0.828763 -3.17496,-1.841935 -1.84195,-1.304067 -2.73564,-1.774065 -3.06087,-1.609656 -0.53278,0.269582 -1.82608,2.535095 -2.33363,4.087972 -0.34558,1.057071 -1.49606,1.820636 -1.72646,1.145462 -0.33725,-0.988323 -3.3148,-4.821048 -4.11767,-5.300257 l -0.94604,-0.564658 -1.34657,1.278427 c -0.74059,0.7031 -1.34647,1.482287 -1.34647,1.731686 0,0.500373 -1.3449,1.650905 -1.92989,1.650905 -0.20405,0 -1.21773,-0.966432 -2.25264,-2.147675 -1.03489,-1.181146 -1.96301,-2.156248 -2.0624,-2.167236 -0.24118,-0.02598 -2.6423,2.273088 -3.29506,3.155031 -0.50823,0.686721 -0.55412,0.797543 -0.62858,1.517143 -0.082,0.791745 -1.00706,0.490147 -1.72279,-0.561682 -0.41008,-0.602759 -1.3176,-1.6697 -2.01671,-2.370944 l -1.2711,-1.275011 -1.14044,2.214142 c -1.35093,2.622609 -1.79457,2.757247 -3.326,1.009723 -1.23285,-1.406997 -3.61176,-3.129962 -4.32148,-3.129962 -0.62652,0 -1.27764,0.703591 -2.15534,2.328767 -0.43103,0.798082 -0.92832,1.317153 -1.31562,1.372934 -0.40327,0.05812 -1.52067,-0.5796 -3.17078,-1.809444 -2.06052,-1.535451 -2.65114,-1.84508 -3.08696,-1.617351 -0.5423,0.283497 -1.91922,2.83112 -2.27185,4.203698 -0.15836,0.616216 -0.89216,1.300606 -1.39476,1.300606 -0.0709,0 -0.86815,-1.137735 -1.77171,-2.528353 -0.9685,-1.490621 -2.02571,-2.748137 -2.57562,-3.063564 -0.92562,-0.531053 -0.93897,-0.53002 -1.72359,0.144564 -1.36452,1.172775 -1.67234,1.524226 -2.03657,2.325689 -0.44907,0.988221 -1.68522,1.805794 -2.24244,1.483183 -0.22775,-0.131832 -1.17917,-1.084993 -2.11427,-2.11806 -0.93511,-1.033015 -1.79577,-1.913673 -1.91256,-1.956355 -0.54206,-0.199603 -3.5597,3.220328 -3.8866,4.404616 -0.28534,1.033826 -1.05242,0.832687 -1.84493,-0.483501 -0.41146,-0.683291 -1.09353,-1.557477 -1.51577,-1.942834 -0.6187,-0.564575 -0.76771,-0.967852 -0.76771,-2.077964 0,-0.757415 0.0998,-1.435279 0.22186,-1.507272 0.26385,-0.154739 10.92757,-0.590065 13.68138,-0.558979 9.34884,0.106191 13.86123,0.103249 24.25655,-0.01589 6.58923,-0.07546 13.64436,-0.236588 15.67808,-0.358059 2.0337,-0.120862 3.99717,-0.202153 4.36324,-0.179063 1.21056,0.07685 1.69304,0.08897 2.44042,0.06368 0.40677,-0.01538 4.00087,-0.02901 7.98694,-0.02901 3.98608,-0.0022 8.91135,-0.03802 10.94507,-0.08072 2.033702,-0.04283 4.609742,0 5.724462,0.0961 1.11473,0.09595 2.97837,0.0688 4.14139,-0.06011 1.16301,-0.128876 3.77857,-0.30062 5.8123,-0.382519 2.0337,-0.08156 4.62942,-0.214849 5.7683,-0.296731 1.13889,-0.08205 2.20376,-0.138494 2.36646,-0.126323 0.47886,0.03594 11.18539,0.356317 11.83251,0.356317 0.32537,-0.0017 2.12244,-0.0808 3.99347,-0.177947 3.0618,-0.158745 8.6618,-0.181278 14.34688,-0.05817 1.13885,0.02465 5.13235,-0.09598 8.8744,-0.267826 3.74201,-0.171304 7.73547,-0.272964 8.87432,-0.223977 4.7668,0.203912 14.08299,0.52441 14.39879,0.52441 0.0295,0 0.0802,0.791086 0.32576,3.957917 z"
       sodipodi:nodetypes="cscccccccsccccsccscccccscccscscccccsccsccccccccsscsccccccccsccsccscsscccsscsscsscscscssscccsccssssssccssccccscscsscccssccscssssssssccccccsscsccscsssssscscscssscssssccsscscscscssssccscscscccsscssscccscscccssccccssccssscsscscccccccccscccccscccssc" />
    <path
       style="opacity:0.930349;fill:#ffffff;stroke-width:0.565653"
       d="m 103.30825,107.69709 c 46.74447,0 65.86721,0.0661 42.49498,0.14698 -23.37224,0.0808 -61.617722,0.0808 -84.989952,0 -23.37223,-0.0808 -4.24949,-0.14698 42.494972,-0.14698 z"
       id="path21256" />
    <path
       style="opacity:0.930349;fill:#ffffff;stroke-width:0.565653"
       d="m 103.02208,87.298616 h 84.41764 v 10.0631 10.063114 H 103.02208 18.604478 v -10.063114 -10.0631 z m -81.764312,7.936573 c 0.82975,1.169598 1.79553,2.118582 2.1462,2.108862 0.35066,-0.0096 1.33592,-1.141806 2.18943,-2.515773 0.85353,-1.373968 1.78875,-2.498111 2.07828,-2.498111 0.28955,0 1.21396,0.880523 2.05428,1.956713 0.84033,1.076204 1.98674,1.956729 2.54761,1.956729 0.56085,0 1.85794,-1.018901 2.88244,-2.264196 2.12961,-2.588614 2.43113,-2.500934 5.27252,1.533203 0.93289,1.324489 1.937,2.408163 2.23134,2.408163 0.29436,0 1.19257,-1.2672 1.99602,-2.815987 1.5501,-2.988106 1.55183,-2.988376 4.67275,-0.735421 2.39281,1.727326 3.28635,1.659372 4.75984,-0.362016 0.67242,-0.922445 1.46187,-1.677188 1.7543,-1.677188 0.29244,0 1.52946,0.880523 2.74892,1.956713 1.21947,1.076204 2.58609,1.956729 3.03693,1.956729 0.45085,0 1.34698,-0.901249 1.99143,-2.002761 l 1.17172,-2.002756 1.85048,2.282281 c 2.02804,2.501272 2.75262,2.788723 3.28697,1.303934 0.19365,-0.538102 1.00896,-1.672828 1.81182,-2.521626 l 1.45972,-1.543276 2.11651,2.018836 c 2.26755,2.162887 4.14864,2.270432 4.79722,0.274247 0.18153,-0.558689 0.80418,-1.43492 1.38365,-1.947195 0.9943,-0.878986 1.14648,-0.827328 2.70394,0.91785 0.90767,1.017073 2.05449,2.452283 2.54847,3.189329 1.12928,1.684963 1.93611,1.229522 3.47043,-1.958979 1.29214,-2.685202 1.47195,-2.691018 5.1631,-0.166876 2.13175,1.457795 3.17856,1.298848 4.20407,-0.638324 0.488322,-0.922446 1.231322,-1.67719 1.651092,-1.67719 0.41976,0 1.94695,1.017835 3.39376,2.261863 l 2.63057,2.26186 1.56782,-2.314247 c 1.46244,-2.158697 1.61957,-2.244958 2.33779,-1.283495 0.42348,0.566904 1.31858,1.647996 1.98907,2.402399 1.15997,1.305135 1.24908,1.321023 1.83702,0.327599 0.33985,-0.574244 1.31721,-1.820451 2.1719,-2.769319 l 1.55399,-1.725246 1.99385,2.096473 c 1.09662,1.153067 2.22228,2.096491 2.50146,2.096491 0.2792,0 1.45671,-1.032726 2.61669,-2.294926 2.39385,-2.604825 2.86358,-2.489253 5.31775,1.308365 0.74809,1.157578 1.738,2.104689 2.19984,2.104689 0.46181,0 1.39164,-1.069207 2.06629,-2.376014 0.67464,-1.306808 1.31395,-2.471286 1.42068,-2.587703 0.10673,-0.116434 1.44973,0.575411 2.98445,1.537412 1.53471,0.962019 3.08317,1.749114 3.441,1.749114 0.35783,0 1.05015,-0.754741 1.53847,-1.677188 1.14789,-2.168317 2.07709,-2.114089 4.78939,0.279539 1.21948,1.076187 2.51663,1.956712 2.88256,1.956712 0.36595,0 1.21447,-0.909125 1.88561,-2.020288 l 1.22027,-2.020288 1.95568,2.29983 c 1.99041,2.340667 3.00537,2.874205 3.00537,1.579856 0,-0.395959 0.75159,-1.590964 1.67017,-2.655538 l 1.67018,-1.935599 2.21713,2.096475 c 1.21943,1.153065 2.48512,2.096489 2.81263,2.096489 0.32752,0 1.43371,-1.018882 2.45822,-2.264194 2.1296,-2.588615 2.43112,-2.500934 5.27251,1.533201 0.93289,1.324506 1.93701,2.408184 2.23137,2.408184 0.29434,0 1.18332,-1.249436 1.97552,-2.77652 l 1.44034,-2.776518 2.00323,1.154556 2.00325,1.154552 -0.009,-1.592653 c -0.0191,-3.471183 1.90814,-3.288672 -32.45096,-3.073147 -49.4337,0.310069 -125.378732,1.216591 -129.936892,1.551018 -4.01186,0.294331 -4.14934,0.352784 -4.14934,1.764092 0,0.802817 0.67888,2.416618 1.50864,3.5862 z m -1.00056,7.075701 c 0.40802,0.62898 6.3049,0.69103 35.04601,0.3688 19.00548,-0.21309 38.41863,-0.45342 43.14029,-0.53405 4.721672,-0.0807 25.840372,-0.32542 46.930472,-0.54395 21.0901,-0.21852 38.92511,-0.51197 39.63337,-0.6521 1.06074,-0.20988 1.28624,-0.62245 1.27928,-2.340634 -0.009,-2.26565 -1.01671,-4.662202 -2.10779,-5.013582 -0.37698,-0.121404 -1.26958,0.649736 -1.98353,1.713649 -0.71397,1.063916 -1.81205,2.247918 -2.44018,2.631113 -1.01611,0.619866 -1.36722,0.441361 -3.18299,-1.618026 -1.1225,-1.273118 -2.35259,-2.314755 -2.73351,-2.314755 -0.38096,0 -1.34295,1.006308 -2.1378,2.236254 -1.26478,1.957134 -3.11891,3.022147 -3.16316,1.81695 -0.008,-0.23062 -0.76601,-1.299826 -1.68343,-2.376013 l -1.66802,-1.956714 -2.55628,2.441856 -2.55626,2.441854 -1.5596,-2.302094 c -0.85777,-1.266152 -1.8473,-2.296716 -2.19893,-2.290157 -0.35164,0.0066 -1.37353,1.025408 -2.27083,2.264074 -0.89733,1.238685 -1.92751,2.157718 -2.2893,2.042315 -0.36179,-0.115405 -1.43044,-1.244669 -2.37477,-2.509453 -0.94435,-1.264784 -1.89405,-2.314991 -2.1105,-2.333772 -0.21644,-0.0188 -1.09438,1.223726 -1.95101,2.761154 -0.85661,1.53741 -1.76172,2.795298 -2.01134,2.795298 -0.24964,0 -1.25127,-1.132089 -2.22584,-2.515777 -1.59783,-2.268572 -3.43393,-3.336086 -3.43393,-1.996521 0,0.716237 -3.72284,4.512298 -4.42526,4.512298 -0.31348,0 -1.2839,-1.006309 -2.15646,-2.236235 -0.87257,-1.229946 -2.00216,-2.226702 -2.5102,-2.21504 -0.50805,0.01166 -1.62953,1.017987 -2.4922,2.236254 -0.86262,1.218263 -1.80742,2.215021 -2.09953,2.215021 -0.29208,0 -1.08816,-0.880525 -1.76908,-1.956712 -1.53336,-2.423549 -3.0328,-2.508187 -4.95257,-0.279523 -0.7946,0.922444 -1.78318,1.677172 -2.19683,1.677172 -0.41364,0 -1.50637,-0.91844 -2.42828,-2.040978 l -1.67616,-2.040995 -1.90906,2.320518 c -1.04999,1.276294 -2.20861,2.320518 -2.57474,2.320518 -0.36612,0 -1.50061,-1.135691 -2.5211,-2.523754 -1.02047,-1.388065 -2.09822,-2.377182 -2.39498,-2.198017 -0.29676,0.179149 -0.89448,1.126155 -1.32828,2.104471 -0.433802,0.97828 -1.163272,2.257145 -1.621062,2.841902 -0.79005,1.009211 -0.92534,0.931131 -2.66403,-1.537412 -1.00744,-1.430342 -2.16256,-2.600616 -2.56692,-2.600616 -0.40436,0 -1.56308,1.006308 -2.57493,2.236235 -1.01184,1.229945 -2.19226,2.236254 -2.62315,2.236254 -0.43087,0 -1.59933,-1.006309 -2.59656,-2.236254 -0.99724,-1.229927 -2.16136,-2.236235 -2.58692,-2.236235 -0.42558,0 -1.35278,1.006308 -2.06044,2.236235 -0.70767,1.229945 -1.56116,2.240159 -1.89667,2.244909 -0.33551,0.0047 -1.54608,-1.054399 -2.69016,-2.353701 l -2.08015,-2.36234 -2.16308,2.353701 c -1.18969,1.294518 -2.34415,2.353685 -2.56546,2.353685 -0.22132,0 -1.08412,-1.006309 -1.91737,-2.236254 -0.83323,-1.229927 -1.76522,-2.236235 -2.07107,-2.236235 -0.30583,0 -1.23782,1.006308 -2.07106,2.236235 -0.83323,1.229945 -1.87237,2.236254 -2.3092,2.236254 -0.43683,0 -1.61114,-1.132106 -2.60958,-2.515775 -0.99844,-1.383672 -2.01122,-2.515777 -2.25063,-2.515777 -0.23943,0 -1.03624,1.177071 -1.77071,2.615729 -0.73445,1.438657 -1.62588,2.710321 -1.98092,2.825933 -0.35503,0.1156 -1.45261,-0.935688 -2.43904,-2.336209 -0.98643,-1.400523 -2.02116,-2.54639 -2.29939,-2.54639 -0.27821,0 -1.07842,0.817625 -1.77821,1.81695 -2.70704,3.865689 -3.78562,4.042739 -5.95961,0.978348 -0.87256,-1.229928 -1.93455,-2.236233 -2.35995,-2.236233 -0.42541,0 -1.41013,0.985158 -2.18828,2.189242 -0.77813,1.204099 -1.66363,2.339482 -1.96779,2.523112 -0.30415,0.18363 -1.28037,-0.670376 -2.16939,-1.897787 -0.88902,-1.22741 -1.99186,-2.237012 -2.45075,-2.243572 -0.45891,-0.0066 -1.76025,0.871212 -2.89189,1.950628 l -2.05751,1.962561 -1.65072,-1.683037 c -0.90788,-0.92566 -1.86005,-1.683021 -2.11593,-1.683021 -0.61786,0 -0.5825,4.544238 0.0429,5.508218 z m -0.0788,3.61876 c 0.37892,0.21894 52.05542,-0.38661 138.215972,-1.61958 15.58026,-0.22295 27.90075,-0.61863 27.90075,-0.89605 0,-0.27323 -0.39508,-0.64486 -0.87795,-0.82587 -0.48286,-0.18099 -21.79474,-0.0218 -47.35972,0.35372 -25.56497,0.37555 -62.578372,0.88187 -82.251962,1.12517 -19.6736,0.24331 -35.83456,0.4694 -35.91325,0.50243 -0.32213,0.1352 -0.11291,1.12962 0.28616,1.36018 z"
       id="path21258" />
    <path
       style="opacity:0.930349;fill:#ffffff;stroke-width:0.565653"
       d="m 103.02208,87.298616 h 84.41764 v 9.973442 9.973442 l -28.75924,0.23077 c -30.36152,0.24364 -90.642012,0.27935 -121.618602,0.0721 l -18.4574,-0.12352 v -10.063114 -10.0631 z m -81.813032,8.193392 c 0.80297,1.028351 1.82949,1.869708 2.28117,1.869708 0.45169,0 1.50298,-1.006305 2.33623,-2.236235 0.83324,-1.229946 1.73235,-2.236251 1.99805,-2.236251 0.2657,0 0.90693,0.631902 1.42497,1.404223 1.60358,2.390655 3.43161,2.397839 5.92106,0.02328 l 2.16984,-2.069681 2.22158,2.813048 c 1.22188,1.547181 2.54306,2.823781 2.93595,2.836866 0.39289,0.01318 1.43331,-1.104535 2.31205,-2.483642 l 1.59769,-2.507442 2.0931,1.389334 c 2.69835,1.791088 4.61612,1.788348 5.82127,-0.0083 1.1884,-1.771699 1.43875,-1.754458 4.0589,0.27954 2.72754,2.11735 4.03555,2.116826 5.35475,-0.0022 1.03891,-1.668771 1.05205,-1.672304 2.08342,-0.559063 1.00405,1.08376 1.00235,1.120813 -0.0524,1.135706 -0.59965,0.0085 -1.73414,0.882063 -2.52108,1.941312 -0.78694,1.059267 -1.70964,1.932878 -2.05042,1.94133 -0.34079,0.0085 -1.44751,-0.990924 -2.45936,-2.220853 -1.01183,-1.229928 -2.09146,-2.236252 -2.39915,-2.236252 -0.30769,0 -1.25948,1.132106 -2.11508,2.515775 -0.85559,1.383687 -1.70126,2.515793 -1.87925,2.515793 -0.17799,0 -1.08127,-1.000374 -2.00729,-2.223034 -0.92604,-1.222676 -2.07001,-2.223033 -2.54218,-2.223033 -0.47216,0 -1.61613,1.000357 -2.54215,2.223033 -0.92602,1.22266 -2.08496,2.223017 -2.57545,2.223017 -0.49048,-1.7e-5 -1.611,-0.880542 -2.49007,-1.956713 -0.87905,-1.076187 -2.03801,-1.951336 -2.57545,-1.944777 -0.53744,0.0066 -1.72942,1.049986 -2.64884,2.318709 l -1.67169,2.306774 -1.67468,-2.039185 c -2.03145,-2.473587 -3.21606,-2.55126 -5.75098,-0.37713 l -1.93785,1.662026 -1.32961,-1.382501 c -2.17,-2.256336 -2.93281,-1.823121 -2.73386,1.552573 l 0.173,2.935077 6.86787,0.19542 c 8.61827,0.24526 135.540612,-1.05201 149.090112,-1.52385 l 10.01564,-0.34877 0.17063,-2.268834 c 0.21146,-2.811693 -0.69458,-5.278482 -1.93873,-5.278482 -0.5159,0 -1.91726,1.069189 -3.11415,2.375996 l -2.17618,2.376014 -2.21814,-2.096472 c -2.67854,-2.531631 -3.53665,-2.603947 -5.0315,-0.424019 -1.45743,2.125381 -2.5473,2.528436 -3.44793,1.275129 -0.39161,-0.544982 -1.23946,-1.619815 -1.88408,-2.388537 l -1.17205,-1.39765 -2.49636,2.379376 c -1.94855,1.857216 -2.64784,2.231418 -3.18661,1.705132 -0.91443,-0.893237 -0.87473,-1.568734 0.0922,-1.568734 0.43034,0 1.46417,-1.006305 2.29741,-2.236235 0.83325,-1.229946 1.67049,-2.236252 1.86056,-2.236252 0.19005,0 1.22555,0.754725 2.30108,1.677189 1.07553,0.922446 2.25762,1.677174 2.62688,1.677174 0.36925,0 1.61409,-0.899222 2.76632,-1.998281 l 2.09496,-1.998279 2.22159,2.822499 c 1.22188,1.552368 2.60447,2.763282 3.07243,2.690897 0.46794,-0.07238 1.45889,-1.208376 2.20208,-2.524428 l 1.35127,-2.392801 1.98016,1.141251 1.98016,1.141252 -0.17601,-2.365535 c -0.16633,-2.235845 -0.28582,-2.380729 -2.17911,-2.642469 -5.06763,-0.700549 -159.739682,0.667197 -162.893652,1.440449 -1.87898,0.460666 -1.83269,3.139783 0.0969,5.611035 z m 4.40638,10.814902 c 9.99312,0 88.828552,-1.09952 124.050972,-1.73066 18.41449,-0.32995 34.18914,-0.57475 35.05478,-0.54398 1.04999,0.0373 1.5739,-0.22614 1.5739,-0.79153 0,-1.10747 -15.47085,-1.10913 -89.568552,-0.01 -30.21865,0.44841 -59.90074,0.8207 -65.9602,0.82731 -10.63156,0.0117 -11.0172,0.0512 -11.0172,1.13013 0,1.04538 0.3816,1.11814 5.8663,1.11832 z"
       id="path21260" />
    <path
       style="opacity:0.930349;fill:#ffffff;stroke-width:0.565653"
       d="m 103.02208,87.298616 h 84.41764 v 9.973442 9.973442 l -28.75924,0.23077 c -30.36152,0.24364 -90.642012,0.27935 -121.618602,0.0721 l -18.4574,-0.12352 v -10.063114 -10.0631 z m -81.813032,8.193392 c 0.80297,1.028351 1.82949,1.869708 2.28117,1.869708 0.45169,0 1.50298,-1.006305 2.33623,-2.236235 0.83324,-1.229946 1.73235,-2.236251 1.99805,-2.236251 0.2657,0 0.90693,0.631902 1.42497,1.404223 1.60358,2.390655 3.43161,2.397839 5.92106,0.02328 l 2.16984,-2.069681 2.22158,2.813048 c 1.22188,1.547181 2.54306,2.823781 2.93595,2.836866 0.39289,0.01318 1.43331,-1.104535 2.31205,-2.483642 l 1.59769,-2.507442 2.0931,1.389334 c 2.69835,1.791088 4.61612,1.788348 5.82127,-0.0083 1.1884,-1.771699 1.43875,-1.754458 4.0589,0.27954 2.72754,2.11735 4.03555,2.116826 5.35475,-0.0022 1.03891,-1.668771 1.05205,-1.672304 2.08342,-0.559063 1.00405,1.08376 1.00235,1.120813 -0.0524,1.135706 -0.59965,0.0085 -1.73414,0.882063 -2.52108,1.941312 -0.78694,1.059267 -1.70964,1.932878 -2.05042,1.94133 -0.34079,0.0085 -1.44751,-0.990924 -2.45936,-2.220853 -1.01183,-1.229928 -2.09146,-2.236252 -2.39915,-2.236252 -0.30769,0 -1.25948,1.132106 -2.11508,2.515775 -0.85559,1.383687 -1.70126,2.515793 -1.87925,2.515793 -0.17799,0 -1.08127,-1.000374 -2.00729,-2.223034 -0.92604,-1.222676 -2.07001,-2.223033 -2.54218,-2.223033 -0.47216,0 -1.61613,1.000357 -2.54215,2.223033 -0.92602,1.22266 -2.08496,2.223017 -2.57545,2.223017 -0.49048,-1.7e-5 -1.611,-0.880542 -2.49007,-1.956713 -0.87905,-1.076187 -2.03801,-1.951336 -2.57545,-1.944777 -0.53744,0.0066 -1.72942,1.049986 -2.64884,2.318709 l -1.67169,2.306774 -1.67468,-2.039185 c -2.03145,-2.473587 -3.21606,-2.55126 -5.75098,-0.37713 l -1.93785,1.662026 -1.32961,-1.382501 c -2.17,-2.256336 -2.93281,-1.823121 -2.73386,1.552573 l 0.173,2.935077 6.86787,0.19542 c 8.61827,0.24526 135.540612,-1.05201 149.090112,-1.52385 l 10.01564,-0.34877 0.17063,-2.268834 c 0.21146,-2.811693 -0.69458,-5.278482 -1.93873,-5.278482 -0.5159,0 -1.91726,1.069189 -3.11415,2.375996 l -2.17618,2.376014 -2.21814,-2.096472 c -2.67854,-2.531631 -3.53665,-2.603947 -5.0315,-0.424019 -1.45743,2.125381 -2.5473,2.528436 -3.44793,1.275129 -0.39161,-0.544982 -1.23946,-1.619815 -1.88408,-2.388537 l -1.17205,-1.39765 -2.49636,2.379376 c -1.94855,1.857216 -2.64784,2.231418 -3.18661,1.705132 -0.91443,-0.893237 -0.87473,-1.568734 0.0922,-1.568734 0.43034,0 1.46417,-1.006305 2.29741,-2.236235 0.83325,-1.229946 1.67049,-2.236252 1.86056,-2.236252 0.19005,0 1.22555,0.754725 2.30108,1.677189 1.07553,0.922446 2.25762,1.677174 2.62688,1.677174 0.36925,0 1.61409,-0.899222 2.76632,-1.998281 l 2.09496,-1.998279 2.22159,2.822499 c 1.22188,1.552368 2.60447,2.763282 3.07243,2.690897 0.46794,-0.07238 1.45889,-1.208376 2.20208,-2.524428 l 1.35127,-2.392801 1.98016,1.141251 1.98016,1.141252 -0.17601,-2.365535 c -0.16633,-2.235845 -0.28582,-2.380729 -2.17911,-2.642469 -5.06763,-0.700549 -159.739682,0.667197 -162.893652,1.440449 -1.87898,0.460666 -1.83269,3.139783 0.0969,5.611035 z m 4.40638,10.814902 c 9.99312,0 88.828552,-1.09952 124.050972,-1.73066 18.41449,-0.32995 34.18914,-0.57475 35.05478,-0.54398 1.04999,0.0373 1.5739,-0.22614 1.5739,-0.79153 0,-1.10747 -15.47085,-1.10913 -89.568552,-0.01 -30.21865,0.44841 -59.90074,0.8207 -65.9602,0.82731 -10.63156,0.0117 -11.0172,0.0512 -11.0172,1.13013 0,1.04538 0.3816,1.11814 5.8663,1.11832 z"
       id="path21262" />
    <path
       style="opacity:0.930349;fill:#ffffff;stroke-width:0.0999943"
       d="m 88.525058,97.002104 c 0.36438,-0.233242 0.98022,-1.194718 1.78064,-2.780103 1.24072,-2.457474 1.39854,-2.477319 4.35245,-0.547518 1.86903,1.221037 2.20485,1.378598 2.94436,1.381421 0.89253,0.0034 1.24804,-0.300551 2.31665,-1.980867 0.510572,-0.802801 1.125702,-1.31695 1.458822,-1.219329 0.51332,0.150445 2.28047,1.433197 3.99102,2.897009 1.02201,0.874575 1.87501,1.590151 1.89553,1.590151 0.0205,0 0.54502,-0.744923 1.16554,-1.655383 1.36279,-1.999599 1.76274,-2.495441 2.01287,-2.495441 0.1048,0 0.34803,0.189002 0.54053,0.420028 1.36203,1.634558 2.43111,2.873175 2.74208,3.176955 0.59191,0.5782 0.74221,0.515062 1.56367,-0.656817 0.67129,-0.95764 1.80014,-2.323983 2.91615,-3.529655 l 0.49992,-0.540081 2.01423,1.992465 c 1.29843,1.284376 2.11271,2.015623 2.29129,2.057646 0.4542,0.106865 0.82884,-0.191674 3.16283,-2.520493 1.48623,-1.482913 1.94236,-1.704962 2.63867,-1.284596 0.4578,0.276379 0.97127,0.899374 1.99159,2.416397 1.05824,1.573416 2.00597,2.520138 2.52282,2.520138 0.27487,0 0.43146,-0.09143 0.80393,-0.469438 0.61009,-0.619142 0.91666,-1.085723 1.80203,-2.742508 1.02824,-1.924106 0.86569,-1.775537 1.57945,-1.443644 0.32999,0.153452 1.35119,0.724246 2.26933,1.268451 2.08188,1.233934 3.03934,1.707041 3.45471,1.707041 0.43594,0 0.97944,-0.56464 1.71457,-1.781267 0.69098,-1.143547 1.04177,-1.418288 1.7309,-1.355626 0.63684,0.05791 1.28865,0.458149 2.71138,1.664833 1.24753,1.058066 2.4919,1.928484 2.90011,2.02857 0.56402,0.138276 1.23541,-0.566701 2.51277,-2.638497 0.43572,-0.706702 0.82295,-1.250044 0.86052,-1.207429 0.0376,0.04261 0.63713,0.744771 1.33241,1.560332 0.69526,0.815563 1.59582,1.782855 2.00126,2.149535 0.62965,0.569459 0.70176,0.666673 0.49442,0.666673 -0.54936,0 -0.83547,0.443779 -0.58308,0.904429 0.0602,0.109791 0.09,0.218582 0.0662,0.241759 -0.0237,0.02318 -0.24813,-0.258597 -0.49869,-0.626154 -0.89165,-1.307974 -1.79416,-2.197865 -2.23069,-2.199469 -0.25483,-0.0017 -1.33512,1.079566 -2.22253,2.222999 -0.74801,0.963792 -1.39845,1.636736 -1.89248,1.957963 -0.22533,0.146506 -0.26711,0.145727 -0.53832,-0.01014 -0.36863,-0.211789 -1.19373,-1.122623 -2.34641,-2.590239 -1.06123,-1.351195 -1.75679,-2.07541 -1.99324,-2.07541 -0.23192,0 -0.66536,0.553046 -1.44351,1.8419 -1.35066,2.237115 -1.74199,2.838709 -2.12421,3.265548 l -0.39373,0.439723 -0.40094,-0.376976 c -0.2205,-0.207343 -0.9133,-1.044087 -1.53957,-1.859429 -1.21848,-1.586381 -1.99175,-2.372431 -2.66289,-2.706892 -0.688,-0.34286 -0.93335,-0.266488 -1.07606,0.335003 -0.12495,0.52654 -0.76054,1.335409 -2.10945,2.68451 -1.16293,1.163106 -2.06801,1.911038 -2.31256,1.911038 -0.1813,0 -1.2193,-1.114187 -2.03943,-2.189141 -1.23135,-1.613919 -2.24342,-2.430021 -2.82826,-2.280625 -0.36357,0.09287 -1.59847,1.320348 -2.46269,2.447906 -1.0706,1.396803 -1.78638,2.069156 -2.05392,1.929311 -0.25988,-0.135875 -0.86067,-0.860527 -1.62768,-1.963254 -0.70486,-1.013372 -1.26263,-1.520711 -1.92162,-1.747813 -0.57201,-0.197151 -0.60979,-0.193702 -1.29096,0.117463 -0.44254,0.202173 -0.89172,0.568616 -1.84918,1.508591 -0.69557,0.682866 -1.4335,1.327853 -1.63986,1.433332 -0.35397,0.180923 -0.39485,0.182632 -0.7224,0.03005 -0.54974,-0.256075 -1.56095,-1.243788 -2.70366,-2.640796 -0.58029,-0.709441 -1.08126,-1.289919 -1.11327,-1.289953 -0.032,-1.8e-5 -0.53966,0.590149 -1.12812,1.311505 -1.37175,1.681485 -2.28865,2.646324 -2.87602,3.02636 -0.46019,0.297745 -0.47195,0.299772 -0.76782,0.131766 -0.3994,-0.226783 -1.14993,-1.035247 -2.08389,-2.244721 -0.94588,-1.224961 -1.91741,-2.191187 -2.2967,-2.284175 -0.24544,-0.06018 -0.32914,-0.02157 -0.57722,0.266203 -0.15959,0.185114 -0.59163,0.936965 -0.96008,1.670765 -1.160642,2.311441 -2.005672,3.557851 -2.412132,3.557851 -0.23718,0 -0.70858,-0.512746 -1.56498,-1.702258 -0.96444,-1.339552 -1.94716,-2.471859 -2.42757,-2.797075 -0.49623,-0.335912 -0.81886,-0.27565 -1.35448,0.252984 -0.21846,0.21561 -0.42868,0.392021 -0.46717,0.392021 -0.0385,0 -0.57914,0.575899 -1.20146,1.279795 -1.08378,1.225854 -1.82009,1.916986 -2.30994,2.168229 l -0.22764,0.116772 v -1.178066 c 0,-1.131735 0.01,-1.184119 0.24083,-1.33218 z"
       id="path21264" />
    <path
       style="opacity:0.930349;fill:#ffffff;stroke-width:0.0999943"
       d="m 89.877708,103.35931 c 0.87642,0 7.62595,-0.0887 14.998962,-0.19655 28.57248,-0.41805 57.07838,-0.75027 57.92173,-0.67503 0.54199,0.0483 -5.45974,0.16161 -15.02423,0.28357 -4.31252,0.055 -18.79042,0.25431 -32.17313,0.44292 -27.145842,0.3826 -27.316812,0.38413 -27.316812,0.24433 0,-0.0617 0.5989,-0.099 1.59348,-0.0992 z"
       id="path21266" />
    <path
       style="opacity:0.930349;fill:#ffffff;stroke-width:0.141413"
       d="m 66.252358,95.134575 c 0.24986,0 0.37436,-0.07539 0.37436,-0.226664 0,-0.131494 0.39316,0.188142 0.93635,0.761252 1.36117,1.436122 1.8494,1.488202 2.41337,0.257447 0.35722,-0.77956 1.10978,-1.76947 2.40654,-3.165564 l 0.81995,-0.882788 1.54482,1.453449 c 0.84963,0.799401 1.73422,1.54779 1.96574,1.66309 0.23154,0.115318 0.53626,0.320363 0.67716,0.455663 0.19916,0.191266 0.39123,0.226462 0.86284,0.158151 1.03275,-0.149581 1.41462,-0.457588 2.00198,-1.614862 0.57357,-1.130062 1.73464,-2.353312 2.23368,-2.353312 0.34675,0 1.81563,1.533168 3.19753,3.337439 1.38596,1.809599 1.82213,2.253174 2.2156,2.253174 0.31665,0 0.32962,0.04402 0.32962,1.118127 0,0.849235 -0.0468,1.118124 -0.19448,1.118124 -0.30231,0 -1.42206,-1.024866 -2.59403,-2.37422 -1.13384,-1.305439 -2.22436,-2.136183 -2.62403,-1.998974 -0.4692,0.161111 -0.93919,0.690831 -1.95793,2.206823 -1.18452,1.762706 -1.63723,2.231535 -2.03553,2.108054 -0.2891,-0.08963 -2.42751,-2.190613 -3.78152,-3.715346 l -0.80675,-0.908484 -0.83093,0.908484 c -1.49871,1.638565 -3.68302,3.773663 -3.86068,3.773663 -0.20178,0 -0.98822,-0.90953 -1.99401,-2.306133 -0.38751,-0.538102 -0.9227,-1.214208 -1.1893,-1.502485 l -0.48469,-0.524108 z"
       id="path21268" />
  </g>
</svg>
