<?xml version="1.0" encoding="UTF-8" standalone="no"?>
<svg
   xmlns:dc="http://purl.org/dc/elements/1.1/"
   xmlns:cc="http://creativecommons.org/ns#"
   xmlns:rdf="http://www.w3.org/1999/02/22-rdf-syntax-ns#"
   xmlns:svg="http://www.w3.org/2000/svg"
   xmlns="http://www.w3.org/2000/svg"
   xmlns:sodipodi="http://sodipodi.sourceforge.net/DTD/sodipodi-0.dtd"
   xmlns:inkscape="http://www.inkscape.org/namespaces/inkscape"
   width="20.949999mm"
   height="169.82001mm"
   viewBox="0 0 20.949999 169.82001"
   version="1.1"
   id="svg22540"
   inkscape:version="1.0 (b51213c273, 2020-08-10)">
  <defs
     id="defs22534" />
  <sodipodi:namedview
     id="base"
     pagecolor="#ffffff"
     bordercolor="#666666"
     borderopacity="1.0"
     inkscape:pageopacity="0.0"
     inkscape:pageshadow="2"
     inkscape:zoom="0.35"
     inkscape:cx="110.01844"
     inkscape:cy="439.80661"
     inkscape:document-units="mm"
     inkscape:current-layer="layer1"
     inkscape:document-rotation="0"
     showgrid="false"
     inkscape:snap-global="false"
     fit-margin-top="0"
     fit-margin-left="0"
     fit-margin-right="0"
     fit-margin-bottom="0"
     showborder="false"
     inkscape:window-width="1318"
     inkscape:window-height="704"
     inkscape:window-x="48"
     inkscape:window-y="27"
     inkscape:window-maximized="1" />
  <metadata
     id="metadata22537">
    <rdf:RDF>
      <cc:Work
         rdf:about="">
        <dc:format>image/svg+xml</dc:format>
        <dc:type
           rdf:resource="http://purl.org/dc/dcmitype/StillImage" />
        <dc:title></dc:title>
      </cc:Work>
    </rdf:RDF>
  </metadata>
  <g
     inkscape:label="Layer 1"
     inkscape:groupmode="layer"
     id="layer1"
     transform="translate(-76.724288,-55.104108)">
    <path
       id="path3810"
       style="fill:#000000;stroke-width:0.292364"
       d="m 87.207128,55.104108 c -4.992992,0.002 -9.98835,0.0236 -10.049305,0.0236 -0.384446,0 -0.433535,9.63029 -0.433535,84.898112 v 84.89829 h 3.32292 16.470998 0.722507 v -84.8982 -84.588962 c 0.01521,-0.10526 0.02208,-0.20238 0.0017,-0.23536 0,0 -0.0017,0 -0.0017,0 v -0.0732 h -1.708191 -0.875977 c -1.926285,-0.0188 -4.671632,-0.0245 -7.449857,-0.0236 z m 6.493028,2.40792 0.03364,0.9412 c 0.01065,0.2984 -0.110703,4.83159 -0.05685,10.28192 0.05385,5.45034 0.158812,17.63035 0.234102,27.06675 0.143497,18.080042 0.35772,30.564512 0.570777,33.278962 0.07034,0.89483 0.194564,11.20105 0.27648,22.90275 0.08183,11.70169 0.223876,22.21784 0.315681,23.3692 0.09169,1.15135 0.220968,11.14524 0.2874,22.20864 0.0663,11.06337 0.19098,20.9139 0.276125,21.89009 0.08511,0.97618 0.08063,2.14092 -0.01099,2.58833 -0.17837,0.87323 -0.820296,1.09392 -1.089829,0.3747 -0.09012,-0.24138 -0.165438,-4.33471 -0.165438,-9.09628 0,-7.45673 -0.104145,-16.64415 -0.46053,-40.90096 -0.04062,-2.76585 -0.107137,-12.54981 -0.148755,-21.74219 -0.04278,-9.55035 -0.192941,-17.0937 -0.350469,-17.6008 -0.158643,-0.5107 -0.316305,-8.92447 -0.370736,-19.81946 -0.05249,-10.41259 -0.185504,-21.727392 -0.296123,-25.144032 -0.240035,-7.42128 -0.228017,-6.65836 -0.142821,-9.0223 0.04226,-1.05755 0.0522,-6.8814 0.0311,-12.94183 l 0.002,-8.67049 c 0,-0.002 0.16642,-0.3212 0.515062,-0.32253 0.259661,-0.0114 0.441041,0.18091 0.550138,0.35833 z m -3.385025,-0.10327 0.204588,0.75101 c 0.06745,1.66873 -0.06968,4.16359 0.04316,5.54653 0.112563,1.38293 0.11804,3.01357 0.01217,3.62369 -0.106022,0.61012 -0.08682,1.67503 0.04272,2.36648 0.129399,0.69147 0.219328,3.52023 0.201444,6.28607 -0.01851,2.76585 0.01369,7.82424 0.06997,11.24087 0.101694,6.07821 0.113696,15.841392 0.02306,18.488262 -0.02497,0.73215 0.02727,3.3944 0.116789,5.91621 0.177102,4.9954 0.312452,14.19934 0.227205,15.38225 -0.02941,0.40675 0.0025,1.40516 0.07103,2.21864 0.120896,1.43429 0.167145,5.15212 0.08298,6.65576 -0.02275,0.40675 0.04644,1.13883 0.153386,1.62692 0.235133,1.0691 0.273793,11.79147 0.04691,12.94021 -0.08817,0.44651 -0.04201,2.11047 0.102641,3.69766 0.144072,1.5872 0.173535,3.41824 0.0643,4.06904 -0.109554,0.65078 -0.09617,1.76697 0.02951,2.48039 0.252883,1.4362 0.340682,9.66408 0.137852,12.90186 -0.07122,1.13888 -0.03205,3.0025 0.08734,4.14138 0.119325,1.13887 0.101627,2.30055 -0.03955,2.58153 -0.152558,0.30519 -0.13038,1.31462 0.05571,2.50723 0.367339,2.35086 0.398054,11.96977 0.04272,13.2516 -0.13557,0.48809 -0.145357,1.28683 -0.02209,1.77491 0.202441,0.80147 0.564625,10.47792 0.587715,15.67807 0.01099,2.55614 -0.260066,9.05144 -0.383042,9.17452 -0.175683,0.17608 -5.126026,0.2635 -5.292124,0.0934 -0.0929,-0.0951 0.638275,-0.92053 1.62477,-1.83439 1.659829,-1.53771 1.769315,-1.7156 1.470319,-2.38739 -0.177542,-0.39922 -1.174061,-1.41065 -2.21431,-2.24753 -2.015352,-1.62131 -2.335225,-2.38999 -1.241204,-2.98162 1.451894,-0.78509 3.973095,-2.99113 3.973095,-3.47633 0,-0.8095 -0.95093,-1.66183 -2.98687,-2.67722 -2.647389,-1.32034 -2.758853,-2.05529 -0.499849,-3.29452 0.566991,-0.31096 1.607494,-1.10663 2.312506,-1.76821 l 1.281654,-1.20286 -0.528044,-0.94639 c -0.835222,-1.49691 -1.927147,-2.57196 -3.387577,-3.33485 -0.743637,-0.38849 -1.439402,-0.85038 -1.545355,-1.02643 -0.225752,-0.37396 0.619646,-1.4186 1.452671,-1.79504 0.651781,-0.29452 1.660335,-0.91979 1.878277,-1.16432 0.07947,-0.0892 0.56711,-0.46432 1.083625,-0.83362 0.516381,-0.36931 0.938962,-0.86119 0.938962,-1.09314 0,-0.60462 -2.0734,-2.05753 -4.064207,-2.84775 -2.076746,-0.8244 -2.338588,-1.31031 -1.011817,-1.87776 1.321091,-0.5651 4.498181,-3.60885 4.498181,-4.30941 0,-0.36667 -0.61013,-0.94043 -1.775114,-1.66904 -0.976251,-0.61067 -2.109928,-1.39456 -2.519003,-1.742 -0.668482,-0.56775 -0.70087,-0.68466 -0.319805,-1.15511 0.233358,-0.28788 0.814143,-0.69245 1.290901,-0.89909 1.046538,-0.45355 3.03415,-2.27951 3.03415,-2.78739 0,-0.40911 -1.640964,-2.08839 -3.263435,-3.33968 -0.589118,-0.45435 -1.070524,-1.0534 -1.070524,-1.33119 0,-0.28036 0.610924,-0.89986 1.37258,-1.39244 4.150805,-2.68477 4.222698,-3.65646 0.415363,-5.61261 -2.704609,-1.3895 -2.76837,-1.95203 -0.396921,-3.49868 0.924204,-0.60279 2.057189,-1.49851 2.517685,-1.99052 l 0.8372,-0.89462 -0.528839,-1.00522 c -0.700887,-1.3324 -1.922008,-2.49997 -3.424343,-3.27432 -1.938844,-0.99932 -1.723184,-1.68728 1.085028,-3.46077 3.399478,-2.14692 3.400526,-2.14865 2.06084,-3.34719 -0.61466,-0.54994 -2.012478,-1.35941 -3.106194,-1.7987 -1.093801,-0.4393 -1.98861,-0.96466 -1.98861,-1.16754 0,-0.20289 0.564202,-0.70747 1.253966,-1.12131 1.698623,-1.01899 3.847989,-3.02464 4.037819,-3.76767 0.127929,-0.50128 -0.268805,-0.88672 -2.279576,-2.21462 -1.339009,-0.88426 -2.43445,-1.79869 -2.43445,-2.03202 0,-0.23333 0.732429,-0.93139 1.627576,-1.55126 0.89496,-0.61986 1.877973,-1.36801 2.184441,-1.66251 0.550628,-0.52861 0.550341,-0.54745 -0.02385,-1.47901 -0.320025,-0.51899 -1.270549,-1.4825 -2.112465,-2.1412 -2.157699,-1.68823 -2.154859,-2.32633 0.0164,-3.76266 0.926791,-0.61306 1.989691,-1.44664 2.362135,-1.85245 0.675228,-0.73585 0.675634,-0.73991 0.117753,-1.50092 -0.307736,-0.41969 -1.469675,-1.2618 -2.582258,-1.87132 -2.553739,-1.39919 -2.692133,-1.9338 -0.811252,-3.13409 1.844199,-1.17686 3.556413,-2.77013 3.556413,-3.30919 0,-0.4095 -0.721662,-1.59686 -1.729507,-2.84596 -0.240745,-0.29821 -1.061345,-0.86937 -1.823847,-1.26922 -0.762366,-0.39987 -1.467866,-0.94455 -1.567296,-1.21037 -0.198452,-0.52932 -0.219396,-0.51094 3.170226,-2.77353 1.231637,-0.82218 2.239482,-1.66917 2.239482,-1.882142 0,-0.58247 -1.635759,-1.74107 -3.893597,-2.75797 -1.108474,-0.49916 -2.054535,-1.02964 -2.103571,-1.1788 -0.04855,-0.14917 0.663307,-0.74847 1.5819,-1.33182 0.918543,-0.58337 2.187384,-1.6066 2.819673,-2.27383 1.398612,-1.47593 1.309377,-1.71531 -1.300435,-3.48847 -2.585554,-1.75664 -2.790108,-1.99198 -2.280455,-2.62116 0.224788,-0.27743 0.798676,-0.67342 1.27545,-0.88004 0.990451,-0.42926 3.034049,-2.26903 3.034049,-2.73148 0,-0.37621 -1.491668,-1.92765 -3.126631,-3.25178 -0.664206,-0.53796 -1.207751,-1.21794 -1.207751,-1.51103 0,-0.32961 0.633846,-0.93387 1.661553,-1.58417 0.913859,-0.57825 1.9832,-1.40302 2.376605,-1.83287 0.669412,-0.73149 0.687651,-0.83261 0.284865,-1.57907 -0.259746,-0.48107 -1.231552,-1.2193 -2.448954,-1.86041 -2.572978,-1.35484 -2.805643,-2.12644 -0.975119,-3.23264 0.667586,-0.40331 1.807197,-1.28639 2.532544,-1.96236 1.270886,-1.18407 1.30417,-1.25751 0.910579,-2.01027 -0.614812,-1.17625 -2.217573,-2.7597 -3.438491,-3.39736 -1.575715,-0.82289 -1.850556,-1.24942 -1.312403,-2.03604 0.242892,-0.35498 0.571454,-0.64539 0.730097,-0.64539 0.23013,0 1.286506,0.11728 2.293607,-0.63403 0.570473,-0.002 1.338789,-0.081 1.897328,-0.0829 0.450067,-0.002 0.622605,-0.009 1.059267,-0.0109 z m -8.035999,-0.29216 -1.304542,2.2249 c -2.187586,3.73092 -1.20748,1.29306 -0.547755,1.87127 0.312537,0.274 1.460515,0.89485 2.550817,1.37965 2.645461,1.17631 2.972248,1.50428 2.279576,2.28786 -0.292065,0.33045 -0.634708,0.60084 -0.761369,0.60084 -0.126728,0 -1.066484,0.5983 -2.08819,1.3295 -2.197829,1.57286 -2.942176,2.56571 -2.523905,3.36597 0.369705,0.70729 2.140355,2.29887 2.817931,2.53325 0.766998,0.26526 1.608965,1.56654 1.333279,2.06089 -0.12683,0.22761 -1.075866,1.18052 -2.10888,2.11751 -1.033083,0.93701 -1.920081,1.81076 -1.971216,1.94169 -0.269465,0.69014 3.566623,4.1041 4.611555,4.1041 0.919015,0 0.594088,0.77114 -0.689916,1.63737 -1.263246,0.85233 -3.395166,2.79183 -3.395166,3.08885 0,0.0919 0.97527,0.68088 2.167148,1.30873 1.205925,0.63525 2.167148,1.33419 2.167148,1.57577 0,0.23877 -0.633778,1.05335 -1.408484,1.81024 -1.786979,1.74602 -2.925812,3.33761 -2.925812,4.08889 0,0.73899 0.999359,1.71208 2.35277,2.29099 1.850825,0.79168 1.786726,1.12609 -0.948647,4.942282 -0.77234,1.07744 -1.404123,2.15627 -1.404123,2.3975 0,0.26365 1.043562,0.935 2.616589,1.68316 1.439047,0.68451 2.688955,1.4377 2.777397,1.67369 0.207799,0.55432 -0.331114,1.20578 -1.460633,1.76562 -1.492768,0.73989 -3.474801,2.3544 -3.904008,3.18023 -0.370956,0.71383 -0.341662,0.86092 0.35816,1.80022 0.419065,0.56258 1.313299,1.33418 1.98702,1.71465 0.748826,0.42287 1.335713,1.01383 1.509553,1.52014 0.262788,0.76478 0.174533,0.93012 -1.149652,2.15551 -0.788753,0.72997 -1.726734,1.5362 -2.084251,1.79173 -0.638731,0.45638 -0.909397,1.57979 -0.380778,1.57979 0.148298,0 0.348085,0.23297 0.443052,0.51768 0.223993,0.66795 2.69122,2.54434 3.598097,2.73634 1.129756,0.23921 1.020084,0.81598 -0.321901,1.69335 -1.406794,0.91971 -3.410802,2.71974 -3.410802,3.06363 0,0.12362 0.969033,0.72165 2.153354,1.32895 1.184238,0.6073 2.222577,1.28965 2.30779,1.51639 0.08636,0.23043 -0.258039,0.80604 -0.780775,1.30516 -0.514454,0.4911 -1.278764,1.22487 -1.698674,1.63059 -0.41991,0.40572 -1.065453,1.32022 -1.434516,2.03219 -0.66838,1.28893 -0.668769,1.29717 -0.103688,1.93722 0.31213,0.35357 1.185082,0.96354 1.940027,1.35542 0.926064,0.48078 1.372496,0.8991 1.372496,1.28603 0,0.31541 -0.828765,1.74412 -1.841934,3.17497 -1.304069,1.84194 -1.774065,2.73563 -1.609658,3.06085 0.269584,0.53279 2.535096,1.82609 4.087973,2.33365 1.057069,0.34557 1.820636,1.49605 1.14546,1.72644 -0.988321,0.33726 -4.821045,3.31481 -5.300254,4.11769 l -0.564658,0.94603 1.278426,1.34657 c 0.7031,0.7406 1.482286,1.34648 1.731686,1.34648 0.500373,0 1.650904,1.3449 1.650904,1.92989 0,0.20404 -0.966431,1.21772 -2.147676,2.25263 -1.181143,1.0349 -2.156245,1.96302 -2.167233,2.06241 -0.02598,0.24118 2.273086,2.64229 3.15503,3.29506 0.686721,0.50822 0.797543,0.55412 1.517143,0.62857 0.791745,0.082 0.490145,1.00706 -0.561683,1.72279 -0.60276,0.41007 -1.669701,1.3176 -2.370942,2.01672 l -1.275011,1.27109 2.214141,1.14045 c 2.622607,1.35092 2.757247,1.79456 1.009721,3.326 -1.406997,1.23285 -3.129961,3.61175 -3.129961,4.32148 0,0.62651 0.703592,1.27762 2.328767,2.15534 0.798084,0.43102 1.317152,0.92831 1.372935,1.31562 0.05812,0.40327 -0.579601,1.52065 -1.809445,3.17076 -1.535449,2.06053 -1.845078,2.65114 -1.617349,3.08697 0.283496,0.5423 2.831117,1.91923 4.203698,2.27185 0.616215,0.15835 1.300603,0.89215 1.300603,1.39477 0,0.0709 -1.137734,0.86815 -2.528351,1.7717 -1.490621,0.9685 -2.748136,2.02571 -3.063563,2.57563 -0.531053,0.92561 -0.530022,0.93895 0.144563,1.72358 1.172775,1.36452 1.524225,1.67234 2.32569,2.03658 0.988219,0.44907 1.805793,1.68523 1.483182,2.24243 -0.131833,0.22776 -1.084994,1.17918 -2.118059,2.11429 -1.033015,0.9351 -1.913674,1.79576 -1.956357,1.91254 -0.199601,0.54206 3.220329,3.5597 4.404617,3.88661 1.033826,0.28535 0.832687,1.05241 -0.483502,1.84493 -0.68329,0.41145 -1.557476,1.09353 -1.942834,1.51577 -0.564574,0.6187 -0.96785,0.76772 -2.077963,0.76772 -0.757414,0 -1.435277,-0.0998 -1.507271,-0.22187 -0.154738,-0.26386 -0.590065,-10.92757 -0.558979,-13.68138 0.106191,-9.34886 0.10325,-13.86124 -0.01589,-24.25656 -0.07546,-6.58922 -0.236587,-13.64436 -0.358059,-15.67807 -0.120863,-2.03371 -0.202154,-3.99718 -0.179063,-4.36325 0.07684,-1.21056 0.08897,-1.69303 0.06368,-2.44042 -0.01538,-0.40676 -0.02901,-4.00087 -0.02901,-7.98695 -0.0022,-3.98608 -0.03802,-8.91134 -0.08072,-10.94504 -0.04283,-2.03372 0,-4.60976 0.0961,-5.72448 0.09595,-1.11474 0.0688,-2.97836 -0.06011,-4.14139 -0.128875,-1.16302 -0.300619,-3.77857 -0.382518,-5.81229 -0.08156,-2.03371 -0.214849,-4.62942 -0.296731,-5.7683 -0.08205,-1.13889 -0.138494,-2.20378 -0.126323,-2.36647 0.03594,-0.47886 0.356317,-11.18539 0.356317,-11.83251 -0.0017,-0.32537 -0.0808,-2.12244 -0.177947,-3.99347 -0.158745,-3.0618 -0.181278,-8.661802 -0.05817,-14.346882 0.02465,-1.13886 -0.09598,-5.13236 -0.267825,-8.8744 -0.171304,-3.74201 -0.272964,-7.73547 -0.223977,-8.87432 0.203912,-4.7668 0.52441,-14.08299 0.52441,-14.39879 0,-0.0295 0.791086,-0.0802 3.957915,-0.32576 z"
       sodipodi:nodetypes="cscccccccsccccsccscccccscccscscccccsccsccccccccsscsccccccccsccsccscsscccsscsscsscscscssscccsccssssssccssccccscscsscccssccscssssssssccccccsscsccscsssssscscscssscssssccsscscscscssssccscscscccsscssscccscscccssccccssccssscsscscccccccccscccccscccssc" />
    <path
       style="opacity:0.930349;fill:#ffffff;stroke-width:0.565651"
       d="m 97.466674,139.78396 c 0,-46.744482 0.06614,-65.867212 0.146983,-42.494982 0.08084,23.372242 0.08084,61.617722 0,84.989952 -0.08084,23.37224 -0.146983,4.2495 -0.146983,-42.49497 z"
       id="path3842" />
    <path
       style="opacity:0.930349;fill:#ffffff;stroke-width:0.565651"
       d="M 77.0682,140.07012 V 55.652488 h 10.063107 10.063108 v 84.417632 84.41762 H 87.131307 77.0682 Z m 7.936577,81.76434 c 1.169591,-0.82976 2.118578,-1.79555 2.10886,-2.14622 -0.0097,-0.35066 -1.141818,-1.33591 -2.515778,-2.18943 -1.373958,-0.85352 -2.498105,-1.78875 -2.498105,-2.07828 0,-0.28953 0.880521,-1.21395 1.956715,-2.05428 1.076194,-0.84032 1.956716,-1.98674 1.956716,-2.5476 0,-0.56085 -1.018889,-1.85795 -2.264194,-2.88244 -2.588608,-2.12961 -2.50093,-2.43113 1.533209,-5.27253 1.324493,-0.93289 2.40817,-1.937 2.40817,-2.23135 0,-0.29436 -1.267201,-1.19256 -2.816003,-1.99601 -2.988094,-1.5501 -2.988367,-1.55182 -0.73542,-4.67275 1.727329,-2.39281 1.65937,-3.28635 -0.362009,-4.75985 -0.922451,-0.67241 -1.677184,-1.46185 -1.677184,-1.75428 0,-0.29244 0.880521,-1.52946 1.956715,-2.74894 1.076194,-1.21946 1.956716,-2.58609 1.956716,-3.03692 0,-0.45084 -0.901239,-1.34698 -2.002755,-1.99143 l -2.002756,-1.17172 2.282286,-1.85048 c 2.501273,-2.02804 2.788712,-2.75261 1.303928,-3.28696 -0.538099,-0.19366 -1.672827,-1.00898 -2.521627,-1.81183 l -1.543273,-1.45972 2.018834,-2.11652 c 2.162887,-2.26753 2.270428,-4.14863 0.274248,-4.79722 -0.558685,-0.18153 -1.434923,-0.80417 -1.947193,-1.38365 -0.878984,-0.9943 -0.827331,-1.14647 0.917841,-2.70392 1.017084,-0.90768 2.452285,-2.0545 3.189343,-2.54848 1.684953,-1.12928 1.229519,-1.93611 -1.958992,-3.47044 -2.685195,-1.29212 -2.691005,-1.47195 -0.166865,-5.16308 1.457783,-2.13177 1.298844,-3.17856 -0.638327,-4.20408 -0.922452,-0.48833 -1.677185,-1.23132 -1.677185,-1.65108 0,-0.41977 1.017836,-1.94697 2.261855,-3.39377 l 2.261861,-2.63056 -2.314246,-1.56782 c -2.158694,-1.46245 -2.244964,-1.61958 -1.283498,-2.3378 0.566911,-0.42348 1.647992,-1.31857 2.402408,-1.98907 1.305127,-1.15997 1.321017,-1.24908 0.327588,-1.83702 -0.574246,-0.33985 -1.820439,-1.31721 -2.769319,-2.17191 l -1.725241,-1.55398 2.09648,-1.99385 c 1.153063,-1.09662 2.096482,-2.22228 2.096482,-2.50147 0,-0.27919 -1.032717,-1.4567 -2.29493,-2.61668 -2.604811,-2.39386 -2.489242,-2.86357 1.308366,-5.31776 1.157577,-0.74808 2.104687,-1.738 2.104687,-2.19983 0,-0.46181 -1.069208,-1.39165 -2.376012,-2.06629 -1.306809,-0.67465 -2.471271,-1.31395 -2.587699,-1.42068 -0.116424,-0.10673 0.575413,-1.44973 1.537419,-2.98445 0.962011,-1.53472 1.749108,-3.08317 1.749108,-3.441002 0,-0.35783 -0.754734,-1.05015 -1.677186,-1.53848 -2.168318,-1.14788 -2.114084,-2.07709 0.279532,-4.78938 1.076192,-1.21948 1.956715,-2.51663 1.956715,-2.88257 0,-0.36593 -0.909129,-1.21446 -2.020284,-1.88561 l -2.020282,-1.22027 2.299813,-1.95567 c 2.340674,-1.99042 2.874221,-3.00538 1.579868,-3.00538 -0.395967,0 -1.590963,-0.75158 -2.655542,-1.67016 l -1.935597,-1.67017 2.096481,-2.21715 c 1.153063,-1.21943 2.096482,-2.48511 2.096482,-2.81263 0,-0.32751 -1.018888,-1.43371 -2.264196,-2.45821 -2.588607,-2.1296 -2.500928,-2.43112 1.533212,-5.27252 1.324492,-0.93289 2.408168,-1.93699 2.408168,-2.23135 0,-0.29435 -1.249431,-1.18334 -2.776515,-1.97553 l -2.776514,-1.44034 1.154551,-2.00323 1.154552,-2.00324 -1.592641,0.009 c -3.471186,0.0191 -3.288673,-1.90813 -3.073161,32.45096 0.310069,49.433702 1.216602,125.378732 1.551024,129.936902 0.294335,4.01185 0.35279,4.14934 1.764094,4.14934 0.802822,0 2.416609,-0.67889 3.586202,-1.50864 z m 7.075705,1.00055 c 0.628971,-0.40802 0.691024,-6.30491 0.368784,-35.04602 -0.213087,-19.00549 -0.453408,-38.41863 -0.534046,-43.14029 -0.08064,-4.72166 -0.325414,-25.84038 -0.543941,-46.930482 -0.218525,-21.09009 -0.511974,-38.9251 -0.652111,-39.63336 -0.20988,-1.06074 -0.622451,-1.28623 -2.340625,-1.27928 -2.265658,0.009 -4.662197,1.01671 -5.013579,2.10779 -0.12141,0.37699 0.649732,1.26958 1.713649,1.98354 1.063917,0.71395 2.247914,1.81203 2.631109,2.44018 0.619856,1.0161 0.441362,1.36722 -1.618036,3.18298 -1.273109,1.12249 -2.314748,2.35258 -2.314748,2.73351 0,0.38095 1.006311,1.34295 2.236247,2.13779 1.957136,1.26479 3.022161,3.11892 1.81695,3.16318 -0.230615,0.008 -1.299819,0.766 -2.376012,1.68342 l -1.956715,1.66802 2.441859,2.55627 2.441861,2.55627 -2.302094,1.55959 c -1.266155,0.85778 -2.296724,1.8473 -2.290159,2.19894 0.0066,0.35164 1.0254,1.37352 2.264079,2.27084 1.23868,0.89732 2.157718,1.9275 2.042305,2.28929 -0.115408,0.3618 -1.244663,1.43044 -2.509447,2.37477 -1.264786,0.94434 -2.314986,1.89406 -2.333774,2.1105 -0.01879,0.21643 1.223728,1.09438 2.761147,1.951 1.537418,0.85662 2.795308,1.76173 2.795308,2.01136 0,0.249632 -1.132101,1.251252 -2.515777,2.225832 -2.26857,1.59783 -3.336091,3.43393 -1.996521,3.43393 0.716229,0 4.512298,3.72283 4.512298,4.42525 0,0.31349 -1.006312,1.2839 -2.236247,2.15647 -1.229935,0.87256 -2.226698,2.00216 -2.215029,2.5102 0.01166,0.50806 1.01798,1.62954 2.236247,2.49219 1.218266,0.86264 2.215029,1.80743 2.215029,2.09953 0,0.29209 -0.880523,1.08818 -1.956716,1.76908 -2.42355,1.53337 -2.508178,3.0328 -0.279531,4.95257 0.922451,0.7946 1.677185,1.78318 1.677185,2.19683 0,0.41366 -0.918445,1.50638 -2.040991,2.42828 l -2.04099,1.67618 2.320521,1.90906 c 1.276288,1.04998 2.320522,2.2086 2.320522,2.57472 0,0.36613 -1.135691,1.50062 -2.523761,2.5211 -1.388064,1.02048 -2.377174,2.09823 -2.198015,2.39499 0.179158,0.29676 1.126164,0.89448 2.104464,1.32828 0.978295,0.43381 2.257159,1.16327 2.841915,1.62105 1.009204,0.79005 0.931123,0.92535 -1.537418,2.66404 -1.43034,1.00744 -2.600616,2.16255 -2.600616,2.56692 0,0.40435 1.00631,1.56308 2.236245,2.57492 1.229937,1.01185 2.236247,2.19227 2.236247,2.62315 0,0.43088 -1.00631,1.59934 -2.236247,2.59658 -1.229935,0.99723 -2.236245,2.16134 -2.236245,2.58692 0,0.42558 1.00631,1.35277 2.236245,2.06043 1.229937,0.70766 2.240143,1.56116 2.244902,1.89667 0.0048,0.3355 -1.0544,1.54608 -2.353695,2.69017 l -2.362347,2.08014 2.353693,2.16308 c 1.294532,1.18969 2.353694,2.34415 2.353694,2.56546 0,0.22131 -1.00631,1.08412 -2.236247,1.91736 -1.229935,0.83324 -2.236245,1.76522 -2.236245,2.07107 0,0.30584 1.00631,1.23782 2.236245,2.07106 1.229937,0.83324 2.236247,1.87238 2.236247,2.3092 0,0.43683 -1.132101,1.61114 -2.515777,2.60958 -1.383678,0.99844 -2.515776,2.01123 -2.515776,2.25065 0,0.23942 1.177078,1.03623 2.615731,1.7707 1.438654,0.73446 2.710318,1.62588 2.825922,1.98092 0.115606,0.35503 -0.935685,1.45261 -2.336201,2.43904 -1.400517,0.98644 -2.546391,2.02116 -2.546391,2.29938 0,0.27822 0.817625,1.07842 1.816949,1.77822 3.865683,2.70704 4.042745,3.78562 0.978359,5.95962 -1.229937,0.87256 -2.236247,1.93454 -2.236247,2.35995 0,0.4254 0.985165,1.41012 2.189249,2.18826 1.204089,0.77814 2.339489,1.66364 2.523108,1.9678 0.183622,0.30415 -0.670382,1.28038 -1.897782,2.1694 -1.227404,0.88902 -2.23701,1.99186 -2.243576,2.45075 -0.0066,0.4589 0.871219,1.76024 1.950628,2.89188 l 1.962569,2.05752 -1.683039,1.6507 c -0.925666,0.90789 -1.683034,1.86007 -1.683034,2.11595 0,0.61785 4.544254,0.5825 5.508236,-0.0429 z m 3.618757,0.0788 c 0.218924,-0.37892 -0.386611,-52.05542 -1.619589,-138.215982 -0.222952,-15.58025 -0.618634,-27.90074 -0.896041,-27.90074 -0.273229,0 -0.64487,0.39507 -0.825867,0.87794 -0.181002,0.48286 -0.02183,21.79474 0.353711,47.359722 0.375545,25.56498 0.881873,62.57836 1.125176,82.25196 0.243303,19.6736 0.469393,35.83457 0.502422,35.91326 0.135204,0.32212 1.129622,0.11291 1.360188,-0.28616 z"
       id="path3844" />
    <path
       style="opacity:0.930349;fill:#ffffff;stroke-width:0.565651"
       d="M 77.0682,140.07012 V 55.652488 h 9.973444 9.973442 l 0.230776,28.75923 c 0.243634,30.361522 0.279352,90.642022 0.07206,121.618612 L 97.19441,224.48774 H 87.131307 77.0682 Z m 8.193386,81.81305 c 1.028348,-0.80297 1.869721,-1.8295 1.869721,-2.28117 0,-0.45169 -1.00631,-1.50299 -2.236245,-2.33623 -1.229935,-0.83324 -2.236247,-1.73236 -2.236247,-1.99805 0,-0.2657 0.631901,-0.90694 1.40422,-1.42498 2.390659,-1.60358 2.397846,-3.43161 0.02328,-5.92106 l -2.06969,-2.16984 2.81306,-2.22158 c 1.547177,-1.22188 2.823769,-2.54305 2.836864,-2.93594 0.0131,-0.3929 -1.104538,-1.43332 -2.48364,-2.31206 l -2.507455,-1.5977 1.389331,-2.09309 c 1.791094,-2.69835 1.788354,-4.61613 -0.0083,-5.82128 -1.771702,-1.1884 -1.754465,-1.43873 0.279531,-4.05889 2.117354,-2.72755 2.116821,-4.03554 -0.0022,-5.35475 -1.668777,-1.03892 -1.672302,-1.05206 -0.559061,-2.08343 1.08376,-1.00404 1.12081,-1.00234 1.135694,0.0524 0.0085,0.59966 0.882066,1.73414 1.941326,2.52108 1.059265,0.78695 1.932864,1.70964 1.941326,2.05043 0.0085,0.34078 -0.990921,1.44749 -2.220856,2.45934 -1.229937,1.01185 -2.236247,2.09147 -2.236247,2.39916 0,0.3077 1.132099,1.25948 2.515777,2.11508 1.383678,0.85559 2.515776,1.70126 2.515776,1.87925 0,0.17799 -1.000361,1.08128 -2.223029,2.0073 -1.222668,0.92602 -2.22303,2.06999 -2.22303,2.54216 0,0.47217 1.000362,1.61613 2.22303,2.54216 1.222668,0.92602 2.223026,2.08497 2.223016,2.57545 -9e-6,0.49048 -0.88053,1.61101 -1.956715,2.49006 -1.076184,0.87906 -1.95133,2.03802 -1.944765,2.57546 0.0066,0.53744 1.049985,1.72942 2.318706,2.64884 l 2.306768,1.67169 -2.039174,1.67469 c -2.473584,2.03144 -2.551266,3.21605 -0.37714,5.75097 l 1.662033,1.93785 -1.382501,1.32961 c -2.256337,2.16999 -1.823122,2.93283 1.552568,2.73387 l 2.935073,-0.173 0.195438,-6.86788 C 92.883074,207.57082 91.585802,80.648478 91.113975,67.098978 l -0.348768,-10.01565 -2.268843,-0.17063 c -2.811694,-0.21145 -5.278488,0.69458 -5.278488,1.93875 0,0.51589 1.069202,1.91725 2.376011,3.11415 l 2.376012,2.17618 -2.096482,2.21813 c -2.531636,2.67854 -2.603951,3.53665 -0.424023,5.03149 2.125383,1.45744 2.528448,2.54731 1.27514,3.44793 -0.544987,0.39162 -1.619825,1.23946 -2.388536,1.88409 l -1.397654,1.17205 2.379376,2.49636 c 1.85722,1.94854 2.231415,2.64784 1.705138,3.18661 -0.893247,0.91443 -1.568736,0.87473 -1.568736,-0.0922 0,-0.43034 -1.006311,-1.46417 -2.236246,-2.29742 -1.229936,-0.83323 -2.236247,-1.67048 -2.236247,-1.86055 0,-0.19006 0.754733,-1.22555 1.677185,-2.30108 0.922452,-1.07553 1.677184,-2.25763 1.677184,-2.62688 0,-0.36925 -0.899225,-1.61409 -1.998278,-2.76632 l -1.998278,-2.09496 2.822495,-2.22159 c 1.552372,-1.22187 2.763272,-2.60447 2.690889,-3.07242 -0.07238,-0.46795 -1.208374,-1.4589 -2.524417,-2.20209 l -2.392815,-1.35126 1.141255,-1.98016 1.141255,-1.98017 -2.365542,0.176 c -2.235835,0.16634 -2.380725,0.28582 -2.642456,2.17912 -0.700548,5.06763 0.667193,159.739692 1.440447,162.893662 0.460667,1.87897 3.139784,1.8327 5.611032,-0.0969 z m 10.814899,-4.40638 c 5.07e-4,-9.99312 -1.099505,-88.82856 -1.730641,-124.050992 -0.329962,-18.41449 -0.574755,-34.18913 -0.543984,-35.05477 0.03732,-1.04998 -0.226156,-1.57389 -0.791528,-1.57389 -1.107474,0 -1.109134,15.47083 -0.0096,89.568532 0.448412,30.21865 0.820697,59.90075 0.827303,65.96021 0.0116,10.63157 0.05116,11.01722 1.130136,11.01722 1.045386,0 1.118136,-0.38161 1.11832,-5.86631 z"
       id="path3846" />
    <path
       style="opacity:0.930349;fill:#ffffff;stroke-width:0.565651"
       d="M 77.0682,140.07012 V 55.652488 h 9.973444 9.973442 l 0.230776,28.75923 c 0.243634,30.361522 0.279352,90.642022 0.07206,121.618612 L 97.19441,224.48774 H 87.131307 77.0682 Z m 8.193386,81.81305 c 1.028348,-0.80297 1.869721,-1.8295 1.869721,-2.28117 0,-0.45169 -1.00631,-1.50299 -2.236245,-2.33623 -1.229935,-0.83324 -2.236247,-1.73236 -2.236247,-1.99805 0,-0.2657 0.631901,-0.90694 1.40422,-1.42498 2.390659,-1.60358 2.397846,-3.43161 0.02328,-5.92106 l -2.06969,-2.16984 2.81306,-2.22158 c 1.547177,-1.22188 2.823769,-2.54305 2.836864,-2.93594 0.0131,-0.3929 -1.104538,-1.43332 -2.48364,-2.31206 l -2.507455,-1.5977 1.389331,-2.09309 c 1.791094,-2.69835 1.788354,-4.61613 -0.0083,-5.82128 -1.771702,-1.1884 -1.754465,-1.43873 0.279531,-4.05889 2.117354,-2.72755 2.116821,-4.03554 -0.0022,-5.35475 -1.668777,-1.03892 -1.672302,-1.05206 -0.559061,-2.08343 1.08376,-1.00404 1.12081,-1.00234 1.135694,0.0524 0.0085,0.59966 0.882066,1.73414 1.941326,2.52108 1.059265,0.78695 1.932864,1.70964 1.941326,2.05043 0.0085,0.34078 -0.990921,1.44749 -2.220856,2.45934 -1.229937,1.01185 -2.236247,2.09147 -2.236247,2.39916 0,0.3077 1.132099,1.25948 2.515777,2.11508 1.383678,0.85559 2.515776,1.70126 2.515776,1.87925 0,0.17799 -1.000361,1.08128 -2.223029,2.0073 -1.222668,0.92602 -2.22303,2.06999 -2.22303,2.54216 0,0.47217 1.000362,1.61613 2.22303,2.54216 1.222668,0.92602 2.223026,2.08497 2.223016,2.57545 -9e-6,0.49048 -0.88053,1.61101 -1.956715,2.49006 -1.076184,0.87906 -1.95133,2.03802 -1.944765,2.57546 0.0066,0.53744 1.049985,1.72942 2.318706,2.64884 l 2.306768,1.67169 -2.039174,1.67469 c -2.473584,2.03144 -2.551266,3.21605 -0.37714,5.75097 l 1.662033,1.93785 -1.382501,1.32961 c -2.256337,2.16999 -1.823122,2.93283 1.552568,2.73387 l 2.935073,-0.173 0.195438,-6.86788 C 92.883074,207.57082 91.585802,80.648478 91.113975,67.098978 l -0.348768,-10.01565 -2.268843,-0.17063 c -2.811694,-0.21145 -5.278488,0.69458 -5.278488,1.93875 0,0.51589 1.069202,1.91725 2.376011,3.11415 l 2.376012,2.17618 -2.096482,2.21813 c -2.531636,2.67854 -2.603951,3.53665 -0.424023,5.03149 2.125383,1.45744 2.528448,2.54731 1.27514,3.44793 -0.544987,0.39162 -1.619825,1.23946 -2.388536,1.88409 l -1.397654,1.17205 2.379376,2.49636 c 1.85722,1.94854 2.231415,2.64784 1.705138,3.18661 -0.893247,0.91443 -1.568736,0.87473 -1.568736,-0.0922 0,-0.43034 -1.006311,-1.46417 -2.236246,-2.29742 -1.229936,-0.83323 -2.236247,-1.67048 -2.236247,-1.86055 0,-0.19006 0.754733,-1.22555 1.677185,-2.30108 0.922452,-1.07553 1.677184,-2.25763 1.677184,-2.62688 0,-0.36925 -0.899225,-1.61409 -1.998278,-2.76632 l -1.998278,-2.09496 2.822495,-2.22159 c 1.552372,-1.22187 2.763272,-2.60447 2.690889,-3.07242 -0.07238,-0.46795 -1.208374,-1.4589 -2.524417,-2.20209 l -2.392815,-1.35126 1.141255,-1.98016 1.141255,-1.98017 -2.365542,0.176 c -2.235835,0.16634 -2.380725,0.28582 -2.642456,2.17912 -0.700548,5.06763 0.667193,159.739692 1.440447,162.893662 0.460667,1.87897 3.139784,1.8327 5.611032,-0.0969 z m 10.814899,-4.40638 c 5.07e-4,-9.99312 -1.099505,-88.82856 -1.730641,-124.050992 -0.329962,-18.41449 -0.574755,-34.18913 -0.543984,-35.05477 0.03732,-1.04998 -0.226156,-1.57389 -0.791528,-1.57389 -1.107474,0 -1.109134,15.47083 -0.0096,89.568532 0.448412,30.21865 0.820697,59.90075 0.827303,65.96021 0.0116,10.63157 0.05116,11.01722 1.130136,11.01722 1.045386,0 1.118136,-0.38161 1.11832,-5.86631 z"
       id="path3848" />
    <path
       style="opacity:0.930349;fill:#ffffff;stroke-width:0.0999942"
       d="m 86.77168,154.56716 c -0.233232,-0.3644 -1.194706,-0.98022 -2.78009,-1.78065 -2.457477,-1.24072 -2.47733,-1.39854 -0.547526,-4.35245 1.221044,-1.86904 1.378602,-2.20486 1.381432,-2.94437 0.0034,-0.89252 -0.300555,-1.24803 -1.980871,-2.31665 -0.802812,-0.51056 -1.316961,-1.12569 -1.219327,-1.45882 0.150446,-0.51331 1.433183,-2.28046 2.896999,-3.99103 0.874583,-1.022 1.590151,-1.87498 1.590151,-1.89551 0,-0.0205 -0.744925,-0.54503 -1.655386,-1.16554 -1.999594,-1.36279 -2.495437,-1.76274 -2.495437,-2.01287 0,-0.10479 0.189012,-0.34803 0.420025,-0.54053 1.634571,-1.36204 2.873183,-2.4311 3.17696,-2.74208 0.578195,-0.59191 0.515065,-0.7422 -0.656817,-1.56367 -0.957642,-0.67128 -2.32398,-1.80013 -3.529656,-2.91615 l -0.540075,-0.49991 1.992454,-2.01424 c 1.284384,-1.29843 2.015624,-2.1127 2.057647,-2.2913 0.10687,-0.4542 -0.191674,-0.82883 -2.520487,-3.16283 -1.482913,-1.48622 -1.704967,-1.94234 -1.284593,-2.63865 0.276382,-0.45781 0.899378,-0.97128 2.416393,-1.9916 1.573419,-1.05824 2.520143,-2.00597 2.520143,-2.52281 0,-0.27489 -0.09144,-0.43147 -0.469438,-0.80395 -0.619145,-0.61008 -1.085725,-0.91666 -2.742509,-1.80203 -1.924112,-1.02823 -1.77554,-0.86568 -1.443641,-1.57944 0.153442,-0.32999 0.724244,-1.35119 1.268439,-2.26934 1.233943,-2.08186 1.707053,-3.03934 1.707053,-3.454712 0,-0.43593 -0.56464,-0.97943 -1.781265,-1.71457 -1.143563,-0.69098 -1.41829,-1.04176 -1.355626,-1.73089 0.05791,-0.63683 0.458131,-1.28865 1.664819,-2.71139 1.05808,-1.24753 1.928494,-2.49189 2.02857,-2.9001 0.138281,-0.56402 -0.566691,-1.23541 -2.638498,-2.51278 -0.706689,-0.43571 -1.25003,-0.82294 -1.207416,-0.86051 0.04261,-0.0376 0.744755,-0.63714 1.560323,-1.33241 0.815572,-0.69526 1.782861,-1.59583 2.149533,-2.00126 0.569461,-0.62966 0.666679,-0.70176 0.666679,-0.49442 0,0.54936 0.443775,0.83546 0.904423,0.58308 0.109794,-0.0602 0.218588,-0.09 0.24176,-0.0662 0.02318,0.0237 -0.258589,0.24815 -0.626145,0.4987 -1.30798,0.89165 -2.197866,1.79415 -2.199482,2.23068 -10e-4,0.25484 1.079571,1.33513 2.223004,2.22255 0.96379,0.748 1.636731,1.39844 1.957958,1.89247 0.146514,0.22533 0.145728,0.2671 -0.01009,0.53832 -0.211789,0.36863 -1.122622,1.19372 -2.590248,2.34641 -1.351184,1.06124 -2.07541,1.75679 -2.07541,1.99323 0,0.23193 0.553054,0.66536 1.841914,1.44352 2.237106,1.35066 2.838696,1.742 3.265538,2.1242 l 0.439726,0.39374 -0.376982,0.400932 c -0.207345,0.2205 -1.04408,0.91331 -1.85942,1.53957 -1.586389,1.21849 -2.372435,1.99176 -2.706887,2.66289 -0.342865,0.68802 -0.266488,0.93336 0.33499,1.07608 0.526541,0.12493 1.335414,0.76053 2.684515,2.10943 1.163103,1.16294 1.911034,2.06802 1.911034,2.31257 0,0.18131 -1.114188,1.2193 -2.189134,2.03944 -1.613921,1.23134 -2.430025,2.24341 -2.280631,2.82825 0.09288,0.36358 1.320342,1.59847 2.447902,2.46269 1.396809,1.0706 2.069168,1.78639 1.929312,2.05391 -0.135865,0.25989 -0.86052,0.86069 -1.963245,1.62769 -1.013372,0.70485 -1.520704,1.26263 -1.747819,1.92161 -0.197141,0.57202 -0.193706,0.6098 0.117476,1.29097 0.202166,0.44253 0.56861,0.89171 1.508584,1.84918 0.682855,0.69557 1.327856,1.4335 1.433331,1.63987 0.180921,0.35396 0.182625,0.39484 0.03005,0.72238 -0.256077,0.54974 -1.243783,1.56096 -2.640793,2.70366 -0.70944,0.5803 -1.289915,1.08126 -1.289942,1.11327 -3.2e-5,0.032 0.590141,0.53967 1.311492,1.12814 1.681487,1.37174 2.646323,2.28864 3.026365,2.87601 0.297751,0.46019 0.299769,0.47194 0.131768,0.76781 -0.226791,0.39942 -1.035248,1.14995 -2.244731,2.08389 -1.224952,0.9459 -2.191181,1.91743 -2.284167,2.29671 -0.06017,0.24544 -0.02158,0.32914 0.266202,0.57722 0.185117,0.15958 0.936964,0.59162 1.670771,0.96009 2.311442,1.16063 3.557845,2.00566 3.557845,2.41212 0,0.23717 -0.512745,0.70857 -1.702258,1.56498 -1.339543,0.96443 -2.471861,1.94717 -2.797066,2.42757 -0.335919,0.49622 -0.275657,0.81886 0.252983,1.35448 0.215606,0.21845 0.39201,0.42867 0.39201,0.46716 0,0.0385 0.575904,0.57915 1.279795,1.20146 1.225864,1.0838 1.916991,1.8201 2.168242,2.30995 l 0.116762,0.22764 h -1.178062 c -1.131739,0 -1.184121,-0.009 -1.33219,-0.24082 z"
       id="path3866" />
    <path
       style="opacity:0.930349;fill:#ffffff;stroke-width:0.0999942"
       d="m 93.128898,153.2145 c -5.07e-4,-0.87642 -0.08868,-7.62594 -0.196553,-14.99895 -0.418053,-28.5725 -0.75027,-57.078392 -0.675043,-57.921752 0.04834,-0.54198 0.161632,5.45974 0.283592,15.02425 0.05499,4.31251 0.254302,18.790422 0.442916,32.173122 0.38259,27.14585 0.38412,27.31681 0.244328,27.31681 -0.06168,0 -0.09899,-0.5989 -0.09924,-1.59348 z"
       id="path3868" />
    <path
       style="opacity:0.930349;fill:#ffffff;stroke-width:0.141413"
       d="m 84.904155,176.83984 c 0,-0.24985 -0.07538,-0.37435 -0.226663,-0.37435 -0.131491,0 0.188149,-0.39316 0.761254,-0.93635 1.436114,-1.36116 1.4882,-1.84941 0.257451,-2.41338 -0.779564,-0.35721 -1.76947,-1.10977 -3.165572,-2.40652 l -0.88279,-0.81997 1.453454,-1.5448 c 0.799399,-0.84963 1.547794,-1.73423 1.663099,-1.96575 0.115307,-0.23153 0.320356,-0.53625 0.455664,-0.67716 0.191252,-0.19917 0.226454,-0.39123 0.158146,-0.86283 -0.149578,-1.03276 -0.457599,-1.41462 -1.614864,-2.002 -1.130057,-0.57356 -2.353315,-1.73463 -2.353315,-2.23367 0,-0.34675 1.533162,-1.81564 3.337433,-3.19752 1.809601,-1.38597 2.253183,-1.82215 2.253183,-2.2156 0,-0.31666 0.04402,-0.32964 1.118122,-0.32964 0.849237,0 1.118125,0.0468 1.118125,0.19448 0,0.30232 -1.024868,1.42207 -2.374224,2.59404 -1.305439,1.13383 -2.136182,2.22435 -1.998963,2.62402 0.161105,0.46922 0.690822,0.9392 2.206822,1.95794 1.762699,1.18452 2.231538,1.63723 2.108051,2.03553 -0.08963,0.2891 -2.190618,2.42751 -3.715352,3.78152 l -0.908475,0.80675 0.908475,0.83093 c 1.638573,1.4987 3.773666,3.68302 3.773666,3.86067 0,0.2018 -0.909536,0.98823 -2.30613,1.99402 -0.538098,0.38752 -1.214211,0.9227 -1.50248,1.18929 l -0.524117,0.4847 z"
       id="path3874" />
  </g>
</svg>
