<?xml version="1.0" encoding="UTF-8" standalone="no"?>
<svg
   xmlns:dc="http://purl.org/dc/elements/1.1/"
   xmlns:cc="http://creativecommons.org/ns#"
   xmlns:rdf="http://www.w3.org/1999/02/22-rdf-syntax-ns#"
   xmlns:svg="http://www.w3.org/2000/svg"
   xmlns="http://www.w3.org/2000/svg"
   xmlns:sodipodi="http://sodipodi.sourceforge.net/DTD/sodipodi-0.dtd"
   xmlns:inkscape="http://www.inkscape.org/namespaces/inkscape"
   width="169.81999mm"
   height="20.94997mm"
   viewBox="0 0 169.81999 20.94997"
   version="1.1"
   id="svg25657"
   inkscape:version="1.0 (b51213c273, 2020-08-10)">
  <defs
     id="defs25651" />
  <sodipodi:namedview
     id="base"
     pagecolor="#ffffff"
     bordercolor="#666666"
     borderopacity="1.0"
     inkscape:pageopacity="0.0"
     inkscape:pageshadow="2"
     inkscape:zoom="0.35"
     inkscape:cx="-473.71286"
     inkscape:cy="38.707754"
     inkscape:document-units="mm"
     inkscape:current-layer="layer1"
     inkscape:document-rotation="0"
     showgrid="false"
     inkscape:snap-global="false"
     fit-margin-top="0"
     fit-margin-left="0"
     fit-margin-right="0"
     fit-margin-bottom="0"
     showborder="false"
     inkscape:window-width="1318"
     inkscape:window-height="704"
     inkscape:window-x="48"
     inkscape:window-y="27"
     inkscape:window-maximized="1" />
  <metadata
     id="metadata25654">
    <rdf:RDF>
      <cc:Work
         rdf:about="">
        <dc:format>image/svg+xml</dc:format>
        <dc:type
           rdf:resource="http://purl.org/dc/dcmitype/StillImage" />
        <dc:title></dc:title>
      </cc:Work>
    </rdf:RDF>
  </metadata>
  <g
     inkscape:label="Layer 1"
     inkscape:groupmode="layer"
     id="layer1"
     transform="translate(-20.579414,-137.92524)">
    <path
       id="path21270"
       style="fill:#ff0000;stroke-width:0.292364"
       d="m 190.3994,148.40808 c -0.002,-4.99299 -0.0236,-9.98835 -0.0236,-10.0493 0,-0.38445 -9.63028,-0.43354 -84.8981,-0.43354 H 20.579414 v 3.32292 16.47099 0.72251 h 84.898196 84.58896 c 0.10526,0.0152 0.20238,0.0221 0.23536,0.002 0,0 0,-0.002 0,-0.002 h 0.0732 v -1.70819 -0.87598 c 0.0188,-1.92628 0.0246,-4.67163 0.0236,-7.44985 z m -2.40792,6.49302 -0.9412,0.0336 c -0.2984,0.0106 -4.83159,-0.1107 -10.28192,-0.0569 -5.45035,0.0539 -17.63035,0.15882 -27.06675,0.23411 -18.08004,0.14349 -30.56451,0.35772 -33.27895,0.57077 -0.89484,0.0703 -11.20105,0.19457 -22.902746,0.27648 -11.7017,0.0818 -22.21784,0.22388 -23.36921,0.31568 -1.15134,0.0917 -11.14524,0.22097 -22.20863,0.2874 -11.06337,0.0663 -20.9139,0.19098 -21.89011,0.27613 -0.97616,0.0851 -2.1409,0.0806 -2.58832,-0.011 -0.87324,-0.17837 -1.09393,-0.82029 -0.3747,-1.08983 0.24138,-0.0901 4.33471,-0.16543 9.09627,-0.16543 7.45675,0 16.64417,-0.10415 40.90097,-0.46053 2.76586,-0.0406 12.54981,-0.10714 21.74219,-0.14876 9.550346,-0.0428 17.093696,-0.19294 17.600796,-0.35047 0.51071,-0.15864 8.92448,-0.3163 19.81946,-0.37073 10.41259,-0.0525 21.72739,-0.18551 25.14402,-0.29613 7.42129,-0.24003 6.65837,-0.22801 9.0223,-0.14282 1.05756,0.0423 6.88141,0.0522 12.94184,0.0311 l 8.67049,0.002 c 0.002,0 0.32119,0.16642 0.32253,0.51507 0.0114,0.25966 -0.18091,0.44104 -0.35833,0.55013 z m 0.10327,-3.38502 -0.75101,0.20459 c -1.66873,0.0674 -4.16359,-0.0697 -5.54653,0.0431 -1.38294,0.11257 -3.01357,0.11804 -3.62369,0.0122 -0.61012,-0.10603 -1.67503,-0.0868 -2.36648,0.0427 -0.69147,0.1294 -3.52023,0.21933 -6.28607,0.20144 -2.76585,-0.0185 -7.82425,0.0137 -11.24087,0.07 -6.07822,0.10169 -15.84139,0.11369 -18.48826,0.0231 -0.73215,-0.025 -3.3944,0.0273 -5.91621,0.11678 -4.9954,0.17711 -14.19933,0.31246 -15.38224,0.22721 -0.40675,-0.0294 -1.40517,0.003 -2.21865,0.071 -1.43429,0.1209 -5.15212,0.16715 -6.65576,0.083 -0.40675,-0.0228 -1.13883,0.0464 -1.62692,0.15339 -1.06909,0.23513 -11.791466,0.27379 -12.940196,0.0469 -0.44652,-0.0882 -2.11047,-0.042 -3.69766,0.10264 -1.5872,0.14407 -3.41825,0.17353 -4.06905,0.0643 -0.65077,-0.10956 -1.76697,-0.0962 -2.48038,0.0295 -1.4362,0.25289 -9.66408,0.34068 -12.90186,0.13785 -1.13889,-0.0712 -3.0025,-0.032 -4.14139,0.0874 -1.13887,0.11932 -2.30054,0.10162 -2.58152,-0.0396 -0.30519,-0.15256 -1.31462,-0.13038 -2.50724,0.0557 -2.35087,0.36734 -11.96977,0.39805 -13.25159,0.0427 -0.4881,-0.13557 -1.28683,-0.14535 -1.77491,-0.0221 -0.80148,0.20244 -10.47793,0.56462 -15.67809,0.58771 -2.55612,0.011 -9.05143,-0.26006 -9.17451,-0.38304 -0.17607,-0.17568 -0.2635,-5.12603 -0.0934,-5.29213 0.0951,-0.0929 0.92053,0.63828 1.83438,1.62477 1.53772,1.65983 1.71561,1.76932 2.38739,1.47032 0.39922,-0.17754 1.41065,-1.17406 2.24754,-2.21431 1.62131,-2.01535 2.38997,-2.33523 2.98161,-1.2412 0.78509,1.45189 2.99113,3.9731 3.47632,3.9731 0.80951,0 1.66185,-0.95094 2.67723,-2.98688 1.32034,-2.64739 2.0553,-2.75885 3.29452,-0.49985 0.31097,0.56699 1.10663,1.6075 1.76821,2.31251 l 1.20286,1.28166 0.94639,-0.52805 c 1.4969,-0.83523 2.57195,-1.92715 3.33486,-3.38758 0.38847,-0.74364 0.85038,-1.4394 1.02642,-1.54536 0.37396,-0.22575 1.4186,0.61965 1.79503,1.45268 0.29453,0.65178 0.91979,1.66033 1.16433,1.87827 0.0892,0.0795 0.46432,0.56711 0.83363,1.08363 0.3693,0.51638 0.86119,0.93897 1.09313,0.93897 0.60461,0 2.05753,-2.07341 2.84776,-4.06422 0.82439,-2.07674 1.31031,-2.33858 1.87775,-1.01181 0.56511,1.32109 3.60885,4.49818 4.30942,4.49818 0.36665,0 0.94043,-0.61013 1.66904,-1.77512 0.61067,-0.97625 1.39454,-2.10993 1.74199,-2.519 0.56776,-0.66848 0.68467,-0.70087 1.15512,-0.3198 0.28787,0.23335 0.69244,0.81414 0.89908,1.2909 0.45356,1.04653 2.27952,3.03415 2.7874,3.03415 0.4091,0 2.08838,-1.64097 3.33966,-3.26344 0.45436,-0.58912 1.05342,-1.07052 1.3312,-1.07052 0.28036,0 0.89987,0.61092 1.39244,1.37258 2.68477,4.15081 3.65647,4.2227 5.61261,0.41536 1.3895,-2.70461 1.95203,-2.76837 3.49869,-0.39692 0.60278,0.9242 1.49851,2.05719 1.99053,2.51768 l 0.89461,0.8372 1.00522,-0.52883 c 1.3324,-0.70089 2.49996,-1.92201 3.27431,-3.42435 0.99933,-1.93884 1.68728,-1.72318 3.46077,1.08503 2.14693,3.39949 2.148656,3.40053 3.347186,2.06084 0.54995,-0.61466 1.3594,-2.01248 1.7987,-3.10619 0.43931,-1.09381 0.96467,-1.98861 1.16755,-1.98861 0.20288,0 0.70746,0.5642 1.1213,1.25396 1.019,1.69863 3.02464,3.84799 3.76768,4.03782 0.50128,0.12793 0.88671,-0.2688 2.21462,-2.27957 0.88426,-1.33901 1.79869,-2.43445 2.03201,-2.43445 0.23334,0 0.93138,0.73242 1.55126,1.62757 0.61986,0.89496 1.36802,1.87797 1.66251,2.18444 0.52862,0.55063 0.54746,0.55034 1.479,-0.0239 0.51899,-0.32002 1.48251,-1.27055 2.1412,-2.11246 1.68825,-2.1577 2.32635,-2.15486 3.76267,0.0164 0.61306,0.92679 1.44664,1.98969 1.85246,2.36213 0.73583,0.67523 0.7399,0.67564 1.50092,0.11776 0.41969,-0.30774 1.2618,-1.46968 1.87131,-2.58226 1.39919,-2.55374 1.93381,-2.69214 3.13409,-0.81125 1.17687,1.8442 2.77013,3.55641 3.3092,3.55641 0.4095,0 1.59685,-0.72166 2.84596,-1.72951 0.29821,-0.24074 0.86937,-1.06134 1.2692,-1.82384 0.39989,-0.76237 0.94457,-1.46787 1.21039,-1.5673 0.52931,-0.19845 0.51093,-0.2194 2.77353,3.17023 0.82217,1.23163 1.66916,2.23948 1.88213,2.23948 0.58248,0 1.74108,-1.63576 2.75798,-3.8936 0.49916,-1.10847 1.02962,-2.05453 1.17879,-2.10357 0.14917,-0.0486 0.74847,0.66331 1.33182,1.5819 0.58337,0.91854 1.6066,2.18738 2.27383,2.81967 1.47593,1.39861 1.71531,1.30938 3.48847,-1.30043 1.75664,-2.58556 1.99198,-2.79011 2.62116,-2.28046 0.27743,0.22479 0.67341,0.79868 0.88004,1.27545 0.42926,0.99045 2.26903,3.03405 2.73148,3.03405 0.37621,0 1.92765,-1.49167 3.25178,-3.12663 0.53796,-0.66421 1.21793,-1.20775 1.51103,-1.20775 0.3296,0 0.93387,0.63385 1.58417,1.66155 0.57824,0.91386 1.40302,1.9832 1.83287,2.37661 0.73149,0.66941 0.8326,0.68765 1.57907,0.28486 0.48107,-0.25974 1.2193,-1.23155 1.86041,-2.44895 1.35483,-2.57298 2.12644,-2.80564 3.23264,-0.97512 0.40331,0.66759 1.28639,1.8072 1.96236,2.53254 1.18406,1.27089 1.2575,1.30417 2.01027,0.91058 1.17625,-0.61481 2.75969,-2.21757 3.39736,-3.43849 0.82288,-1.57571 1.24942,-1.85055 2.03604,-1.3124 0.35498,0.24289 0.64539,0.57145 0.64539,0.7301 0,0.23013 -0.11728,1.2865 0.63403,2.2936 0.002,0.57047 0.081,1.33879 0.0829,1.89733 0.002,0.45007 0.009,0.62261 0.0109,1.05927 z m 0.29216,-8.036 -2.22491,-1.30454 c -3.73091,-2.18758 -1.29305,-1.20748 -1.87126,-0.54775 -0.274,0.31253 -0.89485,1.46051 -1.37965,2.55081 -1.17631,2.64547 -1.50428,2.97225 -2.28786,2.27958 -0.33045,-0.29206 -0.60084,-0.63471 -0.60084,-0.76137 0,-0.12673 -0.5983,-1.06648 -1.3295,-2.08819 -1.57286,-2.19783 -2.56571,-2.94217 -3.36598,-2.52391 -0.70728,0.36971 -2.29886,2.14036 -2.53324,2.81794 -0.26526,0.76699 -1.56654,1.60896 -2.06089,1.33328 -0.22761,-0.12683 -1.18052,-1.07587 -2.11751,-2.10889 -0.93701,-1.03308 -1.81076,-1.92007 -1.94169,-1.97121 -0.69014,-0.26947 -4.1041,3.56662 -4.1041,4.61155 0,0.91902 -0.77114,0.59409 -1.63737,-0.68991 -0.85233,-1.26325 -2.79183,-3.39517 -3.08885,-3.39517 -0.0919,0 -0.68088,0.97527 -1.30874,2.16715 -0.63524,1.20593 -1.33419,2.16715 -1.57576,2.16715 -0.23877,0 -1.05335,-0.63378 -1.81024,-1.40849 -1.74602,-1.78698 -3.33762,-2.92581 -4.08889,-2.92581 -0.73899,0 -1.71207,0.99936 -2.291,2.35277 -0.79167,1.85083 -1.12607,1.78673 -4.94227,-0.94865 -1.07744,-0.77233 -2.15627,-1.40412 -2.39749,-1.40412 -0.26365,0 -0.93501,1.04357 -1.68317,2.61659 -0.68451,1.43905 -1.43769,2.68896 -1.67368,2.7774 -0.55432,0.2078 -1.20579,-0.33112 -1.76561,-1.46063 -0.73991,-1.49277 -2.35442,-3.47481 -3.18024,-3.90401 -0.71383,-0.37096 -0.86092,-0.34166 -1.80023,0.35816 -0.56258,0.41906 -1.33418,1.3133 -1.71464,1.98702 -0.42288,0.74882 -1.01384,1.33571 -1.52015,1.50955 -0.76478,0.26279 -0.93012,0.17453 -2.15551,-1.14965 -0.72997,-0.78875 -1.53619,-1.72673 -1.79173,-2.08425 -0.45638,-0.63873 -1.5798,-0.9094 -1.5798,-0.38078 0,0.1483 -0.23296,0.34808 -0.51767,0.44305 -0.66795,0.224 -2.54434,2.69122 -2.73634,3.5981 -0.2392,1.12975 -0.81597,1.02008 -1.69335,-0.3219 -0.9197,-1.40679 -2.71974,-3.4108 -3.06364,-3.4108 -0.12361,0 -0.72163,0.96903 -1.32894,2.15335 -0.6073,1.18424 -1.28965,2.22258 -1.5164,2.30779 -0.23041,0.0864 -0.80602,-0.25804 -1.30515,-0.78077 -0.49109,-0.51446 -1.22487,-1.27877 -1.63058,-1.69868 -0.40573,-0.41991 -1.32023,-1.06545 -2.0322,-1.43451 -1.28892,-0.66838 -1.29716,-0.66877 -1.93721,-0.10369 -0.35358,0.31213 -0.96354,1.18508 -1.35542,1.94003 -0.48079,0.92606 -0.89911,1.37249 -1.28604,1.37249 -0.315406,0 -1.744116,-0.82876 -3.174956,-1.84193 -1.84195,-1.30407 -2.73564,-1.77407 -3.06087,-1.60966 -0.53278,0.26958 -1.82608,2.53509 -2.33363,4.08797 -0.34558,1.05707 -1.49606,1.82064 -1.72646,1.14546 -0.33725,-0.98832 -3.3148,-4.82104 -4.11767,-5.30025 l -0.94603,-0.56466 -1.34658,1.27843 c -0.74059,0.7031 -1.34647,1.48228 -1.34647,1.73168 0,0.50037 -1.3449,1.65091 -1.92989,1.65091 -0.20405,0 -1.21773,-0.96643 -2.25264,-2.14768 -1.03489,-1.18114 -1.96301,-2.15625 -2.0624,-2.16723 -0.24118,-0.026 -2.64229,2.27308 -3.29506,3.15503 -0.50823,0.68672 -0.55412,0.79754 -0.62858,1.51714 -0.082,0.79174 -1.00706,0.49015 -1.72278,-0.56168 -0.41009,-0.60276 -1.31761,-1.6697 -2.01672,-2.37095 l -1.2711,-1.27501 -1.14044,2.21414 c -1.35093,2.62261 -1.79457,2.75725 -3.326,1.00973 -1.23285,-1.407 -3.61176,-3.12997 -4.32148,-3.12997 -0.62652,0 -1.27764,0.7036 -2.15534,2.32877 -0.43103,0.79809 -0.92832,1.31715 -1.31562,1.37294 -0.40327,0.0581 -1.52067,-0.5796 -3.17078,-1.80945 -2.06052,-1.53545 -2.65114,-1.84508 -3.08696,-1.61735 -0.5423,0.2835 -1.91922,2.83112 -2.27185,4.2037 -0.15834,0.61622 -0.89216,1.3006 -1.39476,1.3006 -0.0709,0 -0.86815,-1.13773 -1.77171,-2.52835 -0.9685,-1.49062 -2.02571,-2.74813 -2.57562,-3.06356 -0.92562,-0.53105 -0.93895,-0.53002 -1.72359,0.14456 -1.36452,1.17278 -1.67234,1.52423 -2.03657,2.32569 -0.44908,0.98822 -1.68524,1.8058 -2.24244,1.48319 -0.22777,-0.13184 -1.17919,-1.085 -2.11429,-2.11806 -0.93511,-1.03302 -1.79576,-1.91368 -1.91254,-1.95636 -0.54206,-0.1996 -3.5597,3.22033 -3.8866,4.40462 -0.28536,1.03382 -1.05242,0.83268 -1.84495,-0.48351 -0.41144,-0.68329 -1.09353,-1.55747 -1.51575,-1.94283 -0.61872,-0.56457 -0.76773,-0.96785 -0.76773,-2.07796 0,-0.75742 0.0999,-1.43528 0.22187,-1.50727 0.26386,-0.15474 10.92756,-0.59007 13.68137,-0.55898 9.34886,0.10619 13.86125,0.10325 24.25658,-0.0159 6.58922,-0.0755 13.64435,-0.23659 15.67807,-0.35806 2.0337,-0.12086 3.99717,-0.20216 4.36324,-0.17906 1.21056,0.0769 1.69304,0.089 2.44043,0.0637 0.40676,-0.0154 4.00086,-0.029 7.98693,-0.029 3.9861,-0.002 8.91136,-0.038 10.945066,-0.0807 2.0337,-0.0428 4.60974,0 5.72446,0.0961 1.11473,0.0959 2.97837,0.0688 4.14139,-0.0601 1.16301,-0.12888 3.77857,-0.30062 5.8123,-0.38252 2.0337,-0.0816 4.62942,-0.21485 5.7683,-0.29673 1.13889,-0.0821 2.20376,-0.1385 2.36646,-0.12633 0.47886,0.0359 11.18539,0.35632 11.83251,0.35632 0.32537,-0.002 2.12244,-0.0808 3.99348,-0.17795 3.06179,-0.15874 8.66179,-0.18127 14.34687,-0.0582 1.13885,0.0247 5.13235,-0.096 8.8744,-0.26782 3.74201,-0.17131 7.73547,-0.27297 8.87432,-0.22398 4.7668,0.20391 14.08299,0.52441 14.39879,0.52441 0.0295,0 0.0802,0.79109 0.32576,3.95792 z"
       sodipodi:nodetypes="cscccccccsccccsccscccccscccscscccccsccsccccccccsscsccccccccsccsccscsscccsscsscsscscscssscccsccssssssccssccccscscsscccssccscssssssssccccccsscsccscsssssscscscssscssssccsscscscscssssccscscscccsscssscccscscccssccccssccssscsscscccccccccscccccscccssc" />
    <path
       style="opacity:0.930349;fill:#ff0000;stroke-width:0.565653"
       d="m 105.71955,158.66761 c 46.74447,0 65.86721,0.0662 42.49498,0.147 -23.37224,0.0808 -61.617716,0.0808 -84.989946,0 -23.37223,-0.0808 -4.24949,-0.147 42.494966,-0.147 z"
       id="path21272" />
    <path
       style="opacity:0.930349;fill:#ff0000;stroke-width:0.565653"
       d="m 105.4334,138.26915 h 84.4176 v 10.06312 10.06309 H 105.4334 21.015764 v -10.06309 -10.06312 z m -81.764346,7.93657 c 0.82975,1.1696 1.79555,2.11859 2.14622,2.10887 0.35065,-0.01 1.3359,-1.14181 2.18943,-2.51578 0.85353,-1.37395 1.78875,-2.49811 2.07828,-2.49811 0.28953,0 1.21396,0.88052 2.05428,1.95673 0.84033,1.07619 1.98674,1.95671 2.54759,1.95671 0.56085,0 1.85796,-1.01888 2.88246,-2.26419 2.12961,-2.58862 2.43113,-2.50094 5.27252,1.5332 0.93289,1.3245 1.937,2.40818 2.23136,2.40818 0.29435,0 1.19255,-1.2672 1.99601,-2.81601 1.55009,-2.9881 1.55182,-2.98837 4.67274,-0.73542 2.39281,1.72733 3.28635,1.65937 4.75984,-0.36201 0.67242,-0.92245 1.46187,-1.67719 1.7543,-1.67719 0.29244,0 1.52946,0.88052 2.74893,1.95673 1.21946,1.07618 2.5861,1.95671 3.03692,1.95671 0.45085,0 1.34698,-0.90125 1.99143,-2.00276 l 1.17172,-2.00276 1.85048,2.28228 c 2.02804,2.50128 2.75262,2.78873 3.28697,1.30394 0.19365,-0.5381 1.00896,-1.67283 1.81182,-2.52163 l 1.45972,-1.54327 2.11653,2.01883 c 2.26753,2.16289 4.14862,2.27043 4.7972,0.27425 0.18153,-0.55869 0.80418,-1.43492 1.38367,-1.94719 0.9943,-0.87899 1.14646,-0.82733 2.70392,0.91784 0.90767,1.01708 2.05449,2.45229 2.54847,3.18935 1.12928,1.68495 1.93611,1.2295 3.47045,-1.95899 1.29212,-2.68521 1.47193,-2.69102 5.16308,-0.16688 2.13177,1.45779 3.178556,1.29885 4.204066,-0.63833 0.48832,-0.92244 1.23132,-1.67718 1.65109,-1.67718 0.41976,0 1.94695,1.01785 3.39376,2.26186 l 2.63057,2.26186 1.56782,-2.31425 c 1.46244,-2.15869 1.61957,-2.24496 2.33779,-1.2835 0.42348,0.56691 1.31858,1.648 1.98907,2.40241 1.15997,1.30513 1.24908,1.32102 1.83702,0.32759 0.33985,-0.57424 1.31721,-1.82043 2.1719,-2.76931 l 1.55399,-1.72525 1.99385,2.09649 c 1.09662,1.15305 2.22228,2.09647 2.50146,2.09647 0.2792,0 1.45671,-1.03271 2.61669,-2.29492 2.39385,-2.60481 2.86358,-2.48925 5.31777,1.30836 0.74807,1.15758 1.738,2.10469 2.19982,2.10469 0.46181,0 1.39166,-1.06921 2.06629,-2.37601 0.67464,-1.30681 1.31395,-2.47127 1.42068,-2.5877 0.10673,-0.11642 1.44973,0.5754 2.98445,1.53742 1.53473,0.962 3.08317,1.7491 3.441,1.7491 0.35783,0 1.05015,-0.75473 1.53847,-1.67719 1.14789,-2.16831 2.07709,-2.11409 4.78939,0.27954 1.21948,1.07619 2.51663,1.95671 2.88256,1.95671 0.36593,0 1.21446,-0.90912 1.88561,-2.02028 l 1.22027,-2.02029 1.95568,2.29983 c 1.99041,2.34066 3.00537,2.87422 3.00537,1.57985 0,-0.39596 0.75159,-1.59096 1.67017,-2.65553 l 1.67016,-1.9356 2.21715,2.09649 c 1.21943,1.15305 2.48512,2.09647 2.81263,2.09647 0.32752,0 1.43371,-1.01888 2.45822,-2.26419 2.1296,-2.58862 2.4311,-2.50094 5.27251,1.53321 0.93289,1.32449 1.93699,2.40817 2.23135,2.40817 0.29436,0 1.18334,-1.24944 1.97554,-2.77652 l 1.44034,-2.77652 2.00323,1.15456 2.00325,1.15455 -0.009,-1.59263 c -0.0191,-3.4712 1.90814,-3.28868 -32.45096,-3.07317 -49.4337,0.31007 -125.378726,1.21659 -129.936886,1.55102 -4.01186,0.29433 -4.14934,0.35278 -4.14934,1.76409 0,0.80284 0.67888,2.41662 1.50864,3.5862 z m -1.00055,7.07572 c 0.40801,0.62896 6.30491,0.69101 35.04602,0.36877 19.0055,-0.21309 38.41863,-0.45341 43.140286,-0.53404 4.72167,-0.0806 25.84037,-0.32542 46.93047,-0.54394 21.0901,-0.21853 38.92511,-0.51198 39.63335,-0.65211 1.06076,-0.20988 1.28626,-0.62245 1.2793,-2.34063 -0.009,-2.26565 -1.01671,-4.66218 -2.1078,-5.01357 -0.37699,-0.12142 -1.26957,0.64972 -1.98352,1.71364 -0.71397,1.06393 -1.81205,2.24791 -2.4402,2.63111 -1.01609,0.61986 -1.36722,0.44138 -3.18297,-1.61803 -1.1225,-1.27312 -2.35259,-2.31475 -2.73351,-2.31475 -0.38096,0 -1.34295,1.00631 -2.1378,2.23625 -1.2648,1.95714 -3.11891,3.02217 -3.16317,1.81695 -0.008,-0.23062 -0.766,-1.29982 -1.68342,-2.37601 l -1.66802,-1.95671 -2.55628,2.44185 -2.55626,2.44185 -1.5596,-2.30209 c -0.85777,-1.26615 -1.8473,-2.29672 -2.19893,-2.29016 -0.35166,0.007 -1.37353,1.02541 -2.27083,2.26408 -0.89733,1.23868 -1.92751,2.15773 -2.2893,2.04231 -0.36179,-0.1154 -1.43044,-1.24467 -2.37479,-2.50945 -0.94433,-1.26478 -1.89405,-2.31497 -2.11048,-2.33377 -0.21644,-0.0188 -1.09438,1.22372 -1.95101,2.76115 -0.85661,1.53741 -1.76172,2.7953 -2.01134,2.7953 -0.24964,0 -1.25125,-1.13209 -2.22583,-2.51578 -1.59784,-2.26857 -3.43394,-3.33608 -3.43394,-1.99652 0,0.71624 -3.72284,4.5123 -4.42524,4.5123 -0.3135,0 -1.28392,-1.00631 -2.15648,-2.23624 -0.87255,-1.22994 -2.00216,-2.2267 -2.5102,-2.21503 -0.50805,0.0117 -1.62953,1.01798 -2.49218,2.23625 -0.86264,1.21826 -1.80744,2.21502 -2.09953,2.21502 -0.2921,0 -1.08818,-0.88051 -1.7691,-1.95671 -1.53336,-2.42355 -3.0328,-2.50817 -4.95255,-0.27953 -0.79462,0.92245 -1.7832,1.67718 -2.19683,1.67718 -0.41366,0 -1.50639,-0.91844 -2.42828,-2.04098 l -1.67618,-2.041 -1.90906,2.32052 c -1.04999,1.2763 -2.20861,2.32052 -2.57472,2.32052 -0.36614,0 -1.50063,-1.13569 -2.52112,-2.52375 -1.02047,-1.38807 -2.09822,-2.37718 -2.39498,-2.19802 -0.29676,0.17916 -0.89448,1.12617 -1.32828,2.10447 -0.4338,0.9783 -1.16327,2.25716 -1.62106,2.8419 -0.79003,1.00921 -0.92534,0.93113 -2.664026,-1.53741 -1.00744,-1.43034 -2.16256,-2.60061 -2.56692,-2.60061 -0.40435,0 -1.56308,1.0063 -2.57491,2.23625 -1.01186,1.22993 -2.19228,2.23623 -2.62315,2.23623 -0.43089,0 -1.59935,-1.0063 -2.59658,-2.23623 -0.99724,-1.22995 -2.16136,-2.23625 -2.58692,-2.23625 -0.42558,0 -1.35278,1.0063 -2.06044,2.23625 -0.70765,1.22993 -1.56116,2.24013 -1.89667,2.24488 -0.33551,0.005 -1.54608,-1.05439 -2.69016,-2.35368 l -2.08015,-2.36235 -2.16308,2.3537 c -1.18969,1.29451 -2.34415,2.35368 -2.56546,2.35368 -0.2213,0 -1.08412,-1.00631 -1.91737,-2.23623 -0.83323,-1.22995 -1.76522,-2.23626 -2.07105,-2.23626 -0.30585,0 -1.23784,1.00631 -2.07108,2.23626 -0.83323,1.22992 -1.87237,2.23623 -2.3092,2.23623 -0.43683,0 -1.61112,-1.13209 -2.60958,-2.51577 -0.99844,-1.38367 -2.01122,-2.51578 -2.25063,-2.51578 -0.23943,0 -1.03624,1.17709 -1.77071,2.61573 -0.73445,1.43866 -1.62588,2.71032 -1.98092,2.82593 -0.35503,0.1156 -1.45261,-0.93569 -2.43904,-2.33621 -0.98643,-1.4005 -2.02116,-2.54639 -2.29939,-2.54639 -0.27821,0 -1.0784,0.81763 -1.77821,1.81695 -2.70704,3.86569 -3.78562,4.04274 -5.95961,0.97837 -0.87256,-1.22995 -1.93455,-2.23625 -2.35995,-2.23625 -0.42541,0 -1.41013,0.98516 -2.18828,2.18924 -0.77813,1.2041 -1.66363,2.3395 -1.96779,2.52311 -0.30415,0.18363 -1.28038,-0.67038 -2.1694,-1.89779 -0.88902,-1.22739 -1.99186,-2.23701 -2.45076,-2.24357 -0.45889,-0.007 -1.76023,0.87121 -2.89187,1.95063 l -2.05753,1.96258 -1.6507,-1.68304 c -0.90788,-0.92568 -1.86006,-1.68304 -2.11595,-1.68304 -0.61784,0 -0.5825,4.54424 0.0429,5.50824 z m -0.0788,3.61875 c 0.3789,0.21893 52.05542,-0.38662 138.215966,-1.61959 15.58024,-0.22295 27.90075,-0.61864 27.90075,-0.89605 0,-0.27321 -0.39509,-0.64486 -0.87795,-0.82585 -0.48288,-0.18101 -21.79474,-0.0218 -47.35972,0.35369 -25.56497,0.37556 -62.578366,0.88188 -82.251956,1.12518 -19.67359,0.24331 -35.83456,0.4694 -35.91326,0.50243 -0.32212,0.1352 -0.1129,1.12962 0.28617,1.36019 z"
       id="path21274" />
    <path
       style="opacity:0.930349;fill:#ff0000;stroke-width:0.565653"
       d="m 105.4334,138.26915 h 84.4176 v 9.97344 9.97344 l -28.75922,0.23079 c -30.36152,0.24363 -90.642006,0.27933 -121.618596,0.0721 l -18.45742,-0.12352 v -10.06313 -10.06312 z m -81.813066,8.19339 c 0.80297,1.02835 1.82951,1.86973 2.28119,1.86973 0.45167,0 1.50298,-1.00633 2.33621,-2.23625 0.83324,-1.22993 1.73237,-2.23626 1.99805,-2.23626 0.2657,0 0.90695,0.63191 1.42499,1.40423 1.60358,2.39065 3.43161,2.39785 5.92106,0.0233 l 2.16984,-2.06968 2.22158,2.81306 c 1.22188,1.54716 2.54306,2.82376 2.93595,2.83687 0.39289,0.013 1.43331,-1.10456 2.31205,-2.48365 l 1.59769,-2.50745 2.0931,1.38933 c 2.69835,1.79109 4.61612,1.78835 5.82127,-0.008 1.18841,-1.77172 1.43875,-1.75447 4.0589,0.27952 2.72754,2.11735 4.03555,2.11683 5.35475,-0.002 1.03891,-1.66877 1.05207,-1.67229 2.08342,-0.55906 1.00405,1.08378 1.00235,1.12081 -0.0524,1.1357 -0.59965,0.008 -1.73414,0.88207 -2.52108,1.94133 -0.78694,1.05927 -1.70964,1.93286 -2.05042,1.94132 -0.34079,0.008 -1.44749,-0.99091 -2.45936,-2.22086 -1.01183,-1.22992 -2.09146,-2.23623 -2.39915,-2.23623 -0.30769,0 -1.25948,1.13209 -2.11508,2.51577 -0.85559,1.38367 -1.70126,2.51578 -1.87925,2.51578 -0.17799,0 -1.08127,-1.00037 -2.00729,-2.22303 -0.92604,-1.22268 -2.06999,-2.22304 -2.54218,-2.22304 -0.47216,0 -1.61612,1.00036 -2.54215,2.22304 -0.92602,1.22266 -2.08496,2.22301 -2.57545,2.22301 -0.49048,-2e-5 -1.611,-0.88052 -2.49005,-1.95671 -0.87907,-1.07619 -2.03803,-1.95134 -2.57547,-1.94476 -0.53744,0.007 -1.72942,1.04997 -2.64884,2.31869 l -1.67169,2.30677 -1.67469,-2.03916 c -2.03144,-2.47359 -3.21605,-2.55128 -5.75097,-0.37715 l -1.93785,1.66203 -1.32961,-1.3825 c -2.17,-2.25634 -2.93283,-1.82313 -2.73387,1.55257 l 0.17301,2.93507 6.86787,0.19544 c 8.61827,0.24524 135.540606,-1.05203 149.090106,-1.52385 l 10.01564,-0.34878 0.17063,-2.26884 c 0.21145,-2.81169 -0.69458,-5.27848 -1.93875,-5.27848 -0.51588,0 -1.91724,1.06919 -3.11415,2.37601 l -2.17618,2.376 -2.21812,-2.09647 c -2.67855,-2.53163 -3.53665,-2.60395 -5.0315,-0.42402 -1.45743,2.12538 -2.54731,2.52844 -3.44793,1.27513 -0.39161,-0.54498 -1.23946,-1.61982 -1.88408,-2.38852 l -1.17205,-1.39767 -2.49636,2.37938 c -1.94855,1.85721 -2.64784,2.23142 -3.18661,1.70513 -0.91444,-0.89324 -0.87473,-1.56873 0.0922,-1.56873 0.43034,0 1.46417,-1.00631 2.29741,-2.23624 0.83323,-1.22994 1.67049,-2.23625 1.86056,-2.23625 0.19005,0 1.22555,0.75473 2.30108,1.67719 1.07553,0.92244 2.25762,1.67719 2.62688,1.67719 0.36925,0 1.61409,-0.89924 2.76632,-1.99828 l 2.09496,-1.99828 2.22159,2.8225 c 1.22188,1.55237 2.60447,2.76326 3.07241,2.69088 0.46796,-0.0724 1.45891,-1.20838 2.2021,-2.52441 l 1.35125,-2.39282 1.98016,1.14125 1.98017,1.14125 -0.176,-2.36553 c -0.16633,-2.23585 -0.28582,-2.38073 -2.17911,-2.64247 -5.06763,-0.70055 -159.739696,0.6672 -162.893666,1.44045 -1.87896,0.46066 -1.83269,3.13978 0.0969,5.61103 z m 4.40638,10.8149 c 9.99314,0 88.828566,-1.09952 124.050986,-1.73064 18.41449,-0.32997 34.18914,-0.57477 35.05478,-0.54399 1.04997,0.0373 1.5739,-0.22615 1.5739,-0.79154 0,-1.10746 -15.47085,-1.10913 -89.568526,-0.01 -30.21865,0.44841 -59.90076,0.8207 -65.96022,0.82731 -10.63156,0.0117 -11.01722,0.0512 -11.01722,1.13012 0,1.04539 0.38161,1.11815 5.8663,1.11833 z"
       id="path21276" />
    <path
       style="opacity:0.930349;fill:#ff0000;stroke-width:0.565653"
       d="m 105.4334,138.26915 h 84.4176 v 9.97344 9.97344 l -28.75922,0.23079 c -30.36152,0.24363 -90.642006,0.27933 -121.618596,0.0721 l -18.45742,-0.12352 v -10.06313 -10.06312 z m -81.813066,8.19339 c 0.80297,1.02835 1.82951,1.86973 2.28119,1.86973 0.45167,0 1.50298,-1.00633 2.33621,-2.23625 0.83324,-1.22993 1.73237,-2.23626 1.99805,-2.23626 0.2657,0 0.90695,0.63191 1.42499,1.40423 1.60358,2.39065 3.43161,2.39785 5.92106,0.0233 l 2.16984,-2.06968 2.22158,2.81306 c 1.22188,1.54716 2.54306,2.82376 2.93595,2.83687 0.39289,0.013 1.43331,-1.10456 2.31205,-2.48365 l 1.59769,-2.50745 2.0931,1.38933 c 2.69835,1.79109 4.61612,1.78835 5.82127,-0.008 1.18841,-1.77172 1.43875,-1.75447 4.0589,0.27952 2.72754,2.11735 4.03555,2.11683 5.35475,-0.002 1.03891,-1.66877 1.05207,-1.67229 2.08342,-0.55906 1.00405,1.08378 1.00235,1.12081 -0.0524,1.1357 -0.59965,0.008 -1.73414,0.88207 -2.52108,1.94133 -0.78694,1.05927 -1.70964,1.93286 -2.05042,1.94132 -0.34079,0.008 -1.44749,-0.99091 -2.45936,-2.22086 -1.01183,-1.22992 -2.09146,-2.23623 -2.39915,-2.23623 -0.30769,0 -1.25948,1.13209 -2.11508,2.51577 -0.85559,1.38367 -1.70126,2.51578 -1.87925,2.51578 -0.17799,0 -1.08127,-1.00037 -2.00729,-2.22303 -0.92604,-1.22268 -2.06999,-2.22304 -2.54218,-2.22304 -0.47216,0 -1.61612,1.00036 -2.54215,2.22304 -0.92602,1.22266 -2.08496,2.22301 -2.57545,2.22301 -0.49048,-2e-5 -1.611,-0.88052 -2.49005,-1.95671 -0.87907,-1.07619 -2.03803,-1.95134 -2.57547,-1.94476 -0.53744,0.007 -1.72942,1.04997 -2.64884,2.31869 l -1.67169,2.30677 -1.67469,-2.03916 c -2.03144,-2.47359 -3.21605,-2.55128 -5.75097,-0.37715 l -1.93785,1.66203 -1.32961,-1.3825 c -2.17,-2.25634 -2.93283,-1.82313 -2.73387,1.55257 l 0.17301,2.93507 6.86787,0.19544 c 8.61827,0.24524 135.540606,-1.05203 149.090106,-1.52385 l 10.01564,-0.34878 0.17063,-2.26884 c 0.21145,-2.81169 -0.69458,-5.27848 -1.93875,-5.27848 -0.51588,0 -1.91724,1.06919 -3.11415,2.37601 l -2.17618,2.376 -2.21812,-2.09647 c -2.67855,-2.53163 -3.53665,-2.60395 -5.0315,-0.42402 -1.45743,2.12538 -2.54731,2.52844 -3.44793,1.27513 -0.39161,-0.54498 -1.23946,-1.61982 -1.88408,-2.38852 l -1.17205,-1.39767 -2.49636,2.37938 c -1.94855,1.85721 -2.64784,2.23142 -3.18661,1.70513 -0.91444,-0.89324 -0.87473,-1.56873 0.0922,-1.56873 0.43034,0 1.46417,-1.00631 2.29741,-2.23624 0.83323,-1.22994 1.67049,-2.23625 1.86056,-2.23625 0.19005,0 1.22555,0.75473 2.30108,1.67719 1.07553,0.92244 2.25762,1.67719 2.62688,1.67719 0.36925,0 1.61409,-0.89924 2.76632,-1.99828 l 2.09496,-1.99828 2.22159,2.8225 c 1.22188,1.55237 2.60447,2.76326 3.07241,2.69088 0.46796,-0.0724 1.45891,-1.20838 2.2021,-2.52441 l 1.35125,-2.39282 1.98016,1.14125 1.98017,1.14125 -0.176,-2.36553 c -0.16633,-2.23585 -0.28582,-2.38073 -2.17911,-2.64247 -5.06763,-0.70055 -159.739696,0.6672 -162.893666,1.44045 -1.87896,0.46066 -1.83269,3.13978 0.0969,5.61103 z m 4.40638,10.8149 c 9.99314,0 88.828566,-1.09952 124.050986,-1.73064 18.41449,-0.32997 34.18914,-0.57477 35.05478,-0.54399 1.04997,0.0373 1.5739,-0.22615 1.5739,-0.79154 0,-1.10746 -15.47085,-1.10913 -89.568526,-0.01 -30.21865,0.44841 -59.90076,0.8207 -65.96022,0.82731 -10.63156,0.0117 -11.01722,0.0512 -11.01722,1.13012 0,1.04539 0.38161,1.11815 5.8663,1.11833 z"
       id="path21278" />
    <path
       style="opacity:0.930349;fill:#ffffff;stroke-width:0.565653"
       d="m 105.4334,138.21032 h 84.41762 v 10.06312 10.06309 H 105.4334 21.015764 v -10.06309 -10.06312 z m -81.764346,7.93658 c 0.82975,1.16959 1.71517,2.12654 1.96758,2.12654 0.25239,0 1.2912,-1.1321 2.30845,-2.51579 1.01727,-1.38367 2.0329,-2.51578 2.25694,-2.51578 0.22407,0 1.09492,0.88053 1.93524,1.95673 0.84033,1.07619 1.92304,1.95671 2.40605,1.95671 0.48302,0 1.67626,-0.88052 2.65163,-1.95671 0.97541,-1.0762 2.11281,-1.95673 2.52757,-1.95673 0.41478,0 1.67928,1.25789 2.81,2.79532 1.13074,1.53741 2.28492,2.79531 2.56486,2.79531 0.27994,0 1.16637,-1.2672 1.96983,-2.816 1.54754,-2.98319 1.53283,-2.9809 4.62186,-0.71776 2.34168,1.71561 3.34085,1.63676 4.81072,-0.37968 0.67242,-0.92244 1.46187,-1.67719 1.7543,-1.67719 0.29244,0 1.52946,0.88053 2.74893,1.95673 1.21946,1.07619 2.5861,1.95671 3.03692,1.95671 0.45085,0 1.34698,-0.90125 1.99143,-2.00275 l 1.17172,-2.00276 1.85048,2.28228 c 2.11574,2.60944 2.72574,2.79192 3.4247,1.02441 0.27359,-0.69184 1.11942,-1.82263 1.87961,-2.51287 l 1.38215,-1.25496 1.9386,1.95379 c 2.34741,2.36578 3.69996,2.47143 4.80942,0.37567 1.55071,-2.92925 2.30316,-3.1252 4.13189,-1.076 0.90408,1.01308 2.04795,2.44501 2.54193,3.18207 1.09687,1.63659 1.88215,1.24925 3.41408,-1.684 0.63146,-1.20907 1.41407,-2.19832 1.73914,-2.19832 0.3251,0 1.5386,0.62895 2.69669,1.39767 2.75389,1.82795 3.906196,1.76336 4.987686,-0.27954 0.48832,-0.92245 1.23132,-1.67719 1.65109,-1.67719 0.41976,0 1.94695,1.01785 3.39376,2.26186 l 2.63057,2.26186 1.56782,-2.31424 c 1.46244,-2.1587 1.61957,-2.24496 2.33779,-1.2835 0.42348,0.56691 1.31858,1.648 1.98907,2.4024 1.15997,1.30513 1.24908,1.32102 1.83702,0.3276 0.33985,-0.57425 1.31721,-1.82044 2.1719,-2.76932 l 1.55399,-1.72525 1.99385,2.09649 c 1.09662,1.15305 2.22228,2.09648 2.50146,2.09648 0.2792,0 1.45671,-1.03271 2.61669,-2.29493 2.39385,-2.60482 2.86358,-2.48925 5.31777,1.30837 0.74807,1.15757 1.738,2.10468 2.19982,2.10468 0.46181,0 1.39166,-1.0692 2.06629,-2.37601 0.67464,-1.30681 1.31395,-2.47127 1.42068,-2.5877 0.10673,-0.11642 1.44973,0.57541 2.98446,1.53743 1.53472,0.962 3.08316,1.74909 3.44099,1.74909 0.35783,0 1.05015,-0.75472 1.53847,-1.67718 1.14789,-2.16832 2.07711,-2.11409 4.78939,0.27954 1.21948,1.07618 2.51663,1.95671 2.88258,1.95671 0.36593,0 1.21445,-0.90913 1.88561,-2.02029 l 1.22027,-2.02029 1.95566,2.29983 c 1.99043,2.34067 3.00539,2.87422 3.00539,1.57986 0,-0.39596 0.75157,-1.59097 1.67016,-2.65554 l 1.67017,-1.9356 2.21713,2.09649 c 1.21944,1.15305 2.48512,2.09647 2.81263,2.09647 0.32753,0 1.43373,-1.01888 2.45822,-2.26419 2.1296,-2.58861 2.43112,-2.50093 5.27251,1.53322 0.93289,1.32449 1.93701,2.40816 2.23137,2.40816 0.29434,0 1.1931,-1.26826 1.99722,-2.81835 l 1.46206,-2.81836 1.64062,1.14117 c 0.90236,0.62764 1.79405,1.14117 1.98155,1.14117 0.74008,0 0.28735,-3.26087 -0.54661,-3.93694 -0.7177,-0.58185 -10.9279,-0.63931 -53.36911,-0.30037 -74.927236,0.59837 -110.750966,1.12075 -111.573956,1.62699 -1.14598,0.70492 -0.83228,2.665 0.79324,4.95628 z m -1.00095,7.07507 c 0.40749,0.62817 6.70417,0.69423 37.33531,0.39175 20.26484,-0.20011 47.790806,-0.60053 61.168866,-0.88982 13.37804,-0.2893 33.72411,-0.53232 45.2135,-0.54007 11.48938,-0.008 21.2502,-0.23701 21.69072,-0.50946 1.04663,-0.64732 0.4245,-5.53097 -0.85888,-6.74197 -0.812,-0.76622 -0.99846,-0.7113 -1.85325,0.54573 -1.46757,2.15817 -3.3893,3.91342 -4.28457,3.91342 -0.44589,0 -1.42339,-0.87657 -2.17223,-1.94796 -1.78498,-2.55384 -2.86399,-2.91597 -3.93694,-1.32127 -0.47217,0.70176 -1.40211,1.89773 -2.06657,2.6577 l -1.20807,1.38177 -1.58651,-2.34183 c -0.87258,-1.28801 -2.02,-2.34183 -2.54981,-2.34183 -0.5298,0 -1.81187,0.93629 -2.84904,2.08065 l -1.88577,2.08065 -1.22423,-1.44111 c -0.67333,-0.79261 -1.53548,-1.9176 -1.91587,-2.49995 -0.64556,-0.98831 -0.84616,-0.89126 -3.01128,1.45695 l -2.31965,2.51577 -2.50507,-2.75995 -2.50505,-2.75995 -1.50426,2.89971 c -0.82734,1.59485 -1.74146,2.89971 -2.03137,2.89971 -0.28991,0 -1.35942,-1.13209 -2.37667,-2.51577 -1.01725,-1.38367 -2.00891,-2.51578 -2.20366,-2.51578 -0.19477,0 -1.32287,1.13211 -2.50692,2.51578 -1.18405,1.38368 -2.50961,2.51577 -2.94569,2.51577 -0.43608,0 -1.51783,-1.00093 -2.40389,-2.2243 -0.88605,-1.22337 -1.93538,-2.22967 -2.33185,-2.23625 -0.39646,-0.007 -1.42665,0.98482 -2.28928,2.2031 -0.86267,1.21827 -1.85718,2.22457 -2.2101,2.23624 -0.35289,0.0117 -1.25428,-0.85759 -2.00312,-1.93168 -0.74882,-1.07409 -1.76167,-1.95461 -2.2508,-1.95671 -0.4891,-0.002 -1.76297,0.8767 -2.8308,1.95289 -1.06783,1.07621 -2.08415,1.95501 -2.25847,1.95289 -0.17435,-0.002 -0.92966,-0.88262 -1.67847,-1.95671 -0.74884,-1.07409 -1.69792,-1.95289 -2.1091,-1.95289 -0.41117,0 -1.47255,1.00093 -2.35861,2.2243 -0.88604,1.22337 -1.79599,2.22969 -2.02211,2.23625 -0.2261,0.007 -1.25628,-1.11035 -2.28928,-2.48203 -2.1928,-2.91175 -2.92669,-3.10331 -3.83168,-1.00016 -0.36385,0.84557 -1.13108,2.13794 -1.70494,2.87191 l -1.0434,1.33451 -1.825906,-2.5924 c -1.00427,-1.42581 -2.11078,-2.59238 -2.45894,-2.59238 -0.34815,0 -1.5148,1.00631 -2.59256,2.23625 -1.07775,1.22993 -2.31366,2.23624 -2.74646,2.23624 -0.43279,0 -1.61479,-1.00631 -2.62664,-2.23624 -1.01185,-1.22994 -2.12043,-2.23625 -2.4635,-2.23625 -0.34309,0 -1.36147,1.19296 -2.26305,2.65102 l -1.63926,2.65102 -2.15444,-2.37149 c -1.18493,-1.30431 -2.39084,-2.37149 -2.6798,-2.37149 -0.28895,0 -1.39906,0.88053 -2.46687,1.95671 -1.06784,1.07619 -2.1449,1.95672 -2.39346,1.95672 -0.24855,0 -1.13366,-1.00631 -1.96691,-2.23624 -0.83325,-1.22994 -1.72594,-2.23625 -1.98376,-2.23625 -0.25783,0 -1.29463,1.17254 -2.30403,2.60564 l -1.83525,2.60565 -1.82722,-1.94764 c -1.00497,-1.0712 -2.138,-2.43242 -2.51788,-3.02493 -0.37986,-0.59252 -0.80897,-0.82574 -0.95358,-0.51826 -1.21995,2.59397 -2.99948,5.03157 -3.67323,5.03157 -0.45011,0 -1.55351,-1.06921 -2.45199,-2.37602 -0.89847,-1.3068 -1.85311,-2.37601 -2.12143,-2.37601 -0.26829,0 -1.02844,0.85449 -1.68919,1.89887 -0.66079,1.04437 -1.83953,2.30729 -2.61944,2.80647 -1.38998,0.88963 -1.44924,0.86367 -2.99463,-1.31188 -1.99884,-2.81393 -3.04929,-3.24919 -4.15203,-1.72036 -0.47216,0.6546 -1.38946,1.83696 -2.03843,2.62747 l -1.17993,1.4373 -1.87286,-2.30988 c -1.03005,-1.27043 -2.14272,-2.30986 -2.47257,-2.30986 -0.32987,0 -1.48303,0.91485 -2.56261,2.03301 l -1.96288,2.03302 -1.86242,-1.76332 c -1.02434,-0.96982 -2.03867,-1.59118 -2.25406,-1.38078 -0.55404,0.5412 -0.47057,4.2404 0.11608,5.14472 z m 36.12098,3.43219 c 19.67359,-0.27899 56.760106,-0.78925 82.414496,-1.13393 25.65436,-0.34469 46.86547,-0.83538 47.13579,-1.09042 1.11311,-1.05026 -8.71093,-1.1768 -45.41882,-0.5851 -21.24749,0.34249 -56.847626,0.84616 -79.111426,1.11924 -22.26378,0.2731 -40.76511,0.66889 -41.11404,0.87955 -0.34892,0.21064 -0.41882,0.59334 -0.1553,0.85045 0.2635,0.25711 16.57569,0.23921 36.2493,-0.0398 z"
       id="path21280" />
    <path
       style="opacity:0.930349;fill:#ffffff;stroke-width:0.565653"
       d="m 105.4334,138.21032 h 84.41762 v 10.06312 10.06309 H 105.4334 21.015764 v -10.06309 -10.06312 z m -81.791306,8.34303 c 0.81494,0.94604 1.81007,1.72009 2.21146,1.72009 0.40137,0 1.44369,-1.00632 2.31626,-2.23625 0.87256,-1.22993 1.79145,-2.23625 2.04199,-2.23625 0.25052,0 1.00567,0.75474 1.6781,1.67719 1.56935,2.15288 3.32554,2.15288 5.43706,0 0.90473,-0.92245 1.95303,-1.67719 2.32953,-1.67719 0.37652,0 1.55168,1.12433 2.61146,2.4985 1.05979,1.37417 2.24836,2.50625 2.64125,2.51577 0.39289,0.01 1.43331,-1.11108 2.31205,-2.49016 l 1.59769,-2.50746 2.0931,1.38933 c 2.69835,1.79109 4.61612,1.78835 5.82127,-0.008 1.18841,-1.77172 1.43875,-1.75447 4.0589,0.27952 2.72754,2.11735 4.03555,2.11683 5.35475,-0.002 1.00437,-1.61327 1.08285,-1.63905 1.99472,-0.65479 1.21674,1.31332 1.20154,1.7298 -0.0524,1.43475 -0.67652,-0.15916 -1.54775,0.52457 -2.68447,2.10679 l -1.68292,2.34244 -2.35431,-2.6135 c -1.29485,-1.43742 -2.49618,-2.61351 -2.66959,-2.61351 -0.17339,0 -1.04784,1.13211 -1.9432,2.5158 -0.89537,1.38366 -1.81743,2.51577 -2.04902,2.51577 -0.23159,0 -1.14603,-1.00095 -2.03208,-2.22432 -0.88606,-1.22337 -1.99732,-2.22657 -2.46949,-2.22932 -0.47216,-0.003 -1.43246,0.86066 -2.13398,1.91871 -2.14886,3.24095 -3.14615,3.39972 -5.25489,0.83647 -1.00223,-1.21823 -2.18428,-2.21498 -2.62678,-2.21498 -0.4425,0 -1.65265,1.03092 -2.68925,2.29092 l -1.88469,2.2909 -1.77994,-2.01138 c -0.97898,-1.10626 -2.1267,-2.01138 -2.55054,-2.01138 -0.42381,0 -1.60461,0.78963 -2.62397,1.75476 l -1.85339,1.75475 -1.79477,-1.47522 c -0.98714,-0.81138 -2.04604,-1.47523 -2.35312,-1.47523 -0.31394,0 -0.4826,1.28467 -0.38533,2.93508 l 0.173,2.93507 13.44958,0.19049 c 13.5081,0.19134 104.909106,-0.81867 135.926686,-1.50201 l 16.59735,-0.36567 0.18203,-2.16839 c 0.20978,-2.49903 -0.82854,-5.37893 -1.9393,-5.37893 -0.41795,0 -1.43975,0.87066 -2.27066,1.93479 -2.26382,2.89926 -3.48889,3.04076 -5.51706,0.63726 -0.93424,-1.10715 -2.04455,-2.01298 -2.46736,-2.01298 -0.4228,0 -1.61088,1.03867 -2.64021,2.30819 l -1.87148,2.30818 -1.66605,-2.02866 c -2.0413,-2.48556 -3.4516,-2.55757 -5.62286,-0.28709 -1.37527,1.43811 -1.81416,1.621 -2.51891,1.04966 -1.06676,-0.86482 -1.10108,-1.67311 -0.071,-1.67311 0.43034,0 1.46418,-1.00631 2.29741,-2.23624 0.83325,-1.22994 1.67049,-2.23625 1.86056,-2.23625 0.19005,0 1.22555,0.75473 2.30108,1.67719 1.07553,0.92245 2.25762,1.67717 2.62688,1.67717 0.36925,0 1.62255,-0.9073 2.78515,-2.01623 l 2.11377,-2.01623 2.20278,2.83223 c 1.21151,1.55773 2.58564,2.77671 3.0536,2.70884 0.46794,-0.0678 1.45993,-1.20197 2.20436,-2.52024 1.31624,-2.33081 1.39083,-2.373 2.70605,-1.53121 2.10307,1.34605 2.62482,1.08165 2.4289,-1.23082 l -0.17764,-2.09647 -30.04695,-0.16958 c -32.31402,-0.18236 -130.529496,0.8258 -134.066616,1.37618 -1.97674,0.30758 -2.14622,0.47944 -2.14622,2.17632 0,1.16642 0.54361,2.47345 1.48168,3.56245 z m 8.39089,10.66077 c 13.62483,-0.006 121.321456,-1.53807 140.791416,-2.00297 14.61617,-0.34899 17.43801,-0.6442 14.97667,-1.56682 -1.42376,-0.53369 -23.89345,-0.40941 -88.377066,0.48881 -69.81675,0.97253 -77.26359,1.19474 -77.26359,2.30554 0,0.63698 1.80763,0.77895 9.87257,0.77544 z"
       id="path21282" />
    <path
       style="opacity:0.930349;fill:#ffffff;stroke-width:0.0999943"
       d="m 91.242984,147.54427 c 0.34861,-0.33921 0.75991,-0.93941 1.27368,-1.85868 0.41734,-0.74675 0.97646,-1.59732 1.24249,-1.89018 l 0.48369,-0.53246 0.40062,0.13808 c 0.47687,0.16435 1.01644,0.46438 2.37541,1.32085 1.917,1.20817 2.89955,1.49875 3.733816,1.10425 0.47459,-0.22442 0.82984,-0.63615 1.48256,-1.71823 0.19148,-0.31744 0.54588,-0.75579 0.78756,-0.97411 0.37362,-0.3375 0.48563,-0.38789 0.74811,-0.33661 0.63841,0.12472 1.86358,1.02768 4.80769,3.54327 0.55664,0.47562 1.05167,0.86375 1.10008,0.86252 0.0484,-0.002 0.62517,-0.79509 1.2817,-1.76416 1.26523,-1.86755 1.75243,-2.43058 2.01734,-2.33129 0.0876,0.0328 0.65728,0.66804 1.266,1.4116 1.37295,1.67705 2.10082,2.4599 2.36257,2.54106 0.26917,0.0834 0.42611,-0.0594 1.03147,-0.93921 0.81915,-1.19046 3.29513,-4.10429 3.48754,-4.10429 0.0407,0 0.69505,0.64644 1.45411,1.43653 1.32524,1.37941 2.15689,2.14169 2.73499,2.50685 0.25412,0.16053 0.29091,0.16084 0.60703,0.005 0.18508,-0.0912 1.11051,-0.93635 2.05648,-1.87803 1.86069,-1.85226 2.32993,-2.17599 2.91605,-2.01178 0.49175,0.13775 1.11772,0.81593 2.20762,2.39175 0.55616,0.8041 1.15603,1.62336 1.33306,1.82058 0.42501,0.47346 1.06099,0.91763 1.31394,0.91763 0.57819,0 1.38618,-1.01506 2.59605,-3.26135 0.45377,-0.84253 0.86811,-1.57435 0.92072,-1.6263 0.1315,-0.12978 0.89721,0.25045 2.91852,1.44928 1.84823,1.09617 3.16828,1.75828 3.50547,1.75828 0.30289,0 1.02533,-0.78015 1.55674,-1.68112 0.73179,-1.24066 1.27474,-1.66626 1.96444,-1.53987 0.47815,0.0876 1.45214,0.72443 2.64429,1.72891 0.55645,0.46885 1.17109,0.97079 1.36584,1.11544 0.51518,0.3826 1.53539,0.96961 1.68518,0.96961 0.39422,0 1.39675,-1.196 2.38017,-2.83952 0.33376,-0.55776 0.64408,-1.03662 0.68963,-1.06412 0.0455,-0.0275 0.3909,0.31702 0.76747,0.7656 1.38109,1.64507 2.4312,2.78551 2.89483,3.14378 0.48713,0.37645 0.51709,0.48841 0.13069,0.48841 -0.12122,0 -0.30114,0.0872 -0.39981,0.19367 -0.27131,0.29284 -0.12069,0.66802 0.50748,1.26405 0.85782,0.81393 1.18222,0.7159 2.80225,-0.84676 0.48689,-0.46964 0.88527,-0.78627 0.88527,-0.70359 0,0.0827 -0.20839,0.34857 -0.46307,0.59091 -0.25469,0.24233 -0.85392,0.87421 -1.33164,1.40417 -0.47772,0.52999 -0.90427,0.96359 -0.94791,0.96359 -0.10795,0 -2.34888,-2.7434 -2.96557,-3.63054 -0.2734,-0.39328 -0.57456,-0.73909 -0.66924,-0.76843 -0.24652,-0.0764 -0.67359,0.10553 -0.80329,0.34225 -0.061,0.11131 -0.16888,0.20239 -0.23976,0.20239 -0.10576,0 -3.06107,3.08495 -3.61505,3.77365 -0.15322,0.19047 -0.25418,0.0937 -2.61162,-2.50427 -1.34873,-1.48632 -2.49215,-2.71634 -2.54093,-2.73337 -0.0488,-0.017 -0.49868,0.76125 -0.99976,1.7295 -1.33313,2.57611 -2.24555,3.98413 -2.58173,3.98413 -0.19985,0 -1.35593,-1.22693 -2.23489,-2.37188 -1.11194,-1.44845 -1.97876,-2.46647 -2.19753,-2.58084 -0.23836,-0.1246 -0.92392,0.50248 -2.64085,2.41558 -1.33451,1.48701 -2.55837,2.53714 -2.95683,2.53714 -0.32182,0 -1.48029,-1.06597 -2.24257,-2.06351 -0.74714,-0.97772 -1.89233,-2.138 -2.25504,-2.28476 -0.30071,-0.12168 -0.7087,-0.003 -0.7087,0.20677 0,0.0556 -0.0398,0.0772 -0.0884,0.0479 -0.12878,-0.0778 -0.97745,0.83397 -1.83262,1.96883 -0.78438,1.04091 -1.83665,2.12482 -2.06278,2.12482 -0.24441,0 -0.91681,-0.55401 -1.37844,-1.13576 -1.6675,-2.10141 -2.32572,-2.71857 -2.8995,-2.71857 -0.29292,0 -0.84423,0.26252 -1.01775,0.48462 -0.0678,0.0868 -0.12468,0.12139 -0.12647,0.0769 -0.006,-0.15797 -0.67964,0.39369 -2.0677,1.69398 -0.77379,0.72485 -1.52031,1.39053 -1.65895,1.47926 -0.24784,0.15864 -0.2594,0.1534 -0.69214,-0.3135 -0.24207,-0.26115 -0.69613,-0.82972 -1.00904,-1.26345 -0.73608,-1.02031 -1.57642,-1.90337 -1.95832,-2.05788 -0.16626,-0.0673 -0.41151,-0.0956 -0.545,-0.0628 -0.41557,0.10189 -1.21541,0.89707 -2.32341,2.3099 -0.5862,0.74749 -1.25185,1.53556 -1.47924,1.75126 l -0.41337,0.39217 -0.60993,-0.6261 c -0.33547,-0.34439 -0.8897,-0.98782 -1.23162,-1.42989 -1.20783,-1.56158 -1.82316,-2.24905 -2.35947,-2.63608 -0.29829,-0.21524 -0.57942,-0.39134 -0.62476,-0.39134 -0.0453,0 -0.25452,0.13854 -0.46481,0.30787 -0.27218,0.21916 -0.5501,0.63922 -0.96447,1.45772 -0.67593,1.33519 -1.11179,2.02812 -1.97061,3.13296 l -0.61967,0.79715 -1.041286,-1.47742 c -1.33358,-1.89214 -1.53913,-2.15186 -2.34098,-2.95821 -0.41866,-0.42098 -0.74469,-0.6671 -0.88373,-0.6671 -0.3715,0 -1.42094,0.86242 -2.54069,2.0879 -0.96808,1.05951 -2.33051,2.26058 -2.56428,2.26058 -0.0521,0 -0.0857,-0.51033 -0.0766,-1.16125 l 0.0163,-1.16123 z"
       id="path21284" />
    <path
       style="opacity:0.930349;fill:#ffffff;stroke-width:0.0999943"
       d="m 92.440774,153.43109 c 5.55288,-0.002 61.310436,-0.75528 70.113126,-0.94838 l 3.00992,-0.066 v 0.45796 0.45794 h -1.64407 c -5.3591,0.002 -60.84559,0.67617 -69.809606,0.84832 l -3.4146,0.0656 v -0.40782 -0.40783 h 1.74523 z"
       id="path21286" />
    <path
       style="opacity:0.930349;fill:#ffffff;stroke-width:0.141413"
       d="m 68.725094,146.32581 c 0.32779,0 0.45169,-0.45879 0.16985,-0.62895 -0.0787,-0.0475 -0.14308,-0.16055 -0.14308,-0.25121 0,-0.0907 0.4813,0.34611 1.06955,0.97059 0.60956,0.64708 1.23216,1.17528 1.44764,1.22811 0.47986,0.11764 0.85981,-0.19734 1.21932,-1.01081 0.40931,-0.92616 1.05456,-1.76597 2.16833,-2.82206 l 1.0185,-0.96577 1.65346,1.56803 c 1.77518,1.68344 2.45627,2.10807 3.39469,2.11642 0.77844,0.007 1.13803,-0.32613 2.13154,-1.97416 1.11336,-1.84683 1.63049,-2.16451 2.59163,-1.59203 0.46402,0.27637 2.09916,2.11742 3.1106,3.50231 0.83663,1.14551 1.38947,1.67648 1.74555,1.67648 0.29917,0 0.32161,0.0687 0.36541,1.11844 0.0434,1.03975 0.0265,1.11865 -0.2395,1.12121 -0.18276,0.002 -1.0358,-0.75128 -2.36084,-2.08404 -1.14106,-1.14772 -2.21265,-2.15403 -2.3813,-2.23623 -0.24577,-0.1198 -0.38076,-0.0925 -0.68005,0.13745 -0.47104,0.36194 -1.37801,1.60536 -2.51327,3.44565 -0.48608,0.78793 -0.93097,1.43259 -0.98865,1.43259 -0.0577,0 -0.6005,-0.55571 -1.20625,-1.23491 -1.25549,-1.40771 -2.88722,-2.9773 -3.33865,-3.21154 -0.4008,-0.20795 -1.04309,0.23696 -3.03088,2.09948 -1.64607,1.54233 -2.03954,1.78987 -2.39154,1.5045 -0.12533,-0.10159 -0.71787,-0.84986 -1.31678,-1.66279 -0.59888,-0.81292 -1.25073,-1.651 -1.44853,-1.8624 -0.35692,-0.38141 -0.35727,-0.38436 -0.0468,-0.38436 z"
       id="path21288" />
  </g>
</svg>
