<?xml version="1.0" encoding="UTF-8" standalone="no"?>
<svg
   xmlns:dc="http://purl.org/dc/elements/1.1/"
   xmlns:cc="http://creativecommons.org/ns#"
   xmlns:rdf="http://www.w3.org/1999/02/22-rdf-syntax-ns#"
   xmlns:svg="http://www.w3.org/2000/svg"
   xmlns="http://www.w3.org/2000/svg"
   xmlns:sodipodi="http://sodipodi.sourceforge.net/DTD/sodipodi-0.dtd"
   xmlns:inkscape="http://www.inkscape.org/namespaces/inkscape"
   width="20.949974mm"
   height="169.82001mm"
   viewBox="0 0 20.949974 169.82001"
   version="1.1"
   id="svg23165"
   inkscape:version="1.0 (b51213c273, 2020-08-10)">
  <defs
     id="defs23159" />
  <sodipodi:namedview
     id="base"
     pagecolor="#ffffff"
     bordercolor="#666666"
     borderopacity="1.0"
     inkscape:pageopacity="0.0"
     inkscape:pageshadow="2"
     inkscape:zoom="0.35"
     inkscape:cx="96.728229"
     inkscape:cy="314.79721"
     inkscape:document-units="mm"
     inkscape:current-layer="layer1"
     inkscape:document-rotation="0"
     showgrid="false"
     inkscape:snap-global="false"
     fit-margin-top="0"
     fit-margin-left="0"
     fit-margin-right="0"
     fit-margin-bottom="0"
     showborder="false"
     inkscape:window-width="1318"
     inkscape:window-height="704"
     inkscape:window-x="48"
     inkscape:window-y="27"
     inkscape:window-maximized="1" />
  <metadata
     id="metadata23162">
    <rdf:RDF>
      <cc:Work
         rdf:about="">
        <dc:format>image/svg+xml</dc:format>
        <dc:type
           rdf:resource="http://purl.org/dc/dcmitype/StillImage" />
        <dc:title></dc:title>
      </cc:Work>
    </rdf:RDF>
  </metadata>
  <g
     inkscape:label="Layer 1"
     inkscape:groupmode="layer"
     id="layer1"
     transform="translate(-80.240656,-40.783649)">
    <path
       id="path3850"
       style="fill:#ff0000;stroke-width:0.292364"
       d="m 90.723495,40.783649 c -4.992991,0.002 -9.988349,0.0236 -10.049305,0.0236 -0.384445,0 -0.433534,9.63029 -0.433534,84.898111 v 84.89829 h 3.322919 16.470995 0.72251 v -84.8982 -84.588961 c 0.0152,-0.10526 0.0221,-0.20238 0.002,-0.23536 0,0 -0.002,0 -0.002,0 v -0.0732 h -1.708191 -0.875977 c -1.926285,-0.0188 -4.671632,-0.0246 -7.449856,-0.0236 z m 6.493027,2.40792 0.03364,0.9412 c 0.01065,0.2984 -0.110704,4.83159 -0.05685,10.28192 0.05386,5.45034 0.158812,17.63035 0.234102,27.06675 0.143498,18.08004 0.357721,30.564511 0.570778,33.278961 0.07034,0.89483 0.194564,11.20105 0.27648,22.90275 0.08183,11.70169 0.223875,22.21784 0.31568,23.3692 0.09169,1.15135 0.220968,11.14524 0.287401,22.20864 0.0663,11.06337 0.19098,20.9139 0.276125,21.89009 0.08511,0.97618 0.08063,2.14092 -0.01099,2.58833 -0.17837,0.87323 -0.820295,1.09392 -1.089828,0.3747 -0.09012,-0.24138 -0.165439,-4.33471 -0.165439,-9.09628 0,-7.45673 -0.104145,-16.64415 -0.46053,-40.90096 -0.04062,-2.76585 -0.107137,-12.54981 -0.148754,-21.74219 -0.04278,-9.55035 -0.192941,-17.0937 -0.350469,-17.6008 -0.158643,-0.5107 -0.316306,-8.92447 -0.370736,-19.819461 -0.05249,-10.41259 -0.185504,-21.72739 -0.296123,-25.14403 -0.240035,-7.42128 -0.228017,-6.65836 -0.142821,-9.0223 0.04226,-1.05755 0.0522,-6.8814 0.0311,-12.94183 l 0.002,-8.67049 c 0,-0.002 0.166419,-0.3212 0.515062,-0.32253 0.259661,-0.0114 0.44104,0.18091 0.550137,0.35833 z m -3.385024,-0.10327 0.204588,0.75101 c 0.06745,1.66873 -0.06968,4.16359 0.04316,5.54653 0.112563,1.38293 0.11804,3.01357 0.01217,3.62369 -0.106022,0.61012 -0.08682,1.67503 0.04272,2.36648 0.129399,0.69147 0.219328,3.52023 0.201444,6.28607 -0.01851,2.76585 0.01369,7.82424 0.06997,11.24087 0.101694,6.07821 0.113696,15.84139 0.02306,18.48825 -0.02497,0.73216 0.02727,3.39441 0.116789,5.91622 0.177102,4.995401 0.312452,14.199341 0.227205,15.382241 -0.02941,0.40676 0.0025,1.40517 0.07103,2.21865 0.120896,1.43429 0.167145,5.15212 0.08298,6.65576 -0.02275,0.40675 0.04644,1.13883 0.153386,1.62692 0.235133,1.0691 0.273792,11.79147 0.04691,12.94021 -0.08817,0.44651 -0.04201,2.11047 0.102641,3.69766 0.144072,1.5872 0.173535,3.41824 0.0643,4.06904 -0.109554,0.65078 -0.09617,1.76697 0.02951,2.48039 0.252883,1.4362 0.340682,9.66408 0.137852,12.90186 -0.07122,1.13888 -0.03205,3.0025 0.08734,4.14138 0.119325,1.13887 0.101627,2.30055 -0.03956,2.58153 -0.152558,0.30519 -0.13038,1.31462 0.05571,2.50723 0.367339,2.35086 0.398054,11.96977 0.04272,13.2516 -0.13557,0.48809 -0.145357,1.28683 -0.02209,1.77491 0.202441,0.80147 0.564624,10.47792 0.587715,15.67807 0.01099,2.55614 -0.260066,9.05144 -0.383042,9.17452 -0.175683,0.17608 -5.126025,0.2635 -5.292123,0.0935 -0.0929,-0.0951 0.638275,-0.92053 1.62477,-1.83439 1.659828,-1.53771 1.769315,-1.7156 1.470318,-2.38739 -0.177542,-0.39922 -1.174061,-1.41065 -2.21431,-2.24753 -2.015352,-1.62131 -2.335224,-2.38999 -1.241203,-2.98162 1.451893,-0.78509 3.973094,-2.99113 3.973094,-3.47633 0,-0.8095 -0.950929,-1.66183 -2.98687,-2.67722 -2.647388,-1.32034 -2.758853,-2.05529 -0.499848,-3.29452 0.566991,-0.31096 1.607494,-1.10663 2.312505,-1.76821 l 1.281654,-1.20286 -0.528044,-0.94639 c -0.835222,-1.49691 -1.927147,-2.57196 -3.387577,-3.33485 -0.743637,-0.38849 -1.439401,-0.85038 -1.545355,-1.02643 -0.225752,-0.37396 0.619646,-1.4186 1.452671,-1.79504 0.651781,-0.29452 1.660336,-0.91979 1.878278,-1.16432 0.07946,-0.0892 0.567109,-0.46432 1.083625,-0.83362 0.51638,-0.36931 0.938961,-0.86119 0.938961,-1.09314 0,-0.60462 -2.073399,-2.05753 -4.064206,-2.84775 -2.076747,-0.8244 -2.338588,-1.31031 -1.011818,-1.87776 1.321092,-0.5651 4.498181,-3.60885 4.498181,-4.30941 0,-0.36667 -0.61013,-0.94043 -1.775113,-1.66904 -0.976251,-0.61067 -2.109929,-1.39456 -2.519003,-1.742 -0.668482,-0.56775 -0.70087,-0.68466 -0.319806,-1.15511 0.233359,-0.28788 0.814143,-0.69245 1.290901,-0.89909 1.046538,-0.45355 3.03415,-2.27951 3.03415,-2.78739 0,-0.40911 -1.640964,-2.08839 -3.263434,-3.33968 -0.589119,-0.45435 -1.070525,-1.0534 -1.070525,-1.33119 0,-0.28036 0.610924,-0.89986 1.372581,-1.39244 4.150804,-2.68477 4.222697,-3.65646 0.415362,-5.61261 -2.704608,-1.3895 -2.768369,-1.95203 -0.39692,-3.49868 0.924204,-0.60279 2.057188,-1.49851 2.517684,-1.99052 l 0.8372,-0.89462 -0.528839,-1.00522 c -0.700886,-1.3324 -1.922007,-2.49997 -3.424342,-3.27432 -1.938845,-0.99932 -1.723184,-1.68728 1.085028,-3.46077 3.399477,-2.14692 3.400525,-2.14865 2.060839,-3.34719 -0.614659,-0.54994 -2.012477,-1.35941 -3.106194,-1.7987 -1.093801,-0.4393 -1.988609,-0.96466 -1.988609,-1.16754 0,-0.20289 0.564202,-0.70747 1.253965,-1.12131 1.698623,-1.01899 3.847989,-3.02464 4.03782,-3.76767 0.127928,-0.50128 -0.268806,-0.88672 -2.279577,-2.21462 -1.339009,-0.88426 -2.43445,-1.79869 -2.43445,-2.03202 0,-0.23333 0.73243,-0.93139 1.627576,-1.55126 0.894961,-0.61986 1.877974,-1.36801 2.184441,-1.66251 0.550628,-0.52861 0.550341,-0.54745 -0.02385,-1.47901 -0.320025,-0.51899 -1.270548,-1.4825 -2.112464,-2.1412 -2.1577,-1.68823 -2.15486,-2.32633 0.0164,-3.76266 0.92679,-0.61306 1.989691,-1.44664 2.362134,-1.85245 0.675227,-0.73585 0.675633,-0.73992 0.117753,-1.50092 -0.307736,-0.41969 -1.469676,-1.2618 -2.582258,-1.87132 -2.55374,-1.39919 -2.692133,-1.9338 -0.811252,-3.134091 1.844199,-1.17686 3.556413,-2.77013 3.556413,-3.30919 0,-0.4095 -0.721662,-1.59686 -1.729506,-2.84596 -0.240746,-0.29821 -1.061346,-0.86937 -1.823847,-1.26922 -0.762367,-0.39987 -1.467868,-0.94455 -1.567297,-1.21037 -0.198452,-0.52933 -0.219395,-0.51094 3.170227,-2.77353 1.231635,-0.82218 2.23948,-1.66917 2.23948,-1.88214 0,-0.58247 -1.635757,-1.74107 -3.893595,-2.75797 -1.108474,-0.49916 -2.054535,-1.02964 -2.103573,-1.1788 -0.04855,-0.14917 0.663309,-0.74847 1.581901,-1.33182 0.918542,-0.58337 2.187383,-1.6066 2.819673,-2.27383 1.398613,-1.47593 1.309377,-1.71531 -1.300434,-3.48847 -2.585554,-1.75664 -2.790108,-1.99198 -2.280456,-2.62116 0.224789,-0.27743 0.798676,-0.67342 1.275451,-0.88004 0.990451,-0.42926 3.034048,-2.26903 3.034048,-2.73148 0,-0.37621 -1.491668,-1.92765 -3.126631,-3.25178 -0.664205,-0.53796 -1.20775,-1.21794 -1.20775,-1.51103 0,-0.32961 0.633846,-0.93387 1.661552,-1.58417 0.91386,-0.57825 1.983201,-1.40302 2.376605,-1.83287 0.669412,-0.73149 0.687651,-0.83261 0.284865,-1.57907 -0.259745,-0.48107 -1.231551,-1.2193 -2.448953,-1.86041 -2.572978,-1.35484 -2.805643,-2.12644 -0.97512,-3.23264 0.667586,-0.40331 1.807197,-1.28639 2.532544,-1.96236 1.270886,-1.18407 1.30417,-1.25751 0.91058,-2.01027 -0.614812,-1.17625 -2.217573,-2.7597 -3.438492,-3.39736 -1.575714,-0.82289 -1.850555,-1.24942 -1.312402,-2.03604 0.242892,-0.35498 0.571453,-0.64539 0.730097,-0.64539 0.230129,0 1.286505,0.11728 2.293606,-0.63403 0.570473,-0.002 1.33879,-0.081 1.897328,-0.0829 0.450067,-0.002 0.622605,-0.009 1.059267,-0.0109 z m -8.035999,-0.29216 -1.304542,2.2249 c -2.187585,3.73092 -1.20748,1.29306 -0.547754,1.87127 0.312536,0.274 1.460515,0.89485 2.550816,1.37965 2.645462,1.17631 2.972248,1.50428 2.279577,2.28786 -0.292066,0.33045 -0.634708,0.60084 -0.761369,0.60084 -0.126729,0 -1.066485,0.5983 -2.08819,1.3295 -2.197829,1.57286 -2.942176,2.56571 -2.523906,3.36597 0.369706,0.70729 2.140356,2.29887 2.817932,2.53325 0.766998,0.26526 1.608965,1.56654 1.333279,2.06089 -0.12683,0.22761 -1.075866,1.18052 -2.108881,2.11751 -1.033082,0.93701 -1.920081,1.81076 -1.971215,1.94169 -0.269465,0.69014 3.566623,4.1041 4.611554,4.1041 0.919015,0 0.594088,0.77114 -0.689915,1.63737 -1.263246,0.85233 -3.395167,2.79183 -3.395167,3.08885 0,0.0919 0.975271,0.68088 2.167149,1.30873 1.205925,0.63525 2.167148,1.33419 2.167148,1.57577 0,0.23877 -0.633778,1.05335 -1.408484,1.81024 -1.78698,1.74602 -2.925813,3.33761 -2.925813,4.08889 0,0.73899 0.999359,1.71208 2.352771,2.29099 1.850825,0.79168 1.786725,1.12609 -0.948648,4.94228 -0.772339,1.07744 -1.404123,2.15627 -1.404123,2.3975 0,0.26365 1.043563,0.935 2.616589,1.68316 1.439047,0.68451 2.688956,1.4377 2.777397,1.67369 0.2078,0.55432 -0.331114,1.20578 -1.460633,1.76561 -1.492767,0.7399 -3.474801,2.35441 -3.904008,3.180241 -0.370956,0.71383 -0.341661,0.86092 0.35816,1.80022 0.419065,0.56258 1.313299,1.33418 1.987021,1.71465 0.748826,0.42287 1.335713,1.01383 1.509552,1.52014 0.262788,0.76478 0.174533,0.93012 -1.149651,2.15551 -0.788753,0.72997 -1.726734,1.5362 -2.084252,1.79173 -0.638731,0.45638 -0.909396,1.57979 -0.380777,1.57979 0.148298,0 0.348085,0.23297 0.443051,0.51768 0.223994,0.66795 2.69122,2.54434 3.598098,2.73633 1.129756,0.23922 1.020083,0.81599 -0.321901,1.69336 -1.406794,0.91971 -3.410803,2.71974 -3.410803,3.06363 0,0.12362 0.969034,0.72165 2.153355,1.32895 1.184237,0.6073 2.222577,1.28965 2.307789,1.51639 0.08636,0.23043 -0.258038,0.80604 -0.780774,1.30516 -0.514454,0.4911 -1.278764,1.22487 -1.698674,1.63059 -0.41991,0.40572 -1.065453,1.32022 -1.434516,2.03219 -0.668381,1.28893 -0.66877,1.29717 -0.103689,1.93722 0.312131,0.35357 1.185082,0.96354 1.940028,1.35542 0.926063,0.48078 1.372495,0.8991 1.372495,1.28603 0,0.31541 -0.828764,1.74412 -1.841934,3.17497 -1.304068,1.84194 -1.774065,2.73563 -1.609657,3.06085 0.269583,0.53279 2.535095,1.82609 4.087973,2.33365 1.057069,0.34557 1.820635,1.49605 1.145459,1.72644 -0.988321,0.33726 -4.821045,3.31481 -5.300253,4.11769 l -0.564658,0.94603 1.278425,1.34657 c 0.703101,0.7406 1.482287,1.34648 1.731687,1.34648 0.500372,0 1.650903,1.3449 1.650903,1.92989 0,0.20404 -0.96643,1.21772 -2.147675,2.25263 -1.181144,1.0349 -2.156245,1.96302 -2.167233,2.06241 -0.02598,0.24118 2.273085,2.64229 3.15503,3.29506 0.686721,0.50822 0.797543,0.55412 1.517142,0.62857 0.791745,0.082 0.490146,1.00706 -0.561683,1.72279 -0.602759,0.41007 -1.6697,1.3176 -2.370942,2.01672 l -1.275011,1.27109 2.214141,1.14045 c 2.622608,1.35092 2.757248,1.79456 1.009722,3.326 -1.406997,1.23285 -3.129961,3.61175 -3.129961,4.32148 0,0.62651 0.703591,1.27762 2.328766,2.15534 0.798084,0.43102 1.317153,0.92831 1.372935,1.31562 0.05812,0.40327 -0.579601,1.52065 -1.809444,3.17076 -1.53545,2.06053 -1.845079,2.65114 -1.61735,3.08697 0.283496,0.5423 2.831118,1.91923 4.203698,2.27185 0.616215,0.15835 1.300604,0.89215 1.300604,1.39477 0,0.0709 -1.137735,0.86815 -2.528352,1.7717 -1.49062,0.9685 -2.748135,2.02571 -3.063562,2.57563 -0.531053,0.92561 -0.530022,0.93895 0.144562,1.72358 1.172776,1.36452 1.524225,1.67234 2.32569,2.03658 0.988219,0.44907 1.805794,1.68523 1.483183,2.24243 -0.131834,0.22776 -1.084994,1.17918 -2.11806,2.11429 -1.033014,0.9351 -1.913674,1.79576 -1.956356,1.91254 -0.199602,0.54206 3.220329,3.5597 4.404616,3.88661 1.033827,0.28535 0.832687,1.05241 -0.483502,1.84493 -0.68329,0.41145 -1.557475,1.09353 -1.942833,1.51577 -0.564574,0.6187 -0.967851,0.76772 -2.077964,0.76772 -0.757413,0 -1.435277,-0.0998 -1.50727,-0.22187 -0.154739,-0.26386 -0.590065,-10.92757 -0.558979,-13.68138 0.10619,-9.34886 0.103249,-13.86124 -0.01589,-24.25656 -0.07546,-6.58922 -0.236587,-13.64436 -0.358058,-15.67807 -0.120863,-2.03371 -0.202154,-3.99718 -0.179063,-4.36325 0.07685,-1.21056 0.08897,-1.69303 0.06368,-2.44042 -0.01538,-0.40676 -0.02901,-4.00087 -0.02901,-7.98695 -0.0022,-3.98608 -0.03802,-8.91134 -0.08072,-10.94504 -0.04283,-2.03372 0,-4.60976 0.0961,-5.72448 0.09595,-1.11474 0.0688,-2.97836 -0.06011,-4.14139 -0.128875,-1.16302 -0.300619,-3.77857 -0.382518,-5.81229 -0.08156,-2.03371 -0.214849,-4.62942 -0.296732,-5.76831 -0.08205,-1.13888 -0.138493,-2.20377 -0.126322,-2.36646 0.03594,-0.47886 0.356317,-11.185391 0.356317,-11.832511 -0.0017,-0.32537 -0.0808,-2.12244 -0.177947,-3.99347 -0.158745,-3.0618 -0.181278,-8.6618 -0.05817,-14.34688 0.02465,-1.13886 -0.09598,-5.13236 -0.267825,-8.8744 -0.171304,-3.74201 -0.272964,-7.73547 -0.223977,-8.87432 0.203912,-4.7668 0.52441,-14.08299 0.52441,-14.39879 0,-0.0295 0.791086,-0.0802 3.957914,-0.32576 z"
       sodipodi:nodetypes="cscccccccsccccsccscccccscccscscccccsccsccccccccsscsccccccccsccsccscsscccsscsscsscscscssscccsccssssssccssccccscscsscccssccscssssssssccccccsscsccscsssssscscscssscssssccsscscscscssssccscscscccsscssscccscscccssccccssccssscsscscccccccccscccccscccssc" />
    <path
       style="opacity:0.930349;fill:#ff0000;stroke-width:0.565651"
       d="m 100.98303,125.4635 c 0,-46.744471 0.0661,-65.867211 0.147,-42.494981 0.0808,23.372241 0.0808,61.617721 0,84.989961 -0.0808,23.37223 -0.147,4.24949 -0.147,-42.49498 z"
       id="path3852" />
    <path
       style="opacity:0.930349;fill:#ff0000;stroke-width:0.565651"
       d="M 80.584566,125.74966 V 41.332039 h 10.063115 10.063099 v 84.417621 84.41763 H 90.647681 80.584566 Z m 7.93657,81.76434 c 1.169598,-0.82976 2.118584,-1.79555 2.108864,-2.14621 -0.0096,-0.35066 -1.141808,-1.33591 -2.515775,-2.18943 -1.373949,-0.85353 -2.49811,-1.78876 -2.49811,-2.07829 0,-0.28953 0.880524,-1.21395 1.956729,-2.05427 1.076187,-0.84033 1.956711,-1.98675 1.956711,-2.5476 0,-0.56086 -1.018883,-1.85796 -2.264194,-2.88245 -2.588613,-2.12961 -2.500933,-2.43113 1.533202,-5.27253 1.324506,-0.93289 2.408181,-1.93699 2.408181,-2.23134 0,-0.29436 -1.267201,-1.19257 -2.816005,-1.99602 -2.988103,-1.5501 -2.988374,-1.55182 -0.735421,-4.67274 1.727326,-2.39281 1.659372,-3.28636 -0.362014,-4.75985 -0.922446,-0.67242 -1.677189,-1.46186 -1.677189,-1.75429 0,-0.29244 0.880524,-1.52946 1.956729,-2.74893 1.076187,-1.21947 1.956711,-2.58609 1.956711,-3.03693 0,-0.45084 -0.901248,-1.34698 -2.002758,-1.99143 l -2.002757,-1.17171 2.282281,-1.85049 c 2.501271,-2.02803 2.788722,-2.75261 1.303933,-3.28696 -0.538102,-0.19365 -1.672827,-1.00897 -2.521624,-1.81182 l -1.543275,-1.45973 2.018833,-2.11651 c 2.162889,-2.26754 2.270432,-4.14864 0.274249,-4.79723 -0.558691,-0.18152 -1.434922,-0.80417 -1.947195,-1.38365 -0.878986,-0.9943 -0.827328,-1.14647 0.917849,-2.70392 1.017074,-0.90768 2.452283,-2.05449 3.189344,-2.54847 1.684948,-1.12929 1.229506,-1.93611 -1.958994,-3.47044 -2.685202,-1.29213 -2.691017,-1.47195 -0.166875,-5.16309 1.457793,-2.13177 1.298846,-3.17856 -0.638325,-4.20407 -0.922446,-0.48833 -1.677189,-1.23132 -1.677189,-1.65109 0,-0.41976 1.017852,-1.94696 2.261861,-3.39376 l 2.261861,-2.63057 -2.314246,-1.56782 c -2.158697,-1.46244 -2.244957,-1.61957 -1.283497,-2.33779 0.566907,-0.42349 1.647996,-1.31857 2.4024,-1.98908 1.305134,-1.15997 1.321024,-1.24907 0.327598,-1.83701 -0.574243,-0.33986 -1.820432,-1.31721 -2.769316,-2.17191 l -1.725247,-1.55399 2.09649,-1.99385 c 1.15305,-1.09662 2.096473,-2.22228 2.096473,-2.50146 0,-0.2792 -1.03271,-1.4567 -2.294925,-2.61669 -2.604807,-2.39385 -2.489252,-2.86357 1.308363,-5.317761 1.157579,-0.74808 2.104688,-1.738 2.104688,-2.19982 0,-0.46182 -1.069205,-1.39165 -2.376013,-2.0663 -1.306807,-0.67464 -2.471266,-1.31395 -2.5877,-1.42068 -0.116418,-0.10672 0.575409,-1.44973 1.537427,-2.98445 0.962001,-1.53472 1.749098,-3.08317 1.749098,-3.441 0,-0.35783 -0.754726,-1.05015 -1.677189,-1.53848 -2.168315,-1.14788 -2.114087,-2.07709 0.27954,-4.78938 1.076187,-1.21948 1.956711,-2.51664 1.956711,-2.88256 0,-0.36593 -0.909125,-1.21446 -2.020287,-1.88561 l -2.020287,-1.22027 2.299827,-1.95568 c 2.340667,-1.99041 2.874222,-3.00537 1.579856,-3.00537 -0.395957,0 -1.590962,-0.75159 -2.655536,-1.67017 l -1.935599,-1.67016 2.096491,-2.21715 c 1.153049,-1.21943 2.096473,-2.48512 2.096473,-2.81264 0,-0.32751 -1.018883,-1.4337 -2.264194,-2.45821 -2.588614,-2.1296 -2.500933,-2.43111 1.533218,-5.27252 1.324489,-0.93288 2.408164,-1.93698 2.408164,-2.23134 0,-0.29436 -1.249435,-1.18334 -2.776517,-1.97554 l -2.776517,-1.44034 1.154554,-2.00323 1.154553,-2.00325 -1.592635,0.009 c -3.4712,0.0191 -3.288672,-1.90814 -3.073164,32.45096 0.310068,49.433691 1.216591,125.378731 1.551018,129.936891 0.294331,4.01185 0.352784,4.14934 1.764091,4.14934 0.802834,0 2.416617,-0.67889 3.586198,-1.50864 z m 7.075722,1.00055 c 0.62896,-0.40802 0.691014,-6.30491 0.368775,-35.04601 -0.21309,-19.00549 -0.453413,-38.41863 -0.534045,-43.1403 -0.08065,-4.72166 -0.325417,-25.84037 -0.543934,-46.930471 -0.218533,-21.0901 -0.511985,-38.92512 -0.652119,-39.63335 -0.209878,-1.06076 -0.622452,-1.28626 -2.340633,-1.2793 -2.265648,0.009 -4.662182,1.01671 -5.013564,2.1078 -0.12142,0.37699 0.649719,1.26957 1.713634,1.98352 1.063932,0.71397 2.247916,1.81205 2.63111,2.4402 0.619867,1.01609 0.441378,1.36722 -1.618025,3.18297 -1.273118,1.1225 -2.314753,2.35258 -2.314753,2.73351 0,0.38095 1.006306,1.34295 2.236251,2.1378 1.957135,1.26479 3.022165,3.11891 1.816951,3.16317 -0.23062,0.008 -1.299826,0.766 -2.376013,1.68342 l -1.956712,1.66802 2.441854,2.55628 2.441854,2.55626 -2.302093,1.5596 c -1.266153,0.85777 -2.296717,1.8473 -2.290158,2.19893 0.0066,0.35165 1.025408,1.37352 2.264075,2.27083 1.238685,0.89733 2.157733,1.92751 2.042314,2.2893 -0.115403,0.36179 -1.244669,1.43044 -2.509453,2.37478 -1.264784,0.94433 -2.314973,1.89406 -2.33377,2.11049 -0.01878,0.21643 1.223724,1.09439 2.761151,1.95101 1.537411,0.85661 2.795298,1.76172 2.795298,2.01135 0,0.24963 -1.132088,1.25125 -2.515774,2.22583 -2.268573,1.59784 -3.336088,3.43394 -1.996521,3.43394 0.716235,0 4.512295,3.72282 4.512295,4.42524 0,0.31349 -1.006306,1.28391 -2.236235,2.15647 -1.229945,0.87256 -2.2267,2.00216 -2.215037,2.510211 0.01166,0.50805 1.017987,1.62953 2.236252,2.49218 1.218264,0.86264 2.21502,1.80743 2.21502,2.09953 0,0.2921 -0.880507,1.08818 -1.956712,1.76909 -2.423547,1.53336 -2.508168,3.0328 -0.279523,4.95256 0.922447,0.79461 1.677172,1.78319 1.677172,2.19684 0,0.41365 -0.91844,1.50637 -2.040978,2.42827 l -2.040994,1.67618 2.320518,1.90906 c 1.276295,1.04998 2.320517,2.20861 2.320517,2.57473 0,0.36613 -1.135689,1.50062 -2.523753,2.5211 -1.388065,1.02048 -2.37718,2.09822 -2.198015,2.39498 0.179164,0.29676 1.126172,0.89449 2.104469,1.32829 0.978296,0.4338 2.257161,1.16327 2.841901,1.62104 1.009214,0.79006 0.931135,0.92535 -1.53741,2.66404 -1.430341,1.00745 -2.600616,2.16256 -2.600616,2.56692 0,0.40436 1.006307,1.56308 2.236252,2.57493 1.229929,1.01185 2.236235,2.19227 2.236235,2.62314 0,0.43089 -1.006306,1.59935 -2.236235,2.59658 -1.229945,0.99723 -2.236252,2.16135 -2.236252,2.58692 0,0.42558 1.006307,1.35277 2.236252,2.06043 1.229929,0.70767 2.24014,1.56116 2.24489,1.89667 0.0047,0.33551 -1.054398,1.54608 -2.353683,2.69017 l -2.362355,2.08015 2.3537,2.16308 c 1.294518,1.18969 2.353683,2.34415 2.353683,2.56546 0,0.22131 -1.006306,1.08412 -2.236235,1.91736 -1.229945,0.83324 -2.236252,1.76522 -2.236252,2.07106 0,0.30585 1.006307,1.23783 2.236252,2.07107 1.229929,0.83324 2.236235,1.87238 2.236235,2.3092 0,0.43683 -1.132088,1.61113 -2.515775,2.60958 -1.383669,0.99843 -2.515774,2.01123 -2.515774,2.25064 0,0.23942 1.177086,1.03623 2.615727,1.7707 1.438658,0.73446 2.710322,1.62588 2.825928,1.98092 0.115605,0.35504 -0.935682,1.45261 -2.336205,2.43904 -1.400505,0.98644 -2.546388,2.02116 -2.546388,2.29939 0,0.27821 0.817625,1.07841 1.816951,1.77821 3.865687,2.70704 4.042738,3.78562 0.978364,5.95962 -1.229945,0.87256 -2.236251,1.93454 -2.236251,2.35995 0,0.42541 0.985159,1.41012 2.189241,2.18827 1.204099,0.77813 2.339501,1.66364 2.523111,1.96779 0.183627,0.30415 -0.670375,1.28038 -1.897784,2.1694 -1.227393,0.88902 -2.237013,1.99186 -2.243572,2.45076 -0.0066,0.45889 0.871211,1.76023 1.950627,2.89188 l 1.962577,2.05752 -1.683037,1.6507 c -0.925675,0.90789 -1.683038,1.86006 -1.683038,2.11594 0,0.61785 4.544244,0.58251 5.50824,-0.0429 z m 3.618754,0.0788 c 0.218923,-0.37892 -0.386626,-52.05542 -1.619597,-138.215981 -0.222946,-15.58024 -0.618632,-27.90075 -0.896042,-27.90075 -0.273218,0 -0.644867,0.39509 -0.825857,0.87795 -0.181007,0.48287 -0.02184,21.79474 0.353697,47.35972 0.375554,25.564981 0.881877,62.578361 1.125175,82.251961 0.243314,19.6736 0.469404,35.83457 0.502434,35.91326 0.135198,0.32212 1.129621,0.11291 1.36019,-0.28616 z"
       id="path3854" />
    <path
       style="opacity:0.930349;fill:#ff0000;stroke-width:0.565651"
       d="M 80.584566,125.74966 V 41.332039 h 9.97344 9.973444 l 0.23079,28.75923 c 0.24363,30.361511 0.27933,90.642011 0.0721,121.618601 l -0.12352,18.45742 H 90.647681 80.584566 Z m 8.193391,81.81305 c 1.028349,-0.80296 1.869724,-1.82949 1.869724,-2.28117 0,-0.45168 -1.006323,-1.50298 -2.236252,-2.33622 -1.229928,-0.83324 -2.236251,-1.73237 -2.236251,-1.99806 0,-0.26569 0.631902,-0.90693 1.404224,-1.42498 2.390652,-1.60357 2.397854,-3.4316 0.02328,-5.92106 l -2.06968,-2.16983 2.813063,-2.22159 c 1.547164,-1.22187 2.823764,-2.54305 2.836865,-2.93594 0.01302,-0.39289 -1.104552,-1.43332 -2.483641,-2.31205 l -2.507458,-1.5977 1.389332,-2.09309 c 1.791088,-2.69835 1.788349,-4.61613 -0.0083,-5.82128 -1.771716,-1.1884 -1.754474,-1.43873 0.279523,-4.05889 2.117349,-2.72755 2.116825,-4.03555 -0.0022,-5.35476 -1.66877,-1.03891 -1.672286,-1.05205 -0.559063,-2.08342 1.083777,-1.00405 1.120814,-1.00234 1.135706,0.0524 0.0085,0.59965 0.882063,1.73413 1.941329,2.52108 1.059266,0.78694 1.93286,1.70963 1.941312,2.05042 0.0085,0.34079 -0.990907,1.44749 -2.220852,2.45934 -1.229928,1.01185 -2.236234,2.09148 -2.236234,2.39917 0,0.30769 1.132088,1.25947 2.515774,2.11507 1.383669,0.8556 2.515774,1.70126 2.515774,1.87926 0,0.17799 -1.000373,1.08127 -2.223032,2.00729 -1.222676,0.92602 -2.223033,2.07 -2.223033,2.54216 0,0.47217 1.000357,1.61614 2.223033,2.54216 1.222659,0.92602 2.223016,2.08497 2.223016,2.57545 -1.7e-5,0.49048 -0.880525,1.61101 -1.956712,2.49007 -1.076187,0.87906 -1.951336,2.03801 -1.94476,2.57545 0.0066,0.53744 1.049969,1.72942 2.318691,2.64885 l 2.306775,1.67168 -2.039169,1.67469 c -2.473583,2.03145 -2.551273,3.21605 -0.377143,5.75098 l 1.662026,1.93785 -1.382503,1.3296 c -2.256333,2.17 -1.82312,2.93283 1.552573,2.73387 l 2.935076,-0.173 0.195443,-6.86787 C 96.399455,193.25036 95.102181,66.328019 94.63036,52.778519 l -0.348779,-10.01565 -2.268842,-0.17062 c -2.811695,-0.21145 -5.278482,0.69458 -5.278482,1.93875 0,0.51588 1.069189,1.91724 2.376013,3.11415 l 2.375997,2.17618 -2.096474,2.21812 c -2.53163,2.67855 -2.603945,3.53665 -0.424017,5.0315 2.125379,1.45743 2.528436,2.54731 1.275129,3.44793 -0.544982,0.39161 -1.619817,1.23946 -2.388522,1.88408 l -1.397665,1.17204 2.379376,2.49637 c 1.857216,1.94855 2.231418,2.64784 1.705131,3.18661 -0.893236,0.91444 -1.568733,0.87473 -1.568733,-0.0922 0,-0.43034 -1.006306,-1.46417 -2.236235,-2.29741 -1.229945,-0.83323 -2.236251,-1.6705 -2.236251,-1.86056 0,-0.19006 0.754725,-1.22555 1.677188,-2.30108 0.922447,-1.07553 1.677189,-2.25763 1.677189,-2.62688 0,-0.36925 -0.899237,-1.61409 -1.998278,-2.76632 l -1.99828,-2.09497 2.822496,-2.22158 c 1.55237,-1.22188 2.763264,-2.60447 2.690882,-3.07241 -0.07238,-0.46796 -1.208376,-1.45891 -2.524413,-2.2021 l -2.392815,-1.35125 1.14125,-1.98016 1.141251,-1.98017 -2.365533,0.17599 c -2.235846,0.16634 -2.380729,0.28583 -2.642469,2.17912 -0.700549,5.06763 0.667197,159.739701 1.440449,162.893661 0.460665,1.87898 3.139782,1.8327 5.611032,-0.0969 z m 10.8149,-4.40638 c 0,-9.99312 -1.099515,-88.82856 -1.730639,-124.050991 -0.329965,-18.41448 -0.574767,-34.18913 -0.543985,-35.05477 0.03732,-1.04997 -0.226157,-1.5739 -0.791542,-1.5739 -1.10746,0 -1.109133,15.47084 -0.0096,89.568541 0.44841,30.21865 0.820701,59.90075 0.827311,65.96022 0.01166,10.63156 0.05115,11.01721 1.130127,11.01721 1.045388,0 1.118143,-0.38161 1.118328,-5.86631 z"
       id="path3856" />
    <path
       style="opacity:0.930349;fill:#ff0000;stroke-width:0.565651"
       d="M 80.584566,125.74966 V 41.332039 h 9.97344 9.973444 l 0.23079,28.75923 c 0.24363,30.361511 0.27933,90.642011 0.0721,121.618601 l -0.12352,18.45742 H 90.647681 80.584566 Z m 8.193391,81.81305 c 1.028349,-0.80296 1.869724,-1.82949 1.869724,-2.28117 0,-0.45168 -1.006323,-1.50298 -2.236252,-2.33622 -1.229928,-0.83324 -2.236251,-1.73237 -2.236251,-1.99806 0,-0.26569 0.631902,-0.90693 1.404224,-1.42498 2.390652,-1.60357 2.397854,-3.4316 0.02328,-5.92106 l -2.06968,-2.16983 2.813063,-2.22159 c 1.547164,-1.22187 2.823764,-2.54305 2.836865,-2.93594 0.01302,-0.39289 -1.104552,-1.43332 -2.483641,-2.31205 l -2.507458,-1.5977 1.389332,-2.09309 c 1.791088,-2.69835 1.788349,-4.61613 -0.0083,-5.82128 -1.771716,-1.1884 -1.754474,-1.43873 0.279523,-4.05889 2.117349,-2.72755 2.116825,-4.03555 -0.0022,-5.35476 -1.66877,-1.03891 -1.672286,-1.05205 -0.559063,-2.08342 1.083777,-1.00405 1.120814,-1.00234 1.135706,0.0524 0.0085,0.59965 0.882063,1.73413 1.941329,2.52108 1.059266,0.78694 1.93286,1.70963 1.941312,2.05042 0.0085,0.34079 -0.990907,1.44749 -2.220852,2.45934 -1.229928,1.01185 -2.236234,2.09148 -2.236234,2.39917 0,0.30769 1.132088,1.25947 2.515774,2.11507 1.383669,0.8556 2.515774,1.70126 2.515774,1.87926 0,0.17799 -1.000373,1.08127 -2.223032,2.00729 -1.222676,0.92602 -2.223033,2.07 -2.223033,2.54216 0,0.47217 1.000357,1.61614 2.223033,2.54216 1.222659,0.92602 2.223016,2.08497 2.223016,2.57545 -1.7e-5,0.49048 -0.880525,1.61101 -1.956712,2.49007 -1.076187,0.87906 -1.951336,2.03801 -1.94476,2.57545 0.0066,0.53744 1.049969,1.72942 2.318691,2.64885 l 2.306775,1.67168 -2.039169,1.67469 c -2.473583,2.03145 -2.551273,3.21605 -0.377143,5.75098 l 1.662026,1.93785 -1.382503,1.3296 c -2.256333,2.17 -1.82312,2.93283 1.552573,2.73387 l 2.935076,-0.173 0.195443,-6.86787 C 96.399455,193.25036 95.102181,66.328019 94.63036,52.778519 l -0.348779,-10.01565 -2.268842,-0.17062 c -2.811695,-0.21145 -5.278482,0.69458 -5.278482,1.93875 0,0.51588 1.069189,1.91724 2.376013,3.11415 l 2.375997,2.17618 -2.096474,2.21812 c -2.53163,2.67855 -2.603945,3.53665 -0.424017,5.0315 2.125379,1.45743 2.528436,2.54731 1.275129,3.44793 -0.544982,0.39161 -1.619817,1.23946 -2.388522,1.88408 l -1.397665,1.17204 2.379376,2.49637 c 1.857216,1.94855 2.231418,2.64784 1.705131,3.18661 -0.893236,0.91444 -1.568733,0.87473 -1.568733,-0.0922 0,-0.43034 -1.006306,-1.46417 -2.236235,-2.29741 -1.229945,-0.83323 -2.236251,-1.6705 -2.236251,-1.86056 0,-0.19006 0.754725,-1.22555 1.677188,-2.30108 0.922447,-1.07553 1.677189,-2.25763 1.677189,-2.62688 0,-0.36925 -0.899237,-1.61409 -1.998278,-2.76632 l -1.99828,-2.09497 2.822496,-2.22158 c 1.55237,-1.22188 2.763264,-2.60447 2.690882,-3.07241 -0.07238,-0.46796 -1.208376,-1.45891 -2.524413,-2.2021 l -2.392815,-1.35125 1.14125,-1.98016 1.141251,-1.98017 -2.365533,0.17599 c -2.235846,0.16634 -2.380729,0.28583 -2.642469,2.17912 -0.700549,5.06763 0.667197,159.739701 1.440449,162.893661 0.460665,1.87898 3.139782,1.8327 5.611032,-0.0969 z m 10.8149,-4.40638 c 0,-9.99312 -1.099515,-88.82856 -1.730639,-124.050991 -0.329965,-18.41448 -0.574767,-34.18913 -0.543985,-35.05477 0.03732,-1.04997 -0.226157,-1.5739 -0.791542,-1.5739 -1.10746,0 -1.109133,15.47084 -0.0096,89.568541 0.44841,30.21865 0.820701,59.90075 0.827311,65.96022 0.01166,10.63156 0.05115,11.01721 1.130127,11.01721 1.045388,0 1.118143,-0.38161 1.118328,-5.86631 z"
       id="path3858" />
    <path
       style="opacity:0.930349;fill:#ffffff;stroke-width:0.565651"
       d="M 80.525738,125.74966 V 41.332029 h 10.063106 10.063106 v 84.417631 84.41762 H 90.588844 80.525738 Z m 7.936575,81.76434 c 1.169592,-0.82976 2.126531,-1.71517 2.126531,-1.96758 0,-0.2524 -1.132099,-1.29121 -2.515776,-2.30846 -1.383678,-1.01726 -2.515777,-2.03288 -2.515777,-2.25693 0,-0.22406 0.880522,-1.09491 1.956715,-1.93524 1.076193,-0.84032 1.956715,-1.92305 1.956715,-2.40606 0,-0.48301 -0.880522,-1.67625 -1.956715,-2.65163 -1.076193,-0.97539 -1.956715,-2.1128 -1.956715,-2.52757 0,-0.41477 1.257888,-1.67927 2.795307,-2.81 1.53742,-1.13072 2.795307,-2.2849 2.795307,-2.56485 0,-0.27995 -1.2672,-1.16637 -2.816001,-1.96982 -2.983174,-1.54755 -2.980893,-1.53285 -0.717745,-4.62187 1.715607,-2.34168 1.636753,-3.34084 -0.379684,-4.81073 -0.922451,-0.67241 -1.677184,-1.46185 -1.677184,-1.75428 0,-0.29244 0.880522,-1.52946 1.956715,-2.74894 1.076193,-1.21946 1.956715,-2.58609 1.956715,-3.03692 0,-0.45084 -0.901238,-1.34698 -2.002755,-1.99143 l -2.002755,-1.17172 2.282286,-1.85048 c 2.609435,-2.11574 2.791903,-2.72574 1.024397,-3.42471 -0.69184,-0.27358 -1.822625,-1.11941 -2.512856,-1.87959 l -1.254972,-1.38216 1.953799,-1.93861 c 2.365787,-2.3474 2.471432,-3.69994 0.375658,-4.80941 -2.929245,-1.55071 -3.125194,-2.30316 -1.075988,-4.13189 1.013078,-0.90408 2.445004,-2.04795 3.182062,-2.54193 1.636597,-1.09687 1.249257,-1.88215 -1.683991,-3.41407 -1.209076,-0.63146 -2.198315,-1.41408 -2.198315,-1.73916 0,-0.32508 0.628944,-1.53858 1.397653,-2.69668 1.827957,-2.75389 1.763374,-3.9062 -0.27953,-4.98769 -0.922452,-0.48833 -1.677185,-1.23132 -1.677185,-1.65108 0,-0.41977 1.017837,-1.94697 2.261856,-3.39377 l 2.26186,-2.63056 -2.314247,-1.56782 c -2.158692,-1.46245 -2.244962,-1.61958 -1.283497,-2.3378 0.56691,-0.42348 1.647992,-1.31857 2.402408,-1.98907 1.305126,-1.15997 1.321017,-1.24908 0.327587,-1.83702 -0.574245,-0.33985 -1.820438,-1.31721 -2.769317,-2.17191 l -1.725242,-1.55398 2.096481,-1.99385 c 1.153062,-1.09662 2.09648,-2.22228 2.09648,-2.50147 0,-0.27919 -1.032716,-1.4567 -2.294929,-2.61668 -2.604811,-2.39386 -2.489242,-2.86357 1.308365,-5.317761 1.157579,-0.74808 2.104687,-1.738 2.104687,-2.19983 0,-0.46181 -1.069207,-1.39165 -2.376011,-2.06629 -1.306809,-0.67465 -2.471271,-1.31395 -2.587699,-1.42068 -0.116423,-0.10673 0.575413,-1.44973 1.537419,-2.98445 0.962011,-1.53472 1.749107,-3.08317 1.749107,-3.441 0,-0.35783 -0.754733,-1.05015 -1.677185,-1.53848 -2.168317,-1.14788 -2.114084,-2.07709 0.279531,-4.78938 1.076193,-1.21948 1.956715,-2.51663 1.956715,-2.88257 0,-0.36593 -0.909128,-1.21446 -2.020283,-1.88561 l -2.020282,-1.22027 2.299813,-1.95567 c 2.340674,-1.99042 2.87422,-3.00538 1.579868,-3.00538 -0.395968,0 -1.590964,-0.75158 -2.655542,-1.67016 l -1.935596,-1.67017 2.09648,-2.21715 c 1.153062,-1.21943 2.096481,-2.48511 2.096481,-2.81263 0,-0.32751 -1.018888,-1.43371 -2.264195,-2.45821 -2.588606,-2.1296 -2.500928,-2.43112 1.533211,-5.27252 1.324492,-0.93289 2.408168,-1.937 2.408168,-2.23135 0,-0.29435 -1.26826,-1.19311 -2.818354,-1.99723 l -2.818354,-1.46205 1.14117,-1.64064 c 0.627642,-0.90235 1.141169,-1.79404 1.141169,-1.98153 0,-0.74009 -3.260862,-0.28736 -3.936946,0.5466 -0.58184,0.7177 -0.639303,10.92789 -0.300368,53.36911 0.59837,74.927251 1.120761,110.750971 1.626994,111.573951 0.704927,1.146 2.664997,0.83229 4.956281,-0.79323 z m 7.07508,1.00094 c 0.628153,-0.40749 0.69422,-6.70416 0.391741,-37.3353 -0.200113,-20.26483 -0.600531,-47.79081 -0.889821,-61.16886 -0.289289,-13.378051 -0.532325,-33.724131 -0.540072,-45.213511 -0.0078,-11.48938 -0.237001,-21.25021 -0.509451,-21.69072 -0.64733,-1.04663 -5.530988,-0.4245 -6.741982,0.85888 -0.76621,0.812 -0.711296,0.99847 0.545729,1.85326 2.15817,1.46756 3.913431,3.38929 3.913431,4.28456 0,0.4459 -0.876582,1.4234 -1.947964,2.17222 -2.553846,1.78498 -2.915975,2.864 -1.321276,3.93696 0.701765,0.47216 1.897731,1.40211 2.657706,2.06656 l 1.381767,1.20807 -2.341831,1.58651 c -1.288011,0.87258 -2.341833,2.02 -2.341833,2.5498 0,0.52981 0.936294,1.81188 2.080652,2.84905 l 2.080653,1.88577 -1.441114,1.22424 c -0.79261,0.67333 -1.917589,1.53547 -2.499948,1.91587 -0.988304,0.64556 -0.891256,0.84615 1.456941,3.01128 l 2.515777,2.31964 -2.759948,2.50507 -2.759948,2.50506 2.899713,1.50425 c 1.594843,0.82734 2.899714,1.74146 2.899714,2.03137 0,0.28992 -1.1321,1.35942 -2.515778,2.37667 -1.383676,1.01725 -2.515776,2.0089 -2.515776,2.20366 0,0.19476 1.1321,1.32287 2.515776,2.50692 1.383678,1.18405 2.515778,2.50961 2.515778,2.94569 0,0.43609 -1.000939,1.51784 -2.224309,2.40389 -1.22337,0.88605 -2.229681,1.93539 -2.236246,2.331851 -0.0066,0.39646 0.984825,1.42664 2.203091,2.28929 1.218266,0.86265 2.224578,1.85718 2.236246,2.21008 0.01166,0.35289 -0.857587,1.2543 -1.931678,2.00313 -1.074091,0.74882 -1.954613,1.76168 -1.956715,2.25079 -0.0021,0.48911 0.876702,1.76298 1.952896,2.83081 1.076192,1.06783 1.954998,2.08414 1.952895,2.25848 -0.0021,0.17434 -0.882624,0.92965 -1.956715,1.67847 -1.074091,0.74883 -1.952896,1.69791 -1.952896,2.10909 0,0.41118 1.000939,1.47255 2.224308,2.35861 1.223372,0.88605 2.229681,1.796 2.236247,2.0221 0.0066,0.22611 -1.11035,1.25629 -2.482036,2.28929 -2.911749,2.19281 -3.10331,2.92669 -1.000161,3.83168 0.845578,0.36386 2.137944,1.13108 2.871922,1.70495 l 1.334501,1.04339 -2.59239,1.82592 c -1.425813,1.00426 -2.592391,2.11078 -2.592391,2.45893 0,0.34815 1.006311,1.5148 2.236246,2.59256 1.229935,1.07775 2.236246,2.31366 2.236246,2.74646 0,0.4328 -1.006311,1.61479 -2.236246,2.62664 -1.229935,1.01185 -2.236246,2.12043 -2.236246,2.46351 0,0.34308 1.192961,1.36145 2.65102,2.26305 l 2.651021,1.63925 -2.371489,2.15444 c -1.304317,1.18493 -2.37149,2.39085 -2.37149,2.6798 0,0.28896 0.880521,1.39906 1.956715,2.46689 1.076193,1.06783 1.956715,2.14487 1.956715,2.39344 0,0.24856 -1.006311,1.13367 -2.236246,1.96691 -1.229935,0.83324 -2.236246,1.72593 -2.236246,1.98376 0,0.25783 1.17254,1.29463 2.605642,2.30403 l 2.605642,1.83525 -1.947636,1.82721 c -1.0712,1.00497 -2.432422,2.13802 -3.024938,2.51789 -0.592515,0.37986 -0.825724,0.80897 -0.51824,0.95358 2.593965,1.21994 5.031552,2.99948 5.031552,3.67323 0,0.45011 -1.069206,1.55351 -2.376011,2.45199 -1.306808,0.89848 -2.376011,1.85312 -2.376011,2.12142 0,0.2683 0.854492,1.02845 1.898868,1.68921 1.044377,0.66078 2.307292,1.83953 2.806471,2.61944 0.889642,1.38997 0.863678,1.44923 -1.311875,2.99462 -2.813932,1.99884 -3.249181,3.0493 -1.720372,4.15203 0.654604,0.47217 1.83697,1.38946 2.627483,2.03843 l 1.437296,1.17993 -2.309871,1.87285 c -1.270433,1.03007 -2.309877,2.14273 -2.309877,2.47259 0,0.32985 0.914857,1.48302 2.03302,2.5626 l 2.033021,1.96287 -1.763319,1.86243 c -0.96983,1.02435 -1.59118,2.03867 -1.380784,2.25406 0.541207,0.55404 4.240404,0.47057 5.144734,-0.11609 z m 3.432186,-36.12097 c -0.278985,-19.6736 -0.789257,-56.76012 -1.133938,-82.414491 -0.344682,-25.65438 -0.835372,-46.86549 -1.090425,-47.13581 -1.050248,-1.11309 -1.176803,8.71094 -0.585097,45.41884 0.342496,21.247481 0.846161,56.847621 1.11925,79.111421 0.273091,22.26379 0.668885,40.76511 0.879534,41.11403 0.21065,0.34893 0.593358,0.41882 0.850458,0.1553 0.257106,-0.26351 0.239202,-16.57569 -0.03978,-36.24929 z"
       id="path3860" />
    <path
       style="opacity:0.930349;fill:#ffffff;stroke-width:0.565651"
       d="M 80.525738,125.74966 V 41.332029 h 10.063106 10.063106 v 84.417631 84.41762 H 90.588844 80.525738 Z m 8.343026,81.7913 c 0.946043,-0.81493 1.72008,-1.81008 1.72008,-2.21146 0,-0.40138 -1.006311,-1.44369 -2.236246,-2.31625 -1.229935,-0.87257 -2.236246,-1.79147 -2.236246,-2.042 0,-0.25053 0.754733,-1.00568 1.677185,-1.6781 2.152882,-1.56936 2.152882,-3.32554 0,-5.43707 -0.922452,-0.90473 -1.677185,-1.95301 -1.677185,-2.32952 0,-0.37651 1.124322,-1.55167 2.498491,-2.61146 1.374169,-1.05979 2.506268,-2.24835 2.515776,-2.64124 0.0095,-0.3929 -1.11107,-1.43332 -2.490167,-2.31206 l -2.507458,-1.5977 1.389335,-2.09309 c 1.79109,-2.69835 1.788349,-4.61613 -0.0083,-5.82128 -1.771702,-1.1884 -1.754465,-1.43873 0.279531,-4.05889 2.117354,-2.72755 2.116821,-4.03554 -0.0022,-5.35475 -1.613286,-1.00437 -1.639052,-1.08286 -0.654804,-1.99472 1.313325,-1.21674 1.729803,-1.20154 1.434767,0.0524 -0.159181,0.67651 0.52456,1.54774 2.106776,2.68448 l 2.34244,1.68292 -2.613496,2.35431 c -1.437427,1.29485 -2.6135,2.49617 -2.6135,2.66958 0,0.1734 1.132099,1.04785 2.515777,1.94321 1.383676,0.89536 2.515776,1.81741 2.515776,2.049 0,0.23159 -1.000939,1.14604 -2.224309,2.03209 -1.223369,0.88605 -2.226567,1.99732 -2.229327,2.46949 -0.0027,0.47216 0.860664,1.43246 1.918718,2.13398 3.240954,2.14886 3.399705,3.14616 0.836471,5.25489 -1.218239,1.00223 -2.214983,2.18428 -2.214983,2.62678 0,0.44249 1.030909,1.65265 2.290909,2.68924 l 2.290914,1.88469 -2.011384,1.77995 c -1.106258,0.97897 -2.011378,2.12671 -2.011378,2.55053 0,0.42382 0.789636,1.60461 1.754751,2.62397 l 1.75475,1.85339 -1.475219,1.79479 c -0.811372,0.98713 -1.47522,2.04603 -1.47522,2.35311 0,0.31395 1.284656,0.4826 2.935072,0.38533 l 2.935073,-0.17299 0.190502,-13.44959 c 0.19133,-13.5081 -0.81868,-104.909111 -1.502027,-135.926691 l -0.365659,-16.59736 -2.168398,-0.18202 c -2.499018,-0.20977 -5.378931,0.82854 -5.378931,1.9393 0,0.41795 0.870655,1.43976 1.934795,2.27066 2.899253,2.26383 3.040759,3.48889 0.637259,5.51705 -1.107148,0.93425 -2.012993,2.04457 -2.012993,2.46736 0,0.42281 1.038687,1.6109 2.308195,2.64022 l 2.308191,1.87149 -2.028659,1.66605 c -2.485571,2.04129 -2.557582,3.4516 -0.287104,5.62286 1.438116,1.37526 1.621011,1.81416 1.049673,2.51891 -0.864816,1.06675 -1.673111,1.10107 -1.673111,0.071 0,-0.43034 -1.006311,-1.46417 -2.236246,-2.29742 -1.229935,-0.83323 -2.236246,-1.67048 -2.236246,-1.86055 0,-0.19006 0.754733,-1.22555 1.677184,-2.30108 0.922452,-1.07553 1.677185,-2.25763 1.677185,-2.62688 0,-0.36925 -0.907303,-1.62256 -2.016231,-2.78514 l -2.01623,-2.11379 2.832223,-2.20277 c 1.557724,-1.21152 2.776702,-2.58564 2.708841,-3.05359 -0.06786,-0.46795 -1.201969,-1.45993 -2.520245,-2.20438 -2.330808,-1.31624 -2.373006,-1.39082 -1.531202,-2.70605 1.346041,-2.10305 1.08164,-2.62482 -1.230821,-2.42889 l -2.096481,0.17763 -0.169574,30.04695 c -0.182366,32.314031 0.825805,130.529501 1.376181,134.066641 0.307582,1.97673 0.479438,2.14621 2.176319,2.14621 1.166417,0 2.473453,-0.54362 3.562447,-1.48168 z m 10.660762,-8.39089 c -0.0059,-13.62482 -1.538073,-121.321461 -2.002961,-140.791431 -0.348989,-14.61617 -0.644204,-17.43801 -1.566821,-14.97667 -0.533694,1.42376 -0.409408,23.89346 0.48882,88.377081 0.972521,69.81675 1.194733,77.26359 2.305534,77.26359 0.636963,0 0.778942,-1.80763 0.775428,-9.87257 z"
       id="path3862" />
    <path
       style="opacity:0.930349;fill:#ffffff;stroke-width:0.0999942"
       d="m 89.85968,139.94007 c -0.339202,-0.34861 -0.939406,-0.7599 -1.858687,-1.27368 -0.74674,-0.41733 -1.597319,-0.97645 -1.890169,-1.24248 l -0.532459,-0.48369 0.13807,-0.40062 c 0.164356,-0.47688 0.464384,-1.01644 1.320862,-2.37542 1.208172,-1.91701 1.498749,-2.89955 1.104244,-3.73382 -0.224416,-0.47458 -0.636149,-0.82984 -1.718237,-1.48256 -0.317444,-0.19148 -0.755789,-0.54588 -0.9741,-0.78756 -0.337499,-0.37361 -0.387899,-0.48562 -0.336613,-0.74811 0.12472,-0.6384 1.02768,-1.86359 3.543265,-4.80769 0.475618,-0.55663 0.86375,-1.05167 0.862524,-1.10008 -0.0013,-0.0484 -0.795102,-0.62517 -1.764161,-1.28169 -1.867552,-1.26523 -2.43058,-1.75244 -2.331286,-2.01734 0.03283,-0.0876 0.668047,-0.65729 1.41159,-1.26601 1.677059,-1.37295 2.459915,-2.10082 2.541064,-2.36256 0.08346,-0.26918 -0.05944,-0.42612 -0.93921,-1.03148 -1.190457,-0.81915 -4.104289,-3.29512 -4.104289,-3.48755 0,-0.0407 0.64644,-0.69503 1.436533,-1.4541 1.37941,-1.32524 2.141679,-2.15688 2.506854,-2.73498 0.160526,-0.25413 0.16083,-0.29092 0.005,-0.60704 -0.09124,-0.18509 -0.936356,-1.1105 -1.878035,-2.05648 -1.852251,-1.86069 -2.175988,-2.32994 -2.011785,-2.91605 0.137762,-0.491751 0.815944,-1.117721 2.391746,-2.207621 0.804104,-0.55615 1.623371,-1.15603 1.82059,-1.33306 0.473467,-0.425 0.917635,-1.061 0.917635,-1.31395 0,-0.57818 -1.015068,-1.38617 -3.261359,-2.59603 -0.842519,-0.45378 -1.574349,-0.86812 -1.626288,-0.92074 -0.129791,-0.13149 0.250437,-0.89719 1.449271,-2.91852 1.096167,-1.84822 1.75828,-3.16826 1.75828,-3.50545 0,-0.30289 -0.780159,-1.02533 -1.681121,-1.55675 -1.240651,-0.73179 -1.666258,-1.27474 -1.53987,-1.96443 0.08763,-0.47816 0.724432,-1.45214 1.728909,-2.6443 0.468847,-0.55646 0.970799,-1.17108 1.11544,-1.36584 0.382608,-0.51517 0.969618,-1.53539 0.969618,-1.68518 0,-0.39422 -1.196002,-1.39674 -2.839518,-2.38017 -0.557773,-0.33375 -1.03663,-0.64408 -1.064122,-0.68962 -0.02749,-0.0455 0.317019,-0.39091 0.765583,-0.76749 1.645086,-1.38107 2.785526,-2.43119 3.1438,-2.89481 0.37644,-0.48714 0.4884,-0.5171 0.4884,-0.1307 0,0.12122 0.08716,0.30114 0.193677,0.39982 0.292836,0.2713 0.668024,0.12067 1.264051,-0.5075 0.813923,-0.85781 0.715899,-1.1822 -0.846763,-2.80223 -0.469652,-0.4869 -0.786273,-0.88527 -0.703599,-0.88527 0.08267,0 0.348581,0.20838 0.59091,0.46306 0.242333,0.25469 0.874216,0.85393 1.404184,1.33164 0.529973,0.47772 0.963585,0.90427 0.963585,0.94791 0,0.10796 -2.7434,2.34889 -3.630532,2.96558 -0.393293,0.2734 -0.739093,0.57455 -0.768441,0.66922 -0.07643,0.24653 0.105523,0.67361 0.342253,0.80331 0.111311,0.061 0.202389,0.16887 0.202389,0.23975 0,0.10577 3.08495,3.06108 3.773638,3.61505 0.190487,0.15322 0.09368,0.25419 -2.504256,2.61162 -1.486325,1.34873 -2.716341,2.49215 -2.733372,2.54093 -0.01703,0.0488 0.761249,0.49867 1.729508,0.99975 2.576088,1.33314 3.984128,2.24556 3.984128,2.58174 0,0.19986 -1.22694,1.35592 -2.371897,2.23489 -1.448444,1.11194 -2.466454,1.97876 -2.580825,2.19754 -0.124608,0.23835 0.502484,0.92392 2.415584,2.64084 1.487001,1.33452 2.537138,2.55837 2.537138,2.95682 0,0.32182 -1.065979,1.4803 -2.063511,2.24258 -0.977731,0.74715 -2.138007,1.89232 -2.284767,2.25504 -0.121674,0.300711 -0.0026,0.708711 0.206768,0.708711 0.05565,0 0.07718,0.0398 0.04785,0.0883 -0.07775,0.12879 0.833972,0.97744 1.968841,1.83263 1.040905,0.78438 2.124823,1.83664 2.124823,2.06276 0,0.24443 -0.554009,0.91682 -1.135764,1.37844 -2.101413,1.6675 -2.718568,2.32573 -2.718568,2.89951 0,0.29292 0.262522,0.84423 0.484626,1.01775 0.08677,0.0678 0.121379,0.12469 0.07691,0.12646 -0.157977,0.006 0.393682,0.67966 1.69398,2.06772 0.724856,0.77378 1.390518,1.5203 1.479254,1.65894 0.158638,0.24785 0.153401,0.25941 -0.3135,0.69215 -0.261159,0.24205 -0.82971,0.69611 -1.263447,1.00903 -1.020301,0.73608 -1.903373,1.57642 -2.057893,1.95831 -0.06728,0.16627 -0.09555,0.41153 -0.06282,0.54501 0.101892,0.41558 0.89707,1.21542 2.309903,2.32341 0.747493,0.5862 1.535559,1.25185 1.751258,1.47923 l 0.392174,0.41339 -0.626117,0.60993 c -0.344368,0.33546 -0.987812,0.88969 -1.429883,1.23161 -1.561579,1.20783 -2.249041,1.82315 -2.636068,2.35948 -0.215243,0.29827 -0.391352,0.57942 -0.391352,0.62476 0,0.0453 0.138544,0.2545 0.307877,0.46481 0.219157,0.27218 0.639218,0.5501 1.457729,0.96447 1.335182,0.67592 2.028114,1.11177 3.132953,1.97061 l 0.797155,0.61966 -1.477417,1.04128 c -1.89214,1.33359 -2.151881,1.53914 -2.958226,2.341 -0.420978,0.41865 -0.667095,0.74468 -0.667095,0.88372 0,0.3715 0.862418,1.42094 2.087902,2.54069 1.059503,0.96808 2.260577,2.33052 2.260577,2.56428 0,0.0521 -0.510324,0.0857 -1.161243,0.0766 l -1.161241,-0.0163 z"
       id="path3864" />
    <path
       style="opacity:0.930349;fill:#ffffff;stroke-width:0.0999942"
       d="m 95.746505,138.74228 c -0.001,-5.55288 -0.75528,-61.310431 -0.948384,-70.113131 l -0.06603,-3.00991 h 0.457962 0.457956 l 5.07e-4,1.64406 c 0.0019,5.35909 0.676183,60.845601 0.848324,69.809611 l 0.06558,3.41461 h -0.407833 -0.407829 l -5.07e-4,-1.74524 z"
       id="path3870" />
    <path
       style="opacity:0.930349;fill:#ffffff;stroke-width:0.141413"
       d="m 88.641221,162.45796 c 0,-0.3278 -0.458788,-0.45169 -0.628944,-0.16984 -0.04751,0.0787 -0.160553,0.14308 -0.251215,0.14308 -0.09066,0 0.346104,-0.4813 0.970584,-1.06956 0.647094,-0.60956 1.175286,-1.23216 1.228111,-1.44763 0.117649,-0.47986 -0.197335,-0.85983 -1.010801,-1.21933 -0.926177,-0.40931 -1.765964,-1.05456 -2.822057,-2.16833 l -0.965768,-1.0185 1.568024,-1.65347 c 1.683433,-1.77515 2.108065,-2.45626 2.11641,-3.39467 0.0069,-0.77844 -0.326125,-1.13804 -1.974162,-2.13155 -1.846826,-1.11336 -2.164498,-1.63049 -1.592024,-2.59164 0.276369,-0.464 2.11743,-2.09915 3.502315,-3.11059 1.145512,-0.83662 1.676478,-1.38947 1.676478,-1.74556 0,-0.29915 0.06871,-0.3216 1.118448,-0.3654 1.039739,-0.0434 1.118647,-0.0265 1.121192,0.2395 0.0017,0.18276 -0.75128,1.0358 -2.08403,2.36083 -1.147717,1.14107 -2.154023,2.21265 -2.236232,2.38131 -0.1198,0.24577 -0.09252,0.38076 0.137444,0.68004 0.361946,0.47106 1.605362,1.37802 3.445653,2.51329 0.787928,0.48608 1.432597,0.93096 1.432597,0.98864 0,0.0577 -0.555716,0.6005 -1.234921,1.20626 -1.407709,1.25549 -2.977299,2.8872 -3.211527,3.33864 -0.207953,0.4008 0.236957,1.04309 2.099473,3.03088 1.542334,1.64607 1.789868,2.03954 1.504505,2.39154 -0.101606,0.12534 -0.849863,0.71788 -1.662792,1.31677 -0.812929,0.59889 -1.651011,1.25074 -1.862408,1.44855 -0.381396,0.35691 -0.384353,0.35727 -0.384353,0.0467 z"
       id="path3872" />
  </g>
</svg>
