<?xml version="1.0" encoding="UTF-8" standalone="no"?>
<svg
   xmlns:dc="http://purl.org/dc/elements/1.1/"
   xmlns:cc="http://creativecommons.org/ns#"
   xmlns:rdf="http://www.w3.org/1999/02/22-rdf-syntax-ns#"
   xmlns:svg="http://www.w3.org/2000/svg"
   xmlns="http://www.w3.org/2000/svg"
   xmlns:sodipodi="http://sodipodi.sourceforge.net/DTD/sodipodi-0.dtd"
   xmlns:inkscape="http://www.inkscape.org/namespaces/inkscape"
   width="132.29167mm"
   height="132.29167mm"
   viewBox="0 0 132.29167 132.29167"
   version="1.1"
   id="svg2099"
   inkscape:version="1.0 (b51213c273, 2020-08-10)">
  <defs
     id="defs2093" />
  <sodipodi:namedview
     id="base"
     pagecolor="#ffffff"
     bordercolor="#666666"
     borderopacity="1.0"
     inkscape:pageopacity="0.0"
     inkscape:pageshadow="2"
     inkscape:zoom="0.35"
     inkscape:cx="317.55817"
     inkscape:cy="387.62871"
     inkscape:document-units="mm"
     inkscape:current-layer="layer1"
     inkscape:document-rotation="0"
     showgrid="false"
     inkscape:snap-global="false"
     fit-margin-top="0"
     fit-margin-left="0"
     fit-margin-right="0"
     fit-margin-bottom="0"
     showborder="false"
     inkscape:window-width="1318"
     inkscape:window-height="704"
     inkscape:window-x="48"
     inkscape:window-y="27"
     inkscape:window-maximized="1" />
  <metadata
     id="metadata2096">
    <rdf:RDF>
      <cc:Work
         rdf:about="">
        <dc:format>image/svg+xml</dc:format>
        <dc:type
           rdf:resource="http://purl.org/dc/dcmitype/StillImage" />
        <dc:title></dc:title>
      </cc:Work>
    </rdf:RDF>
  </metadata>
  <g
     inkscape:label="Layer 1"
     inkscape:groupmode="layer"
     id="layer1"
     transform="translate(-21.812735,-45.606569)">
    <path
       style="fill:#000000;stroke-width:1.7867"
       d="m 80.572584,173.3604 c -0.545938,-3.05366 -2.285424,-4.37257 -6.435606,-4.87363 -5.215147,-0.63026 -5.803373,-1.36232 -7.050368,-8.78138 -1.189798,-7.07826 -2.023067,-8.25645 -6.632328,-9.37487 -8.411601,-2.0426 -8.955382,-2.61989 -8.955382,-9.51325 0,-5.95098 -0.52906,-6.66498 -5.866727,-7.91989 -6.82383,-1.60387 -8.424605,-3.84471 -9.108097,-12.75218 -0.445546,-5.76842 -0.995358,-6.434 -4.919846,-5.92806 -8.33215,1.07317 -8.797293,-0.67142 -9.318039,-34.973871 l -0.473456,-31.321016 3.422682,-0.712167 c 1.882636,-0.392837 13.536233,-0.425684 25.897076,-0.0804 l 22.474175,0.646657 v 18.178478 c 0,10.485712 -0.662208,18.77924 -1.56455,19.599598 -0.860492,0.777679 -9.848818,0.720345 -19.973902,-0.139016 -17.656222,-1.497381 -18.39091,-1.74964 -17.961899,-6.167958 0.412008,-4.237542 1.566144,-4.692719 14.447264,-5.689167 12.819234,-0.992266 14.037381,-1.466325 14.441763,-5.629352 0.412133,-4.263821 -0.439919,-4.637914 -13.700948,-6.008453 -18.695088,-1.93138 -19.167982,-1.465498 -18.684962,18.397797 0.211537,8.692893 0.643173,16.188113 0.961291,16.654683 1.351857,1.98702 49.024675,3.068357 49.839472,1.13064 0.479019,-1.13803 1.28347,-12.730777 1.78962,-25.761862 0.506868,-13.032142 1.468346,-24.516645 2.13843,-25.521959 0.670615,-1.005497 2.449546,-1.481945 3.954586,-1.058604 2.433012,0.679504 2.816765,3.639811 3.472347,26.737679 l 0.73697,25.969926 24.31624,-0.81066 c 13.37396,-0.44209 24.64415,-1.25073 25.04465,-1.79301 0.4011,-0.54026 0.7324,-8.465212 0.73697,-17.605055 V 61.640558 L 133.28389,60.55733 c -5.67366,-0.597548 -13.63196,-0.597548 -17.68469,0 -6.25051,0.918531 -7.43974,1.822318 -7.83966,5.956861 -0.45671,4.707605 -0.0661,4.873633 11.37001,4.873633 10.20867,0 12.05117,0.58133 13.36952,4.200882 0.84171,2.310343 0.99308,4.688493 0.33975,5.283881 -0.97082,0.881688 -25.20249,1.98853 -32.40267,1.480108 -1.428773,-0.09886 -1.795304,-4.580671 -1.47378,-18.004777 l 0.428761,-17.870402 h 23.579399 c 31.18952,0 31.60234,0.09882 31.01639,7.264234 -0.25623,3.152797 -0.54593,17.673225 -0.63667,32.267341 l -0.16709,26.535499 h -8.10545 -8.10534 v 7.58099 c 0,7.10409 -0.3008,7.5837 -4.7897,7.6115 -9.72186,0.0804 -11.23293,1.69152 -11.71539,12.64969 -0.41769,9.52964 -0.67836,10.07794 -4.86411,10.31486 -2.43189,0.13901 -5.22471,0.37639 -6.20672,0.54025 -0.98192,0.16415 -2.49925,4.19083 -3.37243,8.95641 -1.55073,8.46553 -1.73845,8.66441 -8.162433,8.66441 -5.59218,0 -6.574661,0.64661 -6.574661,4.3325 0,6.18036 -9.620404,6.31037 -10.717186,0.14742 z"
       id="path1012" />
  </g>
</svg>
