<?xml version="1.0" encoding="UTF-8" standalone="no"?>
<svg
   xmlns:dc="http://purl.org/dc/elements/1.1/"
   xmlns:cc="http://creativecommons.org/ns#"
   xmlns:rdf="http://www.w3.org/1999/02/22-rdf-syntax-ns#"
   xmlns:svg="http://www.w3.org/2000/svg"
   xmlns="http://www.w3.org/2000/svg"
   xmlns:sodipodi="http://sodipodi.sourceforge.net/DTD/sodipodi-0.dtd"
   xmlns:inkscape="http://www.inkscape.org/namespaces/inkscape"
   width="132.29167mm"
   height="132.29167mm"
   viewBox="0 0 132.29167 132.29167"
   version="1.1"
   id="svg391"
   inkscape:version="1.0 (b51213c273, 2020-08-10)">
  <defs
     id="defs385" />
  <sodipodi:namedview
     id="base"
     pagecolor="#ffffff"
     bordercolor="#666666"
     borderopacity="1.0"
     inkscape:pageopacity="0.0"
     inkscape:pageshadow="2"
     inkscape:zoom="0.35"
     inkscape:cx="287.94652"
     inkscape:cy="348.07352"
     inkscape:document-units="mm"
     inkscape:current-layer="layer1"
     inkscape:document-rotation="0"
     showgrid="false"
     inkscape:snap-global="false"
     fit-margin-top="0"
     fit-margin-left="0"
     fit-margin-right="0"
     fit-margin-bottom="0"
     showborder="false"
     inkscape:window-width="1318"
     inkscape:window-height="704"
     inkscape:window-x="48"
     inkscape:window-y="27"
     inkscape:window-maximized="1" />
  <metadata
     id="metadata388">
    <rdf:RDF>
      <cc:Work
         rdf:about="">
        <dc:format>image/svg+xml</dc:format>
        <dc:type
           rdf:resource="http://purl.org/dc/dcmitype/StillImage" />
        <dc:title></dc:title>
      </cc:Work>
    </rdf:RDF>
  </metadata>
  <g
     inkscape:label="Layer 1"
     inkscape:groupmode="layer"
     id="layer1"
     transform="translate(-29.647483,-56.072215)">
    <path
       style="fill:#000000;stroke-width:0.585452"
       d="M 29.647483,122.21807 V 56.072215 h 66.145715 66.145952 v 66.145855 66.14581 H 95.793198 29.647483 Z M 153.5094,182.00672 c 1.59057,-0.9359 1.923,-1.43459 1.62819,-2.44238 -0.20495,-0.69634 -0.75675,-3.67328 -1.22882,-6.61522 -0.83021,-5.17456 -0.81691,-5.42542 0.40653,-7.6911 l 1.26485,-2.34218 -1.21534,-0.93649 c -2.45741,-1.89372 -3.22522,-3.72088 -2.46847,-5.8737 0.37974,-1.08086 1.18582,-2.65219 1.79121,-3.49173 1.32974,-1.84458 1.42998,-4.68808 0.20726,-5.86851 -1.19262,-1.15108 -1.12909,-2.61606 0.16213,-3.75344 1.42501,-1.25459 2.63131,-4.02262 2.11599,-4.85588 -0.22996,-0.37172 -0.90384,-1.01394 -1.49753,-1.4274 -0.59344,-0.41324 -1.07928,-1.0063 -1.07928,-1.31739 0,-0.31132 -0.58263,-1.32675 -1.29502,-2.2565 -1.25768,-1.64195 -1.26354,-1.72438 -0.20496,-2.85263 0.59907,-0.63914 1.45406,-1.16194 1.89953,-1.16194 0.44573,0 1.32209,-0.81218 1.94754,-1.80478 1.45452,-2.30872 0.90178,-3.83393 -2.49799,-6.89393 l -2.5259,-2.27346 1.04078,-1.7502 c 1.15069,-1.93546 1.36623,-4.27091 0.44481,-4.82065 -1.24391,-0.74196 -0.52993,-2.53395 1.48966,-3.73871 1.14708,-0.68435 2.08579,-1.45173 2.08579,-1.70544 0,-0.25389 -1.07274,-1.39674 -2.38378,-2.54 -2.68672,-2.34282 -2.90517,-2.96609 -1.19167,-3.39845 1.31984,-0.333295 1.64955,-2.45351 0.44686,-2.873935 -0.59597,-0.208675 -0.59597,-0.503896 0,-1.478046 1.19257,-1.949792 0.86508,-3.086316 -1.65475,-5.740224 -2.63828,-2.778888 -2.75202,-3.096943 -1.47387,-4.120831 1.05858,-0.84786 1.16239,-2.386542 0.22299,-3.293951 -0.99956,-0.964565 -0.11712,-3.498468 1.82545,-5.244965 1.37681,-1.23763 1.83624,-2.343722 2.42546,-5.840425 0.39975,-2.372841 1.09865,-5.186772 1.55315,-6.253481 0.4545,-1.066754 0.82632,-2.425654 0.82632,-3.019802 0,-1.725653 -2.45582,-1.316531 -4.78445,0.796946 -4.05539,3.680645 -3.88604,3.658489 -5.65472,0.745036 -1.83445,-3.021339 -2.84099,-3.230874 -5.1707,-1.07652 -1.88378,1.741931 -2.10475,2.480637 -0.74237,2.480637 0.51104,0 0.76331,0.258911 0.56084,0.575203 -0.43628,0.681507 -2.68157,0.77913 -2.68157,0.117382 0,-0.252174 -1.32655,-0.417803 -2.94794,-0.368019 -1.81037,0.05435 -3.05292,-0.173904 -3.22031,-0.59546 -0.40695,-1.023662 -4.87744,-1.030852 -5.75585,0 -1.03558,1.204575 -1.93288,1.071773 -3.92384,-0.58108 -2.16847,-1.79999 -2.90091,-1.800216 -4.76511,0 -1.71443,1.654753 -1.84911,1.688258 -2.88488,0.718901 -1.77074,-1.65715 -4.52099,-3.882403 -4.79799,-3.882403 -0.72139,0 -3.46128,2.705456 -3.932,3.882403 -0.28468,0.711757 -0.72546,1.288045 -0.97927,1.280856 -0.74233,-0.0217 -4.931082,-3.84216 -4.931082,-4.497803 0,-0.328681 -0.30947,-0.782386 -0.68784,-1.008063 -0.378381,-0.225632 -0.53808,-0.176074 -0.354724,0.110871 0.182419,0.286313 -0.579722,1.413929 -1.695506,2.505643 -1.115971,1.091759 -2.029051,2.28937 -2.029051,2.661323 0,1.009329 -1.520488,2.034123 -2.457225,1.65611 -0.451083,-0.18263 -1.624768,-1.339366 -2.608071,-2.571523 -0.983349,-1.232203 -2.113515,-2.252429 -2.511708,-2.266988 -0.824774,-0.0303 -1.898912,1.696759 -1.59324,2.56153 0.112571,0.316291 -0.312418,1.22239 -0.942593,2.013277 l -1.145953,1.437804 -2.455164,-2.300631 c -2.710383,-2.539781 -2.299775,-2.629355 -5.088532,1.110841 -0.797276,1.069377 -0.872042,1.072406 -2.007876,0.08044 -0.922075,-0.805447 -1.78873,-0.958687 -3.968017,-0.701087 -1.533558,0.180461 -3.243914,0.727629 -3.800682,1.213935 -1.566678,1.368487 -2.557856,1.050658 -4.459248,-1.430026 -1.783765,-2.327171 -3.312123,-2.984352 -3.312123,-1.424328 0,0.47455 -0.402269,0.862826 -0.893919,0.862826 -0.491698,0 -1.424126,0.511719 -2.072103,1.137384 -0.648164,0.625438 -1.567991,0.993051 -2.044136,0.816525 -1.05924,-0.392392 -2.215546,-3.397409 -1.754063,-4.558485 0.449114,-1.12956 -0.332889,-1.071728 -1.703797,0.126109 -1.334697,1.16587 -5.235583,1.221712 -10.798011,0.154325 -2.099977,-0.403017 -4.255372,-0.570635 -4.790075,-0.372586 -1.739166,0.644339 -1.052026,2.575186 1.709466,4.803243 2.793488,2.253694 3.277691,3.070445 1.82096,3.070445 -0.473428,0 -1.603828,0.616938 -2.511942,1.370836 l -1.651563,1.371109 1.506293,1.295008 c 0.828382,0.712165 2.562161,1.863881 3.852915,2.559315 1.290521,0.695434 2.655198,1.855651 3.032451,2.57826 0.607408,1.163926 0.454502,1.509789 -1.34102,3.031333 -2.493251,2.113025 -2.541409,3.207814 -0.235122,5.340417 1.966231,1.818258 1.934001,2.80828 -0.182419,5.570211 l -1.202262,1.569563 1.878581,1.854792 c 1.825693,1.802387 1.850708,1.895853 0.88694,3.315883 -0.545478,0.80346 -1.482636,1.96933 -2.082409,2.59083 -0.599772,0.62132 -1.090533,1.47827 -1.090533,1.90435 0,0.96199 1.794585,3.7383 2.816442,4.35741 1.141878,0.69195 0.915516,2.54588 -0.543041,4.45 -1.749098,2.28368 -1.896149,6.90673 -0.246177,7.7441 2.600481,1.31979 2.525667,2.32089 -0.422741,5.65196 -3.342104,3.77587 -3.564858,5.46938 -1.008552,7.66782 1.647956,1.41718 2.405179,3.86499 1.336476,4.31915 -0.951353,0.40392 -4.315991,5.00369 -4.315991,5.89997 0,0.51783 0.938518,1.73673 2.085595,2.70894 2.393233,2.02824 2.555649,2.78522 0.905631,4.2265 -2.215077,1.93501 -2.310831,7.42198 -0.141897,8.18524 0.563748,0.19782 1.597972,0.7841 2.298417,1.30129 l 1.273421,0.94019 -1.418223,5.14504 c -1.59413,5.78259 -1.924537,11.35 -0.75474,12.71061 1.159445,1.3485 4.402469,0.68739 10.451817,-2.12998 2.895051,-1.3485 5.724095,-2.53783 6.286484,-2.64306 0.562389,-0.10435 2.637583,0.72262 4.611686,1.83938 3.290339,1.8613 3.779742,1.98086 5.876579,1.43586 1.258103,-0.32696 3.00631,-1.37306 3.884724,-2.32455 1.758092,-1.9048 3.968017,-2.2574 5.195716,-0.82936 0.426113,0.49521 1.540726,1.28302 2.477229,1.75043 1.578624,0.78803 1.842369,0.75367 3.618918,-0.46936 1.586027,-1.09193 7.256529,-3.9074 7.86984,-3.9074 0.09683,0 0.358093,0.71175 0.583095,1.58177 0.663718,2.56714 2.022071,3.59478 4.751333,3.59478 1.866916,0 2.96195,-0.41174 4.525912,-1.70218 1.13471,-0.93608 2.40991,-1.71264 2.83359,-1.72543 0.42386,-0.0217 2.22477,1.03628 4.00221,2.33174 1.77749,1.29519 3.48761,2.26585 3.80026,2.15694 0.31261,-0.10871 1.46146,-1.48978 2.5527,-3.06847 1.09142,-1.5787 2.38714,-2.94433 2.87926,-3.03459 0.56576,-0.10431 1.40745,0.87784 2.28853,2.66892 1.10876,2.25438 1.7403,2.88217 3.09209,3.07371 1.88833,0.26741 5.43786,-1.19458 7.54979,-3.10956 1.21847,-1.10501 1.4653,-1.14828 2.1196,-0.37263 2.41015,2.85652 11.84165,6.72111 16.53223,6.77352 1.69794,0.0217 3.41438,-0.40135 4.68017,-1.14612 z M 44.06638,171.97108 c 2.194605,-5.80022 3.042803,-10.39108 2.200461,-11.91023 -0.343008,-0.6187 -1.414193,-1.44562 -2.380398,-1.83783 l -1.756968,-0.71303 2.101803,-2.65676 c 2.96621,-3.74978 2.747719,-5.2654 -1.090346,-7.56454 l -1.702017,-1.01977 1.761043,-1.81586 c 4.374315,-4.51087 4.677269,-6.2637 1.643226,-9.50525 -1.147029,-1.22564 -2.085782,-2.4067 -2.085782,-2.62456 0,-0.21781 0.938753,-1.58259 2.085782,-3.0326 2.443499,-3.08912 2.894394,-6.61435 0.972528,-7.60718 -1.710591,-0.88367 -2.129958,-4.00562 -0.733754,-5.46173 2.006754,-2.09281 1.856751,-4.97823 -0.370038,-7.11522 -2.195729,-2.10737 -2.174789,-2.66585 0.184668,-4.94346 2.438956,-2.35412 2.501776,-3.1413 0.485795,-6.081929 l -1.546394,-2.255232 1.546394,-1.956756 c 0.850448,-1.076069 1.546162,-2.159779 1.546162,-2.407793 0,-0.248286 -0.918,-1.432197 -2.040061,-2.630893 -1.160802,-1.240205 -1.950911,-2.633696 -1.833327,-3.233271 0.114867,-0.579317 0.227251,-1.216286 0.252455,-1.415194 0.02483,-0.197823 0.850024,-0.683271 1.833327,-1.076295 1.799784,-0.71958 2.327039,-1.911087 1.154946,-2.610229 -0.347973,-0.206505 -0.8905,-1.031937 -1.205587,-1.832184 -0.474131,-1.203444 -0.249363,-1.941517 1.3027,-4.275833 1.93311,-2.907846 3.776556,-4.348046 4.37319,-3.416535 0.184668,0.287172 1.555857,1.213256 3.048847,2.057589 l 2.71441,1.535653 2.585398,-2.044793 c 2.279959,-1.803246 2.675435,-1.939755 3.349742,-1.155425 1.10632,1.286327 3.686049,2.428051 4.72477,2.090869 0.491698,-0.158665 1.603641,-1.094788 2.470952,-2.078027 l 1.576797,-1.787827 1.854736,1.869353 c 2.660351,2.68131 4.620491,2.540188 5.911058,-0.425445 0.915516,-2.104117 1.892541,-3.033051 1.892541,-1.799763 0,0.777367 3.701134,4.094559 4.568726,4.094559 0.421851,0 1.195469,-0.631543 1.719585,-1.403257 1.032632,-1.521319 1.939622,-1.448474 4.369348,0.350837 2.166217,1.604156 3.265558,1.289809 5.367829,-1.535832 1.059194,-1.423696 2.244357,-2.587622 2.633551,-2.586761 0.38939,0 1.244152,0.778903 1.899762,1.728908 1.71532,2.485883 2.97975,2.662182 5.45899,0.761315 3.86444,-2.962604 3.72817,-2.939995 5.50542,-0.909988 2.16893,2.477382 4.0232,2.437138 6.61487,-0.143474 1.11195,-1.107177 2.23939,-2.01305 2.50586,-2.01305 0.26646,0 1.32635,0.776508 2.35519,1.725427 1.02884,0.949145 2.19006,1.725654 2.58038,1.725654 0.39056,0 1.69935,-1.03239 2.90859,-2.293938 l 2.19887,-2.293893 1.91934,1.896076 c 1.05563,1.042834 2.3633,2.057634 2.90611,2.255005 1.00382,0.365216 2.88647,-1.121511 2.88647,-2.279106 0,-0.336775 0.40227,-0.761315 0.89392,-0.943267 0.49165,-0.182631 0.89392,-0.134791 0.89392,0.104315 0,0.239151 0.56712,0.475906 1.26059,0.526323 0.69323,0.05001 1.69888,0.475636 2.23466,0.944986 4.68176,4.101749 4.42027,3.682815 3.13111,5.018474 -0.64372,0.666992 -1.50902,2.00152 -1.92276,2.965452 -0.66578,1.551296 -0.59663,2.013684 0.60001,4.020856 l 1.35226,2.267847 -1.24213,1.276289 c -1.74526,1.793026 -1.56598,3.851293 0.50201,5.763692 2.25138,2.081961 3.39981,4.660448 2.52726,5.674977 -0.35224,0.409799 -0.60699,1.250876 -0.56619,1.868945 0.0408,0.618022 -0.10587,1.649778 -0.32478,2.292349 -0.29888,0.8759 0.12386,1.64418 1.68557,3.06656 2.19212,1.99564 2.61215,2.95478 1.2946,2.95478 -0.43445,0 -1.39864,0.62521 -2.14233,1.38933 -1.22119,1.25477 -1.28199,1.57762 -0.62661,3.32741 0.63223,1.68695 0.56014,2.28933 -0.55672,4.65561 -1.5374,3.25742 -1.14778,4.3272 2.3536,6.46067 1.29684,0.79021 2.35786,1.66262 2.35786,1.93889 0,1.21719 -1.84326,3.73283 -4.10293,5.59978 -1.34866,1.11415 -2.4509,2.1998 -2.44931,2.41241 0,0.21306 1.06374,1.73759 2.36082,3.38868 2.28244,2.90608 2.33172,3.06285 1.53355,4.88915 -0.45337,1.03759 -1.38177,2.45826 -2.06282,3.15695 -1.2953,1.32847 -1.68605,3.61892 -0.61734,3.61892 0.81147,0 2.73085,1.84955 2.68579,2.58826 -0.0225,0.31629 -0.95656,2.28738 -2.08265,4.37996 l -2.04755,3.80482 1.94932,2.37587 c 1.62547,1.98063 1.88111,2.67674 1.53763,4.1863 -0.52885,2.32392 -3.06801,4.48022 -5.30337,4.50346 -1.3027,0.0217 -7.02187,5.4824 -7.02187,5.4824 l -1.67949,-1.9398 c -1.24278,-1.43541 -2.28038,-2.00695 -3.99008,-2.19758 -2.23962,-0.2496 -2.35922,-0.17174 -3.88491,2.53412 -1.03446,1.83436 -1.99415,2.82216 -2.79911,2.88063 -0.67388,0.05 -1.22498,-0.10649 -1.22498,-0.34672 0,-0.23979 -0.80904,-1.31066 -1.79801,-2.37958 -1.50334,-1.62541 -2.33491,-2.00084 -5.0779,-2.29217 -2.60362,-0.27673 -3.46217,-0.15433 -4.16261,0.59261 -0.48538,0.51759 -0.71309,1.10455 -0.50608,1.30414 0.2072,0.19999 -0.32005,0.66957 -1.1712,1.04369 -1.40628,0.61848 -1.7707,0.48586 -3.99524,-1.45412 -2.7784,-2.42263 -2.97342,-2.37936 -7.508562,1.65891 -2.722984,2.42479 -3.863971,2.39305 -4.712403,-0.13045 -0.994124,-2.95781 -1.697286,-3.36499 -4.290319,-2.48367 -1.228823,0.4178 -2.77072,1.2152 -3.426099,1.77214 -0.65566,0.55698 -2.171651,1.34565 -3.369181,1.75219 -2.057206,0.69892 -2.341422,0.63783 -5.157209,-1.10609 -3.636673,-2.25261 -5.167983,-2.04109 -8.29614,1.14543 -1.206759,1.22913 -2.521639,2.2348 -2.921612,2.2348 -0.40002,0 -2.297527,-1.04564 -4.216443,-2.32392 l -3.488968,-2.32369 -2.254055,0.9089 c -1.239644,0.50001 -3.349787,1.67524 -4.688745,2.61155 -1.339194,0.93629 -2.70879,1.70236 -3.04346,1.70236 -0.334716,0 -1.051369,0.38696 -1.592819,0.8598 -0.541448,0.47282 -5.014841,-3.79455 -4.057445,-6.32543 z m 54.486202,-40.23067 4.159108,1.73718 5.41331,-0.43263 c 0,0 4.61469,-3.98175 7.47994,-8.92367 2.20857,-3.80929 2.50557,-8.99606 4.24249,-8.37813 1.4928,0.53112 2.96743,-2.5726 2.48955,-3.16806 -0.97337,-1.21303 2.64742,-2.72291 2.69989,-3.52953 0.17694,-2.72061 2.44687,-2.62927 2.12129,-4.7923 -0.48542,-3.22532 0.7664,-6.56019 3.04093,-7.394982 1.71963,-0.630864 3.73266,-2.413038 3.73266,-3.304352 0,-0.290653 -1.34074,-1.085201 -2.97947,-1.765668 -1.63877,-0.680423 -2.97975,-1.562377 -2.97975,-1.959741 0,-0.39741 1.47501,-2.12849 3.2777,-3.846953 1.8025,-1.718282 3.2775,-3.468941 3.2775,-3.890226 0,-0.421329 -0.71647,-1.406738 -1.59193,-2.190029 l -1.59165,-1.423695 -1.66463,1.53936 c -0.91533,0.846549 -1.49683,1.823276 -1.29212,2.170224 0.20496,0.346949 0.14865,0.435845 -0.12386,0.197824 -0.27208,-0.238474 -1.13967,-0.02623 -1.92748,0.472606 -1.12319,0.710219 -1.816,0.777185 -3.20565,0.309779 -2.10517,-0.708456 -5.2894,-0.219797 -5.2894,0.811732 0,1.310653 -1.86013,1.456117 -3.57254,0.279123 -1.79276,-1.232157 -3.57835,-1.520188 -3.57835,-0.577146 0,0.316291 -0.61107,0.575202 -1.35812,0.575202 -0.74706,0 -1.74484,0.517597 -2.21733,1.15045 -1.16464,1.559572 -1.98651,1.451731 -4.37816,-0.575247 -1.95859,-1.659772 -3.365342,-2.199751 -3.371612,-1.294105 0,0.237162 -0.641936,1.202405 -1.423238,2.144542 -1.355636,1.635445 -1.497721,1.675869 -3.12544,0.887605 -0.938049,-0.454112 -2.129255,-1.161076 -2.647515,-1.570831 -0.798869,-0.631543 -1.206993,-0.484588 -2.681525,0.965876 -1.688526,1.660631 -3.82523,2.320389 -3.82523,1.180835 0,-1.031077 -2.978811,-2.544754 -3.6786,-1.869351 -0.350926,0.338719 -1.02345,0.473057 -1.494817,0.298476 -0.475021,-0.176074 -1.657888,0.420651 -2.654729,1.33914 l -1.798193,1.656517 -1.415318,-1.581728 c -0.778397,-0.870017 -1.696162,-1.581729 -2.039639,-1.581729 -0.343476,0 -0.624554,-0.373039 -0.624554,-0.828914 0,-1.656289 -1.33404,-1.554146 -3.70296,0.283464 -2.770487,2.148928 -3.709004,1.943463 -5.356727,-1.172833 -1.754956,-3.318684 -3.398416,-3.467584 -5.012829,-0.454112 -0.851385,1.588692 -0.834942,1.805235 0.22294,2.949988 0.627505,0.679563 1.754064,2.096296 2.503182,3.14849 l 1.362148,1.913256 -1.896617,1.888886 -1.896851,1.888706 1.855627,2.653907 c 1.020498,1.459597 2.109485,2.805244 2.419844,2.990234 1.055399,0.62955 4.396472,2.4398 2.339267,3.88068 -1.129041,0.79089 -0.213713,2.46404 1.006069,3.33876 3.250239,2.3307 4.073749,2.83437 5.469205,4.4279 7.30492,8.34182 4.45681,4.0384 4.45681,5.12993 0,0.30562 2.197041,1.86633 3.194773,2.67675 0.997778,0.81024 3.621682,1.41185 3.688953,2.13228 0.08034,0.86052 4.872946,3.6329 9.182237,5.95989 3.544152,1.9138 6.761411,3.52637 6.761411,3.52637 z M 68.938969,103.64257 C 68.767043,101.5058 66.8723,99.638713 64.998451,97.489379 l -1.5775,-1.809576 3.195943,-3.123484 c 2.858558,-2.793899 5.322295,-4.005212 5.322295,-2.616739 0,0.278942 0.919357,1.183729 2.043011,2.011105 l 2.043011,1.503911 2.729543,-2.01088 c 1.501094,-1.106093 2.974548,-2.011062 3.274318,-2.011062 0.299534,0 1.305182,0.734094 2.234659,1.631059 0.929523,0.897192 2.340765,1.967383 3.136074,2.378267 1.311929,0.677618 1.578578,0.598489 2.869566,-0.849984 1.413304,-1.585889 1.445722,-1.591766 4.663964,-0.84655 3.06262,0.709135 3.316011,0.68196 4.612383,-0.493676 1.678602,-1.521952 1.589642,-1.521726 4.892812,-0.02396 l 2.69076,1.220853 1.19233,-1.326932 c 0.65589,-0.729798 1.34823,-1.926325 1.53852,-2.658701 0.43178,-1.660224 0.54009,-1.656064 2.70945,0.106532 2.10049,1.705621 3.70474,1.833041 4.77391,0.37869 0.42813,-0.582392 1.38735,-1.370883 2.13127,-1.75197 1.23604,-0.632809 1.63493,-0.416085 4.61847,2.510029 1.79595,1.761509 3.26556,3.449543 3.26556,3.751048 0,0.301776 -0.51465,1.365003 -1.14323,2.363074 -1.19055,1.889337 -7.58605,3.09554 -6.03534,6.086627 0.87316,1.68415 0.34591,2.82804 -0.8327,5.12763 -1.36917,2.67086 -5.19848,4.60913 -3.15795,5.23434 0.61266,0.18692 -2.0885,1.83051 -1.52747,2.42877 0.85495,0.91198 -1.49776,2.32414 -2.11604,3.4391 -0.17905,0.32285 -4.05581,2.89573 -4.06433,4.35189 -0.0206,3.52392 -2.80014,7.02013 -4.39854,7.03369 -3.06412,0.0262 -5.748032,-2.89889 -7.371816,-4.10337 -0.446725,-0.3314 -2.141294,0.20722 -3.575304,-2.61172 -0.473756,-0.93133 -2.068777,-1.11397 -3.499086,-1.71322 -1.587572,-0.6651 -3.0087,-2.19582 -4.411698,-3.53953 -2.028067,-1.94242 -1.46268,-2.62334 -5.399918,-3.83836 -2.91215,-0.89868 -4.48876,-3.96144 -6.165574,-4.8911 -4.512463,-2.50161 -5.049181,-4.55563 -4.720835,-5.18261 z"
       id="path1543"
       sodipodi:nodetypes="cccccccccccsscssssssssssssscssssssssssssssssssssscscsssssssssssssssscssssssssssssssssscsssssscssssssssssssssscssscsssssssssscsssssssscccssscsscssssssssscssscsscsssscsscscssssssscsssssssscsssssssssscssssssssssssscsssscscssccssscsssssssssssssssscssssscccsssssssssssscssssssssssscsssssssscsssssssscccsssssssssccscssscsssssssscsssssssssssssssssssssc" />
  </g>
</svg>
