<?xml version="1.0" encoding="UTF-8" standalone="no"?>
<svg
   xmlns:dc="http://purl.org/dc/elements/1.1/"
   xmlns:cc="http://creativecommons.org/ns#"
   xmlns:rdf="http://www.w3.org/1999/02/22-rdf-syntax-ns#"
   xmlns:svg="http://www.w3.org/2000/svg"
   xmlns="http://www.w3.org/2000/svg"
   xmlns:sodipodi="http://sodipodi.sourceforge.net/DTD/sodipodi-0.dtd"
   xmlns:inkscape="http://www.inkscape.org/namespaces/inkscape"
   width="132.29167mm"
   height="132.29167mm"
   viewBox="0 0 132.29167 132.29167"
   version="1.1"
   id="svg350"
   inkscape:version="1.0 (b51213c273, 2020-08-10)">
  <defs
     id="defs344" />
  <sodipodi:namedview
     id="base"
     pagecolor="#ffffff"
     bordercolor="#666666"
     borderopacity="1.0"
     inkscape:pageopacity="0.0"
     inkscape:pageshadow="2"
     inkscape:zoom="0.35"
     inkscape:cx="275.69937"
     inkscape:cy="262.31631"
     inkscape:document-units="mm"
     inkscape:current-layer="layer1"
     inkscape:document-rotation="0"
     showgrid="false"
     inkscape:snap-global="false"
     fit-margin-top="0"
     fit-margin-left="0"
     fit-margin-right="0"
     fit-margin-bottom="0"
     showborder="false"
     inkscape:window-width="1318"
     inkscape:window-height="704"
     inkscape:window-x="48"
     inkscape:window-y="27"
     inkscape:window-maximized="1" />
  <metadata
     id="metadata347">
    <rdf:RDF>
      <cc:Work
         rdf:about="">
        <dc:format>image/svg+xml</dc:format>
        <dc:type
           rdf:resource="http://purl.org/dc/dcmitype/StillImage" />
        <dc:title></dc:title>
      </cc:Work>
    </rdf:RDF>
  </metadata>
  <g
     inkscape:label="Layer 1"
     inkscape:groupmode="layer"
     id="layer1"
     transform="translate(-32.887874,-78.762142)">
    <path
       id="path1162"
       style="fill:#000000;stroke-width:2.19097"
       d="m 64.588621,78.762142 -10.102814,3.618611 c -4.833991,3.450476 -4.988005,4.079615 -3.053074,16.322291 1.230316,7.783696 -1.651801,9.059166 -2.256564,10.298906 -0.879934,1.8035 -0.367067,1.72435 -3.824941,6.4935 -7.322859,10.10052 -2.576656,16.84276 16.978263,24.11769 8.273383,3.07691 18.050714,5.59523 21.730368,5.59523 4.733112,0 8.393001,1.79946 12.51468,6.1564 3.205294,3.38573 4.795741,6.83113 3.531531,7.65544 -1.263167,0.82432 -25.180276,4.40822 -28.436392,4.30111 -3.948152,-0.13002 -9.828156,-2.97093 -11.502033,-4.35031 -2.321764,-1.91332 -10.826424,-15.74651 -24.306254,-13.5512 -11.446588,1.8641 13.614079,18.23882 16.916912,19.59199 3.04255,1.24646 5.482134,4.23946 11.142924,3.87656 1.386127,0.61433 15.252791,-0.78235 20.101156,0.27298 3.161139,0.68798 3.901691,3.55138 3.956109,5.27138 0.01027,0.30188 -8.379139,27.12147 4.323177,33.57892 11.314391,5.75207 19.543881,1.54275 25.660811,1.7458 8.9495,0.29691 18.01811,-24.84027 17.01239,-27.63188 l -2.23243,-6.19691 c 0,0 2.59488,-8.0203 -0.73952,-10.31952 -2.48015,-1.71006 0.50234,-5.05248 -8.85941,-5.07486 -10.76559,-0.0147 -8.67176,-5.27066 -8.67176,-10.62078 0,-6.00557 2.55843,-3.74303 20.91666,-7.738 11.50845,-2.50402 18.17341,-7.65275 26.4337,-20.41775 4.44998,-6.78679 4.45923,-8.30323 0.13014,-11.8053 -3.7084,-2.99848 -4.03158,-4.72398 -1.27729,-6.8015 2.64494,-1.99536 2.54559,-5.23015 -0.35192,-11.428305 -5.46699,-11.691338 -9.26678,-13.889646 -12.03801,-6.965076 -3.64961,9.121014 -11.40423,14.950678 -18.28917,13.74917 -15.97538,-2.788185 -39.246397,-3.933233 -49.181592,-2.419694 -9.575316,1.458737 -10.352318,1.322301 -12.221536,-2.15024 -1.09735,-2.039601 -2.216263,-1.687788 -4.1725,-3.776803 -1.955465,-2.089016 -0.50953,-0.424951 -1.692101,-6.173499 z M 100.3928,99.275827 c 17.97499,0 26.27019,1.468993 41.79739,7.399873 9.3407,3.56826 11.20708,5.30215 11.20708,10.40975 0,7.47487 -6.98402,13.73435 -21.78246,19.5232 -18.43909,7.21288 -41.692402,6.93907 -61.915486,-0.72963 -18.137989,-6.87795 -22.335131,-14.65657 -14.585139,-22.79135 1.377913,-1.44641 1.435668,-4.56765 3.688382,-5.9056 10.233213,-6.07767 19.850626,-7.906243 41.590233,-7.906243 z m 1.89771,12.995613 c -1.55631,0.002 -3.236597,0.0922 -5.035233,0.27443 -15.458142,1.56606 -18.19446,9.76341 -4.506453,13.50261 10.353596,2.82817 22.711946,-0.69172 22.711946,-6.46844 0,-4.73558 -4.76699,-7.31761 -13.17026,-7.3086 z" />
  </g>
</svg>
