<?xml version="1.0" encoding="UTF-8" standalone="no"?>
<svg
   xmlns:dc="http://purl.org/dc/elements/1.1/"
   xmlns:cc="http://creativecommons.org/ns#"
   xmlns:rdf="http://www.w3.org/1999/02/22-rdf-syntax-ns#"
   xmlns:svg="http://www.w3.org/2000/svg"
   xmlns="http://www.w3.org/2000/svg"
   xmlns:sodipodi="http://sodipodi.sourceforge.net/DTD/sodipodi-0.dtd"
   xmlns:inkscape="http://www.inkscape.org/namespaces/inkscape"
   width="132.29167mm"
   height="132.29169mm"
   viewBox="0 0 132.29167 132.29169"
   version="1.1"
   id="svg720"
   inkscape:version="1.0 (b51213c273, 2020-08-10)">
  <defs
     id="defs714" />
  <sodipodi:namedview
     id="base"
     pagecolor="#ffffff"
     bordercolor="#666666"
     borderopacity="1.0"
     inkscape:pageopacity="0.0"
     inkscape:pageshadow="2"
     inkscape:zoom="0.35"
     inkscape:cx="267.14287"
     inkscape:cy="107.14289"
     inkscape:document-units="mm"
     inkscape:current-layer="layer1"
     inkscape:document-rotation="0"
     showgrid="false"
     inkscape:snap-global="false"
     fit-margin-top="0"
     fit-margin-left="0"
     fit-margin-right="0"
     fit-margin-bottom="0"
     showborder="false"
     inkscape:window-width="1318"
     inkscape:window-height="704"
     inkscape:window-x="48"
     inkscape:window-y="27"
     inkscape:window-maximized="1" />
  <metadata
     id="metadata717">
    <rdf:RDF>
      <cc:Work
         rdf:about="">
        <dc:format>image/svg+xml</dc:format>
        <dc:type
           rdf:resource="http://purl.org/dc/dcmitype/StillImage" />
        <dc:title></dc:title>
      </cc:Work>
    </rdf:RDF>
  </metadata>
  <g
     inkscape:label="Layer 1"
     inkscape:groupmode="layer"
     id="layer1"
     transform="translate(-35.151782,-119.81844)">
    <path
       style="fill:#000000;stroke-width:1.71875"
       d="m 36.265491,181.92886 c 0.719,-9.48031 1.0199,-26.79311 0.6688,-38.47301 -0.4418,-14.6847 -0.055,-21.7542 1.2465,-22.9158 1.1583,-1.0321 11.6145,-0.952 27.121101,0.2078 27.554398,2.0611 58.547158,2.2147 79.044348,0.3916 11.3547,-1.01 13.6074,-0.7122 16.86774,2.2299 3.57425,3.2254 3.75061,4.4645 3.51806,24.71591 -0.13476,11.72619 0.59936,38.8449 1.63138,60.26372 1.46947,30.50015 1.44566,39.52155 -0.10953,41.60997 -1.69095,2.27055 -8.78872,2.53169 -47.8055,1.75863 -62.973199,-1.24774 -79.374299,-2.12792 -81.384299,-4.36782 -2.1257,-2.36903 -2.6047,-41.60661 -0.7986,-65.421 z m 11.127,36.03676 c 18.3249,5.24732 56.307699,7.02845 95.802659,4.49243 13.85803,-0.88984 18.6913,-1.83901 19.36782,-3.80372 1.7102,-4.96657 -3.73479,-5.94068 -30.50758,-5.45784 -31.4491,0.56713 -72.660899,-1.65159 -82.870599,-4.46164 -6.3142,-1.73786 -7.4236,-1.57326 -9.3678,1.38991 -2.7168,4.14043 -1.7106,5.18182 7.5755,7.84086 z m -5.9156,-65.01077 c 10.4749,2.7302 98.782019,12.43321 114.593439,12.5913 4.80453,0.048 5.29146,-0.44779 5.29146,-5.3903 0,-5.9007 0.0246,-5.8888 -12.50855,-5.47199 -4.64103,0.1543 -16.67035,-1.06961 -26.73187,-2.71991 -10.06148,-1.6503 -20.00998,-2.6349 -22.10758,-2.188 -3.662698,0.7802 -49.939099,-5.0517 -52.291399,-6.5899 -0.6292,-0.4115 -2.7356,-0.077 -4.6809,0.7425 -2.551399,1.0755 -3.292299,2.5326 -2.6593,5.23031 0.482501,2.05659 0.9752,3.76489 1.0947,3.79599 z m 2.2522,22.3922 c 1.5671,0.5061 10.1759,1.436 19.130702,2.066 8.954698,0.6302 19.211898,1.8377 22.793798,2.6838 3.5819,0.846 21.888299,1.80851 40.680949,2.13871 30.24414,0.5315 34.22575,0.2682 34.66825,-2.29161 0.43014,-2.4878 -2.63908,-3.0613 -21.95737,-4.1032 -12.35151,-0.66589 -24.28893,-1.556 -26.52763,-1.97739 -2.2387,-0.42101 -10.2493,-1.2729 -17.801399,-1.8923 -7.552,-0.61931 -14.282,-1.50581 -14.955499,-1.96971 -2.115101,-1.4567 -35.724601,-4.5476 -37.341401,-3.4341 -2.6022,1.7923 -1.705099,7.8059 1.3096,8.7798 z m -1.5671,18.7207 c 0.677601,1.18771 7.0772,2.99901 14.2212,4.0251 7.144,1.02601 15.5534,2.7455 18.687501,3.8211 4.9129,1.68601 66.431668,2.5303 82.214478,1.1284 5.30635,-0.47109 7.72674,-5.89689 3.8298,-8.58489 -1.20745,-0.83281 -12.81894,-1.4592 -25.80329,-1.39191 -29.07339,0.1509 -73.141989,-3.4579 -83.018389,-6.7979 -6.5903,-2.22869 -7.5516,-2.1709 -9.3782,0.56441 -2.3513,3.5212 -2.4317,4.2935 -0.7531,7.2355 z m 3.1953,42.89937 c 2.4626,1.3825 6.309,2.99753 8.5477,3.589 5.9945,1.5837 101.780499,3.67761 106.597759,2.33022 4.84102,-1.35403 5.3962,-5.63353 1.06586,-8.21625 -1.73296,-1.03358 -18.42626,-1.92129 -38.66814,-2.05639 -19.59028,-0.13098 -45.464678,-0.92701 -57.498579,-1.76947 -12.034,-0.84253 -22.4744,-1.12239 -23.201,-0.62199 -2.4935,1.71743 -1.3158,4.23424 3.1564,6.74488 z m 5.2914,-100.94637 c 4.0297,0.2907 14.653201,1.392 23.608,2.4475 8.954701,1.0554 32.216599,2.399 51.693189,2.9859 l 35.41191,1.0669 v -4.7907 c 0,-2.6349 -0.18337,-4.8087 -0.40675,-4.8307 -0.22399,-0.021 -19.08986,-1.2337 -41.92445,-2.6925 -22.834499,-1.4588 -48.2274,-3.1897 -56.428599,-3.8465 -17.2194,-1.379 -20.5354,-0.5205 -19.8008,5.1256 0.4369,3.3552 1.7114,4.0918 7.8478,4.5345 z"
       id="path619"
       sodipodi:nodetypes="sssssssssssssssssssssssssssssssssssssssssssssssssssssssssssssscsssssss" />
  </g>
</svg>
