<?xml version="1.0" encoding="UTF-8" standalone="no"?>
<svg
   xmlns:dc="http://purl.org/dc/elements/1.1/"
   xmlns:cc="http://creativecommons.org/ns#"
   xmlns:rdf="http://www.w3.org/1999/02/22-rdf-syntax-ns#"
   xmlns:svg="http://www.w3.org/2000/svg"
   xmlns="http://www.w3.org/2000/svg"
   xmlns:sodipodi="http://sodipodi.sourceforge.net/DTD/sodipodi-0.dtd"
   xmlns:inkscape="http://www.inkscape.org/namespaces/inkscape"
   width="132.29167mm"
   height="132.29167mm"
   viewBox="0 0 132.29167 132.29167"
   version="1.1"
   id="svg638"
   inkscape:version="1.0 (b51213c273, 2020-08-10)">
  <defs
     id="defs632" />
  <sodipodi:namedview
     id="base"
     pagecolor="#ffffff"
     bordercolor="#666666"
     borderopacity="1.0"
     inkscape:pageopacity="0.0"
     inkscape:pageshadow="2"
     inkscape:zoom="0.35"
     inkscape:cx="206.22489"
     inkscape:cy="274.48225"
     inkscape:document-units="mm"
     inkscape:current-layer="layer1"
     inkscape:document-rotation="0"
     showgrid="false"
     inkscape:snap-global="false"
     fit-margin-top="0"
     fit-margin-left="0"
     fit-margin-right="0"
     fit-margin-bottom="0"
     showborder="false"
     inkscape:window-width="1318"
     inkscape:window-height="704"
     inkscape:window-x="48"
     inkscape:window-y="27"
     inkscape:window-maximized="1" />
  <metadata
     id="metadata635">
    <rdf:RDF>
      <cc:Work
         rdf:about="">
        <dc:format>image/svg+xml</dc:format>
        <dc:type
           rdf:resource="http://purl.org/dc/dcmitype/StillImage" />
        <dc:title></dc:title>
      </cc:Work>
    </rdf:RDF>
  </metadata>
  <g
     inkscape:label="Layer 1"
     inkscape:groupmode="layer"
     id="layer1"
     transform="translate(-51.269664,-75.543238)">
    <path
       style="fill:#000000;stroke-width:1.71875"
       d="m 113.38007,206.72124 c -9.4803,-0.71899 -26.7931,-1.01997 -38.473,-0.66883 -14.6847,0.44182 -21.7542,0.0554 -22.9158,-1.24654 -1.0321,-1.15829 -0.952,-11.61444 0.2078,-27.12108 2.0611,-27.55442 2.2147,-58.54715 0.3916,-79.044341 -1.01,-11.3547 -0.7122,-13.607397 2.2299,-16.867737 3.2254,-3.57425 4.4645,-3.75061 24.7159,-3.51806 11.7262,0.13476 38.8449,-0.59936 60.26372,-1.63138 30.50015,-1.46947 39.52155,-1.44566 41.60997,0.10953 2.27055,1.69095 2.53169,8.788717 1.75863,47.805528 -1.24774,62.97316 -2.12792,79.37428 -4.36782,81.38423 -2.36903,2.12575 -41.6066,2.60475 -65.421,0.79861 z m 36.03677,-11.12702 c 5.24731,-18.32491 7.02844,-56.30767 4.49242,-95.802681 -0.88984,-13.85803 -1.83901,-18.691297 -3.80371,-19.367817 -4.96657,-1.7102 -5.94069,3.73479 -5.45784,30.507578 0.56712,31.44913 -1.65159,72.66093 -4.46164,82.87063 -1.73786,6.31418 -1.57327,7.42354 1.3899,9.36782 4.14043,2.71675 5.18182,1.71059 7.84087,-7.57553 z m -65.01077,5.91562 c 2.7302,-10.47494 12.4332,-98.78206 12.5913,-114.593481 0.048,-4.804527 -0.4478,-5.291457 -5.3903,-5.291457 -5.9007,0 -5.8888,-0.0246 -5.472,12.508547 0.1543,4.64103 -1.0696,16.670351 -2.7199,26.731871 -1.6503,10.06153 -2.6349,20.00995 -2.188,22.10758 0.7802,3.66267 -5.0517,49.93915 -6.5899,52.29136 -0.4115,0.6292 -0.077,2.73563 0.7425,4.6809 1.0755,2.55146 2.5326,3.29235 5.2303,2.65933 2.0566,-0.48243 3.7649,-0.97522 3.796,-1.09465 z m 22.3922,-2.25228 c 0.5061,-1.56706 1.436,-10.17585 2.066,-19.13061 0.6302,-8.95473 1.8377,-19.21195 2.6838,-22.79382 0.846,-3.58194 1.8085,-21.88833 2.1387,-40.68098 0.5315,-30.244141 0.2682,-34.225748 -2.2916,-34.668248 -2.4878,-0.43014 -3.0613,2.63908 -4.1032,21.957368 -0.6659,12.35151 -1.556,24.28896 -1.9774,26.52763 -0.421,2.23867 -1.2729,10.24927 -1.8923,17.80137 -0.6193,7.55203 -1.5058,14.28201 -1.9697,14.95552 -1.4567,2.11511 -4.5476,35.72459 -3.4341,37.34137 1.7923,2.60223 7.8059,1.70517 8.7798,-1.3096 z m 18.7207,1.5672 c 1.1877,-0.67763 2.999,-7.07724 4.0251,-14.22122 1.026,-7.14399 2.7455,-15.55342 3.8211,-18.68755 1.686,-4.9129 2.5303,-66.43166 1.1284,-82.214471 -0.4711,-5.306347 -5.8969,-7.726737 -8.5849,-3.829797 -0.8328,1.20745 -1.4592,12.818937 -1.3919,25.803288 0.1509,29.07336 -3.4579,73.14195 -6.7979,83.01838 -2.2287,6.59035 -2.1709,7.55166 0.5644,9.37823 3.5212,2.35128 4.2935,2.43164 7.2355,0.75314 z m 42.89936,-3.19537 c 1.3825,-2.46253 2.99753,-6.30902 3.589,-8.54768 1.5837,-5.99452 3.67761,-101.780511 2.33022,-106.597768 -1.35403,-4.84102 -5.63353,-5.3962 -8.21625,-1.06586 -1.03358,1.73296 -1.92129,18.426257 -2.05639,38.668138 -0.13098,19.59033 -0.92701,45.4647 -1.76947,57.49864 -0.84253,12.03393 -1.12239,22.47433 -0.62199,23.20095 1.71743,2.49355 4.23424,1.31576 6.74488,-3.15642 z m -100.94636,-5.2914 c 0.2907,-4.02966 1.392,-14.6532 2.4475,-23.60794 1.0554,-8.95475 2.399,-32.21668 2.9859,-51.69324 l 1.0669,-35.411908 h -4.7907 c -2.6349,0 -4.8087,0.18337 -4.8307,0.40675 -0.021,0.22399 -1.2337,19.089858 -2.6925,41.924428 -1.4588,22.83456 -3.1897,48.22747 -3.8465,56.42866 -1.379,17.21936 -0.5205,20.5354 5.1256,19.80078 3.3552,-0.4369 4.0918,-1.71143 4.5345,-7.84784 z"
       id="path615"
       sodipodi:nodetypes="sssssssssssssssssssssssssssssssssssssssssssssssssssssssssssssscsssssss" />
  </g>
</svg>
