<?xml version="1.0" encoding="UTF-8" standalone="no"?>
<svg
   xmlns:dc="http://purl.org/dc/elements/1.1/"
   xmlns:cc="http://creativecommons.org/ns#"
   xmlns:rdf="http://www.w3.org/1999/02/22-rdf-syntax-ns#"
   xmlns:svg="http://www.w3.org/2000/svg"
   xmlns="http://www.w3.org/2000/svg"
   xmlns:sodipodi="http://sodipodi.sourceforge.net/DTD/sodipodi-0.dtd"
   xmlns:inkscape="http://www.inkscape.org/namespaces/inkscape"
   width="15cm"
   height="0.50000298cm"
   viewBox="0 0 150 5.00003"
   version="1.1"
   id="svg473"
   inkscape:version="1.0 (b51213c273, 2020-08-10)"
   sodipodi:docname="hrb.svg">
  <defs
     id="defs467" />
  <sodipodi:namedview
     id="base"
     pagecolor="#ffffff"
     bordercolor="#666666"
     borderopacity="1.0"
     inkscape:pageopacity="0.0"
     inkscape:pageshadow="2"
     inkscape:zoom="0.24748737"
     inkscape:cx="-52.152549"
     inkscape:cy="-590.52639"
     inkscape:document-units="mm"
     inkscape:current-layer="layer1"
     inkscape:document-rotation="0"
     showgrid="false"
     inkscape:snap-global="false"
     inkscape:window-width="1318"
     inkscape:window-height="704"
     inkscape:window-x="48"
     inkscape:window-y="27"
     inkscape:window-maximized="1"
     fit-margin-top="0"
     fit-margin-left="0"
     fit-margin-right="0"
     fit-margin-bottom="0"
     showborder="false"
     units="cm" />
  <metadata
     id="metadata470">
    <rdf:RDF>
      <cc:Work
         rdf:about="">
        <dc:format>image/svg+xml</dc:format>
        <dc:type
           rdf:resource="http://purl.org/dc/dcmitype/StillImage" />
        <dc:title></dc:title>
      </cc:Work>
    </rdf:RDF>
  </metadata>
  <g
     inkscape:label="Layer 1"
     inkscape:groupmode="layer"
     id="layer1"
     transform="translate(-32.395181,-121.12617)">
    <path
       style="fill:#000000;stroke-width:0.309306"
       d="m 174.28235,125.7637 c -3.50027,0.0179 -8.90317,0.0689 -12.00648,0.11298 -3.10331,0.0441 -9.36241,-0.084 -13.90911,-0.28439 -7.88004,-0.34748 -21.37038,-0.37448 -35.03529,-0.0703 -3.46416,0.0772 -8.24704,0 -10.62865,-0.17953 -2.38162,-0.17594 -10.707409,-0.28506 -18.501746,-0.24249 -21.791927,0.11849 -28.044676,0.0827 -35.297741,-0.2024 -3.680689,-0.14481 -8.670271,-0.25242 -11.087893,-0.23933 l -5.002179,0.0234 -0.41808,-1.25161 0.115753,-1.38857 0.908667,-0.91529 2.82122,1.18452 c 1.486142,0.62401 6.364038,0.20763 10.694214,0.30036 4.330276,0.0923 8.38441,0.3304 9.009298,0.52853 1.09286,0.34639 10.162663,0 11.98565,-0.4646 0.856295,-0.21591 13.428347,-0.2104 19.551558,0.0138 2.09288,0.0744 6.51262,0.17278 9.82165,0.21783 3.764109,0.051 6.559639,0.25738 7.467709,0.55058 1.14791,0.37077 2.19455,0.3829 5.00595,0.0579 1.99964,-0.23092 9.29476,-0.41473 16.67647,-0.4201 20.52747,-0.0152 25.22177,0.11023 27.11449,0.7195 0.9162,0.29513 1.87545,0.44421 2.13156,0.33123 0.2562,-0.11298 3.02882,-0.23341 6.1614,-0.26758 3.13257,-0.0344 5.74639,-0.17677 5.80858,-0.31662 0.0625,-0.13971 3.00749,-0.27804 6.54505,-0.30739 l 5.34895,-1.0798 2.01243,0.37201 0.8194,1.4317 -0.4642,1.88238 -1.95918,0.26578 z"
       id="path1957"
       sodipodi:nodetypes="cssscsssccccsssssssssssssscccccc" />
  </g>
</svg>
