<?xml version="1.0" encoding="UTF-8" standalone="no"?>
<svg
   xmlns:dc="http://purl.org/dc/elements/1.1/"
   xmlns:cc="http://creativecommons.org/ns#"
   xmlns:rdf="http://www.w3.org/1999/02/22-rdf-syntax-ns#"
   xmlns:svg="http://www.w3.org/2000/svg"
   xmlns="http://www.w3.org/2000/svg"
   xmlns:sodipodi="http://sodipodi.sourceforge.net/DTD/sodipodi-0.dtd"
   xmlns:inkscape="http://www.inkscape.org/namespaces/inkscape"
   width="132.29167mm"
   height="132.29167mm"
   viewBox="0 0 132.29167 132.29167"
   version="1.1"
   id="svg761"
   inkscape:version="1.0 (b51213c273, 2020-08-10)">
  <defs
     id="defs755" />
  <sodipodi:namedview
     id="base"
     pagecolor="#ffffff"
     bordercolor="#666666"
     borderopacity="1.0"
     inkscape:pageopacity="0.0"
     inkscape:pageshadow="2"
     inkscape:zoom="0.35"
     inkscape:cx="245.84734"
     inkscape:cy="274.30378"
     inkscape:document-units="mm"
     inkscape:current-layer="layer1"
     inkscape:document-rotation="0"
     showgrid="false"
     inkscape:snap-global="false"
     fit-margin-top="0"
     fit-margin-left="0"
     fit-margin-right="0"
     fit-margin-bottom="0"
     showborder="false"
     inkscape:window-width="1318"
     inkscape:window-height="704"
     inkscape:window-x="48"
     inkscape:window-y="27"
     inkscape:window-maximized="1" />
  <metadata
     id="metadata758">
    <rdf:RDF>
      <cc:Work
         rdf:about="">
        <dc:format>image/svg+xml</dc:format>
        <dc:type
           rdf:resource="http://purl.org/dc/dcmitype/StillImage" />
        <dc:title></dc:title>
      </cc:Work>
    </rdf:RDF>
  </metadata>
  <g
     inkscape:label="Layer 1"
     inkscape:groupmode="layer"
     id="layer1"
     transform="translate(-40.786225,-75.590458)">
    <path
       style="fill:#ff0000;stroke-width:1.71875"
       d="m 41.899898,137.70087 c 0.71898,-9.48031 1.01996,-26.79311 0.66883,-38.47301 -0.44182,-14.684696 -0.0554,-21.754196 1.24653,-22.915796 1.15829,-1.0321 11.614441,-0.952 27.121082,0.2078 27.55442,2.0611 58.54715,2.2147 79.04434,0.3916 11.3547,-1.01 13.6074,-0.7122 16.86774,2.2299 3.57426,3.2254 3.75061,4.4645 3.51806,24.715906 -0.13476,11.72619 0.59936,38.8449 1.63138,60.26372 1.46947,30.50015 1.44566,39.52155 -0.10952,41.60997 -1.69095,2.27055 -8.78872,2.53169 -47.80554,1.75863 -62.973161,-1.24774 -79.374282,-2.12792 -81.384232,-4.36782 -2.12575,-2.36903 -2.60474,-41.60661 -0.79861,-65.421 z m 11.12702,36.03676 c 18.32491,5.24732 56.307672,7.02845 95.802672,4.49243 13.85803,-0.88984 18.69131,-1.83901 19.36782,-3.80372 1.7102,-4.96657 -3.73479,-5.94068 -30.50758,-5.45784 -31.44913,0.56713 -72.660921,-1.65159 -82.870621,-4.46164 -6.314181,-1.73786 -7.423551,-1.57326 -9.367831,1.38991 -2.71675,4.14043 -1.71058,5.18182 7.57554,7.84086 z m -5.91562,-65.01077 c 10.47493,2.7302 98.782052,12.43321 114.593472,12.5913 4.80454,0.048 5.29146,-0.44779 5.29146,-5.3903 0,-5.9007 0.0246,-5.8888 -12.50855,-5.47199 -4.64103,0.1543 -16.67035,-1.06961 -26.73187,-2.71991 -10.06153,-1.6503 -20.00995,-2.6349 -22.10758,-2.188 -3.66267,0.7802 -49.939152,-5.0517 -52.291362,-6.5899 -0.629199,-0.4115 -2.73563,-0.077 -4.6809,0.7425 -2.55145,1.0755 -3.29235,2.5326 -2.65933,5.23031 0.48244,2.05659 0.97522,3.76489 1.09466,3.79599 z m 2.25227,22.3922 c 1.56707,0.5061 10.175861,1.436 19.130609,2.066 8.954741,0.6302 19.211952,1.8377 22.793823,2.6838 3.58194,0.846 21.88833,1.80851 40.68098,2.13871 30.24414,0.5315 34.22575,0.2682 34.66825,-2.29161 0.43015,-2.4878 -2.63908,-3.0613 -21.95737,-4.1032 -12.35151,-0.66589 -24.28896,-1.556 -26.52763,-1.97739 -2.23867,-0.42101 -10.24927,-1.2729 -17.80137,-1.8923 -7.552031,-0.61931 -14.282012,-1.50581 -14.95552,-1.96971 -2.115111,-1.4567 -35.724582,-4.5476 -37.341372,-3.4341 -2.60223,1.7923 -1.70516,7.8059 1.3096,8.7798 z m -1.56719,18.7207 c 0.67763,1.18771 7.07723,2.99901 14.22122,4.0251 7.143991,1.02601 15.55341,2.7455 18.68754,3.8211 4.912902,1.68601 66.431672,2.5303 82.214472,1.1284 5.30635,-0.47109 7.72674,-5.89689 3.82981,-8.58489 -1.20745,-0.83281 -12.81895,-1.4592 -25.8033,-1.39191 -29.07336,0.1509 -73.141952,-3.4579 -83.018371,-6.7979 -6.590361,-2.22869 -7.551671,-2.1709 -9.378231,0.56441 -2.35129,3.5212 -2.43165,4.2935 -0.75314,7.2355 z m 3.19537,42.89937 c 2.46253,1.3825 6.309011,2.99753 8.547681,3.589 5.99451,1.5837 101.780511,3.67761 106.597771,2.33022 4.84101,-1.35403 5.39619,-5.63353 1.06585,-8.21625 -1.73296,-1.03358 -18.42626,-1.92129 -38.66814,-2.05639 -19.59033,-0.13098 -45.464702,-0.92701 -57.498632,-1.76947 -12.033929,-0.84253 -22.47433,-1.12239 -23.20095,-0.62199 -2.49355,1.71743 -1.31576,4.23424 3.15642,6.74488 z M 56.283139,91.79276 c 4.02967,0.2907 14.653201,1.392 23.60795,2.4475 8.954741,1.0554 32.216671,2.399 51.693231,2.9859 l 35.41191,1.0669 v -4.7907 c 0,-2.6349 -0.18337,-4.8087 -0.40674,-4.8307 -0.224,-0.021 -19.08986,-1.233696 -41.92444,-2.692496 -22.83456,-1.4588 -48.227472,-3.1897 -56.428651,-3.8465 -17.219361,-1.379 -20.535401,-0.5205 -19.800791,5.1256 0.43691,3.355196 1.71144,4.091796 7.84784,4.534496 z"
       id="path621"
       sodipodi:nodetypes="sssssssssssssssssssssssssssssssssssssssssssssssssssssssssssssscsssssss" />
  </g>
</svg>
