<?xml version="1.0" encoding="UTF-8" standalone="no"?>
<svg
   xmlns:dc="http://purl.org/dc/elements/1.1/"
   xmlns:cc="http://creativecommons.org/ns#"
   xmlns:rdf="http://www.w3.org/1999/02/22-rdf-syntax-ns#"
   xmlns:svg="http://www.w3.org/2000/svg"
   xmlns="http://www.w3.org/2000/svg"
   xmlns:sodipodi="http://sodipodi.sourceforge.net/DTD/sodipodi-0.dtd"
   xmlns:inkscape="http://www.inkscape.org/namespaces/inkscape"
   width="132.29167mm"
   height="132.29167mm"
   viewBox="0 0 132.29167 132.29167"
   version="1.1"
   id="svg432"
   inkscape:version="1.0 (b51213c273, 2020-08-10)">
  <defs
     id="defs426" />
  <sodipodi:namedview
     id="base"
     pagecolor="#ffffff"
     bordercolor="#666666"
     borderopacity="1.0"
     inkscape:pageopacity="0.0"
     inkscape:pageshadow="2"
     inkscape:zoom="0.35"
     inkscape:cx="288.00978"
     inkscape:cy="359.9689"
     inkscape:document-units="mm"
     inkscape:current-layer="layer1"
     inkscape:document-rotation="0"
     showgrid="false"
     inkscape:snap-global="false"
     fit-margin-top="0"
     fit-margin-left="0"
     fit-margin-right="0"
     fit-margin-bottom="0"
     showborder="false"
     inkscape:window-width="1318"
     inkscape:window-height="704"
     inkscape:window-x="48"
     inkscape:window-y="27"
     inkscape:window-maximized="1" />
  <metadata
     id="metadata429">
    <rdf:RDF>
      <cc:Work
         rdf:about="">
        <dc:format>image/svg+xml</dc:format>
        <dc:type
           rdf:resource="http://purl.org/dc/dcmitype/StillImage" />
        <dc:title></dc:title>
      </cc:Work>
    </rdf:RDF>
  </metadata>
  <g
     inkscape:label="Layer 1"
     inkscape:groupmode="layer"
     id="layer1"
     transform="translate(-29.630744,-52.924895)">
    <path
       style="fill:#000000;stroke-width:0.348796"
       d="m 108.33921,185.16167 c -11.285534,-0.28324 -53.724196,-1.57681 -59.062163,-1.8 -6.083546,-0.25457 -6.155531,-0.26694 -8.548339,-1.46717 -2.924395,-1.46686 -6.893608,-5.23036 -8.492609,-8.0524 -2.11344,-3.73007 -2.612293,-6.5209 -2.605282,-14.57473 0,-3.92642 0.272268,-10.50813 0.597365,-14.62605 0.474516,-6.01038 0.626927,-13.94392 0.77255,-40.22171 0.195951,-35.382407 0.284817,-37.126454 2.073785,-40.676869 1.983892,-3.937106 3.998954,-5.559676 10.008193,-8.058721 l 3.595529,-1.495171 16.768993,-0.225062 c 9.222915,-0.123748 23.371712,-0.386423 31.441829,-0.583619 8.070069,-0.197151 22.533249,-0.390385 32.140569,-0.429335 17.02156,-0.06842 17.53596,-0.05132 20.14164,0.690096 8.542,2.430183 12.65978,7.720951 13.90792,17.870035 0.51498,4.187051 1.14016,91.074906 0.68663,95.417626 -1.08232,10.36337 -5.1576,15.57699 -13.77498,17.62329 -2.0812,0.4941 -4.91739,0.5903 -19.0398,0.64572 -9.12695,0.0356 -18.40216,0.0196 -20.61183,-0.0356 z m 30.16105,-6.23503 c 7.88154,-0.34472 11.68596,-1.51832 14.48483,-4.46829 2.06164,-2.17289 3.06355,-4.63192 3.52096,-8.64194 0.19658,-1.72326 0.28624,-21.96628 0.2218,-50.0791 -0.0977,-42.457147 -0.16572,-47.395812 -0.68171,-49.275848 -1.11784,-4.072695 -2.68317,-6.255426 -5.52084,-7.698739 -3.76098,-1.912977 -3.93144,-1.923215 -36.77117,-2.234099 -59.903629,-0.567016 -65.315278,-0.58727 -66.551806,-0.248387 -2.464794,0.675229 -7.897387,3.457871 -9.200095,4.712357 -1.512368,1.456222 -2.540709,3.26477 -3.307857,5.817098 -0.775988,2.582241 -1.288283,95.338658 -0.550564,99.692048 0.787064,4.64416 2.701516,7.88578 6.145752,10.40602 3.765491,2.75526 -0.08453,2.57143 49.708497,2.37489 24.402423,-0.096 46.228353,-0.25648 48.502203,-0.35601 z m -82.21484,-15.1653 c -6.022948,-0.42247 -6.249264,-0.48791 -6.886239,-1.99007 -0.462012,-1.08965 -0.510329,-2.39755 -0.317683,-8.59809 0.125438,-4.02226 0.547841,-10.91731 0.939742,-15.32256 0.451698,-5.07862 0.784831,-12.40593 0.910539,-20.02388 0.118829,-7.18331 0.338805,-12.18928 0.54793,-12.44951 0.224353,-0.27928 1.305075,-0.43628 3.014465,-0.43801 1.465659,0 5.840617,-0.23455 9.72217,-0.51792 3.881688,-0.28338 7.302301,-0.42159 7.601497,-0.30706 0.299196,0.11449 0.613084,0.54334 0.697573,0.95318 0.08449,0.40983 0.316746,11.32282 0.516001,24.2513 0.199256,12.92843 0.542929,25.49955 0.763709,27.93583 0.608572,6.71539 0.375246,6.91454 -8.012511,6.83833 -3.013796,-0.0276 -7.28752,-0.17649 -9.497193,-0.33154 z m 9.311915,-6.0905 2.499402,-0.19795 0.159601,-16.77593 c 0.03528,-3.71654 -3.77219,-11.81087 -1.350669,-10.33377 1.448556,0.88359 1.808573,-9.58212 2.072803,-12.36231 0.309422,-3.25596 0.645013,-6.96052 0.746025,-8.23206 l 0.183403,-2.31213 -1.134221,-0.19929 c -0.895757,-0.1574 -13.28345,-0.36982 -14.758933,-0.25244 -0.244224,0.0196 3.068232,16.70427 0.987749,15.73654 -2.592957,-1.20614 -1.171866,14.26678 -1.006058,22.24792 l 0.271331,13.05903 4.415417,-0.0895 c 2.42831,-0.05 5.539947,-0.17899 6.914731,-0.2877 z m 56.148355,5.43032 c -1.33482,-0.53358 -1.45959,-1.7903 -0.9334,-9.4057 0.72767,-10.53409 0.71074,-21.07075 -0.0397,-24.55088 -0.88758,-4.11676 -1.68139,-5.55269 -3.57454,-6.46624 -1.2961,-0.62547 -1.99738,-0.73221 -3.90915,-0.59466 -2.53969,0.18255 -8.32721,1.90358 -8.57611,2.55023 -0.0858,0.22137 -0.26777,8.30034 -0.40575,17.95324 -0.27026,18.92705 -0.30264,19.22623 -2.12251,19.68152 -1.57984,0.39523 -18.742971,-0.054 -19.602423,-0.5124 -1.500088,-0.80116 -1.566893,-1.35015 -1.163381,-9.56458 0.584549,-11.89709 1.054733,-28.77238 1.061744,-38.10041 0,-8.41367 0.01295,-8.43829 0.80899,-8.9611 0.687391,-0.44892 2.168858,-0.4921 10.309757,-0.30033 7.273233,0.17137 9.597753,0.333 9.893293,0.68782 0.21243,0.2552 0.43624,1.18616 0.49751,2.06891 0.0607,0.88275 0.19636,1.68983 0.3004,1.79341 0.10432,0.10399 2.06731,-0.93091 4.36295,-2.29922 4.27162,-2.54614 5.88671,-4.27808 10.44984,-4.92749 7.35772,-1.04687 13.47118,1.41763 17.62063,5.21469 2.37365,2.1721 3.95631,4.83419 5.35668,9.01043 2.18658,6.52144 2.42107,9.15563 2.3787,26.72653 -0.021,8.63571 -0.14616,16.27644 -0.27834,16.97927 -0.40562,2.15486 -1.10212,2.3753 -8.51704,2.69593 -3.59611,0.15557 -8.0318,0.35811 -9.85726,0.45012 -1.82531,0.0921 -3.65287,0.0343 -4.06111,-0.12895 z m -22.840661,-7.75153 c 0,-1.77173 0.172685,-9.95968 0.385561,-18.19556 0.280172,-10.83691 0.514264,-15.28072 0.84766,-16.08348 0.58995,-1.42066 3.04577,-2.83753 7.43105,-4.28707 6.06849,-2.00584 10.37781,-1.41496 13.98995,1.91863 1.55582,1.43583 5.15519,3.30109 4.12042,6.28756 -1.01548,2.9307 1.77736,5.8406 1.03133,7.63722 -1.21585,2.92807 0.0357,7.07185 -0.88017,20.54625 -0.16916,2.48983 -0.20296,4.63824 -0.0753,4.77405 0.12808,0.13599 3.21792,0.26744 6.86682,0.29245 l 6.63443,0.0448 0.0845,-1.68538 c 0.0462,-0.92687 0.35818,-5.21118 0.69333,-9.52073 0.3631,-4.67007 0.60102,-11.28192 0.58901,-16.36725 -0.0183,-7.64938 -0.0991,-8.8167 -0.78063,-11.2865 -1.12797,-4.08547 -2.25683,-6.26358 -4.41484,-8.51886 -1.67219,-1.74752 -3.69966,-5.16026 -5.30903,-3.77058 -2.27215,1.9619 -4.94857,-1.30296 -8.50439,-1.30158 -6.03603,0 -7.21791,0.34627 -13.09099,3.80926 -2.76095,1.62787 -5.31537,2.95985 -5.6765,2.95985 -1.14717,0 -1.49496,-0.74062 -1.49496,-3.18331 0,-1.29108 -0.16147,-2.44692 -0.35876,-2.5684 -0.19725,-0.12112 -3.789387,-0.10928 -7.982416,0.0276 l -7.623827,0.24888 -0.25061,19.01777 c -0.05542,4.20499 3.580573,12.86354 1.885472,13.14513 -2.999776,0.49833 -2.319797,2.86481 -2.02203,5.66192 0.28044,2.6349 0.09646,5.68975 0.136558,6.72977 l 0.249672,6.5193 4.227913,0.10923 c 2.325328,0.0605 5.367525,0.14294 6.760666,0.18438 l 2.532895,0.0751 v -3.22123 z M 59.824997,103.53378 c -3.784783,-0.77088 -7.17512,-3.46365 -8.978645,-7.131321 -0.924561,-1.880171 -1.023697,-2.419143 -1.023832,-5.564305 0,-3.038903 0.116197,-3.726195 0.91621,-5.39764 1.250952,-2.615008 2.801858,-4.069224 5.89608,-5.527806 2.178101,-1.026887 3.100785,-1.258181 5.469033,-1.370578 5.471579,-0.259649 8.107495,1.200491 10.251791,5.679193 1.498793,3.130432 1.989027,5.915206 1.450743,8.23998 -0.929829,4.015539 -4.494905,9.268917 -7.114565,10.483917 -1.486469,0.68939 -4.924766,0.98425 -6.866815,0.58856 z m 4.823396,-6.801336 c 1.018695,-0.301536 2.21454,-0.909643 2.657529,-1.351348 1.57578,-1.570582 1.412518,-6.67559 1.92767,-10.048132 0.351846,-2.303314 -5.496006,-1.438368 -7.483202,-3.577476 -1.828981,0 -5.585943,0.63935 -6.63286,2.045585 -2.027433,2.723167 -2.550713,12.422085 0.810641,11.447056 2.04266,-0.592522 5.671325,1.677099 5.272144,2.032234 -0.654925,0.582596 2.429516,-0.246388 3.448078,-0.547919 z"
       id="path1887"
       sodipodi:nodetypes="sssscsssscsssssssssssssssssssssssssssssscsssssssccsssscssssccccssssssssssccsssssssssssssscssssssssscsssssscssssscsssccsscccssssssssssssscssss" />
  </g>
</svg>
