<?xml version="1.0" encoding="UTF-8" standalone="no"?>
<svg
   xmlns:dc="http://purl.org/dc/elements/1.1/"
   xmlns:cc="http://creativecommons.org/ns#"
   xmlns:rdf="http://www.w3.org/1999/02/22-rdf-syntax-ns#"
   xmlns:svg="http://www.w3.org/2000/svg"
   xmlns="http://www.w3.org/2000/svg"
   xmlns:sodipodi="http://sodipodi.sourceforge.net/DTD/sodipodi-0.dtd"
   xmlns:inkscape="http://www.inkscape.org/namespaces/inkscape"
   width="132.29172mm"
   height="132.29172mm"
   viewBox="0 0 132.29172 132.29172"
   version="1.1"
   id="svg211"
   inkscape:version="1.0 (b51213c273, 2020-08-10)">
  <defs
     id="defs205" />
  <sodipodi:namedview
     id="base"
     pagecolor="#ffffff"
     bordercolor="#666666"
     borderopacity="1.0"
     inkscape:pageopacity="0.0"
     inkscape:pageshadow="2"
     inkscape:zoom="0.35"
     inkscape:cx="252.33563"
     inkscape:cy="312.89612"
     inkscape:document-units="mm"
     inkscape:current-layer="layer1"
     inkscape:document-rotation="0"
     showgrid="false"
     inkscape:snap-global="false"
     fit-margin-top="0"
     fit-margin-left="0"
     fit-margin-right="0"
     fit-margin-bottom="0"
     showborder="false"
     inkscape:window-width="1318"
     inkscape:window-height="704"
     inkscape:window-x="48"
     inkscape:window-y="27"
     inkscape:window-maximized="1" />
  <metadata
     id="metadata208">
    <rdf:RDF>
      <cc:Work
         rdf:about="">
        <dc:format>image/svg+xml</dc:format>
        <dc:type
           rdf:resource="http://purl.org/dc/dcmitype/StillImage" />
        <dc:title></dc:title>
      </cc:Work>
    </rdf:RDF>
  </metadata>
  <g
     inkscape:label="Layer 1"
     inkscape:groupmode="layer"
     id="layer1"
     transform="translate(-39.06953,-65.379569)">
    <path
       style="fill:#000000;stroke-width:0.784114"
       d="m 103.34595,197.4935 -0.53481,-9.19962 c -0.29417,-5.05978 -0.92052,-18.26469 -1.3917,-29.34398 -0.23097,-5.43237 -0.50202,-10.41799 -0.75471,-14.13937 v -6.27676 l -0.59258,-0.0587 c -0.0228,-0.095 -0.0456,-0.15707 -0.0662,-0.17541 -0.308506,-0.27859 -3.906561,-0.75211 -7.99599,-1.05205 -5.740882,-0.4209 -7.59301,-0.30524 -8.126735,0.50683 -0.380177,0.5784 -0.874158,4.60267 -1.097638,8.94269 l -0.406239,7.89066 -8.724963,-9.48802 c -13.297188,-14.45946 -12.888994,-12.06624 -3.548212,-20.80771 4.366988,-4.0867 9.006214,-8.17628 10.309632,-9.08823 l 2.369782,-1.65849 v 5.94547 c 0,7.9743 0.42546,8.29279 9.486403,7.10164 3.821427,-0.50244 7.509504,-1.37138 8.1958,-1.93089 0.88979,-0.72565 1.11447,-2.59115 0.95788,-11.00814 0.0369,-2.53277 0.0315,-5.82383 0.0152,-9.54872 0.0413,-2.8183 0.0749,-5.779356 0.0956,-8.869287 0.34456,1.275455 0.56772,-1.94264 0.63743,-9.280718 0.0717,-7.56118 -0.15908,-11.836203 -0.67728,-12.572945 -0.0163,-0.48195 -0.0348,-0.935945 -0.0554,-1.365187 0,-0.06188 0.0109,-0.126222 0.0119,-0.187466 1.28952,-1.345127 0.98536,-4.105589 -0.63243,-5.544072 -1.357496,-1.207061 -1.617029,-1.207488 -3.453412,0 -3.414221,2.23904 -7.244552,6.009708 -13.244423,13.038364 -3.186604,3.73279 -11.432789,12.715706 -18.325279,19.961811 -17.384771,18.27695 -22.712682,24.51553 -24.886893,29.14382 -2.324282,4.94796 -2.40692,6.5768 -0.479755,9.44886 2.553193,3.80492 25.108636,28.39663 33.775611,36.82504 19.727949,19.18463 23.830735,22.67735 26.938501,22.78874 0.20013,0.0576 0.3779,0.0694 0.52862,0 z"
       id="path6381" />
    <path
       style="fill:#000000;stroke-width:0.784114"
       d="m 171.3602,133.82172 c 0,-0.17936 -0.0489,-0.45272 -0.11902,-0.7631 -0.13845,-2.01348 -0.95168,-4.2476 -2.41799,-7.31343 -2.16399,-4.52405 -4.33213,-7.00678 -14.74395,-16.88191 -6.71396,-6.36777 -19.30716,-18.494931 -27.98445,-26.948737 -5.61893,-5.474297 -10.67873,-10.26808 -13.68225,-12.992585 -0.86428,-1.368707 -1.70825,-2.378065 -2.03304,-2.378065 -0.1782,0 -0.35314,0.05655 -0.52471,0.164847 -0.1327,-0.0971 -0.23554,-0.164847 -0.26985,-0.164847 -0.72333,0 -2.1134,4.096738 -2.70935,7.984986 -0.24313,1.586689 -0.37203,4.351205 -0.39277,7.91552 0,0.01067 -0.0109,0.06295 -0.0109,0.06935 -0.0109,0.03201 0,0.322331 0.0109,0.739943 -0.0109,5.717778 0.24563,13.297097 0.74689,21.390488 0.48377,7.80978 1.12457,16.17567 1.42417,18.59107 l 0.54491,4.39165 6.0925,1.7479 c 3.35101,0.96124 7.20317,1.76946 8.56055,1.79635 l 2.46795,0.0491 -0.32154,-10.57974 -0.32099,-10.57963 12.07445,11.57767 c 6.64121,6.36778 12.17327,11.77774 12.29337,12.02207 0.26225,0.53338 -22.50896,22.66242 -22.86557,22.2208 -0.13661,-0.16911 0.013,-3.18255 0.33326,-6.69587 0.24889,-2.73208 0.27658,-5.02958 0.10099,-6.32147 l 0.0261,-0.32468 -0.0901,-0.0576 c -0.0619,-0.30324 -0.13986,-0.52442 -0.23455,-0.64072 -1.21546,-1.49333 -5.33834,-2.45211 -12.62718,-2.93715 l -6.69518,-0.4461 -0.54546,2.13607 c -0.99773,3.90575 2.40258,53.57613 3.84956,56.23267 0.0945,0.17359 0.27582,0.25009 0.53535,0.23814 l 0.23456,0.60658 1.3462,-1.18818 c 9.14553,-4.91841 44.29189,-39.79825 54.76017,-55.17306 1.7279,-2.53757 2.72118,-4.47006 3.00624,-6.43777 0.11793,-0.40513 0.18178,-0.75915 0.18178,-1.05032 z"
       id="path1150" />
  </g>
</svg>
