<?xml version="1.0" encoding="UTF-8" standalone="no"?>
<svg
   xmlns:dc="http://purl.org/dc/elements/1.1/"
   xmlns:cc="http://creativecommons.org/ns#"
   xmlns:rdf="http://www.w3.org/1999/02/22-rdf-syntax-ns#"
   xmlns:svg="http://www.w3.org/2000/svg"
   xmlns="http://www.w3.org/2000/svg"
   xmlns:sodipodi="http://sodipodi.sourceforge.net/DTD/sodipodi-0.dtd"
   xmlns:inkscape="http://www.inkscape.org/namespaces/inkscape"
   width="132.29172mm"
   height="132.29172mm"
   viewBox="0 0 132.29172 132.29172"
   version="1.1"
   id="svg6389"
   inkscape:version="1.0 (b51213c273, 2020-08-10)">
  <defs
     id="defs6383" />
  <sodipodi:namedview
     id="base"
     pagecolor="#ffffff"
     bordercolor="#666666"
     borderopacity="1.0"
     inkscape:pageopacity="0.0"
     inkscape:pageshadow="2"
     inkscape:zoom="0.35"
     inkscape:cx="245.12869"
     inkscape:cy="229.23553"
     inkscape:document-units="mm"
     inkscape:current-layer="layer1"
     inkscape:document-rotation="0"
     showgrid="false"
     inkscape:snap-global="false"
     fit-margin-top="0"
     fit-margin-left="0"
     fit-margin-right="0"
     fit-margin-bottom="0"
     showborder="false"
     inkscape:window-width="1318"
     inkscape:window-height="704"
     inkscape:window-x="48"
     inkscape:window-y="27"
     inkscape:window-maximized="1" />
  <metadata
     id="metadata6386">
    <rdf:RDF>
      <cc:Work
         rdf:about="">
        <dc:format>image/svg+xml</dc:format>
        <dc:type
           rdf:resource="http://purl.org/dc/dcmitype/StillImage" />
        <dc:title></dc:title>
      </cc:Work>
    </rdf:RDF>
  </metadata>
  <g
     inkscape:label="Layer 1"
     inkscape:groupmode="layer"
     id="layer1"
     transform="translate(-40.976366,-87.514767)">
    <path
       style="fill:#000000;stroke-width:0.784114"
       d="m 173.0903,155.5301 -9.19962,0.53469 c -5.05978,0.29417 -18.26469,0.92052 -29.34399,1.3917 -5.43236,0.23108 -10.41799,0.50213 -14.13936,0.75482 h -6.27677 l -0.0587,0.59259 c -0.095,0.0228 -0.15706,0.0456 -0.17541,0.0662 -0.27859,0.3085 -0.75211,3.90656 -1.05203,7.99598 -0.42092,5.74078 -0.30537,7.59302 0.5067,8.12663 0.57851,0.38018 4.6028,0.87416 8.94269,1.09765 l 7.89077,0.40635 -9.48802,8.72485 c -14.45945,13.29719 -12.06624,12.889 -20.807698,3.54822 -4.086705,-4.36689 -8.176289,-9.00611 -9.08823,-10.30964 l -1.658494,-2.36978 H 95.0875 c 7.97442,0 8.29291,-0.42535 7.10175,-9.48641 -0.50244,-3.82132 -1.37138,-7.5095 -1.9309,-8.1957 -0.725643,-0.8899 -2.59124,-1.11457 -11.008129,-0.95788 -2.53277,-0.0369 -5.823834,-0.0315 -9.548729,-0.0152 -2.818398,-0.0413 -5.779344,-0.0749 -8.869284,-0.0956 1.275455,-0.34456 -1.942631,-0.56772 -9.280709,-0.63754 -7.561182,-0.0717 -11.836206,0.15919 -12.572947,0.67739 -0.48195,0.0163 -0.935945,0.0348 -1.365187,0.0554 -0.06188,0 -0.126222,-0.0109 -0.187466,-0.0119 -1.345128,-1.28952 -4.105589,-0.98535 -5.544077,0.63233 -1.207061,1.3575 -1.207488,1.61702 0,3.45341 2.239034,3.41432 6.009702,7.24454 13.038358,13.24453 3.732792,3.18649 12.715708,11.4328 19.961813,18.32518 18.276856,17.38478 24.515528,22.7128 29.143827,24.8869 4.94796,2.32428 6.57679,2.40703 9.44886,0.47985 3.80491,-2.55329 28.39662,-25.10875 36.82505,-33.77572 19.18462,-19.72786 22.67734,-23.83075 22.78863,-26.93841 0.0576,-0.20012 0.0693,-0.37789 0,-0.52861 z"
       id="path6377" />
    <path
       style="fill:#000000;stroke-width:0.784114"
       d="m 109.41851,87.515813 c -0.17936,0 -0.45272,0.04887 -0.7631,0.118907 -2.01347,0.138454 -4.24771,0.951693 -7.31343,2.418106 -4.524049,2.163896 -7.006777,4.332132 -16.881896,14.743844 -6.367773,6.71397 -18.494942,19.30727 -26.948749,27.98456 -5.474298,5.61894 -10.268081,10.67863 -12.992586,13.68215 -1.368708,0.86428 -2.37806,1.70836 -2.37806,2.03304 0,0.1782 0.05655,0.35325 0.164847,0.52472 -0.09709,0.1328 -0.164847,0.23564 -0.164847,0.26995 0,0.72333 4.096733,2.11331 7.984981,2.70924 1.586689,0.24326 4.351205,0.37204 7.915522,0.39289 0.01067,0 0.06295,0.0108 0.06935,0.0108 0.03201,0.0109 0.322331,0 0.739943,-0.0108 5.717778,0.0108 13.297098,-0.24563 21.390376,-0.747 7.809892,-0.48366 16.17578,-1.12457 18.591183,-1.42417 l 4.391646,-0.54491 1.74791,-6.09251 c 0.96123,-3.351 1.76946,-7.20317 1.79635,-8.56044 l 0.0491,-2.46805 -10.579746,0.32153 -10.579634,0.32099 11.577676,-12.07445 c 6.367784,-6.64121 11.777734,-12.17317 12.022074,-12.29327 0.53327,-0.26225 22.66241,22.50887 22.22079,22.86558 -0.16911,0.13662 -3.18255,-0.013 -6.69586,-0.33337 -2.73208,-0.24889 -5.02959,-0.27658 -6.32147,-0.10099 l -0.32468,-0.0261 -0.0576,0.0901 c -0.30323,0.0619 -0.52441,0.13987 -0.6407,0.23456 -1.49334,1.21546 -2.45212,5.33845 -2.93717,12.62719 l -0.4461,6.69528 2.13609,0.54534 c 3.90573,0.99774 53.57611,-2.40258 56.23265,-3.84955 0.17349,-0.0945 0.24999,-0.27582 0.23815,-0.53524 l 0.60657,-0.23467 -1.18828,-1.34621 c -4.9183,-9.14542 -39.79815,-44.29189 -55.17295,-54.760185 -2.53758,-1.727792 -4.47007,-2.721184 -6.43777,-3.006127 -0.40524,-0.117929 -0.75915,-0.181781 -1.05033,-0.181781 z"
       id="path1011" />
  </g>
</svg>
