<?xml version="1.0" encoding="UTF-8" standalone="no"?>
<svg
   xmlns:dc="http://purl.org/dc/elements/1.1/"
   xmlns:cc="http://creativecommons.org/ns#"
   xmlns:rdf="http://www.w3.org/1999/02/22-rdf-syntax-ns#"
   xmlns:svg="http://www.w3.org/2000/svg"
   xmlns="http://www.w3.org/2000/svg"
   xmlns:sodipodi="http://sodipodi.sourceforge.net/DTD/sodipodi-0.dtd"
   xmlns:inkscape="http://www.inkscape.org/namespaces/inkscape"
   width="132.2916mm"
   height="132.29167mm"
   viewBox="0 0 132.2916 132.29167"
   version="1.1"
   id="svg11936"
   inkscape:version="1.0 (b51213c273, 2020-08-10)">
  <defs
     id="defs11930" />
  <sodipodi:namedview
     id="base"
     pagecolor="#ffffff"
     bordercolor="#666666"
     borderopacity="1.0"
     inkscape:pageopacity="0.0"
     inkscape:pageshadow="2"
     inkscape:zoom="0.35"
     inkscape:cx="262.54928"
     inkscape:cy="266.89214"
     inkscape:document-units="mm"
     inkscape:current-layer="layer1"
     inkscape:document-rotation="0"
     showgrid="false"
     fit-margin-top="0"
     fit-margin-left="0"
     fit-margin-right="0"
     fit-margin-bottom="0"
     showborder="false"
     inkscape:snap-global="false"
     inkscape:window-width="1318"
     inkscape:window-height="704"
     inkscape:window-x="48"
     inkscape:window-y="27"
     inkscape:window-maximized="1" />
  <metadata
     id="metadata11933">
    <rdf:RDF>
      <cc:Work
         rdf:about="">
        <dc:format>image/svg+xml</dc:format>
        <dc:type
           rdf:resource="http://purl.org/dc/dcmitype/StillImage" />
        <dc:title></dc:title>
      </cc:Work>
    </rdf:RDF>
  </metadata>
  <g
     inkscape:label="Layer 1"
     inkscape:groupmode="layer"
     id="layer1"
     transform="translate(-36.36717,-77.551455)">
    <path
       id="path1857"
       style="fill:#ff0000;stroke-width:0.784007"
       d="m 168.65797,145.33264 c 0,-1.56578 -0.78662,-3.3876 -2.52786,-7.05839 -0.52513,-1.10697 -1.30016,-2.37026 -2.32183,-3.78864 -0.33287,-0.92641 -1.55417,-2.53603 -3.00089,-3.90026 -0.15175,-0.14304 -0.37771,-0.36126 -0.5547,-0.52992 -4.79055,-5.50298 -12.17785,-12.65751 -22.28961,-21.59623 -3.41326,-3.01737 -7.21171,-6.96556 -8.44058,-8.773656 -1.2289,-1.808088 -2.66684,-3.570589 -3.19565,-3.916833 -4.9462,-3.239026 -15.49763,-13.165804 -17.1806,-16.163595 -0.45873,-0.817026 -0.77741,-1.21123 -1.16876,-1.241685 -0.20267,-0.125414 -0.38324,-0.06855 -0.61742,0.190087 -0.18241,0.108101 -0.38639,0.258772 -0.62361,0.453137 -0.78119,0.64008 -1.61611,2.228855 -1.85562,3.530573 -0.12282,0.667498 -0.16985,3.307646 -0.164,6.990399 -0.31716,5.493245 -0.22074,12.767133 0.32919,20.847443 0.24924,9.83574 0.60388,19.29485 0.94098,22.71578 l 0.56639,5.74706 4.66003,1.52683 c 2.56317,0.83965 6.39183,1.63539 8.50829,1.76833 1.65698,0.10405 2.6415,0.36496 3.16544,-0.10169 0.0715,-0.0269 0.13138,-0.058 0.16626,-0.0972 0.0357,-0.0407 0.065,-0.13267 0.0866,-0.26745 0.51344,-1.14119 0.1393,-4.18922 -0.47465,-11.89144 -0.46155,-5.78908 -0.36157,-8.1785 0.34196,-8.1785 0.54669,0 6.47752,5.41332 13.17948,12.02959 l 12.18543,12.02958 -9.79753,9.41135 c -5.38858,5.17626 -10.91375,10.40604 -12.27771,11.62176 l -2.4086,2.14741 c -0.0227,-0.004 -0.0422,-0.011 -0.0628,-0.0171 l 0.6236,-6.25766 c 0.34727,-3.4859 0.36926,-7.15429 0.0487,-8.15142 -0.75216,-2.33944 -5.44002,-3.62477 -13.24218,-3.63114 l -6.04543,-0.005 -0.013,6.85226 c -0.026,13.4496 2.7654,50.09345 3.90103,51.21453 0.30437,0.30057 2.30168,-1.0037 4.43829,-2.89839 2.13649,-1.89469 6.68993,-5.71077 10.11868,-8.48023 4.31394,-3.4843 10.48394,-9.47064 16.8527,-16.126 0.19011,-0.0363 0.3502,-0.21131 0.43437,-0.45535 11.50474,-12.06059 23.53667,-26.17066 26.37855,-31.61046 0.86591,-1.65752 1.33894,-2.72 1.33786,-3.93783 z m -68.739905,59.28307 c 0.01408,-4.9676 -0.323659,-12.96935 -0.964478,-21.5697 -0.470974,-6.32175 -0.868399,-16.33211 -0.882698,-22.24552 l -0.026,-10.75196 -7.680408,-0.63162 c -2.328007,-0.19144 -4.245157,-0.26573 -5.691106,-0.23265 -1.376744,-0.25171 -2.146149,-0.32909 -2.610191,0.32935 -0.125109,0.0514 -0.225521,0.10775 -0.289311,0.17076 -0.500773,0.4943 -1.175496,4.60913 -1.499589,9.14444 l -0.588392,8.23266 c -0.01083,-0.003 -0.013,-0.005 -0.02058,-0.009 l -4.45898,-5.18616 c -2.462973,-2.86433 -7.267815,-8.12478 -10.677393,-11.68973 l -6.199245,-6.48146 2.168994,-2.29496 c 3.059273,-3.23712 19.295633,-17.15164 20.013576,-17.15164 0.327234,0 0.497404,3.01125 0.378361,6.69201 -0.06174,1.89378 -0.03141,3.4087 0.09857,4.60427 0.01083,0.1486 0.02816,0.29167 0.04983,0.43048 0.399158,2.84816 1.49232,3.5716 3.570227,2.76245 0.738838,-0.28773 3.877943,-0.73752 6.976222,-0.99911 3.945642,-0.33312 5.869184,-0.91005 6.419881,-1.92581 0.0899,-0.16632 0.180894,-0.90658 0.270366,-2.07226 0.637364,-2.87811 0.663144,-8.39863 0.624041,-17.95236 0.05633,-3.06903 0.102903,-6.31022 0.131597,-9.69207 0.112772,-13.269393 0.165621,-20.268614 0,-24.033182 0.06499,-0.572401 0.139516,-1.046454 0.219456,-1.33011 0.275782,-0.978999 0.08449,-1.667756 -0.65944,-2.27119 -0.264311,-0.742417 -0.642021,-0.82388 -1.171585,-0.900745 -0.17342,-0.02513 -0.387135,0.0011 -0.629674,0.0647 -0.310433,-0.02171 -0.551564,0.06298 -0.700287,0.25751 -3.324331,1.510541 -10.307041,7.98932 -15.153817,14.299666 -2.153937,2.804464 -10.228293,11.663751 -17.942935,19.687521 -16.702133,17.37139 -21.323702,22.84083 -24.281155,28.73528 -1.220005,2.43145 -2.273414,4.57271 -2.340897,4.75845 -0.06716,0.18575 0.751414,1.77724 1.820313,3.53665 1.06879,1.75941 4.394854,5.78519 7.390978,8.94607 2.996123,3.16088 9.705445,10.52153 14.909773,16.35701 5.204219,5.83547 12.627152,13.39505 16.495465,16.79907 3.868313,3.40403 8.789168,8.03261 10.935415,10.28558 4.360626,4.57752 10.77001,9.26352 11.578617,8.4653 0.273074,-0.26967 0.408365,-2.15809 0.417031,-5.13864 z" />
  </g>
</svg>
