<?xml version="1.0" encoding="UTF-8" standalone="no"?>
<svg
   xmlns:dc="http://purl.org/dc/elements/1.1/"
   xmlns:cc="http://creativecommons.org/ns#"
   xmlns:rdf="http://www.w3.org/1999/02/22-rdf-syntax-ns#"
   xmlns:svg="http://www.w3.org/2000/svg"
   xmlns="http://www.w3.org/2000/svg"
   xmlns:sodipodi="http://sodipodi.sourceforge.net/DTD/sodipodi-0.dtd"
   xmlns:inkscape="http://www.inkscape.org/namespaces/inkscape"
   width="132.29167mm"
   height="132.29153mm"
   viewBox="0 0 132.29167 132.29153"
   version="1.1"
   id="svg10082"
   inkscape:version="1.0 (b51213c273, 2020-08-10)">
  <defs
     id="defs10076" />
  <sodipodi:namedview
     id="base"
     pagecolor="#ffffff"
     bordercolor="#666666"
     borderopacity="1.0"
     inkscape:pageopacity="0.0"
     inkscape:pageshadow="2"
     inkscape:zoom="0.35"
     inkscape:cx="168.49048"
     inkscape:cy="296.34277"
     inkscape:document-units="mm"
     inkscape:current-layer="layer1"
     inkscape:document-rotation="0"
     showgrid="false"
     fit-margin-top="0"
     fit-margin-left="0"
     fit-margin-right="0"
     fit-margin-bottom="0"
     showborder="false"
     inkscape:snap-global="false"
     inkscape:window-width="1318"
     inkscape:window-height="704"
     inkscape:window-x="48"
     inkscape:window-y="27"
     inkscape:window-maximized="1" />
  <metadata
     id="metadata10079">
    <rdf:RDF>
      <cc:Work
         rdf:about="">
        <dc:format>image/svg+xml</dc:format>
        <dc:type
           rdf:resource="http://purl.org/dc/dcmitype/StillImage" />
        <dc:title></dc:title>
      </cc:Work>
    </rdf:RDF>
  </metadata>
  <g
     inkscape:label="Layer 1"
     inkscape:groupmode="layer"
     id="layer1"
     transform="translate(-61.25356,-69.759309)">
    <path
       id="path1222"
       style="fill:#ff0000;stroke-width:0.784004"
       d="m 129.03632,69.759345 c -1.56573,0.0011 -3.38756,0.786609 -7.05829,2.527863 -1.10698,0.525103 -2.3703,1.300121 -3.78868,2.321882 -0.92637,0.332834 -2.53594,1.554088 -3.90021,3.000874 -0.14308,0.151702 -0.36122,0.377679 -0.52996,0.554717 -5.50294,4.790515 -12.65738,12.177871 -21.596004,22.289589 -3.017361,3.41334 -6.965584,7.21172 -8.773627,8.44061 -1.808043,1.22889 -3.570532,2.66691 -3.916785,3.19566 -3.239035,4.94628 -13.165734,15.4977 -16.163526,17.18067 -0.816977,0.4587 -1.211243,0.77738 -1.241613,1.16879 -0.125433,0.20264 -0.06844,0.38322 0.190022,0.61741 0.108111,0.18236 0.258781,0.38634 0.453187,0.62357 0.640001,0.78125 2.228829,1.61611 3.530539,1.8556 0.667483,0.1228 3.30758,0.16985 6.990286,0.16401 5.493208,0.31713 12.767083,0.22076 20.84735,-0.32914 9.835701,-0.24931 19.294671,-0.60391 22.715601,-0.94095 l 5.74707,-0.56647 1.5268,-4.66001 c 0.83965,-2.56315 1.63535,-6.3919 1.76827,-8.50832 0.10372,-1.657 0.36496,-2.64154 -0.10159,-3.16545 -0.0267,-0.0716 -0.0577,-0.13137 -0.0973,-0.16623 -0.0406,-0.0362 -0.1326,-0.065 -0.26744,-0.0868 -1.1412,-0.51344 -4.18915,-0.13935 -11.8913,0.47467 -5.78909,0.46151 -8.17843,0.36157 -8.17843,-0.34201 0,-0.54669 5.41322,-6.47757 12.02945,-13.17953 l 12.02946,-12.185372 9.41138,9.797452 c 5.17615,5.38858 10.40587,10.91379 11.6216,12.27775 l 2.14746,2.40864 c 0,0.0222 -0.0107,0.0426 -0.0171,0.0633 l -6.25768,-0.62357 c -3.48584,-0.34732 -7.15422,-0.36927 -8.15138,-0.0487 -2.3394,0.75214 -3.62475,5.44004 -3.63106,13.24221 v 6.04539 l 6.85224,0.0134 c 13.44943,0.0258 50.0931,-2.76535 51.2142,-3.90096 0.30048,-0.30446 -1.00368,-2.30178 -2.89845,-4.43832 -1.89466,-2.13655 -5.71071,-6.68995 -8.48009,-10.11876 -3.48436,-4.31387 -9.47063,-10.48398 -16.1259,-16.85266 -0.0364,-0.19021 -0.21141,-0.350285 -0.45543,-0.434374 -12.06045,-11.504792 -26.17042,-23.536745 -31.61016,-26.378648 -1.65758,-0.865932 -2.71998,-1.338954 -3.93785,-1.337817 z m 59.2827,68.740055 c -4.96763,-0.0143 -12.9693,0.32368 -21.56958,0.96447 -6.32174,0.47101 -16.33206,0.86837 -22.2453,0.88273 l -10.75191,0.0258 -0.63166,7.68046 c -0.19141,2.32796 -0.26573,4.2451 -0.23269,5.69107 -0.25162,1.37672 -0.32904,2.1462 0.32936,2.61015 0.0513,0.12515 0.10779,0.22557 0.17077,0.2894 0.49436,0.50071 4.60908,1.17543 9.14437,1.49959 l 8.23265,0.58831 c 0,0.007 0,0.0132 -0.0107,0.0202 l -5.18609,4.45903 c -2.86434,2.46295 -8.12475,7.26786 -11.68972,10.6774 l -6.48139,6.19934 -2.29491,-2.16907 c -3.23711,-3.05927 -17.15149,-19.29564 -17.15149,-20.01362 0,-0.32726 3.01115,-0.49742 6.69194,-0.3784 1.89369,0.0612 3.40863,0.0314 4.60426,-0.0991 0.14853,-0.0109 0.29161,-0.0283 0.43041,-0.0504 2.84819,-0.39917 3.5716,-1.49228 2.76243,-3.57014 -0.28776,-0.73888 -0.73753,-3.87799 -0.99909,-6.97628 -0.3331,-3.94568 -0.91001,-5.86921 -1.92577,-6.41987 -0.16639,-0.0901 -0.90659,-0.18089 -2.07228,-0.27036 -2.87803,-0.63738 -8.39861,-0.66323 -17.952218,-0.62413 -3.069011,-0.0562 -6.310185,-0.1028 -9.691978,-0.13154 -13.269353,-0.11279 -20.268515,-0.16569 -24.033025,0.002 -0.572419,-0.0653 -1.046458,-0.13956 -1.330154,-0.21942 -0.978983,-0.27582 -1.667746,-0.0841 -2.271175,0.65939 -0.742444,0.26429 -0.823821,0.64202 -0.900706,1.17157 -0.02566,0.1734 0,0.38716 0.06523,0.62973 -0.02139,0.31039 0.06309,0.55149 0.257498,0.70026 1.510552,3.32435 7.989265,10.30702 14.299557,15.1538 2.804455,2.154 11.663737,10.2284 19.687435,17.94307 17.371246,16.70215 22.840606,21.32366 28.735026,24.2812 2.43147,1.21998 4.57272,2.27339 4.75847,2.34092 0.18574,0.0675 1.77724,-0.75149 3.53663,-1.82034 1.75939,-1.06885 5.78514,-4.39492 8.94601,-7.39106 3.16086,-2.99613 10.52146,-9.70549 16.35686,-14.90972 5.8354,-5.20424 13.39489,-12.62724 16.79893,-16.49554 3.40403,-3.86829 8.03257,-8.78925 10.28557,-10.93545 4.57742,-4.36058 9.26338,-10.77004 8.46523,-11.5786 -0.26969,-0.27316 -2.15815,-0.40847 -5.13862,-0.41702 z" />
  </g>
</svg>
