<?xml version="1.0" encoding="UTF-8" standalone="no"?>
<svg
   xmlns:dc="http://purl.org/dc/elements/1.1/"
   xmlns:cc="http://creativecommons.org/ns#"
   xmlns:rdf="http://www.w3.org/1999/02/22-rdf-syntax-ns#"
   xmlns:svg="http://www.w3.org/2000/svg"
   xmlns="http://www.w3.org/2000/svg"
   xmlns:sodipodi="http://sodipodi.sourceforge.net/DTD/sodipodi-0.dtd"
   xmlns:inkscape="http://www.inkscape.org/namespaces/inkscape"
   width="132.29166mm"
   height="132.29167mm"
   viewBox="0 0 132.29166 132.29167"
   version="1.1"
   id="svg9464"
   inkscape:version="1.0 (b51213c273, 2020-08-10)">
  <defs
     id="defs9458" />
  <sodipodi:namedview
     id="base"
     pagecolor="#ffffff"
     bordercolor="#666666"
     borderopacity="1.0"
     inkscape:pageopacity="0.0"
     inkscape:pageshadow="2"
     inkscape:zoom="0.35"
     inkscape:cx="200.96749"
     inkscape:cy="271.86181"
     inkscape:document-units="mm"
     inkscape:current-layer="layer1"
     inkscape:document-rotation="0"
     showgrid="false"
     inkscape:snap-global="false"
     fit-margin-top="0"
     fit-margin-left="0"
     fit-margin-right="0"
     fit-margin-bottom="0"
     showborder="false"
     inkscape:window-width="1318"
     inkscape:window-height="704"
     inkscape:window-x="48"
     inkscape:window-y="27"
     inkscape:window-maximized="1" />
  <metadata
     id="metadata9461">
    <rdf:RDF>
      <cc:Work
         rdf:about="">
        <dc:format>image/svg+xml</dc:format>
        <dc:type
           rdf:resource="http://purl.org/dc/dcmitype/StillImage" />
        <dc:title></dc:title>
      </cc:Work>
    </rdf:RDF>
  </metadata>
  <g
     inkscape:label="Layer 1"
     inkscape:groupmode="layer"
     id="layer1"
     transform="translate(-52.660686,-76.236562)">
    <path
       id="path1922"
       style="fill:#000000;stroke-width:0.788333"
       d="m 184.95213,144.33579 c 0,3.53592 -7.36596,13.04803 -22.59205,29.17361 -2.7052,2.86501 -4.91842,5.5921 -4.91842,6.05995 0,0.46786 -0.25853,0.85088 -0.57473,0.85088 -0.31632,0 -2.40775,1.89611 -4.64747,4.2139 -5.23964,5.42249 -15.39717,14.44027 -17.95189,15.93749 -1.0907,0.63926 -3.37131,2.61063 -5.06781,4.38096 -1.69651,1.77035 -3.18408,3.08704 -3.30642,2.92562 -1.48028,-1.95425 -2.31332,-9.83826 -2.10615,-19.93547 0.024,-1.14926 -0.46593,-6.97909 -1.08753,-12.95526 -1.29951,-12.49311 -1.53513,-23.5028 -0.52687,-24.61392 0.39886,-0.43974 3.90689,-0.51919 8.24578,-0.18705 9.50766,0.72782 11.08554,1.90059 10.31247,7.66404 -1.35118,10.07505 -1.35086,10.03183 -0.0578,10.03183 0.67776,0 3.6862,-2.53841 6.686,-5.64145 2.99994,-3.10303 7.00582,-6.95868 8.90165,-8.56764 1.89571,-1.60896 4.80436,-4.47563 6.46402,-6.37023 l 3.01791,-3.4446 -5.2295,-4.37151 c -2.87629,-2.40428 -5.75539,-5.27368 -6.39816,-6.37633 -0.64267,-1.10267 -1.57907,-2.00715 -2.08085,-2.01037 -0.50168,-0.003 -3.3856,-2.82563 -6.40885,-6.27199 -7.63332,-8.70184 -8.66896,-7.37297 -6.62626,8.50826 0.48903,3.80291 0.65629,7.1767 0.37127,7.49696 -0.93227,1.04807 -15.42312,-2.38838 -16.09588,-3.81703 -0.34008,-0.72244 -0.85823,-6.20313 -1.15165,-12.1793 -0.29353,-5.97619 -0.65737,-12.55836 -0.80741,-14.62705 -1.14085,-15.714449 -0.58738,-28.635252 1.35795,-31.724577 1.2683,-2.014253 1.31322,-2.022212 2.39237,-0.417944 0.60504,0.899408 1.10956,1.888479 1.12361,2.197974 0.0676,1.601132 4.32516,5.931366 8.58827,8.734709 2.65057,1.743017 4.81932,3.486646 4.81932,3.874752 0,0.388105 0.92016,1.078176 2.04475,1.533583 1.1631,0.470971 2.89786,2.405517 4.02313,4.485857 1.08808,2.011586 2.92795,4.329156 4.08909,5.150236 1.83889,1.30044 8.87623,7.44914 9.91861,8.66644 0.20445,0.2388 1.54256,1.41896 2.97399,2.62257 1.43121,1.20362 4.63133,4.21076 7.11082,6.68217 2.4796,2.47141 5.90684,5.80974 7.61686,7.4187 1.71013,1.60899 3.11158,3.56143 3.11376,4.33877 0,0.77735 0.30334,1.62198 0.66992,1.8766 1.03486,0.71896 3.79436,7.03601 3.79436,8.68586 z m -4.86663,-0.47899 c 0,-2.56114 -0.59719,-4.04976 -2.77116,-6.90474 -1.52422,-2.00176 -2.7716,-3.93307 -2.7716,-4.2916 0,-1.03597 -6.90485,-8.01856 -12.8058,-12.94969 -2.97561,-2.48654 -6.47809,-5.52457 -7.78314,-6.75099 -1.30506,-1.22644 -3.58284,-3.05077 -5.06159,-4.05404 -1.9559,-1.327 -2.12153,-4.17031 -5.18153,-7.60075 -4.24741,-4.761553 -7.46726,-6.624286 -10.23984,-8.981147 -3.81181,-3.240211 -5.46699,-0.900836 -5.96987,3.680495 h 5.8e-4 c -0.17654,1.607126 -0.28764,10.633042 -0.24687,20.057022 l 0.0742,17.13416 2.66583,0.25144 c 3.47631,0.3276 4.98668,-1.47646 3.76329,-4.49474 -0.92158,-2.27378 -1.1089,-8.95159 -0.38817,-13.85053 0.37346,-2.53878 0.81374,-3.13113 2.63018,-3.53951 1.86825,-0.42001 2.89722,0.19096 7.16448,4.25162 2.74062,2.60797 8.83086,8.93976 13.53383,14.0709 4.70286,5.13113 9.88865,10.70466 11.52441,12.38578 l 2.97452,3.05662 -2.23067,2.09972 c -1.22688,1.15498 -2.45747,2.37503 -2.73453,2.71084 -3.08006,3.73423 -4.81823,5.61786 -9.81832,10.64017 -3.20381,3.21795 -6.37417,6.31639 -7.04549,6.8853 -1.02561,0.86908 -3.4906,2.93241 -11.70989,9.80206 -1.74577,1.4591 -2.14977,-0.41193 -2.22293,-10.27995 l -0.072,-9.75044 h -2.90183 -2.90233 l -0.20009,20.42058 c -0.10969,11.23143 0.0622,20.71356 0.37978,21.0711 0.31806,0.35753 1.91294,-0.75093 3.54478,-2.46328 1.63184,-1.71233 4.13794,-4.17281 5.56926,-5.46774 1.43121,-1.29491 9.29461,-9.60598 17.47344,-18.46904 8.17896,-8.86303 16.87059,-18.205 19.31497,-20.75972 3.96643,-4.14541 4.44401,-4.99605 4.44401,-7.9099 z m -64.04373,60.49966 c 0.0567,5.48021 -0.90674,4.53951 -3.32889,2.89621 -4.30748,-2.92242 -10.99492,-8.91877 -11.01454,-9.87754 -0.012,-0.55846 -0.77482,-1.45606 -1.69488,-1.99427 -0.920149,-0.53824 -2.242545,-1.58569 -2.938526,-2.32785 -1.878591,-2.00314 -2.988922,-2.9016 -5.081868,-4.11175 -1.906069,-1.10216 -13.162352,-13.27122 -24.197836,-26.16029 -3.30479,-3.85981 -7.403585,-8.26152 -9.108372,-9.78151 -1.704791,-1.52001 -3.099587,-3.11851 -3.099587,-3.55228 0,-0.43373 -0.669158,-1.54106 -1.487041,-2.4605 -0.817884,-0.91941 -1.460654,-1.95365 -1.42838,-2.29843 0.153851,-1.64242 2.405675,-3.24841 2.536737,-4.4137 0.140003,-1.24499 0.208696,-2.59453 1.903888,-4.80557 4.000666,-5.21775 11.535312,-13.76757 15.630508,-17.73639 2.1345,-2.06867 6.09122,-6.06892 8.791718,-8.88957 2.700401,-2.82063 6.287923,-6.39387 7.97353,-7.94043 1.685597,-1.546573 3.821504,-4.036093 4.746036,-5.532675 2.897102,-4.689512 12.147873,-14.961671 14.867573,-16.509196 1.43121,-0.814416 2.81117,-1.843744 3.06577,-2.286767 0.28929,-0.503289 1.06977,-0.440338 2.08032,0.16762 1.14881,0.691553 1.48236,1.449817 1.15165,2.620911 -0.25569,0.90626 -0.46253,3.610283 -0.46144,6.008893 0,2.39861 0.0458,13.893312 0.0981,25.543624 0.11471,25.64852 0.23737,25.20616 -7.01847,25.20616 -2.62211,0 -5.6723,0.38645 -6.77848,0.8592 -2.910947,1.24413 -4.791611,-0.80399 -4.089088,-4.4531 0.537769,-2.79354 0.4018,-9.66776 -0.204443,-10.34934 -0.192886,-0.2168 -2.693422,1.60916 -5.556941,4.05793 -13.056259,11.16498 -17.232906,15.05098 -17.232906,16.03186 0,1.55384 1.296445,3.07317 6.865271,8.04312 2.753719,2.45771 5.176948,5.0661 5.38499,5.79631 0.208042,0.73024 2.555817,3.51351 5.217074,6.1854 5.238335,5.25948 4.867611,5.33886 5.126355,-1.09676 0.04579,-1.14927 -0.08178,-4.29908 0.175876,-6.45904 0.885813,-7.43047 0.71757,-7.19235 4.592732,-6.47679 1.92188,0.35489 5.41857,0.68394 7.77017,0.73098 l 4.27499,0.0855 v 9.36136 c -2.1e-4,5.1487 0.47813,15.86786 1.06267,23.82077 0.85191,11.59263 1.36732,18.34829 1.40581,22.09792 z M 111.31831,96.251332 c 0,-2.492903 -0.24425,-4.276746 -0.72967,-5.711955 -0.69959,-2.06845 -1.03531,-2.235007 -3.6958,-1.833862 -2.53598,0.382381 -4.04582,1.70666 -11.320508,9.928058 -9.639052,10.893527 -24.55951,26.500847 -26.941414,28.181737 -0.890066,0.62817 -2.100045,2.01123 -2.688843,3.07383 -0.588797,1.06264 -2.368383,3.65518 -3.954321,5.76134 -1.585937,2.10619 -3.141017,5.04874 -3.455696,6.53841 v 0.001 c -0.31468,1.48968 -0.606135,2.82456 -0.648005,2.9667 -0.04143,0.14191 1.847734,2.27528 2.180078,2.66699 0.870221,1.02588 1.864307,2.72772 7.962288,7.35321 3.171874,3.12537 6.603474,6.32398 7.625801,7.10843 1.022436,0.78443 5.707193,5.67543 10.41005,10.86885 4.702857,5.19341 10.977368,11.83532 13.94338,14.7597 2.96612,2.92439 5.23605,5.49341 5.04413,5.70917 -0.19178,0.21568 0.49417,1.1373 1.52413,2.04811 1.03007,0.91079 1.93888,1.51897 2.01947,1.35153 0.0807,-0.16733 0.59664,-1.20251 1.14662,-2.30066 0.75803,-1.51305 0.86684,-3.84139 0.45022,-9.61222 -0.30236,-4.18845 -0.52621,-12.78907 -0.49808,-19.11236 0.0491,-10.97384 -0.0229,-11.54151 -1.56588,-12.48568 -2.51427,-1.53814 -4.22342,-1.39019 -5.09539,0.44126 -0.43942,0.92301 -1.18795,6.03329 -1.6627,11.35618 l -0.86324,9.67772 -2.573929,-0.2592 c -2.558206,-0.25773 -6.111708,-3.86789 -18.293385,-18.58787 -1.693229,-2.04611 -4.945136,-5.58214 -7.2264,-7.85781 -3.540418,-3.53202 -4.079604,-4.4495 -3.68391,-6.26866 0.254927,-1.1721 0.727601,-2.24976 1.050349,-2.39445 1.005536,-0.45066 6.124695,-5.0438 8.849083,-7.93989 1.431323,-1.52148 4.176646,-3.97163 6.100586,-5.44496 1.924071,-1.47332 4.904139,-4.55293 6.622457,-6.84369 1.718308,-2.29077 3.468672,-4.16504 3.889543,-4.16504 0.420772,0 1.56631,-0.84669 2.545786,-1.88104 1.750146,-1.84832 1.798559,-1.8527 2.83583,-0.2581 0.58052,0.89235 1.08939,2.96138 1.13039,4.59742 0.21251,8.46429 0.50602,13.51825 0.80512,13.85443 0.1835,0.20636 1.39414,0.0333 2.69059,-0.38464 1.48933,-0.48012 2.52289,-0.45884 2.80714,0.0583 0.24741,0.45001 0.83545,0.67415 1.30604,0.49788 0.58248,-0.21822 0.89564,-4.03739 0.981,-11.95508 0.0687,-6.3987 0.32123,-13.70272 0.55959,-16.23111 0.27957,-2.96552 0.42022,-5.333247 0.4175,-7.272165 z"
       sodipodi:nodetypes="sssscccccscscssscccsscccccccscsssssscssscsscsssscsscccccsssssccccssscccccsssssccccccccccsccscscssscccccsccscscccscsccccccssssccccccccssscsccsccscccccccccssscccsccscss" />
    <path
       style="opacity:0.930349;fill:#000000;stroke-width:0.632704"
       d="m 54.297835,142.58094 c 0.685623,-0.86344 1.253049,-2.1633 1.260791,-2.88858 0.02944,-2.747 6.72778,-10.6075 24.829162,-29.13734 7.253866,-7.42562 14.073789,-14.772736 15.155323,-16.326942 3.458204,-4.969533 10.829299,-12.928321 14.150339,-15.278651 5.55955,-3.93446 5.27714,-5.383879 5.04774,25.908603 -0.24021,32.75772 0.34052,30.39593 -7.64434,31.09233 -2.91848,0.25453 -6.167,0.50828 -7.218881,0.56388 l -1.912393,0.10107 -0.179583,-7.37852 c -0.128881,-5.29392 -0.399074,-7.37481 -0.956251,-7.36538 -0.865859,0.0146 -11.042244,8.46255 -18.14805,15.06556 -2.988802,2.77727 -4.621843,4.77806 -4.621843,5.66271 0,0.86721 2.275376,3.74828 6.215522,7.87028 3.418515,3.57626 8.246546,8.67964 10.728982,11.34085 2.774982,2.97487 4.800663,4.66367 5.259151,4.38451 0.464289,-0.28261 0.747228,-2.27741 0.749529,-5.28365 0,-4.29996 0.883632,-11.87858 1.443862,-12.4305 0.116124,-0.11438 3.567235,0.12243 7.669095,0.52625 l 7.45799,0.73424 0.0174,11.33366 c 0.0109,6.23353 0.43385,16.9853 0.94218,23.89285 1.14717,15.58565 1.21783,22.92052 0.22113,22.92052 -1.19036,0 -6.17638,-4.18845 -12.85248,-10.79654 -3.4389,-3.40389 -7.367379,-6.91562 -8.729901,-7.80386 -2.490842,-1.62371 -9.393404,-8.95884 -25.929675,-27.55461 -4.913952,-5.52605 -9.552368,-10.58566 -10.307442,-11.24361 -0.755079,-0.65793 -1.37288,-1.4611 -1.37288,-1.78483 0,-0.32371 -0.573751,-1.30706 -1.274965,-2.18521 -1.551918,-1.94348 -1.551918,-1.98472 0,-3.93911 z m 10.975301,10.6204 c 4.283393,4.00204 9.666748,9.11323 11.963167,11.35818 4.781135,4.6741 26.359817,27.8834 28.586877,30.74717 1.87588,2.41202 2.93168,2.41094 3.94713,-0.004 0.62064,-1.47583 0.70264,-6.22832 0.36026,-20.87964 -0.2438,-10.43289 -0.58018,-19.43302 -0.74733,-20.00028 -0.37062,-1.25697 -3.69449,-2.70498 -5.04098,-2.19602 -1.55073,0.58621 -2.14465,2.94857 -3.17788,12.6404 -0.5322,4.99157 -0.9676,9.22514 -0.9676,9.40765 0,0.7465 -2.361175,0.24911 -4.275422,-0.90063 -1.124276,-0.67527 -5.140431,-4.82515 -8.924753,-9.22195 -3.784333,-4.39681 -9.390668,-10.7738 -12.45863,-14.17113 -3.067854,-3.39734 -5.577985,-6.73561 -5.577985,-7.41841 0,-0.75881 2.540334,-3.61475 6.534236,-7.34621 3.593846,-3.35763 10.346689,-9.85621 15.006378,-14.44129 4.65957,-4.58508 8.719438,-8.33651 9.021797,-8.33651 0.987529,0 1.949349,3.87353 1.949349,7.85108 0,2.14275 0.17948,5.58751 0.39886,7.655 l 0.39886,3.75909 3.77114,-0.0505 c 3.24601,-0.0435 3.80647,-0.22617 4.02465,-1.31212 0.13946,-0.69392 0.57047,-9.23895 0.95789,-18.98897 0.88995,-22.398602 0.53809,-24.152059 -4.5634,-22.743455 -2.89253,0.798681 -4.1543,1.96026 -14.289032,13.154535 -4.846677,5.35336 -12.718028,13.68951 -17.491977,18.52481 -11.130564,11.27384 -16.813115,19.4799 -17.138698,24.74948 -0.03053,0.48788 3.449808,4.16144 7.733093,8.16348 z"
       id="path1924" />
    <path
       style="opacity:0.930349;fill:#000000;stroke-width:0.632704"
       d="m 54.532809,142.58094 c 0.461225,-0.86344 1.501543,-2.91983 2.312012,-4.56973 1.892662,-3.85338 6.338301,-8.95396 22.292426,-25.5769 7.12444,-7.4231 14.674363,-15.615899 16.777678,-18.206232 9.249145,-11.390914 16.287995,-17.938541 17.743305,-16.504964 0.99224,0.977461 0.45959,54.126016 -0.56012,55.882386 -0.8712,1.5006 -2.05491,1.78959 -9.87326,2.41058 l -4.94056,0.39243 v -4.36165 c 0,-6.21593 -0.645714,-10.18857 -1.656156,-10.18857 -2.400877,0 -22.568285,18.34459 -22.568285,20.52848 0,0.73552 1.106286,2.70494 2.45823,4.3765 3.9601,4.8959 18.623668,19.68012 19.519611,19.68012 0.575168,0 0.945576,-1.6445 1.237467,-5.49464 0.229195,-3.02205 0.587598,-7.01405 0.796403,-8.8711 l 0.379873,-3.37647 5.494477,0.41721 c 3.02183,0.22947 6.42671,0.57936 7.56616,0.77753 l 2.07191,0.3603 0.0382,4.79681 c 0.10904,13.66729 0.44204,28.09859 0.91264,39.49154 0.36309,8.78813 0.3186,12.71618 -0.14382,12.71618 -1.02156,0 -8.53528,-6.67965 -24.642926,-21.90753 -5.134108,-4.85369 -32.218023,-34.69922 -34.517609,-38.03726 -1.808589,-2.62537 -1.812079,-2.64844 -0.697507,-4.73502 z m 14.586593,14.82072 c 10.748281,10.41274 29.265093,29.78261 35.206938,36.82894 1.38333,1.64054 3.01813,2.9828 3.63277,2.9828 2.42007,0 2.61589,-1.93343 2.31157,-22.81401 l -0.29266,-20.07771 -1.49477,-1.19235 c -0.92452,-0.73745 -2.24321,-1.12038 -3.45636,-1.00369 -1.77544,0.17078 -2.03538,0.48369 -2.74085,3.29959 -0.42863,1.71103 -1.12133,6.58556 -1.53938,10.8323 -1.159273,11.77805 -0.73283,12.01801 -22.544074,-12.6873 -6.323141,-7.16212 -8.605059,-10.11838 -8.605059,-11.14789 0,-0.94807 28.994454,-29.35548 29.962055,-29.35548 0.785498,0 1.231008,2.42256 1.617008,8.79143 0.63754,10.51898 0.42776,10.04735 4.46766,10.04735 2.02242,0 3.47729,-0.27825 3.47729,-0.66503 0,-0.36575 0.24555,-0.51555 0.54563,-0.33287 0.77645,0.47271 1.26657,-6.44875 1.70795,-24.12073 0.4429,-17.729038 0.27367,-18.573399 -3.6982,-18.454972 -1.28325,0.03824 -3.02773,0.517886 -3.87669,1.065814 -0.84896,0.547939 -6.222715,6.026981 -11.941793,12.175638 -5.718969,6.14866 -13.148722,14.0052 -16.510429,17.45898 -7.891305,8.10741 -12.992364,14.38568 -15.681534,19.30086 -3.621545,6.61923 -3.828824,6.20125 9.452928,19.06833 z"
       id="path1926" />
    <path
       style="opacity:0.930349;fill:#000000;stroke-width:0.632704"
       d="m 121.8543,82.483064 c 0.31784,-1.451772 0.90467,-3.241242 1.30418,-3.976596 0.6974,-1.283593 0.76173,-1.291026 1.61178,-0.186212 0.48696,0.63293 0.89443,1.510319 0.90565,1.949765 0.0327,1.294914 5.10903,6.351297 9.41423,9.377532 2.19621,1.543798 3.99325,3.057414 3.99325,3.363611 0,0.306186 0.85179,0.990629 1.89287,1.520974 1.04119,0.530356 3.0189,2.586326 4.39505,4.568829 1.37615,1.982513 4.89901,5.723923 7.82872,8.314263 2.92959,2.59033 9.7989,8.87011 15.26512,13.95507 9.47157,8.81099 10.07814,9.52239 12.90906,15.14086 1.6338,3.24251 2.97059,6.75876 2.97059,7.8139 0,2.56234 -4.61672,9.24288 -12.55033,18.16069 -3.44054,3.8674 -8.06892,9.09516 -10.2852,11.61725 -8.07918,9.19372 -18.00707,18.58458 -30.57126,28.91747 l -5.15207,4.23719 -0.64757,-3.29525 c -0.35611,-1.81238 -0.82804,-7.39267 -1.04871,-12.40064 -0.22069,-5.00797 -0.80895,-13.62672 -1.30724,-19.15276 -1.23375,-13.682 -1.20617,-20.64169 0.0861,-21.69809 1.37954,-1.12779 13.6648,0.10548 15.98804,1.6049 l 1.63566,1.05578 -0.4561,7.47783 c -0.40834,6.6948 -0.34663,7.47784 0.58945,7.47784 1.07499,0 21.78922,-19.61088 24.12533,-22.84034 l 1.30473,-1.8037 -3.76438,-3.2024 c -2.0705,-1.7613 -4.76861,-4.31103 -5.99571,-5.66602 -1.2272,-1.35501 -2.79766,-2.91712 -3.48993,-3.47137 -0.69227,-0.55424 -3.68195,-3.49358 -6.64382,-6.53188 -6.9742,-7.15443 -8.04036,-7.21311 -8.02127,-0.44144 0.0109,2.59033 0.26201,7.35545 0.56601,10.58915 l 0.55259,5.87945 -3.43465,-0.45974 c -4.44128,-0.59447 -11.06351,-2.60391 -11.91606,-3.61574 -1.55029,-1.84009 -3.31646,-48.512939 -2.05403,-54.280176 z m 7.93993,51.306446 c 3.691,0 5.15263,-1.33503 4.40933,-4.02753 -0.29429,-1.06594 -0.53591,-5.10747 -0.53689,-8.98115 -0.001,-5.73615 0.19506,-7.23695 1.05972,-8.0879 2.51024,-2.47048 5.03695,-0.35115 24.96349,20.93869 l 10.72561,11.45934 -7.63496,8.32138 c -8.90317,9.70339 -11.66517,12.36983 -19.87226,19.18402 -3.97645,3.30154 -6.21693,4.77967 -6.52452,4.30434 -0.25755,-0.39816 -0.47267,-5.0333 -0.47814,-10.30031 l -0.0109,-9.57639 h -3.09379 -3.09393 l -0.41227,4.80444 c -0.52391,6.1053 -0.52621,31.79658 0,34.91399 0.21731,1.29517 0.73089,2.35485 1.14129,2.35485 1.31521,0 23.00258,-22.51107 47.00143,-48.78672 2.7088,-2.96575 3.40402,-4.91246 2.83026,-7.92505 -0.48717,-2.55818 -5.9209,-11.1389 -9.1474,-14.44506 -2.40906,-2.46863 -16.4146,-14.91539 -20.56027,-18.27203 -1.2271,-0.9936 -2.86942,-2.91242 -3.64957,-4.26405 -0.78004,-1.35163 -2.21442,-3.40363 -3.18735,-4.56001 -2.35215,-2.795373 -10.57929,-9.535957 -12.293,-10.071748 -1.71657,-0.53666 -3.65187,1.08808 -4.00677,3.363762 -0.14263,0.913886 -0.30215,10.209696 -0.35471,20.657376 l -0.096,18.99576 z"
       id="path1928" />
    <path
       style="opacity:0.930349;fill:#000000;stroke-width:0.632704"
       d="m 122.28205,81.668895 c 0.22538,-0.518069 0.67003,-1.633999 0.9882,-2.479843 0.55935,-1.487323 0.63905,-1.433286 2.42279,1.643236 1.04479,1.801995 3.58708,4.595209 5.8642,6.442873 2.21094,1.79396 5.30811,4.304188 6.88249,5.578297 1.5745,1.274109 3.72601,3.299994 4.78116,4.501968 2.86439,3.262824 14.02625,14.201914 25.32571,24.820264 9.51857,8.94492 10.14847,9.68762 12.59024,14.84614 1.41376,2.98662 2.57042,6.26314 2.57042,7.28118 0,3.36123 -4.4971,9.33655 -20.44403,27.16406 -9.87403,11.03836 -17.75574,18.6937 -29.27981,28.43865 l -7.96851,6.73837 -0.42677,-2.04652 c -0.40267,-1.93116 -2.01653,-23.77578 -2.98107,-40.35203 -0.24117,-4.14453 -0.29025,-8.80713 -0.10903,-10.36133 l 0.32941,-2.82581 5.83017,0.0466 c 3.82457,0.0306 6.79691,0.41032 8.64062,1.10393 l 2.81053,1.05732 -0.2725,7.53051 c -0.23823,6.58114 -0.14468,7.53053 0.74233,7.53053 1.85841,0 25.59787,-22.56575 25.59787,-24.33229 0,-0.25967 -5.63731,-5.91181 -12.52722,-12.56032 -8.44869,-8.15259 -12.97514,-12.08822 -13.90293,-12.08822 -0.7566,0 -1.19842,0.28258 -0.98176,0.62796 0.21677,0.34538 0.0469,0.62796 -0.37804,0.62796 -0.58835,0 -0.66762,2.05133 -0.33309,8.61641 0.2414,4.73901 0.59304,9.22141 0.78146,9.9609 0.32874,1.29 0.20945,1.32374 -2.94333,0.83282 -4.39701,-0.6847 -9.62129,-2.21256 -10.98457,-3.21252 -0.8518,-0.62479 -1.25926,-2.40914 -1.76301,-7.72017 -0.76947,-8.11271 -1.45891,-46.038355 -0.86193,-47.410914 z m 7.74901,52.120615 c 1.68297,0 3.37599,-0.31134 3.76231,-0.69188 0.47812,-0.47099 0.59196,-3.43879 0.35655,-9.29571 -0.48991,-12.19243 0.62358,-13.65737 6.68754,-8.79824 3.54434,2.84008 28.52637,29.22222 28.52637,30.12508 0,0.31289 -3.81901,4.68226 -8.48665,9.70971 -8.00274,8.61948 -18.02734,17.83607 -22.2946,20.49756 l -1.91316,1.19318 -0.46396,-9.7526 -0.46405,-9.75261 h -3.1783 c -2.5326,0 -3.10547,0.18733 -2.81936,0.92183 0.19757,0.50701 0.085,1.08885 -0.25057,1.29298 -0.66654,0.40579 -0.8772,37.18482 -0.22265,38.86516 0.21284,0.54633 0.80709,0.99331 1.32054,0.99331 2.26949,0 48.85057,-49.23045 49.68699,-52.51301 0.76304,-2.99492 -0.26703,-6.52022 -3.32877,-11.39257 -3.405,-5.41838 -7.47196,-9.60854 -19.83714,-20.43819 -4.63471,-4.05918 -9.4236,-8.85441 -10.64208,-10.65609 -3.89621,-5.760957 -13.14012,-13.637095 -16.00548,-13.637095 -3.33292,0 -3.49342,1.059617 -3.49342,23.060235 v 20.26895 z"
       id="path1930" />
    <path
       style="opacity:0.930349;fill:#ffffff;stroke-width:0.894779"
       d="m 121.64036,85.786914 c 0.80971,-7.626727 1.9052,-8.845242 4.32287,-4.808681 1.00346,1.675297 5.42501,5.881981 9.82571,9.348188 4.40062,3.466217 8.67093,7.419119 9.48958,8.784234 0.81864,1.365105 8.18625,8.633345 16.3725,16.151635 16.52994,15.18121 17.21175,15.96427 20.73352,23.80979 2.30449,5.13389 2.38496,5.70156 1.14292,8.06745 -1.77642,3.38396 -7.51698,10.57409 -15.38386,19.2686 -3.53551,3.90751 -8.2351,9.24755 -10.44353,11.86675 -5.70108,6.76146 -31.18697,29.15688 -32.12686,28.23103 -0.28121,-0.27699 -0.83894,-6.41506 -1.23943,-13.64018 -0.40037,-7.22511 -1.18108,-18.85505 -1.73466,-25.84433 -0.55357,-6.98925 -0.75671,-13.48325 -0.4513,-14.4311 0.48227,-1.49678 1.40668,-1.72164 7.03068,-1.71028 3.56146,0.008 7.48962,0.52433 8.72925,1.14918 2.18815,1.10295 2.24429,1.36389 1.92592,8.95288 l -0.32788,7.81682 1.99134,-1.04982 c 2.47676,-1.30573 22.37758,-20.22405 23.55605,-22.39314 0.72095,-1.32706 -1.23528,-3.59876 -11.8851,-13.80198 -7.01149,-6.7174 -13.21197,-12.21346 -13.77885,-12.21346 -0.72912,0 -0.95647,3.05278 -0.7771,10.43481 0.25154,10.34735 0.23639,10.43472 -1.80303,10.42426 -2.74565,-0.0141 -11.58743,-2.362 -12.58119,-3.34092 -1.52564,-1.50285 -3.56887,-41.829775 -2.58755,-51.071736 z m 7.62908,48.206726 c 4.81843,0 5.01405,-0.40319 4.45752,-9.18648 -0.56219,-8.87145 0.40136,-13.01046 3.03155,-13.02268 1.58822,-0.008 11.91028,10.04591 26.1485,25.46765 l 7.41917,8.03592 -10.48812,10.84254 c -10.45235,10.80558 -21.26813,20.49033 -22.88318,20.49033 -0.48129,0 -0.85016,-4.2613 -0.85016,-9.82236 v -9.82236 l -3.38078,0.27563 -3.38079,0.27561 -0.24305,19.91974 c -0.15646,12.81807 0.0883,20.24622 0.68661,20.83553 1.15393,1.13666 8.32636,-5.7139 28.26479,-26.99639 23.49062,-25.07407 22.22864,-23.5296 22.22864,-27.20432 0,-6.19005 -7.48177,-15.48115 -23.71197,-29.4462 -4.3643,-3.75516 -9.17173,-8.72608 -10.6833,-11.04649 -2.90942,-4.466077 -13.12811,-13.111037 -15.49781,-13.111037 -2.81457,0 -3.24285,3.053441 -3.27033,23.311807 l -0.0273,20.20356 z"
       id="path1932" />
    <path
       style="opacity:0.930349;fill:#ffffff;stroke-width:0.894779"
       d="m 122.27048,84.705837 c 0.20969,-0.97688 0.56013,-2.612544 0.77863,-3.634815 0.34609,-1.619155 1.24194,-1.045975 6.95185,4.447728 50.84791,48.92316 48.87271,46.88692 51.59056,53.18608 l 2.57119,5.95936 -1.71591,3.16891 c -3.17438,5.86241 -29.73929,35.31437 -39.6951,44.00907 -12.78105,11.16205 -15.2975,13.19694 -16.31994,13.19694 -0.78768,0 -2.30634,-18.15175 -3.58512,-42.84931 l -0.54028,-10.43479 h 7.2855 c 9.95395,0 10.54384,0.62888 9.77937,10.42573 l -0.57755,7.4004 2.29402,-1.18398 c 3.48252,-1.79739 23.66672,-20.84035 24.35561,-22.97851 0.49164,-1.52596 -0.88254,-3.35505 -7.38025,-9.8228 -12.65632,-12.59788 -18.35326,-17.24084 -19.31616,-15.74222 -0.4464,0.69466 -0.81778,5.35923 -0.8253,10.36571 l -0.0142,9.1027 h -2.54405 c -1.39926,0 -4.41097,-0.62661 -6.69267,-1.39245 -3.72982,-1.25189 -4.20205,-1.72259 -4.67755,-4.66236 -1.5529,-9.59944 -2.76344,-43.715248 -1.72301,-48.561393 z m 8.19956,49.119383 3.38078,-0.27562 0.22441,-8.43665 c 0.27368,-10.28928 0.72967,-12.43296 2.6449,-12.43296 1.50089,0 16.73417,14.82714 27.15381,26.42992 l 5.68168,6.32668 -9.7386,9.95103 c -5.3561,5.47307 -12.57835,12.36933 -16.0492,15.32503 l -6.31082,5.37399 -0.58706,-4.83925 c -0.32275,-2.66159 -0.62707,-7.17989 -0.67613,-10.04066 -0.0752,-4.35783 -0.32046,-5.11399 -1.51518,-4.66236 -0.7843,0.29647 -2.40709,0.53904 -3.60616,0.53904 h -2.18008 v 20.86961 c 0,15.1945 0.28327,20.86962 1.04184,20.86962 2.14889,0 7.40533,-4.92621 23.92023,-22.41722 27.98926,-29.64375 26.42568,-27.72052 26.42568,-32.50443 0,-3.29297 -0.66644,-5.13345 -3.20165,-8.84178 -3.22017,-4.71025 -38.38829,-40.131792 -42.71312,-43.020963 -2.98989,-1.997369 -6.12556,-2.000129 -6.65461,-0.0054 -0.2268,0.85477 -0.45938,10.669843 -0.51695,21.811283 l -0.10468,20.25718 z"
       id="path1934" />
    <path
       style="opacity:0.930349;fill:#ffffff;stroke-width:0.894779"
       d="m 54.486687,142.378 c 0.728037,-0.94811 1.336788,-2.3233 1.352817,-3.05596 0.04689,-2.13285 7.166543,-10.51069 22.860179,-26.90006 8.048972,-8.40576 16.770155,-17.95927 19.38048,-21.230049 5.716687,-7.163297 13.477917,-14.209616 15.256307,-13.851058 1.0896,0.219701 1.27322,4.423947 1.17432,26.893417 -0.0643,14.64816 -0.34826,27.53973 -0.63067,28.64795 -0.58629,2.30115 -2.04499,2.74103 -10.2309,3.08519 l -5.859956,0.24637 0.248931,-5.41038 c 0.13683,-2.97572 -0.08723,-6.30643 -0.498843,-7.4016 -0.73785,-1.96469 -0.807208,-1.94478 -5.207369,1.49591 -7.572482,5.92107 -18.433508,16.31002 -18.433508,17.63218 0,1.54503 21.686615,24.56931 22.441475,23.82572 0.297986,-0.29351 0.789316,-4.30754 1.091783,-8.92006 0.302577,-4.61254 0.70961,-8.50418 0.904568,-8.64812 0.194946,-0.14394 3.701469,-0.0923 7.792189,0.11485 l 7.43772,0.37657 -0.0164,10.7848 c -0.0109,5.93165 0.47573,18.86585 1.07772,28.74267 0.60187,9.87683 0.82333,18.22489 0.49208,18.55127 -0.85627,0.84339 -5.33156,-2.70722 -14.53666,-11.53309 -4.393292,-4.21229 -8.307063,-7.6587 -8.697185,-7.6587 -0.390144,0 -6.32108,-6.28551 -13.179699,-13.96781 -6.858718,-7.68229 -14.724072,-16.37427 -17.478664,-19.31549 -4.330828,-4.62432 -8.064023,-9.47364 -8.064023,-10.47512 0,-0.16805 0.595667,-1.08128 1.323704,-2.0294 z m 15.178988,15.26655 c 6.59715,6.28528 17.855068,17.7165 25.017682,25.4027 7.162503,7.68618 13.337143,13.98037 13.721273,13.98707 1.94751,0.034 2.39586,-5.69595 1.84828,-23.62195 -0.56253,-18.41879 -0.65923,-19.18866 -2.56552,-20.41905 -1.08949,-0.70324 -2.62189,-1.03634 -3.40521,-0.74024 -1.66826,0.63061 -2.10049,2.38837 -3.36009,13.6657 -0.51552,4.61524 -1.049791,8.5022 -1.187286,8.63768 -1.009144,0.99408 -7.10755,-4.12274 -12.976771,-10.88819 -3.849755,-4.43756 -9.332333,-10.67616 -12.183422,-13.86355 -2.851089,-3.1874 -5.183817,-6.44131 -5.183817,-7.2309 0,-0.7896 3.535075,-4.7416 7.855759,-8.78221 4.320782,-4.04061 11.030141,-10.50843 14.909772,-14.37295 4.441049,-4.42379 7.37011,-6.71476 7.907875,-6.18509 0.46972,0.46271 1.16418,4.81978 1.54341,9.68238 l 0.68934,8.84109 3.48851,0.009 c 2.67097,0.006 3.64412,-0.40805 4.15212,-1.76788 0.83128,-2.22536 1.88251,-35.56302 1.22317,-38.793339 -1.27148,-6.230055 -6.27364,-3.643944 -18.000307,9.306129 -5.387727,5.94977 -13.670135,14.81858 -18.405485,19.70845 -12.097065,12.49189 -16.880936,19.26437 -17.027045,24.10497 -0.03925,1.30273 3.684019,5.45751 11.937762,13.32101 z"
       id="path1936" />
    <path
       style="opacity:0.930349;fill:#ffffff;stroke-width:0.894779"
       d="m 56.371602,139.43011 c 2.85371,-5.10605 5.703818,-8.45768 21.614655,-25.41802 7.331402,-7.815 16.726311,-18.094913 20.877672,-22.844251 7.843981,-8.974141 13.381731,-13.83355 14.501421,-12.725203 0.3584,0.354745 0.56657,12.668707 0.46265,27.364354 -0.14502,20.50089 -0.461,26.98732 -1.35783,27.87071 -0.64277,0.63324 -4.10753,1.42038 -7.69941,1.74923 l -6.530749,0.5979 v -6.73564 c 0,-3.72162 -0.421198,-6.99202 -0.941204,-7.30862 -1.300251,-0.79162 -3.559827,0.81439 -13.709062,9.74406 -4.839251,4.25776 -9.036178,8.69949 -9.337555,9.88208 -0.626197,2.458 0.631867,4.06597 13.370928,17.08992 4.451103,4.55053 8.356455,8.02104 8.678658,7.71221 0.322312,-0.30883 0.992342,-4.23182 1.489124,-8.71776 l 0.90315,-8.15625 6.9537,0.0429 c 3.82446,0.0235 7.17056,0.25655 7.43575,0.51777 0.26518,0.26118 0.67352,13.14913 0.90751,28.63984 l 0.42546,28.16493 -2.45365,-1.78953 c -7.2349,-5.27676 -26.253501,-23.8613 -39.606558,-38.70257 -15.785995,-17.54539 -18.336797,-20.64949 -18.224707,-22.1773 0.03707,-0.50186 1.044897,-2.66218 2.240047,-4.80072 z m 26.302563,32.28913 c 13.751924,13.92999 25.498655,25.32725 26.103805,25.32725 0.60515,0 1.38204,-1.47931 1.72638,-3.28736 0.73512,-3.85992 -0.13695,-37.28621 -1.03237,-39.56961 -0.82747,-2.11031 -4.73338,-3.00061 -6.31572,-1.43957 -0.71015,0.70057 -1.68832,5.02804 -2.28442,10.10591 -1.378334,11.74095 -1.547024,11.98185 -5.815033,8.30637 -4.66622,-4.01848 -22.953619,-24.65524 -24.17134,-27.27668 -0.90762,-1.95411 0.03271,-3.07365 13.805559,-16.42926 l 14.779583,-14.33227 0.655841,2.66421 c 0.36071,1.46532 0.92987,5.76134 1.26473,9.54673 l 0.60886,6.88253 h 3.41883 c 1.88035,0 3.86503,-0.52957 4.41033,-1.17683 1.14476,-1.3587 2.54894,-37.139712 1.60316,-40.851538 -0.87927,-3.451105 -4.68139,-3.197033 -9.19855,0.614703 -5.782098,4.879107 -37.519705,39.280975 -41.182244,44.639395 -6.048264,8.84862 -6.953813,7.3295 21.622599,36.27602 z"
       id="path1938" />
  </g>
</svg>
