<?xml version="1.0" encoding="UTF-8" standalone="no"?>
<svg
   xmlns:dc="http://purl.org/dc/elements/1.1/"
   xmlns:cc="http://creativecommons.org/ns#"
   xmlns:rdf="http://www.w3.org/1999/02/22-rdf-syntax-ns#"
   xmlns:svg="http://www.w3.org/2000/svg"
   xmlns="http://www.w3.org/2000/svg"
   xmlns:sodipodi="http://sodipodi.sourceforge.net/DTD/sodipodi-0.dtd"
   xmlns:inkscape="http://www.inkscape.org/namespaces/inkscape"
   width="132.29167mm"
   height="132.29169mm"
   viewBox="0 0 132.29167 132.29169"
   version="1.1"
   id="svg261"
   inkscape:version="1.0 (b51213c273, 2020-08-10)">
  <defs
     id="defs255" />
  <sodipodi:namedview
     id="base"
     pagecolor="#ffffff"
     bordercolor="#666666"
     borderopacity="1.0"
     inkscape:pageopacity="0.0"
     inkscape:pageshadow="2"
     inkscape:zoom="0.35"
     inkscape:cx="271.89063"
     inkscape:cy="305.99668"
     inkscape:document-units="mm"
     inkscape:current-layer="layer1"
     inkscape:document-rotation="0"
     showgrid="false"
     inkscape:snap-global="false"
     fit-margin-top="0"
     fit-margin-left="0"
     fit-margin-right="0"
     fit-margin-bottom="0"
     showborder="false"
     inkscape:window-width="1318"
     inkscape:window-height="704"
     inkscape:window-x="48"
     inkscape:window-y="27"
     inkscape:window-maximized="1" />
  <metadata
     id="metadata258">
    <rdf:RDF>
      <cc:Work
         rdf:about="">
        <dc:format>image/svg+xml</dc:format>
        <dc:type
           rdf:resource="http://purl.org/dc/dcmitype/StillImage" />
        <dc:title></dc:title>
      </cc:Work>
    </rdf:RDF>
  </metadata>
  <g
     inkscape:label="Layer 1"
     inkscape:groupmode="layer"
     id="layer1"
     transform="translate(-33.895605,-67.205045)">
    <path
       id="path1220"
       style="fill:#000000;stroke-width:0.788333"
       d="m 101.99482,67.205077 c 3.53596,0 13.04806,7.366004 29.17367,22.592059 2.86498,2.705181 5.59206,4.918475 6.05992,4.918475 0.46787,0 0.85088,0.25847 0.85088,0.57473 0,0.31626 1.89607,2.40777 4.21392,4.64744 5.42246,5.239649 14.44027,15.397179 15.93742,17.951949 0.63929,1.09074 2.61065,3.37129 4.38104,5.06779 1.77029,1.69648 3.087,3.18416 2.92557,3.3064 -1.95428,1.48034 -9.8382,2.31334 -19.93546,2.10623 -1.14925,-0.0236 -6.97911,0.46584 -12.95526,1.08748 -12.49309,1.29953 -23.50277,1.53518 -24.6139,0.52684 -0.43972,-0.39882 -0.51921,-3.90685 -0.1871,-8.24572 0.7279,-9.50774 1.90057,-11.08553 7.66405,-10.31251 10.07503,1.35114 10.03185,1.35084 10.03185,0.058 0,-0.67772 -2.53836,-3.68617 -5.64147,-6.68605 -3.103,-2.99988 -6.95871,-7.005849 -8.56767,-8.901589 -1.60896,-1.89576 -4.47556,-4.80439 -6.37022,-6.464051 l -3.44456,-3.01791 -4.371474,5.229504 c -2.40432,2.876257 -5.27371,5.755427 -6.37635,6.398127 -1.10264,0.64273 -2.00712,1.57909 -2.01034,2.080869 0,0.50172 -2.82568,3.3856 -6.27206,6.40882 -8.701816,7.63341 -7.37297,8.66897 8.50828,6.62633 3.80286,-0.48906 7.17674,-0.65625 7.49692,-0.37131 1.04808,0.93234 -2.38831,15.4232 -3.81704,16.09589 -0.72242,0.34013 -6.2031,0.85828 -12.17924,1.15172 -5.97625,0.29347 -12.55839,0.65737 -14.627056,0.80744 -15.714449,1.14075 -28.635233,0.58731 -31.724591,-1.35795 -2.014211,-1.26835 -2.022266,-1.31334 -0.417922,-2.39246 0.899429,-0.60502 1.888436,-1.10949 2.197984,-1.12355 1.601122,-0.0673 5.931357,-4.32523 8.734689,-8.58831 1.743007,-2.65062 3.486658,-4.81929 3.874721,-4.81929 0.38817,0 1.078155,-0.92021 1.533562,-2.04482 0.470982,-1.16303 2.405603,-2.89782 4.485869,-4.02313 2.011633,-1.08811 4.329161,-2.92796 5.150291,-4.08905 1.300381,-1.83899 7.44913,-8.876269 8.666378,-9.918641 0.238874,-0.204466 1.418959,-1.54262 2.622565,-2.973958 1.203715,-1.431293 4.2108,-4.63136 6.68224,-7.110912 2.47133,-2.479574 5.80966,-5.906809 7.41862,-7.616898 1.60907,-1.710101 3.56153,-3.111519 4.33883,-3.1137 0.77731,-0.0022 1.62196,-0.303362 1.87662,-0.669955 0.71899,-1.034835 7.035944,-3.794361 8.685824,-3.794361 z m -0.47893,4.866629 c -2.561234,0 -4.049794,0.597184 -6.904794,2.771117 -2.00175,1.524236 -3.93304,2.771672 -4.29156,2.771672 -1.03606,0 -8.01861,6.904877 -12.94968,12.80583 -2.48659,2.975556 -5.524602,6.478106 -6.751087,7.783116 -1.226377,1.30504 -3.050692,3.582829 -4.053984,5.061589 -1.327018,1.95597 -4.170306,2.1216 -7.600789,5.18162 -4.761476,4.24737 -6.624242,7.46721 -8.981082,10.23982 -3.240266,3.81177 -0.900826,5.46693 3.680421,5.9699 v -5.8e-4 c 1.607136,0.17651 10.633114,0.28757 20.057036,0.24679 l 17.134155,-0.0744 0.25144,-2.66576 c 0.32759,-3.47634 -1.47642,-4.98671 -4.49467,-3.76336 -2.27382,0.9216 -8.95165,1.10893 -13.850609,0.38823 -2.538788,-0.37347 -3.131033,-0.81379 -3.539503,-2.63025 -0.419963,-1.86815 0.190971,-2.89718 4.251613,-7.16444 2.608069,-2.74068 8.939829,-8.83094 14.070899,-13.533819 5.13117,-4.702881 10.70475,-9.888748 12.38579,-11.524519 l 3.056704,-2.974524 2.09971,2.230751 c 1.15495,1.226861 2.37499,2.457407 2.71085,2.734491 3.73424,3.080127 5.61784,4.818217 10.6401,9.818351 3.21803,3.20377 6.31641,6.374199 6.88535,7.045539 0.86903,1.02554 2.93244,3.49061 9.802,11.70989 1.45912,1.74575 -0.41191,2.14978 -10.27986,2.22287 l -9.75044,0.0721 v 2.90183 2.9024 l 20.42051,0.20004 c 11.23148,0.1097 20.71361,-0.0617 21.07117,-0.37978 0.35746,-0.31808 -0.75099,-1.91288 -2.46328,-3.54475 -1.71239,-1.63187 -4.17288,-4.13796 -5.46778,-5.56926 -1.29491,-1.4313 -9.60598,-9.29462 -18.46902,-17.473559 -8.86304,-8.178912 -18.20501,-16.870575 -20.7597,-19.314963 -4.14549,-3.96641 -4.99605,-4.444035 -7.90991,-4.444035 z m 60.49967,64.043794 c 5.48014,-0.0563 4.53947,0.90684 2.89614,3.32894 -2.92234,4.3075 -8.91879,10.99495 -9.87751,11.01459 -0.55841,0.0119 -1.45601,0.77478 -1.99423,1.6949 -0.53833,0.92011 -1.58576,2.24246 -2.32784,2.93846 -2.00315,1.87866 -2.90161,2.98896 -4.11177,5.08187 -1.10221,1.90608 -13.27125,13.16238 -26.16035,24.19794 -3.85979,3.30477 -8.26145,7.40357 -9.78148,9.10838 -1.52003,1.70483 -3.11847,3.09961 -3.55229,3.09961 -0.43371,0 -1.54108,0.6691 -2.46049,1.48698 -0.9194,0.81788 -1.95363,1.46067 -2.29841,1.42839 -1.64247,-0.15381 -3.248424,-2.40563 -4.413694,-2.53671 -1.24506,-0.14005 -2.59453,-0.20866 -4.80562,-1.90395 -5.21774,-4.00063 -13.76758,-11.53525 -17.73639,-15.63047 -2.068662,-2.13456 -6.068942,-6.09128 -8.889567,-8.79172 -2.820625,-2.70046 -6.393853,-6.28798 -7.940411,-7.97358 -1.546559,-1.68561 -4.036154,-3.82148 -5.532661,-4.74604 -4.689513,-2.89711 -14.961739,-12.14789 -16.509264,-14.86755 -0.814363,-1.43131 -1.843755,-2.81119 -2.286703,-3.0658 -0.503311,-0.28934 -0.44037,-1.06976 0.167555,-2.08031 0.691596,-1.14887 1.449892,-1.48236 2.620955,-1.15172 0.906196,0.25574 3.610284,0.46257 6.008905,0.46148 2.398621,-0.002 13.89325,-0.0458 25.54362,-0.098 25.648551,-0.1147 25.206141,-0.23743 25.206141,7.01851 0,2.6221 0.38645,5.67228 0.85926,6.77846 1.2441,2.91092 -0.80405,4.79162 -4.45311,4.08905 -2.79356,-0.53776 -9.66784,-0.40176 -10.34934,0.20454 -0.21686,0.19287 1.60907,2.69332 4.05785,5.55688 11.16499,13.05627 15.05099,17.23296 16.03194,17.23296 1.553764,0 3.073144,-1.29647 8.043094,-6.86524 2.4577,-2.75379 5.06609,-5.17705 5.79635,-5.38501 0.73016,-0.20805 3.51351,-2.55591 6.18538,-5.21712 5.25941,-5.23837 5.33879,-4.86756 -1.09674,-5.12639 -1.14937,-0.0462 -4.29909,0.0816 -6.45905,-0.1758 -7.43055,-0.88583 -7.19243,-0.71763 -6.47688,-4.59278 0.35498,-1.92194 0.68397,-5.41854 0.73102,-7.77016 l 0.0859,-4.275 h 9.36141 c 5.14868,2e-4 15.86783,-0.47819 23.8207,-1.06269 11.59269,-0.85197 18.34829,-1.36733 22.09799,-1.40584 z m -108.105188,4.72352 c -2.492925,0.003 -4.276747,0.24427 -5.711924,0.72969 -2.068451,0.6996 -2.23504,1.03526 -1.833874,3.69575 0.382371,2.53602 1.706596,4.04587 9.927986,11.32054 10.893577,9.63907 26.500936,24.55954 28.181756,26.94144 0.62822,0.89011 2.01131,2.10005 3.07389,2.68885 1.06258,0.58883 3.65518,2.36838 5.76133,3.95439 2.10615,1.58596 5.04868,3.14106 6.53842,3.45571 h 0.001 c 1.489634,0.31467 2.824494,0.60611 2.966704,0.64799 0.14188,0.0419 2.27521,-1.84773 2.66692,-2.18004 1.02596,-0.87032 2.72772,-1.86438 7.35322,-7.9623 3.12545,-3.17192 6.32404,-6.60356 7.10843,-7.62592 0.78451,-1.02234 5.67552,-5.70711 10.86888,-10.40999 5.19346,-4.70287 11.83532,-10.97738 14.7597,-13.94346 2.92438,-2.9661 5.49346,-5.23606 5.70913,-5.04412 0.21568,0.19182 1.13734,-0.49414 2.04815,-1.52417 0.91082,-1.03003 1.51896,-1.93885 1.35151,-2.01945 -0.16734,-0.0807 -1.20253,-0.59657 -2.30068,-1.14665 -1.51303,-0.75795 -3.8413,-0.86682 -9.6122,-0.45021 -4.18845,0.30238 -12.7891,0.52624 -19.11238,0.49811 -10.97381,-0.049 -11.54146,0.0225 -12.48568,1.56586 -1.53807,2.5143 -1.39017,4.22348 0.44134,5.0954 0.92295,0.43943 6.03329,1.18794 11.35618,1.66278 l 9.67773,0.86322 -0.25929,2.57391 c -0.25767,2.55823 -3.86784,6.11171 -18.58781,18.2934 -2.046,1.69324 -5.58207,4.94519 -7.85771,7.22641 -3.53209,3.54049 -4.44956,4.07965 -6.268724,3.68393 -1.17203,-0.25497 -2.24975,-0.7276 -2.39443,-1.0503 -0.45068,-1.00554 -5.04374,-6.12479 -7.93988,-8.84918 -1.52142,-1.43131 -3.9716,-4.17667 -5.44491,-6.10062 -1.47341,-1.92397 -4.55299,-4.90408 -6.84377,-6.62239 -2.29068,-1.71832 -4.165046,-3.46875 -4.165046,-3.88959 0,-0.42081 -0.846692,-1.56628 -1.881025,-2.54573 -1.848266,-1.75024 -1.85267,-1.79866 -0.2581,-2.83591 0.89234,-0.58047 2.961436,-1.08931 4.597461,-1.1303 8.46424,-0.21253 13.51829,-0.50611 13.85448,-0.8052 0.20633,-0.18354 0.0333,-1.39408 -0.38474,-2.69054 -0.48011,-1.48934 -0.45884,-2.5229 0.058,-2.80717 0.45004,-0.24747 0.6742,-0.83546 0.49794,-1.30611 -0.21825,-0.58242 -4.03744,-0.89558 -11.95508,-0.98099 -6.398684,-0.069 -13.702707,-0.32121 -16.231184,-0.55951 -2.965517,-0.27961 -5.333205,-0.42021 -7.272123,-0.41753 z"
       sodipodi:nodetypes="sssscsscsscscssscccsssccsscsscsssssssssscsssssssssscccccsssssccccssscccccssssssscscscssssssssssssscccccsccscssccscssccsccssssssccccscssssscsscsscccscscsssssscssccscss" />
  </g>
</svg>
