<?xml version="1.0" encoding="UTF-8" standalone="no"?>
<svg
   xmlns:dc="http://purl.org/dc/elements/1.1/"
   xmlns:cc="http://creativecommons.org/ns#"
   xmlns:rdf="http://www.w3.org/1999/02/22-rdf-syntax-ns#"
   xmlns:svg="http://www.w3.org/2000/svg"
   xmlns="http://www.w3.org/2000/svg"
   xmlns:sodipodi="http://sodipodi.sourceforge.net/DTD/sodipodi-0.dtd"
   xmlns:inkscape="http://www.inkscape.org/namespaces/inkscape"
   width="132.29166mm"
   height="132.29167mm"
   viewBox="0 0 132.29166 132.29167"
   version="1.1"
   id="svg13144"
   inkscape:version="1.0 (b51213c273, 2020-08-10)">
  <defs
     id="defs13138" />
  <sodipodi:namedview
     id="base"
     pagecolor="#ffffff"
     bordercolor="#666666"
     borderopacity="1.0"
     inkscape:pageopacity="0.0"
     inkscape:pageshadow="2"
     inkscape:zoom="0.35"
     inkscape:cx="229.28083"
     inkscape:cy="232.75878"
     inkscape:document-units="mm"
     inkscape:current-layer="layer1"
     inkscape:document-rotation="0"
     showgrid="false"
     inkscape:snap-global="false"
     inkscape:window-width="1318"
     inkscape:window-height="704"
     inkscape:window-x="48"
     inkscape:window-y="27"
     inkscape:window-maximized="1"
     fit-margin-top="0"
     fit-margin-left="0"
     fit-margin-right="0"
     fit-margin-bottom="0"
     showborder="false" />
  <metadata
     id="metadata13141">
    <rdf:RDF>
      <cc:Work
         rdf:about="">
        <dc:format>image/svg+xml</dc:format>
        <dc:type
           rdf:resource="http://purl.org/dc/dcmitype/StillImage" />
        <dc:title></dc:title>
      </cc:Work>
    </rdf:RDF>
  </metadata>
  <g
     inkscape:label="Layer 1"
     inkscape:groupmode="layer"
     id="layer1"
     transform="translate(-45.169448,-86.582573)">
    <path
       id="path1884"
       style="fill:#ff0000;stroke-width:0.788333"
       d="m 177.4609,154.68181 c 0,3.53591 -7.36597,13.04802 -22.59206,29.1736 -2.7052,2.86502 -4.91842,5.5921 -4.91842,6.05996 0,0.46785 -0.25853,0.85088 -0.57473,0.85088 -0.31632,0 -2.40775,1.8961 -4.64747,4.21389 -5.23964,5.42249 -15.39716,14.44027 -17.95189,15.9375 -1.0907,0.63925 -3.3713,2.61062 -5.0678,4.38095 -1.69651,1.77035 -3.18409,3.08705 -3.30643,2.92562 -1.48028,-1.95425 -2.31332,-9.83826 -2.10615,-19.93546 0.024,-1.14926 -0.46591,-6.9791 -1.08753,-12.95526 -1.2995,-12.49312 -1.53513,-23.5028 -0.52687,-24.61393 0.39886,-0.43974 3.90689,-0.51919 8.24579,-0.18705 9.50766,0.72782 11.08553,1.90059 10.31246,7.66404 -1.35118,10.07506 -1.35086,10.03183 -0.0578,10.03183 0.67777,0 3.6862,-2.53841 6.68601,-5.64145 2.99993,-3.10303 7.00581,-6.95867 8.90164,-8.56763 1.89571,-1.60897 4.80437,-4.47564 6.46402,-6.37024 l 3.01791,-3.44459 -5.2295,-4.37151 c -2.87628,-2.40428 -5.75539,-5.27368 -6.39816,-6.37634 -0.64266,-1.10266 -1.57907,-2.00714 -2.08085,-2.01036 -0.50168,-0.003 -3.38559,-2.82563 -6.40885,-6.27199 -7.63332,-8.70184 -8.66895,-7.37297 -6.62626,8.50825 0.48903,3.80292 0.65629,7.1767 0.37127,7.49697 -0.93226,1.04807 -15.42312,-2.38838 -16.09587,-3.81703 -0.34009,-0.72244 -0.85824,-6.20313 -1.15166,-12.17931 -0.29352,-5.97618 -0.65737,-12.55835 -0.8074,-14.62704 -1.14086,-15.71445 -0.58738,-28.635261 1.35794,-31.724586 1.2683,-2.014253 1.31324,-2.022212 2.39237,-0.417944 0.60504,0.899408 1.10956,1.888479 1.12362,2.197973 0.0676,1.601132 4.32515,5.931371 8.58827,8.734713 2.65056,1.743014 4.81931,3.486644 4.81931,3.874754 0,0.3881 0.92016,1.07818 2.04476,1.53358 1.16309,0.47097 2.89787,2.40552 4.02312,4.48586 1.08808,2.01159 2.92796,4.32916 4.08909,5.15023 1.83891,1.30045 8.87624,7.44914 9.91863,8.66644 0.20444,0.2388 1.54254,1.41896 2.97397,2.62258 1.43121,1.20362 4.63133,4.21075 7.11082,6.68217 2.4796,2.47141 5.90684,5.80973 7.61686,7.4187 1.71013,1.60899 3.11158,3.56143 3.11376,4.33877 0,0.77735 0.30334,1.62198 0.66992,1.8766 1.03487,0.71896 3.79436,7.03601 3.79436,8.68586 z m -4.86663,-0.479 c 0,-2.56114 -0.5972,-4.04976 -2.77117,-6.90473 -1.52422,-2.00176 -2.7716,-3.93307 -2.7716,-4.2916 0,-1.03598 -6.90485,-8.01856 -12.8058,-12.9497 -2.97561,-2.48653 -6.47808,-5.52457 -7.78314,-6.75099 -1.30506,-1.22643 -3.58284,-3.05076 -5.06159,-4.05403 -1.9559,-1.327 -2.12153,-4.17031 -5.18153,-7.60076 -4.24741,-4.76155 -7.46726,-6.62428 -10.23984,-8.98114 -3.81181,-3.240214 -5.46699,-0.90084 -5.96987,3.68049 h 5.8e-4 c -0.17653,1.60713 -0.28764,10.63305 -0.24686,20.05702 l 0.0741,17.13417 2.66583,0.25144 c 3.47631,0.32759 4.98668,-1.47646 3.76329,-4.49474 -0.92158,-2.27378 -1.1089,-8.95159 -0.38817,-13.85053 0.37345,-2.53879 0.81374,-3.13113 2.63017,-3.53951 1.86825,-0.42001 2.89723,0.19096 7.16448,4.25162 2.74064,2.60797 8.83087,8.93976 13.53384,14.0709 4.70286,5.13113 9.88864,10.70465 11.52441,12.38577 l 2.97451,3.05662 -2.23067,2.09973 c -1.22688,1.15497 -2.45746,2.37502 -2.73453,2.71083 -3.08006,3.73423 -4.81821,5.61787 -9.8183,10.64017 -3.20383,3.21796 -6.37417,6.31639 -7.04551,6.8853 -1.02561,0.86908 -3.4906,2.93242 -11.70988,9.80206 -1.74578,1.4591 -2.14976,-0.41193 -2.22294,-10.27994 l -0.072,-9.75044 h -2.90179 -2.90234 l -0.20008,20.42057 c -0.10969,11.23144 0.0622,20.71356 0.37977,21.0711 0.31806,0.35754 1.91294,-0.75093 3.54478,-2.46328 1.63184,-1.71233 4.13794,-4.17281 5.56926,-5.46773 1.43122,-1.29492 9.29461,-9.60599 17.47345,-18.46905 8.17895,-8.86303 16.87058,-18.20499 19.31497,-20.75971 3.96642,-4.14542 4.444,-4.99605 4.444,-7.90991 z m -64.04374,60.49966 c 0.0567,5.48021 -0.90674,4.53951 -3.32888,2.89621 -4.3075,-2.92242 -10.99493,-8.91877 -11.014556,-9.87754 -0.01201,-0.55845 -0.774813,-1.45606 -1.694866,-1.99426 -0.920159,-0.53824 -2.242554,-1.5857 -2.938534,-2.32785 -1.878592,-2.00315 -2.988914,-2.9016 -5.08187,-4.11176 -1.906068,-1.10216 -13.162352,-13.27122 -24.197836,-26.16028 -3.30479,-3.85981 -7.403585,-8.26153 -9.108372,-9.78151 -1.704787,-1.52001 -3.099583,-3.11851 -3.099583,-3.55229 0,-0.43373 -0.669158,-1.54106 -1.487041,-2.46049 -0.817884,-0.91941 -1.460654,-1.95366 -1.42838,-2.29844 0.153851,-1.64241 2.405675,-3.2484 2.536737,-4.4137 0.140003,-1.24499 0.208696,-2.59453 1.903997,-4.80556 4.000552,-5.21775 11.535199,-13.76757 15.630395,-17.73639 2.1345,-2.06868 6.09122,-6.06892 8.791728,-8.88957 2.700401,-2.82063 6.287923,-6.39387 7.973521,-7.94044 1.685597,-1.54657 3.821513,-4.03609 4.746036,-5.53267 2.897101,-4.68951 12.147875,-14.961675 14.867574,-16.5092 1.43121,-0.814416 2.81118,-1.843744 3.06578,-2.286767 0.28928,-0.503289 1.06976,-0.440338 2.08032,0.16762 1.14881,0.691553 1.48235,1.449816 1.15164,2.620911 -0.25569,0.90626 -0.46253,3.610283 -0.46144,6.008897 0,2.39861 0.0458,13.893309 0.0981,25.543629 0.11471,25.64851 0.23737,25.20616 -7.01847,25.20616 -2.622111,0 -5.672301,0.38645 -6.778477,0.8592 -2.910949,1.24412 -4.791612,-0.804 -4.089089,-4.45311 0.537767,-2.79353 0.401798,-9.66775 -0.204444,-10.34933 -0.192885,-0.2168 -2.693315,1.60916 -5.556942,4.05793 -13.056259,11.16498 -17.232906,15.05098 -17.232906,16.03185 0,1.55384 1.296445,3.07317 6.865271,8.04313 2.75372,2.4577 5.177059,5.0661 5.384989,5.79631 0.208044,0.73024 2.555927,3.51351 5.217075,6.18539 5.238337,5.25948 4.867613,5.33887 5.126356,-1.09676 0.0458,-1.14926 -0.08178,-4.29907 0.175876,-6.45903 0.885812,-7.43047 0.717568,-7.19235 4.592729,-6.47679 1.92188,0.35488 5.418575,0.68393 7.770162,0.73098 l 4.275,0.0855 v 9.36136 c -2.1e-4,5.1487 0.47813,15.86787 1.06267,23.82078 0.85191,11.59262 1.36732,18.34829 1.40581,22.09791 z m -4.72346,-108.10512 c 0,-2.49291 -0.24425,-4.27675 -0.72968,-5.71196 -0.69958,-2.068449 -1.0353,-2.235006 -3.695793,-1.833861 -2.535974,0.382381 -4.045804,1.706661 -11.320506,9.928061 -9.639053,10.89353 -24.559511,26.50085 -26.941306,28.18174 -0.890175,0.62817 -2.100045,2.01122 -2.688843,3.07383 -0.588906,1.06264 -2.368384,3.65517 -3.95443,5.76134 -1.585937,2.10619 -3.141017,5.04873 -3.455697,6.53841 v 0.001 c -0.314679,1.48968 -0.606134,2.82456 -0.648004,2.9667 -0.04143,0.14191 1.847734,2.27527 2.180078,2.66699 0.87033,1.02588 1.864307,2.72771 7.962288,7.3532 3.171874,3.12537 6.603474,6.32398 7.62591,7.10843 1.022327,0.78443 5.707084,5.67544 10.409941,10.86885 4.702857,5.19341 10.977368,11.83531 13.943381,14.75969 2.966123,2.9244 5.236047,5.49343 5.044141,5.70919 -0.191793,0.21567 0.494156,1.13729 1.524116,2.0481 1.030064,0.9108 1.938884,1.51897 2.019464,1.35153 0.0807,-0.16733 0.59665,-1.20251 1.14663,-2.30065 0.75802,-1.51306 0.86684,-3.84141 0.45021,-9.61223 -0.30236,-4.18845 -0.52621,-12.78907 -0.49808,-19.11235 0.0491,-10.97384 -0.0229,-11.54151 -1.56587,-12.48569 -2.514275,-1.53813 -4.223425,-1.39019 -5.09539,0.44127 -0.439418,0.923 -1.187953,6.03328 -1.662699,11.35617 l -0.863242,9.67773 -2.57392,-0.25921 c -2.558214,-0.25768 -6.111717,-3.86784 -18.293395,-18.58783 -1.693229,-2.04604 -4.945136,-5.58206 -7.2264,-7.85773 -3.540418,-3.53203 -4.079604,-4.4495 -3.68391,-6.26866 0.255036,-1.17211 0.727601,-2.24977 1.050349,-2.39446 1.005536,-0.45065 6.124695,-5.0438 8.849083,-7.93989 1.431323,-1.52148 4.176755,-3.97162 6.100706,-5.44496 1.923952,-1.47332 4.904029,-4.55292 6.622338,-6.84368 1.718307,-2.29078 3.46878,-4.16505 3.889552,-4.16505 0.420772,0 1.566311,-0.84669 2.545786,-1.88103 1.750147,-1.84832 1.798559,-1.8527 2.835825,-0.2581 0.580511,0.89235 1.089386,2.96138 1.130383,4.59742 0.212513,8.46429 0.506037,13.51824 0.805127,13.85443 0.183506,0.20635 1.39414,0.0333 2.690585,-0.38465 1.489332,-0.48012 2.522892,-0.45883 2.807142,0.0583 0.24741,0.45002 0.83544,0.67416 1.30604,0.49788 0.58248,-0.21822 0.89563,-4.03739 0.98101,-11.95507 0.0687,-6.39871 0.32122,-13.70273 0.55957,-16.23112 0.27957,-2.96551 0.42023,-5.33325 0.41751,-7.27216 z"
       sodipodi:nodetypes="sssscccccscscssscccsscccccccscsssssscssscsscsssscsscccccsssssccccssscccccsssssccccccccccsccscscssscccccsccscscccscsccccccssssccccccccssscsccsccscccccccccssscccsccscss" />
    <path
       style="opacity:0.930349;fill:#ffffff;stroke-width:0.632704"
       d="m 46.806598,152.92695 c 0.685622,-0.86343 1.253048,-2.1633 1.26079,-2.88858 0.02944,-2.74699 6.727775,-10.60749 24.829158,-29.13733 7.253876,-7.42562 14.07379,-14.77274 15.155323,-16.32695 3.458204,-4.969531 10.829296,-12.928322 14.150331,-15.278653 5.55956,-3.934459 5.27716,-5.383878 5.04775,25.908613 -0.2401,32.75772 0.34052,30.39593 -7.644346,31.09233 -2.918472,0.25453 -6.167,0.50828 -7.218766,0.56387 l -1.912502,0.10107 -0.179583,-7.37851 c -0.128882,-5.29392 -0.399075,-7.37482 -0.956252,-7.36539 -0.86586,0.0146 -11.042244,8.46255 -18.148051,15.06556 -2.988802,2.77727 -4.621843,4.77807 -4.621843,5.66272 0,0.8672 2.275376,3.74828 6.215522,7.87028 3.418517,3.57626 8.246548,8.67963 10.728984,11.34083 2.774981,2.97488 4.800662,4.66367 5.25927,4.38453 0.46417,-0.28261 0.747117,-2.27741 0.749408,-5.28366 0,-4.29996 0.883633,-11.87858 1.443863,-12.4305 0.116124,-0.11439 3.56724,0.12243 7.669089,0.52626 l 7.457997,0.73423 0.0174,11.33367 c 0.0109,6.23351 0.43385,16.9853 0.94218,23.89285 1.14718,15.58564 1.21783,22.92051 0.22113,22.92051 -1.19035,0 -6.17638,-4.18845 -12.852477,-10.79654 -3.438904,-3.40388 -7.367383,-6.91562 -8.729905,-7.80386 -2.490831,-1.62371 -9.393393,-8.95883 -25.929664,-27.55461 -4.913952,-5.52604 -9.552369,-10.58566 -10.307447,-11.2436 -0.755078,-0.65794 -1.37288,-1.46111 -1.37288,-1.78483 0,-0.32372 -0.57375,-1.30707 -1.274965,-2.18522 -1.551917,-1.94348 -1.551917,-1.98471 0,-3.93911 z m 10.975296,10.62041 c 4.283393,4.00204 9.666748,9.11322 11.963167,11.35817 4.781145,4.6741 26.359815,27.8834 28.586996,30.74717 1.875753,2.41203 2.931553,2.41094 3.947013,-0.004 0.62064,-1.47583 0.70263,-6.22832 0.36026,-20.87963 -0.24381,-10.43289 -0.58018,-19.43302 -0.74734,-20.00029 -0.37061,-1.25696 -3.694483,-2.70497 -5.040977,-2.19601 -1.55072,0.58621 -2.14464,2.94856 -3.177871,12.64039 -0.532207,4.99157 -0.967592,9.22514 -0.967592,9.40767 0,0.74648 -2.361186,0.2491 -4.275432,-0.90063 -1.124276,-0.67527 -5.140423,-4.82517 -8.924754,-9.22197 -3.784334,-4.3968 -9.390669,-10.77379 -12.458631,-14.17112 -3.067854,-3.39734 -5.577985,-6.73562 -5.577985,-7.41841 0,-0.75882 2.540334,-3.61475 6.534236,-7.34622 3.593846,-3.35761 10.346699,-9.8562 15.00638,-14.44128 4.659568,-4.58508 8.719437,-8.33652 9.021796,-8.33652 0.987543,0 1.949354,3.87354 1.949354,7.85108 0,2.14276 0.179478,5.58752 0.398858,7.65501 l 0.398856,3.75909 3.771139,-0.0505 c 3.246013,-0.0435 3.806463,-0.22615 4.024653,-1.31211 0.13946,-0.69391 0.57047,-9.23894 0.95788,-18.98896 0.88996,-22.398611 0.5381,-24.152068 -4.563288,-22.743464 -2.892631,0.798681 -4.154294,1.960264 -14.289135,13.154534 -4.846676,5.35336 -12.718029,13.68951 -17.491869,18.5248 -11.130673,11.27383 -16.813224,19.47989 -17.138807,24.74948 -0.03053,0.48788 3.449808,4.16143 7.733093,8.16347 z"
       id="path1886" />
    <path
       style="opacity:0.930349;fill:#ffffff;stroke-width:0.632704"
       d="m 47.041571,152.92695 c 0.461225,-0.86343 1.501652,-2.91982 2.312012,-4.56973 1.892766,-3.85337 6.338297,-8.95396 22.292422,-25.5769 7.12445,-7.42309 14.674363,-15.61589 16.77768,-18.20623 9.249138,-11.390915 16.287995,-17.938542 17.743305,-16.504965 0.99224,0.97746 0.45959,54.126025 -0.56012,55.882385 -0.8712,1.5006 -2.05491,1.78959 -9.873264,2.41059 l -4.940557,0.39242 v -4.36165 c 0,-6.21592 -0.645714,-10.18856 -1.656156,-10.18856 -2.400877,0 -22.568286,18.34458 -22.568286,20.52847 0,0.73553 1.106286,2.70495 2.458339,4.37651 3.959991,4.89589 18.62356,19.68012 19.519512,19.68012 0.575168,0 0.945566,-1.64451 1.237457,-5.49464 0.229196,-3.02206 0.587599,-7.01405 0.796511,-8.87111 l 0.379775,-3.37646 5.494464,0.41721 c 3.021949,0.22946 6.426725,0.57935 7.566265,0.77752 l 2.07181,0.36031 0.0382,4.7968 c 0.10904,13.66729 0.44204,28.0986 0.91275,39.49154 0.36298,8.78813 0.3186,12.71618 -0.14382,12.71618 -1.02167,0 -8.535389,-6.67965 -24.643036,-21.90753 -5.1341,-4.85368 -32.217916,-34.69922 -34.517607,-38.03726 -1.808589,-2.62536 -1.81197,-2.64844 -0.697507,-4.73502 z m 14.586588,14.82072 c 10.748282,10.41275 29.265094,29.78261 35.206936,36.82894 1.383455,1.64054 3.018131,2.98281 3.632775,2.98281 2.42006,0 2.61589,-1.93344 2.31157,-22.81402 l -0.29254,-20.07771 -1.49489,-1.19235 c -0.92453,-0.73745 -2.243214,-1.12037 -3.456358,-1.00369 -1.775441,0.17078 -2.035385,0.48369 -2.740743,3.2996 -0.428732,1.71102 -1.121441,6.58555 -1.539377,10.8323 -1.159386,11.77804 -0.732944,12.018 -22.544188,-12.6873 -6.323141,-7.16213 -8.605059,-10.11838 -8.605059,-11.14789 0,-0.94808 28.994464,-29.35548 29.962057,-29.35548 0.785499,0 1.231021,2.42256 1.617013,8.79143 0.637536,10.51898 0.42775,10.04734 4.467663,10.04734 2.022412,0 3.477282,-0.27825 3.477282,-0.66502 0,-0.36575 0.24555,-0.51556 0.54562,-0.33288 0.77645,0.47271 1.26657,-6.44874 1.70806,-24.12072 0.4428,-17.729043 0.27357,-18.573405 -3.6983,-18.454977 -1.283253,0.03824 -3.027728,0.517886 -3.876687,1.065813 -0.848959,0.547934 -6.222719,6.026984 -11.941798,12.175644 -5.718969,6.14866 -13.148613,14.0052 -16.510429,17.45898 -7.891306,8.1074 -12.992364,14.38567 -15.681534,19.30086 -3.621541,6.61922 -3.82882,6.20125 9.452927,19.06832 z"
       id="path1888" />
    <path
       style="opacity:0.930349;fill:#ffffff;stroke-width:0.632704"
       d="m 114.36306,92.829074 c 0.31784,-1.451771 0.90467,-3.241242 1.30418,-3.976595 0.6974,-1.283593 0.76184,-1.291026 1.61178,-0.186212 0.48696,0.63293 0.89443,1.510319 0.90566,1.949765 0.0327,1.294914 5.10902,6.351301 9.41422,9.377535 2.19632,1.543803 3.99325,3.057413 3.99325,3.363613 0,0.30619 0.85179,0.99063 1.89298,1.52097 1.04108,0.53036 3.01879,2.58633 4.39494,4.56883 1.37615,1.98252 4.89901,5.72393 7.82872,8.31426 2.92959,2.59034 9.7989,8.87012 15.26512,13.95507 9.47168,8.81099 10.07814,9.52239 12.90906,15.14086 1.6338,3.24251 2.97059,6.75877 2.97059,7.81391 0,2.56234 -4.61672,9.24287 -12.55033,18.16069 -3.44054,3.86739 -8.06881,9.09515 -10.2852,11.61724 -8.07907,9.19372 -18.00707,18.58458 -30.57124,28.91747 l -5.15209,4.23719 -0.64757,-3.29525 c -0.35611,-1.81238 -0.82802,-7.39266 -1.04871,-12.40064 -0.22069,-5.00797 -0.80884,-13.62671 -1.30724,-19.15276 -1.23375,-13.68199 -1.20617,-20.64169 0.0861,-21.69808 1.37953,-1.12779 13.66479,0.10547 15.98803,1.6049 l 1.63577,1.05577 -0.45621,7.47784 c -0.40834,6.6948 -0.34663,7.47784 0.58945,7.47784 1.07499,0 21.78922,-19.61089 24.12533,-22.84034 l 1.30484,-1.80371 -3.76449,-3.20239 c -2.0705,-1.76131 -4.7685,-4.31103 -5.9957,-5.66603 -1.22721,-1.355 -2.79766,-2.91712 -3.48994,-3.47136 -0.69227,-0.55424 -3.68195,-3.49358 -6.64382,-6.53188 -6.97419,-7.15443 -8.04035,-7.21311 -8.02127,-0.44144 0.0109,2.59033 0.26212,7.35544 0.56601,10.58915 l 0.55259,5.87944 -3.43465,-0.45973 c -4.44117,-0.59447 -11.06351,-2.60391 -11.91606,-3.61574 -1.55028,-1.84009 -3.31646,-48.512944 -2.05392,-54.280186 z m 7.93993,51.306446 c 3.691,0 5.15264,-1.33503 4.40933,-4.02752 -0.29429,-1.06595 -0.53591,-5.10747 -0.53689,-8.98115 -0.001,-5.73615 0.19506,-7.23695 1.05972,-8.0879 2.51024,-2.47049 5.03695,-0.35116 24.9636,20.93869 l 10.7255,11.45934 -7.63496,8.32137 c -8.90306,9.70339 -11.66517,12.36983 -19.87225,19.18402 -3.97645,3.30155 -6.21694,4.77967 -6.52453,4.30434 -0.25754,-0.39816 -0.47267,-5.0333 -0.47802,-10.30031 l -0.0109,-9.57638 h -3.09391 -3.09392 l -0.41226,4.80444 c -0.52392,6.1053 -0.52621,31.79657 0,34.91399 0.21731,1.29516 0.73087,2.35484 1.14128,2.35484 1.3152,0 23.00258,-22.51107 47.00142,-48.78671 2.7088,-2.96576 3.40402,-4.91246 2.83027,-7.92505 -0.48718,-2.55819 -5.92091,-11.13891 -9.14741,-14.44507 -2.40905,-2.46862 -16.41459,-14.91538 -20.56027,-18.27202 -1.22709,-0.9936 -2.86941,-2.91242 -3.64945,-4.26405 -0.78016,-1.35163 -2.21443,-3.40364 -3.18747,-4.56002 -2.35214,-2.79537 -10.57927,-9.53595 -12.293,-10.07174 -1.71656,-0.53666 -3.65187,1.08808 -4.00677,3.36376 -0.14251,0.91389 -0.30214,10.2097 -0.35471,20.65737 l -0.0959,18.99576 z"
       id="path1890" />
    <path
       style="opacity:0.930349;fill:#ffffff;stroke-width:0.632704"
       d="m 114.79081,92.014905 c 0.22538,-0.518068 0.67003,-1.633998 0.9882,-2.479842 0.55935,-1.487323 0.63906,-1.433286 2.42279,1.643236 1.04479,1.801994 3.58708,4.595212 5.86421,6.442876 2.21093,1.79396 5.30811,4.304185 6.88249,5.578295 1.57449,1.27411 3.726,3.3 4.78115,4.50197 2.86439,3.26282 14.02625,14.20191 25.32571,24.82027 9.51868,8.94491 10.14847,9.68761 12.59024,14.84614 1.41377,2.98661 2.57043,6.26314 2.57043,7.28118 0,3.36122 -4.49711,9.33654 -20.44404,27.16405 -9.87402,11.03836 -17.75573,18.6937 -29.27981,28.43865 l -7.9685,6.73837 -0.42677,-2.04651 c -0.40268,-1.93117 -2.01653,-23.77579 -2.98106,-40.35204 -0.24119,-4.14453 -0.29026,-8.80712 -0.10904,-10.36133 l 0.3294,-2.82581 5.83019,0.0466 c 3.82456,0.0306 6.7969,0.41031 8.6406,1.10393 l 2.81053,1.05732 -0.27249,7.53051 c -0.23824,6.58113 -0.14469,7.53052 0.74233,7.53052 1.85842,0 25.59786,-22.56575 25.59786,-24.33228 0,-0.25967 -5.6373,-5.91181 -12.52722,-12.56033 -8.44858,-8.15258 -12.97513,-12.08821 -13.90292,-12.08821 -0.75661,0 -1.19842,0.28258 -0.98177,0.62796 0.21677,0.34538 0.0469,0.62796 -0.37803,0.62796 -0.58825,0 -0.66763,2.05133 -0.3331,8.61641 0.2414,4.73901 0.59305,9.22141 0.78146,9.96089 0.32875,1.29 0.20946,1.32375 -2.94333,0.83281 -4.39701,-0.68469 -9.62117,-2.21255 -10.98446,-3.21251 -0.85179,-0.62479 -1.25937,-2.40913 -1.76301,-7.72016 -0.76947,-8.11271 -1.45902,-46.038365 -0.86204,-47.410923 z m 7.74901,52.120615 c 1.68298,0 3.37599,-0.31134 3.76231,-0.69187 0.47812,-0.47099 0.59196,-3.4388 0.35666,-9.29571 -0.49001,-12.19243 0.62347,-13.65737 6.68743,-8.79824 3.54434,2.84008 28.52637,29.22222 28.52637,30.12507 0,0.31289 -3.81901,4.68227 -8.48665,9.70971 -8.00274,8.61949 -18.02734,17.83608 -22.2946,20.49757 l -1.91315,1.19317 -0.46395,-9.75259 -0.46406,-9.75261 h -3.17831 c -2.5326,0 -3.10547,0.18733 -2.81936,0.92182 0.19757,0.50702 0.085,1.08885 -0.25057,1.29298 -0.66654,0.4058 -0.8772,37.18482 -0.22265,38.86516 0.21284,0.54633 0.80709,0.99331 1.32054,0.99331 2.26949,0 48.85058,-49.23045 49.687,-52.51301 0.76303,-2.99491 -0.26704,-6.52021 -3.32878,-11.39256 -3.405,-5.41838 -7.47195,-9.60855 -19.83714,-20.43819 -4.63471,-4.05918 -9.4236,-8.85442 -10.64208,-10.65609 -3.89609,-5.76096 -13.14011,-13.6371 -16.00548,-13.6371 -3.33292,0 -3.49342,1.05962 -3.49342,23.06024 v 20.26894 z"
       id="path1892" />
  </g>
</svg>
