<?xml version="1.0" encoding="UTF-8" standalone="no"?>
<svg
   xmlns:dc="http://purl.org/dc/elements/1.1/"
   xmlns:cc="http://creativecommons.org/ns#"
   xmlns:rdf="http://www.w3.org/1999/02/22-rdf-syntax-ns#"
   xmlns:svg="http://www.w3.org/2000/svg"
   xmlns="http://www.w3.org/2000/svg"
   xmlns:sodipodi="http://sodipodi.sourceforge.net/DTD/sodipodi-0.dtd"
   xmlns:inkscape="http://www.inkscape.org/namespaces/inkscape"
   width="132.29167mm"
   height="132.29167mm"
   viewBox="0 0 132.29167 132.29167"
   version="1.1"
   id="svg11290"
   inkscape:version="1.0 (b51213c273, 2020-08-10)">
  <defs
     id="defs11284" />
  <sodipodi:namedview
     id="base"
     pagecolor="#ffffff"
     bordercolor="#666666"
     borderopacity="1.0"
     inkscape:pageopacity="0.0"
     inkscape:pageshadow="2"
     inkscape:zoom="0.35"
     inkscape:cx="183.04386"
     inkscape:cy="254.75005"
     inkscape:document-units="mm"
     inkscape:current-layer="layer1"
     inkscape:document-rotation="0"
     showgrid="false"
     fit-margin-top="0"
     fit-margin-left="0"
     fit-margin-right="0"
     fit-margin-bottom="0"
     showborder="false"
     inkscape:snap-global="false"
     inkscape:window-width="1318"
     inkscape:window-height="704"
     inkscape:window-x="48"
     inkscape:window-y="27"
     inkscape:window-maximized="1" />
  <metadata
     id="metadata11287">
    <rdf:RDF>
      <cc:Work
         rdf:about="">
        <dc:format>image/svg+xml</dc:format>
        <dc:type
           rdf:resource="http://purl.org/dc/dcmitype/StillImage" />
        <dc:title></dc:title>
      </cc:Work>
    </rdf:RDF>
  </metadata>
  <g
     inkscape:label="Layer 1"
     inkscape:groupmode="layer"
     id="layer1"
     transform="translate(-57.402978,-80.764049)">
    <path
       id="path1874"
       style="fill:#ff0000;stroke-width:0.788333"
       d="m 125.50221,80.764081 c 3.53596,0 13.04807,7.366003 29.17356,22.592059 2.8651,2.70518 5.59217,4.91847 6.06002,4.91847 0.46787,0 0.85088,0.25847 0.85088,0.57473 0,0.31627 1.89607,2.40778 4.21392,4.64745 5.42246,5.23964 14.44027,15.39717 15.93742,17.95194 0.63929,1.09073 2.61065,3.37131 4.38093,5.0678 1.7704,1.69648 3.08711,3.18416 2.92567,3.3064 -1.95427,1.48034 -9.8383,2.31334 -19.93545,2.10623 -1.14925,-0.0236 -6.97911,0.46584 -12.95526,1.08748 -12.49307,1.29953 -23.50276,1.53518 -24.61388,0.52684 -0.43985,-0.39882 -0.51922,-3.90685 -0.18712,-8.24572 0.72779,-9.50775 1.90058,-11.08553 7.66405,-10.31252 10.07504,1.35114 10.03185,1.35084 10.03185,0.058 0,-0.67772 -2.53847,-3.68616 -5.64146,-6.68605 -3.103,-2.99987 -6.95871,-7.00584 -8.56767,-8.90159 -1.60897,-1.89576 -4.47556,-4.80439 -6.37023,-6.46405 l -3.44454,-3.01791 -4.3716,5.2295 c -2.4042,2.87626 -5.27359,5.75544 -6.37622,6.39813 -1.10276,0.64273 -2.00723,1.57909 -2.01046,2.08087 0,0.50172 -2.82557,3.3856 -6.27195,6.40882 -8.701823,7.63341 -7.372968,8.66897 8.50827,6.62633 3.80288,-0.48906 7.17664,-0.65625 7.49694,-0.37131 1.04807,0.93234 -2.38843,15.42321 -3.81705,16.0959 -0.72243,0.34013 -6.2031,0.85828 -12.17925,1.15171 -5.97625,0.29348 -12.558386,0.65738 -14.627052,0.80744 -15.714448,1.14076 -28.635338,0.58732 -31.724588,-1.35794 -2.014318,-1.26835 -2.022266,-1.31334 -0.417922,-2.39246 0.899322,-0.60502 1.888436,-1.10949 2.197876,-1.12355 1.601229,-0.0673 5.931464,-4.32523 8.734796,-8.58832 1.743007,-2.65062 3.486658,-4.81929 3.874721,-4.81929 0.388062,0 1.078155,-0.92021 1.533562,-2.04481 0.470981,-1.16303 2.405495,-2.89783 4.485868,-4.02314 2.011632,-1.08811 4.329161,-2.92796 5.15029,-4.08905 1.300381,-1.83898 7.44913,-8.87627 8.666377,-9.91864 0.238767,-0.20447 1.418959,-1.54262 2.622576,-2.97396 1.203596,-1.43129 4.210796,-4.631359 6.682226,-7.11091 2.47134,-2.479574 5.80967,-5.906807 7.41864,-7.616897 1.60907,-1.7101 3.5614,-3.111518 4.33883,-3.113698 0.7773,-0.0022 1.62195,-0.303363 1.87662,-0.669955 0.71887,-1.034836 7.03593,-3.794361 8.68581,-3.794361 z m -0.47904,4.866628 c -2.56112,0 -4.04969,0.597184 -6.90467,2.771116 -2.00176,1.524236 -3.93305,2.771672 -4.29157,2.771672 -1.03606,0 -8.0186,6.904875 -12.94978,12.805833 -2.486492,2.97555 -5.524498,6.4781 -6.750994,7.78312 -1.226377,1.30504 -3.050691,3.58283 -4.053983,5.06158 -1.327018,1.95597 -4.170305,2.1216 -7.600789,5.18162 -4.761583,4.24737 -6.624241,7.46721 -8.981188,10.23982 -3.240158,3.81178 -0.900826,5.46694 3.680528,5.96991 v -5.8e-4 c 1.607136,0.17651 10.633113,0.28757 20.057045,0.24679 l 17.134151,-0.0744 0.25145,-2.66575 c 0.32758,-3.47636 -1.47643,-4.98673 -4.49469,-3.76338 -2.27381,0.9216 -8.95165,1.10893 -13.850606,0.38823 -2.538788,-0.37347 -3.13114,-0.81379 -3.539502,-2.63025 -0.419963,-1.86815 0.19097,-2.89718 4.251612,-7.16444 2.607958,-2.74067 8.939846,-8.83093 14.070916,-13.53382 5.13116,-4.70288 10.70463,-9.888747 12.38578,-11.524517 l 3.0566,-2.974524 2.0998,2.230751 c 1.15496,1.22686 2.375,2.457406 2.71075,2.73449 3.73424,3.08013 5.61794,4.81822 10.64021,9.81835 3.21792,3.20377 6.3164,6.3742 6.88535,7.04554 0.86902,1.02554 2.93233,3.49061 9.802,11.70989 1.45912,1.74575 -0.41191,2.14978 -10.27996,2.22287 l -9.75044,0.0721 v 2.90183 2.90241 l 20.4206,0.20004 c 11.23148,0.1097 20.71361,-0.0617 21.07106,-0.37978 0.35756,-0.31808 -0.75088,-1.9129 -2.46328,-3.54476 -1.71228,-1.63187 -4.17277,-4.13796 -5.46767,-5.56926 -1.29491,-1.43131 -9.60597,-9.29463 -18.46902,-17.47357 -8.86304,-8.1789 -18.205,-16.870563 -20.7598,-19.31495 -4.14538,-3.966409 -4.99606,-4.444034 -7.90991,-4.444034 z m 60.49966,64.043811 c 5.48025,-0.0563 4.53958,0.90684 2.89624,3.32894 -2.92244,4.3075 -8.91878,10.99494 -9.8775,11.01458 -0.55852,0.0119 -1.45612,0.77478 -1.99434,1.6949 -0.53822,0.92012 -1.58565,2.24246 -2.32784,2.93847 -2.00315,1.87866 -2.90161,2.98896 -4.11177,5.08186 -1.1021,1.90609 -13.27114,13.16238 -26.16024,24.19794 -3.85979,3.30476 -8.26156,7.40357 -9.78148,9.10838 -1.52002,1.70482 -3.11856,3.09961 -3.55228,3.09961 -0.43371,0 -1.54107,0.66909 -2.46049,1.48698 -0.9194,0.81787 -1.95374,1.46067 -2.29852,1.42838 -1.64235,-0.15381 -3.24831,-2.40562 -4.41369,-2.53671 -1.24496,-0.14004 -2.59453,-0.20865 -4.8055,-1.90394 -5.21775,-4.00063 -13.76759,-11.53525 -17.736403,-15.63047 -2.068666,-2.13456 -6.068945,-6.09128 -8.88957,-8.79172 -2.820624,-2.70046 -6.393852,-6.28797 -7.940411,-7.97357 -1.546666,-1.68561 -4.036153,-3.82148 -5.532767,-4.74605 -4.689513,-2.89711 -14.96163,-12.14789 -16.509155,-14.86755 -0.814363,-1.4313 -1.843755,-2.81118 -2.28681,-3.0658 -0.503204,-0.28934 -0.440263,-1.06976 0.167663,-2.0803 0.691596,-1.14888 1.449784,-1.48237 2.620954,-1.15172 0.906196,0.25573 3.610283,0.46256 6.008904,0.46147 2.398514,-0.002 13.893249,-0.0458 25.543617,-0.098 25.648448,-0.11471 25.206148,-0.23743 25.206148,7.0185 0,2.62211 0.38645,5.67228 0.85915,6.77846 1.2442,2.91092 -0.80395,4.79162 -4.45311,4.08906 -2.79345,-0.53776 -9.66774,-0.40176 -10.34934,0.20454 -0.21675,0.19286 1.60917,2.69332 4.05795,5.55687 11.165,13.05627 15.05099,17.23296 16.03184,17.23296 1.55386,0 3.07325,-1.29647 8.0432,-6.86524 2.4577,-2.75379 5.06608,-5.17705 5.79624,-5.38501 0.73026,-0.20805 3.51351,-2.55591 6.18548,-5.21711 5.25943,-5.23837 5.33879,-4.86757 -1.09685,-5.12639 -1.14924,-0.0462 -4.29908,0.0816 -6.45904,-0.1758 -7.43044,-0.88584 -7.19232,-0.71764 -6.47677,-4.59278 0.35487,-1.92194 0.68398,-5.41854 0.73101,-7.77016 l 0.0859,-4.275 h 9.36131 c 5.14877,2e-4 15.86793,-0.47819 23.82079,-1.06269 11.59269,-0.85197 18.34829,-1.36733 22.09799,-1.40585 z m -108.105069,4.72352 c -2.492925,0.003 -4.276746,0.24426 -5.712031,0.72968 -2.068451,0.69961 -2.234932,1.03527 -1.833766,3.69575 0.382371,2.53602 1.706596,4.04588 9.927984,11.32054 10.893577,9.63907 26.500832,24.55954 28.181752,26.94144 0.62824,0.89011 2.01121,2.10004 3.0739,2.68884 1.06259,0.58883 3.65518,2.36839 5.76134,3.9544 2.10614,1.58596 5.04867,3.14105 6.53841,3.45571 h 0.001 c 1.48965,0.31467 2.82449,0.6061 2.9667,0.64798 0.1419,0.0419 2.27522,-1.84772 2.66693,-2.18003 1.02585,-0.87032 2.72772,-1.86438 7.35321,-7.96231 3.12534,-3.17191 6.32404,-6.60355 7.10843,-7.62591 0.7844,-1.02234 5.67542,-5.70711 10.86889,-10.40998 5.19336,-4.70288 11.83531,-10.97738 14.75969,-13.94347 2.92438,-2.96609 5.49335,-5.23605 5.70913,-5.04411 0.21568,0.19181 1.13734,-0.49415 2.04815,-1.52418 0.91082,-1.03002 1.51896,-1.93884 1.35151,-2.01944 -0.16734,-0.0807 -1.20253,-0.59658 -2.30067,-1.14666 -1.51304,-0.75794 -3.84142,-0.86682 -9.6122,-0.4502 -4.18846,0.30238 -12.7891,0.52623 -19.11238,0.4981 -10.97382,-0.0489 -11.54147,0.0225 -12.48568,1.56587 -1.53807,2.5143 -1.39018,4.22347 0.44122,5.0954 0.92307,0.43943 6.03329,1.18793 11.35619,1.66278 l 9.67772,0.86322 -0.25917,2.5739 c -0.25766,2.55823 -3.86784,6.11171 -18.5878,18.2934 -2.04601,1.69324 -5.58208,4.94519 -7.85772,7.22641 -3.53209,3.54049 -4.44957,4.07965 -6.26872,3.68393 -1.17203,-0.25497 -2.24975,-0.7276 -2.39444,-1.0503 -0.45068,-1.00554 -5.04385,-6.12479 -7.93987,-8.84918 -1.52153,-1.43131 -3.9716,-4.17667 -5.44501,-6.10062 -1.47331,-1.92397 -4.5529,-4.90408 -6.84368,-6.62239 -2.290785,-1.71832 -4.165043,-3.46875 -4.165043,-3.88959 0,-0.42081 -0.846692,-1.56628 -1.881025,-2.54573 -1.848266,-1.75023 -1.85267,-1.79866 -0.2581,-2.8359 0.89234,-0.58048 2.961446,-1.08931 4.597464,-1.13031 8.464234,-0.21252 13.518184,-0.5061 13.854364,-0.80519 0.20645,-0.18354 0.0333,-1.39408 -0.38462,-2.69054 -0.48011,-1.48934 -0.45884,-2.5229 0.058,-2.80717 0.45003,-0.24747 0.67419,-0.83547 0.49794,-1.30611 -0.2183,-0.58242 -4.03749,-0.89559 -11.95513,-0.981 -6.398791,-0.069 -13.702813,-0.32121 -16.231182,-0.55951 -2.965517,-0.2796 -5.333205,-0.4202 -7.272122,-0.41752 z"
       sodipodi:nodetypes="sssscccccscscssscccsscccccccscsssssscssscsscsssscsscccccsssssccccssscccccsssssccccccccccsccscscssscccccsccscscccscsccccccssssccccccccssscsccsccscccccccccssscccsccscss" />
    <path
       style="opacity:0.930349;fill:#ffffff;stroke-width:0.632705"
       d="m 123.7474,211.41858 c -0.86346,-0.68564 -2.16331,-1.253 -2.88862,-1.2608 -2.74705,-0.0296 -10.60756,-6.72779 -29.137367,-24.82915 -7.425608,-7.25391 -14.7727,-14.07383 -16.326885,-15.15536 -4.969631,-3.45822 -12.928408,-10.82928 -15.278696,-14.15041 -3.934439,-5.55956 -5.383901,-5.27716 25.908587,-5.04774 32.757751,0.24018 30.395961,-0.3405 31.092391,7.64439 0.25445,2.9185 0.50825,6.16697 0.56389,7.21882 l 0.10096,1.91247 -7.37856,0.17959 c -5.2939,0.12887 -7.37481,0.39902 -7.36536,0.95623 0.015,0.86586 8.46252,11.04229 15.0655,18.14812 2.77734,2.98877 4.77812,4.62177 5.66273,4.62177 0.8672,0 3.7483,-2.2753 7.87027,-6.21549 3.57624,-3.41851 8.6797,-8.24655 11.34082,-10.72897 2.97497,-2.775 4.66374,-4.80072 4.38458,-5.25924 -0.28258,-0.46423 -2.27746,-0.74718 -5.28369,-0.74948 -4.29994,-0.003 -11.8786,-0.88359 -12.43046,-1.44389 -0.11439,-0.11612 0.12244,-3.56721 0.52619,-7.66909 l 0.73423,-7.45796 11.33373,-0.0179 c 6.2335,-0.01 16.9853,-0.43388 23.89288,-0.94226 15.58556,-1.14708 22.92051,-1.21783 22.92051,-0.22107 0,1.19034 -4.18846,6.17638 -10.79659,12.85245 -3.40384,3.43891 -6.91563,7.36741 -7.80389,8.72998 -1.62368,2.49081 -8.95874,9.39337 -27.55461,25.92966 -5.526,4.91403 -10.58564,9.5524 -11.24361,10.3075 -0.65787,0.75509 -1.46107,1.37289 -1.78479,1.37289 -0.32373,0 -1.30704,0.57373 -2.1852,1.27497 -1.94354,1.55193 -1.98468,1.55193 -3.93917,0 z m 10.62032,-10.97534 c 4.00211,-4.28333 9.1133,-9.66675 11.35822,-11.96312 4.67404,-4.78118 27.88338,-26.3599 30.74718,-28.58702 2.41205,-1.8758 2.41097,-2.93161 0,-3.9471 -1.47588,-0.62058 -6.22834,-0.70257 -20.87967,-0.36019 -10.4329,0.24381 -19.43299,0.5801 -20.00032,0.74733 -1.25688,0.37054 -2.70495,3.69444 -2.19593,5.04091 0.58621,1.5508 2.94854,2.14473 12.64034,3.17795 4.99164,0.53218 9.22522,0.9676 9.40769,0.9676 0.74648,0 0.24908,2.36111 -0.9006,4.27536 -0.67527,1.12429 -4.82517,5.14046 -9.22201,8.92481 -4.39681,3.78435 -10.7738,9.39073 -14.17111,12.45863 -3.39739,3.0679 -6.73561,5.578 -7.41841,5.578 -0.75883,0 -3.61479,-2.54027 -7.34623,-6.53423 -3.35766,-3.59382 -9.85624,-10.34669 -14.44124,-15.00636 -4.585116,-4.65966 -8.336533,-8.71947 -8.336533,-9.02181 0,-0.9876 3.873539,-1.94938 7.851053,-1.94938 2.14277,0 5.58754,-0.17949 7.65502,-0.39886 l 3.75906,-0.39887 -0.0505,-3.77119 c -0.044,-3.24601 -0.2261,-3.80648 -1.31209,-4.02465 -0.69397,-0.13942 -9.23897,-0.57045 -18.988977,-0.95785 -22.398634,-0.88997 -24.152059,-0.53814 -22.743519,4.56334 0.798682,2.89254 1.960292,4.15432 13.154609,14.28914 5.353301,4.84669 13.689508,12.71807 18.524757,17.49193 11.27392,11.13063 19.47995,16.81323 24.74956,17.13874 0.48785,0.0301 4.1614,-3.44976 8.1634,-7.73311 z"
       id="path1876" />
    <path
       style="opacity:0.930349;fill:#ffffff;stroke-width:0.632705"
       d="m 123.7474,211.18362 c -0.86346,-0.46119 -2.91988,-1.50159 -4.56977,-2.31201 -3.85333,-1.89271 -8.95401,-6.3383 -25.576911,-22.29247 -7.423137,-7.12445 -15.615955,-14.67441 -18.206191,-16.77769 -11.390979,-9.24912 -17.938639,-16.28802 -16.504966,-17.74333 0.977407,-0.99229 54.126008,-0.45957 55.882328,0.56013 1.50059,0.8712 1.78962,2.05485 2.41066,9.87329 l 0.39235,4.94051 h -4.3616 c -6.21598,0 -10.18855,0.64576 -10.18855,1.65617 0,2.40088 18.34454,22.56829 20.52844,22.56829 0.73553,0 2.70495,-1.10621 4.37653,-2.45824 4.89584,-3.96003 19.68005,-18.62369 19.68005,-19.51963 0,-0.57516 -1.64442,-0.94551 -5.49465,-1.23743 -3.02202,-0.22916 -7.01402,-0.58755 -8.87109,-0.79645 l -3.37647,-0.37983 0.41728,-5.49444 c 0.22944,-3.02195 0.57937,-6.42676 0.77752,-7.56627 l 0.36025,-2.07183 4.79681,-0.0381 c 13.66726,-0.1086 28.09862,-0.44209 39.49154,-0.91272 8.78817,-0.36303 12.71617,-0.3186 12.71617,0.14382 0,1.02163 -6.67966,8.53535 -21.90745,24.64303 -4.85374,5.13412 -34.69923,32.21802 -38.03734,34.51764 -2.62536,1.80866 -2.64846,1.81205 -4.73494,0.69756 z m 14.82071,-14.58658 c 10.41271,-10.74832 29.78254,-29.26514 36.8289,-35.20703 1.64054,-1.3834 2.9828,-3.01817 2.9828,-3.63282 0,-2.41998 -1.93343,-2.61589 -22.81396,-2.31156 l -20.07777,0.29262 -1.19232,1.49484 c -0.73745,0.92453 -1.12037,2.24319 -1.00373,3.45633 0.17079,1.77548 0.48366,2.03539 3.29966,2.74084 1.71101,0.42864 6.58548,1.12136 10.83225,1.53938 11.77808,1.15933 12.01802,0.73294 -12.68727,22.5442 -7.16214,6.32314 -10.11843,8.60507 -11.14792,8.60507 -0.94809,0 -29.355509,-28.9945 -29.355509,-29.96217 0,-0.78544 2.422573,-1.23102 8.791509,-1.617 10.51895,-0.63749 10.04731,-0.42776 10.04731,-4.46767 0,-2.02239 -0.27829,-3.47729 -0.66506,-3.47729 -0.36573,0 -0.51556,-0.24549 -0.33285,-0.54555 0.4727,-0.77648 -6.44875,-1.26661 -24.120694,-1.70805 -17.729088,-0.44289 -18.573417,-0.27369 -18.455054,3.69821 0.03867,1.28326 0.517918,3.02781 1.065803,3.87675 0.547992,0.84895 6.027056,6.22273 12.175698,11.94175 6.148641,5.71901 14.005177,13.14874 17.458957,16.51048 8.10743,7.89139 14.38572,12.99237 19.30089,15.68162 6.61919,3.62156 6.20127,3.82876 19.06836,-9.45295 z"
       id="path1878" />
    <path
       style="opacity:0.930349;fill:#ffffff;stroke-width:0.632705"
       d="m 63.649427,143.862 c -1.451718,-0.31779 -3.241232,-0.90468 -3.976543,-1.3042 -1.283625,-0.69738 -1.291036,-0.76175 -0.186244,-1.61174 0.632951,-0.48695 1.510362,-0.89448 1.949766,-0.90564 1.294903,-0.0328 6.351319,-5.10906 9.377521,-9.41429 1.543873,-2.19625 3.057458,-3.99318 3.363676,-3.99318 0.306111,0 0.990618,-0.85184 1.520888,-1.89299 0.530378,-1.04113 2.586369,-3.01889 4.568894,-4.395 1.982525,-1.37612 5.723953,-4.89902 8.314296,-7.82867 2.590236,-2.92967 8.870022,-9.79902 13.955009,-15.265234 8.81105,-9.471613 9.52241,-10.078152 15.14089,-12.909096 3.24253,-1.633786 6.75873,-2.970512 7.81389,-2.970512 2.56232,0 9.24283,4.616695 18.16065,12.550267 3.86742,3.440558 9.09525,8.068925 11.61728,10.285255 9.19375,8.07914 18.58459,18.00708 28.9175,30.57128 l 4.23722,5.15217 -3.29526,0.64753 c -1.81239,0.35615 -7.39274,0.82807 -12.40071,1.04872 -5.00798,0.22063 -13.62667,0.80888 -19.15277,1.3072 -13.68197,1.23378 -20.64166,1.20619 -21.698,-0.086 -1.12779,-1.37952 0.10526,-13.66479 1.60488,-15.98799 l 1.0557,-1.63576 7.47791,0.45611 c 6.69481,0.40835 7.47781,0.34664 7.47781,-0.5894 0,-1.07505 -19.61086,-21.7893 -22.84039,-24.12542 l -1.80369,-1.304753 -3.20234,3.764483 c -1.76128,2.07047 -4.31101,4.76852 -5.66607,5.99569 -1.35494,1.22715 -2.91707,2.79762 -3.4713,3.48993 -0.55432,0.69229 -3.49364,3.682 -6.53187,6.64378 -7.154511,6.97427 -7.213155,8.04047 -0.44144,8.02131 2.59023,-0.008 7.35536,-0.26204 10.58907,-0.56598 l 5.87949,-0.55263 -0.45971,3.43466 c -0.5945,4.44126 -2.60399,11.06362 -3.61575,11.91609 -1.84012,1.55031 -48.513015,3.31647 -54.280253,2.05401 z m 51.306453,-7.93997 c 0,-3.69101 -1.33497,-5.15258 -4.02745,-4.40928 -1.06602,0.29427 -5.10754,0.53589 -8.98119,0.53693 -5.7362,0.001 -7.237003,-0.1951 -8.087884,-1.05975 -2.470476,-2.51025 -0.351222,-5.03696 20.938634,-24.96361 l 11.45941,-10.725617 8.32138,7.635057 c 9.70339,8.90309 12.36978,11.66519 19.18403,19.87227 3.30148,3.97642 4.77963,6.21695 4.30434,6.52448 -0.39816,0.25759 -5.03332,0.47274 -10.30035,0.4781 l -9.57635,0.01 v 3.09389 3.09389 l 4.80444,0.41228 c 6.10525,0.52392 31.79655,0.52621 34.91394,0.003 1.29523,-0.21733 2.35491,-0.73089 2.35491,-1.14125 0,-1.31525 -22.51108,-23.00263 -48.78677,-47.001574 -2.96573,-2.708779 -4.9125,-3.404009 -7.92507,-2.830268 -2.55812,0.487198 -11.13888,5.920971 -14.445,9.147391 -2.46864,2.409092 -14.91544,16.414631 -18.272027,20.560341 -0.993615,1.22716 -2.912458,2.86946 -4.264072,3.64954 -1.351614,0.78008 -3.403632,2.21441 -4.560087,3.18743 -2.795276,2.35211 -9.535947,10.5793 -10.071695,12.29303 -0.536715,1.71651 1.088036,3.65182 3.363783,4.00677 0.913822,0.14255 10.209714,0.30216 20.657335,0.3547 l 18.995743,0.0955 z"
       id="path1880" />
    <path
       style="opacity:0.930349;fill:#ffffff;stroke-width:0.632705"
       d="m 62.835279,143.43424 c -0.518026,-0.22534 -1.633988,-0.67001 -2.479821,-0.98814 -1.487377,-0.5594 -1.433244,-0.63907 1.643225,-2.42281 1.801973,-1.04477 4.595209,-3.58714 6.44283,-5.86427 1.794025,-2.21095 4.304243,-5.30807 5.578309,-6.88252 1.274173,-1.57445 3.299983,-3.72596 4.501979,-4.78115 3.262821,-2.86436 14.201937,-14.02621 24.820339,-25.325669 8.94488,-9.518694 9.6876,-10.148534 14.84606,-12.590348 2.98667,-1.413717 6.26313,-2.570401 7.28125,-2.570401 3.36121,0 9.3365,4.497114 27.16407,20.444098 11.03837,9.87398 18.69371,17.75575 28.43857,29.27981 l 6.73841,7.96857 -2.04654,0.42677 c -1.93118,0.4027 -23.77579,2.0165 -40.35197,2.98105 -4.14452,0.24117 -8.80719,0.29025 -10.36138,0.10905 l -2.82578,-0.32943 0.0462,-5.83013 c 0.0301,-3.82463 0.4103,-6.79692 1.10393,-8.64068 l 1.05732,-2.81056 7.53044,0.27256 c 6.58117,0.2382 7.53055,0.14462 7.53055,-0.74235 0,-1.85844 -22.56576,-25.597897 -24.33229,-25.597897 -0.2596,0 -5.91179,5.637257 -12.56032,12.527227 -8.15254,8.44865 -12.08815,12.97512 -12.08815,13.90293 0,0.75665 0.28258,1.19844 0.62789,0.98174 0.34543,-0.21669 0.62801,-0.0466 0.62801,0.37811 0,0.58827 2.05127,0.66757 8.61634,0.3331 4.73902,-0.24144 9.22145,-0.59314 9.96096,-0.78155 1.28995,-0.32868 1.32369,-0.2094 0.83282,2.94336 -0.68472,4.39707 -2.21259,9.62127 -3.21255,10.98455 -0.62479,0.8518 -2.40915,1.25929 -7.72012,1.76302 -8.1128,0.76947 -46.038442,1.45899 -47.411001,0.86196 z m 52.120601,-7.74899 c 0,-1.68296 -0.31127,-3.37601 -0.69181,-3.76231 -0.47098,-0.47813 -3.43886,-0.59198 -9.29579,-0.35661 -12.192342,0.48998 -13.657271,-0.62351 -8.798162,-6.68753 2.840065,-3.54429 29.222212,-28.526437 30.125082,-28.526437 0.31287,0 4.6822,3.819037 9.70973,8.486737 8.61944,8.00269 17.83607,18.02733 20.49751,22.29464 l 1.1932,1.91309 -9.75259,0.46401 -9.7526,0.464 v 3.1784 c 0,2.53253 0.18732,3.10544 0.92178,2.8193 0.50706,-0.19751 1.08889,-0.0847 1.29296,0.25054 0.4058,0.66655 37.18486,0.8773 38.86525,0.22269 0.54627,-0.21281 0.9933,-0.80704 0.9933,-1.3205 0,-2.26954 -49.23048,-48.850731 -52.51307,-49.687098 -2.99494,-0.763083 -6.52016,0.266977 -11.39259,3.328807 -5.41838,3.404946 -9.60854,7.471888 -20.438114,19.837081 -4.059246,4.63472 -8.854447,9.4237 -10.656098,10.64217 -5.761008,3.89613 -13.63719,13.14011 -13.63719,16.00546 0,3.33296 1.059681,3.4935 23.060252,3.4935 h 20.26895 z"
       id="path1882" />
  </g>
</svg>
