<?xml version="1.0" encoding="UTF-8" standalone="no"?>
<svg
   xmlns:dc="http://purl.org/dc/elements/1.1/"
   xmlns:cc="http://creativecommons.org/ns#"
   xmlns:rdf="http://www.w3.org/1999/02/22-rdf-syntax-ns#"
   xmlns:svg="http://www.w3.org/2000/svg"
   xmlns="http://www.w3.org/2000/svg"
   xmlns:sodipodi="http://sodipodi.sourceforge.net/DTD/sodipodi-0.dtd"
   xmlns:inkscape="http://www.inkscape.org/namespaces/inkscape"
   width="132.29166mm"
   height="132.29167mm"
   viewBox="0 0 132.29166 132.29167"
   version="1.1"
   id="svg8854"
   inkscape:version="1.0 (b51213c273, 2020-08-10)">
  <defs
     id="defs8848" />
  <sodipodi:namedview
     id="base"
     pagecolor="#ffffff"
     bordercolor="#666666"
     borderopacity="1.0"
     inkscape:pageopacity="0.0"
     inkscape:pageshadow="2"
     inkscape:zoom="0.35"
     inkscape:cx="247.52301"
     inkscape:cy="219.6546"
     inkscape:document-units="mm"
     inkscape:current-layer="layer1"
     inkscape:document-rotation="0"
     showgrid="false"
     inkscape:snap-global="false"
     fit-margin-top="0"
     fit-margin-left="0"
     fit-margin-right="0"
     fit-margin-bottom="0"
     showborder="false"
     inkscape:window-width="988"
     inkscape:window-height="518"
     inkscape:window-x="212"
     inkscape:window-y="88"
     inkscape:window-maximized="0" />
  <metadata
     id="metadata8851">
    <rdf:RDF>
      <cc:Work
         rdf:about="">
        <dc:format>image/svg+xml</dc:format>
        <dc:type
           rdf:resource="http://purl.org/dc/dcmitype/StillImage" />
        <dc:title></dc:title>
      </cc:Work>
    </rdf:RDF>
  </metadata>
  <g
     inkscape:label="Layer 1"
     inkscape:groupmode="layer"
     id="layer1"
     transform="translate(-40.342871,-90.049719)">
    <path
       id="path1011-6"
       style="fill:#000000;stroke-width:0.788333"
       d="m 172.63432,158.14895 c 0,3.53591 -7.36608,13.04803 -22.59206,29.17361 -2.70519,2.86501 -4.91842,5.5921 -4.91842,6.05995 0,0.46786 -0.25852,0.85088 -0.57473,0.85088 -0.31632,0 -2.40786,1.89611 -4.64747,4.21389 -5.23964,5.42249 -15.39716,14.44028 -17.95189,15.9375 -1.0908,0.63926 -3.3713,2.61062 -5.0678,4.38095 -1.6965,1.77036 -3.1842,3.08705 -3.30643,2.92563 -1.48028,-1.95426 -2.31332,-9.83827 -2.10615,-19.93547 0.024,-1.14926 -0.46591,-6.97909 -1.08753,-12.95526 -1.2995,-12.49312 -1.53513,-23.5028 -0.52687,-24.61393 0.39886,-0.43973 3.90689,-0.51918 8.24579,-0.18705 9.50766,0.72783 11.08542,1.9006 10.31246,7.66404 -1.35118,10.07506 -1.35085,10.03184 -0.0578,10.03184 0.67766,0 3.68609,-2.53841 6.68602,-5.64145 2.99992,-3.10303 7.00582,-6.95868 8.90153,-8.56764 1.89581,-1.60896 4.80448,-4.47563 6.46412,-6.37023 l 3.01792,-3.4446 -5.22951,-4.37151 c -2.87627,-2.40428 -5.75549,-5.27368 -6.39816,-6.37633 -0.64277,-1.10267 -1.57906,-2.00715 -2.08085,-2.01037 -0.50168,-0.003 -3.38559,-2.82563 -6.40884,-6.27199 -7.63333,-8.70184 -8.66896,-7.37297 -6.62627,8.50825 0.48903,3.80292 0.65618,7.17671 0.37127,7.49697 -0.93237,1.04807 -15.42312,-2.38838 -16.09587,-3.81703 -0.34009,-0.72244 -0.85823,-6.20313 -1.15165,-12.1793 -0.29352,-5.97619 -0.65738,-12.55836 -0.80752,-14.62705 -1.14074,-15.71445 -0.58727,-28.635255 1.35794,-31.72458 1.26842,-2.014253 1.31335,-2.022212 2.39248,-0.417944 0.60505,0.899408 1.10956,1.888479 1.12362,2.197973 0.0676,1.601132 4.32516,5.931371 8.58827,8.734711 2.65057,1.74301 4.81931,3.48664 4.81931,3.87475 0,0.3881 0.92016,1.07818 2.04476,1.53358 1.16299,0.47097 2.89787,2.40552 4.02313,4.48586 1.08807,2.01159 2.92796,4.32916 4.08909,5.15024 1.8389,1.30044 8.87623,7.44913 9.91862,8.66644 0.20444,0.23879 1.54254,1.41895 2.97386,2.62257 1.43133,1.20362 4.63144,4.21076 7.11093,6.68217 2.47961,2.47141 5.90684,5.80974 7.61686,7.4187 1.71013,1.60899 3.11158,3.56143 3.11376,4.33877 0,0.77735 0.30334,1.62198 0.66992,1.8766 1.03487,0.71896 3.79437,7.03601 3.79437,8.68586 z m -4.86663,-0.47899 c 0,-2.56114 -0.59719,-4.04977 -2.77117,-6.90474 -1.52422,-2.00176 -2.7716,-3.93307 -2.7716,-4.2916 0,-1.03597 -6.90485,-8.01856 -12.8058,-12.94969 -2.97561,-2.48654 -6.47808,-5.52458 -7.78314,-6.751 -1.30506,-1.22643 -3.58283,-3.05076 -5.06159,-4.05403 -1.95601,-1.327 -2.12163,-4.17031 -5.18164,-7.60076 -4.2473,-4.76155 -7.46715,-6.62428 -10.23973,-8.98114 -3.81181,-3.24021 -5.46699,-0.90084 -5.96986,3.68049 h 5.7e-4 c -0.17653,1.60713 -0.28763,10.63305 -0.24685,20.05703 l 0.0741,17.13416 2.66584,0.25144 c 3.4763,0.3276 4.98668,-1.47646 3.76329,-4.49474 -0.92158,-2.27378 -1.10891,-8.95159 -0.38818,-13.85053 0.37346,-2.53879 0.81374,-3.13113 2.63019,-3.53951 1.86812,-0.42001 2.89721,0.19096 7.16446,4.25162 2.74064,2.60797 8.83088,8.93976 13.53373,14.0709 4.70297,5.13113 9.88875,10.70466 11.52452,12.38578 l 2.97452,3.05662 -2.23067,2.09972 c -1.22688,1.15498 -2.45747,2.37503 -2.73453,2.71084 -3.08018,3.73423 -4.81822,5.61786 -9.81831,10.64016 -3.20382,3.21796 -6.37417,6.31639 -7.04551,6.88531 -1.0256,0.86907 -3.4907,2.93241 -11.70988,9.80206 -1.74578,1.45909 -2.14976,-0.41193 -2.22293,-10.27995 l -0.072,-9.75044 h -2.90182 -2.90246 l -0.19996,20.42058 c -0.10969,11.23143 0.0622,20.71356 0.37977,21.07109 0.31806,0.35754 1.91283,-0.75092 3.54478,-2.46328 1.63184,-1.71233 4.13794,-4.1728 5.56916,-5.46773 1.43132,-1.29491 9.29459,-9.60598 17.47355,-18.46904 8.17894,-8.86303 16.87057,-18.205 19.31496,-20.75972 3.96642,-4.14542 4.444,-4.99605 4.444,-7.9099 z m -64.04374,60.49965 c 0.0567,5.48021 -0.90685,4.53952 -3.32888,2.89622 -4.307493,-2.92243 -10.994926,-8.91877 -11.014552,-9.87754 -0.01199,-0.55846 -0.774814,-1.45606 -1.694974,-1.99427 -0.920051,-0.53824 -2.242447,-1.5857 -2.938427,-2.32785 -1.878592,-2.00315 -2.988911,-2.9016 -5.081869,-4.11176 -1.906069,-1.10216 -13.162352,-13.27122 -24.197837,-26.16028 -3.30479,-3.85981 -7.403585,-8.26152 -9.108372,-9.78151 -1.704787,-1.52001 -3.099583,-3.11851 -3.099583,-3.55228 0,-0.43374 -0.669158,-1.54106 -1.487041,-2.4605 -0.817884,-0.91941 -1.460654,-1.95366 -1.42838,-2.29843 0.153851,-1.64242 2.405675,-3.24841 2.536737,-4.4137 0.140003,-1.24499 0.208696,-2.59454 1.903888,-4.80557 4.000661,-5.21775 11.535308,-13.76757 15.630505,-17.73639 2.1345,-2.06867 6.09122,-6.06892 8.791729,-8.88957 2.700401,-2.82063 6.287923,-6.39387 7.973519,-7.94044 1.685597,-1.54657 3.821515,-4.03609 4.746036,-5.53267 2.897102,-4.68951 12.147876,-14.961669 14.867467,-16.509194 1.431323,-0.814416 2.811181,-1.843744 3.065891,-2.286767 0.289273,-0.503289 1.069753,-0.440338 2.080203,0.16762 1.14892,0.691553 1.48246,1.449816 1.15175,2.620911 -0.25569,0.90626 -0.46253,3.610283 -0.46144,6.008893 0,2.398607 0.0458,13.893307 0.0981,25.543627 0.11471,25.64852 0.23737,25.20616 -7.018467,25.20616 -2.622112,0 -5.672302,0.38645 -6.778478,0.8592 -2.91095,1.24412 -4.791613,-0.80399 -4.08909,-4.4531 0.537768,-2.79354 0.4018,-9.66776 -0.204553,-10.34934 -0.192777,-0.2168 -2.693313,1.60916 -5.556832,4.05793 -13.05626,11.16498 -17.232906,15.05098 -17.232906,16.03185 0,1.55385 1.296445,3.07318 6.865271,8.04313 2.753719,2.4577 5.176948,5.0661 5.38499,5.79631 0.208042,0.73024 2.555818,3.51351 5.217074,6.1854 5.238336,5.25948 4.867502,5.33886 5.126355,-1.09676 0.0458,-1.14927 -0.08178,-4.29908 0.175767,-6.45904 0.885923,-7.43047 0.717679,-7.19235 4.59284,-6.47679 1.921879,0.35488 5.418464,0.68394 7.770165,0.73098 l 4.274994,0.0855 v 9.36135 c -2.1e-4,5.1487 0.47813,15.86787 1.06267,23.82078 0.85191,11.59263 1.36732,18.34829 1.40581,22.09791 z M 99.000489,110.06449 c 0,-2.49291 -0.244242,-4.27675 -0.729673,-5.71196 -0.699578,-2.06845 -1.035302,-2.235 -3.695795,-1.83386 -2.535973,0.38238 -4.045803,1.70666 -11.320506,9.92806 -9.639053,10.89353 -24.559512,26.50085 -26.941416,28.18174 -0.890066,0.62817 -2.100045,2.01123 -2.688843,3.07383 -0.588797,1.06264 -2.368383,3.65518 -3.954321,5.76134 -1.585937,2.10619 -3.141017,5.04873 -3.455696,6.53841 v 0.001 c -0.31468,1.48968 -0.606135,2.82456 -0.648005,2.9667 -0.04143,0.14191 1.847734,2.27528 2.180078,2.66699 0.870221,1.02588 1.864307,2.72772 7.962288,7.3532 3.171875,3.12537 6.603474,6.32399 7.625801,7.10844 1.022436,0.78442 5.707194,5.67543 10.410051,10.86885 4.702857,5.19341 10.977368,11.83532 13.943382,14.7597 2.966122,2.92439 5.236046,5.49341 5.044142,5.70917 -0.191796,0.21567 0.494153,1.13729 1.524113,2.04811 1.030069,0.91079 1.938889,1.51896 2.019467,1.35153 0.08069,-0.16733 0.596539,-1.20251 1.146629,-2.30066 0.758022,-1.51306 0.866841,-3.84139 0.450212,-9.61222 -0.302359,-4.18845 -0.526211,-12.78907 -0.498079,-19.11236 0.04907,-10.97384 -0.0229,-11.54151 -1.565875,-12.48568 -2.514275,-1.53814 -4.223423,-1.3902 -5.095389,0.44126 -0.439418,0.923 -1.187954,6.03329 -1.662808,11.35618 l -0.863134,9.67772 -2.573918,-0.2592 c -2.558216,-0.25773 -6.111719,-3.86789 -18.293396,-18.58788 -1.693229,-2.04611 -4.945137,-5.58213 -7.2264,-7.8578 -3.540419,-3.53202 -4.079605,-4.4495 -3.683911,-6.26866 0.254928,-1.1721 0.727601,-2.24976 1.05035,-2.39445 1.005535,-0.45066 6.124694,-5.04381 8.849083,-7.93989 1.431323,-1.52148 4.176646,-3.97163 6.100597,-5.44497 1.92406,-1.47331 4.904139,-4.55292 6.622447,-6.84368 1.718307,-2.29077 3.468672,-4.16504 3.889553,-4.16504 0.420772,0 1.566311,-0.84669 2.545677,-1.88104 1.750256,-1.84832 1.798668,-1.8527 2.835933,-0.2581 0.580511,0.89235 1.089276,2.96138 1.130273,4.59742 0.212622,8.46429 0.506148,13.51825 0.805236,13.85443 0.183508,0.20635 1.394033,0.0333 2.690587,-0.38464 1.489331,-0.48013 2.522888,-0.45884 2.807147,0.0583 0.247404,0.45001 0.835438,0.67415 1.30604,0.49787 0.582474,-0.21822 0.895627,-4.03738 0.981002,-11.95507 0.06869,-6.3987 0.321222,-13.70272 0.559576,-16.23111 0.27957,-2.96552 0.420118,-5.33325 0.417501,-7.27217 z"
       sodipodi:nodetypes="sssscsscsscscssscccsssccsscsscsssssssssscsssssssssscccccsssssccccssscccccssssssscscscssssssssssssscccccsccscssccscssccsccssssssccccscssssscsscsscccscscsssssscssccscss" />
  </g>
</svg>
