<?xml version="1.0" encoding="UTF-8" standalone="no"?>
<svg
   xmlns:dc="http://purl.org/dc/elements/1.1/"
   xmlns:cc="http://creativecommons.org/ns#"
   xmlns:rdf="http://www.w3.org/1999/02/22-rdf-syntax-ns#"
   xmlns:svg="http://www.w3.org/2000/svg"
   xmlns="http://www.w3.org/2000/svg"
   xmlns:sodipodi="http://sodipodi.sourceforge.net/DTD/sodipodi-0.dtd"
   xmlns:inkscape="http://www.inkscape.org/namespaces/inkscape"
   width="132.29167mm"
   height="132.29167mm"
   viewBox="0 0 132.29167 132.29167"
   version="1.1"
   id="svg7003"
   inkscape:version="1.0 (b51213c273, 2020-08-10)">
  <defs
     id="defs6997" />
  <sodipodi:namedview
     id="base"
     pagecolor="#ffffff"
     bordercolor="#666666"
     borderopacity="1.0"
     inkscape:pageopacity="0.0"
     inkscape:pageshadow="2"
     inkscape:zoom="0.35"
     inkscape:cx="235.59799"
     inkscape:cy="287.20885"
     inkscape:document-units="mm"
     inkscape:current-layer="layer1"
     inkscape:document-rotation="0"
     showgrid="false"
     inkscape:snap-global="false"
     fit-margin-top="0"
     fit-margin-left="0"
     fit-margin-right="0"
     fit-margin-bottom="0"
     showborder="false"
     inkscape:window-width="1318"
     inkscape:window-height="704"
     inkscape:window-x="48"
     inkscape:window-y="27"
     inkscape:window-maximized="1" />
  <metadata
     id="metadata7000">
    <rdf:RDF>
      <cc:Work
         rdf:about="">
        <dc:format>image/svg+xml</dc:format>
        <dc:type
           rdf:resource="http://purl.org/dc/dcmitype/StillImage" />
        <dc:title></dc:title>
      </cc:Work>
    </rdf:RDF>
  </metadata>
  <g
     inkscape:label="Layer 1"
     inkscape:groupmode="layer"
     id="layer1"
     transform="translate(-43.498032,-72.175993)">
    <path
       id="path1220"
       style="fill:#000000;stroke-width:0.788333"
       d="m 111.59725,72.176025 c 3.53596,0 13.04806,7.366004 29.17366,22.592059 2.86499,2.705181 5.59206,4.918476 6.05993,4.918476 0.46786,0 0.85088,0.258472 0.85088,0.57473 0,0.31626 1.89606,2.40777 4.21391,4.64744 5.42246,5.23965 14.44028,15.39718 15.93743,17.95195 0.63929,1.09073 2.61064,3.37129 4.38104,5.06779 1.77029,1.69648 3.08699,3.18416 2.92556,3.3064 -1.95428,1.48034 -9.83819,2.31334 -19.93545,2.10623 -1.14926,-0.0236 -6.97912,0.46584 -12.95526,1.08748 -12.49309,1.29953 -23.50277,1.53518 -24.6139,0.52684 -0.43973,-0.39882 -0.51921,-3.90685 -0.18711,-8.24572 0.7279,-9.50774 1.90058,-11.08553 7.66406,-10.31251 10.07502,1.35114 10.03184,1.35084 10.03184,0.058 0,-0.67772 -2.53836,-3.68617 -5.64146,-6.68605 -3.103,-2.99988 -6.95871,-7.00585 -8.56767,-8.90159 -1.60896,-1.895758 -4.47556,-4.804392 -6.37022,-6.464052 l -3.44456,-3.01791 -4.37148,5.229504 c -2.40431,2.87626 -5.2737,5.755428 -6.37635,6.398128 -1.102641,0.64273 -2.007118,1.57909 -2.01034,2.08087 0,0.50172 -2.825673,3.3856 -6.272053,6.40882 -8.701822,7.63341 -7.372978,8.66897 8.508273,6.62633 3.80287,-0.48906 7.17675,-0.65625 7.49693,-0.37131 1.04808,0.93234 -2.38831,15.4232 -3.81704,16.09589 -0.72243,0.34013 -6.203103,0.85828 -12.179248,1.15172 -5.976253,0.29347 -12.558391,0.65737 -14.627057,0.80744 -15.714448,1.14075 -28.635231,0.58731 -31.724589,-1.35795 -2.014211,-1.26835 -2.022266,-1.31334 -0.417922,-2.39246 0.899429,-0.60502 1.888436,-1.10949 2.197984,-1.12355 1.601121,-0.0673 5.931356,-4.32523 8.734689,-8.58831 1.743006,-2.65062 3.486657,-4.8193 3.87472,-4.8193 0.38817,0 1.078155,-0.9202 1.533562,-2.04481 0.470982,-1.16303 2.405603,-2.89782 4.485869,-4.02313 2.011632,-1.08811 4.329161,-2.92796 5.15029,-4.08905 1.300381,-1.83899 7.44913,-8.876273 8.666378,-9.918643 0.238874,-0.204466 1.418958,-1.542621 2.622565,-2.973958 1.203715,-1.431293 4.210798,-4.631361 6.682242,-7.110912 2.471336,-2.479574 5.809664,-5.906809 7.418626,-7.616899 1.60907,-1.7101 3.561521,-3.111518 4.338831,-3.113699 0.7773,-0.0022 1.62196,-0.303362 1.87662,-0.669955 0.71898,-1.034835 7.03594,-3.794361 8.68582,-3.794361 z m -0.47893,4.866629 c -2.56124,0 -4.04979,0.597184 -6.90479,2.771117 -2.00175,1.524236 -3.93305,2.771672 -4.291571,2.771672 -1.036051,0 -8.018604,6.904877 -12.949676,12.80583 -2.486587,2.97556 -5.524605,6.478107 -6.751089,7.783117 -1.226377,1.30504 -3.050691,3.58283 -4.053984,5.06159 -1.327018,1.95597 -4.170305,2.1216 -7.600789,5.18162 -4.761476,4.24737 -6.624241,7.46721 -8.981081,10.23982 -3.240265,3.81177 -0.900826,5.46693 3.680421,5.9699 v -5.8e-4 c 1.607136,0.17651 10.633113,0.28757 20.057035,0.24679 l 17.134164,-0.0744 0.25144,-2.66576 c 0.32759,-3.47634 -1.476426,-4.98671 -4.49468,-3.76336 -2.273814,0.9216 -8.951652,1.10893 -13.850609,0.38823 -2.538787,-0.37347 -3.131032,-0.81379 -3.539502,-2.63025 -0.419963,-1.86815 0.19097,-2.89718 4.251613,-7.16444 2.608066,-2.74068 8.939837,-8.83094 14.070901,-13.53382 5.131177,-4.702882 10.704757,-9.88875 12.385787,-11.52452 l 3.05671,-2.974525 2.09971,2.230752 c 1.15495,1.226861 2.37499,2.457407 2.71085,2.734491 3.73423,3.080127 5.61784,4.818217 10.6401,9.818352 3.21803,3.20377 6.31641,6.3742 6.88534,7.04554 0.86904,1.02554 2.93244,3.49061 9.802,11.70989 1.45913,1.74575 -0.41191,2.14978 -10.27985,2.22287 l -9.75044,0.0721 v 2.90183 2.9024 l 20.4205,0.20004 c 11.23148,0.1097 20.71362,-0.0617 21.07118,-0.37978 0.35745,-0.31808 -0.751,-1.91289 -2.46328,-3.54475 -1.7124,-1.63187 -4.17289,-4.13796 -5.46779,-5.56926 -1.2949,-1.4313 -9.60598,-9.29462 -18.46902,-17.47356 -8.86304,-8.178913 -18.20501,-16.870576 -20.75969,-19.314964 -4.1455,-3.96641 -4.99606,-4.444035 -7.90991,-4.444035 z m 60.49967,64.043796 c 5.48013,-0.0563 4.53946,0.90684 2.89613,3.32894 -2.92234,4.3075 -8.91879,10.99495 -9.8775,11.01458 -0.55842,0.0119 -1.45602,0.77479 -1.99424,1.69491 -0.53832,0.92011 -1.58576,2.24246 -2.32784,2.93846 -2.00314,1.87866 -2.90161,2.98896 -4.11177,5.08187 -1.10221,1.90608 -13.27125,13.16238 -26.16035,24.19794 -3.85979,3.30477 -8.26145,7.40357 -9.78148,9.10838 -1.52003,1.70483 -3.11846,3.09961 -3.55228,3.09961 -0.43371,0 -1.54108,0.6691 -2.46049,1.48698 -0.91941,0.81788 -1.95363,1.46067 -2.29841,1.42838 -1.64247,-0.1538 -3.24843,-2.40562 -4.41369,-2.5367 -1.24507,-0.14005 -2.59453,-0.20866 -4.80562,-1.90395 -5.217745,-4.00063 -13.767586,-11.53525 -17.736395,-15.63047 -2.068666,-2.13456 -6.068946,-6.09128 -8.889571,-8.79172 -2.820624,-2.70046 -6.393852,-6.28798 -7.940411,-7.97358 -1.546558,-1.68561 -4.036154,-3.82148 -5.53266,-4.74604 -4.689513,-2.89711 -14.961738,-12.14789 -16.509263,-14.86756 -0.814363,-1.4313 -1.843755,-2.81118 -2.286703,-3.06579 -0.503311,-0.28934 -0.44037,-1.06976 0.167555,-2.08031 0.691596,-1.14887 1.449892,-1.48236 2.620955,-1.15172 0.906196,0.25573 3.610283,0.46257 6.008905,0.46148 2.398621,-0.002 13.893249,-0.0458 25.543618,-0.098 25.64856,-0.1147 25.20614,-0.23743 25.20614,7.01851 0,2.6221 0.38646,5.67228 0.85927,6.77846 1.2441,2.91092 -0.80406,4.79162 -4.453116,4.08905 -2.793558,-0.53776 -9.667844,-0.40176 -10.349344,0.20454 -0.216855,0.19287 1.60907,2.69332 4.05785,5.55688 11.165,13.05626 15.051,17.23296 16.03195,17.23296 1.55375,0 3.07314,-1.29647 8.04309,-6.86524 2.4577,-2.75379 5.06608,-5.17706 5.79635,-5.38501 0.73015,-0.20805 3.51351,-2.55591 6.18537,-5.21712 5.25942,-5.23837 5.33879,-4.86757 -1.09673,-5.12639 -1.14937,-0.0462 -4.29909,0.0816 -6.45905,-0.1758 -7.43055,-0.88583 -7.19243,-0.71763 -6.47688,-4.59278 0.35498,-1.92194 0.68397,-5.41854 0.73101,-7.77016 l 0.0859,-4.275 h 9.36141 c 5.14868,2e-4 15.86783,-0.47819 23.8207,-1.06269 11.59269,-0.85197 18.34829,-1.36733 22.09799,-1.40584 z m -108.105193,4.72352 c -2.492924,0.003 -4.276746,0.24427 -5.711923,0.72969 -2.068451,0.6996 -2.23504,1.03526 -1.833873,3.69575 0.38237,2.53602 1.706595,4.04587 9.927984,11.32054 10.893577,9.63907 26.50094,24.55954 28.181758,26.94144 0.628226,0.89011 2.01131,2.10005 3.073891,2.68884 1.062581,0.58884 3.655176,2.36839 5.761336,3.9544 2.10615,1.58596 5.04868,3.14106 6.53842,3.45571 h 0.001 c 1.48963,0.31467 2.82449,0.60611 2.96669,0.64799 0.14189,0.0419 2.27521,-1.84773 2.66693,-2.18004 1.02595,-0.87032 2.72772,-1.86438 7.35321,-7.96231 3.12545,-3.17191 6.32404,-6.60355 7.10844,-7.62591 0.7845,-1.02234 5.67551,-5.70711 10.86887,-10.40999 5.19347,-4.70287 11.83533,-10.97738 14.75971,-13.94346 2.92438,-2.9661 5.49345,-5.23606 5.70913,-5.04412 0.21567,0.19182 1.13733,-0.49415 2.04815,-1.52417 0.91081,-1.03003 1.51895,-1.93885 1.3515,-2.01945 -0.16734,-0.0807 -1.20253,-0.59657 -2.30067,-1.14665 -1.51304,-0.75795 -3.84131,-0.86683 -9.61221,-0.45021 -4.18845,0.30238 -12.78909,0.52624 -19.11238,0.49811 -10.97381,-0.049 -11.54145,0.0225 -12.48567,1.56586 -1.53808,2.5143 -1.39018,4.22348 0.44133,5.0954 0.92296,0.43943 6.03329,1.18794 11.35618,1.66278 l 9.67773,0.86322 -0.25928,2.5739 c -0.25767,2.55824 -3.86785,6.11172 -18.58781,18.29341 -2.046,1.69324 -5.58207,4.94519 -7.85771,7.22641 -3.53209,3.54049 -4.44956,4.07965 -6.26872,3.68393 -1.17203,-0.25497 -2.24976,-0.7276 -2.39443,-1.0503 -0.45069,-1.00554 -5.04375,-6.12479 -7.939882,-8.84918 -1.521425,-1.43131 -3.971602,-4.17667 -5.444909,-6.10063 -1.473414,-1.92396 -4.552998,-4.90407 -6.843782,-6.62238 -2.290677,-1.71832 -4.165042,-3.46876 -4.165042,-3.88959 0,-0.42081 -0.846693,-1.56629 -1.881025,-2.54573 -1.848266,-1.75024 -1.85267,-1.79866 -0.2581,-2.83591 0.89234,-0.58048 2.961435,-1.08931 4.597464,-1.1303 8.464237,-0.21253 13.518291,-0.50611 13.854476,-0.8052 0.206329,-0.18354 0.0333,-1.39408 -0.384734,-2.69054 -0.48011,-1.48934 -0.458844,-2.5229 0.058,-2.80717 0.450037,-0.24747 0.674196,-0.83546 0.497941,-1.30611 -0.218252,-0.58242 -4.037443,-0.89558 -11.955084,-0.98099 -6.398686,-0.069 -13.702708,-0.32121 -16.231185,-0.55951 -2.965517,-0.27961 -5.333205,-0.42021 -7.272123,-0.41753 z"
       sodipodi:nodetypes="sssscsscsscscssscccsssccsscsscsssssssssscsssssssssscccccsssssccccssscccccssssssscscscssssssssssssscccccsccscssccscssccsccssssssccccscssssscsscsscccscscsssssscssccscss" />
  </g>
</svg>
