<?xml version="1.0" encoding="UTF-8" standalone="no"?>
<svg
   xmlns:dc="http://purl.org/dc/elements/1.1/"
   xmlns:cc="http://creativecommons.org/ns#"
   xmlns:rdf="http://www.w3.org/1999/02/22-rdf-syntax-ns#"
   xmlns:svg="http://www.w3.org/2000/svg"
   xmlns="http://www.w3.org/2000/svg"
   xmlns:sodipodi="http://sodipodi.sourceforge.net/DTD/sodipodi-0.dtd"
   xmlns:inkscape="http://www.inkscape.org/namespaces/inkscape"
   width="132.29166mm"
   height="132.29167mm"
   viewBox="0 0 132.29166 132.29167"
   version="1.1"
   id="svg12538"
   inkscape:version="1.0 (b51213c273, 2020-08-10)">
  <defs
     id="defs12532" />
  <sodipodi:namedview
     id="base"
     pagecolor="#ffffff"
     bordercolor="#666666"
     borderopacity="1.0"
     inkscape:pageopacity="0.0"
     inkscape:pageshadow="2"
     inkscape:zoom="0.35"
     inkscape:cx="219.19642"
     inkscape:cy="268.54305"
     inkscape:document-units="mm"
     inkscape:current-layer="layer1"
     inkscape:document-rotation="0"
     showgrid="false"
     inkscape:snap-global="false"
     fit-margin-top="0"
     fit-margin-left="0"
     fit-margin-right="0"
     fit-margin-bottom="0"
     showborder="false"
     inkscape:window-width="1318"
     inkscape:window-height="704"
     inkscape:window-x="48"
     inkscape:window-y="27"
     inkscape:window-maximized="1" />
  <metadata
     id="metadata12535">
    <rdf:RDF>
      <cc:Work
         rdf:about="">
        <dc:format>image/svg+xml</dc:format>
        <dc:type
           rdf:resource="http://purl.org/dc/dcmitype/StillImage" />
        <dc:title></dc:title>
      </cc:Work>
    </rdf:RDF>
  </metadata>
  <g
     inkscape:label="Layer 1"
     inkscape:groupmode="layer"
     id="layer1"
     transform="translate(-47.837613,-77.11465)">
    <path
       id="path1861"
       style="fill:#ff0000;stroke-width:0.788333"
       d="m 180.12906,145.21388 c 0,3.53591 -7.36597,13.04803 -22.59207,29.17361 -2.70509,2.86501 -4.91844,5.5921 -4.91844,6.05995 0,0.46786 -0.25841,0.85088 -0.57473,0.85088 -0.3162,0 -2.40774,1.89611 -4.64747,4.21389 -5.23964,5.4225 -15.39707,14.44028 -17.95191,15.9375 -1.09069,0.63926 -3.3713,2.61062 -5.0678,4.38095 -1.6964,1.77036 -3.18408,3.08705 -3.30632,2.92563 -1.48038,-1.95425 -2.31331,-9.83827 -2.10625,-19.93547 0.024,-1.14926 -0.46582,-6.97909 -1.08743,-12.95526 -1.29961,-12.49311 -1.53524,-23.5028 -0.52686,-24.61393 0.39873,-0.43973 3.90678,-0.51918 8.24568,-0.18705 9.50777,0.72783 11.08553,1.9006 10.31247,7.66404 -1.35109,10.07506 -1.35086,10.03184 -0.0578,10.03184 0.67777,0 3.6862,-2.53841 6.68602,-5.64145 2.99993,-3.10303 7.00593,-6.95868 8.90164,-8.56764 1.89572,-1.60896 4.80438,-4.47563 6.46403,-6.37023 l 3.01791,-3.4446 -5.2295,-4.37151 c -2.87628,-2.40428 -5.7554,-5.27368 -6.39817,-6.37633 -0.64266,-1.10267 -1.57907,-2.00715 -2.08085,-2.01037 -0.50168,-0.003 -3.38559,-2.82563 -6.40874,-6.27199 -7.63344,-8.70184 -8.66896,-7.37297 -6.62638,8.50826 0.48903,3.80291 0.65629,7.1767 0.37138,7.49696 -0.93237,1.04807 -15.42325,-2.38838 -16.0959,-3.81703 -0.34018,-0.72244 -0.85832,-6.20313 -1.15174,-12.1793 -0.29343,-5.97619 -0.65738,-12.55836 -0.80742,-14.62705 -1.14075,-15.714451 -0.58739,-28.635254 1.35795,-31.724579 1.26831,-2.014253 1.31333,-2.022212 2.39248,-0.417944 0.60492,0.899408 1.10945,1.888479 1.1235,2.197973 0.0676,1.601132 4.32527,5.931367 8.58827,8.734709 2.65069,1.743017 4.81933,3.486647 4.81933,3.874752 0,0.388106 0.92016,1.078177 2.04476,1.533584 1.1631,0.47097 2.89787,2.405516 4.02313,4.485857 1.08818,2.011588 2.92795,4.329158 4.08908,5.150238 1.83901,1.30044 8.87624,7.44914 9.91863,8.66644 0.20445,0.2388 1.54266,1.41895 2.97399,2.62257 1.43121,1.20362 4.63133,4.21076 7.11082,6.68217 2.47961,2.47141 5.90685,5.80974 7.61698,7.4187 1.71002,1.60899 3.11147,3.56143 3.11365,4.33877 0,0.77735 0.30334,1.62198 0.66992,1.8766 1.03487,0.71896 3.79437,7.03601 3.79437,8.68586 z m -4.86663,-0.47899 c 0,-2.56114 -0.5972,-4.04976 -2.77106,-6.90474 -1.52422,-2.00176 -2.77171,-3.93307 -2.77171,-4.2916 0,-1.03597 -6.90486,-8.01856 -12.80582,-12.94969 -2.97551,-2.48654 -6.47808,-5.52457 -7.78314,-6.75099 -1.30495,-1.22644 -3.58284,-3.05077 -5.0616,-4.05404 -1.95589,-1.327 -2.12152,-4.17031 -5.18154,-7.60076 -4.2474,-4.761545 -7.46726,-6.624279 -10.23985,-8.981139 -3.81169,-3.240211 -5.46687,-0.900836 -5.96986,3.680495 h 5.7e-4 c -0.17653,1.607125 -0.28753,10.633044 -0.24675,20.057024 l 0.0742,17.13416 2.66573,0.25144 c 3.4763,0.3276 4.98668,-1.47646 3.7634,-4.49474 -0.92169,-2.27378 -1.10902,-8.95159 -0.38828,-13.85053 0.37345,-2.53879 0.81374,-3.13113 2.63029,-3.53951 1.86812,-0.42001 2.8971,0.19096 7.16436,4.25162 2.74075,2.60797 8.83099,8.93976 13.53385,14.0709 4.70286,5.13113 9.88877,10.70466 11.52454,12.38578 l 2.97452,3.05662 -2.23078,2.09972 c -1.22689,1.15498 -2.45736,2.37503 -2.73454,2.71084 -3.08006,3.73423 -4.81823,5.61786 -9.81832,10.64016 -3.20372,3.21796 -6.37418,6.31639 -7.04552,6.88531 -1.02549,0.86908 -3.49059,2.93241 -11.70988,9.80206 -1.74579,1.45909 -2.14977,-0.41193 -2.22282,-10.27995 l -0.072,-9.75044 h -2.9019 -2.90234 l -0.20008,20.42058 c -0.10969,11.23143 0.0622,20.71356 0.37977,21.07109 0.31806,0.35754 1.91294,-0.75092 3.54479,-2.46328 1.63184,-1.71233 4.13794,-4.1728 5.56926,-5.46773 1.43133,-1.29491 9.29462,-9.60598 17.47357,-18.46904 8.17885,-8.86303 16.87049,-18.205 19.31487,-20.75972 3.96643,-4.14542 4.44412,-4.99605 4.44412,-7.9099 z m -64.04369,60.49965 c 0.0567,5.48022 -0.90684,4.53952 -3.32898,2.89622 -4.30751,-2.92242 -10.994946,-8.91877 -11.014572,-9.87754 -0.01199,-0.55846 -0.774815,-1.45606 -1.694866,-1.99427 -0.920161,-0.53824 -2.242438,-1.5857 -2.938419,-2.32785 -1.878713,-2.00315 -2.989022,-2.9016 -5.081883,-4.11176 -1.90607,-1.10216 -13.162362,-13.27121 -24.197964,-26.16028 -3.304793,-3.85981 -7.403591,-8.26152 -9.108379,-9.78151 -1.704789,-1.52001 -3.099586,-3.11851 -3.099586,-3.55228 0,-0.43374 -0.669049,-1.54106 -1.486933,-2.4605 -0.817884,-0.91941 -1.460655,-1.95365 -1.428381,-2.29843 0.153742,-1.64242 2.405568,-3.24841 2.53663,-4.4137 0.140112,-1.24499 0.208696,-2.59453 1.903998,-4.80557 4.000556,-5.21775 11.535208,-13.76757 15.630408,-17.73639 2.134611,-2.06867 6.091334,-6.06892 8.791747,-8.88957 2.700391,-2.82063 6.287927,-6.39387 7.973525,-7.94044 1.685587,-1.54657 3.821517,-4.036085 4.746039,-5.532667 2.897094,-4.689512 12.147876,-14.961671 14.867586,-16.509196 1.43131,-0.814416 2.81118,-1.843744 3.06578,-2.286767 0.28938,-0.503289 1.06975,-0.440338 2.08032,0.16762 1.14881,0.691553 1.48235,1.449817 1.15174,2.620911 -0.25579,0.90626 -0.46263,3.610283 -0.46154,6.008893 0,2.39861 0.0458,13.893316 0.0981,25.543626 0.1147,25.64852 0.23747,25.20616 -7.01848,25.20616 -2.62212,0 -5.672308,0.38645 -6.778485,0.8592 -2.910843,1.24412 -4.791617,-0.80399 -4.088985,-4.4531 0.537769,-2.79354 0.401692,-9.66776 -0.204552,-10.34934 -0.192886,-0.2168 -2.693315,1.60916 -5.556837,4.05793 -13.056269,11.16498 -17.233028,15.05098 -17.233028,16.03186 0,1.55384 1.296555,3.07317 6.865276,8.04312 2.75383,2.4577 5.177061,5.0661 5.384994,5.79631 0.208042,0.73024 2.555929,3.51351 5.217078,6.1854 5.238449,5.25948 4.867616,5.33886 5.126469,-1.09676 0.04579,-1.14927 -0.08178,-4.29908 0.175767,-6.45904 0.885814,-7.43047 0.71757,-7.19235 4.592734,-6.47679 1.921989,0.35488 5.418579,0.68394 7.770169,0.73098 l 4.275,0.0855 v 9.36135 c -2.2e-4,5.1487 0.47824,15.86787 1.06267,23.82078 0.85202,11.59263 1.36733,18.34829 1.40581,22.09791 z M 106.49517,97.12942 c 0,-2.492903 -0.24424,-4.276746 -0.72968,-5.711955 -0.69957,-2.068451 -1.03518,-2.235007 -3.69569,-1.833862 -2.536069,0.382381 -4.045911,1.70666 -11.320511,9.928058 -9.63906,10.893529 -24.55953,26.500849 -26.941436,28.181739 -0.890175,0.62817 -2.100046,2.01123 -2.688844,3.07383 -0.588798,1.06264 -2.368386,3.65518 -3.954434,5.76134 -1.585938,2.10619 -3.141019,5.04873 -3.455699,6.53841 v 0.001 c -0.31468,1.48968 -0.606135,2.82456 -0.648005,2.9667 -0.04143,0.14191 1.847736,2.27528 2.180079,2.66699 0.870331,1.02588 1.864418,2.72772 7.962295,7.3532 3.171877,3.12538 6.603588,6.32399 7.625916,7.10844 1.022328,0.78442 5.707088,5.67543 10.409949,10.86885 4.702861,5.19341 10.977377,11.83532 13.943502,14.7597 2.966015,2.92439 5.236048,5.49341 5.044048,5.70917 -0.1918,0.21568 0.49415,1.1373 1.52422,2.04811 1.02995,0.91079 1.93878,1.51896 2.01946,1.35153 0.0807,-0.16733 0.59654,-1.20251 1.14663,-2.30066 0.75791,-1.51305 0.86685,-3.84139 0.45021,-9.61222 -0.30246,-4.18845 -0.52632,-12.78907 -0.49819,-19.11236 0.0491,-10.97384 -0.0229,-11.54151 -1.56576,-12.48568 -2.51439,-1.53814 -4.223539,-1.3902 -5.095396,0.44126 -0.439527,0.92301 -1.187944,6.03329 -1.662809,11.35618 l -0.863244,9.67772 -2.573908,-0.2592 c -2.55823,-0.25774 -6.111735,-3.86789 -18.293313,-18.58788 -1.693339,-2.04604 -4.945249,-5.58206 -7.226405,-7.85773 -3.54053,-3.53203 -4.079717,-4.4495 -3.684023,-6.26867 0.255037,-1.1721 0.727602,-2.24977 1.050351,-2.39446 1.005536,-0.45064 6.124808,-5.0438 8.849198,-7.93988 1.431325,-1.52148 4.176661,-3.97163 6.100602,-5.44497 1.923953,-1.47332 4.904045,-4.55291 6.622343,-6.84368 1.718309,-2.29077 3.468795,-4.16505 3.889567,-4.16505 0.420871,0 1.566312,-0.84669 2.545788,-1.88103 1.750246,-1.84832 1.798659,-1.85271 2.835925,-0.2581 0.580402,0.89236 1.089287,2.96138 1.130285,4.59743 0.212512,8.46428 0.506039,13.51823 0.805116,13.85442 0.183617,0.20636 1.394142,0.0333 2.690593,-0.38464 1.48933,-0.48013 2.52289,-0.45884 2.80716,0.0583 0.2475,0.45001 0.83542,0.67416 1.30614,0.49788 0.58237,-0.21823 0.89552,-4.0374 0.981,-11.95507 0.0687,-6.39872 0.32122,-13.70274 0.55946,-16.23113 0.27957,-2.96552 0.42023,-5.333246 0.41751,-7.272163 z"
       sodipodi:nodetypes="sssscsscsscscssscccsssccsscsscsssssssssscsssssssssscccccsssssccccssscccccssssssscscscssssssssssssscccccsccscssccscssccsccssssssccccscssssscsscsscccscscsssssscssccscss" />
  </g>
</svg>
