<?xml version="1.0" encoding="UTF-8" standalone="no"?>
<svg
   xmlns:dc="http://purl.org/dc/elements/1.1/"
   xmlns:cc="http://creativecommons.org/ns#"
   xmlns:rdf="http://www.w3.org/1999/02/22-rdf-syntax-ns#"
   xmlns:svg="http://www.w3.org/2000/svg"
   xmlns="http://www.w3.org/2000/svg"
   xmlns:sodipodi="http://sodipodi.sourceforge.net/DTD/sodipodi-0.dtd"
   xmlns:inkscape="http://www.inkscape.org/namespaces/inkscape"
   width="132.29167mm"
   height="132.29166mm"
   viewBox="0 0 132.29167 132.29166"
   version="1.1"
   id="svg10684"
   inkscape:version="1.0 (b51213c273, 2020-08-10)">
  <defs
     id="defs10678" />
  <sodipodi:namedview
     id="base"
     pagecolor="#ffffff"
     bordercolor="#666666"
     borderopacity="1.0"
     inkscape:pageopacity="0.0"
     inkscape:pageshadow="2"
     inkscape:zoom="0.35"
     inkscape:cx="237.62721"
     inkscape:cy="321.04087"
     inkscape:document-units="mm"
     inkscape:current-layer="layer1"
     inkscape:document-rotation="0"
     showgrid="false"
     inkscape:snap-global="false"
     fit-margin-top="0"
     fit-margin-left="0"
     fit-margin-right="0"
     fit-margin-bottom="0"
     showborder="false"
     inkscape:window-width="1318"
     inkscape:window-height="704"
     inkscape:window-x="48"
     inkscape:window-y="27"
     inkscape:window-maximized="1" />
  <metadata
     id="metadata10681">
    <rdf:RDF>
      <cc:Work
         rdf:about="">
        <dc:format>image/svg+xml</dc:format>
        <dc:type
           rdf:resource="http://purl.org/dc/dcmitype/StillImage" />
        <dc:title></dc:title>
      </cc:Work>
    </rdf:RDF>
  </metadata>
  <g
     inkscape:label="Layer 1"
     inkscape:groupmode="layer"
     id="layer1"
     transform="translate(-42.961133,-63.224602)">
    <path
       id="path1859"
       style="fill:#ff0000;stroke-width:0.788333"
       d="m 111.06035,63.224624 c 3.53596,0 13.04807,7.366003 29.17367,22.592056 2.86499,2.705182 5.59206,4.918477 6.05993,4.918477 0.46786,0 0.85088,0.258471 0.85088,0.574733 0,0.316261 1.89606,2.407772 4.21391,4.647443 5.42246,5.239647 14.44028,15.397177 15.93743,17.951937 0.63929,1.09074 2.61064,3.3713 4.38104,5.06779 1.77028,1.69648 3.08699,3.18416 2.92556,3.3064 -1.95428,1.48034 -9.8383,2.31335 -19.93545,2.10623 -1.14926,-0.0236 -6.97912,0.46584 -12.95527,1.08748 -12.49308,1.29954 -23.50277,1.53519 -24.6139,0.52685 -0.43972,-0.39883 -0.5192,-3.90686 -0.1871,-8.24573 0.72779,-9.50773 1.90057,-11.08552 7.66405,-10.3125 10.07503,1.35114 10.03185,1.35083 10.03185,0.058 0,-0.67771 -2.53847,-3.68616 -5.64147,-6.68604 -3.10299,-2.999878 -6.9587,-7.005847 -8.56767,-8.901594 -1.60896,-1.895757 -4.47555,-4.804391 -6.37022,-6.464051 l -3.44455,-3.01791 -4.37148,5.229504 c -2.40432,2.87626 -5.27371,5.755431 -6.376352,6.398127 -1.102751,0.642729 -2.007228,1.579093 -2.010451,2.08087 0,0.501722 -2.825565,3.385603 -6.271945,6.408824 -8.701823,7.6334 -7.372979,8.66897 8.508278,6.62633 3.80286,-0.48906 7.17664,-0.65625 7.49693,-0.37132 1.04808,0.93235 -2.38832,15.42321 -3.81705,16.0959 -0.72242,0.34013 -6.203098,0.85827 -12.179244,1.15171 -5.976253,0.29347 -12.558391,0.65737 -14.627057,0.80744 -15.71445,1.14075 -28.635234,0.58732 -31.724592,-1.35794 -2.014318,-1.26835 -2.022266,-1.31334 -0.417922,-2.39247 0.899322,-0.60501 1.888436,-1.10948 2.197984,-1.12355 1.601122,-0.0673 5.931357,-4.32523 8.734689,-8.5883 1.743007,-2.65062 3.486658,-4.8193 3.874721,-4.8193 0.388063,0 1.078155,-0.9202 1.533563,-2.04481 0.470981,-1.16303 2.405495,-2.89783 4.485868,-4.02313 2.011633,-1.08811 4.329162,-2.927965 5.150291,-4.089054 1.300381,-1.838982 7.449131,-8.876273 8.666378,-9.918643 0.238874,-0.204465 1.418959,-1.54262 2.622566,-2.973957 1.203607,-1.431293 4.210798,-4.63136 6.682242,-7.110912 2.471336,-2.479573 5.809665,-5.906807 7.418627,-7.616897 1.60907,-1.710101 3.561521,-3.111518 4.338826,-3.113699 0.77731,-0.0022 1.62196,-0.303362 1.87662,-0.669955 0.71888,-1.034836 7.03594,-3.794361 8.68582,-3.794361 z m -0.47903,4.866629 c -2.56113,0 -4.04969,0.597184 -6.90469,2.771116 -2.00175,1.524236 -3.93304,2.771672 -4.291566,2.771672 -1.036051,0 -8.018604,6.904876 -12.949784,12.805828 -2.48648,2.975561 -5.524498,6.478106 -6.750983,7.783124 -1.226377,1.30504 -3.050691,3.58283 -4.053983,5.061587 -1.327018,1.95597 -4.170306,2.1216 -7.60079,5.18161 -4.761583,4.24738 -6.624242,7.46721 -8.981082,10.23982 -3.240265,3.81178 -0.900933,5.46694 3.680421,5.9699 v -5.8e-4 c 1.607136,0.17651 10.633115,0.28758 20.057037,0.2468 l 17.13416,-0.0744 0.25144,-2.66575 c 0.32759,-3.47634 -1.476421,-4.98671 -4.494675,-3.76336 -2.273814,0.9216 -8.951652,1.10892 -13.85061,0.38822 -2.538788,-0.37347 -3.131139,-0.81378 -3.539502,-2.63025 -0.419963,-1.86815 0.19097,-2.89717 4.251613,-7.16444 2.607958,-2.74067 8.939837,-8.830929 14.070902,-13.533818 5.131172,-4.702877 10.704652,-9.888744 12.385792,-11.524515 l 3.0566,-2.974524 2.09981,2.230752 c 1.15495,1.22686 2.37499,2.457406 2.71075,2.73449 3.73423,3.080127 5.61794,4.818217 10.6402,9.818351 3.21793,3.203774 6.31641,6.374205 6.88535,7.045544 0.86903,1.025535 2.93244,3.49061 9.802,11.70989 1.45913,1.74574 -0.41191,2.14978 -10.27996,2.22286 l -9.75044,0.0721 v 2.90183 2.90239 l 20.42061,0.20004 c 11.23148,0.1097 20.71362,-0.0617 21.07107,-0.37977 0.35756,-0.31808 -0.75089,-1.91289 -2.46328,-3.54476 -1.71229,-1.63186 -4.17278,-4.13795 -5.46768,-5.56926 -1.2949,-1.43129 -9.60598,-9.29461 -18.46902,-17.473549 -8.86304,-8.178917 -18.20501,-16.870579 -20.7598,-19.314967 -4.14539,-3.96641 -4.99606,-4.444035 -7.90991,-4.444035 z m 60.49967,64.043807 c 5.48024,-0.0563 4.53957,0.90684 2.89624,3.32894 -2.92245,4.30749 -8.91879,10.99494 -9.87751,11.01458 -0.55851,0.0119 -1.45612,0.77478 -1.99423,1.6949 -0.53832,0.92012 -1.58576,2.24246 -2.32795,2.93846 -2.00314,1.87867 -2.9015,2.98897 -4.11166,5.08187 -1.10221,1.90609 -13.27125,13.16238 -26.16035,24.19794 -3.85979,3.30477 -8.26156,7.40357 -9.78148,9.10838 -1.52003,1.70482 -3.11858,3.09961 -3.55229,3.09961 -0.43371,0 -1.54108,0.6691 -2.46048,1.48698 -0.91941,0.81788 -1.95364,1.46067 -2.29841,1.42838 -1.64248,-0.1538 -3.24843,-2.40562 -4.4138,-2.53671 -1.24496,-0.14004 -2.59454,-0.20865 -4.80552,-1.90394 -5.21774,-4.00063 -13.767582,-11.53525 -17.736391,-15.63047 -2.068666,-2.13456 -6.068946,-6.09128 -8.889571,-8.79172 -2.820625,-2.70046 -6.393853,-6.28797 -7.940412,-7.97357 -1.546559,-1.68562 -4.036154,-3.82148 -5.532661,-4.74605 -4.689513,-2.89711 -14.961739,-12.14789 -16.509264,-14.86755 -0.814363,-1.43131 -1.843755,-2.81119 -2.286703,-3.0658 -0.503311,-0.28934 -0.44037,-1.06976 0.167555,-2.0803 0.691596,-1.14888 1.449785,-1.48237 2.620955,-1.15173 0.906196,0.25574 3.610284,0.46257 6.008905,0.46148 2.398621,-0.002 13.893251,-0.0458 25.54362,-0.098 25.648447,-0.11471 25.206147,-0.23744 25.206147,7.01849 0,2.62211 0.38645,5.67229 0.85915,6.77847 1.24421,2.91091 -0.80394,4.79161 -4.453108,4.08904 -2.793451,-0.53774 -9.667738,-0.40174 -10.349237,0.20454 -0.216856,0.19288 1.609069,2.69333 4.05785,5.55688 11.164995,13.05628 15.050995,17.23297 16.031845,17.23297 1.55386,0 3.07324,-1.29647 8.0432,-6.86524 2.45769,-2.75379 5.06608,-5.17706 5.79624,-5.38501 0.73026,-0.20805 3.5135,-2.55591 6.18548,-5.21713 5.25941,-5.23835 5.33879,-4.86756 -1.09685,-5.12637 -1.14925,-0.0462 -4.29898,0.0816 -6.45894,-0.17581 -7.43055,-0.88583 -7.19243,-0.71763 -6.47688,-4.59279 0.35488,-1.92192 0.68397,-5.41854 0.73102,-7.77015 l 0.0859,-4.275 h 9.36141 c 5.14868,1.9e-4 15.86783,-0.47819 23.8207,-1.0627 11.5927,-0.85196 18.3483,-1.36732 22.09799,-1.40584 z M 62.9759,136.85858 c -2.492925,0.003 -4.276747,0.24426 -5.711924,0.72968 -2.068451,0.6996 -2.23504,1.03526 -1.833873,3.69575 0.38237,2.53602 1.706595,4.04588 9.927985,11.32054 10.893577,9.63907 26.500942,24.55954 28.18176,26.94144 0.628226,0.89011 2.011203,2.10005 3.073891,2.68884 1.062581,0.58884 3.655181,2.36839 5.761331,3.9544 2.10615,1.58596 5.04869,3.14105 6.53843,3.45571 h 0.001 c 1.48963,0.31467 2.82449,0.60611 2.9667,0.64799 0.14188,0.0419 2.27521,-1.84773 2.66692,-2.18004 1.02596,-0.87032 2.72772,-1.86438 7.35322,-7.96231 3.12534,-3.17191 6.32404,-6.60355 7.10843,-7.62591 0.7844,-1.02234 5.67541,-5.70711 10.86888,-10.40998 5.19336,-4.70288 11.83532,-10.97738 14.7597,-13.94347 2.92438,-2.96609 5.49346,-5.23605 5.70913,-5.04412 0.21568,0.19182 1.13734,-0.49414 2.04816,-1.52417 0.91081,-1.03003 1.51895,-1.93885 1.3515,-2.01945 -0.16734,-0.0807 -1.20253,-0.59657 -2.30067,-1.14665 -1.51304,-0.75795 -3.84131,-0.86682 -9.61221,-0.4502 -4.18845,0.30238 -12.78909,0.52623 -19.11238,0.4981 -10.97381,-0.049 -11.54146,0.0225 -12.48568,1.56587 -1.53807,2.5143 -1.39017,4.22347 0.44134,5.0954 0.92295,0.43942 6.03329,1.18793 11.35618,1.66277 l 9.67773,0.86323 -0.25928,2.5739 c -0.25767,2.55823 -3.86785,6.11171 -18.58782,18.2934 -2.046,1.69324 -5.58206,4.94519 -7.8577,7.22641 -3.5321,3.54049 -4.44957,4.07965 -6.26873,3.68393 -1.17203,-0.25497 -2.24975,-0.7276 -2.39443,-1.0503 -0.45068,-1.00554 -5.04374,-6.12479 -7.939877,-8.84918 -1.521533,-1.43131 -3.971602,-4.17667 -5.445016,-6.10062 -1.473307,-1.92397 -4.552891,-4.90408 -6.843676,-6.62239 -2.290784,-1.71832 -4.165043,-3.46875 -4.165043,-3.88959 0,-0.42081 -0.846692,-1.56628 -1.881025,-2.54573 -1.848266,-1.75023 -1.85267,-1.79866 -0.2581,-2.8359 0.892341,-0.58048 2.961436,-1.08931 4.597465,-1.13031 8.464238,-0.21252 13.518184,-0.50611 13.854369,-0.80519 0.206437,-0.18355 0.0333,-1.39408 -0.384626,-2.69054 -0.480111,-1.48935 -0.458844,-2.52291 0.058,-2.80718 0.450037,-0.24747 0.674196,-0.83546 0.497941,-1.30611 -0.218252,-0.58242 -4.037443,-0.89558 -11.955085,-0.98099 -6.398686,-0.069 -13.702709,-0.32121 -16.231186,-0.55951 -2.965518,-0.2796 -5.333206,-0.42021 -7.272123,-0.41752 z"
       sodipodi:nodetypes="sssscsscsscscssscccsssccsscsscsssssssssscsssssssssscccccsssssccccssscccccssssssscscscssssssssssssscccccsccscssccscssccsccssssssccccscssssscsscsscccscscsssssscssccscss" />
  </g>
</svg>
