<?xml version="1.0" encoding="UTF-8" standalone="no"?>
<svg
   xmlns:dc="http://purl.org/dc/elements/1.1/"
   xmlns:cc="http://creativecommons.org/ns#"
   xmlns:rdf="http://www.w3.org/1999/02/22-rdf-syntax-ns#"
   xmlns:svg="http://www.w3.org/2000/svg"
   xmlns="http://www.w3.org/2000/svg"
   xmlns:sodipodi="http://sodipodi.sourceforge.net/DTD/sodipodi-0.dtd"
   xmlns:inkscape="http://www.inkscape.org/namespaces/inkscape"
   width="185.20827mm"
   height="132.2916mm"
   viewBox="0 0 185.20827 132.2916"
   version="1.1"
   id="svg432"
   inkscape:version="1.0 (b51213c273, 2020-08-10)">
  <defs
     id="defs426" />
  <sodipodi:namedview
     id="base"
     pagecolor="#ffffff"
     bordercolor="#666666"
     borderopacity="1.0"
     inkscape:pageopacity="0.0"
     inkscape:pageshadow="2"
     inkscape:zoom="0.35"
     inkscape:cx="359.06393"
     inkscape:cy="281.56313"
     inkscape:document-units="mm"
     inkscape:current-layer="layer1"
     inkscape:document-rotation="0"
     showgrid="false"
     inkscape:snap-global="false"
     fit-margin-top="0"
     fit-margin-left="0"
     fit-margin-right="0"
     fit-margin-bottom="0"
     showborder="false"
     inkscape:window-width="1318"
     inkscape:window-height="704"
     inkscape:window-x="48"
     inkscape:window-y="27"
     inkscape:window-maximized="1" />
  <metadata
     id="metadata429">
    <rdf:RDF>
      <cc:Work
         rdf:about="">
        <dc:format>image/svg+xml</dc:format>
        <dc:type
           rdf:resource="http://purl.org/dc/dcmitype/StillImage" />
        <dc:title></dc:title>
      </cc:Work>
    </rdf:RDF>
  </metadata>
  <g
     inkscape:label="Layer 1"
     inkscape:groupmode="layer"
     id="layer1"
     transform="translate(-10.831001,-73.669756)">
    <path
       style="fill:#ff0000;stroke-width:0.575174"
       d="m 12.860103,200.47275 0.12379,-4.83157 9.012405,0.49419 c 2.917653,0.16003 6.342723,-0.19158 11.22232,0.24877 11.768196,1.06189 9.281626,0.3064 14.772418,-0.5357 4.316376,-0.66197 8.253755,-0.79939 10.825654,-0.37775 0.965488,0.15833 9.523603,0.25318 19.018069,0.21067 23.433261,-0.10448 26.126871,-0.0936 29.843721,0.12161 1.77009,0.10234 8.48497,-0.022 14.92183,-0.27692 6.43692,-0.25475 12.36173,-0.37019 13.16633,-0.25651 1.61098,0.22767 32.23082,0.21243 45.64336,-0.0227 4.66676,-0.0818 9.86746,0.0416 11.55713,0.27351 l 3.07214,0.42228 v 5.00936 5.00936 H 97.437945 12.315854 Z m 10.310283,-7.93814 c -0.201949,-0.19505 -6.67192,-1.35563 -10.285642,-1.40368 -3.6137232,-0.0479 -1.417107,-4.73591 -1.137779,-21.98658 l 0.841698,-51.98397 c 0.09315,-5.75616 0.09889,-25.933104 1.013271,-25.947524 13.691483,-0.21702 4.252167,-0.72677 10.285317,-0.0927 4.071207,0.42789 8.396385,0.57734 9.947907,0.34368 1.509738,-0.22735 5.378279,-0.49596 8.596705,-0.59691 3.218427,-0.10089 6.905029,-0.30979 8.192413,-0.46404 2.78428,-0.3336 65.156524,-0.40224 86.020114,-0.0947 11.25257,0.16583 15.16041,0.039 16.93038,-0.54956 1.89708,-0.63086 2.87313,-0.63873 5.55911,-0.0447 2.31023,0.51094 8.15212,0.68672 20.08172,0.60422 l 16.82367,-0.11645 v 4.08344 4.08344 l -4.19962,-0.76721 c -5.55664,-1.01509 -6.99727,-0.48009 -6.34129,2.35498 0.072,0.310924 0.17626,0.819734 0.23206,1.130664 0.0554,0.311 0.29048,0.85777 0.52176,1.21512 0.23128,0.35735 0.43128,1.6294 0.44444,2.8267 0.0131,1.19741 0.0799,4.08513 0.14817,6.41713 0.0684,2.33211 -0.0613,5.04134 -0.28818,6.02054 -0.40482,1.74736 -0.36831,1.78452 1.96116,1.99916 1.34834,0.12413 2.79027,-0.0876 3.3383,-0.49042 0.56797,-0.41749 0.67646,-0.71652 0.26369,-0.7271 -0.50332,-0.0126 -0.55045,-0.45641 -0.16721,-1.57266 0.2936,-0.85513 0.46706,-2.44515 0.38539,-3.53343 -0.0817,-1.08829 0.11499,-2.32387 0.43695,-2.7457 0.32196,-0.42184 0.85898,-1.28371 1.19339,-1.91526 1.39161,-2.62825 1.78163,-1.09414 1.93951,7.62903 0.12496,6.90037 -0.007,8.91658 -0.58519,8.95903 -0.41049,0.0302 -1.51547,1.49816 -2.66173,1.44765 -1.26404,-0.0548 0.19426,2.8522 -0.33414,3.68868 -0.83721,1.3254 -1.85798,-0.96987 -2.16716,6.29263 -0.18519,4.35141 0.12855,14.17835 1.39365,18.12236 1.09683,3.41938 8.86904,20.25395 0.0849,19.34561 -0.92859,-0.096 -7.65214,1.79496 -7.65833,1.32886 -0.007,-0.37108 -4.05908,2.45498 -5.16851,2.48912 -1.19253,0.0365 1.50283,-5.13538 1.12631,-14.57904 -0.13696,-3.4362 3.2168,-14.123 3.3209,-24.31371 0.12535,-12.2779 7.37667,-16.78929 5.734,-16.78929 -2.25066,0 -11.05087,3.78417 -11.96884,24.6783 -0.37091,8.44298 -0.69327,11.7502 -1.57043,16.11239 -0.34392,1.7102 -0.67501,3.36384 -0.73583,3.67477 -0.33252,1.70088 -2.2676,7.59723 -2.9992,9.13902 -0.83329,1.75599 -0.88238,3.29639 -0.14152,4.44085 0.23786,0.36748 4.58149,0.53312 11.96519,0.45641 8.45623,-0.0878 12.48337,3.48249 12.48832,6.23783 l 0.009,5.00967 -3.65733,-0.44576 c -2.01149,-0.24512 -8.79221,-0.4993 -15.06819,-0.56474 -6.2759,-0.0654 -16.15067,-0.1759 -21.94386,-0.24543 -5.79319,-0.0695 -12.24472,-0.1218 -14.33671,-0.11625 -2.09199,0.007 -5.9102,0.017 -8.48497,0.0258 -2.57477,0.009 -16.53111,0.006 -31.0141,-0.0107 -14.482983,-0.0151 -27.780932,0.0151 -29.551093,0.0639 -5.841302,0.16368 -10.196596,0.19914 -13.45896,0.10965 -4.959709,-0.13635 -10.749515,0.19656 -11.521269,0.66222 -0.382648,0.23088 -3.937508,0.40187 -7.899852,0.38002 -3.962279,-0.022 -8.257405,0.0977 -9.544854,0.26552 -1.287383,0.1679 -3.168624,0.41925 -4.180591,0.55862 -1.011903,0.13931 -2.005161,0.0938 -2.207112,-0.10127 z m 21.684554,-6.92582 c 0.475476,0 0.701676,-0.25443 0.50279,-0.56542 -0.557221,-0.871 0.373849,-0.66953 1.514497,0.32774 0.843132,0.73717 1.255636,0.772 2.363038,0.19939 0.859234,-0.44432 4.926466,-0.76393 11.313191,-0.88907 11.637106,-0.22805 16.241285,-0.52903 19.041797,-0.64888 9.06403,-0.38789 10.709292,-1.1449 11.567157,-5.32243 0.366939,-1.78678 0.402531,-3.24411 0.08826,-3.61242 -0.289822,-0.33952 -0.386234,-0.75329 -0.214336,-0.91943 0.172095,-0.16601 -0.225156,-1.66913 -0.882505,-3.34003 -0.657349,-1.6709 -1.195274,-3.46511 -1.19547,-3.98702 -1.76e-4,-0.52197 -0.446598,-1.38019 -0.992085,-1.9072 -0.848609,-0.81986 -1.798974,-0.90879 -6.5832,-0.616 -3.075273,0.18825 -6.443632,0.5825 -7.485261,0.87617 -1.185496,0.33429 -2.021457,0.33467 -2.234815,0 -0.187544,-0.29311 -0.651874,-0.34513 -1.03198,-0.11563 -0.380043,0.22956 -1.034849,0.46768 -1.455111,0.52921 -0.594704,0.087 -0.611262,-0.0661 -0.07484,-0.69082 0.538511,-0.62683 0.513674,-0.80449 -0.113623,-0.81129 -0.617975,-0.007 -0.63525,-0.11173 -0.07496,-0.45547 0.494054,-0.30312 0.635184,-1.39121 0.438841,-3.38342 -0.159253,-1.6151 -0.41935,-4.27226 -0.578277,-5.90467 -0.158992,-1.63249 -0.44927,-3.34974 -0.645353,-3.81616 -0.195954,-0.46636 -0.467655,-4.40967 -0.603636,-8.76285 -0.135981,-4.35318 -0.343863,-9.88658 -0.461982,-12.29635 -0.118054,-2.40984 0,-4.38146 0.267985,-4.38146 0.265443,0 0.630165,-0.44885 0.810408,-0.99747 0.38793,-1.18105 5.951014,-3.33335 9.638661,-3.72918 1.426298,-0.15317 3.015627,-0.73603 3.566459,-1.3082 2.55443,-2.65299 4.85,-11.92346 3.878579,-15.66284 -0.337409,-1.29888 -0.646202,-1.43567 -3.147894,-1.39493 -3.322594,0.0542 -4.030333,0.36623 -2.810157,1.23961 0.501225,0.35887 -1.719641,-0.77546 -5.7314,-1.10779 -2.529005,-0.2096 -3.384523,-0.0365 -4.679599,0.94795 -1.11001,0.84355 -1.798519,1.034 -2.298178,0.63572 -1.688157,-1.34561 -12.111083,-0.26685 -12.133246,1.2558 -0.0065,0.37447 -0.190609,0.34021 -0.47163,-0.0872 -0.569867,-0.86704 -2.05653,-0.94431 -7.808396,-0.40602 -2.79471,0.26154 -4.429932,0.65636 -4.338345,1.04752 0.08096,0.34525 0.04172,0.45125 -0.08761,0.23555 -0.12894,-0.2157 -1.141494,-0.68144 -2.250134,-1.03487 -1.201077,-0.38298 -1.85647,-0.89167 -1.62173,-1.25858 0.24895,-0.38928 0.04694,-0.48709 -0.549985,-0.2659 -0.64418,0.23881 -0.846391,0.10423 -0.636815,-0.42341 0.481018,-1.21103 -3.299585,-4.395124 -4.733444,-3.986714 -0.65585,0.18681 -1.674272,0.44609 -2.263238,0.57614 -2.546672,0.56247 -3.215754,0.959054 -3.610659,2.140154 -0.230502,0.68932 -0.376652,1.48442 -0.324894,1.76689 0.0515,0.2824 -0.21779,0.69982 -0.599136,0.92749 -0.887786,0.5301 -1.545917,4.67545 -1.659865,10.45573 -0.08025,4.07494 0.04889,4.66965 1.247164,5.72606 1.493898,1.3174 2.495435,1.29019 5.624816,-0.15278 1.943558,-0.89613 4.433845,-1.09508 10.633873,-0.8494 0.804606,0.0321 2.413299,0.8846 3.574871,1.89491 1.601717,1.39316 2.122955,2.29949 2.15757,3.7518 0.02477,1.05313 0.311204,2.17145 0.635902,2.48515 0.324697,0.31369 0.440145,1.29586 0.256576,2.18254 -0.186239,0.8996 -0.02477,1.97169 0.364919,2.42552 0.461201,0.53683 0.515372,1.16177 0.159448,1.83874 -0.296471,0.56403 -0.451422,2.04309 -0.344253,3.28687 0.458462,5.31978 0.781009,8.17941 1.403091,12.43768 0.807019,5.52491 0.542424,12.82324 -0.476845,13.15155 -0.39634,0.12754 -1.533597,1.01749 -2.527246,1.97755 l -1.806731,1.74553 -3.015305,-0.92989 c -1.658429,-0.51139 -3.673629,-0.92775 -4.478235,-0.92523 -1.335493,0.006 -3.803614,-0.38958 -3.803614,-0.60693 0,-0.0497 -0.526649,-0.16154 -1.170309,-0.24851 -0.643724,-0.087 -1.433729,-0.24335 -1.755558,-0.34758 -0.752783,-0.24373 -3.206955,0.55692 -3.255453,1.06201 -0.01956,0.21218 -0.279067,3.0572 -0.574887,6.3221 -0.29582,3.2649 -0.703371,7.4937 -0.905647,9.39743 -0.441709,4.157 -0.275416,4.30733 4.985394,4.50622 5.655779,0.21387 11.30113,0.74189 11.662202,1.0908 0.173658,0.16771 0.680294,0.17004 1.125784,0.006 0.445425,-0.16537 1.19886,-0.30046 1.674336,-0.30046 z m 3.89103,-5.08896 c 0.168509,-0.6223 0.0674,-0.9889 -0.224374,-0.81464 -0.291779,0.17414 -1.690829,2.79048 -1.747151,1.23937 -0.02542,-0.69964 -0.161208,-1.00559 -0.301816,-0.67992 -0.391842,0.90772 -4.333326,0.28252 -4.333326,-0.68736 0,-0.50137 -0.277437,-0.65391 -0.714714,-0.3928 -0.393079,0.23473 -1.446441,0.3729 -2.340681,0.30709 -0.894304,-0.0658 -2.638454,-0.5425 -4.054127,-0.97662 -1.532815,-0.47001 -2.511079,-2.94912 -1.587833,-4.02386 0.520065,-0.60542 1.97726,-0.77017 5.9046,-0.66758 4.028837,0.10518 10.68472,0.93933 13.033353,0.31194 0.643659,-0.172 1.347616,-0.33203 1.5643,-0.35584 0.216747,-0.0239 1.166982,-0.67167 2.111807,-1.43976 1.642981,-1.33566 1.711428,-1.57574 1.570297,-5.51212 -0.08109,-2.26366 -0.33578,-5.00609 -0.565826,-6.09443 -0.230047,-1.08828 -0.494577,-3.37795 -0.587794,-5.08814 -0.09335,-1.71014 -0.352599,-4.3814 -0.576321,-5.9361 -0.329913,-2.29269 -0.439427,-7.54074 -0.324437,-15.54708 0.07053,-4.91527 -0.458007,-15.78031 -0.793264,-16.30435 -0.236565,-0.36975 -1.430861,-1.16556 -2.654102,-1.76846 -2.199289,-1.084 -4.911992,-1.16455 -10.008009,-0.29719 -1.171155,0.19938 -2.367473,0.007 -3.18844,-0.51266 -1.476884,-0.93492 -2.257763,-2.97834 -1.346119,-3.52267 0.938306,-0.56027 4.568521,-1.33377 7.775802,-1.65679 8.222334,-0.82817 10.886213,-1.37842 10.436616,-2.1559 -0.206969,-0.35804 -0.02347,-0.32718 0.420262,0.0707 0.931723,0.83554 3.142159,0.92106 4.580582,0.17734 0.563087,-0.29115 1.92824,-0.34185 3.033685,-0.1126 2.565838,0.53198 5.606369,0.4639 9.324587,0.40785 3.778714,-0.0573 4.683253,0.57606 5.098691,3.56846 0.338583,2.43868 -0.527626,3.42411 -1.869832,2.12731 -0.679645,-0.65663 -2.476467,-0.80846 -8.626823,-0.72924 -4.27257,0.0554 -8.097501,0.29985 -8.499836,0.54395 -0.8975,0.54465 -0.935308,3.19197 -0.103257,7.22553 0.345492,1.67487 0.734335,5.3349 0.864187,8.13337 0.129788,2.79848 0.501681,8.141 0.82638,11.87232 0.324698,3.73133 0.711258,8.6192 0.859104,10.86195 0.147714,2.24281 0.515957,4.53248 0.818165,5.08814 0.775077,1.42535 1.405046,5.43372 1.574078,10.01513 0.101691,2.7561 0.412505,4.10586 1.049059,4.55566 0.497574,0.35142 3.03349,0.70001 5.635311,0.77458 3.850744,0.11021 9.210182,-0.10152 10.31465,0.34431 1.563517,0.63117 2.008095,1.13879 2.008095,2.29319 0,0.81546 -0.376196,1.84605 -0.836027,2.29024 -0.957993,0.9256 -1.75054,1.08406 -1.212093,0.24234 0.198821,-0.31099 -0.03324,-0.56536 -0.516088,-0.56536 -0.482777,0 -1.014768,0.21406 -1.182169,0.47574 -0.167401,0.26174 -3.672001,0.36182 -7.787993,0.22245 -10.5372,-0.35672 -11.387895,-0.32504 -11.879015,0.44261 -0.33076,0.51706 -0.504551,0.49577 -0.71491,-0.0876 -0.218963,-0.60725 -0.535838,-0.54962 -1.494288,0.27182 -0.669017,0.57336 -1.090518,1.35946 -0.936612,1.74679 0.153908,0.38744 -8.021752,1.15144 -7.796334,0.31886 z m 6.828891,-1.17116 c -0.690138,-1.24585 -0.745808,-1.25448 -1.517105,-0.23529 -0.440469,0.58186 -0.80076,1.26374 -0.80076,1.51521 0,0.25154 2.881343,-0.26369 2.317865,-1.27992 z m -3.838751,-0.0914 c 0.404879,-0.2613 0.287086,-0.41856 -0.317788,-0.42397 -1.024417,-0.009 -1.849884,1.32684 -1.204791,1.95008 0.212512,0.20538 0.497185,0.0391 0.632579,-0.36874 0.135392,-0.4081 0.535903,-0.92888 0.89,-1.15737 z m 6.821005,1.40475 c 1.30016,1.50571 -1.493899,-1.73016 0,0 z M 46.820664,105.89461 c 0,-0.31093 0.263356,-0.56531 0.585185,-0.56531 0.32183,0 0.585187,0.25438 0.585187,0.56531 0,0.31092 -0.263357,0.56535 -0.585187,0.56535 -0.321829,0 -0.585185,-0.25443 -0.585185,-0.56535 z m 123.110506,74.04624 c 0.10085,-0.49596 0.26114,-1.21474 0.0463,-1.86847 -0.31844,-0.96937 -7.87541,-0.39078 -10.11205,-0.44545 -1.50707,-0.0365 -3.00344,-0.007 -3.32527,0.0658 -0.32183,0.0731 -4.66676,0.21242 -9.65535,0.30979 -4.98859,0.0972 -9.26761,0.19486 -9.509,0.21677 -1.05923,0.0961 -0.35338,2.63474 0.87775,3.15652 1.84499,0.78207 31.20789,0.87408 31.44915,-0.31194 z m -54.23224,1.00798 c 0.38819,-0.28901 1.04651,-0.33562 1.46293,-0.1036 0.41642,0.23208 0.58754,0.23856 0.38024,0.0151 -0.20723,-0.2242 0.25358,-1.01661 1.02409,-1.76102 1.17122,-1.13161 1.40088,-1.91815 1.40088,-4.79926 0,-3.73982 -0.80422,-5.74086 -3.16289,-7.86968 -0.83518,-0.75386 -1.51854,-1.84523 -1.51854,-2.42533 0,-1.22658 -2.04395,-5.28848 -2.92632,-5.81536 -0.77515,-0.46284 -2.34016,-4.07223 -2.34016,-5.39706 0,-0.81829 0.39432,-0.98373 2.00131,-0.83945 2.88278,0.25884 4.66937,1.78861 6.87903,5.89025 2.1749,4.03715 11.05843,13.23708 13.76345,14.25375 1.45191,0.54565 10.111,0.78358 19.48852,0.53545 1.77016,-0.0466 5.05462,0.0334 7.29889,0.17779 3.61431,0.23302 4.22205,0.12331 5.31961,-0.95987 1.83189,-1.80807 2.87306,-5.26417 4.45614,-14.79134 0.10332,-0.62192 0.34204,-1.25794 0.53036,-1.41337 0.90969,-0.75084 1.60263,-5.76895 1.47317,-10.66848 -0.18728,-7.09113 -1.93007,-19.15088 -3.05487,-21.13925 -0.48591,-0.85885 -0.9297,-3.17113 -0.98629,-5.13841 -0.0878,-3.04869 0.13383,-3.92246 1.50022,-5.9172 0.88166,-1.28717 1.60302,-2.56841 1.60302,-2.84716 0,-0.71607 3.1934,-1.24661 5.18591,-0.86155 1.24436,0.24039 1.82271,0.78912 2.25027,2.13505 0.58818,1.85165 0.0632,4.29725 -0.9226,4.29725 -0.68335,0 -3.00252,3.73668 -3.00252,4.83775 0,2.50121 5.53081,-1.3596 7.06122,-4.92906 0.60526,-1.41181 0.56641,-2.19458 -0.22959,-4.62034 -0.79314,-2.41727 -1.44957,-3.24273 -3.80877,-4.78963 -2.23423,-1.46495 -3.21706,-1.79156 -4.5459,-1.51074 -2.46845,0.52172 -4.51109,1.54097 -5.40227,2.6957 -0.42951,0.55654 -1.2396,1.44694 -1.80014,1.97867 -2.3796,2.25736 -3.33472,8.04873 -2.21083,13.40448 0.26101,1.24377 0.72964,4.29662 1.04137,6.78417 0.59164,4.72066 1.04143,7.47392 2.32021,14.20267 0.67417,3.54749 0.64444,4.52254 -0.24993,8.19756 -0.55833,2.29414 -1.10916,4.67997 -1.22409,5.30189 -0.48805,2.64166 -3.34828,7.63219 -4.37419,7.63219 -1.57512,0 -4.09298,-2.14066 -3.83934,-3.26421 0.12118,-0.53677 0.78955,-3.01116 1.48529,-5.4987 1.70126,-6.0824 1.34436,-13.02925 -1.21978,-23.74464 -2.20555,-9.21687 -2.3296,-16.42653 -0.35788,-20.79942 1.98267,-4.39708 2.85207,-9.49215 2.0154,-11.810924 -0.84353,-2.33778 -2.13776,-2.49762 -15.08969,-1.86399 -3.37937,0.16538 -7.72424,0.35747 -9.65528,0.427 l -3.51105,0.12627 0.20833,3.109414 c 0.24244,3.616 0.39302,3.95748 1.745,3.95748 0.55364,0 1.38621,0.50881 1.85015,1.13066 0.464,0.62192 1.26242,1.13073 1.7744,1.13073 0.51191,0 1.44129,0.45213 2.0652,1.0047 0.6239,0.55265 1.99016,1.58758 3.03616,2.29994 2.66896,1.81758 2.66896,4.21664 0,5.20119 -1.046,0.38581 -2.16513,0.63464 -2.48696,0.5529 -2.24166,-0.56934 -8.13831,0.37308 -10.96398,1.75226 -0.55892,0.27283 -1.44879,0.49596 -1.97759,0.49596 -0.87403,0 -9.00139,7.59642 -9.00302,8.4149 -3.5e-4,0.19145 -0.62358,1.04765 -1.38477,1.90272 -1.89761,2.13166 -4.0967,2.08555 -5.03605,-0.10555 -0.63544,-1.48215 -0.49979,-7.26823 0.19726,-8.40828 0.5464,-0.89374 0.94052,-8.99506 0.50996,-10.48105 -0.30012,-1.03569 -1.08661,-1.8468 -2.20379,-2.27291 -1.70869,-0.65178 -9.112009,-0.76476 -11.977642,-0.18271 -0.804607,0.16343 -1.639526,0.3183 -1.855361,0.34418 -1.019073,0.12243 -0.997105,3.37619 0.04042,5.98327 1.103686,2.77335 1.171546,2.82676 3.592472,2.82676 2.023801,0 2.691001,0.28699 3.709741,1.59576 1.09763,1.4101 1.24977,2.39806 1.30707,8.48984 0.0548,5.82475 0.25691,7.25784 1.3031,9.23903 2.25893,4.27799 7.46342,4.67236 11.56592,0.87655 3.39071,-3.13718 9.59518,-9.85699 9.59518,-10.39212 0,-0.61814 4.43703,-3.30754 5.45682,-3.30754 0.4393,0 1.28863,0.52304 1.88744,1.16228 0.95773,1.02247 0.99097,1.31167 0.276,2.40278 -6.3233,9.6496 -7.31695,13.40542 -5.07157,19.16883 0.80082,2.05557 1.30114,3.88707 1.1117,4.07008 -0.18937,0.18296 -0.0371,0.33272 0.33832,0.33272 0.37548,0 0.68271,0.36723 0.68271,0.81602 0,0.44873 0.46537,1.14837 1.0342,1.55471 0.56882,0.40627 1.51717,1.46873 2.10744,2.36102 0.59027,0.89229 1.96813,2.38149 3.06198,3.30936 2.21962,1.88283 2.59367,3.94445 1.02031,5.6241 -1.12657,1.20265 -2.31076,1.30002 -4.37335,0.35961 -1.39703,-0.63697 -5.08292,-4.77526 -4.73847,-5.32009 0.0882,-0.13938 -0.50435,-0.84859 -1.31665,-1.57587 -0.8123,-0.72728 -1.47688,-1.58002 -1.47688,-1.89498 0,-0.31489 -0.4142,-0.90475 -0.92051,-1.31072 -0.50631,-0.40596 -1.43986,-1.72153 -2.07452,-2.92349 -0.63473,-1.20202 -1.58282,-2.3444 -2.10692,-2.53869 -1.20955,-0.44841 -3.42762,-2.57181 -3.24359,-3.10506 0.13663,-0.3962 -2.4543,-1.20227 -6.17617,-1.92143 -1.62825,-0.31464 -2.13723,-0.0959 -3.84253,1.65094 -2.30294,2.35913 -2.77268,4.1439 -2.11103,8.02045 0.78329,4.58879 2.79087,9.01716 6.83743,15.0818 3.43746,5.15188 3.1082,5.82286 -2.89112,5.89157 -5.43232,0.0624 -7.19844,1.08507 -6.62837,3.83864 0.61882,2.98937 1.22461,3.25885 7.02113,3.12345 2.92078,-0.0681 5.6282,-0.36056 6.01639,-0.64963 z m 30.80699,-73.91972 c -1.65158,-0.64383 -2.14355,-1.48889 -1.74884,-3.00398 0.28454,-1.09231 0.73016,-1.24522 3.7426,-1.28446 l 3.41966,-0.0441 -0.23852,1.74056 c -0.38018,2.7741 -2.27439,3.72307 -5.1749,2.59241 z m -46.807606,62.31021 c 0.154559,-0.24184 -0.292951,-4.12154 -0.994758,-8.62159 l -1.276041,-8.18187 -2.189185,-0.0195 c -1.204009,-0.0107 -2.18912,0.14384 -2.18912,0.3416 0,0.34349 -4.564414,0.21381 -8.648985,-0.24575 -2.444915,-0.27509 -4.154256,-1.7648 -4.215076,-3.67363 -0.02607,-0.82068 -0.192693,-3.01859 -0.37013,-4.88422 -0.177375,-1.86563 -0.327501,-5.14105 -0.333629,-7.27869 -0.0091,-3.41976 0.168053,-4.05969 1.480662,-5.32797 1.405959,-1.35826 1.630334,-1.40128 3.892854,-0.74636 2.105224,0.60939 2.347721,0.84783 1.968722,1.93586 -0.619084,1.77708 -0.319874,11.82111 0.372089,12.48957 0.319483,0.30866 1.890758,0.58992 3.491757,0.625 2.722809,0.0598 2.949856,-0.0441 3.514052,-1.60785 0.803368,-2.2265 0.771296,-13.92537 -0.04694,-17.06406 -0.762365,-2.92494 -1.711753,-3.37638 -5.280823,-2.51092 -1.404851,0.34059 -3.565484,0.74511 -4.801435,0.89884 -1.235886,0.15361 -2.947509,0.56114 -3.803613,0.90545 -1.832022,0.73673 -2.181947,0.83869 -3.200107,0.93266 -1.995971,0.18421 -2.793343,1.55803 -3.238115,5.57926 -0.248235,2.24451 -0.245367,4.14931 0.0072,4.23294 0.251754,0.0836 0.488774,1.5513 0.526714,3.2615 0.08585,3.86346 1.510845,15.78761 2.048576,17.14128 0.362898,0.91383 1.179102,0.9787 9.343553,0.74284 l 8.945848,-0.25841 0.390407,3.48351 c 0.431019,3.84613 1.435946,7.21602 2.342629,7.85626 0.774751,0.54698 1.911298,0.54345 2.263505,-0.007 z m -88.366592,-88.181094 1.681636,-7.3001 84.424587,-0.18837 h 98.601325 v 5.95115 5.95115 l -3.65733,-0.0724 c -2.01149,-0.0403 -4.84224,0.085 -6.29058,0.27761 -7.38272,0.9816 -8.78829,1.02543 -9.69022,0.30224 -0.69965,-0.56095 -4.22426,-0.73169 -14.77861,-0.71576 -7.62294,0.0107 -15.14255,0.16923 -16.71031,0.35042 -1.90529,0.22036 -3.26353,0.078 -4.09617,-0.4292 -0.68518,-0.41737 -2.03573,-0.65215 -3.00129,-0.52172 -4.42648,0.59798 -40.439265,1.10056 -54.420896,0.75946 -3.218427,-0.0783 -10.459952,0.069 -16.0922,0.32781 -9.167616,0.42127 -23.955158,-1.65749 -41.547188,0.36207 -4.079095,0.46824 -10.060095,-0.0151 -10.060095,-0.0151 z"
       id="path271"
       sodipodi:nodetypes="ccsssssssssscccccccsssssssssssscccsssssssssssssssscsssssssssssssssscssscsscssssscccsssssssssssssssssssssssssssssssssscssssssssssssssssssssssssssscsssssssssssccsssssssssssssssssssssssssssssssssssssssssssssssssssssssssscssssssssssssscsssssssssssssssssssssssssssssssssssssssssssssssssscsssssssssssssssssssssssssssssssssssssssssssssssssssssssscssscscssssscsssssssssssssssscssccccccccssscsssssscc" />
  </g>
</svg>
