<?xml version="1.0" encoding="UTF-8" standalone="no"?>
<svg
   xmlns:dc="http://purl.org/dc/elements/1.1/"
   xmlns:cc="http://creativecommons.org/ns#"
   xmlns:rdf="http://www.w3.org/1999/02/22-rdf-syntax-ns#"
   xmlns:svg="http://www.w3.org/2000/svg"
   xmlns="http://www.w3.org/2000/svg"
   xmlns:sodipodi="http://sodipodi.sourceforge.net/DTD/sodipodi-0.dtd"
   xmlns:inkscape="http://www.inkscape.org/namespaces/inkscape"
   width="132.29163mm"
   height="132.29167mm"
   viewBox="0 0 132.29163 132.29167"
   version="1.1"
   id="svg19367"
   inkscape:version="1.0 (b51213c273, 2020-08-10)">
  <defs
     id="defs19361" />
  <sodipodi:namedview
     id="base"
     pagecolor="#ffffff"
     bordercolor="#666666"
     borderopacity="1.0"
     inkscape:pageopacity="0.0"
     inkscape:pageshadow="2"
     inkscape:zoom="0.35"
     inkscape:cx="282.5671"
     inkscape:cy="202.6961"
     inkscape:document-units="mm"
     inkscape:current-layer="layer1"
     inkscape:document-rotation="0"
     showgrid="false"
     inkscape:snap-global="false"
     fit-margin-top="0"
     fit-margin-left="0"
     fit-margin-right="0"
     fit-margin-bottom="0"
     showborder="false"
     inkscape:window-width="1318"
     inkscape:window-height="704"
     inkscape:window-x="48"
     inkscape:window-y="27"
     inkscape:window-maximized="1" />
  <metadata
     id="metadata19364">
    <rdf:RDF>
      <cc:Work
         rdf:about="">
        <dc:format>image/svg+xml</dc:format>
        <dc:type
           rdf:resource="http://purl.org/dc/dcmitype/StillImage" />
        <dc:title></dc:title>
      </cc:Work>
    </rdf:RDF>
  </metadata>
  <g
     inkscape:label="Layer 1"
     inkscape:groupmode="layer"
     id="layer1"
     transform="translate(-31.070789,-94.536656)">
    <path
       style="fill:#000000;stroke-width:0.777868"
       d="m 72.407207,226.1536 c 2.03987,-0.52033 2.920812,-2.70727 2.943724,-7.30797 0.02477,-2.31908 0.432023,-6.12022 0.934205,-8.44687 0.502357,-2.3267 0.724606,-4.5251 0.494129,-4.88538 -0.231627,-0.36027 -0.07432,-0.37953 0.34806,-0.0427 0.422025,0.3367 0.866784,0.24298 0.98826,-0.20828 0.122008,-0.45122 1.703491,-1.0163 3.515272,-1.25577 4.435938,-0.58633 5.132941,-0.89358 6.096516,-2.68781 0.566502,-1.05484 0.636753,-2.2327 0.224107,-3.74913 -0.331602,-1.21608 -0.681519,-4.03696 -0.777339,-6.26861 -0.09706,-2.23169 -0.391146,-4.47087 -0.656125,-4.976 -0.942166,-1.7967 -0.293294,-10.33994 0.928275,-12.22186 1.08514,-1.67163 1.43603,-1.72506 4.333661,-0.65952 2.55453,0.93944 3.45352,0.93506 4.737631,-0.0243 0.871652,-0.65031 1.436473,-1.37916 1.255366,-1.6196 -0.181718,-0.24055 0.161917,-1.20385 0.760262,-2.14088 1.185028,-1.85238 1.378256,-11.58273 0.278438,-14.01475 -0.378326,-0.83649 -0.342405,-1.08226 0.102011,-0.69914 0.798563,0.68811 1.56944,-2.63868 1.049397,-4.52848 -0.194299,-0.70901 -0.619596,-1.28907 -0.943316,-1.28907 -0.323374,0 -0.588099,-0.59554 -0.588099,-1.32345 0,-2.11698 -1.255012,-2.61872 -2.867275,-1.14616 -1.069312,0.97662 -1.823991,1.10309 -2.665659,0.44653 -0.645687,-0.50372 -2.258929,-0.89854 -3.585073,-0.87738 -4.016479,0.0641 -4.566261,-0.50116 -5.332717,-5.48262 -0.391675,-2.54561 -0.559777,-4.97186 -0.373716,-5.39163 0.186681,-0.41978 0.05751,-0.90187 -0.289135,-1.07131 -0.345139,-0.16937 -0.680281,-2.37447 -0.74478,-4.90018 -0.216584,-8.47227 -0.430782,-9.00083 -3.432722,-8.43954 -1.451958,0.27146 -2.831011,0.92433 -3.064318,1.45069 -0.283295,0.63916 -1.025067,0.52263 -2.232832,-0.35079 -0.994454,-0.71932 -1.652616,-0.95684 -1.462396,-0.5278 0.189336,0.42901 -0.709832,0.95183 -2.000498,1.16185 -3.326645,0.54141 -4.605279,-1.38299 -4.392939,-6.6116 0.226671,-5.57901 -0.393358,-10.30057 -1.25519,-9.55818 -0.457857,0.39475 -0.447417,-0.0388 0.03008,-1.28557 1.130089,-2.94281 0.234106,-4.8427 -2.17426,-4.61652 -1.149374,0.10792 -2.428539,-0.0958 -2.842865,-0.45258 -0.414061,-0.356832 -0.93332,-0.242287 -1.153443,0.25445 -0.219063,0.49682 -1.278369,0.65855 -2.351301,0.35941 -1.151938,-0.3211 -1.950952,-0.15655 -1.950952,0.40204 0,0.55365 -1.116815,0.79601 -2.692723,0.58441 -1.480799,-0.19891 -3.295324,0.0882 -4.032406,0.63811 -0.971539,0.72496 -1.216879,0.72208 -0.892177,-0.01 0.249764,-0.56299 0,-1.01004 -0.540226,-1.01004 -0.543676,0 -1.199273,0.47589 -1.457264,1.05756 -0.324702,0.73277 -0.74124,0.53783 -1.356315,-0.63478 -0.543588,-1.03605 -0.887666,-1.22999 -0.887666,-0.50008 0,0.72793 -0.42105,0.96703 -1.081159,0.61394 -0.594637,-0.31797 -1.817002,0.0937 -2.716434,0.91543 -0.899434,0.82152 -1.433024,1.03759 -1.186003,0.48003 0.24649,-0.55751 0.117052,-1.0137 -0.291612,-1.0137 -3.313018,0 -6.171012,7.6264 -6.082892,16.2322 0.03274,3.11864 0.374513,6.49497 0.761501,7.50294 0.511471,1.33206 0.496431,1.92893 -0.05485,2.18499 -1.105136,0.51362 1.447974,4.38798 2.891614,4.38798 0.647191,0 1.205466,-0.7192 1.247757,-1.60724 0.07255,-1.49191 0.09962,-1.48926 0.382829,0.0365 0.255426,1.37044 0.844047,1.57795 3.541283,1.24851 1.979087,-0.24161 3.082719,-0.0511 2.842599,0.49062 -0.219063,0.4935 0.221629,0.449 0.993835,-0.10027 4.080624,-2.90243 3.993742,-2.87112 3.55597,-1.28136 -0.27958,1.01589 -0.164298,1.29611 0.353898,0.85079 0.785831,-0.67701 1.127962,2.04032 0.854841,6.79175 -0.07255,1.26284 -0.08494,3.53593 -0.02477,5.05134 0.05928,1.51541 0.131916,3.52706 0.164297,4.47033 0.03274,0.94324 0.78884,2.38176 1.681017,3.19666 1.980061,1.80871 5.997248,2.32746 6.011405,0.77634 0,-0.75544 0.181815,-0.71758 0.564024,0.12186 0.31028,0.68202 1.972099,1.31295 3.77813,1.43419 1.820983,0.12223 3.224367,0.65823 3.224367,1.23146 0,0.55821 0.181728,1.26894 0.404948,1.57943 0.221542,0.31035 0.306211,2.18842 0.186681,4.17315 -0.122007,1.98474 0.08228,3.86844 0.450689,4.18595 0.448479,0.38645 0.433969,0.97346 -0.04247,1.77584 -0.526424,0.88402 -0.427776,1.59717 0.375751,2.71727 0.59915,0.83526 0.980032,1.63429 0.846348,1.77563 -1.110267,1.17336 -4.671547,2.24581 -6.831387,2.05719 -4.046296,-0.3534 -6.439798,0.59569 -6.654968,2.63882 -0.1021,0.98189 0.141913,2.33926 0.545092,3.01636 0.556858,0.93543 0.511029,1.16351 -0.191636,0.94968 -1.021705,-0.31136 -1.165387,3.34589 -0.304795,7.76676 0.300282,1.54312 0.201633,3.02719 -0.250029,3.78689 -0.408841,0.68713 -0.569953,1.88024 -0.35788,2.65136 0.278253,1.00974 -0.317978,1.73744 -2.12976,2.60076 -1.383653,0.65928 -2.812252,1.06413 -3.174467,0.89967 -1.259789,-0.57168 -5.71413,-0.0799 -6.775647,0.74835 -3.801575,2.96577 -2.046063,25.3167 1.991739,25.36102 0.587206,0.007 1.283412,0.31277 1.547332,0.68085 0.264008,0.368 0.877933,0.20897 1.364277,-0.35376 0.656393,-0.75958 0.884038,-0.73778 0.884038,0.0844 0,0.6091 0.370709,0.92567 0.82361,0.70355 0.45299,-0.22215 1.490619,-0.0601 2.305824,0.35992 0.835642,0.43062 2.200982,0.38303 3.129522,-0.10903 0.905803,-0.4801 1.646866,-0.52412 1.646866,-0.0978 0,0.81201 3.615335,0.49721 4.663582,-0.40613 0.333992,-0.28777 0.607113,-0.0371 0.607113,0.55678 0,0.60651 0.545535,0.88089 1.244749,0.626 0.684527,-0.24957 1.648104,-0.10447 2.141172,0.32246 0.824494,0.71394 7.006743,0.58808 10.119985,-0.20582 z m -28.329379,-1.71374 c -0.181815,0 0.182435,0 0,0 z m 23.350826,-3.15167 c 0.697181,-1.17103 0.527573,-1.24488 -1.237316,-0.53929 -1.259701,0.50367 -1.898664,0.4876 -1.663853,-0.0416 0.209154,-0.47271 0.06724,-0.85944 -0.316739,-0.85944 -0.383714,0 -0.702133,0.51662 -0.70762,1.14805 0,0.71096 -0.19429,0.79841 -0.494308,0.22943 -0.656656,-1.24618 -4.107518,-1.68029 -4.107518,-0.51671 0,0.61929 -0.565089,0.63092 -1.689776,0.0348 -0.929602,-0.49257 -2.579742,-0.89565 -3.666829,-0.89565 -1.087441,0 -2.588146,-0.45592 -3.335225,-1.01324 -1.042585,-0.77781 -1.49177,-0.72444 -1.932993,0.22945 -0.482009,1.04182 -0.669752,1.0381 -1.160344,-0.0243 -0.321693,-0.69616 -0.893947,-0.99967 -1.271202,-0.67454 -0.384953,0.33149 -1.048512,-0.80537 -1.51088,-2.58872 -0.453698,-1.74894 -1.021881,-3.01007 -1.262975,-2.80256 -0.241535,0.20758 -0.313465,-1.3587 -0.161908,-3.48059 0.151999,-2.12186 0.614544,-4.14888 1.02719,-4.50446 0.412822,-0.35559 2.392175,-0.67706 4.398689,-0.71438 5.15037,-0.0958 5.953896,-0.24611 5.953896,-1.11302 0,-0.42092 0.434234,-0.76534 0.965169,-0.76534 1.409843,0 2.235311,-2.75392 1.926533,-6.429 -0.658868,-7.84288 -0.698947,-11.09907 -0.141912,-11.57879 0.32886,-0.28324 0.423971,-1.27998 0.211631,-2.2145 -0.536864,-2.35811 1.598558,-5.77906 2.764918,-4.42952 0.566502,0.65538 0.862274,0.67345 0.862274,0.0528 0,-0.51967 0.592957,-0.72875 1.31783,-0.46455 0.724516,0.26416 1.317384,0.77891 1.317384,1.14379 0,1.09938 4.380464,0.53346 5.449944,-0.70406 1.053026,-1.21834 1.120001,-7.32907 0.117055,-10.68047 -0.347618,-1.1615 -0.25304,-1.91195 0.271704,-2.15576 0.568183,-0.26415 0.603041,-0.71299 0.119528,-1.5268 -0.37752,-0.63404 -0.804056,-4.8301 -0.948271,-9.32456 -0.144389,-4.49448 -0.292318,-8.29563 -0.329389,-8.44701 -0.03716,-0.15134 -0.578712,0.12358 -1.203433,0.61093 -0.738054,0.5758 -1.57352,0.55971 -2.38545,-0.0459 -0.849886,-0.63405 -1.116106,-0.63162 -0.832723,0.007 0.556241,1.25485 -9.774404,1.8629 -10.552803,0.6211 -0.638167,-1.0187 -0.651615,-6.57687 -0.02477,-8.72504 0.221629,-0.75772 0.301079,-2.20424 0.174295,-3.2145 -0.126961,-1.0103 0.08228,-2.38498 0.466438,-3.05491 0.498288,-0.87127 0.464403,-1.41815 -0.119529,-1.92102 -0.448743,-0.38662 -0.765217,-1.07841 -0.702931,-1.53722 0.254188,-1.88144 -0.104665,-2.74407 -1.196264,-2.87487 -2.503211,-0.29992 -7.257392,-0.31138 -10.645171,-0.0243 -2.878963,0.24298 -3.795825,-0.0479 -4.776654,-1.51547 -2.222304,-3.3254 -1.193168,-13.40926 1.368613,-13.40926 0.434499,0 0.645865,-0.32457 0.469889,-0.7216 -0.400967,-0.90455 -0.305326,-0.9144 12.412539,-1.2756 l 10.52343,-0.29887 c 0,0 0.612774,6.76527 0.929071,7.62362 0.72275,1.96153 0.23145,4.04246 -0.78539,3.3351 -0.422111,-0.29333 -0.310987,0.0138 0.246491,0.68309 0.557746,0.66888 1.061784,2.21221 1.119735,3.42956 0.05751,1.21741 0.36478,2.4573 0.681077,2.75529 0.316474,0.29818 0.746725,1.19255 0.956145,1.9878 0.304529,1.15613 1.352864,1.41635 5.229112,1.29837 2.666357,-0.0813 5.512142,-0.64308 6.323985,-1.24866 1.387457,-1.03519 1.477525,-0.92061 1.505394,1.91615 0.169339,17.12548 0.926505,24.55614 2.515775,24.6933 3.916769,0.33809 9.262668,-0.72805 10.431504,-2.08026 0.6172,-0.71403 0.950659,-0.58307 1.245724,0.48933 0.287098,1.04286 0.718682,1.22884 1.499559,0.64621 1.319421,-0.98428 3.745738,1.12865 3.063423,2.66765 -0.248968,0.56085 -0.126953,1.56813 0.273395,2.23839 0.831484,1.39672 0.273643,8.03376 -0.749468,8.91945 -0.365577,0.31622 -2.554526,0.36353 -4.864778,0.1052 -2.878697,-0.32213 -4.519459,-0.10101 -5.21416,0.70288 -0.835908,0.96697 -0.950659,0.94393 -0.65489,-0.13121 0.283119,-1.02783 -0.21163,-1.22833 -2.333162,-0.94625 -2.187976,0.29087 -2.60832,0.63982 -2.245042,1.86307 0.246488,0.82781 0.733897,5.39116 1.084167,10.14076 0.380706,5.16134 1.012945,9.15989 1.57175,9.93869 1.048334,1.46153 1.250501,2.47082 0.337442,1.68404 -0.328771,-0.2829 -0.451043,0.26589 -0.272236,1.21978 0.179251,0.95397 0.02477,2.00099 -0.362038,2.32672 -0.378051,0.32594 -0.531908,1.1572 -0.341866,1.84763 0.189247,0.69044 -0.03981,1.58754 -0.511205,1.99357 -1.273149,1.09679 -3.186058,1.11409 -3.186058,0.0277 0,-0.56725 -0.317624,-0.50559 -0.790608,0.15343 -0.434675,0.60615 -1.280848,1.10212 -1.880174,1.10212 -2.121975,0 -4.339942,4.01107 -4.798772,8.67922 -0.241535,2.44896 -0.73133,4.94567 -1.090182,5.54823 -0.358766,0.60258 -0.466615,1.3543 -0.23897,1.67047 0.637105,0.88842 -1.077709,5.94519 -2.224429,6.55859 -0.835112,0.44678 -0.873952,0.29922 -0.214109,-0.81063 z m 53.142166,3.70077 c 0.46369,-0.24819 1.82345,-0.0591 3.02167,0.41993 1.1982,0.47904 2.26361,0.5152 2.36775,0.0802 0.10457,-0.43481 1.43824,-0.46034 2.96488,-0.0566 2.85038,0.7535 6.34043,-0.52444 6.45916,-2.36507 0.27464,-4.25506 0.0469,-16.84071 -0.32469,-18.02363 -0.31348,-0.99518 -0.0743,-1.69148 0.72213,-2.10651 1.9014,-0.99044 4.15485,-2.77114 4.15485,-3.28336 0,-0.25894 1.61236,-0.40256 3.5834,-0.319 3.39822,0.14441 3.60357,0.0243 3.97613,-2.34116 0.21667,-1.37133 0.26003,-6.01965 0.0971,-10.3297 -0.16192,-4.31006 -0.0849,-8.31001 0.17172,-8.88886 0.34018,-0.76722 1.55858,-0.8073 4.49558,-0.14788 5.99653,1.34621 6.82342,0.94473 9.16455,-4.44841 1.74649,-4.02362 2.03217,-5.52275 1.91406,-10.04738 -0.2365,-9.08508 -3.34461,-15.83977 -7.28659,-15.83977 -1.25422,0 -2.28026,0.38315 -2.28026,0.85146 0,0.46833 -1.33419,0.74651 -2.96469,0.61818 -1.7756,-0.13989 -2.97062,0.16349 -2.97913,0.75576 0,0.544 -0.61126,-0.84491 -1.34082,-3.08642 -0.72938,-2.24151 -1.13549,-4.7213 -0.90245,-5.51055 0.23411,-0.78928 0.37558,-4.53477 0.31648,-8.32329 -0.12201,-7.8722 -1.26014,-10.09053 -4.91405,-9.58408 -1.1215,0.15551 -2.57523,0.30893 -3.23066,0.34122 -0.69292,0.0347 -1.00436,0.48145 -0.74397,1.06869 0.29904,0.6746 -0.0372,0.64716 -1.01693,-0.0826 -0.8053,-0.60094 -2.01616,-0.89149 -2.69043,-0.64565 -1.71498,0.62522 -2.73704,-1.45336 -2.19496,-4.46388 0.36231,-2.01201 0.26817,-2.36495 -0.46591,-1.74843 -0.75999,0.63841 -0.77423,0.52211 -0.0823,-0.6697 0.56897,-0.97926 0.6501,-2.14143 0.25347,-3.62041 -0.32117,-1.19798 -0.34867,-3.00477 -0.0593,-4.01503 0.82919,-2.90731 0.73576,-6.18098 -0.15447,-5.41409 -0.54527,0.46978 -0.61552,0.14961 -0.24153,-1.09386 0.8298,-2.749658 0.76202,-5.387585 -0.14193,-5.530767 -0.4529,-0.07178 -0.97154,-0.233946 -1.15281,-0.360072 -0.83866,-0.584445 -2.07225,-0.516054 -3.08945,0.171489 -0.64834,0.438168 -1.28607,0.361489 -1.52786,-0.183637 -0.22916,-0.514711 -0.69099,-0.698102 -1.02816,-0.407469 -0.33745,0.29052 -0.6135,0.192985 -0.6135,-0.216964 0,-0.410009 -1.92634,-0.744365 -4.28093,-0.743021 -2.35429,9.64e-4 -4.28136,0.376463 -4.28207,0.833589 0,0.457161 -0.54456,0.14613 -1.20794,-0.690812 -0.66366,-0.837092 -1.41604,-1.229846 -1.67236,-0.872773 -0.25594,0.357087 -2.6038,0.535753 -5.2168,0.397048 -10.965193,-0.582066 -10.3848,-0.731921 -9.717879,2.508435 0.297806,1.447783 0.334877,3.098304 0.08228,3.667864 -0.421582,0.95058 -0.358322,5.94673 0.209154,16.66055 0.122015,2.2731 0.257991,5.01463 0.305325,6.09226 0.09953,2.2618 2.527365,3.54097 3.83962,2.02269 0.61605,-0.71259 0.85776,-0.70816 0.85776,0.0173 0,0.69587 0.51024,0.73777 1.64722,0.13503 0.90589,-0.48014 1.64811,-0.57325 1.64934,-0.20688 0,0.36636 1.33721,0.70275 2.96841,0.74755 1.63121,0.0448 3.15713,0.34815 3.39097,0.67408 0.23401,0.32595 0.38593,5.51462 0.33833,11.53051 -0.0646,8.27358 0.13448,11.19304 0.81847,11.98536 1.3258,1.53376 5.63654,1.83083 8.33519,0.57438 2.47465,-1.15211 4.07895,-0.51485 5.65318,2.24522 0.57447,1.00738 0.58985,1.70142 0.0575,2.59566 -0.53687,0.90195 -0.50449,1.41221 0.12448,1.95428 0.59968,0.51666 0.63569,0.91942 0.12201,1.36183 -0.40114,0.34539 -0.72904,2.46367 -0.72904,4.70695 0,3.81934 -0.11456,4.08344 -1.81177,4.15261 -6.60313,0.26937 -9.77936,0.99343 -10.53459,2.40195 -0.53686,1.00107 -0.72637,3.7516 -0.55305,8.01936 0.1444,3.57265 0.32346,6.59904 0.39619,6.72532 0.0725,0.12635 0.15686,1.15953 0.18668,2.29606 0.0301,1.13654 0.33399,2.33202 0.67453,2.65657 1.48885,1.41805 -2.81694,3.04429 -8.11073,3.06342 l -5.5877,0.0208 -0.23402,4.48824 c -0.15933,3.04596 0.0469,4.73845 0.6464,5.26689 0.65808,0.58139 0.67258,0.78223 0.0575,0.79275 -0.55783,0.01 -0.82352,1.64411 -0.82352,5.06541 0,3.39013 0.27091,5.07519 0.82352,5.12386 0.65888,0.058 0.65888,0.16524 0,0.53572 -0.49997,0.28152 -0.82352,2.21444 -0.82352,4.92237 v 4.4591 l 5.9876,-0.0461 c 3.29311,-0.0243 6.26294,0.33807 6.60012,0.80788 0.60534,0.84402 5.94319,0.77395 7.5759,-0.0995 z m -2.33645,-5.14126 c -0.70345,0 -1.44672,-0.37871 -1.6519,-0.84158 -0.2042,-0.46291 -1.9275,-0.84327 -3.82715,-0.84532 -5.22787,-0.007 -6.0152,-0.11248 -6.95666,-0.94477 -1.10858,-0.97998 -1.40984,-3.68171 -0.70496,-6.323 0.30329,-1.13657 0.31177,-2.06647 0.0248,-2.06647 -0.63719,0 -0.77468,-2.30752 -0.33647,-5.65083 0.20668,-1.57462 0.94668,-2.76775 2.09296,-3.37322 1.93272,-1.02095 9.22258,-0.95977 10.42823,0.0874 1.51344,1.31454 2.09357,-1.68493 1.81549,-9.38704 -0.15438,-4.26895 -0.6033,-8.04027 -0.99852,-8.38069 -0.48926,-0.42162 -0.50023,-0.8067 -0.0345,-1.2079 0.37592,-0.32389 0.55747,-1.55817 0.40362,-2.74275 -0.25676,-1.97299 0,-2.19984 3.03963,-2.70195 1.8261,-0.3013 4.04522,-0.16384 4.93174,0.30615 0.88669,0.46984 2.05924,0.615 2.60576,0.32249 1.11557,-0.59669 1.16264,-1.18959 1.26376,-15.94845 0.0743,-11.05388 -0.25303,-12.5241 -3.14287,-14.0628 -0.90023,-0.47919 -1.13132,-0.3065 -0.86839,0.6485 0.30578,1.11024 0.10715,1.11965 -1.35233,0.0641 -0.94075,-0.68047 -3.16509,-1.22149 -4.94272,-1.2023 -1.77789,0.0208 -3.42148,-0.2291 -3.65311,-0.55164 -0.23153,-0.32249 -0.37531,-4.49545 -0.31966,-9.27297 0.0725,-6.19376 -0.12457,-8.6904 -0.68603,-8.70044 -0.47484,-0.007 -0.39645,-0.35819 0.19668,-0.88217 0.84511,-0.74468 0.79831,-1.06496 -0.32921,-2.2528 -1.24351,-1.31 -2.15931,-1.63751 -5.28406,-1.88999 -0.73389,-0.0593 -1.64766,-0.37799 -2.03093,-0.70825 -0.38345,-0.3301 -2.03837,-0.49027 -3.67753,-0.35564 -2.59886,0.21347 -2.94046,0.0312 -2.66751,-1.42322 0.17173,-0.91733 0.0248,-2.18236 -0.33452,-2.81107 -0.67551,-1.19361 -0.59208,-15.09237 0.0971,-16.05241 0.21667,-0.30304 0.39522,-0.0788 0.39522,0.49783 0,0.73919 0.48625,0.7911 1.64713,0.17601 0.90589,-0.48015 1.64713,-0.53881 1.64713,-0.13053 0,1.03453 2.97858,1.36527 7.08221,0.78637 1.17777,-0.16628 2.14117,0.0312 2.14117,0.43947 0,0.40784 1.40834,0.71238 3.12953,0.67683 1.72109,-0.0358 3.7223,0.0676 4.44689,0.22946 0.72638,0.1621 1.25404,-0.17876 1.17558,-0.75965 -0.16431,-1.21426 2.26051,-0.57172 2.8486,0.755 0.20916,0.4714 0.3224,4.65775 0.25251,9.30302 -0.20419,13.55525 -0.0549,15.67271 1.18601,16.65269 0.61905,0.48941 3.79378,0.92418 7.05505,0.96618 l 5.92948,0.0765 0.8267,3.49722 c 0.4544,1.92347 0.85334,6.45508 0.88625,10.07022 0.0469,5.30746 0.3231,6.97085 1.42922,8.63945 1.47814,2.22968 3.76919,2.78556 3.78538,0.91842 0,-0.77725 0.16687,-0.82778 0.49431,-0.15655 0.26622,0.54537 1.22501,0.9826 2.131,0.97163 6.31213,-0.0765 8.56469,0.38769 8.56469,1.76469 0,0.90104 0.30523,1.17616 0.82343,0.7421 0.64391,-0.5391 0.64144,-0.37585 0,0.74787 -0.45918,0.79063 -0.64817,2.11511 -0.42025,2.94328 0.22897,0.82812 0,2.19974 -0.4829,3.04797 -0.51961,0.89339 -0.56969,1.26856 -0.11952,0.89176 1.45566,-1.21705 1.40763,0.74916 -0.0823,3.35327 -1.28059,2.23884 -1.98873,2.61804 -5.15736,2.76118 -2.02014,0.0913 -3.86616,0.43526 -4.10256,0.76446 -0.23659,0.32909 -1.33863,0.23503 -2.44995,-0.20931 -1.11133,-0.44434 -2.27486,-0.58882 -2.58567,-0.32108 -0.31072,0.26763 -0.56501,4.20257 -0.56501,8.74407 0,10.93655 -0.86146,13.40388 -4.58766,13.13865 -2.47454,-0.17599 -2.66804,-0.0277 -2.2661,1.7371 0.41379,1.81763 0.37425,1.83884 -0.68277,0.36528 -1.25694,-1.7522 -4.0117,-2.08982 -4.68356,-0.57405 -0.4153,0.93686 -1.16026,7.96902 -1.15982,10.94919 0,0.75769 0.22163,2.88797 0.49272,4.73397 0.37601,2.56339 0.28338,3.32283 -0.3924,3.21449 -0.48677,-0.0782 -0.93977,0.27145 -1.00675,0.77658 -0.0672,0.50514 0.29905,0.7985 0.813,0.65193 0.64304,-0.18328 0.80309,0.2468 0.51342,1.37763 -0.8368,3.26726 -1.70358,4.00844 -4.26934,3.65079 -1.8431,-0.25687 -2.53533,-0.007 -2.53533,0.91874 0,0.97318 -0.29966,1.04871 -1.27448,0.32143 -1.60803,-1.19972 -3.27063,-0.95065 -3.97383,-0.95065 z"
       id="path3407"
       sodipodi:nodetypes="ccscccsscccsscccsccsssssscccssscssccsccsssscsccssscscsssccsccscccscccssccscscscscsccssccsssssssssssccsscscsccssssscccccsssssscssssssscccsscccccscsccssscscccsssscsscsccssccscsccccccscscscscccsccscssccccsscsssccccscscssscscscscsccsccscsscccssscscccsscssscsccsccccccsscscccccsccssscsscsscccccssscssccsscscccssssssscsscscccscsssscccccscsssssssscssssssss" />
    <path
       style="opacity:0.930349;fill:#000000;stroke-width:1.72743"
       d="m 49.503531,218.27988 c -3.563932,-1.00369 -6.899423,-7.64657 -5.464543,-10.88308 0.487053,-1.09855 3.019371,-1.99739 5.627248,-1.99739 6.602769,0 8.253084,-3.19132 8.253084,-15.95958 V 178.3752 l 4.3326,1.20794 c 6.730968,1.8767 8.568496,-2.1992 7.847428,-17.407 -0.846347,-17.85027 -0.614809,-17.44053 -9.260101,-16.39194 l -7.592446,0.9209 0.346201,-7.87486 c 0.652677,-14.84633 0.703285,-14.75398 -8.461176,-15.42145 -6.715573,-0.48911 -8.49869,-1.34648 -8.899126,-4.27887 -0.985872,-7.21888 2.430839,-9.58996 13.819019,-9.58996 10.460967,0 10.79372,0.15307 10.79372,4.96612 0,2.73137 0.642062,7.3204 1.42683,10.19782 1.241474,4.55197 2.286979,5.23168 8.04685,5.23168 h 6.619933 l 0.02034,8.66815 c 0.03893,16.72073 0.724428,17.9065 10.025846,17.33386 8.007477,-0.49301 8.255569,-0.34764 8.705365,5.10132 0.455909,5.52426 0.340096,5.60881 -7.681094,5.60881 -9.115887,0 -9.457932,0.86379 -6.760075,17.07385 1.685441,10.12712 0.823788,12.96747 -4.421163,14.57341 -3.538539,1.08344 -4.590767,2.90909 -6.242852,10.83232 l -1.986964,9.52927 -7.899716,0.27566 c -4.344899,0.1516 -9.382551,-0.14193 -11.194775,-0.65235 z"
       id="path3409" />
    <path
       style="opacity:0.930349;fill:#000000;stroke-width:1.72743"
       d="m 112.57297,218.19351 c -5.537,-0.70334 -6.12791,-1.33614 -6.80926,-7.29201 -0.96402,-8.42703 2.27654,-12.31701 8.84904,-10.62237 l 4.7549,1.22598 v -12.3298 -12.32979 h 5.85223 5.85225 v -14.0272 c 0,-13.38531 -1.72208,-19.33919 -5.33246,-18.43584 -0.68823,0.1722 -3.02741,0.20442 -5.19823,0.0715 -3.7039,-0.22667 -3.97418,-0.90084 -4.38913,-10.94925 l -0.44229,-10.70772 -7.02099,-1.8901 -7.02098,-1.89014 0.43724,-8.30767 c 0.24047,-4.56924 0.93101,-8.07826 1.53459,-7.79782 0.60348,0.28044 5.7059,0.50989 11.33864,0.50989 h 10.24136 v 13.01929 c 0,14.11319 0.8928,15.43789 10.45062,15.50675 4.32172,0.031 5.643,3.16416 5.643,13.38006 0,7.08198 3.22862,11.51491 7.01232,9.628 1.04036,-0.51883 3.50933,-0.3773 5.48647,0.31445 2.80023,0.97978 3.59481,2.5861 3.59481,7.26738 0,5.67141 -0.41157,6.08568 -7.31525,7.36236 -7.24739,1.34024 -7.31551,1.42133 -7.33763,8.73841 -0.0301,9.83169 -1.16945,11.84609 -7.66199,13.54405 -5.30007,1.38609 -5.49046,1.73281 -5.70262,10.38504 -0.12068,4.92307 -0.28524,10.09828 -0.36576,11.50048 -0.15315,2.66821 -4.44115,5.31079 -8.1931,5.0492 -1.20697,-0.0842 -4.92298,-0.49963 -8.25778,-0.92323 z"
       id="path3411" />
    <path
       style="opacity:0.930349;fill:#000000;stroke-width:0.215928"
       d="m 62.856642,226.37482 c -0.402294,-0.14011 -1.410372,-0.30743 -2.240175,-0.37181 -1.413115,-0.10965 -1.515747,-0.15626 -1.620057,-0.73571 -0.128376,-0.7133 -0.261356,-0.74048 -1.260409,-0.25777 -1.330127,0.64264 -3.07228,0.76766 -3.818563,0.27395 -0.676565,-0.44753 -0.855814,-0.43718 -2.72537,0.15736 -0.933141,0.29677 -1.20697,0.28263 -2.328827,-0.12026 -0.699215,-0.2511 -1.583607,-0.42513 -1.965197,-0.38673 -0.826264,0.0832 -1.14088,-0.14021 -1.14088,-0.81012 0,-0.62749 -0.330099,-0.62203 -0.914385,0.0151 -0.553496,0.60351 -0.719563,0.61565 -1.804261,0.13183 -0.466173,-0.20791 -1.060456,-0.43487 -1.320749,-0.50435 -0.802552,-0.21423 -1.419132,-1.11523 -2.068889,-3.02319 -2.175678,-6.38924 -2.294411,-17.9288 -0.218178,-21.21788 0.785566,-1.24452 2.348557,-1.6738 5.932219,-1.62933 2.854809,0.0355 4.302872,-0.35968 5.924434,-1.61674 0.768313,-0.59556 0.952694,-1.12297 0.778753,-2.22713 -0.08582,-0.54304 0.01416,-1.14858 0.352129,-2.14553 0.56668,-1.66972 0.577031,-2.1747 0.10847,-5.2697 -0.633832,-4.18659 -0.438038,-6.34859 0.575173,-6.34859 0.627815,0 0.631885,-0.10151 0.05751,-1.40221 -0.633124,-1.43314 -0.613659,-2.88296 0.05043,-3.7418 0.826706,-1.06912 1.580863,-1.27245 5.532138,-1.49159 2.938063,-0.16293 4.040722,-0.32462 5.097285,-0.74729 1.485929,-0.5945 2.400934,-1.17605 2.400934,-1.52591 0,-0.12519 -0.370355,-0.8324 -0.822992,-1.57165 -0.916683,-1.4971 -0.975343,-1.8533 -0.457234,-2.77671 0.460331,-0.82043 0.454404,-1.12831 -0.03981,-2.06045 -0.373363,-0.70398 -0.402472,-1.01325 -0.364338,-3.87242 0.03539,-2.66925 -0.01592,-3.33219 -0.368852,-4.70193 -0.481922,-1.87336 -0.629495,-1.98484 -3.145889,-2.37523 -2.842776,-0.44103 -3.826525,-0.8371 -4.182546,-1.68386 -0.194823,-0.46351 -0.676656,-0.44531 -0.676656,0.0254 0,0.68653 -0.731152,0.97524 -2.090122,0.82536 -2.223808,-0.24525 -4.1568,-1.51989 -5.000671,-3.29752 l -0.498819,-1.05077 -0.02389,-7.66703 c -0.02654,-8.38667 -0.10847,-9.21519 -0.893682,-9.00593 -0.506605,0.13498 -0.537306,0.0208 -0.264185,-0.98051 0.104312,-0.38252 0.119972,-0.79257 0.03451,-0.91125 -0.08494,-0.11865 -1.110179,0.43382 -2.277954,1.22772 -2.04332,1.38912 -2.135511,1.42619 -2.451896,0.98525 -0.293205,-0.40879 -0.585525,-0.44396 -2.712365,-0.32652 -3.010966,0.16627 -3.22419,0.0898 -3.566763,-1.27895 -0.314616,-1.25703 -0.554293,-1.39053 -0.554293,-0.30872 0,0.93707 -0.568892,1.78464 -1.197769,1.78464 -0.68727,0 -1.377372,-0.58106 -2.240707,-1.88685 -0.803083,-1.21446 -0.971185,-2.02894 -0.473693,-2.29507 0.34337,-0.18366 0.280819,-1.17893 -0.181372,-2.88886 -0.498025,-1.84232 -0.743099,-6.81287 -0.490858,-9.95501 0.569334,-7.0903 3.103334,-12.80285 5.679271,-12.80285 0.503951,0 0.546949,0.0618 0.443346,0.63736 -0.06282,0.35058 -0.06016,0.63738 0.0088,0.63738 0.06636,0 0.672318,-0.41166 1.345698,-0.91479 1.081779,-0.80829 1.341451,-0.90156 2.230178,-0.80078 1.21626,0.13794 1.463104,0.0368 1.463104,-0.60019 0,-0.7113 0.164474,-0.61034 0.86537,0.53114 0.344343,0.5609 0.711778,1.01977 0.816355,1.01977 0.104665,0 0.476701,-0.35067 0.826883,-0.7793 0.835731,-1.02291 1.63324,-0.98274 1.553525,0.0782 -0.0637,0.84729 0.03185,0.85842 1.172465,0.13707 0.787335,-0.49791 1.209801,-0.5658 3.602773,-0.57905 2.614865,-0.0143 2.722185,-0.0359 3.030607,-0.60589 0.30754,-0.56834 0.38345,-0.584 1.985901,-0.40926 1.521321,0.16595 1.722247,0.13342 2.311311,-0.37417 0.54854,-0.47259 0.707973,-0.508838 1.063995,-0.2419 0.230387,0.17266 1.355426,0.38579 2.500198,0.4736 1.97918,0.15185 2.102512,0.19414 2.514539,0.86197 0.527398,0.85472 0.545093,1.61034 0.07432,3.17608 -0.523327,1.73976 -0.525718,1.92514 -0.02566,1.94339 0.764333,0.0277 0.963931,1.39154 1.103633,7.53684 0.135896,5.98343 0.217912,6.47551 1.287393,7.73005 0.329831,0.38693 0.909165,0.72657 1.42391,0.83491 1.179541,0.24827 3.343633,-0.27288 3.717349,-0.89519 0.281702,-0.46903 0.319747,-0.4625 1.463016,0.25128 1.399135,0.87348 1.874951,0.91777 2.49976,0.23267 0.921818,-1.01077 4.189713,-1.86243 4.955195,-1.29139 0.8375,0.62486 0.994808,1.59899 1.302167,8.06434 0.164829,3.46651 0.374425,4.90086 0.765483,5.23777 0.103073,0.0888 0.211012,1.12371 0.239765,2.29967 0.05928,2.42157 0.637548,6.09421 1.203255,7.64021 0.540403,1.47657 1.210244,1.79246 4.290221,2.02331 1.672612,0.12537 2.845606,0.34304 3.383268,0.62782 1.498759,0.79382 1.750381,0.77412 3.333191,-0.26129 1.377637,-0.90126 1.510349,-0.94173 1.95281,-0.59556 0.349829,0.27364 0.524477,0.6976 0.663471,1.61024 0.128907,0.84569 0.302937,1.29824 0.548719,1.42613 0.761943,0.39656 1.091776,1.24251 1.085495,2.78445 -0.0088,1.85724 -0.448743,2.93707 -1.106109,2.70703 -0.538103,-0.18825 -0.543411,-0.087 -0.06724,1.28398 0.486513,1.40117 0.7331,5.55342 0.520496,8.76579 -0.188982,2.85502 -0.40486,3.87558 -1.103013,5.21583 -0.28825,0.55346 -0.524123,1.25272 -0.524123,1.55392 0,0.65191 -0.369655,1.14251 -1.410108,1.87167 -1.026393,0.71932 -2.247882,0.69321 -4.590949,-0.0981 -1.037365,-0.35037 -2.176828,-0.63702 -2.532142,-0.63702 -1.811783,0 -2.891436,3.10747 -3.099973,8.92307 -0.09573,2.66954 -0.06459,3.10297 0.350802,4.84398 0.250826,1.05162 0.509967,2.71515 0.575971,3.69669 0.218178,3.24392 0.483602,5.58572 0.838118,7.39341 0.390971,1.99364 0.333638,2.66832 -0.332753,3.91823 -0.61012,1.14431 -1.619437,1.72364 -3.606575,2.07006 -3.783349,0.6595 -5.121705,1.0327 -5.654587,1.57665 -0.431049,0.43999 -0.626135,0.49652 -1.012239,0.29335 -0.475462,-0.25017 -0.478382,-0.2441 -0.49705,1.04395 -0.01061,0.71258 -0.236491,2.45723 -0.502624,3.877 -0.532441,2.84028 -1.011264,7.33573 -1.016838,9.54593 -0.0088,3.13427 -0.979501,5.50867 -2.48348,6.06907 -1.912642,0.71267 -8.306789,1.02614 -9.864649,0.48361 z m 5.464898,-4.86464 c 0.994276,-1.47153 1.655536,-3.64581 1.681725,-5.52966 0.01417,-1.03341 0.14377,-1.9754 0.343901,-2.50268 0.176505,-0.46506 0.512621,-2.1621 0.746989,-3.7712 0.528814,-3.63046 0.71992,-4.47248 1.394714,-6.14424 0.917128,-2.27218 2.54214,-3.89178 3.910046,-3.89697 0.206057,0 0.740531,-0.32375 1.187594,-0.7177 l 0.812905,-0.71629 0.305324,0.52509 c 0.62233,1.0701 3.415295,0.20778 3.724336,-1.14994 0.06724,-0.29501 0.07255,-0.90452 0.01239,-1.35455 -0.08582,-0.63536 -0.0088,-1.01488 0.360711,-1.6987 0.412203,-0.77109 0.456528,-1.04283 0.356817,-2.18639 -0.112893,-1.29405 -0.109707,-1.30469 0.353456,-1.18123 0.617466,0.16449 0.601096,-0.26113 -0.05485,-1.42791 -0.287187,-0.51093 -0.606581,-1.15843 -0.709654,-1.43888 -0.366284,-0.99622 -0.790344,-4.28056 -1.341009,-10.38492 -0.306917,-3.40259 -0.676564,-6.91066 -0.821487,-7.79574 -0.144833,-0.88507 -0.2633,-1.71242 -0.2633,-1.83852 0,-0.31383 1.113275,-0.67895 2.662642,-0.87322 1.703491,-0.21359 1.950953,-0.0713 1.801874,1.03626 -0.122714,0.91206 0.08494,1.1325 0.465287,0.49374 0.120858,-0.20298 0.587914,-0.56504 1.037983,-0.80467 0.716291,-0.38138 1.272973,-0.41446 4.467614,-0.26565 4.710477,0.21941 4.991826,0.15731 5.460998,-1.20524 0.432384,-1.25575 0.789547,-4.90915 0.623569,-6.3779 -0.06547,-0.57635 -0.278253,-1.47768 -0.473419,-2.00301 -0.281791,-0.75832 -0.317181,-1.10634 -0.171463,-1.68905 0.491564,-1.96578 -1.609715,-3.7583 -3.334164,-2.84429 -0.618526,0.32779 -0.939958,0.12524 -1.202285,-0.75771 -0.304441,-1.02471 -0.644892,-1.11203 -1.526718,-0.39163 -1.412496,1.15397 -4.584309,1.91624 -8.107542,1.94852 -2.646629,0.0242 -2.818448,-0.0899 -3.268341,-2.17232 -0.648075,-2.99945 -0.832545,-5.88937 -1.319333,-20.67022 -0.153237,-4.6526 -0.149344,-4.64372 -1.657658,-3.74556 -1.347645,0.80242 -3.515714,1.16402 -7.072127,1.17948 -3.673817,0.016 -3.90332,-0.0656 -4.460532,-1.58758 -0.190752,-0.52113 -0.510676,-1.15404 -0.710893,-1.40643 -0.35328,-0.44543 -0.644892,-1.64068 -0.856435,-3.51147 -0.05662,-0.50108 -0.343989,-1.44049 -0.638345,-2.0876 -0.52129,-1.1459 -0.525183,-1.17863 -0.149255,-1.256 0.665416,-0.13693 0.78468,-1.27759 0.350712,-3.3552 -0.209418,-1.00272 -0.523238,-3.18065 -0.697267,-4.83983 l -0.316473,-3.0167 -5.130552,0.16398 c -11.645996,0.37224 -17.420464,0.62984 -17.720835,0.79054 -0.190663,0.102 -0.296744,0.38226 -0.264805,0.69938 0.04158,0.41533 -0.07432,0.56612 -0.539783,0.70093 -0.784239,0.22703 -1.088768,0.61024 -1.593781,2.0054 -0.642856,1.77595 -0.885542,3.73354 -0.800164,6.45435 0.09927,3.16534 0.723545,5.06718 1.98705,6.05339 l 0.81724,0.63794 6.590292,-0.0882 c 7.162636,-0.096 8.017124,0.0173 8.313159,1.10295 0.09104,0.33364 0.120591,0.99231 0.06547,1.46372 -0.08582,0.74022 -0.0088,0.98053 0.56836,1.76188 l 0.668248,0.90475 -0.467587,1.22591 c -0.386458,1.01308 -0.467588,1.57111 -0.467588,3.21503 0,1.09401 -0.123423,2.64984 -0.274361,3.45734 -0.278783,1.4922 -0.37115,5.72095 -0.157484,7.21022 0.06459,0.44767 0.303821,0.98484 0.532529,1.19368 0.585347,0.53467 4.385241,0.73957 7.136977,0.38485 2.41801,-0.31174 3.369465,-0.65426 3.369465,-1.21301 0,-0.31399 0.06901,-0.31476 0.502978,-0.006 1.028959,0.73297 1.630411,0.75105 2.680957,0.0805 l 0.992684,-0.63355 0.100154,1.18742 c 0.05485,0.65305 0.148901,2.73621 0.208447,4.62916 0.215876,6.8589 0.605959,11.06219 1.133622,12.216 0.266134,0.58211 0.255162,0.6429 -0.199598,1.10479 -0.576234,0.58515 -0.592868,1.07666 -0.109177,3.22792 0.742656,3.30312 0.637902,8.30256 -0.198449,9.46851 -0.500501,0.69772 -2.251058,1.32554 -3.791047,1.35964 -1.104162,0.0246 -1.376575,-0.0499 -1.524416,-0.41639 -0.447062,-1.10789 -2.379877,-1.69871 -2.818889,-0.86167 -0.213312,0.40654 -0.269051,0.40733 -0.863599,0.0123 -0.551729,-0.36676 -0.703196,-0.37641 -1.146984,-0.0733 -0.281261,0.19211 -0.765658,0.7908 -1.076559,1.33045 -0.522531,0.9069 -0.565264,1.13051 -0.565264,2.95511 0,1.292 -0.08671,2.11918 -0.249499,2.39439 -0.368407,0.6207 -0.454493,3.22429 -0.216497,6.54409 0.389466,5.43113 0.440691,7.81073 0.194467,9.03653 -0.270467,1.34657 -0.971361,2.43598 -1.567326,2.43598 -0.650908,0 -1.010115,0.27428 -1.181312,0.902 -0.199954,0.73299 -0.598355,0.81574 -4.935201,1.02508 -3.797417,0.1833 -5.065169,0.42978 -5.522759,1.07366 -0.48431,0.68142 -0.87811,3.24725 -0.87811,5.72096 0,1.77151 0.05485,2.24093 0.261088,2.24093 0.216498,0 1.384804,2.93762 1.384804,3.48215 0,0.0915 0.21579,0.56083 0.479532,1.04285 0.377167,0.68939 0.577208,0.85039 0.937123,0.75447 0.339565,-0.0905 0.639229,0.10669 1.161494,0.76443 l 0.703727,0.88638 0.537571,-0.82041 c 0.603131,-0.92059 0.814674,-0.92322 2.581511,-0.0327 0.553144,0.2789 1.885658,0.62909 2.961156,0.77816 1.075407,0.1491 2.583723,0.52878 3.351682,0.84379 l 1.396483,0.5727 0.305856,-0.53484 c 0.168277,-0.2942 0.541553,-0.61204 0.829537,-0.70635 0.702488,-0.23006 2.36404,0.27436 2.92311,0.88737 0.612335,0.67143 0.782471,0.62583 1.006489,-0.26982 0.212957,-0.85156 0.758933,-1.04579 0.758933,-0.26996 0,0.7451 0.181108,0.78589 1.631295,0.36748 0.733013,-0.21151 1.378522,-0.32065 1.434526,-0.2426 0.05574,0.0781 -0.0345,0.35246 -0.201811,0.60975 -0.819627,1.26253 0.197475,1.47735 1.0463,0.22105 z"
       id="path3413" />
    <path
       style="opacity:0.930349;fill:#000000;stroke-width:0.215928"
       d="m 63.108,226.31622 c -0.04601,-0.0644 -0.697711,-0.18219 -1.447887,-0.26176 -1.871148,-0.19848 -2.231329,-0.33245 -2.579211,-0.95913 L 58.78,224.55312 l -1.440719,0.4587 c -1.019315,0.32452 -1.73357,0.40625 -2.442253,0.27939 -0.550842,-0.0987 -1.577678,-0.15507 -2.281758,-0.12544 -2.56824,0.10804 -3.498284,0.0878 -4.663494,-0.10163 -1.790637,-0.29111 -1.977495,-0.37335 -2.103306,-0.92595 -0.14209,-0.62424 -0.443346,-0.64291 -1.157159,-0.0718 -0.51908,0.4153 -0.615252,0.41328 -1.889374,-0.0396 -1.717115,-0.61036 -2.158868,-1.05555 -2.855605,-2.8777 -1.304115,-3.411 -1.980149,-8.56944 -1.821603,-13.90016 0.219417,-7.37699 1.299514,-9.10545 5.699708,-9.12119 3.947647,-0.0141 6.637008,-0.71949 7.861231,-2.06189 0.391146,-0.42893 0.472365,-0.72924 0.472365,-1.74638 0,-0.67929 0.161732,-1.72514 0.361773,-2.33972 0.438568,-1.34728 0.459891,-2.69549 0.0867,-5.47132 -0.155627,-1.15785 -0.258523,-2.88377 -0.228618,-3.83536 0.05132,-1.63364 0.08494,-1.75199 0.603042,-2.1213 0.301787,-0.21509 0.583225,-0.42012 0.625427,-0.45556 0.04247,-0.0355 -0.114486,-0.63343 -0.348059,-1.32884 -0.7285,-2.16822 -0.454671,-3.47542 0.894832,-4.27112 0.39504,-0.2329 2.091628,-0.4983 4.629254,-0.72412 4.034885,-0.35909 4.733656,-0.51308 6.494386,-1.43148 0.638787,-0.33314 0.962427,-0.64642 0.961189,-0.93017 0,-0.23531 -0.329392,-1.00147 -0.729562,-1.70257 -0.793615,-1.39023 -0.870146,-1.81416 -0.463075,-2.56446 0.372035,-0.68562 0.34452,-1.48261 -0.08494,-2.46454 -0.312136,-0.71361 -0.365134,-1.28646 -0.365752,-3.94826 0,-3.42134 -0.374779,-5.50552 -1.101332,-6.13648 -0.207031,-0.17984 -1.340214,-0.5013 -2.518253,-0.71439 -2.529752,-0.45762 -3.398573,-0.78111 -3.813252,-1.4198 -0.407338,-0.62746 -0.919604,-0.59568 -1.176269,0.073 -0.194909,0.50763 -0.313555,0.53497 -1.789576,0.41237 -2.31706,-0.19246 -4.114332,-1.33955 -5.025001,-3.20707 l -0.456352,-0.93585 -0.08759,-7.77582 c -0.04778,-4.27672 -0.147133,-8.03398 -0.219947,-8.34948 -0.08847,-0.38386 -0.277191,-0.57362 -0.570307,-0.57362 -0.410611,0 -0.430518,-0.0656 -0.317713,-1.04877 0.116433,-1.01564 0.106435,-1.04304 -0.317889,-0.86687 -0.241004,0.10003 -1.257577,0.6996 -2.258932,1.33229 -1.465935,0.92619 -1.884243,1.0951 -2.146393,0.86686 -0.197387,-0.17185 -1.30385,-0.28351 -2.809068,-0.28351 -1.429218,0 -2.640169,-0.11693 -2.852596,-0.27545 -0.203138,-0.15152 -0.486876,-0.66778 -0.630559,-1.14726 -0.322312,-1.07529 -0.55562,-1.10939 -0.713989,-0.10434 -0.16819,1.06727 -0.55854,1.52703 -1.296684,1.52703 -0.514214,0 -0.816354,-0.25036 -1.632886,-1.3529 -0.93323,-1.26009 -1.325703,-2.47126 -0.800695,-2.47126 0.269848,0 0.131385,-1.72302 -0.307272,-3.82419 -0.536952,-2.57233 -0.493069,-9.52878 0.07874,-12.49231 0.561547,-2.90996 1.48071,-5.51035 2.514181,-7.11269 0.967558,-1.50027 1.635629,-2.06534 2.441721,-2.06534 0.435826,0 0.557744,0.11149 0.557744,0.50988 0,0.67857 0.181373,0.64695 1.463015,-0.25496 0.875014,-0.61572 1.31836,-0.76482 2.274416,-0.76482 1.02135,0 1.216436,-0.0754 1.39427,-0.53851 0.201103,-0.52392 0.221452,-0.51357 0.751238,0.3824 0.647722,1.09552 0.91757,1.13426 1.821072,0.26142 0.788751,-0.76208 1.323491,-0.72844 1.407099,0.0884 0.07078,0.68895 0.204553,0.69442 1.496017,0.0612 0.793351,-0.38902 1.512649,-0.49501 3.404324,-0.50157 2.116223,-0.007 2.453311,-0.0683 2.863568,-0.51822 0.391941,-0.4298 0.741946,-0.50989 2.22832,-0.50989 1.227141,0 1.928303,-0.11889 2.305912,-0.3911 0.418221,-0.30153 0.69895,-0.33439 1.225374,-0.14349 0.375485,0.13622 1.459652,0.32872 2.409072,0.42778 1.459477,0.15231 1.791523,0.27119 2.148871,0.76927 0.524566,0.73124 0.540758,1.7052 0.05662,3.41667 -0.452105,1.59892 -0.457679,1.49359 0.09476,1.78637 0.253303,0.13421 0.546684,0.56015 0.652057,0.94649 0.105373,0.38634 0.299222,3.29153 0.430782,6.45598 0.261709,6.29496 0.367525,6.884 1.425768,7.93615 0.524566,0.52157 0.808216,0.59372 2.33449,0.59372 1.381443,0 1.88973,-0.10632 2.48127,-0.51867 l 0.743892,-0.51863 0.993484,0.57048 c 1.278191,0.73402 1.815497,0.7319 2.874094,-0.0111 1.67217,-1.17407 4.300661,-1.5717 4.843895,-0.73281 0.436887,0.67463 0.653032,2.30742 0.941014,7.10982 0.197742,3.29859 0.35505,4.6539 0.641707,5.5311 0.208799,0.63902 0.379645,1.66941 0.379645,2.28973 0,3.0009 0.92801,7.80256 1.693579,8.76302 0.603929,0.75773 0.881471,0.84574 3.884299,1.23183 1.508846,0.19399 3.103427,0.53044 3.5435,0.74768 1.146099,0.56566 1.701091,0.49703 3.249936,-0.40181 1.673142,-0.97096 2.07349,-0.83325 2.421726,0.83288 0.147044,0.70341 0.472091,1.39807 0.885798,1.89298 0.573324,0.68588 0.662241,0.95177 0.724695,2.16703 0.08759,1.70873 -0.217028,2.62875 -0.908536,2.74062 -0.57013,0.0923 -0.626144,0.49337 -0.221107,1.58508 0.152627,0.41146 0.371947,1.95455 0.487495,3.42911 0.259505,3.31359 -0.01504,7.61263 -0.583048,9.111 -0.200651,0.52986 -0.536058,1.45096 -0.745212,2.04691 -0.209154,0.59594 -0.442638,1.25164 -0.518912,1.45713 -0.07609,0.2055 -0.494033,0.63572 -0.928532,0.95605 -1.006672,0.74207 -2.441376,0.76602 -4.67385,0.0781 -3.040519,-0.93699 -3.952601,-0.63083 -4.731354,1.58822 -1.024713,2.91961 -1.345522,8.76323 -0.65427,11.91834 0.199688,0.91145 0.489529,3.08034 0.644093,4.81977 0.154657,1.73944 0.448214,4.23749 0.652324,5.55124 0.388935,2.50213 0.356289,3.05326 -0.252064,4.25677 -0.56889,1.12544 -1.650494,1.63279 -5.004651,2.34756 -1.694378,0.36109 -3.448828,0.88168 -3.898721,1.15691 -0.449893,0.27519 -1.026039,0.46684 -1.280228,0.42586 -0.394329,-0.0636 -0.469797,0.0377 -0.514389,0.69028 -0.02831,0.42067 -0.178896,1.62528 -0.333638,2.67692 -0.154831,1.05166 -0.435738,2.95528 -0.624277,4.23025 -0.188538,1.27496 -0.434322,3.85631 -0.546154,5.73627 -0.169693,2.85052 -0.286037,3.65088 -0.700894,4.81973 -0.667896,1.88186 -1.396837,2.42708 -3.724957,2.78612 -1.743567,0.26882 -7.500697,0.3866 -7.665524,0.15676 z m 5.417298,-5.01439 c 0.907659,-1.40045 1.357819,-2.89597 1.544765,-5.13148 0.08494,-1.01583 0.25047,-2.18837 0.367878,-2.60562 0.117493,-0.41727 0.494042,-2.3933 0.836968,-4.39119 0.675415,-3.93567 1.203697,-5.6612 2.206909,-7.20928 0.678867,-1.04749 1.9383,-2.04531 2.581511,-2.04531 0.209508,0 0.82883,-0.32847 1.37631,-0.72994 0.889878,-0.65252 1.015246,-0.68633 1.182109,-0.31869 0.230478,0.50761 2.118435,0.52999 2.805353,0.0333 0.892,-0.64501 1.089298,-1.05651 1.090536,-2.27468 0,-0.73996 0.135102,-1.45322 0.364606,-1.93632 0.246134,-0.51811 0.363718,-1.19661 0.364603,-2.10329 0,-1.16793 0.04778,-1.33847 0.366904,-1.33847 0.530316,0 0.451837,-0.59669 -0.260205,-1.97838 -0.764155,-1.48264 -1.014272,-2.91643 -1.656598,-9.49414 -0.267104,-2.73428 -0.644536,-6.33384 -0.838827,-7.999 -0.194379,-1.66517 -0.353367,-3.17491 -0.353367,-3.355 0,-0.40361 2.16453,-0.95044 3.310011,-0.83619 0.760438,0.0759 0.808037,0.12602 0.862184,0.90886 0.05574,0.80789 0.430341,1.12359 0.675946,0.56974 0.06282,-0.14234 0.407161,-0.42916 0.764595,-0.63736 0.5105,-0.29731 1.557596,-0.37936 4.879639,-0.38229 3.016537,-0.004 4.360828,-0.0953 4.686848,-0.32287 0.98942,-0.69054 1.640849,-6.30575 0.997374,-8.59648 -0.177215,-0.63099 -0.334523,-1.72087 -0.349466,-2.42199 -0.05308,-2.50462 -0.844401,-3.33607 -2.961253,-3.11289 l -1.325609,0.13976 -0.380883,-0.89985 c -0.4345,-1.0267 -0.527131,-1.02595 -2.303967,0.018 -1.566266,0.92025 -4.093631,1.46418 -7.044257,1.51603 -3.052193,0.0537 -3.093159,0.0196 -3.629403,-3.01921 -0.451397,-2.55829 -0.663736,-5.67843 -0.945263,-13.89016 -0.122537,-3.57564 -0.270995,-6.55849 -0.32992,-6.62858 -0.05928,-0.0702 -0.106968,-0.80458 -0.106968,-1.63215 0,-1.39564 -0.03185,-1.51143 -0.442372,-1.59836 -0.243215,-0.0516 -0.903414,0.12873 -1.466995,0.40064 -1.354635,0.65353 -3.996839,1.04523 -7.050539,1.04523 -2.86932,0 -3.558269,-0.26844 -4.038334,-1.5733 -0.171728,-0.46678 -0.500323,-1.16301 -0.730358,-1.54723 -0.229945,-0.38419 -0.51209,-1.35936 -0.62693,-2.16703 -0.114839,-0.80767 -0.418043,-2.0797 -0.673822,-2.82677 l -0.465023,-1.35825 0.386193,-0.37707 c 0.462633,-0.45171 0.49475,-1.33988 0.122094,-3.37071 -0.145276,-0.79144 -0.39256,-2.52889 -0.549603,-3.86096 -0.156955,-1.33212 -0.32886,-2.78667 -0.381858,-3.2324 l -0.09635,-0.81044 -1.960153,0.11002 c -1.078061,0.0606 -5.540011,0.22504 -9.915433,0.36556 -10.311975,0.33112 -11.172302,0.41277 -11.295901,1.07186 -0.05485,0.29111 -0.435649,0.70866 -0.899963,0.98607 -0.706647,0.42227 -0.876695,0.69241 -1.389051,2.20623 -0.531997,1.57195 -0.589683,1.98839 -0.650553,4.69326 -0.09989,4.43989 0.389996,6.33818 2.001471,7.75632 l 0.705143,0.62051 h 6.849789 c 6.724686,0 7.67039,0.0997 8.010133,0.84451 0.07609,0.1665 0.139347,0.81355 0.140851,1.43784 0,0.91993 0.109709,1.28898 0.566945,1.9466 l 0.564203,0.81148 -0.321517,0.8578 c -0.403356,1.07604 -0.793617,5.5276 -0.926152,10.5648 -0.100861,3.83124 -0.09971,3.84554 0.359119,4.58901 l 0.460244,0.74576 h 3.993477 c 4.156446,0 5.945845,-0.30573 6.249578,-1.06233 0.140762,-0.35077 0.216144,-0.34894 0.72443,0.0173 0.748228,0.53933 1.598912,0.50881 2.547447,-0.0914 0.425209,-0.2691 0.808834,-0.40867 0.852541,-0.31012 0.04335,0.0985 0.17173,2.41494 0.284535,5.14759 0.321427,7.78451 0.612686,10.92227 1.18724,12.7885 0.09024,0.29307 0.01239,0.51533 -0.248614,0.71005 -0.487673,0.36385 -0.486875,1.12835 0,4.00583 0.429722,2.5178 0.425298,6.77856 -0.0088,8.0254 -0.272765,0.78427 -1.155741,1.38972 -2.54957,1.74805 -1.671196,0.42968 -2.467997,0.33051 -3.014239,-0.3752 -0.830599,-1.07315 -2.500292,-1.4115 -2.881972,-0.58397 -0.07255,0.15664 -0.361417,0.12401 -0.782557,-0.0883 -0.588179,-0.29644 -0.741416,-0.28169 -1.281024,0.12339 -1.059835,0.79572 -1.448947,1.80669 -1.580508,4.1066 -0.06459,1.12321 -0.222958,2.42764 -0.352748,2.89866 -0.236316,0.85773 -0.224461,2.01782 0.111124,10.90584 0.06459,1.70176 0.06193,3.50531 -0.0088,4.00789 -0.178718,1.32823 -0.873155,2.34537 -1.830717,2.68148 -0.520319,0.18265 -0.852628,0.45935 -0.923054,0.76848 -0.156777,0.68886 -0.489176,0.76369 -4.669865,1.05165 -2.062076,0.14201 -4.189093,0.3818 -4.726842,0.53289 -0.923232,0.25936 -0.999497,0.34097 -1.365958,1.46248 -0.311165,0.95219 -0.396632,1.76329 -0.430872,4.08888 -0.03981,2.72404 -0.01593,2.95045 0.400348,3.71072 0.243659,0.44535 0.621268,1.37701 0.839181,2.0704 0.635159,2.02108 1.030021,2.6629 1.638372,2.6629 0.354518,0 0.773356,0.29937 1.238467,0.8851 l 0.702753,0.88511 0.520762,-0.75764 c 0.59039,-0.85907 0.980917,-0.92571 2.120912,-0.36181 0.440161,0.21773 1.870087,0.62483 3.177741,0.90468 2.77474,0.59389 3.004154,0.65827 4.175645,1.1716 0.880322,0.38573 0.885895,0.38448 1.409222,-0.31442 0.482011,-0.64386 0.609767,-0.68953 1.549278,-0.55436 0.56323,0.081 1.312256,0.3844 1.664563,0.67418 0.836614,0.68811 1.131145,0.66462 1.384448,-0.11051 0.25472,-0.7793 0.51563,-0.81855 0.650819,-0.0979 0.107498,0.5733 0.09387,0.5729 2.333518,0.0687 0.60428,-0.13605 0.691693,-0.1057 0.502889,0.17446 -0.390437,0.57917 -0.278606,1.25692 0.207295,1.25692 0.278783,0 0.681786,-0.37939 1.117967,-1.05231 z"
       id="path3415" />
    <path
       style="opacity:0.930349;fill:#000000;stroke-width:0.215928"
       d="m 114.33345,225.42769 c -0.55571,-0.10435 -1.19477,-0.32727 -1.42019,-0.49542 -0.64339,-0.48008 -3.78345,-0.77557 -8.34068,-0.78491 l -4.18741,-0.009 0.10431,-3.63296 c 0.11156,-3.88676 0.3208,-5.17734 0.87908,-5.42437 0.48147,-0.21303 0.43937,-0.59617 -0.0968,-0.88034 -0.59772,-0.3168 -0.7468,-1.40018 -0.71991,-5.2316 0.023,-3.27318 0.22358,-4.43195 0.80371,-4.64341 0.45962,-0.16756 0.46165,-0.45819 0.009,-0.90278 -0.19642,-0.19183 -0.44335,-0.66471 -0.54864,-1.05086 -0.2157,-0.79085 -0.24914,-3.71999 -0.0752,-6.58788 l 0.11626,-1.91676 4.68446,-0.15299 c 2.57638,-0.0841 5.12312,-0.26596 5.65928,-0.40406 2.50126,-0.64428 3.9817,-1.62813 3.59719,-2.39062 -0.10059,-0.19946 -0.32019,-0.63686 -0.48793,-0.97206 -0.75673,-1.51211 -1.33721,-16.23921 -0.72036,-18.27777 0.51855,-1.71363 2.58434,-2.43768 8.22167,-2.88175 3.05768,-0.24083 3.64586,-0.3527 3.94331,-0.74985 0.29029,-0.38767 0.3716,-0.99859 0.47954,-3.60537 0.13421,-3.23842 0.2932,-4.18993 0.79777,-4.77369 0.42733,-0.49444 0.36301,-0.87422 -0.2564,-1.51255 l -0.54969,-0.56663 0.43335,-1.13502 c 0.56854,-1.48874 0.45821,-2.12398 -0.63905,-3.67787 -0.65215,-0.92361 -1.15672,-1.37917 -1.84143,-1.66261 -1.21546,-0.50318 -1.18131,-0.50588 -3.43714,0.27369 -3.03981,1.05049 -6.76937,0.84582 -7.93794,-0.43565 -0.2541,-0.27865 -0.55562,-0.93165 -0.67011,-1.4511 -0.13103,-0.59481 -0.25392,-4.79013 -0.33213,-11.33242 -0.10821,-9.06095 -0.16164,-10.44045 -0.41866,-10.79872 -0.21915,-0.30548 -0.99755,-0.49563 -3.03751,-0.74195 -1.50849,-0.18218 -2.91099,-0.45669 -3.11652,-0.61007 -0.51775,-0.38631 -1.02692,-0.34996 -2.17683,0.15534 -1.02064,0.4485 -1.12212,0.40764 -1.39612,-0.56171 -0.0407,-0.14399 -0.39602,-0.005 -0.81645,0.31869 -0.40946,0.31549 -1.057269,0.57319 -1.439744,0.57268 -0.769287,0 -1.755867,-0.71852 -2.05323,-1.49316 -0.324259,-0.84455 -0.954729,-15.08736 -0.866696,-19.57945 0.04335,-2.2212 0.138993,-4.47121 0.212162,-5 0.08759,-0.631373 0.02212,-1.619579 -0.190752,-2.878579 -0.254364,-1.506122 -0.276129,-1.98324 -0.101126,-2.225376 0.168632,-0.233391 1.903884,-0.286291 7.146356,-0.217801 4.92786,0.06438 7.10937,0.0049 7.56776,-0.205813 0.69559,-0.320061 0.98127,-0.177878 2.28344,1.136442 0.58959,0.595201 0.62808,0.601565 1.08948,0.180369 0.41193,-0.376068 0.9948,-0.436602 4.20422,-0.436602 3.33965,0 3.75026,0.04637 3.9603,0.446814 0.17615,0.335983 0.37885,0.406507 0.81724,0.284268 0.45599,-0.127136 0.66223,-0.04403 0.94676,0.381766 0.44583,0.667058 0.45963,0.667218 1.98573,0.02084 l 1.23581,-0.523271 1.43364,0.523493 c 0.78857,0.287894 1.49903,0.666799 1.57874,0.841938 0.26348,0.578352 0.1566,2.636812 -0.21508,4.142662 -0.48856,1.97968 -0.47414,2.20213 0.13713,2.11295 0.4821,-0.0703 0.50537,-0.0206 0.56146,1.20132 0.0354,0.7629 -0.10546,2.12703 -0.34974,3.39732 -0.37592,1.95439 -0.38893,2.24727 -0.16447,3.69671 0.36584,2.36135 0.32921,3.50057 -0.14227,4.42356 -0.57429,1.12434 -0.52642,1.45574 0.14077,0.97476 0.51607,-0.37206 0.54863,-0.36698 0.54863,0.0861 0,0.26491 -0.077,1.04898 -0.17147,1.74241 -0.2257,1.6587 0.0177,3.10887 0.6502,3.86906 0.44335,0.53309 0.61968,0.5821 1.6098,0.44745 0.86961,-0.11828 1.3311,-0.0369 2.11781,0.37354 1.71942,0.89698 1.8654,0.91186 1.73304,0.17673 -0.15571,-0.86475 0,-0.91797 3.18217,-1.11841 2.62026,-0.16482 2.7374,-0.15043 3.47448,0.42701 0.95411,0.74757 1.58759,2.45054 1.84452,4.95872 0.24764,2.41745 0.23782,8.96069 -0.0168,11.50519 -0.19022,1.8976 -0.17341,2.22958 0.19933,3.94067 0.43662,2.00376 1.5115,5.1795 1.85257,5.47336 0.11431,0.0985 0.27799,0.0208 0.36363,-0.17223 0.1159,-0.26143 0.8337,-0.38586 2.80518,-0.48627 2.49976,-0.12733 2.67662,-0.17058 3.13031,-0.76485 0.42513,-0.55688 0.64348,-0.62992 1.88363,-0.62992 1.73445,0 2.75103,0.62498 4.0816,2.50938 1.06744,1.5118 2.33873,4.97214 2.79853,7.61757 0.43875,2.52467 0.64967,6.6242 0.45998,8.94231 -0.17872,2.18484 -0.83068,4.35929 -2.19381,7.31759 -2.03173,4.40905 -2.80341,4.71803 -8.95575,3.58591 -3.53235,-0.64998 -4.06399,-0.57159 -4.39666,0.6481 -0.11422,0.41881 -0.16491,4.11182 -0.13386,9.75622 0.0442,8.0655 0.015,9.18835 -0.25808,10.0293 -0.19261,0.59205 -0.46679,0.99572 -0.73159,1.07705 -0.23287,0.0715 -1.7403,0.16271 -3.34965,0.20262 l -2.92612,0.0725 -1.02135,1.02214 c -0.56181,0.56213 -1.73569,1.46581 -2.60885,2.00813 -1.76542,1.09664 -1.94237,1.44581 -1.58016,3.11779 0.13325,0.61507 0.25092,4.07515 0.31294,9.20117 0.11316,9.35909 0.14545,9.12328 -1.38171,10.09258 -0.71611,0.45458 -1.20582,0.54248 -3.04777,0.54722 -1.20706,0.004 -2.77819,-0.0342 -3.49156,-0.0829 -0.85643,-0.0585 -1.42789,0.0254 -1.6827,0.24733 -0.31992,0.27852 -0.5826,0.27627 -1.53777,-0.0131 -1.95795,-0.5932 -3.05822,-0.6955 -4.13991,-0.3849 -1.42249,0.4085 -4.48114,0.61549 -5.70342,0.38601 z m 9.14861,-4.427 c 0,-0.18353 0.11698,-0.5564 0.26004,-0.82857 0.23233,-0.44226 0.49342,-0.49489 2.45489,-0.49489 1.93628,0 2.25584,-0.0625 2.71184,-0.53074 0.67861,-0.69676 1.51309,-2.82195 1.5185,-3.86709 0,-0.77542 -0.0363,-0.82855 -0.62508,-0.82855 -1.07541,0 -0.99835,-0.93412 0.10271,-1.24546 0.53776,-0.15204 0.62578,-0.28637 0.67746,-1.03431 0.0327,-0.47275 -0.0814,-1.90279 -0.25383,-3.17784 -0.38142,-2.82246 -0.38062,-5.55415 0,-9.37236 0.45785,-4.5587 0.64622,-5.35827 1.38861,-5.89456 1.07523,-0.77679 2.81172,-0.20193 4.08026,1.35071 0.37319,0.45687 0.72753,0.76243 0.78742,0.67902 0.0602,-0.0834 0.0115,-0.69038 -0.10749,-1.34882 -0.27851,-1.54199 -0.18995,-1.61748 1.90662,-1.62426 2.09412,-0.007 2.85004,-0.30647 3.5412,-1.40391 0.99569,-1.58088 1.23891,-3.70702 1.47266,-12.87552 0.0947,-3.71582 0.22809,-6.95679 0.29631,-7.20219 0.15987,-0.5751 1.18511,-0.59118 2.70413,-0.0424 1.12734,0.40722 1.90857,0.38158 3.41592,-0.11211 0.45262,-0.14826 1.98448,-0.37901 3.40422,-0.51277 2.96311,-0.27921 3.63959,-0.62 4.7303,-2.38325 1.40728,-2.27488 1.76295,-4.16124 0.78097,-4.14161 -0.59455,0.0123 -0.59039,0.0307 -0.18288,-0.83646 0.23773,-0.50584 0.3201,-1.20843 0.32019,-2.73167 2.3e-4,-1.71768 0.0672,-2.18133 0.4115,-2.85494 0.55659,-1.08834 0.53738,-1.43197 -0.0593,-1.05317 -0.50802,0.32268 -0.80123,0.0123 -0.80707,-0.8556 0,-0.25076 -0.31435,-0.59693 -0.78008,-0.86363 -0.61896,-0.35456 -1.59626,-0.47967 -4.80063,-0.6147 -4.06434,-0.17127 -4.64615,-0.31201 -5.1387,-1.24313 -0.25037,-0.47347 -0.62205,-0.18457 -0.62205,0.48352 0,0.28466 -0.19474,0.62401 -0.45185,0.78727 -1.04152,0.66155 -3.22666,-1.36572 -3.93048,-3.6464 -0.34734,-1.12572 -0.43698,-2.06173 -0.58056,-6.06605 -0.0933,-2.60419 -0.291,-5.88217 -0.43929,-7.28439 -0.24251,-2.29376 -1.04895,-6.37624 -1.34145,-6.79073 -0.0628,-0.0892 -2.62451,-0.28795 -5.69236,-0.44172 -5.84092,-0.29271 -6.96623,-0.4921 -7.62164,-1.35028 -0.76743,-1.00484 -0.85626,-2.45364 -0.86971,-14.1931 l -0.0124,-11.04841 -0.50581,-0.60664 c -0.97162,-1.16519 -2.69458,-1.40769 -2.69458,-0.37923 0,0.25598 -0.10289,0.51988 -0.22862,0.58642 -0.12572,0.0666 -1.92609,0.0439 -4.0009,-0.0503 -2.91648,-0.13243 -3.87068,-0.25986 -4.20626,-0.56171 -0.72921,-0.65602 -1.23705,-0.71749 -3.74681,-0.45376 -2.96753,0.31184 -5.05199,0.0291 -5.57708,-0.75662 -0.38009,-0.56884 -0.84529,-0.53842 -2.26318,0.14805 -0.65728,0.31817 -0.75159,0.30949 -0.96013,-0.0882 -0.12723,-0.24253 -0.23136,-0.53378 -0.23136,-0.64717 0,-0.11347 -0.11387,-0.20625 -0.25295,-0.20625 -0.35726,0 -0.45777,0.68262 -0.67541,4.58902 -0.25437,4.56366 -0.0664,9.84628 0.42034,11.82189 0.25374,1.02951 0.33585,1.83248 0.26303,2.57266 -0.0655,0.66604 -0.0248,1.18859 0.10617,1.37153 0.14147,0.19717 1.10487,0.29549 2.8956,0.29549 1.96794,0 2.8971,0.10607 3.48395,0.39783 0.44016,0.21884 1.78781,0.55346 2.99486,0.74361 1.20697,0.19019 2.44146,0.47529 2.74316,0.6336 0.88191,0.46261 2.2853,1.88701 2.28565,2.31989 2.3e-4,0.219 -0.25171,0.658 -0.55978,0.97559 l -0.56022,0.57737 0.46874,0.60564 c 0.25781,0.33312 0.47829,0.6398 0.48988,0.68153 0.0115,0.0418 0.0743,3.82908 0.13979,8.41626 0.0805,5.67559 0.18491,8.43276 0.32612,8.62963 0.12059,0.16806 1.38418,0.38492 3.01495,0.51743 3.2095,0.26084 4.41214,0.55303 5.80181,1.40978 1.34861,0.83145 1.48601,0.80123 1.35799,-0.29856 l -0.10537,-0.90472 0.97092,0.51427 c 1.27253,0.67406 2.12586,1.85638 2.49383,3.45524 0.58606,2.54659 0.50457,23.74169 -0.0973,25.30948 -0.357,0.9299 -1.30633,1.18071 -2.62469,0.69345 -1.58971,-0.58756 -4.13742,-0.74998 -6.09094,-0.38831 -2.50932,0.4646 -2.5386,0.49808 -2.64787,3.0307 -0.0717,1.66638 -0.15987,2.1729 -0.41149,2.36869 -0.41362,0.32193 -0.40336,0.59719 0.0548,1.46046 0.59482,1.12163 0.95057,4.85472 0.97543,10.23584 0.023,5.08967 -0.0885,6.39943 -0.60737,7.1231 -0.32391,0.45147 -0.36558,0.45141 -1.33013,-0.004 -2.16046,-1.01677 -8.67042,-0.86729 -10.46663,0.24031 -1.45036,0.89434 -2.1133,2.948 -2.1133,6.54621 0,1.30467 0.0761,1.74998 0.36575,2.15447 0.44237,0.61666 0.45025,0.91871 0.0717,2.73602 -0.37858,1.81576 -0.27497,4.1498 0.22676,5.10698 0.77354,1.47566 1.37171,1.65807 6.08962,1.85684 4.42974,0.18664 4.69632,0.23913 5.5332,1.08967 0.37531,0.38146 0.93411,0.5397 2.37749,0.67313 1.32039,0.1221 2.13383,0.33461 2.7098,0.70806 0.95384,0.61854 1.64589,0.72065 1.64589,0.2429 z"
       id="path3417" />
    <path
       style="opacity:0.930349;fill:#000000;stroke-width:0.215928"
       d="m 113.14922,224.87901 c -1.15221,-0.48714 -1.85142,-0.55388 -6.99525,-0.66743 -5.1493,-0.11371 -5.7144,-0.16769 -5.70864,-0.54565 0,-0.23072 0.0814,-1.93581 0.17324,-3.78915 0.16278,-3.28849 0.34894,-4.32261 0.85288,-4.7375 0.36337,-0.29918 0.3017,-0.88507 -0.11244,-1.06834 -0.51334,-0.22712 -0.73576,-1.62221 -0.73187,-4.59153 0,-3.04851 0.20978,-4.4668 0.71647,-4.9388 0.4852,-0.45201 0.47316,-0.6895 -0.0814,-1.60882 -0.44255,-0.7332 -0.45706,-0.87727 -0.45441,-4.49833 0,-2.05748 0.0708,-3.8906 0.15421,-4.07361 0.11369,-0.24993 1.36384,-0.39113 5.02483,-0.56755 4.98926,-0.24037 6.49872,-0.52212 8.10524,-1.51279 0.89023,-0.54893 0.97251,-0.94127 0.45007,-2.14585 -0.1896,-0.43722 -0.43476,-1.54065 -0.54482,-2.45208 -0.34842,-2.88613 -0.61835,-9.10343 -0.54253,-12.49723 0.0628,-2.8087 0.12439,-3.35418 0.4322,-3.82838 0.89695,-1.38175 2.42031,-1.86129 7.64898,-2.40783 2.09791,-0.21932 3.96668,-0.51231 4.15273,-0.65112 0.38124,-0.28447 0.45194,-0.75627 0.70222,-4.68699 0.13653,-2.14431 0.26393,-2.94705 0.55465,-3.49518 0.48715,-0.91856 0.47547,-1.19887 -0.0832,-2.01241 l -0.46104,-0.67073 0.38513,-1.21377 c 0.48564,-1.53038 0.30967,-2.24883 -0.93172,-3.80481 -1.41931,-1.77888 -2.5578,-2.04508 -5.14647,-1.20327 -2.93843,0.95559 -6.05822,0.90256 -7.48673,-0.12724 -1.06815,-0.77001 -1.10018,-1.06404 -1.28783,-11.81637 -0.0945,-5.41184 -0.22986,-10.34869 -0.30073,-10.97084 -0.15395,-1.35028 -0.10475,-1.32476 -3.69514,-1.91754 -1.35791,-0.22418 -2.75696,-0.46697 -3.109,-0.53955 -0.35204,-0.0725 -1.11619,0.005 -1.698,0.17145 -0.96986,0.27817 -1.07895,0.26325 -1.3111,-0.17938 -0.23101,-0.44042 -0.30675,-0.45148 -0.86237,-0.12583 -1.795676,1.05231 -3.413168,0.326 -3.647714,-1.63795 -0.354429,-2.96817 -0.594638,-9.61724 -0.626046,-17.33019 -0.01946,-4.76745 -0.09653,-9.253768 -0.171366,-9.969544 l -0.136083,-1.301406 0.70585,-0.15448 c 0.388235,-0.08498 3.935609,-0.171328 7.882999,-0.191913 l 7.17724,-0.03749 0.93499,0.836449 c 0.84971,0.760054 0.97084,0.803296 1.32686,0.473566 0.29727,-0.275289 1.26598,-0.382913 4.0147,-0.445926 3.05936,-0.07018 3.69125,-0.0206 4.06267,0.318692 0.24189,0.220958 0.72072,0.401746 1.06391,0.401746 0.34681,0 0.73115,0.179703 0.86492,0.404448 0.27074,0.454745 0.99189,0.406149 2.41067,-0.162349 0.76964,-0.308381 1.01074,-0.295813 2.10313,0.109524 0.67868,0.251829 1.33677,0.576589 1.46249,0.721683 0.31531,0.36382 0.28869,2.70406 -0.046,4.02553 -0.41865,1.6542 -0.3676,2.29449 0.18289,2.29449 0.42936,0 0.45741,0.0816 0.45961,1.33849 0,0.73612 -0.13696,2.16871 -0.30727,3.1835 -0.27383,1.63247 -0.28214,2.12267 -0.0726,4.25512 0.22633,2.29766 0.21934,2.46209 -0.14996,3.52553 -0.57305,1.65016 -0.52713,1.97806 0.20076,1.43501 0.3737,-0.27882 0.37867,-0.25114 0.25603,1.41756 -0.15712,2.13787 -0.009,3.26204 0.53802,4.08488 0.38132,0.57366 0.57341,0.64565 1.72268,0.64565 0.82459,0 1.67067,0.1848 2.33414,0.5099 1.34402,0.65853 1.65394,0.64737 1.7264,-0.062 0.0779,-0.75768 0.58473,-0.89017 3.55191,-0.92751 2.21071,-0.0277 2.44394,0.0147 3.01477,0.55098 0.34018,0.31965 0.79839,1.02808 1.01817,1.57426 0.72204,1.79432 0.85722,3.76988 0.74717,10.91801 -0.0984,6.38876 -0.0885,6.66161 0.31257,8.3025 0.22791,0.93314 0.67825,2.42511 1.00091,3.31547 0.51369,1.41775 0.63622,1.59687 0.98623,1.44208 0.65082,-0.28778 1.19759,-0.38039 3.51625,-0.59568 1.87928,-0.17445 2.28636,-0.29117 2.77606,-0.79588 0.51059,-0.52621 0.72161,-0.57803 1.91265,-0.46962 1.61793,0.14728 2.47728,0.71411 3.6578,2.41265 2.10189,3.02449 3.44926,8.69811 3.4391,14.48204 -0.009,3.15806 -1.03878,6.90894 -2.84579,10.33067 -1.61112,3.05099 -2.4979,3.36002 -7.4047,2.58036 -4.00941,-0.63711 -4.5583,-0.65652 -5.02827,-0.17799 -0.3378,0.34405 -0.35939,0.83375 -0.44644,10.13408 -0.11167,11.93728 0.0168,11.27295 -2.23063,11.51685 -0.83511,0.0906 -2.32635,0.16544 -3.31373,0.16629 -1.66376,0 -1.84231,0.0514 -2.43676,0.6836 -0.35284,0.37514 -1.52009,1.32163 -2.5939,2.10329 l -1.95237,1.42124 0.0407,1.2747 c 0.0221,0.70112 0.0926,5.11802 0.15616,9.81542 0.11502,8.49702 0.11359,8.54424 -0.28117,9.23952 -0.66816,1.17668 -1.77595,1.43279 -6.49934,1.50258 -2.55364,0.0377 -4.78117,-0.0571 -5.66937,-0.24132 -1.0462,-0.21696 -1.77568,-0.22949 -2.56036,-0.044 -0.60348,0.1427 -2.12604,0.31641 -3.38327,0.38606 -1.97528,0.1094 -2.46003,0.053 -3.56624,-0.41471 z m 10.50617,-4.14723 c 0.22569,-0.82742 0.50227,-0.92708 2.57293,-0.92708 0.99109,0 2.00519,-0.10767 2.25353,-0.23932 0.97012,-0.51417 1.95627,-2.67406 1.91522,-4.19477 -0.0221,-0.82255 -0.0841,-0.92778 -0.63517,-1.0718 -0.8068,-0.21099 -0.77008,-0.44807 0.1475,-0.9505 l 0.75786,-0.41505 -0.11325,-1.98187 c -0.0619,-1.09004 -0.19968,-2.8423 -0.30541,-3.89397 -0.26258,-2.61335 0.15421,-9.1002 0.74929,-11.65974 0.54837,-2.35907 2.6115,-2.45634 4.72702,-0.22284 0.34647,0.36574 0.70683,0.66498 0.80087,0.66498 0.0994,0 0.11998,-0.53501 0.0496,-1.2791 -0.0893,-0.93726 -0.0584,-1.30944 0.11361,-1.39246 0.12934,-0.0623 1.14971,-0.21328 2.26733,-0.33546 3.75743,-0.41075 4.09806,-1.37829 4.46079,-12.67212 0.10361,-3.22505 0.23588,-6.59542 0.29383,-7.4897 l 0.10556,-1.62593 1.21741,0.15628 c 0.66948,0.086 1.65925,0.23127 2.19939,0.32286 0.54013,0.0916 1.52769,0.0339 2.19461,-0.12824 0.66683,-0.16212 2.37642,-0.45406 3.79891,-0.64868 3.31055,-0.45296 3.96093,-0.83186 5.08632,-2.96305 1.1576,-2.19205 1.35313,-3.5985 0.52324,-3.76402 -0.37717,-0.0752 -0.38346,-0.11963 -0.13528,-0.94785 0.14324,-0.47792 0.26074,-1.647 0.26109,-2.59799 0,-1.27799 0.096,-1.94681 0.36584,-2.5638 0.52661,-1.20423 0.48175,-1.60705 -0.15925,-1.42832 -0.45069,0.12564 -0.54093,0.0538 -0.64278,-0.51162 -0.21959,-1.22005 -0.88093,-1.43667 -5.47585,-1.79386 -3.9849,-0.30977 -5.24443,-0.60003 -5.24443,-1.20867 0,-0.52441 -0.69966,-0.1706 -0.80352,0.40635 -0.34532,1.918 -2.93275,0.39561 -4.00702,-2.35771 -0.44379,-1.1373 -0.53641,-1.75291 -0.68735,-4.56875 -0.48972,-9.13169 -0.71948,-11.33154 -1.5545,-14.88584 l -0.27684,-1.1787 -1.59325,0.0615 c -0.87625,0.0338 -1.38745,-0.0176 -1.13601,-0.11458 0.25144,-0.0969 -1.18874,-0.25907 -3.2004,-0.36039 -4.64394,-0.23394 -6.63089,-0.55016 -7.22385,-1.1497 -0.92846,-0.93868 -0.97429,-1.54644 -1.05604,-14.00163 l -0.0761,-11.5486 -0.71098,-0.65586 c -0.39098,-0.36072 -1.07984,-0.71381 -1.5307,-0.78465 -0.74849,-0.11767 -0.83875,-0.0707 -1.03851,0.54069 -0.21438,0.65582 -0.25463,0.6693 -1.97255,0.66167 -2.83958,-0.0127 -6.2233,-0.42691 -6.54773,-0.80167 -0.22287,-0.2574 -1.23228,-0.33778 -4.24156,-0.33778 -3.93446,0 -4.28943,-0.0653 -5.18099,-0.95187 -0.25631,-0.25494 -0.55473,-0.22899 -1.54946,0.13471 l -1.232,0.45047 -0.30161,-0.55754 c -0.41716,-0.77086 -0.83104,-0.4645 -0.96401,0.71346 -0.0602,0.53658 -0.16219,3.27012 -0.22589,6.0745 -0.0971,4.27411 -0.0646,5.47007 0.20279,7.39343 0.17527,1.26197 0.37009,3.0976 0.43291,4.07913 l 0.11421,1.7846 2.83474,0.19249 c 1.559,0.10583 3.36955,0.36066 4.02338,0.56625 0.65382,0.2056 2.07817,0.54964 3.16517,0.7646 2.0081,0.39707 2.67512,0.72428 3.73858,1.83404 0.74115,0.77334 0.74514,1.10785 0.0221,1.8528 l -0.57207,0.58959 0.57207,0.62409 0.57199,0.62412 0.0115,4.12439 c 0.0133,4.91503 0.25525,12.86634 0.39796,13.06521 0.0557,0.0776 1.5706,0.31512 3.36664,0.52777 2.60955,0.30896 3.58879,0.53618 4.87592,1.13151 0.88589,0.40971 1.72419,0.74494 1.86301,0.74494 0.14536,0 0.27657,-0.32267 0.30957,-0.76142 l 0.0575,-0.76139 0.91438,0.60019 c 1.07116,0.70307 1.59874,1.43695 2.04005,2.83818 0.28135,0.89304 0.32877,2.16047 0.39061,10.44929 0.0708,9.41893 -0.1044,14.61475 -0.51474,15.30399 -0.35717,0.59996 -1.31579,0.69185 -2.78969,0.26746 -2.99044,-0.86112 -8.57938,-0.23718 -8.07463,0.90138 0.0548,0.12434 0.0212,0.22609 -0.0752,0.22609 -0.0963,0 -0.2333,0.80692 -0.30435,1.79313 -0.0708,0.98622 -0.24392,1.95321 -0.38433,2.14884 -0.34054,0.47481 -0.32196,0.86644 0.0957,2.00837 0.59587,1.62943 0.81848,4.3118 0.82847,9.98374 0.01,5.42828 -0.1282,6.78552 -0.72106,7.10264 -0.13192,0.0705 -0.6387,-0.059 -1.12629,-0.28795 -1.32579,-0.62255 -8.3197,-0.61791 -9.77865,0.006 -1.94334,0.83179 -2.72077,2.71127 -2.72077,6.57764 0,1.71418 0.0655,2.29414 0.2901,2.55356 0.21598,0.24991 0.2626,0.59997 0.18235,1.36969 -0.0593,0.56869 -0.15358,2.00917 -0.2096,3.20103 -0.084,1.78453 -0.0433,2.32454 0.22916,3.05934 0.59597,1.60696 1.16052,1.80217 6.28373,2.17269 4.13176,0.29882 4.6166,0.38145 5.20345,0.88705 0.46591,0.40143 1.22227,0.65221 2.70087,0.89552 1.12946,0.18588 2.34165,0.51476 2.69369,0.73082 0.97269,0.59701 1.62325,0.52914 1.81931,-0.18977 z"
       id="path3419" />
    <path
       style="opacity:0.930349;fill:#ffffff;stroke-width:0.305367"
       d="m 113.7778,225.20513 c -1.88926,-0.77935 -3.64017,-0.99231 -8.36886,-1.01783 l -4.87729,-0.0264 0.0949,-4.16936 c 0.089,-3.9066 0.1342,-4.21064 0.71753,-4.82408 0.62122,-0.65321 0.62137,-0.6552 0.0713,-0.89857 -0.715,-0.31635 -0.90594,-1.76333 -0.78948,-5.98242 0.0756,-2.74055 0.17418,-3.37799 0.5873,-3.79893 0.46979,-0.47866 0.47267,-0.54239 0.0536,-1.18791 -0.61567,-0.94839 -0.77359,-2.74173 -0.55848,-6.34156 l 0.18422,-3.08311 3.40368,-0.004 c 5.13965,-0.004 8.95486,-0.73663 10.13617,-1.9461 0.48402,-0.49557 0.48793,-0.57206 0.0792,-1.54223 -0.23654,-0.56143 -0.55266,-2.24911 -0.70245,-3.75039 -0.41006,-4.11003 -0.62474,-12.21809 -0.36663,-13.84647 0.42749,-2.69694 2.19465,-3.51442 8.65564,-4.00414 1.80235,-0.13665 3.42847,-0.3789 3.61364,-0.53845 0.21508,-0.18532 0.40158,-1.52814 0.51649,-3.71866 0.11829,-2.2551 0.3369,-3.7993 0.63876,-4.51164 0.44124,-1.04125 0.44046,-1.11144 -0.0196,-1.8202 -0.4,-0.61614 -0.42935,-0.88768 -0.17887,-1.65405 0.49596,-1.5175 0.34802,-2.34253 -0.67606,-3.77012 -1.43941,-2.00659 -2.4895,-2.29081 -5.2718,-1.42687 -2.55711,0.79405 -4.49112,0.89271 -6.38715,0.32584 -2.19915,-0.65746 -2.21027,-0.70295 -2.4077,-9.83928 -0.0949,-4.39207 -0.18257,-9.31254 -0.19481,-10.93434 -0.0157,-2.09363 -0.13359,-3.10402 -0.40624,-3.48406 -0.23858,-0.33263 -1.14442,-0.61858 -2.39237,-0.75529 -1.10459,-0.121 -2.61907,-0.40425 -3.36552,-0.62945 -1.03963,-0.31367 -1.60479,-0.30604 -2.41577,0.0327 -0.93186,0.38918 -1.09776,0.36757 -1.38522,-0.18043 -0.30525,-0.58194 -0.36658,-0.58354 -0.93935,-0.0242 -0.867626,0.84731 -2.14995,0.75476 -2.950388,-0.21277 -0.654305,-0.79089 -0.681245,-1.00098 -1.074895,-8.38274 -0.261301,-4.89961 -0.352456,-9.63397 -0.258302,-13.41571 0.09457,-3.79838 0.04716,-6.237473 -0.135516,-6.967832 -0.163138,-0.652367 -0.18493,-1.257644 -0.05194,-1.443033 0.125988,-0.175598 3.765041,-0.338926 8.086791,-0.362911 7.65429,-0.04249 7.87717,-0.0235 8.60815,0.729837 0.67762,0.698379 0.84345,0.729348 1.70881,0.319118 2.03833,-0.966296 7.64112,-0.487961 9.42511,0.804665 0.60618,0.43924 1.49905,0.409511 2.5138,-0.08361 0.64608,-0.313961 1.17236,-0.298461 2.26433,0.06674 1.87084,0.62564 2.12905,1.347679 1.53933,4.304546 -0.54447,2.73001 -0.5397,2.88816 0.0872,2.88816 0.42696,0 0.51568,0.23606 0.50807,1.35205 -0.005,0.74361 -0.16189,2.24439 -0.34851,3.33505 -0.25464,1.48816 -0.27454,2.58468 -0.0798,4.39417 0.2206,2.04948 0.19529,2.54782 -0.16876,3.32237 -0.60004,1.27663 -0.56179,1.78265 0.0976,1.29071 0.50998,-0.38048 0.52089,-0.32364 0.36102,1.88021 -0.14455,1.99283 -0.0956,2.39454 0.39812,3.26401 0.49834,0.87766 0.73537,0.99149 2.06441,0.99149 0.8258,0 1.91927,0.24337 2.42994,0.54083 1.19315,0.69498 1.41291,0.68086 1.36899,-0.0879 -0.0407,-0.71277 1.32895,-1.08711 4.17974,-1.14239 3.06017,-0.0593 3.82774,1.30647 4.27415,7.60529 0.19938,2.81319 0.19709,4.9144 -0.008,7.49307 -0.32486,4.0808 -0.18324,5.39383 0.96138,8.91298 0.69281,2.13004 0.82605,2.33613 1.35271,2.09219 0.32131,-0.14881 1.68986,-0.34546 3.04124,-0.43696 1.51188,-0.10237 2.60625,-0.34978 2.84497,-0.64315 0.60893,-0.74835 2.14137,-0.99606 3.35159,-0.54177 3.5667,1.33882 6.18613,9.07033 5.90948,17.4424 -0.0934,2.82598 -0.22886,3.62663 -0.95531,5.64499 -1.13943,3.16582 -2.45852,5.63724 -3.46581,6.49341 -1.0143,0.86216 -2.83711,0.90798 -6.52108,0.16391 -3.38097,-0.68288 -3.65422,-0.67019 -4.27758,0.19881 -0.50711,0.70693 -0.52452,1.08491 -0.45261,9.82491 0.0803,9.75767 -0.0618,11.15807 -1.17492,11.57427 -0.30841,0.11532 -1.81964,0.21188 -3.3583,0.2146 -2.57695,0.005 -2.86394,0.0755 -3.63876,0.89934 -0.46262,0.4919 -1.60418,1.37667 -2.53677,1.96616 -0.93259,0.58948 -1.75658,1.29329 -1.83111,1.56398 -0.0745,0.27068 -0.0359,1.21117 0.0857,2.08997 0.12166,0.87878 0.22629,5.18261 0.23248,9.56408 0.0101,7.14441 -0.0355,8.02528 -0.44183,8.53791 -0.88312,1.11415 -1.97711,1.43651 -4.59027,1.35264 -1.42249,-0.0456 -2.9355,-0.065 -3.36224,-0.0431 -0.42675,0.0218 -1.41603,0.0226 -2.19841,0 -3.95776,-0.10804 -5.2427,-0.0856 -7.50037,0.13162 -1.46973,0.14139 -2.82077,0.0863 -3.36224,-0.13707 z m 9.82811,-4.44808 c 0,-0.82721 0.40842,-0.98526 2.70263,-1.04589 2.48371,-0.0656 2.99194,-0.4735 3.82502,-3.06982 0.51801,-1.61436 0.43465,-2.05305 -0.43136,-2.27028 -0.67378,-0.16901 -0.57705,-0.79958 0.16032,-1.04505 0.67402,-0.22435 0.69897,-0.74213 0.34673,-7.1924 -0.21142,-3.87153 0.35545,-10.34095 1.03229,-11.78101 0.30385,-0.64646 0.63108,-0.83814 1.43083,-0.83814 1.18489,0 2.53654,0.69282 3.05635,1.5666 0.62223,1.04593 1.06294,0.74988 0.79834,-0.53628 -0.12821,-0.62314 -0.1714,-1.27214 -0.096,-1.44218 0.0754,-0.17008 1.00888,-0.30923 2.07443,-0.30923 3.96963,0 4.45415,-1.18262 4.78629,-11.68263 0.12609,-3.98535 0.29655,-7.95485 0.37885,-8.82108 l 0.14961,-1.575 1.3374,0.30169 c 2.74514,0.61928 10.04379,-0.17028 11.54093,-1.24851 1.73592,-1.25017 3.3858,-5.81822 2.1014,-5.81822 -0.4683,0 -0.47436,-0.0645 -0.10321,-1.10164 0.26049,-0.72798 0.33641,-1.5313 0.22374,-2.36834 -0.1271,-0.94459 -0.035,-1.58661 0.36188,-2.52445 0.67214,-1.58809 0.66793,-1.63829 -0.11429,-1.36459 -0.486,0.17004 -0.64657,0.0842 -0.64657,-0.34539 0,-1.36448 -1.14247,-1.76815 -5.68904,-2.01009 -3.59526,-0.19136 -4.45502,-0.34141 -4.85618,-0.84751 -0.59763,-0.75395 -0.83469,-0.77862 -0.83469,-0.0868 0,0.29047 -0.23011,0.69981 -0.51136,0.90965 -1.15444,0.86127 -3.62466,-1.85107 -4.10047,-4.50245 -0.14235,-0.7932 -0.33467,-3.38913 -0.42742,-5.76873 -0.0927,-2.37963 -0.2822,-5.38118 -0.42102,-6.67012 -0.25677,-2.38394 -0.96783,-6.08246 -1.26667,-6.58831 -0.0905,-0.15331 -2.77482,-0.42923 -5.96503,-0.61314 -6.05364,-0.34904 -7.28159,-0.6541 -7.81024,-1.94029 -0.22616,-0.55025 -0.35513,-4.24089 -0.44716,-12.79404 l -0.12931,-12.02068 -0.61057,-0.68859 c -0.76276,-0.86018 -2.24819,-0.91233 -2.57812,-0.0905 -0.20688,0.5154 -0.70032,0.58739 -3.56906,0.52072 -3.37333,-0.0783 -4.39197,-0.24615 -4.90772,-0.80845 -0.15707,-0.17126 -2.07864,-0.27898 -4.27015,-0.2394 -3.4905,0.063 -4.08638,-0.0123 -4.8058,-0.60437 -0.71046,-0.58503 -0.95834,-0.61897 -1.83777,-0.25169 -1.33006,0.55555 -1.6031,0.53574 -1.6031,-0.11624 0,-1.153155 -0.75754,-0.50607 -0.94973,0.81121 -0.34893,2.39161 -0.24776,13.1049 0.13819,14.63366 0.19211,0.76094 0.36601,2.05892 0.38643,2.88437 l 0.0371,1.50085 2.97432,0.22716 c 1.63586,0.12496 3.35826,0.39985 3.82757,0.61089 0.46929,0.21105 1.69133,0.49621 2.71563,0.63377 2.17109,0.29151 2.80385,0.57467 4.13273,1.84934 l 0.97717,0.93729 -0.55221,0.81941 c -0.51691,0.76707 -0.52564,0.87232 -0.13661,1.64663 0.33676,0.67025 0.41591,1.85499 0.41717,6.24531 0.003,7.16072 0.23987,11.28077 0.6643,11.50783 0.18293,0.0979 1.65006,0.28762 3.26029,0.42172 2.52896,0.21061 4.14972,0.67663 6.2061,1.78454 0.32808,0.17676 0.45385,0.005 0.51726,-0.70606 l 0.0838,-0.93957 1.15794,0.82112 c 1.6523,1.17169 2.08815,2.45354 2.33504,6.86762 0.23512,4.20325 -0.0418,20.75164 -0.35921,21.46745 -0.43465,0.98016 -1.41305,1.15223 -3.2028,0.56324 -1.90977,-0.62847 -5.70859,-0.49892 -7.23738,0.2468 -0.78668,0.38374 -0.84056,0.51818 -0.84056,2.09727 0,0.98147 -0.17775,2.041 -0.42492,2.53294 -0.38625,0.76874 -0.38837,0.9319 -0.0236,1.79282 0.63703,1.50338 1.02542,6.41144 0.92711,11.71524 -0.10631,5.73569 -0.29325,6.31707 -1.78536,5.55272 -0.58554,-0.29997 -2.35657,-0.45673 -5.1591,-0.45673 -4.70442,0 -5.73988,0.3674 -6.81457,2.41803 -0.73134,1.39548 -0.94024,6.3697 -0.30473,7.25565 0.3663,0.51064 0.39361,0.80901 0.15971,1.74441 -0.1552,0.62061 -0.28217,2.0686 -0.28217,3.21774 0,3.86501 1.18806,4.63073 7.24176,4.66717 2.03186,0.0123 3.3021,0.19398 4.00884,0.57356 0.56898,0.30558 2.03753,0.76515 3.26343,1.02126 1.22591,0.25609 2.44794,0.64295 2.71567,0.85974 0.70403,0.57007 1.65061,0.51074 1.65061,-0.10348 z"
       id="path3421" />
    <path
       style="opacity:0.930349;fill:#ffffff;stroke-width:0.305367"
       d="m 112.74327,224.6519 c -0.79857,-0.23656 -3.79212,-0.43663 -6.82517,-0.45615 l -5.4027,-0.0348 0.16312,-1.89286 c 0.0897,-1.04109 0.16409,-2.82579 0.16534,-3.96601 0.003,-1.58962 0.12289,-2.24135 0.51951,-2.79428 0.28448,-0.39659 0.51727,-0.84428 0.51727,-0.99487 0,-0.15061 -0.23279,-0.47648 -0.51727,-0.72417 -0.46437,-0.40426 -0.51727,-0.84082 -0.51727,-4.26754 0,-2.89335 0.10284,-4.05987 0.42492,-4.81996 0.39411,-0.93011 0.39411,-1.06403 0,-1.84844 -0.32321,-0.64326 -0.42492,-1.68249 -0.42492,-4.34145 0,-1.92268 0.0706,-3.75241 0.15698,-4.06608 0.13385,-0.48623 0.75332,-0.57068 4.20281,-0.57304 4.30991,-0.004 6.71527,-0.37139 8.53207,-1.30714 1.2572,-0.6475 1.23781,-0.44391 0.44177,-4.63915 -0.57405,-3.0252 -0.86123,-14.13801 -0.40504,-15.67333 0.59155,-1.99085 2.22221,-2.65208 8.07661,-3.27512 2.67627,-0.28479 3.77543,-0.53866 3.98855,-0.92123 0.16182,-0.29046 0.37112,-1.61722 0.46515,-2.94835 0.094,-1.33117 0.35987,-3.28997 0.59075,-4.35295 0.32643,-1.50285 0.35324,-2.08126 0.12044,-2.60088 -0.1816,-0.40536 -0.2372,-1.30023 -0.14137,-2.27495 0.20055,-2.03975 -0.44694,-3.42973 -2.12517,-4.56228 l -1.18038,-0.79658 -2.81908,0.63227 c -3.28776,0.73741 -6.58471,0.6149 -7.56561,-0.28107 -0.87907,-0.80298 -0.96356,-1.73063 -1.19566,-13.12936 -0.15719,-7.71984 -0.28104,-10.00222 -0.56411,-10.39395 -0.45832,-0.63439 -4.63009,-1.4412 -7.34577,-1.42071 -1.13801,0.009 -2.15003,-0.14887 -2.24895,-0.34995 -0.11971,-0.24338 -0.47167,-0.21847 -1.05288,0.0745 -1.213359,0.61163 -2.106174,0.5497 -2.750428,-0.19084 -0.76772,-0.88245 -1.040576,-4.18959 -1.197273,-14.51204 -0.07078,-4.66007 -0.173277,-10.03003 -0.22784,-11.933289 l -0.09918,-3.460436 4.693481,-0.258421 c 7.6674,-0.422206 11.02687,-0.181244 11.92269,0.855213 0.34961,0.404453 0.71851,0.407064 2.20655,0.01566 2.1616,-0.568565 5.98557,-0.30414 8.00954,0.553879 1.05662,0.447921 1.87388,0.537108 3.26123,0.355864 1.99247,-0.260282 3.5939,0.322413 3.8953,1.417349 0.0845,0.306912 0.004,1.613021 -0.18064,2.902411 -0.3093,2.16922 -0.29868,2.38068 0.14233,2.8302 0.42234,0.4305 0.45246,0.7691 0.26461,2.97276 -0.11662,1.36779 -0.2328,3.94714 -0.25817,5.73184 -0.0254,1.78468 -0.1402,3.71764 -0.25514,4.29543 -0.1773,0.89126 -0.14436,1.01598 0.21719,0.82256 0.36782,-0.19675 0.42621,0.0805 0.42621,2.02403 0,3.06374 0.35342,3.68928 2.25184,3.9855 0.82408,0.1286 2.05131,0.42587 2.72721,0.66059 1.11765,0.38817 1.26199,0.3635 1.59533,-0.27249 0.30952,-0.5905 0.75405,-0.71874 2.85895,-0.82484 1.54471,-0.0778 2.77513,0.0376 3.23589,0.30366 1.59436,0.92065 2.21483,5.05022 1.99055,13.24779 -0.12021,4.39313 -0.0695,5.87394 0.25319,7.39122 0.32377,1.52246 1.20998,4.39788 1.50343,4.87814 0.18789,0.30747 6.2465,-0.73526 6.86576,-1.18164 1.72906,-1.24645 4.04801,-0.33057 5.72849,2.26244 2.07775,3.20607 3.14947,8.23997 3.01626,14.16737 -0.079,3.51692 -0.15455,3.99669 -0.9908,6.29748 -1.18129,3.25004 -2.5873,5.70359 -3.60535,6.29145 -0.8066,0.46573 -2.83208,0.41003 -7.97401,-0.21936 -2.99425,-0.36654 -2.90096,-0.66651 -2.91958,9.38802 -0.0148,7.94503 -0.19256,11.44067 -0.61186,12.02592 -0.22423,0.31298 -3.6269,0.81624 -5.3583,0.79253 -0.96325,-0.0135 -1.69222,0.34952 -3.68402,1.83312 -1.36574,1.01726 -2.56317,2.03003 -2.66093,2.2506 -0.0978,0.22053 -0.18575,4.8615 -0.19551,10.31327 l -0.0178,9.91228 -0.84529,0.68947 c -0.78694,0.64186 -1.50124,0.69349 -10.34537,0.74798 -6.41772,0.0396 -9.96159,-0.0782 -10.92255,-0.36281 z m 11.07822,-3.97634 c 0.185,-0.46084 0.78701,-0.6559 2.58111,-0.83629 2.60805,-0.26224 2.99949,-0.54849 3.70448,-2.70896 0.64838,-1.98706 0.60214,-2.58758 -0.2293,-2.97812 -0.69814,-0.32797 -0.70053,-0.33893 -0.1293,-0.59517 0.68655,-0.30798 0.63667,0.30568 0.6911,-8.50503 0.0368,-5.9567 0.12067,-7.33362 0.54906,-9.01371 l 0.5056,-1.983 1.3017,-0.10619 c 1.08814,-0.0888 1.48953,0.0696 2.44682,0.96586 0.62981,0.58969 1.24057,0.98989 1.35724,0.88939 0.11667,-0.10052 0.13945,-0.72272 0.0507,-1.38263 l -0.16148,-1.19988 2.02864,-0.23855 c 1.11574,-0.13118 2.36435,-0.41855 2.77466,-0.63856 1.48262,-0.79503 1.83953,-3.33657 2.36809,-16.86289 l 0.16222,-4.15162 4.31042,-0.0498 c 4.76339,-0.055 8.30597,-0.75492 9.15917,-1.80956 1.01475,-1.25426 2.00505,-3.4737 2.00505,-4.49363 0,-0.56517 -0.11202,-1.02755 -0.24891,-1.02755 -0.35001,0 -0.0211,-4.6362 0.41427,-5.84098 0.46261,-1.27991 0.44409,-1.73053 -0.071,-1.73053 -0.23264,0 -0.6775,-0.38285 -0.98858,-0.85081 -0.6539,-0.9836 -1.4466,-1.18125 -6.08887,-1.51838 -2.05715,-0.1494 -3.54969,-0.43914 -4.1039,-0.79673 -0.83715,-0.54012 -0.88853,-0.52954 -1.32218,0.2719 -0.56809,1.04985 -1.43157,0.8183 -2.68938,-0.72123 -1.28578,-1.57379 -1.64476,-3.2264 -1.96438,-9.04323 -0.1568,-2.85372 -0.34931,-5.75646 -0.42778,-6.4505 -0.23605,-2.08763 -1.17571,-6.84986 -1.35322,-6.85816 -4.24693,-0.19866 -12.088,-1.15422 -12.78037,-1.5575 -1.15536,-0.67295 -1.1574,-0.69462 -1.37974,-14.76535 -0.16896,-10.6923 -0.19532,-11.12212 -0.71308,-11.62767 -0.66343,-0.64779 -2.6644,-0.70053 -2.81693,-0.0742 -0.1372,0.56342 -7.16628,0.49531 -7.93318,-0.0768 -0.28004,-0.20894 -2.16048,-0.37383 -4.26304,-0.37383 -2.86808,0 -4.01135,-0.13911 -4.81156,-0.58544 -0.74333,-0.41463 -1.41926,-0.5171 -2.31633,-0.3512 -1.05408,0.19492 -1.3105,0.12675 -1.52734,-0.40605 -0.2495,-0.613041 -0.28051,-0.612878 -0.72785,0.003 -0.40276,0.55486 -0.47982,1.43089 -0.55816,6.34572 -0.0533,3.34044 0.0349,6.73232 0.21271,8.18967 0.167,1.36824 0.36792,3.2541 0.44646,4.19087 l 0.14283,1.70322 1.15048,-0.0939 c 0.63275,-0.0517 1.20703,0.0338 1.27619,0.18969 0.0691,0.15595 0.67164,0.28354 1.33893,0.28361 0.66731,3e-5 2.08614,0.22618 3.15303,0.50258 1.06686,0.2764 2.58478,0.60835 3.37319,0.73764 0.86931,0.14257 1.97264,0.66437 2.80361,1.32597 1.32649,1.05611 1.35578,1.11312 0.91789,1.78765 -0.39081,0.60197 -0.41036,0.88033 -0.14378,2.04728 0.16969,0.7428 0.40217,4.88569 0.51659,9.20639 0.11442,4.32071 0.31511,8.00508 0.44596,8.1875 0.13085,0.18245 1.57538,0.50689 3.21002,0.72099 1.63464,0.2141 3.61217,0.63941 4.39455,0.94515 2.60686,1.0187 2.60478,1.01858 2.76129,0.18428 l 0.14385,-0.76678 1.04473,0.81073 c 1.72873,1.34154 2.06072,2.88554 2.18991,10.18499 0.0596,3.37112 0.005,8.70434 -0.12035,11.85159 -0.26929,6.73492 -0.35411,6.95184 -2.52786,6.46525 -2.00277,-0.44835 -7.67259,-0.34199 -8.3064,0.15578 -0.36495,0.28663 -0.60536,0.9449 -0.72142,1.97532 -0.0957,0.84999 -0.30415,2.05307 -0.46314,2.67353 -0.23636,0.92236 -0.20264,1.41545 0.185,2.70409 0.38264,1.27208 0.49465,2.82759 0.58082,8.06588 0.0676,4.10836 0.005,6.85564 -0.16988,7.4867 -0.2616,0.94276 -0.33655,0.98188 -1.38076,0.72109 -0.60727,-0.15166 -3.08269,-0.27576 -5.50092,-0.27576 -4.97855,0 -5.7973,0.33397 -6.65941,2.71636 -0.48013,1.3268 -0.65694,6.61988 -0.23332,6.98488 0.12084,0.1041 0.1675,1.77671 0.10369,3.71686 -0.1751,5.32321 0.0349,5.5079 7.04769,6.19767 5.1842,0.50992 5.30199,0.52761 5.30199,0.79582 0,0.12148 0.89546,0.4223 1.98992,0.66842 1.09447,0.24616 2.22921,0.5826 2.52168,0.74772 0.89293,0.50412 1.91321,0.38416 2.16984,-0.25512 z"
       id="path3423" />
    <path
       style="opacity:0.930349;fill:#ffffff;stroke-width:0.305367"
       d="m 62.82687,226.32427 c -0.355628,-0.15876 -1.326699,-0.30486 -2.157948,-0.32461 -1.301933,-0.0309 -1.530848,-0.13989 -1.652083,-0.78612 -0.106815,-0.56948 -0.272292,-0.69387 -0.687028,-0.51648 -2.329653,0.99652 -3.998871,1.17677 -4.494788,0.48545 -0.229922,-0.3205 -0.734571,-0.30678 -2.119676,0.0576 -1.414318,0.37203 -2.040202,0.38533 -2.818945,0.0601 -0.550554,-0.22993 -1.418158,-0.41805 -1.928027,-0.41805 -0.596857,0 -1.013067,-0.21437 -1.168619,-0.60186 -0.206326,-0.51394 -0.351719,-0.53821 -0.996002,-0.16616 -1.090222,0.62952 -3.625967,-0.31459 -4.39509,-1.63639 -1.508305,-2.59216 -2.541293,-9.35125 -2.332555,-15.26245 0.288374,-8.16615 1.260053,-9.37422 7.539958,-9.37422 4.138294,0 6.821,-1.48158 6.517176,-3.5992 -0.07645,-0.53287 0.01077,-1.37152 0.194013,-1.86366 0.615256,-1.65323 0.674223,-2.76468 0.283879,-5.35149 -0.639062,-4.23512 -0.412136,-7.11931 0.520895,-6.62019 0.494678,0.26462 0.487842,-0.34872 -0.0192,-1.71532 -0.633772,-1.70853 -0.400221,-3.22212 0.625533,-4.05411 0.713901,-0.57903 1.61409,-0.75463 5.043376,-0.98375 3.951398,-0.26396 5.027552,-0.49735 6.696044,-1.45217 0.903958,-0.51729 0.892652,-0.7978 -0.102742,-2.54981 -0.798009,-1.40458 -0.805945,-1.45611 -0.404739,-2.62898 0.353263,-1.0327 0.359584,-1.28756 0.04628,-1.86409 -0.249656,-0.45944 -0.367262,-1.73677 -0.376813,-4.09306 -0.01522,-3.73315 -0.57085,-6.24329 -1.465865,-6.62147 -0.262039,-0.11075 -1.412516,-0.36102 -2.556579,-0.5562 -2.071711,-0.35341 -2.949427,-0.71328 -3.796829,-1.55675 -0.368362,-0.36667 -0.507248,-0.3262 -0.800678,0.23323 -0.306048,0.58347 -0.593978,0.65008 -2.087886,0.48291 -2.099216,-0.2349 -3.9271,-1.44496 -4.74812,-3.14322 -0.557108,-1.15244 -0.581922,-1.52318 -0.581922,-8.69843 0,-7.70318 -0.19118,-9.59596 -0.929309,-9.2011 -0.334232,0.17879 -0.374144,0.0218 -0.228822,-0.9006 0.164869,-1.04648 0.137527,-1.10053 -0.432128,-0.85375 -0.334467,0.14488 -1.377286,0.80053 -2.31734,1.45694 -1.286038,0.89799 -1.782705,1.09105 -2.006026,0.77972 -0.191251,-0.2666 -1.169883,-0.38267 -2.751762,-0.32636 -2.734206,0.0973 -3.343142,-0.17879 -3.621122,-1.64176 l -0.190195,-1.00102 -0.313586,1.26191 c -0.259979,1.0462 -0.456427,1.28151 -1.149143,1.3766 -0.700324,0.0961 -1.027275,-0.15259 -2.020187,-1.53676 -1.140739,-1.59024 -1.167917,-1.6772 -0.733518,-2.34634 0.429343,-0.66137 0.428008,-0.7874 -0.02745,-2.60956 -0.740962,-2.96429 -0.685857,-11.4519 0.09687,-14.92047 0.678226,-3.00553 2.09533,-6.1598 3.272587,-7.28434 0.984718,-0.9406 2.297536,-1.10658 2.064781,-0.26099 -0.214659,0.77982 0.256164,0.66992 1.728888,-0.40361 0.956253,-0.69704 1.508024,-0.8852 2.106448,-0.71835 0.558373,0.1557 0.950566,0.0497 1.259774,-0.34036 0.40989,-0.51713 0.479414,-0.50761 0.798431,0.1094 0.595101,1.15103 0.967465,1.25627 1.680009,0.47494 0.879331,-0.96423 1.643749,-0.97514 1.643749,-0.0234 0,0.86383 0.170815,0.88608 1.3826,0.18026 0.61336,-0.35726 1.798341,-0.54082 3.49146,-0.54082 1.964194,0 2.638323,-0.12652 2.88538,-0.54152 0.241556,-0.40575 0.793561,-0.52196 2.201325,-0.46345 1.222109,0.0508 2.018432,-0.0833 2.277967,-0.38357 0.304526,-0.3523 0.633023,-0.3711 1.386579,-0.0794 0.543133,0.21026 1.656741,0.38318 2.474672,0.38429 1.140996,0 1.607535,0.16985 2.004409,0.72311 0.619119,0.86308 0.641802,1.41036 0.129311,3.12025 -0.480912,1.60453 -0.485149,1.9274 -0.0253,1.9274 0.650978,0 0.979592,2.2471 1.159981,7.93203 0.190783,6.01329 0.366255,6.8761 1.575817,7.74805 1.262464,0.9101 4.431397,0.56322 4.91987,-0.53854 0.07725,-0.17429 0.645173,-0.004 1.262021,0.38311 1.398541,0.87287 1.746818,0.87293 2.974193,0 1.105931,-0.78599 3.446515,-1.29849 4.402605,-0.96398 0.866597,0.3032 1.12152,1.62434 1.422184,7.37092 0.15506,2.96406 0.390811,5.10605 0.615069,5.58849 0.199981,0.43024 0.435826,2.08023 0.524078,3.66665 0.204851,3.68251 0.77137,6.30392 1.595597,7.38338 0.560573,0.73415 1.019293,0.88794 3.335603,1.1184 1.477102,0.14698 3.340028,0.55479 4.139866,0.90626 l 1.454212,0.63904 1.513455,-1.00839 c 1.253198,-0.83501 1.608919,-0.93715 2.068668,-0.59415 0.330461,0.24655 0.555213,0.76358 0.555213,1.27715 0,0.83453 0.594514,1.99607 1.021634,1.99607 0.11484,0 0.359631,0.50767 0.543994,1.12816 0.437018,1.47081 -0.142585,4.16364 -0.859619,3.99385 -0.546923,-0.12951 -0.547463,-0.0956 -0.03256,2.09886 0.569254,2.4262 0.412601,10.04231 -0.244553,11.88814 -1.333205,3.74487 -1.489531,4.02268 -2.674232,4.75323 l -1.188373,0.7328 -2.914345,-0.83325 c -3.214908,-0.91921 -3.853994,-0.7954 -4.651301,0.90093 -1.155557,2.4585 -1.602152,9.32727 -0.822776,12.65394 0.23231,0.99148 0.548377,3.34406 0.702407,5.2279 0.154008,1.88387 0.454952,4.37057 0.668746,5.52601 0.361456,1.95348 0.355605,2.18103 -0.08331,3.24493 -0.682838,1.65507 -1.862154,2.28842 -5.460453,2.93251 -1.755807,0.31429 -3.54118,0.82287 -3.967526,1.1302 -0.426323,0.30734 -0.939189,0.47102 -1.139732,0.36373 -0.240316,-0.12854 -0.364617,0.0557 -0.364617,0.5408 0,0.4047 -0.288936,2.48486 -0.642083,4.62259 -0.35317,2.13772 -0.756154,5.69869 -0.895578,7.91328 -0.281866,4.47785 -0.69728,6.09092 -1.80307,7.00154 -1.288706,1.06119 -8.874218,1.75827 -10.625507,0.97641 z m 5.549313,-4.88444 c 0.918402,-1.38146 1.525394,-3.3909 1.593444,-5.27518 0.03352,-0.92768 0.191789,-2.02754 0.351695,-2.44411 0.15993,-0.41656 0.523821,-2.25347 0.808637,-4.08202 0.918729,-5.89812 2.303763,-8.89533 4.448228,-9.62589 0.597091,-0.20343 1.510763,-0.68989 2.030394,-1.08109 0.845436,-0.63645 0.961473,-0.65057 1.103542,-0.13448 0.12573,0.45669 0.427587,0.54072 1.450205,0.40376 1.600817,-0.21442 2.320734,-1.04899 2.320734,-2.69027 0,-0.67031 0.187834,-1.61833 0.417381,-2.10672 0.244997,-0.52127 0.370329,-1.33501 0.303426,-1.97035 -0.09113,-0.86571 -0.01943,-1.08229 0.358531,-1.08229 0.631314,0 0.594679,-0.27017 -0.280978,-2.07107 -0.787685,-1.61993 -1.271149,-4.5925 -1.832893,-11.26917 -0.158501,-1.88389 -0.469325,-4.85345 -0.690749,-6.59912 -0.221401,-1.74565 -0.331306,-3.27325 -0.244202,-3.39465 0.08708,-0.12137 1.089591,-0.29591 2.227778,-0.38775 l 2.069416,-0.16701 v 0.94241 0.94237 l 0.840567,-0.71443 c 0.754305,-0.64115 1.311015,-0.7146 5.425363,-0.7158 4.583793,0 4.584863,0 5.001357,-0.88766 0.229123,-0.48747 0.544517,-2.03848 0.700887,-3.44669 0.245605,-2.2121 0.220956,-2.82008 -0.181276,-4.46978 -0.265883,-1.09032 -0.38981,-2.24218 -0.28894,-2.68521 0.132916,-0.58384 -0.02353,-1.05486 -0.632062,-1.90319 -0.757564,-1.0561 -0.897194,-1.11461 -2.209006,-0.92586 -1.298559,0.18683 -1.437072,0.13139 -1.905858,-0.76292 -0.499288,-0.95243 -0.514996,-0.95664 -1.268083,-0.33982 -1.254202,1.02729 -3.863287,1.7259 -7.327382,1.96196 l -3.266922,0.22266 -0.425153,-0.90451 c -0.888601,-1.89056 -1.701686,-11.16132 -1.704191,-19.43104 0,-1.90576 -0.07507,-4.21775 -0.165524,-5.1378 -0.185,-1.88166 -0.44828,-2.03232 -1.986081,-1.13658 -1.911101,1.11315 -9.235347,1.54247 -10.428966,0.61129 -0.604184,-0.47138 -2.162327,-4.13711 -2.16832,-5.10136 -0.003,-0.50241 -0.227089,-1.59337 -0.497697,-2.4243 -0.422506,-1.29732 -0.439992,-1.57105 -0.123645,-1.93703 0.432456,-0.50032 0.474217,-1.70577 0.105832,-3.05641 -0.144386,-0.52947 -0.442827,-2.52443 -0.66315,-4.43322 -0.220349,-1.90881 -0.436975,-3.52124 -0.481405,-3.58318 -0.148388,-0.20686 -22.343743,0.63893 -22.77147,0.86774 -0.231771,0.12398 -0.36759,0.42084 -0.301834,0.65971 0.06735,0.24465 -0.25703,0.62411 -0.742905,0.86902 -1.429652,0.72068 -2.062581,3.00286 -2.062581,7.43704 0,4.00122 0.37047,5.563 1.625022,6.85041 0.663689,0.68106 1.109347,0.7211 8.029672,0.7211 6.954338,0 7.345688,0.0356 7.694387,0.69987 0.202042,0.38491 0.367356,1.18569 0.367356,1.77947 0,0.61821 0.24474,1.44281 0.572651,1.92937 0.512374,0.76031 0.534612,0.93351 0.211312,1.64572 -0.601515,1.32512 -1.306474,13.99946 -0.832818,14.97352 0.543484,1.11764 4.266949,1.46349 8.331951,0.77389 1.233532,-0.20924 2.292246,-0.57712 2.421814,-0.8415 0.185164,-0.37774 0.409141,-0.38397 1.143947,-0.0317 0.85014,0.40742 1.462868,0.32297 2.683548,-0.36993 0.548026,-0.31109 0.64667,0.47898 0.854308,6.84298 0.167958,5.14769 0.504531,8.82947 0.948833,10.37983 0.244248,0.85232 0.214401,1.08087 -0.195793,1.499 -0.467616,0.47665 -0.46881,0.57272 -0.03556,2.83927 0.439666,2.30026 0.596342,7.1897 0.282686,8.82203 -0.08727,0.45413 -0.522135,1.08996 -0.966343,1.41293 -1.006535,0.73182 -4.81652,1.12214 -4.81652,0.49343 0,-0.23391 -0.415906,-0.6675 -0.924207,-0.96358 -0.923457,-0.5379 -1.92077,-0.40726 -1.92077,0.25153 0,0.21652 -0.189869,0.20729 -0.500271,-0.0242 -0.872333,-0.65083 -1.4922,-0.4098 -2.317925,0.90122 -0.704023,1.11782 -0.802692,1.53617 -0.802692,3.40391 0,1.21496 -0.127625,2.23942 -0.297199,2.38552 -0.218311,0.18809 -0.238935,1.65325 -0.07767,5.51964 0.351297,8.4219 0.310167,9.95743 -0.297199,11.09147 -0.289756,0.54098 -0.850071,1.10416 -1.245143,1.25146 -0.395095,0.14728 -0.868775,0.55464 -1.052651,0.90519 -0.283997,0.54142 -0.95197,0.67746 -4.436852,0.90347 -5.033755,0.3265 -5.686956,0.48614 -6.166839,1.50712 -0.208596,0.44384 -0.511929,2.05027 -0.674059,3.56982 -0.278449,2.61 -0.262859,2.83484 0.282147,4.06412 0.317308,0.71574 0.883382,2.14386 1.257947,3.17363 0.529673,1.45619 0.833123,1.89682 1.365394,1.98275 0.376392,0.0608 0.88907,0.42582 1.139264,0.81122 0.574666,0.88521 0.850867,0.88041 1.543676,-0.0268 0.51907,-0.67981 0.616614,-0.6922 1.481667,-0.18832 0.509307,0.29664 1.779778,0.70624 2.823252,0.9102 1.043476,0.20395 2.801249,0.64038 3.906126,0.96981 1.921355,0.5729 2.023909,0.57033 2.353905,-0.0588 0.286806,-0.54677 0.570475,-0.62055 1.680922,-0.43722 0.734735,0.12137 1.592648,0.47126 1.906444,0.77768 0.743045,0.72553 0.884973,0.70331 1.047665,-0.16401 0.162013,-0.8637 0.700956,-0.96688 0.700956,-0.13418 0,0.47803 0.179897,0.54496 0.969877,0.36075 0.533442,-0.1244 1.244956,-0.33113 1.581154,-0.45937 0.554463,-0.21156 0.58452,-0.16352 0.323301,0.5169 -0.380442,0.99101 -0.364243,1.15812 0.112316,1.15812 0.22016,0 0.675065,-0.41331 1.010866,-0.91842 z"
       id="path3425" />
    <path
       style="opacity:0.930349;fill:#ffffff;stroke-width:0.305367"
       d="m 61.206156,225.97333 c -1.273842,-0.18091 -1.847032,-0.43346 -2.106473,-0.92807 -0.32213,-0.61416 -0.477237,-0.63869 -1.612217,-0.25513 -1.280209,0.43265 -9.60193,0.39603 -10.501933,-0.0462 -0.248953,-0.12235 -0.656292,-0.32656 -0.905222,-0.45389 -0.24893,-0.12733 -1.150921,-0.25176 -2.00441,-0.27646 -2.16043,-0.0627 -3.36037,-0.95781 -4.133027,-3.0834 -1.224215,-3.36786 -1.540282,-5.87216 -1.54892,-12.27272 -0.0075,-5.49867 0.03624,-6.06446 0.576444,-7.47391 0.952813,-2.48591 1.7368,-2.78701 9.051634,-3.47662 0.988839,-0.0932 2.095589,-0.4825 2.844977,-1.00072 1.013395,-0.70081 1.238261,-1.03614 1.293973,-1.92983 0.03711,-0.5949 0.260144,-1.91398 0.495637,-2.93129 0.366115,-1.58151 0.384467,-2.21882 0.126549,-4.39602 -0.165923,-1.40048 -0.301671,-3.4632 -0.301671,-4.58379 0,-1.76343 0.07271,-2.06398 0.540488,-2.23449 0.437395,-0.15944 0.507435,-0.37655 0.367121,-1.13803 -0.487911,-2.64821 -0.447367,-3.44502 0.21974,-4.3185 0.599643,-0.78518 1.026456,-0.89401 5.318173,-1.35596 4.897913,-0.52719 7.054575,-1.24149 7.2131,-2.38906 0.04651,-0.33674 -0.224866,-1.17787 -0.60306,-1.8691 -0.624268,-1.14098 -0.660201,-1.37277 -0.389875,-2.51466 0.195581,-0.82614 0.212997,-1.48043 0.05073,-1.90641 -0.135865,-0.35675 -0.332032,-2.2711 -0.435873,-4.25412 -0.206022,-3.93365 -0.691897,-6.16861 -1.410129,-6.4864 -0.253635,-0.11223 -1.454043,-0.4281 -2.66756,-0.70196 -1.213517,-0.27386 -2.630856,-0.77869 -3.149644,-1.12188 -0.790027,-0.52262 -1.042609,-0.54984 -1.554959,-0.16758 -0.890896,0.66467 -3.401733,0.30897 -4.885085,-0.69207 -2.047225,-1.38156 -2.152986,-1.85064 -2.349948,-10.42181 -0.19186,-8.35017 -0.284793,-9.43235 -0.809855,-9.43235 -0.219482,0 -0.367402,-0.3629 -0.367402,-0.90134 0,-1.19536 -0.363494,-1.14876 -2.577577,0.33043 -1.555174,1.039 -1.973257,1.18015 -2.670374,0.90142 -0.454601,-0.18176 -1.758406,-0.33295 -2.897319,-0.33598 -2.34433,-0.006 -2.568166,-0.12815 -2.982574,-1.62429 l -0.297551,-1.0743 -0.430747,1.26191 c -0.632719,1.85366 -1.533516,1.88169 -2.910919,0.0906 -0.975098,-1.26799 -1.043241,-1.46757 -0.735625,-2.15423 0.283622,-0.63311 0.267798,-1.16816 -0.0968,-3.27407 -0.538241,-3.10862 -0.569562,-9.40765 -0.06335,-12.73692 0.437161,-2.87517 1.392314,-5.6105 2.621422,-7.50705 1.061546,-1.63803 2.376962,-2.45905 2.606088,-1.62661 0.196681,0.71453 0.695151,0.66383 1.900381,-0.19332 0.55767,-0.39661 1.519026,-0.72109 2.136365,-0.72109 0.61734,0 1.241561,-0.16609 1.387165,-0.36907 0.180576,-0.25173 0.415344,-0.13709 0.73841,0.36056 0.579698,0.89296 0.897076,0.90912 1.937156,0.0987 0.779376,-0.60733 0.823549,-0.60511 1.179715,0.0592 0.324799,0.6058 0.489222,0.6415 1.345005,0.29209 0.536227,-0.21889 2.229182,-0.51135 3.762114,-0.64985 1.532931,-0.13849 2.849143,-0.39162 2.924894,-0.56252 0.07577,-0.17086 0.879823,-0.3107 1.786778,-0.3107 0.906953,0 1.955695,-0.16254 2.330543,-0.36121 0.657649,-0.34856 4.699476,0.0622 5.658163,0.57505 0.609053,0.32581 0.761937,1.50125 0.417989,3.21374 -0.281491,1.40162 -0.258785,1.64806 0.238069,2.58493 0.464128,0.87514 0.592081,1.87208 0.825866,6.43509 0.349612,6.8237 0.545918,7.94013 1.519565,8.64199 1.005599,0.72495 4.094801,0.72896 4.83492,0.006 0.488567,-0.47706 0.658773,-0.4735 1.526213,0.0317 1.085026,0.632 2.276047,0.52739 3.858254,-0.33888 0.569,-0.31155 1.642859,-0.57357 2.386396,-0.58224 1.855366,-0.0218 2.018081,0.42461 2.496489,6.84851 0.214706,2.88307 0.509213,5.67773 0.654489,6.21036 0.145276,0.53263 0.382267,2.28176 0.52663,3.88692 0.328543,3.65262 0.700605,5.4048 1.411627,6.64787 0.509939,0.89149 0.817462,1.01765 3.653028,1.49837 1.702926,0.28871 3.648815,0.7518 4.324238,1.02911 1.163751,0.47785 1.302514,0.4567 2.651008,-0.40392 1.728634,-1.10323 2.197885,-1.01783 2.563931,0.46668 0.154848,0.62792 0.601583,1.5531 0.992773,2.05591 0.956173,1.2291 0.978413,3.13283 0.05167,4.42478 -0.633354,0.88288 -0.647492,0.99491 -0.355446,2.81409 0.183337,1.1421 0.260805,3.67032 0.194998,6.36521 -0.103772,4.25103 -0.152088,4.58253 -0.983926,6.75056 -0.712495,1.85705 -1.094059,2.43129 -2.057078,3.09589 l -1.182339,0.81593 -2.198371,-0.64571 c -3.13188,-0.91992 -4.277512,-0.8778 -5.040127,0.18535 -1.164546,1.62343 -1.959933,7.94825 -1.455612,11.57483 0.137879,0.9915 0.434516,3.26294 0.659195,5.04765 0.224678,1.7847 0.597137,4.71992 0.827692,6.52271 0.390763,3.05568 0.38964,3.34064 -0.01685,4.20538 -0.652992,1.38925 -1.794503,1.97511 -5.434352,2.78915 -1.814915,0.40589 -3.51323,0.89714 -3.774005,1.0917 -0.260798,0.19459 -0.721462,0.35377 -1.023694,0.35377 -0.302256,0 -0.483745,0.14839 -0.403336,0.32976 0.08039,0.18134 0.05571,0.38415 -0.05485,0.45066 -0.276342,0.16627 -1.257268,7.148 -1.730597,12.3176 -0.214752,2.34555 -0.537936,4.68354 -0.718184,5.19554 -0.507481,1.44155 -1.469142,2.19968 -3.301988,2.60319 -1.838231,0.40468 -7.12843,0.41783 -9.897024,0.0244 z m 7.524555,-4.91531 c 0.73614,-1.24502 0.947732,-2.06416 1.573218,-6.091 0.154008,-0.99151 0.567924,-3.30264 0.919783,-5.13588 1.262839,-6.5792 2.202847,-8.46016 4.92282,-9.85055 0.853488,-0.4363 1.716223,-0.97452 1.917165,-1.196 0.272901,-0.30084 0.392871,-0.28871 0.474147,0.048 0.138675,0.57433 2.14175,0.59509 3.029205,0.0313 0.459353,-0.29178 0.741079,-0.86752 0.926243,-1.89288 0.146329,-0.81049 0.378475,-1.84628 0.515885,-2.30178 0.137387,-0.45552 0.249797,-1.29925 0.249797,-1.87496 0,-0.61023 0.183315,-1.1898 0.439571,-1.3897 0.399497,-0.31165 0.363541,-0.55182 -0.394369,-2.63343 -0.7426,-2.03949 -0.935887,-3.27109 -1.764211,-11.24072 -0.522651,-5.02875 -0.831461,-9.0757 -0.704818,-9.23655 0.123996,-0.15742 1.069224,-0.38921 2.100526,-0.51508 1.872735,-0.22853 1.875099,-0.22768 1.875099,0.67508 0,1.05663 0.04818,1.07412 1.022969,0.37139 0.526279,-0.37939 2.092802,-0.60332 5.449006,-0.77897 l 4.710412,-0.24652 0.407735,-1.29415 c 0.454742,-1.44336 0.545499,-5.75424 0.19237,-9.13747 -0.308687,-2.95769 -1.02081,-3.87448 -3.009515,-3.87448 -1.239033,0 -1.56938,-0.13435 -1.887577,-0.76763 -0.418224,-0.8324 -0.740752,-0.80916 -2.676925,0.19277 -1.285476,0.66518 -3.673769,1.16743 -6.957919,1.46322 l -2.36149,0.21267 -0.445939,-1.542 c -0.735062,-2.54179 -1.16162,-7.21702 -1.440045,-15.78364 -0.144995,-4.46179 -0.319836,-8.47737 -0.388494,-8.92357 -0.149583,-0.97203 -0.584848,-1.01335 -2.624043,-0.24921 -1.992331,0.74657 -8.329494,1.13089 -9.310163,0.56461 -0.400854,-0.23147 -1.055343,-1.14029 -1.454395,-2.01962 -0.843469,-1.85857 -2.038446,-6.95112 -1.699625,-7.24302 0.431777,-0.37201 0.10157,-4.06426 -0.940968,-10.52228 -0.129452,-0.80193 -0.180693,-0.81121 -4.458154,-0.80669 -2.379958,0.004 -7.527785,0.16632 -11.439622,0.36402 -6.350623,0.32097 -7.153992,0.42915 -7.500397,1.01018 -0.213372,0.35788 -0.705591,0.9257 -1.093827,1.26182 -1.022407,0.88521 -1.517716,2.49675 -1.678559,5.46139 -0.229524,4.23104 0.08218,6.53297 1.093031,8.07143 l 0.862806,1.31314 7.530547,0.18027 c 7.970472,0.19081 8.013568,0.20098 8.024195,1.89287 0.0023,0.34702 0.127204,0.63096 0.27784,0.63096 0.150659,0 0.198812,0.16936 0.107025,0.37638 -0.09176,0.20704 0.01381,0.76079 0.234581,1.23054 0.359326,0.76452 0.361316,1.11272 0.01896,3.3192 -0.210376,1.35581 -0.456122,4.89991 -0.546106,7.87575 -0.149254,4.93669 -0.122756,5.45784 0.30242,5.94903 0.716593,0.82783 8.974198,0.77803 10.143144,-0.0612 0.667528,-0.47921 1.012341,-0.52372 1.718189,-0.22174 0.633703,0.27112 1.123604,0.26093 1.734904,-0.0361 0.468506,-0.22764 0.944174,-0.28521 1.057052,-0.12785 0.112877,0.15735 0.329363,3.03933 0.481123,6.40445 0.151736,3.36508 0.453219,7.3185 0.669986,8.78539 0.300757,2.03535 0.321381,2.72969 0.08703,2.9316 -0.205366,0.17692 -0.251668,0.78622 -0.139821,1.83977 0.092,0.8664 0.232685,3.44108 0.312649,5.72154 0.144316,4.11584 0.14043,4.15274 -0.52656,5.02229 -0.574688,0.74919 -0.989821,0.8992 -2.868853,1.03672 -1.3186,0.0964 -2.196948,0.0216 -2.196948,-0.18715 0,-0.19133 -0.29645,-0.5362 -0.658774,-0.76632 -0.781669,-0.49649 -2.186203,-0.55572 -2.186203,-0.0921 0,0.17944 -0.463052,0.23969 -1.028985,0.13386 -2.48359,-0.4644 -3.329259,3.825 -2.992171,15.17689 0.207965,7.00275 0.0266,8.28581 -1.305515,9.23559 -0.41319,0.2946 -1.04221,0.80949 -1.397815,1.14424 -0.496502,0.46732 -1.682631,0.69607 -5.110045,0.9855 -2.454913,0.20731 -4.690229,0.54611 -4.96739,0.75287 -0.62579,0.46688 -1.04523,2.35893 -1.200525,5.41515 -0.113744,2.23862 -0.06948,2.46301 0.988675,5.01122 0.609263,1.46722 1.340533,2.83981 1.625022,3.05022 0.284511,0.21039 0.83263,0.67299 1.218058,1.02794 0.861681,0.79364 1.449596,0.81775 2.031681,0.0834 0.401182,-0.5061 0.58335,-0.50755 1.83081,-0.0147 0.761913,0.3011 2.88229,0.90618 4.711905,1.34458 2.613019,0.62613 3.430598,0.7066 3.811343,0.37511 0.687216,-0.59828 2.110991,-0.52284 3.368329,0.17848 1.011476,0.56418 1.096333,0.56289 1.402896,-0.0216 0.23458,-0.4472 0.379411,-0.50232 0.515206,-0.19602 0.128141,0.28906 0.627312,0.35422 1.552267,0.20268 1.272203,-0.20843 1.354322,-0.1752 1.228242,0.4969 -0.230742,1.23006 0.837242,0.86376 1.690918,-0.57998 z"
       id="path3427" />
  </g>
</svg>
