<?xml version="1.0" encoding="UTF-8" standalone="no"?>
<svg
   xmlns:dc="http://purl.org/dc/elements/1.1/"
   xmlns:cc="http://creativecommons.org/ns#"
   xmlns:rdf="http://www.w3.org/1999/02/22-rdf-syntax-ns#"
   xmlns:svg="http://www.w3.org/2000/svg"
   xmlns="http://www.w3.org/2000/svg"
   xmlns:sodipodi="http://sodipodi.sourceforge.net/DTD/sodipodi-0.dtd"
   xmlns:inkscape="http://www.inkscape.org/namespaces/inkscape"
   width="132.29164mm"
   height="132.29158mm"
   viewBox="0 0 132.29164 132.29158"
   version="1.1"
   id="svg18743"
   inkscape:version="1.0 (b51213c273, 2020-08-10)">
  <defs
     id="defs18737" />
  <sodipodi:namedview
     id="base"
     pagecolor="#ffffff"
     bordercolor="#666666"
     borderopacity="1.0"
     inkscape:pageopacity="0.0"
     inkscape:pageshadow="2"
     inkscape:zoom="0.35"
     inkscape:cx="249.78741"
     inkscape:cy="223.36489"
     inkscape:document-units="mm"
     inkscape:current-layer="layer1"
     inkscape:document-rotation="0"
     showgrid="false"
     inkscape:snap-global="false"
     fit-margin-top="0"
     fit-margin-left="0"
     fit-margin-right="0"
     fit-margin-bottom="0"
     showborder="false"
     inkscape:window-width="1318"
     inkscape:window-height="704"
     inkscape:window-x="48"
     inkscape:window-y="27"
     inkscape:window-maximized="1" />
  <metadata
     id="metadata18740">
    <rdf:RDF>
      <cc:Work
         rdf:about="">
        <dc:format>image/svg+xml</dc:format>
        <dc:type
           rdf:resource="http://purl.org/dc/dcmitype/StillImage" />
        <dc:title></dc:title>
      </cc:Work>
    </rdf:RDF>
  </metadata>
  <g
     inkscape:label="Layer 1"
     inkscape:groupmode="layer"
     id="layer1"
     transform="translate(-39.743747,-89.068039)">
    <path
       style="fill:#ff0000;stroke-width:0.777867"
       d="m 81.080425,220.68478 c 2.039802,-0.52033 2.920776,-2.70727 2.943656,-7.30796 0.02486,-2.31908 0.432055,-6.1202 0.934262,-8.44684 0.502269,-2.32669 0.724587,-4.52509 0.494059,-4.88537 -0.2316,-0.36027 -0.07476,-0.37955 0.348111,-0.0427 0.42204,0.3367 0.866792,0.24298 0.988258,-0.20828 0.121997,-0.45121 1.70344,-1.01629 3.515209,-1.25578 4.435979,-0.58633 5.132927,-0.89356 6.096563,-2.6878 0.566501,-1.05484 0.636732,-2.2327 0.224114,-3.74913 -0.331673,-1.21606 -0.681527,-4.03695 -0.777344,-6.2686 -0.09712,-2.23167 -0.39119,-4.47086 -0.656153,-4.97597 -0.942207,-1.79672 -0.29331,-10.33993 0.928308,-12.22185 1.085103,-1.67163 1.435992,-1.72507 4.333612,-0.65953 2.55453,0.93946 3.45347,0.93507 4.73758,-0.0243 0.8717,-0.6503 1.43648,-1.37916 1.25543,-1.61959 -0.18174,-0.24056 0.1619,-1.20384 0.7602,-2.14086 1.18505,-1.8524 1.37826,-11.58273 0.27844,-14.01475 -0.37826,-0.83649 -0.34239,-1.08226 0.10205,-0.69913 0.79855,0.6881 1.56946,-2.63867 1.04935,-4.52847 -0.19426,-0.709 -0.61953,-1.28907 -0.94325,-1.28907 -0.32344,0 -0.58814,-0.59554 -0.58814,-1.32346 0,-2.11697 -1.25502,-2.61871 -2.86728,-1.14616 -1.06926,0.97664 -1.82401,1.10309 -2.66562,0.44653 -0.64565,-0.5037 -2.258953,-0.89853 -3.585103,-0.87738 -4.016443,0.0641 -4.566213,-0.50114 -5.332693,-5.48261 -0.391694,-2.54561 -0.559733,-4.97185 -0.373716,-5.39162 0.186717,-0.41978 0.05742,-0.90185 -0.289089,-1.07129 -0.345157,-0.16939 -0.680288,-2.37448 -0.744777,-4.90019 -0.216647,-8.47226 -0.4308,-9.00082 -3.432742,-8.43953 -1.451962,0.27146 -2.830976,0.92433 -3.064282,1.45069 -0.283357,0.63916 -1.025108,0.52263 -2.232836,-0.35079 -0.994451,-0.71932 -1.652621,-0.95684 -1.462383,-0.5278 0.189273,0.42901 -0.709865,0.95183 -2.000476,1.16185 -3.326705,0.54141 -4.605292,-1.38299 -4.392927,-6.61159 0.2266,-5.579 -0.393401,-10.30056 -1.255212,-9.55817 -0.457908,0.39476 -0.447476,-0.0388 0.02973,-1.285565 1.130029,-2.9428 0.234067,-4.842697 -2.174266,-4.616509 -1.149379,0.10792 -2.428523,-0.09583 -2.842875,-0.452586 -0.414069,-0.356827 -0.933289,-0.242284 -1.153395,0.254457 -0.219125,0.496814 -1.278375,0.658546 -2.351303,0.359404 -1.151945,-0.321096 -1.950983,-0.156552 -1.950983,0.402042 0,0.553649 -1.116758,0.796006 -2.692725,0.584409 -1.480786,-0.198906 -3.295253,0.08819 -4.03235,0.638109 -0.97159,0.724964 -1.216858,0.722078 -0.892166,-0.0099 0.249763,-0.562997 0,-1.010032 -0.540296,-1.010032 -0.543621,0 -1.199225,0.475896 -1.457216,1.057566 -0.324692,0.732759 -0.741256,0.537812 -1.356285,-0.634779 -0.543622,-1.036069 -0.887734,-1.230004 -0.887734,-0.500083 0,0.727924 -0.421049,0.967013 -1.081156,0.613936 -0.594636,-0.317964 -1.816944,0.09374 -2.716365,0.915433 -0.899422,0.821524 -1.433019,1.037586 -1.186025,0.480015 0.246507,-0.557496 0.117034,-1.013695 -0.291585,-1.013695 -3.313001,0 -6.171014,7.626388 -6.082876,16.232168 0.03247,3.11864 0.374468,6.49496 0.761446,7.50293 0.51147,1.33207 0.496473,1.92893 -0.05459,2.18501 -1.105071,0.51361 1.448015,4.38796 2.891677,4.38796 0.647172,0 1.205445,-0.7192 1.247745,-1.60724 0.07228,-1.4919 0.09962,-1.48926 0.382766,0.0365 0.255497,1.37042 0.844116,1.57795 3.541336,1.2485 1.979056,-0.2416 3.082676,-0.0511 2.842601,0.49062 -0.219143,0.49349 0.221619,0.449 0.99377,-0.10027 4.080675,-2.90243 3.993784,-2.8711 3.555995,-1.28136 -0.279623,1.01588 -0.164314,1.2961 0.353862,0.85079 0.785838,-0.67701 1.127951,2.04032 0.85483,6.79173 -0.07228,1.26284 -0.08467,3.53594 -0.02486,5.05134 0.05945,1.51542 0.13196,3.52706 0.164315,4.47033 0.03247,0.94324 0.78881,2.38175 1.681038,3.19665 1.980021,1.80872 5.997242,2.32745 6.011407,0.77635 0,-0.75546 0.181805,-0.71759 0.564015,0.12185 0.310244,0.68202 1.972066,1.31295 3.778092,1.43419 1.820961,0.12223 3.224385,0.65823 3.224385,1.23146 0,0.55821 0.181744,1.26894 0.404885,1.57943 0.22162,0.31034 0.306237,2.18841 0.186717,4.17314 -0.122015,1.98474 0.08219,3.86843 0.450706,4.18594 0.448432,0.38645 0.433984,0.97346 -0.0422,1.77585 -0.526404,0.88402 -0.427835,1.59716 0.375706,2.71726 0.59914,0.83525 0.980093,1.63428 0.846408,1.77562 -1.110335,1.17336 -4.671577,2.24581 -6.831404,2.05719 -4.046311,-0.35339 -6.43979,0.5957 -6.654915,2.63883 -0.1021,0.98187 0.141922,2.33925 0.545081,3.01634 0.556822,0.93543 0.510984,1.16352 -0.191697,0.94969 -1.021702,-0.31137 -1.165348,3.34587 -0.304776,7.76675 0.30029,1.54312 0.201641,3.02717 -0.250038,3.78688 -0.408822,0.68712 -0.56996,1.88024 -0.357808,2.65135 0.278173,1.00974 -0.317985,1.73744 -2.129754,2.60075 -1.38365,0.65929 -2.812245,1.06413 -3.174538,0.89967 -1.259715,-0.57168 -5.714088,-0.0799 -6.775612,0.74835 -3.80153,2.96578 -2.04604,25.31665 1.991778,25.36097 0.587169,0.007 1.283347,0.31277 1.547346,0.68086 0.263927,0.368 0.877921,0.20897 1.364238,-0.35377 0.656365,-0.75957 0.884,-0.73778 0.884,0.0844 0,0.6091 0.370726,0.92567 0.823652,0.70355 0.452998,-0.22215 1.490598,-0.0601 2.305818,0.35993 0.835614,0.43061 2.200958,0.38302 3.129479,-0.10903 0.905853,-0.48011 1.646896,-0.52413 1.646896,-0.0978 0,0.81201 3.6153,0.49721 4.663553,-0.40613 0.333955,-0.28777 0.607075,-0.0371 0.607075,0.55679 0,0.60651 0.54556,0.88088 1.244781,0.62599 0.6845,-0.24957 1.648144,-0.10446 2.141159,0.32247 0.824483,0.71394 7.006706,0.58807 10.119994,-0.20583 z m -28.329383,-1.71374 c -0.181806,0 0.182496,0 0,0 z m 23.350809,-3.15166 c 0.697142,-1.17102 0.527581,-1.24488 -1.237314,-0.53929 -1.259706,0.50367 -1.898668,0.4876 -1.663831,-0.0416 0.20911,-0.47271 0.06706,-0.85943 -0.316738,-0.85943 -0.38373,0 -0.702194,0.51662 -0.707662,1.14804 0,0.71097 -0.194245,0.79841 -0.494261,0.22943 -0.656648,-1.24618 -4.107563,-1.68029 -4.107563,-0.5167 0,0.61928 -0.565059,0.63091 -1.689762,0.0348 -0.929547,-0.49258 -2.57969,-0.89565 -3.666792,-0.89565 -1.087447,0 -2.58814,-0.45593 -3.335199,-1.01324 -1.042582,-0.77782 -1.491775,-0.72445 -1.933014,0.22944 -0.482035,1.04182 -0.669777,1.03811 -1.160305,-0.0243 -0.321728,-0.69616 -0.893963,-0.99967 -1.271191,-0.67454 -0.384969,0.33149 -1.048527,-0.80535 -1.51092,-2.58871 -0.453688,-1.74893 -1.021914,-3.01007 -1.262962,-2.80255 -0.241535,0.20757 -0.313491,-1.35871 -0.161891,-3.48059 0.151937,-2.12186 0.614543,-4.14888 1.02717,-4.50445 0.412821,-0.3556 2.392151,-0.67705 4.398651,-0.71438 5.150348,-0.0958 5.953889,-0.24612 5.953889,-1.11302 0,-0.42091 0.43425,-0.76534 0.965158,-0.76534 1.409856,0 2.235295,-2.75392 1.926502,-6.42899 -0.658851,-7.84287 -0.698939,-11.09906 -0.141904,-11.57878 0.328903,-0.28324 0.424031,-1.27996 0.211666,-2.21449 -0.536845,-2.3581 1.598572,-5.77905 2.764893,-4.42952 0.566502,0.65538 0.862307,0.67345 0.862307,0.0528 0,-0.51967 0.592902,-0.72875 1.317772,-0.46455 0.724596,0.26416 1.317427,0.77891 1.317427,1.14379 0,1.09938 4.38047,0.53346 5.449956,-0.70406 1.053004,-1.21833 1.120006,-7.32906 0.117025,-10.68045 -0.347642,-1.1615 -0.253001,-1.91195 0.27167,-2.15576 0.568235,-0.26415 0.603067,-0.71299 0.119529,-1.52679 -0.377503,-0.63404 -0.80402,-4.83009 -0.948224,-9.32455 -0.144399,-4.49447 -0.292337,-8.29562 -0.329399,-8.447 -0.03734,-0.15134 -0.578719,0.12358 -1.203445,0.61094 -0.738062,0.57579 -1.573472,0.5597 -2.385454,-0.0459 -0.849858,-0.63405 -1.116051,-0.63162 -0.832694,0.007 0.556265,1.25485 -9.774361,1.8629 -10.55274,0.62111 -0.638183,-1.01871 -0.651667,-6.57687 -0.02495,-8.72504 0.221619,-0.7577 0.301052,-2.20423 0.174277,-3.21449 -0.126996,-1.0103 0.08219,-2.38497 0.466401,-3.05491 0.49827,-0.87127 0.464393,-1.41814 -0.119529,-1.92101 -0.448706,-0.38662 -0.76517,-1.07841 -0.702955,-1.53722 0.254249,-1.88144 -0.104585,-2.74407 -1.196182,-2.87487 -2.503248,-0.29991 -7.257425,-0.31136 -10.64516,-0.0243 -2.878955,0.24298 -3.795797,-0.0479 -4.77665,-1.51546 -2.222316,-3.3254 -1.193209,-13.40924 1.368583,-13.40924 0.434471,0 0.645863,-0.32457 0.469861,-0.7216 -0.400939,-0.90456 -0.305263,-0.9144 12.41255,-1.2756 l 10.523349,-0.29887 c 0,0 0.612818,6.76526 0.929078,7.62361 0.7228,1.96152 0.231502,4.04245 -0.785351,3.33509 -0.422102,-0.29333 -0.311005,0.0138 0.246498,0.68309 0.557733,0.66888 1.061736,2.21221 1.119731,3.42956 0.05742,1.2174 0.364798,2.45729 0.681049,2.75528 0.316473,0.29818 0.746785,1.19255 0.956178,1.9878 0.304511,1.15613 1.352816,1.41636 5.229071,1.29837 2.666325,-0.0813 5.512181,-0.64308 6.323942,-1.24866 1.387454,-1.03519 1.477601,-0.92061 1.505461,1.91615 0.169296,17.12545 0.926512,24.55611 2.515688,24.69326 3.91683,0.33809 9.262688,-0.72805 10.431487,-2.08026 0.617241,-0.71403 0.950718,-0.58307 1.245752,0.48933 0.28709,1.04287 0.71865,1.22885 1.49952,0.64621 1.31943,-0.98428 3.74574,1.12865 3.06346,2.66765 -0.249,0.56085 -0.12699,1.56812 0.2734,2.23838 0.83146,1.39672 0.27367,8.03375 -0.74949,8.91944 -0.36554,0.31622 -2.55454,0.36353 -4.864781,0.10521 -2.878681,-0.32214 -4.519428,-0.10102 -5.214093,0.70287 -0.83595,0.96697 -0.950701,0.94394 -0.654914,-0.13121 0.283153,-1.02783 -0.211666,-1.22832 -2.333121,-0.94625 -2.188014,0.29088 -2.608312,0.63982 -2.245054,1.86307 0.246516,0.82781 0.733859,5.39115 1.084191,10.14074 0.380696,5.16133 1.012934,9.15988 1.571693,9.93868 1.048315,1.46152 1.250514,2.47081 0.337415,1.68403 -0.328709,-0.28289 -0.451007,0.26589 -0.272165,1.21978 0.179249,0.95397 0.02495,2.00099 -0.362081,2.32672 -0.377998,0.32595 -0.531872,1.1572 -0.341838,1.84763 0.189193,0.69043 -0.04008,1.58753 -0.511205,1.99356 -1.273181,1.09679 -3.186022,1.11409 -3.186022,0.0277 0,-0.56725 -0.317703,-0.50558 -0.790607,0.15343 -0.434736,0.60615 -1.280869,1.10212 -1.880203,1.10212 -2.122004,0 -4.339896,4.01106 -4.79876,8.67921 -0.241534,2.44896 -0.731373,4.94566 -1.090154,5.54822 -0.358834,0.60258 -0.466675,1.35431 -0.239031,1.67047 0.637148,0.88842 -1.077706,5.94518 -2.224395,6.55859 -0.835136,0.44677 -0.873976,0.29921 -0.21409,-0.81064 z m 53.142029,3.70077 c 0.46365,-0.24819 1.82345,-0.0591 3.02164,0.41992 1.19819,0.47905 2.26365,0.51521 2.36775,0.0802 0.1046,-0.43481 1.43827,-0.46034 2.96489,-0.0566 2.85034,0.7535 6.34038,-0.52444 6.45913,-2.36506 0.27465,-4.25506 0.047,-16.84069 -0.32468,-18.02359 -0.31349,-0.9952 -0.0748,-1.6915 0.72211,-2.1065 1.90142,-0.99046 4.15484,-2.77115 4.15484,-3.28336 0,-0.25896 1.61233,-0.40256 3.58343,-0.319 3.39818,0.1444 3.60356,0.0243 3.97609,-2.34116 0.21664,-1.37133 0.25999,-6.01966 0.0971,-10.32969 -0.1619,-4.31006 -0.0847,-8.31 0.17178,-8.88885 0.34018,-0.76721 1.55856,-0.80731 4.49551,-0.14787 5.99657,1.3462 6.82345,0.94471 9.16457,-4.44842 1.74648,-4.0236 2.03216,-5.52273 1.91405,-10.04736 -0.23649,-9.08505 -3.34459,-15.83974 -7.28657,-15.83974 -1.25421,0 -2.28031,0.38315 -2.28031,0.85145 0,0.46835 -1.33416,0.74651 -2.96467,0.61818 -1.77561,-0.13988 -2.97062,0.16349 -2.97905,0.75576 0,0.544 -0.6113,-0.8449 -1.34087,-3.08642 -0.72937,-2.24151 -1.13549,-4.72128 -0.90239,-5.51054 0.23406,-0.78928 0.3755,-4.53475 0.31646,-8.32327 -0.122,-7.8722 -1.26019,-10.09052 -4.91406,-9.58407 -1.12153,0.15551 -2.57522,0.30893 -3.23063,0.34122 -0.69292,0.0347 -1.00441,0.48145 -0.744,1.06868 0.29904,0.6746 -0.0373,0.64716 -1.01695,-0.0826 -0.80526,-0.60093 -2.01617,-0.89148 -2.69043,-0.64564 -1.71492,0.62521 -2.73704,-1.45336 -2.19494,-4.46388 0.36229,-2.012 0.26815,-2.36494 -0.46593,-1.74842 -0.75998,0.6384 -0.77415,0.5221 -0.0822,-0.6697 0.56898,-0.97926 0.65014,-2.14143 0.25349,-3.62041 -0.32117,-1.19798 -0.34861,-3.00476 -0.0594,-4.01502 0.82919,-2.90731 0.7358,-6.180973 -0.15443,-5.414075 -0.54527,0.469779 -0.6155,0.149608 -0.24153,-1.093864 0.82975,-2.749654 0.762,-5.387577 -0.14191,-5.530759 -0.45293,-0.07178 -0.9716,-0.233946 -1.15284,-0.36007 -0.83866,-0.584446 -2.07224,-0.516055 -3.08939,0.171487 -0.64841,0.438168 -1.28612,0.361489 -1.52793,-0.183636 -0.22908,-0.514711 -0.69099,-0.698101 -1.02812,-0.407469 -0.33743,0.290521 -0.61351,0.192986 -0.61351,-0.216963 0,-0.410009 -1.92632,-0.744364 -4.28087,-0.74302 -2.35436,9.63e-4 -4.28142,0.376462 -4.28211,0.833587 0,0.457161 -0.54458,0.14613 -1.20793,-0.690811 -0.66363,-0.83709 -1.41608,-1.229844 -1.67234,-0.872771 -0.25598,0.357086 -2.60383,0.535752 -5.21685,0.397047 -10.96508,-0.582065 -10.38469,-0.73192 -9.71781,2.508431 0.2978,1.447781 0.33485,3.098303 0.0821,3.667862 -0.42153,0.950571 -0.35828,5.946714 0.20919,16.660514 0.12201,2.2731 0.25796,5.01463 0.30526,6.09226 0.0996,2.26179 2.52737,3.54098 3.83963,2.02268 0.61606,-0.71259 0.85779,-0.70816 0.85779,0.0173 0,0.69587 0.51024,0.73777 1.64718,0.13503 0.90591,-0.48014 1.64814,-0.57325 1.64939,-0.20688 0,0.36636 1.3372,0.70275 2.9684,0.74755 1.63121,0.0448 3.15713,0.34815 3.39091,0.67409 0.23407,0.32594 0.38594,5.5146 0.33839,11.5305 -0.0649,8.27356 0.13444,11.19303 0.81846,11.98533 1.32573,1.53376 5.63646,1.83083 8.33514,0.57437 2.47461,-1.15209 4.07892,-0.51483 5.65317,2.24523 0.57445,1.00737 0.58988,1.70142 0.0574,2.59567 -0.53684,0.90194 -0.50448,1.4122 0.1245,1.95426 0.59962,0.51666 0.63571,0.91942 0.12202,1.36183 -0.40115,0.34539 -0.7291,2.46367 -0.7291,4.70693 0,3.81934 -0.11453,4.08344 -1.81175,4.15262 -6.60307,0.26937 -9.77935,0.99344 -10.53457,2.40195 -0.53684,1.00106 -0.72631,3.75159 -0.55302,8.01933 0.14442,3.57267 0.32345,6.59904 0.39617,6.72531 0.0722,0.12636 0.15685,1.15955 0.18672,2.29607 0.0297,1.13654 0.33395,2.33201 0.67454,2.65655 1.4888,1.41807 -2.81695,3.04431 -8.11074,3.06344 l -5.58765,0.0208 -0.23407,4.48823 c -0.15933,3.04595 0.047,4.73845 0.64641,5.26687 0.6581,0.58139 0.67255,0.78223 0.0574,0.79275 -0.55779,0.01 -0.82352,1.64411 -0.82352,5.06541 0,3.39012 0.27091,5.07519 0.82352,5.12386 0.65885,0.058 0.65885,0.16523 0,0.53571 -0.5,0.28152 -0.82352,2.21444 -0.82352,4.92235 v 4.4591 l 5.98756,-0.0461 c 3.2931,-0.0243 6.26295,0.33808 6.60009,0.80788 0.60535,0.84402 5.94317,0.77395 7.57589,-0.0995 z m -2.33644,-5.14126 c -0.70344,0 -1.4467,-0.37871 -1.65187,-0.84158 -0.2042,-0.46291 -1.92755,-0.84327 -3.82719,-0.84532 -5.22783,-0.007 -6.0152,-0.11248 -6.95664,-0.94476 -1.1086,-0.97996 -1.40986,-3.68171 -0.70497,-6.32299 0.30333,-1.13656 0.31177,-2.06645 0.025,-2.06645 -0.63722,0 -0.77465,-2.30754 -0.33644,-5.65083 0.20669,-1.57462 0.9467,-2.76775 2.0929,-3.37322 1.93274,-1.02096 9.22259,-0.95977 10.42824,0.0874 1.51341,1.31454 2.0936,-1.68494 1.8155,-9.38705 -0.15437,-4.26894 -0.60334,-8.04023 -0.99855,-8.38066 -0.48928,-0.42161 -0.50021,-0.80671 -0.0345,-1.2079 0.37598,-0.3239 0.55751,-1.55818 0.40363,-2.74276 -0.25673,-1.97297 0,-2.19983 3.03962,-2.70192 1.82613,-0.3013 4.04526,-0.16385 4.93176,0.30613 0.8867,0.46984 2.05924,0.61501 2.60576,0.32249 1.11558,-0.59668 1.16266,-1.18958 1.26373,-15.94843 0.0748,-11.05386 -0.253,-12.52408 -3.14289,-14.06278 -0.90017,-0.47919 -1.13127,-0.3065 -0.86831,0.6485 0.30575,1.11024 0.10708,1.11967 -1.35235,0.0641 -0.94075,-0.68047 -3.16507,-1.22149 -4.94268,-1.2023 -1.77789,0.0208 -3.42154,-0.2291 -3.65311,-0.55164 -0.23159,-0.32249 -0.3753,-4.49544 -0.31972,-9.27295 0.0722,-6.19375 -0.1245,-8.69039 -0.68602,-8.70043 -0.47484,-0.007 -0.39645,-0.35819 0.19666,-0.88217 0.84516,-0.74468 0.79836,-1.06496 -0.32919,-2.25279 -1.24346,-1.31 -2.15933,-1.63751 -5.28404,-1.88999 -0.73385,-0.0593 -1.64765,-0.37799 -2.03089,-0.70825 -0.38346,-0.3301 -2.03837,-0.49027 -3.67752,-0.35564 -2.59885,0.21347 -2.94049,0.0312 -2.66757,-1.42322 0.17179,-0.91733 0.0249,-2.18235 -0.33444,-2.81106 -0.67551,-1.19361 -0.59214,-15.092345 0.0971,-16.052389 0.21664,-0.30304 0.3952,-0.07881 0.3952,0.497838 0,0.739184 0.48625,0.791097 1.6471,0.176002 0.90592,-0.480152 1.64717,-0.538811 1.64717,-0.130528 0,1.034528 2.97858,1.365269 7.08219,0.786373 1.17773,-0.166283 2.14116,0.0312 2.14116,0.439463 0,0.407839 1.40834,0.712383 3.12947,0.676837 1.72108,-0.03577 3.72231,0.06759 4.44691,0.229457 0.7264,0.162102 1.25405,-0.178765 1.17559,-0.759646 -0.16432,-1.214267 2.26047,-0.57173 2.8486,0.754996 0.20911,0.471394 0.32242,4.657737 0.25246,9.302997 -0.20413,13.55523 -0.0546,15.67269 1.18603,16.65267 0.61904,0.48941 3.79379,0.92418 7.05501,0.96618 l 5.92949,0.0765 0.8267,3.49721 c 0.45444,1.92347 0.85331,6.45507 0.88621,10.07021 0.047,5.30745 0.32317,6.97083 1.42928,8.63943 1.47809,2.22968 3.76919,2.78556 3.78536,0.91842 0,-0.77725 0.16681,-0.82778 0.49427,-0.15655 0.26621,0.54537 1.22507,0.9826 2.13099,0.97164 6.31216,-0.0765 8.56472,0.38768 8.56472,1.76468 0,0.90104 0.30523,1.17615 0.82342,0.74211 0.64392,-0.53911 0.64145,-0.37586 0,0.74785 -0.45917,0.79063 -0.64816,2.11511 -0.42025,2.94328 0.22898,0.82812 0,2.19974 -0.48289,3.04797 -0.51961,0.89338 -0.56969,1.26855 -0.11953,0.89175 1.45567,-1.21704 1.40763,0.74917 -0.0823,3.35327 -1.28058,2.23884 -1.98872,2.61803 -5.15733,2.76117 -2.02018,0.0913 -3.86623,0.43526 -4.10258,0.76446 -0.23656,0.32909 -1.33866,0.23503 -2.44996,-0.2093 -1.11128,-0.44435 -2.27485,-0.58883 -2.58563,-0.32109 -0.31073,0.26763 -0.56498,4.20257 -0.56498,8.74406 0,10.93654 -0.86154,13.40387 -4.58766,13.13863 -2.47456,-0.17599 -2.66804,-0.0277 -2.26614,1.7371 0.41379,1.81764 0.37426,1.83884 -0.68277,0.36528 -1.25695,-1.7522 -4.01169,-2.08981 -4.68353,-0.57405 -0.41533,0.93686 -1.16031,7.96901 -1.15982,10.94917 0,0.7577 0.22162,2.88798 0.49273,4.73396 0.37599,2.56341 0.28335,3.32283 -0.39244,3.21449 -0.48679,-0.0782 -0.93971,0.27145 -1.0067,0.77658 -0.0671,0.50514 0.29905,0.7985 0.813,0.65194 0.64297,-0.18327 0.80307,0.24679 0.51342,1.37762 -0.83686,3.26725 -1.70365,4.00844 -4.26938,3.65078 -1.84309,-0.25687 -2.53533,-0.007 -2.53533,0.91874 0,0.97318 -0.2996,1.04871 -1.27444,0.32143 -1.60804,-1.19971 -3.27063,-0.95065 -3.9738,-0.95065 z"
       id="path3373"
       sodipodi:nodetypes="ccscccsscccsscccsccsssssscccssscssccsccsssscsccssscscsssccsccscccscccssccscscscscsccssccsssssssssssccsscscsccssssscccccsssssscssssssscccsscccccscsccssscscccsssscsscsccssccscsccccccscscscscccsccscssccccsscsssccccscscssscscscscsccsccscsscccssscscccsscssscsccsccccccsscscccccsccssscsscsscccccssscssccsscscccssssssscsscscccscsssscccccscsssssssscssssssss" />
    <path
       style="opacity:0.930349;fill:#ff0000;stroke-width:1.72743"
       d="m 58.176783,212.81105 c -3.563932,-1.00368 -6.899405,-7.64654 -5.464564,-10.88305 0.487043,-1.09856 3.01932,-1.99739 5.627277,-1.99739 6.602742,0 8.253045,-3.19131 8.253045,-15.95955 v -11.06462 l 4.332553,1.20794 c 6.730994,1.87668 8.5685,-2.1992 7.84746,-17.40697 -0.846345,-17.85026 -0.614879,-17.44053 -9.260139,-16.39193 l -7.592442,0.9209 0.346209,-7.87485 c 0.652693,-14.84629 0.703344,-14.75395 -8.461145,-15.42143 -6.715574,-0.48909 -8.498668,-1.34646 -8.89912,-4.27886 -0.985799,-7.21886 2.430885,-9.58994 13.818982,-9.58994 10.461011,0 10.793745,0.15308 10.793745,4.96612 0,2.73137 0.642076,7.32038 1.426834,10.1978 1.241463,4.55196 2.286929,5.23167 8.046785,5.23167 h 6.61995 l 0.01991,8.66813 c 0.03849,16.7207 0.72441,17.90649 10.025813,17.33385 8.007484,-0.49303 8.255544,-0.34764 8.705294,5.10131 0.45596,5.52423 0.34019,5.60879 -7.681018,5.60879 -9.11589,0 -9.457888,0.8638 -6.760049,17.07383 1.685463,10.12711 0.823785,12.96744 -4.421151,14.57338 -3.538575,1.08344 -4.590729,2.9091 -6.242837,10.83232 l -1.986965,9.52923 -7.899705,0.27566 c -4.344842,0.15161 -9.382499,-0.14192 -11.194781,-0.65234 z"
       id="path3375" />
    <path
       style="opacity:0.930349;fill:#ff0000;stroke-width:1.72743"
       d="m 121.24605,212.72468 c -5.537,-0.70334 -6.12789,-1.33613 -6.80925,-7.292 -0.96407,-8.427 2.27651,-12.31698 8.849,-10.62235 l 4.75492,1.22598 v -12.32977 -12.32978 h 5.85221 5.85221 v -14.02717 c 0,-13.38529 -1.72211,-19.33917 -5.33244,-18.43582 -0.68822,0.1722 -3.02742,0.20441 -5.19823,0.0717 -3.70391,-0.22667 -3.97417,-0.90084 -4.38916,-10.94924 l -0.44221,-10.70769 -7.021,-1.89011 -7.02098,-1.89013 0.43725,-8.30767 c 0.2405,-4.56923 0.93105,-8.078244 1.53455,-7.7978 0.6035,0.280456 5.7059,0.509888 11.33865,0.509888 h 10.24136 V 110.972 c 0,14.11316 0.89277,15.43786 10.4506,15.50672 4.32164,0.031 5.64298,3.16416 5.64298,13.38004 0,7.08197 3.22858,11.51489 7.01228,9.62799 1.04038,-0.51883 3.50928,-0.3773 5.48644,0.31445 2.80026,0.97976 3.59485,2.5861 3.59485,7.26736 0,5.67141 -0.41165,6.08569 -7.31527,7.36235 -7.24737,1.34024 -7.31546,1.42132 -7.33766,8.73839 -0.0298,9.83168 -1.16938,11.84609 -7.66196,13.54404 -5.30004,1.38609 -5.49043,1.73282 -5.70256,10.38502 -0.1207,4.92307 -0.28528,10.09826 -0.36577,11.50047 -0.15311,2.6682 -4.44114,5.31079 -8.19308,5.04917 -1.20701,-0.0842 -4.923,-0.49961 -8.25773,-0.92322 z"
       id="path3377" />
    <path
       style="opacity:0.930349;fill:#ffffff;stroke-width:0.215928"
       d="m 71.529833,220.90599 c -0.402328,-0.14012 -1.410404,-0.30743 -2.240178,-0.37183 -1.413095,-0.10964 -1.515725,-0.15624 -1.620027,-0.7357 -0.128421,-0.7133 -0.261389,-0.74048 -1.260476,-0.25776 -1.330115,0.64263 -3.072218,0.76765 -3.818499,0.27394 -0.676564,-0.44753 -0.855848,-0.43718 -2.72539,0.15737 -0.933148,0.29676 -1.206941,0.28262 -2.328813,-0.12026 -0.699239,-0.25111 -1.583575,-0.42514 -1.965192,-0.38673 -0.826261,0.0831 -1.140832,-0.14023 -1.140832,-0.81012 0,-0.6275 -0.330151,-0.62205 -0.914417,0.0151 -0.553478,0.60351 -0.719589,0.61565 -1.804257,0.13183 -0.466136,-0.20789 -1.060471,-0.43486 -1.320727,-0.50433 -0.802595,-0.21424 -1.419182,-1.11523 -2.068893,-3.02318 -2.175716,-6.38929 -2.294369,-17.92882 -0.218195,-21.21789 0.785572,-1.24452 2.34856,-1.67381 5.932168,-1.62933 2.854854,0.0355 4.302878,-0.35968 5.924498,-1.61674 0.768275,-0.59555 0.952691,-1.12296 0.778715,-2.22713 -0.08555,-0.54305 0.0138,-1.14859 0.352146,-2.14552 0.566634,-1.66973 0.577021,-2.17469 0.108425,-5.2697 -0.633839,-4.18659 -0.437974,-6.34858 0.575154,-6.34858 0.627823,0 0.631972,-0.1015 0.05733,-1.4022 -0.633184,-1.43314 -0.61364,-2.88296 0.05052,-3.74179 0.826758,-1.06913 1.580824,-1.27246 5.532167,-1.49159 2.938021,-0.16294 4.040712,-0.32464 5.097201,-0.7473 1.485927,-0.59451 2.400955,-1.17606 2.400955,-1.52592 0,-0.12517 -0.370354,-0.8324 -0.822989,-1.57163 -0.916691,-1.49711 -0.975332,-1.85329 -0.4572,-2.77671 0.460341,-0.82042 0.454369,-1.12832 -0.03999,-2.06044 -0.373344,-0.704 -0.402443,-1.01325 -0.364328,-3.87243 0.03557,-2.66924 -0.01637,-3.33218 -0.368832,-4.70191 -0.481946,-1.87337 -0.629557,-1.98484 -3.145891,-2.37523 -2.842839,-0.44104 -3.82655,-0.8371 -4.182526,-1.68386 -0.194856,-0.46351 -0.676732,-0.4453 -0.676732,0.0254 0,0.68653 -0.731098,0.97524 -2.0901,0.82535 -2.223766,-0.24523 -4.156754,-1.51987 -5.000639,-3.29749 l -0.498845,-1.05079 -0.02407,-7.667 c -0.02628,-8.38667 -0.108523,-9.21519 -0.893724,-9.00592 -0.506568,0.13497 -0.537304,0.0208 -0.264193,-0.98052 0.104329,-0.38253 0.120042,-0.79255 0.03495,-0.91124 -0.08511,-0.11865 -1.110211,0.43381 -2.277966,1.22771 -2.043306,1.38912 -2.135558,1.4262 -2.451862,0.98525 -0.29324,-0.40878 -0.585523,-0.44396 -2.712358,-0.32652 -3.010958,0.16627 -3.224217,0.0898 -3.566781,-1.27894 -0.314614,-1.25703 -0.554274,-1.39053 -0.554274,-0.30872 0,0.93706 -0.568907,1.78463 -1.197827,1.78463 -0.68726,0 -1.377306,-0.58105 -2.240692,-1.88684 -0.803037,-1.21446 -0.971112,-2.02895 -0.473656,-2.29508 0.343342,-0.18365 0.280835,-1.17893 -0.18139,-2.88886 -0.498022,-1.84229 -0.743096,-6.81285 -0.490812,-9.95497 0.56928,-7.0903 3.103308,-12.802818 5.679256,-12.802818 0.503906,0 0.546878,0.06179 0.443274,0.637345 -0.06308,0.350585 -0.06016,0.637394 0.0062,0.637394 0.0668,0 0.672326,-0.411663 1.34573,-0.914804 1.081741,-0.80829 1.341439,-0.901546 2.230182,-0.800779 1.216274,0.13794 1.463047,0.03675 1.463047,-0.600183 0,-0.711298 0.1645,-0.610334 0.865385,0.531126 0.344386,0.560901 0.711767,1.019789 0.816379,1.019789 0.104612,0 0.476717,-0.350672 0.82689,-0.779306 0.835719,-1.022921 1.633192,-0.98275 1.553529,0.0782 -0.06361,0.847277 0.03167,0.858402 1.172409,0.137052 0.787333,-0.497912 1.209789,-0.565784 3.602808,-0.579031 2.614814,-0.01443 2.722187,-0.03589 3.030599,-0.605906 0.307528,-0.568337 0.383466,-0.584001 1.985895,-0.409245 1.521334,0.165938 1.722179,0.133402 2.311295,-0.374168 0.548558,-0.472591 0.707927,-0.508852 1.064018,-0.241913 0.23037,0.172659 1.355418,0.385786 2.500135,0.473602 1.97917,0.15184 2.102512,0.194133 2.514599,0.861966 0.527378,0.854727 0.545011,1.61034 0.07405,3.176068 -0.523281,1.739761 -0.525741,1.925151 -0.02566,1.943391 0.76425,0.0277 0.963928,1.39153 1.103567,7.53684 0.135958,5.98342 0.217912,6.47548 1.287416,7.73003 0.32985,0.38692 0.909127,0.72657 1.423888,0.83491 1.179567,0.24827 3.343622,-0.27287 3.717347,-0.89518 0.281675,-0.46904 0.319763,-0.46252 1.463046,0.25127 1.399151,0.87349 1.874957,0.91777 2.499736,0.23266 0.92177,-1.01077 4.189693,-1.86242 4.955138,-1.29137 0.837525,0.62485 0.994805,1.59898 1.302209,8.06432 0.164802,3.4665 0.374424,4.90084 0.765445,5.23775 0.103143,0.0888 0.211029,1.12371 0.239756,2.29968 0.0591,2.42155 0.637564,6.0942 1.203331,7.64018 0.540366,1.47658 1.210187,1.79247 4.290138,2.02331 1.672625,0.12539 2.845674,0.34304 3.383304,0.62783 1.49875,0.79383 1.75039,0.77412 3.33315,-0.26129 1.37764,-0.90125 1.51037,-0.94172 1.95286,-0.59555 0.34976,0.27362 0.52443,0.6976 0.66345,1.61024 0.12885,0.84569 0.30294,1.29824 0.54867,1.42612 0.76198,0.39656 1.09178,1.2425 1.08554,2.78444 -0.007,1.85725 -0.44876,2.93706 -1.10615,2.70704 -0.5381,-0.18826 -0.54341,-0.087 -0.0673,1.28398 0.48658,1.40116 0.73312,5.5534 0.5205,8.76576 -0.18898,2.85503 -0.40479,3.87559 -1.10293,5.21582 -0.2883,0.55345 -0.52417,1.25271 -0.52417,1.55391 0,0.65191 -0.36962,1.14253 -1.41006,1.87167 -1.02642,0.71933 -2.24794,0.69323 -4.59098,-0.0981 -1.037391,-0.35038 -2.176835,-0.63703 -2.532112,-0.63703 -1.811822,0 -2.891412,3.10747 -3.099964,8.92306 -0.09574,2.66954 -0.06432,3.10297 0.35081,4.84397 0.250771,1.05162 0.509957,2.71516 0.57595,3.69669 0.218142,3.24391 0.483601,5.58571 0.838082,7.39339 0.390977,1.99365 0.333672,2.66833 -0.332708,3.91824 -0.61011,1.14431 -1.619469,1.72364 -3.606576,2.07004 -3.78334,0.65951 -5.121735,1.0327 -5.654616,1.57666 -0.431029,0.43999 -0.626097,0.4965 -1.012173,0.29333 -0.475478,-0.25015 -0.478363,-0.24408 -0.49704,1.04396 -0.01026,0.71258 -0.236527,2.45724 -0.502658,3.87699 -0.532412,2.84029 -1.011261,7.33573 -1.016809,9.54593 -0.008,3.13426 -0.979499,5.50863 -2.483536,6.06904 -1.912576,0.71267 -8.306749,1.02614 -9.864552,0.48362 z m 5.464865,-4.86463 c 0.994266,-1.47155 1.655514,-3.64582 1.681711,-5.52966 0.01424,-1.03342 0.143824,-1.97539 0.343927,-2.50268 0.176497,-0.46506 0.512655,-2.16209 0.746997,-3.7712 0.528758,-3.63044 0.719872,-4.47247 1.394648,-6.14422 0.917142,-2.27217 2.542159,-3.89178 3.910078,-3.89696 0.206084,0 0.740513,-0.32376 1.1876,-0.7177 l 0.812893,-0.71629 0.305343,0.52509 c 0.622346,1.0701 3.415233,0.20778 3.724345,-1.14996 0.06715,-0.29499 0.07255,-0.90451 0.01194,-1.35452 -0.08547,-0.63536 -0.0053,-1.01488 0.360639,-1.69871 0.412255,-0.77108 0.456589,-1.04282 0.356817,-2.18638 -0.112876,-1.29406 -0.109691,-1.30469 0.353525,-1.18124 0.617401,0.1645 0.601086,-0.26113 -0.05477,-1.42789 -0.287206,-0.51094 -0.606554,-1.15843 -0.709644,-1.43889 -0.366231,-0.99622 -0.790323,-4.28056 -1.340997,-10.38491 -0.306935,-3.40258 -0.67658,-6.91065 -0.821439,-7.79573 -0.144851,-0.88506 -0.263371,-1.71241 -0.263371,-1.8385 0,-0.31383 1.113326,-0.67895 2.662635,-0.87322 1.703485,-0.21359 1.950965,-0.0713 1.801921,1.03625 -0.122731,0.91207 0.08494,1.13249 0.465252,0.49374 0.120838,-0.20297 0.587911,-0.56504 1.037971,-0.80466 0.716333,-0.38138 1.272969,-0.41447 4.467618,-0.26567 4.710443,0.21943 4.991813,0.15733 5.460983,-1.20522 0.43238,-1.25576 0.78955,-4.90914 0.62354,-6.37789 -0.0651,-0.57637 -0.27819,-1.47769 -0.4734,-2.00301 -0.28182,-0.75833 -0.31715,-1.10636 -0.17142,-1.68905 0.49156,-1.96577 -1.60974,-3.75831 -3.33422,-2.84429 -0.6185,0.3278 -0.93989,0.12525 -1.20223,-0.7577 -0.30448,-1.02471 -0.644908,-1.11203 -1.526723,-0.39163 -1.412484,1.15397 -4.584315,1.91624 -8.107531,1.94852 -2.646647,0.0242 -2.818473,-0.0899 -3.268365,-2.17232 -0.648031,-2.99946 -0.832491,-5.88937 -1.319294,-20.67021 -0.153238,-4.65257 -0.149327,-4.64369 -1.657682,-3.74554 -1.347614,0.80241 -3.515678,1.16402 -7.072036,1.17949 -3.673879,0.016 -3.903328,-0.0656 -4.460531,-1.5876 -0.190803,-0.52111 -0.510709,-1.15402 -0.710926,-1.40641 -0.353314,-0.44544 -0.644846,-1.64069 -0.856458,-3.51147 -0.05671,-0.50108 -0.343927,-1.44048 -0.638316,-2.08759 -0.521291,-1.14592 -0.525201,-1.17864 -0.149256,-1.25602 0.665424,-0.13693 0.784643,-1.27757 0.350712,-3.35519 -0.209437,-1.0027 -0.523211,-3.18063 -0.697275,-4.83982 l -0.316491,-3.01669 -5.130467,0.16399 c -11.645964,0.37224 -17.420427,0.62984 -17.720815,0.79053 -0.190689,0.102 -0.296796,0.38225 -0.264795,0.69938 0.04194,0.41532 -0.07423,0.56612 -0.539835,0.70092 -0.784192,0.22703 -1.088721,0.61024 -1.593741,2.0054 -0.642837,1.77595 -0.88554,3.73353 -0.800162,6.45434 0.0993,3.16533 0.72357,5.06718 1.98701,6.05338 l 0.817246,0.63794 6.590338,-0.0882 c 7.162616,-0.096 8.017083,0.0173 8.313136,1.10297 0.09099,0.33364 0.120529,0.9923 0.06565,1.46372 -0.08617,0.74022 -0.0088,0.98053 0.568412,1.76188 l 0.668203,0.90475 -0.467569,1.22589 c -0.386412,1.01309 -0.46757,1.57112 -0.46757,3.21504 0,1.09401 -0.12343,2.64982 -0.274323,3.45732 -0.2788,1.49221 -0.371194,5.72095 -0.157546,7.21022 0.06423,0.44767 0.303847,0.98484 0.532509,1.19368 0.585355,0.53467 4.385292,0.73957 7.137003,0.38485 2.418012,-0.31175 3.369492,-0.65427 3.369492,-1.21301 0,-0.31399 0.0691,-0.31477 0.502914,-0.006 1.028983,0.73296 1.630423,0.75105 2.681011,0.0805 l 0.992674,-0.63354 0.100117,1.18742 c 0.05503,0.65304 0.148858,2.73621 0.208437,4.62915 0.215895,6.85889 0.60596,11.06217 1.133595,12.21598 0.26621,0.58211 0.255231,0.6429 -0.199607,1.10479 -0.576233,0.58514 -0.592831,1.07666 -0.109133,3.22792 0.742671,3.3031 0.637891,8.30254 -0.198484,9.46848 -0.500499,0.69773 -2.25099,1.32555 -3.79101,1.35966 -1.10415,0.0244 -1.376554,-0.05 -1.52443,-0.4164 -0.447061,-1.10789 -2.379836,-1.69871 -2.818872,-0.86167 -0.213249,0.40654 -0.269015,0.40732 -0.863624,0.0123 -0.551717,-0.36677 -0.703176,-0.37642 -1.146955,-0.0733 -0.281215,0.19211 -0.765657,0.79079 -1.076555,1.33045 -0.522486,0.9069 -0.565254,1.13049 -0.565254,2.95511 0,1.292 -0.08617,2.11918 -0.249515,2.39437 -0.368381,0.62072 -0.454502,3.2243 -0.216462,6.54408 0.389455,5.43114 0.440656,7.81073 0.194458,9.03653 -0.270439,1.34656 -0.971342,2.43598 -1.567287,2.43598 -0.650933,0 -1.010183,0.27428 -1.181372,0.90201 -0.199916,0.73296 -0.598307,0.81572 -4.935168,1.02506 -3.797363,0.18331 -5.065156,0.42978 -5.522736,1.07367 -0.484282,0.6814 -0.878108,3.24723 -0.878108,5.72094 0,1.77152 0.05468,2.24094 0.261079,2.24094 0.216532,0 1.384844,2.93762 1.384844,3.48213 0,0.0915 0.21578,0.56083 0.479531,1.04285 0.377158,0.68937 0.577189,0.85038 0.93712,0.75448 0.339574,-0.0905 0.639183,0.10668 1.161429,0.76441 l 0.703787,0.88638 0.537544,-0.82041 c 0.603129,-0.92058 0.814645,-0.92323 2.581451,-0.0327 0.553203,0.27892 1.885724,0.62909 2.961147,0.77816 1.07545,0.1491 2.583725,0.52878 3.351753,0.8438 l 1.396425,0.5727 0.305883,-0.53485 c 0.168242,-0.29418 0.541516,-0.61203 0.829491,-0.70634 0.702521,-0.23006 2.364105,0.27434 2.923156,0.88735 0.612304,0.67142 0.782467,0.62584 1.00644,-0.26981 0.212949,-0.85156 0.758942,-1.04579 0.758942,-0.26997 0,0.74511 0.181089,0.7859 1.631263,0.36748 0.733027,-0.21149 1.378598,-0.32065 1.434584,-0.24259 0.056,0.0781 -0.03477,0.35247 -0.201854,0.60974 -0.819582,1.26254 0.197501,1.47737 1.04636,0.22106 z"
       id="path3379" />
    <path
       style="opacity:0.930349;fill:#ffffff;stroke-width:0.215928"
       d="m 71.781154,220.84738 c -0.04618,-0.0644 -0.6977,-0.18219 -1.447812,-0.26175 -1.871188,-0.19851 -2.231358,-0.33246 -2.579213,-0.95915 l -0.300963,-0.54219 -1.44068,0.45869 c -1.019331,0.32453 -1.733584,0.40625 -2.442263,0.27939 -0.550859,-0.0987 -1.577666,-0.15507 -2.281753,-0.12543 -2.568233,0.10804 -3.498284,0.0878 -4.663465,-0.10163 -1.790676,-0.29113 -1.977454,-0.37335 -2.103282,-0.92597 -0.142116,-0.62423 -0.443336,-0.64289 -1.157191,-0.0718 -0.51907,0.41529 -0.615206,0.41327 -1.88937,-0.0396 -1.717109,-0.61037 -2.158879,-1.05554 -2.855553,-2.8777 -1.304156,-3.41099 -1.980153,-8.56941 -1.821633,-13.90014 0.21939,-7.37696 1.299502,-9.10544 5.699658,-9.12116 3.947645,-0.0141 6.637061,-0.71949 7.861245,-2.06188 0.391162,-0.42893 0.472391,-0.72925 0.472391,-1.74639 0,-0.67929 0.161713,-1.72514 0.361736,-2.33972 0.438541,-1.34728 0.459943,-2.69548 0.08679,-5.47131 -0.155644,-1.15784 -0.258504,-2.88377 -0.228609,-3.83534 0.05132,-1.63364 0.08502,-1.752 0.603015,-2.12131 0.301759,-0.21508 0.583178,-0.42011 0.625389,-0.45556 0.0422,-0.0355 -0.11445,-0.63343 -0.348066,-1.32885 -0.72848,-2.16819 -0.454599,-3.4754 0.894891,-4.27109 0.395029,-0.2329 2.09163,-0.49831 4.629269,-0.72412 4.034836,-0.3591 4.733571,-0.5131 6.494308,-1.43148 0.638784,-0.33316 0.962476,-0.64643 0.961167,-0.93017 0,-0.23532 -0.329363,-1.00147 -0.729559,-1.70256 -0.79358,-1.39023 -0.870128,-1.81417 -0.463022,-2.56446 0.37199,-0.68562 0.34451,-1.48261 -0.08494,-2.46454 -0.312111,-0.71361 -0.365178,-1.28645 -0.365762,-3.94827 0,-3.42133 -0.374804,-5.5055 -1.101293,-6.13645 -0.20703,-0.17985 -1.340271,-0.50132 -2.518298,-0.71441 -2.529729,-0.4576 -3.398564,-0.7811 -3.813182,-1.41979 -0.407335,-0.62747 -0.91962,-0.59568 -1.176319,0.073 -0.1949,0.50765 -0.313535,0.53499 -1.789535,0.41239 -2.317081,-0.19248 -4.114366,-1.33955 -5.025014,-3.20707 l -0.456333,-0.93585 -0.08759,-7.77581 c -0.04822,-4.27672 -0.147124,-8.03397 -0.219903,-8.34947 -0.08853,-0.38386 -0.277208,-0.57362 -0.570332,-0.57362 -0.410636,0 -0.430507,-0.0656 -0.317729,-1.04876 0.116485,-1.01564 0.106444,-1.04305 -0.317888,-0.86686 -0.240995,0.10015 -1.257521,0.69958 -2.258927,1.33228 -1.465957,0.92618 -1.884202,1.09509 -2.146378,0.86686 -0.19736,-0.17185 -1.303855,-0.28352 -2.809042,-0.28352 -1.429197,0 -2.640136,-0.11692 -2.852625,-0.27546 -0.203066,-0.15151 -0.486804,-0.66777 -0.630512,-1.14724 -0.322295,-1.07529 -0.555655,-1.10938 -0.713997,-0.10435 -0.168163,1.06726 -0.558583,1.52703 -1.296706,1.52703 -0.514151,0 -0.816335,-0.25036 -1.632883,-1.3529 -0.933245,-1.2601 -1.325646,-2.47127 -0.800657,-2.47127 0.269811,0 0.131393,-1.72302 -0.307262,-3.82419 -0.536995,-2.57232 -0.49313,-9.52876 0.07874,-12.49228 0.561582,-2.90995 1.480777,-5.51033 2.51421,-7.112676 0.967573,-1.500273 1.635643,-2.065342 2.441697,-2.065342 0.435807,0 0.557742,0.111497 0.557742,0.509888 0,0.678576 0.181399,0.646953 1.463056,-0.254963 0.874976,-0.615711 1.318338,-0.764813 2.274356,-0.764813 1.021375,0 1.216434,-0.07536 1.39425,-0.538515 0.201128,-0.523912 0.221495,-0.513576 0.751279,0.382394 0.647748,1.09553 0.917532,1.134258 1.821023,0.261426 0.788811,-0.762076 1.323488,-0.728429 1.407105,0.08856 0.07051,0.688937 0.204597,0.694425 1.496057,0.06105 0.793305,-0.389018 1.512636,-0.495001 3.40435,-0.501563 2.116182,-0.0074 2.45327,-0.06833 2.863507,-0.518213 0.391986,-0.429806 0.741919,-0.509888 2.228332,-0.509888 1.227166,0 1.928307,-0.118897 2.305889,-0.391115 0.418271,-0.301522 0.698965,-0.334379 1.225361,-0.143478 0.375547,0.136201 1.459632,0.328706 2.409076,0.427783 1.45949,0.152296 1.79157,0.271181 2.148856,0.769253 0.524546,0.731242 0.540746,1.70521 0.0568,3.416674 -0.452095,1.598918 -0.457686,1.493578 0.09471,1.786368 0.253284,0.13421 0.546692,0.56013 0.652056,0.94647 0.105382,0.38634 0.299238,3.29152 0.430817,6.45597 0.261707,6.29497 0.36754,6.88399 1.425711,7.93614 0.52459,0.52157 0.808213,0.59372 2.334519,0.59372 1.381447,0 1.889767,-0.10631 2.481289,-0.51865 l 0.74391,-0.51865 0.993469,0.5705 c 1.278127,0.73401 1.815476,0.73189 2.874071,-0.0111 1.672156,-1.17407 4.30064,-1.57171 4.843916,-0.73281 0.436878,0.67462 0.652985,2.3074 0.94096,7.10981 0.197785,3.29856 0.355021,4.65388 0.641687,5.53109 0.208835,0.63902 0.379687,1.6694 0.379687,2.28972 0,3.0009 0.927955,7.80254 1.693514,8.76299 0.60397,0.75775 0.881505,0.84575 3.884368,1.23183 1.508771,0.19401 3.103338,0.53045 3.543468,0.74768 1.14605,0.56566 1.70112,0.49704 3.24995,-0.40181 1.67307,-0.97096 2.07343,-0.83324 2.42171,0.8329 0.14703,0.7034 0.47206,1.39806 0.88574,1.89298 0.57331,0.68588 0.66224,0.95177 0.72476,2.16702 0.0879,1.70872 -0.21707,2.62875 -0.90854,2.74061 -0.57017,0.0923 -0.62614,0.49338 -0.22117,1.58508 0.15263,0.41147 0.37199,1.95455 0.48749,3.42911 0.25954,3.31357 -0.0155,7.61261 -0.58304,9.11099 -0.20067,0.52985 -0.53599,1.45095 -0.74517,2.0469 -0.20918,0.59594 -0.44269,1.25164 -0.51889,1.45712 -0.0762,0.20549 -0.49406,0.63573 -0.9286,0.95605 -1.00661,0.74208 -2.44133,0.76603 -4.67376,0.0781 -3.040511,-0.93698 -3.952611,-0.63082 -4.731397,1.58821 -1.024675,2.91961 -1.345474,8.76323 -0.654277,11.91834 0.199678,0.91144 0.489529,3.08032 0.644138,4.81976 0.154617,1.73943 0.448166,4.23749 0.652339,5.55123 0.388888,2.50213 0.356233,3.05326 -0.252117,4.25677 -0.568881,1.12544 -1.650489,1.63279 -5.004621,2.34755 -1.694399,0.36108 -3.448845,0.88168 -3.898737,1.1569 -0.4499,0.27519 -1.025992,0.46685 -1.280188,0.42586 -0.394294,-0.0636 -0.469816,0.0377 -0.514363,0.69028 -0.02867,0.42068 -0.178886,1.62529 -0.333716,2.67693 -0.154821,1.05166 -0.435727,2.95527 -0.62424,4.23024 -0.188512,1.27496 -0.434285,3.85629 -0.546178,5.73624 -0.169614,2.85053 -0.286002,3.65088 -0.700832,4.81973 -0.667884,1.88184 -1.396877,2.42708 -3.724982,2.7861 -1.743537,0.26882 -7.500659,0.3866 -7.665522,0.15677 z M 77.19849,215.833 c 0.907587,-1.40045 1.357789,-2.89598 1.544709,-5.13147 0.08494,-1.01583 0.250497,-2.18836 0.367938,-2.60561 0.117414,-0.41727 0.49404,-2.39329 0.836932,-4.39118 0.675439,-3.93567 1.203666,-5.6612 2.206939,-7.20928 0.678854,-1.04748 1.938233,-2.0453 2.581486,-2.0453 0.209481,0 0.82881,-0.32849 1.376298,-0.72994 0.889839,-0.65252 1.015216,-0.68633 1.182123,-0.31869 0.230414,0.50761 2.118376,0.52999 2.805335,0.0333 0.892016,-0.64502 1.089305,-1.05653 1.090544,-2.27468 0,-0.73995 0.135073,-1.45321 0.364576,-1.93631 0.246135,-0.51811 0.363744,-1.19661 0.364567,-2.10329 0,-1.16793 0.04778,-1.33848 0.366956,-1.33848 0.530306,0 0.451812,-0.59669 -0.260238,-1.97836 -0.764109,-1.48265 -1.014279,-2.91645 -1.65662,-9.49414 -0.267024,-2.73429 -0.644465,-6.33383 -0.838808,-7.99899 -0.194316,-1.66517 -0.353313,-3.17489 -0.353313,-3.355 0,-0.40359 2.164525,-0.95043 3.309966,-0.83618 0.760411,0.0758 0.808028,0.12603 0.862174,0.90885 0.05592,0.8079 0.430392,1.12359 0.675926,0.56975 0.06308,-0.14235 0.407194,-0.42915 0.764648,-0.63736 0.510453,-0.29732 1.557529,-0.37935 4.879572,-0.38229 3.01653,-0.004 4.36081,-0.0953 4.68687,-0.32286 0.98938,-0.69056 1.64087,-6.30574 0.9974,-8.59648 -0.17725,-0.63099 -0.33451,-1.72086 -0.34949,-2.42198 -0.0534,-2.50461 -0.8444,-3.33606 -2.96122,-3.1129 l -1.32566,0.13978 -0.38087,-0.89986 c -0.434511,-1.02669 -0.527117,-1.02595 -2.303938,0.018 -1.566261,0.92024 -4.093619,1.46417 -7.044211,1.51602 -3.052249,0.0537 -3.093222,0.0196 -3.629394,-3.01919 -0.451423,-2.5583 -0.663761,-5.67843 -0.945251,-13.89016 -0.12259,-3.57563 -0.27105,-6.55847 -0.32993,-6.62857 -0.05884,-0.0702 -0.107018,-0.80456 -0.107018,-1.63213 0,-1.39565 -0.03203,-1.51143 -0.442336,-1.59836 -0.243261,-0.0516 -0.903421,0.12874 -1.467011,0.40063 -1.354639,0.65354 -3.996819,1.04524 -7.050528,1.04524 -2.869267,0 -3.558261,-0.26845 -4.038305,-1.5733 -0.171702,-0.46679 -0.500366,-1.16301 -0.730329,-1.54723 -0.229971,-0.38418 -0.512089,-1.35936 -0.626964,-2.16702 -0.114866,-0.80768 -0.418077,-2.0797 -0.673821,-2.82677 l -0.465012,-1.35825 0.386173,-0.37708 c 0.462606,-0.45169 0.494766,-1.33987 0.122103,-3.37069 -0.14523,-0.79144 -0.392543,-2.52888 -0.549576,-3.86096 -0.157024,-1.33211 -0.328868,-2.78667 -0.381864,-3.23239 l -0.09635,-0.81044 -1.96014,0.11002 c -1.078069,0.0606 -5.540033,0.22504 -9.915469,0.36556 -10.311939,0.33112 -11.172193,0.41277 -11.295836,1.07186 -0.05459,0.29112 -0.435665,0.70866 -0.899952,0.98607 -0.706644,0.42227 -0.87671,0.6924 -1.389038,2.20622 -0.532014,1.57195 -0.589735,1.98839 -0.650552,4.69327 -0.09986,4.43988 0.389986,6.33816 2.001449,7.75629 l 0.705122,0.62052 h 6.84978 c 6.724678,0 7.670344,0.0997 8.010077,0.84451 0.07591,0.16649 0.139356,0.81354 0.140878,1.43785 0.0027,0.91992 0.109761,1.28896 0.566987,1.94658 l 0.564201,0.81148 -0.321551,0.8578 c -0.403328,1.07603 -0.793579,5.52759 -0.926167,10.56478 -0.100825,3.83124 -0.09972,3.84554 0.359135,4.58901 l 0.46027,0.74576 h 3.993404 c 4.156497,0 5.945846,-0.30574 6.249579,-1.06232 0.140798,-0.35079 0.216196,-0.34895 0.724498,0.0173 0.748148,0.53932 1.598847,0.50881 2.547371,-0.0914 0.425199,-0.2691 0.80885,-0.40867 0.85253,-0.31012 0.04371,0.0986 0.171728,2.41494 0.28456,5.14759 0.3214,7.7845 0.612702,10.92225 1.187246,12.78847 0.09022,0.29307 0.01239,0.51534 -0.248622,0.71005 -0.487679,0.36386 -0.486883,1.12835 0.0044,4.00583 0.429711,2.51779 0.425269,6.77855 -0.0088,8.02539 -0.272766,0.78426 -1.155793,1.3897 -2.549626,1.74804 -1.671174,0.42969 -2.467921,0.33051 -3.014162,-0.3752 -0.830614,-1.07314 -2.50032,-1.41148 -2.881954,-0.58398 -0.07228,0.15664 -0.361461,0.12402 -0.782635,-0.0883 -0.588097,-0.29642 -0.741397,-0.28167 -1.280975,0.12339 -1.059878,0.79572 -1.44898,1.80669 -1.580515,4.1066 -0.06423,1.12323 -0.222973,2.42763 -0.352773,2.89866 -0.236289,0.85772 -0.224468,2.01782 0.111168,10.90584 0.06432,1.70173 0.06149,3.50529 -0.0062,4.00787 -0.178754,1.32823 -0.873198,2.34537 -1.830755,2.68149 -0.520291,0.18264 -0.852645,0.45933 -0.923018,0.76846 -0.156838,0.68885 -0.489219,0.76368 -4.669914,1.05164 -2.061991,0.14202 -4.189065,0.3818 -4.726829,0.53289 -0.923203,0.25938 -0.999442,0.34099 -1.365929,1.46248 -0.311155,0.9522 -0.396622,1.76329 -0.43087,4.08887 -0.04008,2.72404 -0.01566,2.95045 0.40032,3.71074 0.243658,0.44533 0.621293,1.37701 0.839205,2.0704 0.635149,2.02105 1.030036,2.66287 1.638403,2.66287 0.354482,0 0.773363,0.29938 1.238446,0.88511 l 0.702779,0.8851 0.520689,-0.75764 c 0.590415,-0.85906 0.980941,-0.92569 2.120933,-0.36179 0.440133,0.21772 1.870082,0.62481 3.177697,0.90467 2.774767,0.5939 3.004225,0.65828 4.17567,1.1716 0.880293,0.38571 0.885929,0.38448 1.40921,-0.31443 0.482061,-0.64384 0.609801,-0.68953 1.549318,-0.55436 0.563166,0.081 1.312207,0.38442 1.66453,0.6742 0.836587,0.6881 1.131135,0.6646 1.384473,-0.11051 0.254682,-0.77931 0.515619,-0.81857 0.65079,-0.0979 0.107532,0.57329 0.09389,0.5729 2.333484,0.0687 0.604271,-0.13604 0.691754,-0.1057 0.502915,0.17446 -0.390411,0.57916 -0.278615,1.25693 0.207304,1.25693 0.278783,0 0.68181,-0.3794 1.117917,-1.05233 z"
       id="path3381" />
    <path
       style="opacity:0.930349;fill:#ffffff;stroke-width:0.215928"
       d="m 123.00646,219.95885 c -0.5557,-0.10435 -1.19475,-0.32728 -1.42013,-0.49544 -0.64344,-0.48006 -3.78348,-0.77555 -8.34065,-0.78488 l -4.18742,-0.009 0.10432,-3.63297 c 0.11159,-3.88675 0.32074,-5.17731 0.87909,-5.42434 0.48147,-0.21303 0.4393,-0.59618 -0.0969,-0.88035 -0.59771,-0.31679 -0.74681,-1.40017 -0.71986,-5.23158 0.0229,-3.27318 0.22355,-4.43195 0.80367,-4.64341 0.45966,-0.16756 0.46172,-0.45819 0.006,-0.90279 -0.19644,-0.19181 -0.44334,-0.6647 -0.54866,-1.05084 -0.21568,-0.79087 -0.24913,-3.72 -0.0752,-6.58788 l 0.11623,-1.91676 4.68441,-0.15299 c 2.57642,-0.0841 5.12309,-0.26595 5.6593,-0.40405 2.50126,-0.64428 3.9817,-1.62813 3.59714,-2.39063 -0.10059,-0.19945 -0.32012,-0.63687 -0.48787,-0.97204 -0.75678,-1.51211 -1.33724,-16.23919 -0.7204,-18.27775 0.51853,-1.71362 2.58431,-2.43768 8.22164,-2.88175 3.05767,-0.24084 3.64591,-0.35269 3.9433,-0.74984 0.29031,-0.38768 0.37159,-0.9986 0.47957,-3.60539 0.13415,-3.23839 0.29317,-4.18991 0.79777,-4.77368 0.42734,-0.49442 0.36296,-0.8742 -0.25637,-1.51253 l -0.54976,-0.56665 0.43342,-1.13499 c 0.56851,-1.48876 0.45814,-2.12399 -0.63911,-3.67787 -0.65217,-0.92361 -1.1567,-1.37917 -1.84143,-1.66262 -1.21539,-0.50317 -1.18131,-0.50588 -3.4371,0.2737 -3.03982,1.05048 -6.76932,0.84581 -7.93793,-0.43565 -0.25412,-0.27866 -0.55565,-0.93164 -0.67008,-1.45109 -0.13104,-0.59481 -0.25399,-4.79013 -0.33212,-11.33242 -0.10822,-9.06093 -0.16171,-10.44042 -0.41871,-10.79871 -0.21914,-0.30547 -0.99758,-0.49563 -3.03744,-0.74193 -1.50854,-0.18219 -2.91101,-0.45671 -3.11658,-0.61008 -0.51776,-0.38631 -1.02692,-0.34995 -2.17682,0.15534 -1.0206,0.4485 -1.12212,0.40765 -1.39612,-0.56172 -0.0407,-0.14397 -0.39603,-0.005 -0.81646,0.31869 -0.40941,0.3155 -1.05726,0.57321 -1.43966,0.57268 -0.76931,0 -1.75587,-0.71851 -2.05329,-1.49316 -0.3242,-0.84453 -0.9547,-15.08731 -0.86671,-19.579396 0.0435,-2.221203 0.139,-4.471206 0.21223,-4.999989 0.0874,-0.631388 0.022,-1.619578 -0.19074,-2.878591 -0.25443,-1.506107 -0.27613,-1.983237 -0.10117,-2.225372 0.16861,-0.233391 1.90389,-0.28629 7.14636,-0.217789 4.9278,0.06438 7.10934,0.0049 7.56768,-0.205812 0.69564,-0.320073 0.98132,-0.17789 2.28346,1.13644 0.58965,0.595188 0.62813,0.601553 1.0895,0.180356 0.41195,-0.376055 0.99483,-0.436589 4.20422,-0.436589 3.33957,0 3.75026,0.04637 3.96024,0.446802 0.17618,0.335995 0.37884,0.406507 0.81727,0.284267 0.45603,-0.127136 0.66219,-0.04403 0.94675,0.381778 0.44579,0.667044 0.45966,0.667205 1.98572,0.02084 l 1.2358,-0.52327 1.43368,0.523504 c 0.78852,0.287881 1.49896,0.666786 1.57873,0.841924 0.26343,0.578353 0.15654,2.636813 -0.2151,4.142661 -0.48859,1.979672 -0.47415,2.202135 0.13715,2.11295 0.48209,-0.07043 0.50535,-0.0206 0.56141,1.201316 0.035,0.76289 -0.10542,2.12702 -0.34975,3.39732 -0.37587,1.95439 -0.38891,2.24727 -0.1644,3.69669 0.36579,2.36135 0.32915,3.50057 -0.1423,4.42356 -0.57431,1.12434 -0.52644,1.45572 0.14078,0.97475 0.5161,-0.37205 0.54864,-0.36696 0.54864,0.0861 0,0.26491 -0.0771,1.04899 -0.17152,1.7424 -0.22563,1.6587 0.018,3.10888 0.65025,3.86907 0.44332,0.53308 0.61968,0.5821 1.60977,0.44746 0.8696,-0.11828 1.33113,-0.0369 2.11778,0.37352 1.7194,0.89698 1.86538,0.91185 1.73305,0.17674 -0.15569,-0.86474 -0.004,-0.91797 3.18218,-1.1184 2.62024,-0.16484 2.73743,-0.15044 3.47445,0.427 0.9541,0.74755 1.58756,2.45053 1.8445,4.9587 0.24764,2.41746 0.23785,8.9607 -0.0171,11.50518 -0.19022,1.8976 -0.17341,2.22959 0.1994,3.94066 0.43659,2.00376 1.51146,5.1795 1.85254,5.47337 0.11434,0.0985 0.27796,0.0208 0.36364,-0.17224 0.1159,-0.26143 0.83369,-0.38585 2.80518,-0.48627 2.49973,-0.12734 2.67661,-0.17057 3.13032,-0.76485 0.42513,-0.55688 0.64346,-0.62991 1.88356,-0.62991 1.73446,0 2.75102,0.62499 4.08162,2.50937 1.06747,1.51179 2.33873,4.97212 2.79847,7.61755 0.4388,2.52467 0.6497,6.62419 0.46004,8.94231 -0.17875,2.18483 -0.83066,4.35927 -2.19383,7.31758 -2.03168,4.40903 -2.80335,4.718 -8.95573,3.5859 -3.53233,-0.64998 -4.06399,-0.5716 -4.39665,0.64809 -0.11421,0.41882 -0.16489,4.11182 -0.13387,9.75621 0.0443,8.06549 0.0155,9.18833 -0.25809,10.02928 -0.19255,0.59207 -0.46672,0.99574 -0.73152,1.07705 -0.23295,0.0715 -1.74028,0.16271 -3.34964,0.20262 l -2.9261,0.0725 -1.0214,1.02214 c -0.56177,0.56213 -1.73572,1.4658 -2.60882,2.00813 -1.76542,1.09663 -1.9424,1.4458 -1.5802,3.11778 0.13325,0.61507 0.25093,4.07514 0.31294,9.20116 0.1132,9.35906 0.14549,9.12325 -1.38164,10.09256 -0.71617,0.45457 -1.20581,0.54249 -3.04783,0.54722 -1.20703,0.004 -2.77818,-0.0342 -3.4915,-0.0829 -0.85648,-0.0585 -1.42791,0.0254 -1.68274,0.24733 -0.31993,0.27852 -0.58258,0.27627 -1.53775,-0.0131 -1.95792,-0.5932 -3.0582,-0.69551 -4.13985,-0.38491 -1.42253,0.40851 -4.48115,0.61549 -5.70345,0.38602 z m 9.1486,-4.42699 c 0,-0.18353 0.11702,-0.55639 0.26003,-0.82858 0.23238,-0.44224 0.49346,-0.49488 2.45495,-0.49488 1.93619,0 2.25584,-0.0625 2.7118,-0.53075 0.67857,-0.69674 1.51305,-2.82192 1.51846,-3.86706 0.004,-0.77543 -0.0361,-0.82855 -0.62504,-0.82855 -1.07538,0 -0.99834,-0.93412 0.10274,-1.24547 0.53775,-0.15204 0.62572,-0.28636 0.67745,-1.03431 0.0327,-0.47275 -0.0815,-1.90278 -0.25385,-3.17782 -0.38144,-2.82246 -0.38062,-5.55417 0.003,-9.37235 0.45784,-4.55869 0.6462,-5.35827 1.38859,-5.89456 1.07528,-0.7768 2.81172,-0.20194 4.08025,1.35072 0.37325,0.45685 0.72759,0.76243 0.78743,0.67902 0.0598,-0.0834 0.0115,-0.69038 -0.10747,-1.34882 -0.27855,-1.54201 -0.18997,-1.61749 1.90665,-1.62427 2.09405,-0.007 2.84997,-0.30646 3.54116,-1.4039 0.9957,-1.58087 1.23887,-3.70701 1.47268,-12.8755 0.0947,-3.71581 0.22807,-6.95679 0.29629,-7.20218 0.15985,-0.5751 1.18507,-0.59118 2.70414,-0.0424 1.12727,0.40722 1.90856,0.38157 3.41584,-0.11212 0.45262,-0.14825 1.98455,-0.379 3.4043,-0.51276 2.96306,-0.27921 3.63949,-0.62 4.73024,-2.38325 1.40722,-2.27488 1.7629,-4.16123 0.78092,-4.14162 -0.59451,0.0123 -0.5904,0.0307 -0.18287,-0.83644 0.23771,-0.50585 0.32009,-1.20844 0.32025,-2.73167 2e-4,-1.71767 0.067,-2.18132 0.41149,-2.85493 0.55659,-1.08834 0.53732,-1.43197 -0.059,-1.05316 -0.50802,0.32267 -0.80126,0.0123 -0.80707,-0.8556 -0.003,-0.25076 -0.31436,-0.59693 -0.78005,-0.86363 -0.61903,-0.35456 -1.59627,-0.47967 -4.80064,-0.61472 -4.06431,-0.17125 -4.64613,-0.312 -5.13866,-1.24311 -0.25043,-0.47348 -0.62211,-0.18458 -0.62211,0.48352 0,0.28466 -0.19474,0.62401 -0.45182,0.78727 -1.04148,0.66153 -3.22667,-1.36572 -3.93045,-3.64641 -0.34739,-1.1257 -0.43698,-2.06172 -0.58055,-6.06604 -0.0934,-2.60417 -0.29104,-5.88215 -0.43926,-7.28436 -0.24252,-2.29377 -1.049,-6.37626 -1.34151,-6.79072 -0.063,-0.0892 -2.62451,-0.28796 -5.69234,-0.44172 -5.84087,-0.29272 -6.96622,-0.4921 -7.62163,-1.35029 -0.76743,-1.00483 -0.85622,-2.45364 -0.86968,-14.19309 l -0.0126,-11.048366 -0.50584,-0.606646 c -0.97161,-1.165191 -2.69457,-1.407684 -2.69457,-0.379225 0,0.255974 -0.10289,0.519866 -0.22861,0.586407 -0.12573,0.0666 -1.9261,0.04391 -4.00085,-0.0502 -2.91639,-0.132428 -3.87053,-0.25986 -4.20613,-0.561715 -0.72924,-0.656018 -1.23711,-0.717501 -3.74679,-0.453757 -2.96751,0.311833 -5.052,0.02898 -5.57708,-0.756637 -0.38014,-0.568818 -0.84534,-0.538403 -2.26322,0.148054 -0.65722,0.318173 -0.75154,0.309502 -0.96013,-0.08819 -0.12723,-0.242518 -0.2313,-0.533766 -0.2313,-0.647175 0,-0.11347 -0.11387,-0.206232 -0.25301,-0.206232 -0.35721,0 -0.45769,0.68261 -0.67541,4.589006 -0.25437,4.563636 -0.0665,9.846266 0.42037,11.821876 0.25371,1.02949 0.33583,1.83246 0.26305,2.57265 -0.0655,0.66603 -0.025,1.18859 0.10616,1.37152 0.14146,0.19717 1.10485,0.29549 2.89562,0.29549 1.96794,0 2.89708,0.10607 3.48389,0.39784 0.44013,0.21883 1.78781,0.55345 2.99484,0.7436 1.207,0.19018 2.44147,0.4753 2.74321,0.6336 0.88188,0.46261 2.28529,1.887 2.28566,2.31988 1.9e-4,0.219 -0.25174,0.65801 -0.55985,0.97559 l -0.56022,0.57738 0.46878,0.60564 c 0.25784,0.33311 0.47828,0.6398 0.4899,0.68153 0.0117,0.0418 0.0745,3.82906 0.13976,8.41623 0.0807,5.6756 0.18493,8.43275 0.32616,8.62963 0.12053,0.16806 1.38416,0.3849 3.01494,0.51743 3.20948,0.26083 4.41205,0.55303 5.80171,1.40978 1.34863,0.83145 1.48602,0.80123 1.35799,-0.29856 l -0.10532,-0.90472 0.97087,0.51426 c 1.27254,0.67407 2.12591,1.85639 2.49385,3.45525 0.58607,2.54657 0.50456,23.74165 -0.0973,25.30942 -0.35701,0.92992 -1.30636,1.18073 -2.6247,0.69345 -1.58972,-0.58755 -4.13737,-0.74996 -6.09091,-0.38829 -2.50933,0.46459 -2.53859,0.49808 -2.64784,3.03068 -0.0719,1.66637 -0.15988,2.17291 -0.41148,2.3687 -0.41363,0.32193 -0.40335,0.59719 0.0545,1.46045 0.59484,1.12163 0.95059,4.85471 0.97538,10.23583 0.0234,5.08965 -0.0882,6.39942 -0.60734,7.12309 -0.32389,0.45147 -0.36556,0.4514 -1.33012,-0.004 -2.16045,-1.01678 -8.67042,-0.8673 -10.46658,0.24031 -1.45034,0.89433 -2.11332,2.94799 -2.11332,6.54619 0,1.30467 0.0756,1.74998 0.36576,2.15447 0.44235,0.61666 0.45022,0.91871 0.0712,2.73601 -0.37866,1.81576 -0.27503,4.1498 0.22671,5.10699 0.77355,1.47564 1.37174,1.65805 6.08962,1.85682 4.42973,0.18662 4.69626,0.23913 5.53315,1.08967 0.37532,0.38146 0.93417,0.53969 2.37747,0.67313 1.32042,0.1221 2.13385,0.33461 2.70978,0.70806 0.95391,0.61853 1.64592,0.72064 1.64592,0.24289 z"
       id="path3383" />
    <path
       style="opacity:0.930349;fill:#ffffff;stroke-width:0.215928"
       d="m 121.82226,219.41016 c -1.15223,-0.48715 -1.85138,-0.55389 -6.99521,-0.66741 -5.14932,-0.11371 -5.71443,-0.1677 -5.7086,-0.54565 0.004,-0.23072 0.0815,-1.93583 0.17323,-3.78915 0.16278,-3.28849 0.34893,-4.32259 0.85285,-4.73748 0.3634,-0.29918 0.30172,-0.88508 -0.11243,-1.06835 -0.51338,-0.22712 -0.73574,-1.62222 -0.73186,-4.59152 0.004,-3.0485 0.20975,-4.46679 0.71643,-4.9388 0.48525,-0.452 0.47316,-0.68951 -0.0817,-1.6088 -0.44254,-0.7332 -0.4571,-0.87727 -0.45439,-4.49833 0.003,-2.05747 0.0709,-3.89059 0.15417,-4.0736 0.11373,-0.24993 1.36385,-0.39114 5.02485,-0.56755 4.98922,-0.24037 6.49869,-0.52214 8.10524,-1.5128 0.89016,-0.54892 0.97247,-0.94126 0.45006,-2.14585 -0.18961,-0.43722 -0.43477,-1.54063 -0.54485,-2.45206 -0.34846,-2.88613 -0.61836,-9.10343 -0.54252,-12.49723 0.0628,-2.80868 0.12435,-3.35418 0.4322,-3.82836 0.89698,-1.38174 2.42031,-1.86129 7.64896,-2.40782 2.0979,-0.21933 3.96662,-0.51231 4.15267,-0.65112 0.38126,-0.28447 0.45194,-0.75628 0.70225,-4.68699 0.13654,-2.1443 0.26391,-2.94704 0.55463,-3.49518 0.48713,-0.91855 0.47549,-1.19887 -0.0836,-2.0124 l -0.46097,-0.67075 0.38512,-1.21375 c 0.48562,-1.53039 0.30968,-2.24883 -0.93177,-3.8048 -1.41929,-1.77889 -2.55781,-2.04508 -5.14643,-1.20328 -2.9384,0.9556 -6.0582,0.90256 -7.48673,-0.12723 -1.0681,-0.77001 -1.10014,-1.06403 -1.28786,-11.81637 -0.0945,-5.41181 -0.2298,-10.34865 -0.30071,-10.9708 -0.15391,-1.35029 -0.1047,-1.32477 -3.69511,-1.91755 -1.3579,-0.22419 -2.75695,-0.46697 -3.10899,-0.53955 -0.35205,-0.0725 -1.11613,0.005 -1.69797,0.17146 -0.96989,0.27816 -1.07893,0.26325 -1.3111,-0.17939 -0.23102,-0.44041 -0.30672,-0.45147 -0.86238,-0.12584 -1.79567,1.05233 -3.41315,0.32601 -3.64769,-1.63794 -0.35443,-2.96816 -0.59463,-9.61723 -0.62604,-17.33015 -0.0195,-4.767449 -0.0965,-9.253764 -0.17138,-9.969526 l -0.13608,-1.301404 0.70585,-0.154493 c 0.38822,-0.08498 3.93557,-0.171315 7.88299,-0.191912 l 7.17718,-0.0375 0.93502,0.836448 c 0.84964,0.760053 0.97081,0.803295 1.32684,0.473578 0.29726,-0.275301 1.26594,-0.382925 4.01465,-0.445938 3.05942,-0.07018 3.69128,-0.0206 4.06268,0.318691 0.24191,0.220958 0.72069,0.401746 1.06395,0.401746 0.3468,0 0.73113,0.179715 0.86492,0.40446 0.27072,0.454731 0.99187,0.406149 2.41063,-0.162349 0.76966,-0.30838 1.0107,-0.295824 2.10315,0.109523 0.67861,0.25183 1.33673,0.576601 1.46246,0.721683 0.31532,0.36382 0.28873,2.704068 -0.0457,4.02554 -0.41867,1.654197 -0.36764,2.29449 0.18287,2.29449 0.42934,0 0.45736,0.08165 0.45956,1.338467 0.003,0.736136 -0.13697,2.168716 -0.30722,3.183496 -0.27388,1.63247 -0.28219,2.12268 -0.0722,4.25511 0.22629,2.29766 0.21929,2.46209 -0.15,3.52554 -0.57303,1.65015 -0.52718,1.97805 0.2007,1.435 0.37373,-0.27881 0.37873,-0.25115 0.25609,1.41754 -0.15711,2.13788 -0.009,3.26206 0.53796,4.08489 0.38136,0.57367 0.57347,0.64565 1.7227,0.64565 0.82465,0 1.67064,0.18481 2.33412,0.50989 1.34402,0.65853 1.65395,0.64737 1.72643,-0.0622 0.0774,-0.75767 0.58471,-0.89016 3.55187,-0.92749 2.21077,-0.0277 2.444,0.0147 3.01475,0.55098 0.34025,0.31964 0.79845,1.02807 1.01824,1.57424 0.72199,1.79433 0.85718,3.7699 0.74714,10.91802 -0.0984,6.38875 -0.0881,6.66158 0.31258,8.30247 0.22785,0.93313 0.67827,2.42512 1.00089,3.31548 0.51371,1.41773 0.6362,1.59686 0.98621,1.44208 0.65081,-0.28779 1.19758,-0.38041 3.51629,-0.59568 1.87926,-0.17446 2.28637,-0.29119 2.77605,-0.79588 0.51055,-0.52621 0.72158,-0.57804 1.91262,-0.46963 1.61792,0.14727 2.47731,0.71411 3.65774,2.41266 2.10193,3.02448 3.44927,8.69808 3.43909,14.48201 -0.005,3.15805 -1.03876,6.90891 -2.84569,10.33065 -1.61116,3.05099 -2.49798,3.36002 -7.40473,2.58034 -4.00935,-0.63708 -4.55831,-0.65649 -5.02824,-0.17797 -0.33784,0.34405 -0.35942,0.83373 -0.44643,10.13407 -0.11171,11.93726 0.0168,11.27292 -2.23061,11.51682 -0.83515,0.0906 -2.32637,0.16545 -3.31378,0.16629 -1.66373,0 -1.84229,0.0516 -2.43676,0.6836 -0.35281,0.37515 -1.52005,1.32163 -2.59386,2.10329 l -1.95239,1.42123 0.0406,1.27471 c 0.0222,0.70112 0.0926,5.11802 0.15618,9.81541 0.11501,8.49701 0.11356,8.54421 -0.2812,9.23949 -0.66809,1.17669 -1.77591,1.43278 -6.49933,1.50259 -2.5536,0.0377 -4.78111,-0.0571 -5.66931,-0.24132 -1.04623,-0.21697 -1.77568,-0.22951 -2.56034,-0.044 -0.6035,0.1427 -2.12601,0.31641 -3.3833,0.38604 -1.97529,0.1094 -2.46004,0.053 -3.5662,-0.41469 z m 10.50619,-4.14723 c 0.22566,-0.82741 0.50226,-0.92706 2.57289,-0.92706 0.99106,0 2.00515,-0.10768 2.2535,-0.23934 0.97011,-0.51417 1.95627,-2.67403 1.91526,-4.19473 -0.0222,-0.82255 -0.0846,-0.92779 -0.63516,-1.0718 -0.80685,-0.21101 -0.77009,-0.44808 0.14741,-0.9505 l 0.75796,-0.41505 -0.11328,-1.98187 c -0.0623,-1.09004 -0.19972,-2.84231 -0.30542,-3.89396 -0.26261,-2.61335 0.15422,-9.10019 0.74925,-11.65973 0.54843,-2.35906 2.61154,-2.45635 4.72707,-0.22285 0.34645,0.36576 0.7068,0.665 0.80081,0.665 0.0994,0 0.11999,-0.53502 0.0492,-1.27912 -0.0892,-0.93725 -0.0588,-1.30943 0.1136,-1.39245 0.12943,-0.0623 1.14975,-0.21329 2.26736,-0.33546 3.75741,-0.41075 4.09801,-1.37828 4.46083,-12.67209 0.1036,-3.22505 0.23584,-6.59542 0.29382,-7.48969 l 0.10549,-1.62594 1.2174,0.15628 c 0.66956,0.086 1.65928,0.23127 2.19942,0.32287 0.54011,0.0916 1.52768,0.0339 2.19457,-0.12824 0.6669,-0.16213 2.37645,-0.45406 3.79898,-0.64868 3.3105,-0.45295 3.96087,-0.83185 5.0863,-2.96304 1.15756,-2.19206 1.35307,-3.5985 0.52323,-3.76402 -0.37716,-0.0752 -0.3835,-0.11964 -0.13531,-0.94786 0.14327,-0.4779 0.26075,-1.64698 0.26113,-2.59797 0,-1.27801 0.0959,-1.94682 0.36577,-2.56381 0.52667,-1.20421 0.48177,-1.60705 -0.15923,-1.42831 -0.45065,0.12564 -0.54093,0.0538 -0.64274,-0.51162 -0.21965,-1.22005 -0.88092,-1.43667 -5.47585,-1.79387 -3.98495,-0.30975 -5.24439,-0.60002 -5.24439,-1.20865 0,-0.52442 -0.69971,-0.17061 -0.80358,0.40634 -0.34532,1.91801 -2.93273,0.39561 -4.007,-2.3577 -0.44374,-1.13729 -0.53637,-1.75291 -0.68738,-4.56874 -0.48969,-9.13168 -0.7194,-11.33154 -1.55442,-14.88582 l -0.2769,-1.17871 -1.59321,0.0616 c -0.87625,0.0338 -1.38746,-0.0176 -1.13601,-0.11458 0.25147,-0.0969 -1.18872,-0.25907 -3.20042,-0.36039 -4.64387,-0.23395 -6.63082,-0.55016 -7.22381,-1.14969 -0.92848,-0.93869 -0.97432,-1.54645 -1.05602,-14.00163 l -0.0757,-11.548571 -0.71093,-0.655857 c -0.39102,-0.360724 -1.07983,-0.713814 -1.53068,-0.784659 -0.74855,-0.117663 -0.83874,-0.07067 -1.03856,0.540698 -0.21433,0.655821 -0.25459,0.669301 -1.97254,0.661654 -2.83966,-0.0127 -6.22333,-0.426906 -6.54778,-0.801666 -0.22286,-0.257405 -1.23222,-0.337784 -4.24152,-0.337784 -3.93446,0 -4.28938,-0.06525 -5.18096,-0.951867 -0.25633,-0.254925 -0.55474,-0.228987 -1.54945,0.134709 l -1.23199,0.450464 -0.30167,-0.557533 c -0.41709,-0.770857 -0.83098,-0.4645 -0.96394,0.713456 -0.0606,0.536579 -0.16223,3.270112 -0.22592,6.074486 -0.0971,4.2741 -0.0642,5.47007 0.20281,7.39342 0.17527,1.26199 0.37005,3.09759 0.43288,4.07912 l 0.11425,1.7846 2.83467,0.19251 c 1.55906,0.10582 3.36958,0.36066 4.02339,0.56624 0.65379,0.20559 2.07815,0.54964 3.16521,0.76459 2.0081,0.39708 2.67512,0.72428 3.73855,1.83404 0.74111,0.77333 0.74513,1.10786 0.0222,1.8528 l -0.57204,0.58958 0.57204,0.62411 0.57205,0.6241 0.011,4.12438 c 0.0131,4.91505 0.25529,12.86632 0.39796,13.06519 0.0556,0.0776 1.57067,0.31514 3.36662,0.52777 2.60957,0.30897 3.58878,0.5362 4.87596,1.13152 0.88584,0.4097 1.72416,0.74495 1.86295,0.74495 0.14539,0 0.27663,-0.32268 0.30963,-0.76143 l 0.0573,-0.76139 0.91442,0.60018 c 1.07114,0.70308 1.59866,1.43697 2.04005,2.83819 0.28131,0.89303 0.32869,2.16047 0.3906,10.44927 0.0703,9.41891 -0.1044,14.61473 -0.51473,15.30397 -0.35717,0.59996 -1.31586,0.69186 -2.78975,0.26747 -2.99043,-0.86113 -8.57934,-0.23718 -8.07457,0.90138 0.0551,0.12434 0.0213,0.22608 -0.0748,0.22608 -0.0963,0 -0.23325,0.80692 -0.30429,1.79311 -0.071,0.98624 -0.244,1.95322 -0.38433,2.14885 -0.3406,0.47482 -0.32196,0.86644 0.0957,2.00836 0.59592,1.62944 0.81851,4.3118 0.82849,9.98373 0.01,5.42826 -0.12823,6.7855 -0.72109,7.10263 -0.13191,0.0706 -0.63871,-0.059 -1.12627,-0.28796 -1.32578,-0.62253 -8.31971,-0.61789 -9.77857,0.006 -1.94338,0.83178 -2.72083,2.71128 -2.72083,6.57763 0,1.71418 0.0659,2.29413 0.29016,2.55356 0.21596,0.24991 0.2626,0.59996 0.18235,1.36967 -0.0593,0.5687 -0.15359,2.00919 -0.20959,3.20103 -0.0839,1.78454 -0.0434,2.32455 0.22911,3.05934 0.59597,1.60695 1.16056,1.80216 6.2837,2.17267 4.13181,0.29883 4.61663,0.38145 5.20346,0.88707 0.46591,0.40141 1.22232,0.65221 2.70082,0.89551 1.1295,0.18588 2.34168,0.51475 2.69374,0.73081 0.97264,0.59703 1.62327,0.52916 1.81932,-0.18975 z"
       id="path3385" />
  </g>
</svg>
