<?xml version="1.0" encoding="UTF-8" standalone="no"?>
<svg
   xmlns:dc="http://purl.org/dc/elements/1.1/"
   xmlns:cc="http://creativecommons.org/ns#"
   xmlns:rdf="http://www.w3.org/1999/02/22-rdf-syntax-ns#"
   xmlns:svg="http://www.w3.org/2000/svg"
   xmlns="http://www.w3.org/2000/svg"
   xmlns:sodipodi="http://sodipodi.sourceforge.net/DTD/sodipodi-0.dtd"
   xmlns:inkscape="http://www.inkscape.org/namespaces/inkscape"
   width="132.29164mm"
   height="132.29167mm"
   viewBox="0 0 132.29164 132.29167"
   version="1.1"
   id="svg19999"
   inkscape:version="1.0 (b51213c273, 2020-08-10)">
  <defs
     id="defs19993" />
  <sodipodi:namedview
     id="base"
     pagecolor="#ffffff"
     bordercolor="#666666"
     borderopacity="1.0"
     inkscape:pageopacity="0.0"
     inkscape:pageshadow="2"
     inkscape:zoom="0.35"
     inkscape:cx="248.28212"
     inkscape:cy="114.12469"
     inkscape:document-units="mm"
     inkscape:current-layer="layer1"
     inkscape:document-rotation="0"
     showgrid="false"
     inkscape:snap-global="false"
     fit-margin-top="0"
     fit-margin-left="0"
     fit-margin-right="0"
     fit-margin-bottom="0"
     showborder="false"
     inkscape:window-width="1318"
     inkscape:window-height="704"
     inkscape:window-x="48"
     inkscape:window-y="27"
     inkscape:window-maximized="1" />
  <metadata
     id="metadata19996">
    <rdf:RDF>
      <cc:Work
         rdf:about="">
        <dc:format>image/svg+xml</dc:format>
        <dc:type
           rdf:resource="http://purl.org/dc/dcmitype/StillImage" />
        <dc:title></dc:title>
      </cc:Work>
    </rdf:RDF>
  </metadata>
  <g
     inkscape:label="Layer 1"
     inkscape:groupmode="layer"
     id="layer1"
     transform="translate(-40.142022,-117.97118)">
    <path
       style="fill:#ff0000;stroke-width:0.777867"
       d="m 81.478696,249.58812 c 2.03981,-0.52033 2.920777,-2.70728 2.943656,-7.30797 0.02486,-2.31909 0.432057,-6.12022 0.934263,-8.44687 0.502276,-2.3267 0.724595,-4.52508 0.494058,-4.88538 -0.231591,-0.36026 -0.07476,-0.37953 0.348119,-0.0427 0.422033,0.3367 0.866792,0.24299 0.988251,-0.20828 0.122004,-0.4512 1.70344,-1.01631 3.515208,-1.25578 4.435976,-0.58633 5.132924,-0.89357 6.096569,-2.6878 0.566492,-1.05484 0.636732,-2.2327 0.224105,-3.74914 -0.331673,-1.21607 -0.681527,-4.03695 -0.777335,-6.2686 -0.09713,-2.23169 -0.391198,-4.47087 -0.656161,-4.976 -0.942208,-1.7967 -0.29331,-10.33994 0.928308,-12.22186 1.085102,-1.67163 1.435991,-1.72506 4.333613,-0.65952 2.55454,0.93944 3.45348,0.93506 4.73758,-0.0243 0.8717,-0.65031 1.43648,-1.37916 1.25543,-1.61959 -0.18173,-0.24056 0.1619,-1.20387 0.7602,-2.14088 1.18505,-1.85239 1.37827,-11.58274 0.27845,-14.01476 -0.37827,-0.83649 -0.34239,-1.08226 0.10203,-0.69914 0.79856,0.68811 1.56947,-2.63867 1.04936,-4.52848 -0.19426,-0.709 -0.61953,-1.28907 -0.94326,-1.28907 -0.32342,0 -0.58813,-0.59554 -0.58813,-1.32345 0,-2.11697 -1.25502,-2.61872 -2.86728,-1.14616 -1.06926,0.97662 -1.824,1.10309 -2.66562,0.44653 -0.64565,-0.50372 -2.258955,-0.89854 -3.585096,-0.87738 -4.016451,0.0641 -4.566222,-0.50116 -5.332698,-5.48262 -0.391687,-2.54561 -0.559734,-4.97186 -0.373716,-5.39163 0.186716,-0.41978 0.05742,-0.90187 -0.289083,-1.07131 -0.345163,-0.16937 -0.680295,-2.37447 -0.744784,-4.90018 -0.216647,-8.47227 -0.4308,-9.00083 -3.432734,-8.43954 -1.451961,0.27146 -2.830982,0.92433 -3.064289,1.45069 -0.283357,0.63916 -1.025101,0.52263 -2.232828,-0.35079 -0.994459,-0.71932 -1.652628,-0.95684 -1.462392,-0.5278 0.189274,0.42901 -0.709864,0.95183 -2.000474,1.16185 -3.326706,0.54141 -4.605285,-1.38299 -4.392927,-6.6116 0.226599,-5.57901 -0.393402,-10.30057 -1.255212,-9.55818 -0.457901,0.39475 -0.44747,-0.0388 0.02973,-1.28557 1.130029,-2.94281 0.234068,-4.8427 -2.174266,-4.61652 -1.149378,0.10792 -2.428521,-0.0958 -2.842874,-0.45258 -0.41407,-0.35683 -0.933289,-0.24229 -1.153395,0.25445 -0.219126,0.49682 -1.278375,0.65855 -2.351302,0.35941 -1.151945,-0.3211 -1.950984,-0.15655 -1.950984,0.40204 0,0.55365 -1.116758,0.79601 -2.692725,0.58441 -1.480786,-0.19891 -3.295253,0.0882 -4.03235,0.63811 -0.97159,0.72496 -1.216858,0.72208 -0.892166,-0.01 0.249763,-0.56299 0,-1.01004 -0.540295,-1.01004 -0.543622,0 -1.199225,0.47589 -1.457217,1.05756 -0.324691,0.73277 -0.741255,0.53783 -1.356284,-0.63478 -0.543622,-1.03605 -0.887734,-1.22999 -0.887734,-0.50008 0,0.72793 -0.421049,0.96703 -1.081156,0.61394 -0.594636,-0.31797 -1.816945,0.0937 -2.716366,0.91543 -0.899421,0.82152 -1.433018,1.03759 -1.186025,0.48003 0.246508,-0.55751 0.117034,-1.0137 -0.291584,-1.0137 -3.313001,0 -6.171014,7.6264 -6.082876,16.2322 0.03247,3.11864 0.374468,6.49497 0.761446,7.50294 0.51147,1.33206 0.496473,1.92893 -0.05459,2.18499 -1.105071,0.51362 1.448015,4.38799 2.891677,4.38799 0.647172,0 1.205445,-0.71921 1.247745,-1.60726 0.07228,-1.49189 0.09962,-1.48925 0.382766,0.0365 0.255496,1.37045 0.844116,1.57796 3.541336,1.24852 1.979055,-0.24161 3.082675,-0.0511 2.8426,0.49062 -0.219142,0.4935 0.221619,0.449 0.99377,-0.10027 4.080675,-2.90243 3.993784,-2.8711 3.555996,-1.28136 -0.279623,1.01589 -0.164315,1.29611 0.353862,0.8508 0.785837,-0.67701 1.12795,2.04032 0.85483,6.79174 -0.07228,1.26284 -0.08467,3.53594 -0.02486,5.05133 0.05945,1.51542 0.13196,3.52708 0.164315,4.47034 0.03247,0.94324 0.788811,2.38175 1.681039,3.19666 1.98002,1.80871 5.99724,2.32746 6.011405,0.77636 0,-0.75546 0.181807,-0.71759 0.564015,0.12185 0.310244,0.68202 1.972068,1.31295 3.778094,1.43419 1.820961,0.12223 3.224384,0.65823 3.224384,1.23146 0,0.55821 0.181744,1.26894 0.404886,1.57943 0.221618,0.31034 0.306234,2.18842 0.186716,4.17315 -0.122017,1.98474 0.08219,3.86844 0.450704,4.18595 0.448434,0.38645 0.433986,0.97346 -0.0422,1.77585 -0.526404,0.88401 -0.427827,1.59716 0.375707,2.71726 0.599139,0.83525 0.980099,1.63429 0.846407,1.77563 -1.110328,1.17336 -4.671577,2.24581 -6.831404,2.05719 -4.04631,-0.35339 -6.43979,0.5957 -6.654915,2.63883 -0.102099,0.98187 0.141922,2.33926 0.545082,3.01635 0.556822,0.93543 0.510983,1.16352 -0.191698,0.94969 -1.021701,-0.31137 -1.165348,3.34587 -0.304776,7.76676 0.300291,1.54312 0.201642,3.02717 -0.250037,3.78689 -0.408823,0.68712 -0.569961,1.88024 -0.357808,2.65135 0.278172,1.00974 -0.317986,1.73744 -2.129754,2.60075 -1.38365,0.65929 -2.812245,1.06414 -3.174539,0.89968 -1.259715,-0.57169 -5.714087,-0.0799 -6.775611,0.74835 -3.80153,2.96578 -2.04604,25.31668 1.991778,25.361 0.587169,0.007 1.283347,0.31277 1.547345,0.68086 0.263928,0.36801 0.877922,0.20897 1.364239,-0.35377 0.656364,-0.75958 0.884,-0.73778 0.884,0.0844 0,0.60911 0.370725,0.92568 0.823652,0.70356 0.452997,-0.22215 1.490597,-0.0601 2.305818,0.35992 0.835613,0.43062 2.200958,0.38303 3.129478,-0.10903 0.905853,-0.4801 1.646897,-0.52412 1.646897,-0.0978 0,0.81201 3.615307,0.49721 4.663552,-0.40613 0.333955,-0.28777 0.607075,-0.0371 0.607075,0.55678 0,0.60651 0.54556,0.88089 1.244782,0.626 0.684499,-0.24957 1.648143,-0.10447 2.141165,0.32247 0.824476,0.71393 7.0067,0.58807 10.119995,-0.20583 z m -28.329382,-1.71375 c -0.181805,0 0.182496,0 0,0 z m 23.350808,-3.15166 c 0.69715,-1.17103 0.527581,-1.24488 -1.237313,-0.53929 -1.259707,0.50367 -1.89866,0.4876 -1.66383,-0.0416 0.209109,-0.47271 0.06706,-0.85944 -0.316738,-0.85944 -0.383732,0 -0.702194,0.51663 -0.707663,1.14805 0,0.71097 -0.194244,0.79841 -0.494261,0.22943 -0.656648,-1.24618 -4.107562,-1.68029 -4.107562,-0.51671 0,0.61929 -0.565052,0.63092 -1.689755,0.0348 -0.929555,-0.49257 -2.579697,-0.89565 -3.6668,-0.89565 -1.087447,0 -2.588139,-0.45592 -3.335199,-1.01323 -1.042581,-0.77782 -1.491774,-0.72445 -1.933013,0.22944 -0.482035,1.04182 -0.669778,1.0381 -1.160306,-0.0243 -0.321728,-0.69616 -0.893962,-0.99967 -1.27119,-0.67454 -0.38497,0.33149 -1.048527,-0.80538 -1.51092,-2.58872 -0.453688,-1.74894 -1.021914,-3.01007 -1.262963,-2.80256 -0.241535,0.20758 -0.313491,-1.3587 -0.16189,-3.48059 0.151937,-2.12186 0.614543,-4.14888 1.027169,-4.50446 0.412821,-0.35559 2.392151,-0.67707 4.398652,-0.71439 5.150347,-0.0958 5.953888,-0.24611 5.953888,-1.11301 0,-0.42092 0.434251,-0.76534 0.965159,-0.76534 1.409855,0 2.235302,-2.75392 1.926509,-6.429 -0.658851,-7.84288 -0.698938,-11.09907 -0.141911,-11.5788 0.32891,-0.28324 0.42403,-1.27997 0.211665,-2.21449 -0.536845,-2.35811 1.598573,-5.77906 2.764894,-4.42953 0.566501,0.65539 0.862306,0.67346 0.862306,0.0528 0,-0.51967 0.592901,-0.72875 1.317772,-0.46455 0.724595,0.26416 1.317427,0.77892 1.317427,1.1438 0,1.09938 4.380478,0.53346 5.449957,-0.70407 1.053011,-1.21833 1.120005,-7.32907 0.117032,-10.68046 -0.347642,-1.1615 -0.253009,-1.91195 0.271669,-2.15576 0.568228,-0.26415 0.603068,-0.713 0.119521,-1.5268 -0.377502,-0.63404 -0.804018,-4.83009 -0.948223,-9.32456 -0.144399,-4.49448 -0.292337,-8.29563 -0.329391,-8.44701 -0.03734,-0.15134 -0.578728,0.12358 -1.203446,0.61093 -0.738068,0.5758 -1.573471,0.55971 -2.385453,-0.0459 -0.849858,-0.63405 -1.116059,-0.63162 -0.832702,0.007 0.556264,1.25485 -9.774361,1.8629 -10.55274,0.6211 -0.638183,-1.0187 -0.651666,-6.57687 -0.02495,-8.72504 0.22162,-0.75771 0.301052,-2.20424 0.174277,-3.2145 -0.126996,-1.0103 0.08219,-2.38497 0.466401,-3.05491 0.49827,-0.87128 0.464393,-1.41815 -0.119529,-1.92102 -0.448706,-0.38662 -0.76517,-1.07841 -0.702955,-1.53722 0.254249,-1.88144 -0.104585,-2.74407 -1.196181,-2.87487 -2.503249,-0.29992 -7.257425,-0.31138 -10.645161,-0.0243 -2.878954,0.24298 -3.795796,-0.0479 -4.776649,-1.51547 -2.222316,-3.3254 -1.193209,-13.40926 1.368583,-13.40926 0.434471,0 0.645863,-0.32457 0.469861,-0.7216 -0.400939,-0.90455 -0.305263,-0.9144 12.412549,-1.2756 l 10.523357,-0.29887 c 0,0 0.612818,6.76527 0.929078,7.62362 0.722792,1.96152 0.231502,4.04246 -0.785359,3.3351 -0.422094,-0.29333 -0.311005,0.0138 0.246506,0.68309 0.557725,0.66888 1.061729,2.21221 1.119731,3.42956 0.05742,1.21741 0.364789,2.4573 0.681041,2.75529 0.316473,0.29818 0.746786,1.19255 0.956178,1.9878 0.304511,1.15613 1.352824,1.41636 5.229079,1.29837 2.666324,-0.0813 5.512173,-0.64308 6.323933,-1.24866 1.387463,-1.03519 1.477601,-0.92061 1.505462,1.91615 0.169295,17.12548 0.926513,24.55614 2.515695,24.6933 3.91683,0.33809 9.262677,-0.72805 10.431484,-2.08026 0.617236,-0.71403 0.950706,-0.58307 1.245746,0.48933 0.28709,1.04286 0.71865,1.22884 1.49952,0.64621 1.31943,-0.98428 3.74575,1.12865 3.06345,2.66765 -0.24898,0.56085 -0.12698,1.56813 0.27341,2.23839 0.83146,1.39672 0.27367,8.03376 -0.74949,8.91945 -0.36555,0.31622 -2.55454,0.36353 -4.864783,0.1052 -2.878681,-0.32213 -4.519428,-0.10101 -5.214084,0.70288 -0.835959,0.96697 -0.950701,0.94393 -0.654914,-0.13121 0.283145,-1.02783 -0.211675,-1.22833 -2.333126,-0.94625 -2.188014,0.29088 -2.608313,0.63982 -2.245054,1.86307 0.246516,0.82781 0.733859,5.39116 1.084191,10.14076 0.380696,5.16134 1.012934,9.15989 1.571692,9.93869 1.048312,1.46152 1.250512,2.47082 0.337416,1.68403 -0.32871,-0.2829 -0.451,0.2659 -0.272166,1.21979 0.179249,0.95397 0.02495,2.00099 -0.36208,2.32672 -0.377999,0.32594 -0.531872,1.1572 -0.341839,1.84763 0.189201,0.69043 -0.04008,1.58754 -0.511205,1.99357 -1.273181,1.09679 -3.186021,1.11409 -3.186021,0.0277 0,-0.56725 -0.317703,-0.50558 -0.790608,0.15343 -0.434734,0.60615 -1.280861,1.10212 -1.880195,1.10212 -2.122011,0 -4.339904,4.01106 -4.798766,8.67922 -0.241535,2.44896 -0.731374,4.94567 -1.090147,5.54823 -0.358841,0.60258 -0.466683,1.3543 -0.239039,1.67047 0.637149,0.88842 -1.077705,5.94519 -2.224387,6.55859 -0.835136,0.44678 -0.873983,0.29922 -0.21409,-0.81063 z m 53.142028,3.70078 c 0.46365,-0.2482 1.82346,-0.0591 3.02165,0.41992 1.19819,0.47904 2.26365,0.51521 2.36775,0.0802 0.10459,-0.43481 1.43826,-0.46034 2.96489,-0.0566 2.85033,0.7535 6.34038,-0.52444 6.45913,-2.36507 0.27465,-4.25506 0.047,-16.84071 -0.32468,-18.02363 -0.3135,-0.99519 -0.0748,-1.69149 0.72211,-2.10651 1.90141,-0.99044 4.15484,-2.77114 4.15484,-3.28336 0,-0.25894 1.61233,-0.40256 3.58343,-0.31899 3.39817,0.1444 3.60355,0.0243 3.97608,-2.34116 0.21665,-1.37134 0.25999,-6.01967 0.0971,-10.32971 -0.1619,-4.31006 -0.0847,-8.31001 0.17177,-8.88887 0.34018,-0.76721 1.55856,-0.8073 4.49551,-0.14788 5.99657,1.34623 6.82345,0.94474 9.16457,-4.4484 1.74648,-4.02362 2.03217,-5.52275 1.91406,-10.04738 -0.2365,-9.08508 -3.3446,-15.83977 -7.28657,-15.83977 -1.25422,0 -2.28031,0.38315 -2.28031,0.85146 0,0.46833 -1.33416,0.74651 -2.96467,0.61818 -1.77561,-0.13989 -2.97063,0.16349 -2.97906,0.75576 0,0.544 -0.61129,-0.84491 -1.34087,-3.08642 -0.72936,-2.24152 -1.13549,-4.7213 -0.90238,-5.51055 0.23405,-0.78928 0.3755,-4.53477 0.31646,-8.32329 -0.12201,-7.8722 -1.26019,-10.09053 -4.91407,-9.58408 -1.12153,0.15551 -2.57521,0.30893 -3.23062,0.34122 -0.69292,0.0347 -1.00441,0.48145 -0.74401,1.06868 0.29905,0.67461 -0.0373,0.64717 -1.01695,-0.0826 -0.80526,-0.60093 -2.01616,-0.89148 -2.69042,-0.64564 -1.71493,0.62521 -2.73704,-1.45336 -2.19494,-4.46388 0.36229,-2.01201 0.26814,-2.36495 -0.46594,-1.74843 -0.75997,0.63841 -0.77415,0.52211 -0.0822,-0.6697 0.56898,-0.97926 0.65014,-2.14143 0.25349,-3.62041 -0.32117,-1.19798 -0.34862,-3.00477 -0.0595,-4.01503 0.82919,-2.90731 0.73581,-6.18098 -0.15442,-5.41409 -0.54528,0.46978 -0.61551,0.14961 -0.24153,-1.09386 0.82974,-2.74966 0.762,-5.38759 -0.14192,-5.53077 -0.45292,-0.0718 -0.9716,-0.23395 -1.15284,-0.36007 -0.83865,-0.58445 -2.07223,-0.51606 -3.08939,0.17149 -0.64841,0.43817 -1.28611,0.36149 -1.52792,-0.18364 -0.22909,-0.51471 -0.69099,-0.6981 -1.02813,-0.40747 -0.33742,0.29052 -0.6135,0.19299 -0.6135,-0.21696 0,-0.41001 -1.92632,-0.74436 -4.28088,-0.74302 -2.35435,9.6e-4 -4.28142,0.37646 -4.28211,0.83359 0,0.45716 -0.54459,0.14613 -1.20793,-0.69082 -0.66363,-0.83708 -1.41607,-1.22984 -1.67234,-0.87277 -0.25598,0.35709 -2.60383,0.53576 -5.21685,0.39705 -10.96508,-0.58206 -10.38469,-0.73192 -9.71782,2.50843 0.29781,1.44779 0.33486,3.09831 0.0821,3.66787 -0.42154,0.95058 -0.35829,5.94673 0.20919,16.66055 0.122,2.2731 0.25797,5.01463 0.30526,6.09226 0.0996,2.2618 2.52738,3.54097 3.83963,2.02269 0.61605,-0.71259 0.85779,-0.70816 0.85779,0.0173 0,0.69587 0.51023,0.73777 1.64719,0.13503 0.9059,-0.48014 1.64813,-0.57325 1.64937,-0.20688 0,0.36636 1.3372,0.70275 2.96841,0.74755 1.63121,0.0448 3.15712,0.34815 3.39091,0.67408 0.23406,0.32595 0.38595,5.51462 0.33839,11.53052 -0.0649,8.27357 0.13444,11.19305 0.81846,11.98535 1.32574,1.53376 5.63645,1.83084 8.33514,0.57438 2.47462,-1.15211 4.07892,-0.51484 5.65317,2.24522 0.57446,1.00738 0.58988,1.70142 0.0574,2.59568 -0.53683,0.90192 -0.50448,1.41218 0.12451,1.95426 0.59961,0.51667 0.6357,0.91942 0.12201,1.36184 -0.40114,0.34539 -0.72909,2.46366 -0.72909,4.70693 0,3.81935 -0.11454,4.08345 -1.81176,4.15262 -6.60308,0.26938 -9.77935,0.99344 -10.53457,2.40195 -0.53684,1.00107 -0.72632,3.75161 -0.55301,8.01936 0.1444,3.57265 0.32344,6.59905 0.39616,6.72532 0.0722,0.12636 0.15685,1.15953 0.18671,2.29606 0.0297,1.13655 0.33396,2.33201 0.67455,2.65656 1.4888,1.41808 -2.81695,3.04431 -8.11074,3.06344 l -5.58765,0.0208 -0.23407,4.48823 c -0.15933,3.04596 0.047,4.73846 0.64641,5.26688 0.65811,0.58139 0.67256,0.78223 0.0574,0.79275 -0.55779,0.01 -0.82351,1.64412 -0.82351,5.06542 0,3.39013 0.27091,5.0752 0.82351,5.12387 0.65886,0.058 0.65886,0.16523 0,0.53571 -0.49999,0.28152 -0.82351,2.21443 -0.82351,4.92236 v 4.45909 l 5.98755,-0.0461 c 3.29311,-0.0243 6.26296,0.33809 6.60009,0.80789 0.60536,0.84402 5.94318,0.77395 7.5759,-0.0995 z m -2.33644,-5.14127 c -0.70345,0 -1.4467,-0.37871 -1.65186,-0.84158 -0.20421,-0.46291 -1.92756,-0.84327 -3.82719,-0.84532 -5.22784,-0.007 -6.01521,-0.11248 -6.95665,-0.94477 -1.1086,-0.97998 -1.40986,-3.68171 -0.70497,-6.32301 0.30333,-1.13655 0.31176,-2.06646 0.0249,-2.06646 -0.63721,0 -0.77465,-2.30752 -0.33644,-5.65083 0.2067,-1.57462 0.9467,-2.76775 2.09291,-3.37322 1.93274,-1.02095 9.22258,-0.95976 10.42823,0.0874 1.51341,1.31454 2.09359,-1.68493 1.8155,-9.38705 -0.15436,-4.26894 -0.60334,-8.04026 -0.99855,-8.38068 -0.48929,-0.42162 -0.5002,-0.8067 -0.0345,-1.2079 0.37597,-0.32389 0.5575,-1.55817 0.40362,-2.74275 -0.25673,-1.97299 0,-2.19984 3.03962,-2.70194 1.82614,-0.30131 4.04527,-0.16385 4.93177,0.30614 0.88669,0.46984 2.05924,0.615 2.60576,0.32249 1.11558,-0.59669 1.16266,-1.18958 1.26372,-15.94845 0.0748,-11.05388 -0.253,-12.5241 -3.14288,-14.0628 -0.90017,-0.47919 -1.13128,-0.3065 -0.86831,0.6485 0.30575,1.11024 0.10708,1.11965 -1.35235,0.0641 -0.94076,-0.68047 -3.16507,-1.22149 -4.94268,-1.2023 -1.77789,0.0208 -3.42154,-0.2291 -3.65312,-0.55164 -0.2316,-0.32249 -0.3753,-4.49545 -0.31972,-9.27297 0.0722,-6.19376 -0.1245,-8.6904 -0.68602,-8.70044 -0.47484,-0.007 -0.39644,-0.35819 0.19666,-0.88217 0.84516,-0.74468 0.79836,-1.06496 -0.32919,-2.2528 -1.24345,-1.31 -2.15933,-1.63751 -5.28404,-1.88999 -0.73385,-0.0593 -1.64764,-0.37799 -2.03089,-0.70825 -0.38346,-0.3301 -2.03836,-0.49027 -3.67752,-0.35564 -2.59884,0.21347 -2.94049,0.0312 -2.66757,-1.42322 0.17179,-0.91733 0.0249,-2.18236 -0.33444,-2.81107 -0.6755,-1.19361 -0.59214,-15.09237 0.0971,-16.05241 0.21664,-0.30304 0.39521,-0.0788 0.39521,0.49784 0,0.73918 0.48624,0.79109 1.6471,0.176 0.90591,-0.48015 1.64717,-0.53881 1.64717,-0.13053 0,1.03453 2.97857,1.36527 7.08218,0.78637 1.17774,-0.16628 2.14117,0.0312 2.14117,0.43947 0,0.40784 1.40834,0.71238 3.12946,0.67683 1.72108,-0.0358 3.72232,0.0676 4.44692,0.22946 0.7264,0.1621 1.25405,-0.17876 1.17558,-0.75965 -0.16431,-1.21426 2.26048,-0.57172 2.84861,0.755 0.20911,0.4714 0.32242,4.65775 0.25246,9.30302 -0.20414,13.55525 -0.0546,15.67271 1.18602,16.65269 0.61904,0.48941 3.79379,0.92418 7.05502,0.96618 l 5.92949,0.0765 0.82669,3.49722 c 0.45445,1.92347 0.85332,6.45508 0.88621,10.07022 0.047,5.30746 0.32317,6.97084 1.42929,8.63945 1.47809,2.22968 3.76918,2.78556 3.78535,0.91842 0,-0.77725 0.16681,-0.82778 0.49428,-0.15655 0.26621,0.54537 1.22506,0.9826 2.13099,0.97163 6.31215,-0.0765 8.56471,0.38769 8.56471,1.76469 0,0.90104 0.30524,1.17615 0.82342,0.74211 0.64393,-0.53911 0.64145,-0.37586 0,0.74785 -0.45917,0.79064 -0.64815,2.11512 -0.42024,2.94329 0.22897,0.82812 0,2.19974 -0.48289,3.04797 -0.51961,0.89338 -0.56969,1.26856 -0.11953,0.89175 1.45566,-1.21704 1.40762,0.74917 -0.0823,3.35328 -1.28058,2.23884 -1.98873,2.61803 -5.15733,2.76117 -2.02019,0.0913 -3.86623,0.43526 -4.10258,0.76447 -0.23657,0.32909 -1.33866,0.23503 -2.44996,-0.20932 -1.11129,-0.44434 -2.27486,-0.58882 -2.58564,-0.32108 -0.31073,0.26763 -0.56498,4.20258 -0.56498,8.74408 0,10.93654 -0.86154,13.40388 -4.58766,13.13865 -2.47455,-0.17599 -2.66804,-0.0277 -2.26613,1.7371 0.41379,1.81763 0.37425,1.83884 -0.68278,0.36528 -1.25694,-1.7522 -4.01168,-2.08981 -4.68353,-0.57405 -0.41532,0.93686 -1.1603,7.96902 -1.15982,10.94919 0,0.7577 0.22162,2.88797 0.49273,4.73396 0.37599,2.5634 0.28336,3.32284 -0.39243,3.2145 -0.4868,-0.0782 -0.93972,0.27145 -1.0067,0.77658 -0.0671,0.50514 0.29904,0.7985 0.813,0.65193 0.64296,-0.18327 0.80306,0.2468 0.51342,1.37763 -0.83686,3.26726 -1.70366,4.00844 -4.26939,3.65079 -1.84308,-0.25687 -2.53532,-0.007 -2.53532,0.91874 0,0.97318 -0.29961,1.04871 -1.27444,0.32143 -1.60804,-1.19971 -3.27063,-0.95065 -3.97381,-0.95065 z"
       id="path3429"
       sodipodi:nodetypes="ccscccsscccsscccsccsssssscccssscssccsccsssscsccssscscsssccsccscccscccssccscscscscsccssccsssssssssssccsscscsccssssscccccsssssscssssssscccsscccccscsccssscscccsssscsscsccssccscsccccccscscscscccsccscssccccsscsssccccscscssscscscscsccsccscsscccssscscccsscssscsccsccccccsscscccccsccssscsscsscccccssscssccsscscccssssssscsscscccscsssscccccscsssssssscssssssss" />
    <path
       style="opacity:0.930349;fill:#ff0000;stroke-width:1.72743"
       d="m 58.575073,241.7144 c -3.563922,-1.00371 -6.899405,-7.64657 -5.464554,-10.88306 0.487042,-1.09858 3.019319,-1.99742 5.627267,-1.99742 6.602742,0 8.253046,-3.19131 8.253046,-15.95957 v -11.06463 l 4.332551,1.20794 c 6.731004,1.87668 8.568501,-2.19921 7.84746,-17.40701 -0.846344,-17.85028 -0.614877,-17.44053 -9.260138,-16.39193 l -7.592442,0.92089 0.346218,-7.87486 c 0.652683,-14.84632 0.703344,-14.75398 -8.461145,-15.42146 -6.715573,-0.48909 -8.498667,-1.34646 -8.899128,-4.27886 -0.98579,-7.21887 2.430894,-9.58996 13.818981,-9.58996 10.461009,0 10.793744,0.15308 10.793744,4.96613 0,2.73137 0.642086,7.32039 1.426844,10.19782 1.241462,4.55197 2.286918,5.23168 8.046784,5.23168 h 6.61994 l 0.0199,8.66814 c 0.03849,16.72073 0.724412,17.90651 10.02582,17.33387 8.007479,-0.49303 8.255539,-0.34765 8.705299,5.10132 0.45595,5.52425 0.34017,5.60879 -7.681023,5.60879 -9.115888,0 -9.457894,0.86381 -6.760046,17.07386 1.685454,10.12713 0.823776,12.96746 -4.421159,14.57341 -3.538574,1.08344 -4.590729,2.90909 -6.242829,10.83233 l -1.986965,9.52926 -7.899712,0.27567 c -4.344843,0.1516 -9.382492,-0.14193 -11.194782,-0.65235 z"
       id="path3431" />
    <path
       style="opacity:0.930349;fill:#ff0000;stroke-width:1.72743"
       d="m 121.64434,241.62803 c -5.53701,-0.70336 -6.12789,-1.33615 -6.80925,-7.29203 -0.96407,-8.42701 2.27651,-12.31699 8.84901,-10.62236 l 4.75491,1.22598 v -12.32979 -12.3298 h 5.85221 5.85222 v -14.02719 c 0,-13.38531 -1.72212,-19.33919 -5.33244,-18.43585 -0.68822,0.17221 -3.02742,0.20442 -5.19824,0.0715 -3.70391,-0.22666 -3.97416,-0.90083 -4.38917,-10.94924 l -0.4422,-10.70771 -7.02099,-1.89011 -7.02099,-1.89013 0.43725,-8.30768 c 0.24051,-4.56924 0.93104,-8.07827 1.53454,-7.79782 0.6035,0.28046 5.70591,0.50989 11.33866,0.50989 h 10.24136 v 13.01934 c 0,14.11318 0.89276,15.4379 10.45059,15.50675 4.32165,0.031 5.64299,3.16416 5.64299,13.38006 0,7.08198 3.2286,11.5149 7.01228,9.628 1.04038,-0.51883 3.50929,-0.37731 5.48644,0.31445 2.80025,0.97977 3.59484,2.58611 3.59484,7.26737 0,5.67142 -0.41167,6.0857 -7.31524,7.36236 -7.24738,1.34024 -7.31548,1.42133 -7.33767,8.73841 -0.0298,9.83169 -1.16939,11.8461 -7.66197,13.54406 -5.30004,1.38609 -5.49043,1.73282 -5.70255,10.38503 -0.1207,4.92308 -0.2853,10.0983 -0.36576,11.50049 -0.15313,2.66821 -4.44116,5.3108 -8.1931,5.04919 -1.20702,-0.0842 -4.923,-0.49963 -8.25773,-0.92322 z"
       id="path3433" />
    <path
       style="opacity:0.930349;fill:#ffffff;stroke-width:0.215928"
       d="m 71.928132,249.80934 c -0.402328,-0.14011 -1.410413,-0.30743 -2.240179,-0.37183 -1.413102,-0.10964 -1.515724,-0.15624 -1.620037,-0.73569 -0.12842,-0.71331 -0.261378,-0.74049 -1.260476,-0.25777 -1.330104,0.64264 -3.072218,0.76765 -3.818489,0.27394 -0.676563,-0.44753 -0.855847,-0.43718 -2.725398,0.15737 -0.933148,0.29677 -1.206932,0.28262 -2.328804,-0.12026 -0.699248,-0.25109 -1.583584,-0.42512 -1.965191,-0.38672 -0.826262,0.0831 -1.140833,-0.14021 -1.140833,-0.81013 0,-0.6275 -0.330159,-0.62205 -0.914417,0.0151 -0.553478,0.60352 -0.719588,0.61566 -1.804257,0.13184 -0.466145,-0.2079 -1.060471,-0.43487 -1.320727,-0.50434 -0.802595,-0.21424 -1.41919,-1.11524 -2.068902,-3.02318 -2.175707,-6.38926 -2.294369,-17.92881 -0.218195,-21.21788 0.785581,-1.24453 2.348569,-1.67381 5.932177,-1.62933 2.854845,0.0355 4.302869,-0.3597 5.924498,-1.61675 0.768275,-0.59555 0.952691,-1.12296 0.778715,-2.22714 -0.08555,-0.54304 0.0138,-1.14858 0.352137,-2.14551 0.566634,-1.66974 0.577029,-2.1747 0.108434,-5.26971 -0.633848,-4.1866 -0.437983,-6.3486 0.575154,-6.3486 0.627823,0 0.631963,-0.1015 0.05733,-1.40219 -0.633184,-1.43315 -0.61364,-2.88297 0.05052,-3.74181 0.826748,-1.06912 1.580825,-1.27245 5.532158,-1.49158 2.938019,-0.16294 4.040721,-0.32464 5.09721,-0.7473 1.485918,-0.59451 2.400946,-1.17606 2.400946,-1.52592 0,-0.12517 -0.370354,-0.83241 -0.822979,-1.57164 -0.916693,-1.49711 -0.975334,-1.85329 -0.457201,-2.7767 0.460333,-0.82043 0.454361,-1.12833 -0.03999,-2.06045 -0.373343,-0.70401 -0.402442,-1.01326 -0.364337,-3.87244 0.03557,-2.66924 -0.01636,-3.33218 -0.368823,-4.70193 -0.481945,-1.87336 -0.629564,-1.98483 -3.145889,-2.37521 -2.842839,-0.44105 -3.82655,-0.83711 -4.182526,-1.68386 -0.194858,-0.46353 -0.676731,-0.44531 -0.676731,0.0254 0,0.68653 -0.7311,0.97523 -2.090101,0.82535 -2.223767,-0.24523 -4.156754,-1.51988 -5.00064,-3.2975 l -0.498844,-1.05079 -0.02407,-7.66702 c -0.02628,-8.38668 -0.108523,-9.2152 -0.893724,-9.00592 -0.506568,0.13497 -0.537304,0.0208 -0.264193,-0.98052 0.104338,-0.38254 0.120042,-0.79257 0.03495,-0.91126 -0.08511,-0.11865 -1.110211,0.43383 -2.277966,1.22773 -2.043306,1.38912 -2.135558,1.42619 -2.451862,0.98526 -0.29324,-0.4088 -0.585523,-0.44398 -2.712358,-0.32653 -3.010958,0.16626 -3.224216,0.0898 -3.56678,-1.27896 -0.314615,-1.25702 -0.554274,-1.39052 -0.554274,-0.3087 0,0.93706 -0.568908,1.78463 -1.197828,1.78463 -0.687259,0 -1.377306,-0.58106 -2.240691,-1.88684 -0.803047,-1.21448 -0.971121,-2.02896 -0.473657,-2.29509 0.343334,-0.18366 0.280836,-1.17894 -0.181399,-2.88887 -0.498022,-1.8423 -0.743087,-6.81286 -0.490811,-9.955 0.569278,-7.09031 3.103307,-12.80284 5.679264,-12.80284 0.503896,0 0.546877,0.0618 0.443265,0.63734 -0.06308,0.35059 -0.06016,0.6374 0.0062,0.6374 0.0668,0 0.672325,-0.41167 1.34573,-0.91481 1.081749,-0.80829 1.341439,-0.90154 2.230181,-0.80078 1.216274,0.13794 1.463056,0.0368 1.463056,-0.60018 0,-0.7113 0.164491,-0.61033 0.865376,0.53113 0.344386,0.5609 0.711767,1.01978 0.816379,1.01978 0.104621,0 0.476726,-0.35067 0.826899,-0.7793 0.83572,-1.02292 1.633183,-0.98275 1.553521,0.0782 -0.06361,0.84728 0.03167,0.85841 1.172408,0.13706 0.787333,-0.49792 1.209798,-0.56579 3.602808,-0.57905 2.614814,-0.0143 2.722195,-0.0359 3.030599,-0.60589 0.307527,-0.56834 0.383465,-0.584 1.985893,-0.40924 1.521336,0.16593 1.722188,0.1334 2.311295,-0.37417 0.54856,-0.47259 0.707927,-0.50885 1.06402,-0.24192 0.230369,0.17266 1.355418,0.38579 2.500133,0.47361 1.97917,0.15184 2.102514,0.19413 2.514601,0.86196 0.527377,0.85473 0.545009,1.61034 0.07405,3.17608 -0.523272,1.73977 -0.525732,1.92516 -0.02566,1.9434 0.764258,0.0277 0.963926,1.39153 1.103567,7.53685 0.135958,5.98342 0.21791,6.47549 1.287416,7.73004 0.329849,0.38692 0.909126,0.72656 1.423889,0.8349 1.179564,0.24828 3.343621,-0.27287 3.717346,-0.89518 0.281674,-0.46904 0.319762,-0.46251 1.463045,0.25128 1.39915,0.87348 1.874958,0.91776 2.499737,0.23266 0.92177,-1.01077 4.189692,-1.86243 4.955138,-1.29138 0.837523,0.62485 0.994805,1.59898 1.30221,8.06434 0.1648,3.4665 0.374422,4.90085 0.765443,5.23776 0.103144,0.0888 0.211028,1.12371 0.239758,2.29968 0.0591,2.42156 0.63756,6.09421 1.203327,7.64019 0.540366,1.47659 1.210187,1.79248 4.290138,2.02332 1.672633,0.12537 2.845666,0.34304 3.383306,0.62782 1.49874,0.79384 1.75039,0.77413 3.33315,-0.26129 1.37763,-0.90125 1.51036,-0.94171 1.95286,-0.59554 0.34976,0.27362 0.52443,0.69759 0.66345,1.61024 0.12885,0.84568 0.30294,1.29823 0.54866,1.42612 0.76198,0.39655 1.09179,1.2425 1.08554,2.78444 -0.007,1.85725 -0.44875,2.93707 -1.10614,2.70705 -0.5381,-0.18827 -0.54341,-0.087 -0.0673,1.28397 0.48657,1.40116 0.73312,5.55342 0.52049,8.76579 -0.18898,2.85502 -0.40478,3.87559 -1.10293,5.21582 -0.2883,0.55345 -0.52416,1.25272 -0.52416,1.55392 0,0.65191 -0.36963,1.14252 -1.41006,1.87167 -1.02643,0.71932 -2.24795,0.69321 -4.59099,-0.0981 -1.037384,-0.35037 -2.176827,-0.63702 -2.532104,-0.63702 -1.811822,0 -2.891412,3.10748 -3.099964,8.92307 -0.09574,2.66953 -0.06432,3.10296 0.35081,4.84398 0.250771,1.05162 0.509957,2.71517 0.57595,3.69668 0.218142,3.24393 0.483601,5.58573 0.838082,7.39341 0.390977,1.99366 0.333672,2.66835 -0.332708,3.91823 -0.61011,1.14432 -1.619469,1.72366 -3.606575,2.07006 -3.783338,0.65952 -5.121733,1.03271 -5.654614,1.57666 -0.431029,0.43998 -0.626097,0.49652 -1.012173,0.29335 -0.475479,-0.25017 -0.478364,-0.2441 -0.497039,1.04395 -0.01028,0.71258 -0.236528,2.45724 -0.50266,3.877 -0.532411,2.84027 -1.011262,7.33574 -1.016808,9.54594 -0.008,3.13425 -0.9795,5.50864 -2.483536,6.06904 -1.912577,0.71267 -8.306748,1.02614 -9.864552,0.48362 z m 5.464855,-4.86464 c 0.994266,-1.47153 1.655524,-3.64582 1.68172,-5.52967 0.01425,-1.03342 0.143824,-1.9754 0.343919,-2.50268 0.176504,-0.46506 0.512655,-2.1621 0.746996,-3.77121 0.528759,-3.63045 0.719871,-4.47247 1.394657,-6.14423 0.917134,-2.27218 2.542149,-3.89178 3.91007,-3.89697 0.206091,0 0.740513,-0.32375 1.187598,-0.71768 l 0.812895,-0.7163 0.305343,0.52509 c 0.622354,1.0701 3.415232,0.20778 3.724342,-1.14997 0.06715,-0.29499 0.07255,-0.90451 0.01194,-1.35452 -0.08547,-0.63536 -0.0053,-1.01489 0.360639,-1.69871 0.412245,-0.77108 0.456588,-1.04282 0.356816,-2.18637 -0.112876,-1.29408 -0.10969,-1.30471 0.353518,-1.18125 0.617407,0.1645 0.601092,-0.26114 -0.05477,-1.4279 -0.287198,-0.51094 -0.606546,-1.15844 -0.709637,-1.43889 -0.366231,-0.99622 -0.790331,-4.28057 -1.340996,-10.38492 -0.306934,-3.40259 -0.67659,-6.91066 -0.821439,-7.79574 -0.144858,-0.88507 -0.263371,-1.71242 -0.263371,-1.8385 0,-0.31384 1.113317,-0.67896 2.662635,-0.87323 1.703484,-0.21358 1.950964,-0.0713 1.801921,1.03625 -0.122741,0.91207 0.08494,1.1325 0.465242,0.49375 0.120838,-0.20298 0.587921,-0.56505 1.037972,-0.80467 0.716341,-0.38138 1.272977,-0.41447 4.467626,-0.26567 4.710447,0.21943 4.991817,0.15733 5.460967,-1.20522 0.4324,-1.25576 0.78957,-4.90915 0.62355,-6.3779 -0.0651,-0.57637 -0.27819,-1.47769 -0.4734,-2.00301 -0.28181,-0.75833 -0.31714,-1.10637 -0.17142,-1.68906 0.49156,-1.96577 -1.60973,-3.75831 -3.33421,-2.84429 -0.61851,0.3278 -0.93989,0.12525 -1.20224,-0.7577 -0.30447,-1.02471 -0.64491,-1.11204 -1.526717,-0.39163 -1.412492,1.15397 -4.584315,1.91624 -8.107531,1.94852 -2.646656,0.0242 -2.818472,-0.0899 -3.268364,-2.17232 -0.648032,-2.99947 -0.832491,-5.88938 -1.319304,-20.67023 -0.153229,-4.65259 -0.149318,-4.64371 -1.657672,-3.74555 -1.347624,0.8024 -3.515677,1.16402 -7.072035,1.17948 -3.673879,0.016 -3.903337,-0.0656 -4.460533,-1.58759 -0.190812,-0.52112 -0.510708,-1.15403 -0.710926,-1.40642 -0.353312,-0.44544 -0.644845,-1.64069 -0.856456,-3.51148 -0.05671,-0.50108 -0.343928,-1.44048 -0.638317,-2.08759 -0.521292,-1.14591 -0.525201,-1.17863 -0.149257,-1.25602 0.665426,-0.13692 0.784645,-1.27757 0.350713,-3.3552 -0.209436,-1.0027 -0.523211,-3.18063 -0.697274,-4.83983 l -0.316492,-3.01669 -5.130467,0.16399 c -11.645963,0.37224 -17.420435,0.62984 -17.720814,0.79053 -0.190689,0.102 -0.296796,0.38226 -0.264804,0.69938 0.04194,0.41533 -0.07423,0.56612 -0.539826,0.70093 -0.784201,0.22702 -1.088721,0.61023 -1.593741,2.00541 -0.642837,1.77594 -0.885539,3.73352 -0.800162,6.45434 0.09929,3.16534 0.723561,5.06718 1.98701,6.0534 l 0.817246,0.63793 6.590337,-0.0882 c 7.162616,-0.096 8.017084,0.0173 8.313137,1.10296 0.09099,0.33364 0.120528,0.9923 0.06565,1.46372 -0.08617,0.74021 -0.0088,0.98052 0.568412,1.76188 l 0.668211,0.90475 -0.467569,1.2259 c -0.386412,1.01309 -0.467569,1.57112 -0.467569,3.21503 0,1.09402 -0.12344,2.64982 -0.274333,3.45735 -0.2788,1.4922 -0.371194,5.72094 -0.157537,7.21022 0.06423,0.44765 0.303847,0.98483 0.5325,1.19368 0.585364,0.53466 4.385293,0.73956 7.137003,0.38484 2.418013,-0.31175 3.369491,-0.65425 3.369491,-1.213 0,-0.31399 0.0691,-0.31478 0.502915,-0.006 1.028982,0.73297 1.630424,0.75103 2.681012,0.0805 l 0.992682,-0.63354 0.100117,1.18742 c 0.05503,0.65304 0.148859,2.73621 0.208428,4.62916 0.215903,6.8589 0.60596,11.06218 1.133595,12.21599 0.266211,0.5821 0.255229,0.64291 -0.199606,1.1048 -0.576225,0.58514 -0.592824,1.07666 -0.109126,3.22792 0.742662,3.30311 0.637891,8.30255 -0.198483,9.46849 -0.500509,0.69774 -2.250998,1.32556 -3.791019,1.35967 -1.104149,0.0244 -1.376553,-0.0499 -1.524429,-0.4164 -0.447062,-1.1079 -2.379836,-1.69872 -2.818864,-0.86168 -0.213259,0.40654 -0.269014,0.40733 -0.863624,0.0123 -0.551725,-0.36677 -0.703176,-0.37642 -1.146963,-0.0733 -0.281207,0.19211 -0.765658,0.7908 -1.076548,1.33045 -0.522485,0.90691 -0.565253,1.13051 -0.565253,2.95511 0,1.292 -0.08617,2.11919 -0.249515,2.39438 -0.36839,0.62073 -0.454511,3.22431 -0.216462,6.54409 0.389456,5.43115 0.440646,7.81075 0.194457,9.03654 -0.270446,1.34657 -0.971349,2.43598 -1.567296,2.43598 -0.650922,0 -1.010181,0.2743 -1.18137,0.90203 -0.199908,0.73295 -0.598308,0.81571 -4.935169,1.02505 -3.797353,0.18329 -5.065155,0.42979 -5.522727,1.07366 -0.484281,0.68142 -0.878116,3.24725 -0.878116,5.72096 0,1.77151 0.05468,2.24095 0.261079,2.24095 0.216532,0 1.384844,2.93763 1.384844,3.48213 0,0.0915 0.215789,0.56082 0.479531,1.04286 0.377166,0.68938 0.577198,0.85038 0.937129,0.75449 0.339564,-0.0905 0.639174,0.10669 1.161429,0.76441 l 0.703787,0.88637 0.537534,-0.82041 c 0.60313,-0.92058 0.814654,-0.92322 2.58146,-0.0326 0.553195,0.27891 1.885715,0.62909 2.961147,0.77815 1.07545,0.14911 2.583725,0.52879 3.351743,0.84379 l 1.396435,0.57272 0.305884,-0.53486 c 0.168232,-0.29419 0.541514,-0.61203 0.829489,-0.70633 0.702522,-0.23008 2.364105,0.27433 2.923157,0.88734 0.612305,0.67143 0.782459,0.62584 1.00644,-0.26981 0.21295,-0.85155 0.758933,-1.04579 0.758933,-0.26997 0,0.74512 0.181088,0.7859 1.631272,0.36748 0.733017,-0.2115 1.378588,-0.32065 1.434584,-0.24259 0.056,0.0781 -0.03477,0.35247 -0.201854,0.60974 -0.81959,1.26254 0.1975,1.47737 1.046351,0.22106 z"
       id="path3435" />
    <path
       style="opacity:0.930349;fill:#ffffff;stroke-width:0.215928"
       d="m 72.179444,249.75074 c -0.04618,-0.0644 -0.697701,-0.1822 -1.447812,-0.26176 -1.871188,-0.19851 -2.23135,-0.33245 -2.579214,-0.95915 l -0.300963,-0.54219 -1.440671,0.4587 c -1.01934,0.32451 -1.733592,0.40625 -2.442271,0.27938 -0.550851,-0.0987 -1.577657,-0.15507 -2.281753,-0.12543 -2.568224,0.10804 -3.498284,0.0878 -4.663456,-0.10163 -1.790685,-0.29113 -1.977463,-0.37335 -2.103282,-0.92598 -0.142116,-0.62422 -0.443345,-0.64289 -1.157191,-0.0718 -0.51907,0.4153 -0.615215,0.41328 -1.889378,-0.0396 -1.71711,-0.61037 -2.15888,-1.05553 -2.855553,-2.87769 -1.304147,-3.41102 -1.980153,-8.56944 -1.821625,-13.90018 0.21939,-7.37698 1.299493,-9.10545 5.699649,-9.12117 3.947645,-0.0141 6.637061,-0.71951 7.861254,-2.0619 0.391162,-0.42892 0.472391,-0.72924 0.472391,-1.74638 0,-0.67929 0.161704,-1.72514 0.361736,-2.33972 0.43854,-1.34729 0.459933,-2.69549 0.08679,-5.47132 -0.155644,-1.15784 -0.258504,-2.88378 -0.228609,-3.83535 0.05132,-1.63364 0.08502,-1.752 0.603015,-2.12131 0.301759,-0.21509 0.583178,-0.42011 0.625389,-0.45556 0.0422,-0.0355 -0.11445,-0.63344 -0.348067,-1.32885 -0.728488,-2.1682 -0.454598,-3.47541 0.894892,-4.2711 0.395029,-0.23291 2.091631,-0.49831 4.629259,-0.72412 4.034847,-0.3591 4.733572,-0.5131 6.494317,-1.43148 0.638775,-0.33316 0.962477,-0.64643 0.961168,-0.93017 0,-0.23532 -0.329364,-1.00148 -0.729559,-1.70257 -0.79359,-1.39023 -0.870127,-1.81417 -0.463031,-2.56446 0.371989,-0.68562 0.34451,-1.48261 -0.08494,-2.46454 -0.312103,-0.71362 -0.365178,-1.28646 -0.365762,-3.94828 0,-3.42134 -0.374795,-5.50551 -1.101293,-6.13646 -0.207021,-0.17985 -1.340272,-0.50132 -2.518298,-0.71441 -2.52972,-0.45762 -3.398565,-0.7811 -3.813182,-1.41979 -0.407335,-0.62747 -0.919612,-0.59568 -1.17631,0.073 -0.194909,0.50765 -0.313545,0.53499 -1.789535,0.41239 -2.317081,-0.19248 -4.114366,-1.33955 -5.025014,-3.20708 l -0.456333,-0.93585 -0.08759,-7.77582 c -0.04822,-4.27673 -0.147124,-8.03398 -0.219903,-8.34948 -0.08854,-0.38386 -0.277207,-0.57362 -0.570332,-0.57362 -0.410636,0 -0.430516,-0.0656 -0.317729,-1.04877 0.116486,-1.01563 0.106435,-1.04305 -0.317897,-0.86686 -0.240986,0.10015 -1.257521,0.69958 -2.258926,1.33229 -1.465949,0.92618 -1.884203,1.09509 -2.146379,0.86686 -0.197359,-0.17185 -1.303846,-0.28352 -2.809033,-0.28352 -1.429205,0 -2.640145,-0.11692 -2.852625,-0.27546 -0.203075,-0.15152 -0.486812,-0.66778 -0.630521,-1.14725 -0.322285,-1.07529 -0.555654,-1.1094 -0.713988,-0.10435 -0.168172,1.06727 -0.558582,1.52705 -1.296715,1.52705 -0.51415,0 -0.816335,-0.25036 -1.632882,-1.35291 -0.933236,-1.2601 -1.325637,-2.47127 -0.800648,-2.47127 0.269811,0 0.131393,-1.72302 -0.307263,-3.8242 -0.537003,-2.57232 -0.493129,-9.52876 0.07874,-12.49229 0.561582,-2.90996 1.480769,-5.51034 2.514202,-7.11269 0.967582,-1.50028 1.635642,-2.06535 2.441706,-2.06535 0.435798,0 0.557742,0.1115 0.557742,0.50989 0,0.67858 0.18139,0.64695 1.463047,-0.25496 0.874975,-0.61571 1.318338,-0.76482 2.274356,-0.76482 1.021374,0 1.216442,-0.0754 1.394258,-0.53851 0.201129,-0.52391 0.221487,-0.51358 0.75128,0.38239 0.647747,1.09553 0.917532,1.13426 1.821023,0.26143 0.788801,-0.76208 1.323487,-0.72843 1.407104,0.0886 0.07051,0.68893 0.204588,0.69442 1.496057,0.0612 0.793296,-0.38902 1.512628,-0.495 3.404341,-0.50156 2.116182,-0.007 2.45327,-0.0683 2.863516,-0.51822 0.391976,-0.4298 0.741919,-0.50988 2.228333,-0.50988 1.227157,0 1.928298,-0.1189 2.305887,-0.39112 0.418262,-0.30152 0.698958,-0.33438 1.225352,-0.14348 0.375548,0.1362 1.459641,0.32871 2.409078,0.42779 1.459489,0.15229 1.791569,0.27118 2.148862,0.76925 0.524539,0.73124 0.540738,1.70521 0.0568,3.41668 -0.452095,1.59892 -0.457697,1.49358 0.09471,1.78636 0.253283,0.13422 0.546683,0.56014 0.652046,0.94649 0.105391,0.38634 0.299237,3.29152 0.430816,6.45598 0.261717,6.29498 0.367542,6.884 1.425719,7.93615 0.524592,0.52157 0.808214,0.59372 2.334511,0.59372 1.381457,0 1.889777,-0.10619 2.48129,-0.51867 l 0.743909,-0.51863 0.993478,0.57049 c 1.278118,0.73401 1.815468,0.73189 2.874061,-0.0111 1.672166,-1.17407 4.300651,-1.57171 4.843918,-0.7328 0.436886,0.67461 0.652994,2.3074 0.940969,7.10981 0.197784,3.29858 0.355021,4.65389 0.641686,5.5311 0.208825,0.63901 0.379688,1.66941 0.379688,2.28972 0,3.0009 0.927945,7.80255 1.693513,8.76301 0.60397,0.75774 0.881505,0.84575 3.884368,1.23183 1.50877,0.19401 3.103323,0.53045 3.543463,0.74769 1.14605,0.56566 1.70112,0.49703 3.24994,-0.40181 1.67308,-0.97096 2.07344,-0.83324 2.42171,0.83289 0.14704,0.70341 0.47207,1.39807 0.88576,1.89297 0.5733,0.68588 0.66223,0.95178 0.72475,2.16704 0.0879,1.70873 -0.21707,2.62875 -0.90854,2.74062 -0.57017,0.0922 -0.62614,0.49337 -0.22117,1.58508 0.15263,0.41146 0.37199,1.95456 0.48749,3.4291 0.25953,3.31359 -0.0155,7.61263 -0.58304,9.11101 -0.20066,0.52986 -0.536,1.45095 -0.74518,2.04689 -0.20918,0.59597 -0.44268,1.25165 -0.51887,1.45714 -0.0762,0.20549 -0.49407,0.63573 -0.92861,0.95605 -1.0066,0.74207 -2.44134,0.76602 -4.67376,0.0781 -3.040507,-0.93699 -3.952606,-0.63083 -4.731401,1.58822 -1.024675,2.9196 -1.345465,8.76322 -0.654277,11.91836 0.199678,0.91143 0.489529,3.08032 0.644146,4.81976 0.154609,1.73944 0.448158,4.23748 0.65233,5.55122 0.388889,2.50214 0.356233,3.05328 -0.252107,4.25678 -0.568881,1.12546 -1.650489,1.6328 -5.00462,2.34755 -1.694409,0.36109 -3.448854,0.88169 -3.898746,1.15692 -0.449892,0.2752 -1.025984,0.46685 -1.28018,0.42586 -0.394303,-0.0636 -0.469816,0.0377 -0.514363,0.69029 -0.02867,0.42066 -0.178895,1.62527 -0.333716,2.67691 -0.154831,1.05166 -0.435737,2.95528 -0.624248,4.23025 -0.188511,1.27497 -0.434276,3.85631 -0.54617,5.73626 -0.169623,2.85053 -0.286012,3.65088 -0.70084,4.81973 -0.667875,1.88185 -1.396877,2.42709 -3.724972,2.78611 -1.743539,0.26883 -7.50066,0.3866 -7.665531,0.15678 z m 5.417345,-5.01439 c 0.907578,-1.40046 1.35778,-2.89599 1.544699,-5.13148 0.08494,-1.01584 0.250498,-2.18837 0.367938,-2.60562 0.117423,-0.41727 0.49405,-2.39331 0.836941,-4.39119 0.67544,-3.93567 1.203658,-5.66121 2.206939,-7.20929 0.678854,-1.04748 1.938224,-2.0453 2.581478,-2.0453 0.20948,0 0.828808,-0.32849 1.376296,-0.72994 0.88984,-0.65252 1.015218,-0.68633 1.182125,-0.31869 0.230413,0.50761 2.118385,0.53 2.805333,0.0333 0.892018,-0.64502 1.089307,-1.05653 1.090555,-2.27469 0,-0.73995 0.135064,-1.45321 0.364566,-1.9363 0.246144,-0.51812 0.363743,-1.19662 0.364567,-2.1033 0,-1.16793 0.04778,-1.33848 0.366957,-1.33848 0.530302,0 0.451808,-0.5967 -0.260239,-1.97837 -0.764108,-1.48265 -1.014278,-2.91644 -1.656619,-9.49415 -0.267025,-2.73429 -0.644466,-6.33384 -0.838809,-7.999 -0.194316,-1.66517 -0.353304,-3.17489 -0.353304,-3.355 0,-0.4036 2.164516,-0.95044 3.309957,-0.83619 0.760416,0.0759 0.808025,0.12604 0.862171,0.90886 0.05592,0.80789 0.430392,1.12359 0.675926,0.56974 0.06308,-0.14234 0.407203,-0.42915 0.764657,-0.63736 0.510453,-0.29731 1.557529,-0.37935 4.879567,-0.38229 3.01654,-0.004 4.36081,-0.0953 4.68687,-0.32286 0.98937,-0.69056 1.64086,-6.30575 0.99741,-8.59649 -0.17726,-0.63099 -0.33451,-1.72087 -0.3495,-2.42199 -0.0534,-2.50461 -0.8444,-3.33606 -2.96122,-3.1129 l -1.32567,0.13978 -0.38085,-0.89985 c -0.43452,-1.0267 -0.52711,-1.02596 -2.303952,0.0179 -1.566261,0.92024 -4.093619,1.46417 -7.044199,1.51602 -3.052259,0.0537 -3.093222,0.0196 -3.629404,-3.01919 -0.451414,-2.55831 -0.66376,-5.67844 -0.945248,-13.89019 -0.122593,-3.57562 -0.271051,-6.55847 -0.329923,-6.62858 -0.05884,-0.0702 -0.107027,-0.80456 -0.107027,-1.63213 0,-1.39565 -0.03203,-1.51142 -0.442335,-1.59836 -0.243261,-0.0516 -0.903413,0.12874 -1.467004,0.40063 -1.354648,0.65354 -3.996826,1.04524 -7.050527,1.04524 -2.869275,0 -3.558259,-0.26845 -4.038304,-1.57331 -0.171711,-0.46678 -0.500367,-1.163 -0.730337,-1.54722 -0.229973,-0.38419 -0.51209,-1.35936 -0.626957,-2.16703 -0.114867,-0.80767 -0.418086,-2.0797 -0.67383,-2.82677 l -0.465012,-1.35825 0.386173,-0.37707 c 0.462606,-0.45171 0.494776,-1.33988 0.122103,-3.3707 -0.145231,-0.79145 -0.392543,-2.52889 -0.549566,-3.86097 -0.157025,-1.33212 -0.328876,-2.78666 -0.381873,-3.2324 l -0.09635,-0.81044 -1.960139,0.11002 c -1.07807,0.0606 -5.540024,0.22504 -9.915469,0.36556 -10.311939,0.33112 -11.172193,0.41277 -11.295835,1.07186 -0.05459,0.29112 -0.435657,0.70865 -0.899952,0.98606 -0.706645,0.42227 -0.87671,0.69242 -1.38903,2.20623 -0.532013,1.57197 -0.589743,1.98839 -0.65056,4.69328 -0.09986,4.43989 0.389995,6.33817 2.001457,7.75631 l 0.705123,0.62052 h 6.849771 c 6.724677,0 7.670352,0.0997 8.010085,0.8445 0.07591,0.16651 0.139347,0.81355 0.140868,1.43785 0.0027,0.91993 0.109771,1.28896 0.566988,1.94658 l 0.564201,0.81149 -0.321542,0.85779 c -0.403337,1.07605 -0.79358,5.52761 -0.926167,10.5648 -0.100826,3.83126 -0.09973,3.84555 0.359135,4.58903 l 0.460261,0.74576 h 3.993412 c 4.156489,0 5.945839,-0.30574 6.249571,-1.06234 0.140806,-0.35077 0.216204,-0.34893 0.724499,0.0173 0.748146,0.53931 1.598844,0.50881 2.547379,-0.0914 0.425198,-0.26907 0.808841,-0.40865 0.852519,-0.3101 0.04371,0.0985 0.17173,2.41494 0.28456,5.14759 0.321402,7.7845 0.612703,10.92226 1.187248,12.78847 0.09022,0.29309 0.01239,0.51535 -0.248624,0.71009 -0.487678,0.36386 -0.486882,1.12834 0.0044,4.0058 0.429721,2.51782 0.42527,6.77859 -0.0088,8.02543 -0.272768,0.78425 -1.155795,1.3897 -2.549621,1.74804 -1.671182,0.42968 -2.467927,0.33051 -3.014168,-0.37522 -0.830615,-1.07314 -2.500321,-1.41148 -2.881955,-0.58397 -0.07228,0.15664 -0.36146,0.12401 -0.782634,-0.0883 -0.588097,-0.29643 -0.741398,-0.28169 -1.280976,0.12339 -1.059879,0.79573 -1.448979,1.8067 -1.580515,4.1066 -0.06423,1.12323 -0.222972,2.42764 -0.352773,2.89867 -0.236289,0.85772 -0.224467,2.01782 0.111168,10.90585 0.06432,1.70173 0.06149,3.5053 -0.0062,4.00789 -0.178743,1.32823 -0.873197,2.34537 -1.830754,2.68148 -0.520282,0.18264 -0.852645,0.45934 -0.923009,0.76847 -0.156838,0.68885 -0.489227,0.76368 -4.669922,1.05163 -2.061992,0.14203 -4.189056,0.38181 -4.72683,0.5329 -0.923194,0.25937 -0.999441,0.34099 -1.365928,1.46249 -0.311156,0.9522 -0.396613,1.76329 -0.430862,4.08887 -0.04008,2.72405 -0.01566,2.95046 0.400311,3.71074 0.243668,0.44534 0.621294,1.37701 0.839206,2.0704 0.635157,2.02106 1.030036,2.66289 1.638412,2.66289 0.354481,0 0.773354,0.29937 1.238446,0.8851 l 0.702778,0.8851 0.52068,-0.75763 c 0.590416,-0.85907 0.98095,-0.92571 2.120933,-0.36181 0.440133,0.21773 1.870082,0.62483 3.177706,0.90469 2.774767,0.59388 3.004216,0.65827 4.175662,1.17159 0.880291,0.38571 0.885937,0.38448 1.409219,-0.31442 0.48205,-0.64385 0.609799,-0.68953 1.549308,-0.55437 0.563175,0.081 1.312208,0.38441 1.66453,0.67419 0.836587,0.68811 1.131145,0.66461 1.384473,-0.11051 0.25469,-0.77931 0.515629,-0.81856 0.650789,-0.0979 0.107542,0.5733 0.09389,0.5729 2.333486,0.0687 0.604269,-0.13604 0.691752,-0.1057 0.502913,0.17446 -0.39041,0.57917 -0.278614,1.25692 0.207313,1.25692 0.278773,0 0.681801,-0.37939 1.11791,-1.05232 z"
       id="path3437" />
    <path
       style="opacity:0.930349;fill:#ffffff;stroke-width:0.215928"
       d="m 123.40476,248.86221 c -0.55571,-0.10434 -1.19477,-0.32729 -1.42015,-0.49543 -0.64344,-0.48008 -3.78347,-0.77558 -8.34063,-0.78492 l -4.18741,-0.009 0.10429,-3.63297 c 0.1116,-3.88676 0.32076,-5.17732 0.8791,-5.42436 0.48148,-0.21302 0.43929,-0.59617 -0.0969,-0.88034 -0.59774,-0.3168 -0.74682,-1.40018 -0.71988,-5.23159 0.0229,-3.27318 0.22355,-4.43195 0.80367,-4.64342 0.45965,-0.16756 0.46172,-0.4582 0.006,-0.90279 -0.19644,-0.19181 -0.44333,-0.6647 -0.54865,-1.05084 -0.21569,-0.79087 -0.24915,-3.72 -0.0752,-6.5879 l 0.11623,-1.91675 4.68442,-0.15299 c 2.57641,-0.0841 5.12309,-0.26595 5.65929,-0.40405 2.50126,-0.64428 3.9817,-1.62813 3.59714,-2.39064 -0.10059,-0.19945 -0.32012,-0.63687 -0.48787,-0.97204 -0.75677,-1.51211 -1.33724,-16.23923 -0.7204,-18.27777 0.51853,-1.71363 2.58431,-2.43769 8.22166,-2.88176 3.05766,-0.24084 3.6459,-0.3527 3.94329,-0.74984 0.29032,-0.38768 0.37159,-0.99861 0.47957,-3.6054 0.13416,-3.2384 0.29318,-4.18991 0.79778,-4.77368 0.42733,-0.49442 0.36295,-0.8742 -0.25638,-1.51253 l -0.54975,-0.56666 0.43341,-1.135 c 0.56851,-1.48875 0.45814,-2.12398 -0.6391,-3.67786 -0.65217,-0.92361 -1.15671,-1.37917 -1.84144,-1.66263 -1.21539,-0.50317 -1.1813,-0.50588 -3.43709,0.27371 -3.03984,1.05048 -6.76933,0.84581 -7.93794,-0.43567 -0.25413,-0.27865 -0.55566,-0.93163 -0.67008,-1.45109 -0.13105,-0.5948 -0.25399,-4.79012 -0.33213,-11.33242 -0.10821,-9.06096 -0.16171,-10.44044 -0.41871,-10.79873 -0.21913,-0.30547 -0.99757,-0.49563 -3.03744,-0.74193 -1.50854,-0.18219 -2.91101,-0.45671 -3.11658,-0.61008 -0.51776,-0.38631 -1.02692,-0.34995 -2.17681,0.15534 -1.02061,0.4485 -1.12213,0.40765 -1.39613,-0.56172 -0.0407,-0.14397 -0.39602,-0.005 -0.81645,0.31869 -0.40942,0.3155 -1.05726,0.57321 -1.43967,0.57268 -0.76931,0 -1.75587,-0.71851 -2.05328,-1.49316 -0.32421,-0.84454 -0.9547,-15.08734 -0.86672,-19.57943 0.0435,-2.22121 0.13901,-4.47121 0.21224,-5 0.0874,-0.63139 0.022,-1.61957 -0.19075,-2.8786 -0.25442,-1.5061 -0.27612,-1.98323 -0.10117,-2.22537 0.16862,-0.23339 1.90389,-0.28629 7.14637,-0.21779 4.9278,0.0644 7.10933,0.005 7.56768,-0.20581 0.69563,-0.32007 0.98132,-0.17789 2.28346,1.13644 0.58964,0.59519 0.62813,0.60155 1.0895,0.18036 0.41195,-0.37606 0.99482,-0.43659 4.20422,-0.43659 3.33958,0 3.75026,0.0464 3.96024,0.4468 0.17618,0.33599 0.37886,0.4065 0.81727,0.28427 0.45603,-0.12714 0.6622,-0.044 0.94675,0.38177 0.4458,0.66705 0.45966,0.66721 1.98572,0.0208 l 1.23581,-0.52327 1.43367,0.5235 c 0.78853,0.28788 1.49896,0.66679 1.57873,0.84193 0.26343,0.57836 0.15654,2.63682 -0.21509,4.14267 -0.48859,1.97967 -0.47416,2.20213 0.13715,2.11295 0.48208,-0.0704 0.50535,-0.0206 0.56141,1.20132 0.035,0.76289 -0.10543,2.12701 -0.34975,3.39732 -0.37588,1.95439 -0.38891,2.24727 -0.1644,3.6967 0.36578,2.36135 0.32915,3.50057 -0.1423,4.42356 -0.57431,1.12434 -0.52644,1.45573 0.14078,0.97475 0.51609,-0.37205 0.54863,-0.36696 0.54863,0.0861 0,0.26491 -0.0771,1.04899 -0.17152,1.7424 -0.22563,1.6587 0.018,3.10888 0.65025,3.86906 0.44332,0.53309 0.61969,0.58212 1.60979,0.44747 0.86958,-0.11828 1.33111,-0.0369 2.11777,0.37351 1.7194,0.897 1.86538,0.91188 1.73304,0.17675 -0.15568,-0.86474 -0.004,-0.91796 3.18218,-1.1184 2.62024,-0.16483 2.73743,-0.15043 3.47446,0.42701 0.95409,0.74754 1.58756,2.45054 1.84449,4.95871 0.24765,2.41745 0.23786,8.96069 -0.0171,11.50519 -0.19021,1.89761 -0.1734,2.22959 0.1994,3.94065 0.4366,2.00377 1.51146,5.17952 1.85255,5.47338 0.11433,0.0986 0.27796,0.0208 0.36363,-0.17224 0.11591,-0.26142 0.83369,-0.38584 2.80518,-0.48627 2.49974,-0.12733 2.67661,-0.17056 3.13032,-0.76485 0.4251,-0.55688 0.64345,-0.6299 1.8836,-0.6299 1.73445,0 2.75093,0.62498 4.08159,2.50938 1.06744,1.51179 2.33873,4.97212 2.79844,7.61754 0.43883,2.5247 0.64967,6.6242 0.46006,8.94234 -0.1788,2.18484 -0.83068,4.35926 -2.1938,7.31759 -2.03173,4.40904 -2.8034,4.71801 -8.95576,3.5859 -3.53232,-0.64999 -4.06398,-0.5716 -4.39664,0.6481 -0.11421,0.41881 -0.1649,4.11181 -0.13388,9.75622 0.0443,8.0655 0.0155,9.18834 -0.25808,10.0293 -0.19256,0.59206 -0.46673,0.99573 -0.73153,1.07705 -0.23294,0.0715 -1.74028,0.16271 -3.34964,0.20262 l -2.9261,0.0725 -1.0214,1.02213 c -0.56176,0.56214 -1.73572,1.4658 -2.60882,2.00813 -1.76542,1.09664 -1.94239,1.44581 -1.58018,3.1178 0.13324,0.61507 0.25091,4.07513 0.31292,9.20116 0.1132,9.35908 0.14549,9.12327 -1.38163,10.09257 -0.71618,0.45459 -1.20582,0.5425 -3.04784,0.54722 -1.20703,0.004 -2.77818,-0.0342 -3.49149,-0.0829 -0.85649,-0.0585 -1.42792,0.0254 -1.68275,0.24733 -0.31992,0.27852 -0.58257,0.27628 -1.53775,-0.0131 -1.95791,-0.59321 -3.0582,-0.69551 -4.13985,-0.38491 -1.42253,0.4085 -4.48115,0.61549 -5.70345,0.38602 z m 9.1486,-4.427 c 0,-0.18354 0.11702,-0.5564 0.26002,-0.82859 0.23238,-0.44224 0.49346,-0.49488 2.45495,-0.49488 1.9362,0 2.25584,-0.0625 2.71179,-0.53073 0.67858,-0.69676 1.51306,-2.82195 1.51846,-3.86709 0.004,-0.77543 -0.0361,-0.82854 -0.62502,-0.82854 -1.07538,0 -0.99835,-0.93413 0.10273,-1.24548 0.53774,-0.15204 0.62573,-0.28636 0.67746,-1.03431 0.0327,-0.47274 -0.0816,-1.90281 -0.25385,-3.17784 -0.38144,-2.82245 -0.38063,-5.55417 0.003,-9.37235 0.45785,-4.5587 0.6462,-5.35828 1.38859,-5.89456 1.07528,-0.77681 2.81172,-0.20194 4.08025,1.3507 0.37325,0.45686 0.72759,0.76244 0.78742,0.67903 0.0598,-0.0834 0.0115,-0.69038 -0.10747,-1.34881 -0.27853,-1.54201 -0.18996,-1.6175 1.90666,-1.62428 2.09405,-0.007 2.84997,-0.30646 3.54116,-1.4039 0.99569,-1.58088 1.23888,-3.70702 1.47269,-12.87552 0.0947,-3.71582 0.22807,-6.9568 0.29628,-7.2022 0.15985,-0.5751 1.18507,-0.59118 2.70413,-0.0424 1.12728,0.40723 1.90858,0.38158 3.41585,-0.11213 0.45263,-0.14825 1.98455,-0.37899 3.4043,-0.51276 2.96305,-0.2792 3.63943,-0.61999 4.73024,-2.38324 1.40719,-2.27488 1.76285,-4.16123 0.78087,-4.14162 -0.59445,0.0123 -0.59039,0.0307 -0.18287,-0.83645 0.23772,-0.50584 0.3201,-1.20843 0.32027,-2.73167 1.8e-4,-1.71767 0.0672,-2.18132 0.4115,-2.85494 0.55659,-1.08835 0.53731,-1.43196 -0.0593,-1.05316 -0.50801,0.32268 -0.8013,0.0123 -0.80705,-0.8556 0,-0.25076 -0.31436,-0.59693 -0.78008,-0.86363 -0.61906,-0.35456 -1.59625,-0.47968 -4.80062,-0.61471 -4.06432,-0.17126 -4.64614,-0.31201 -5.13866,-1.24312 -0.25043,-0.47348 -0.62211,-0.18457 -0.62211,0.48352 0,0.28466 -0.19474,0.62401 -0.45181,0.78727 -1.04149,0.66153 -3.22668,-1.36572 -3.93047,-3.64642 -0.34739,-1.1257 -0.43697,-2.06172 -0.58055,-6.06604 -0.0933,-2.60419 -0.29102,-5.88217 -0.43925,-7.28438 -0.24252,-2.29377 -1.049,-6.37627 -1.34152,-6.79073 -0.0629,-0.0892 -2.6245,-0.28795 -5.69233,-0.44172 -5.84088,-0.29273 -6.96623,-0.49211 -7.62163,-1.35029 -0.76743,-1.00483 -0.85623,-2.45363 -0.86968,-14.19311 l -0.0126,-11.04839 -0.50584,-0.60664 c -0.9716,-1.16519 -2.69457,-1.40769 -2.69457,-0.37923 0,0.25598 -0.10288,0.51987 -0.22861,0.58641 -0.12573,0.0666 -1.9261,0.0439 -4.00085,-0.0502 -2.91653,-0.13243 -3.87067,-0.25986 -4.20626,-0.56171 -0.72926,-0.65602 -1.23711,-0.7175 -3.7468,-0.45376 -2.96751,0.31183 -5.052,0.029 -5.57708,-0.75664 -0.38013,-0.56882 -0.84534,-0.5384 -2.26321,0.14806 -0.65723,0.31817 -0.75155,0.3095 -0.96014,-0.0882 -0.12723,-0.24252 -0.2313,-0.53376 -0.2313,-0.64717 0,-0.11347 -0.11387,-0.20624 -0.253,-0.20624 -0.35723,0 -0.4577,0.68261 -0.67542,4.58902 -0.25436,4.56365 -0.0665,9.84629 0.42037,11.82189 0.25371,1.0295 0.33583,1.83248 0.26306,2.57266 -0.0655,0.66603 -0.025,1.18859 0.10615,1.37152 0.14146,0.19717 1.10485,0.29549 2.89563,0.29549 1.96793,0 2.89707,0.10607 3.48389,0.39784 0.44013,0.21884 1.7878,0.55345 2.99483,0.7436 1.20701,0.19018 2.44147,0.4753 2.74321,0.63361 0.88188,0.4626 2.28529,1.887 2.28566,2.31988 1.9e-4,0.219 -0.25174,0.65802 -0.55985,0.9756 l -0.56022,0.57737 0.46879,0.60564 c 0.25783,0.33311 0.47827,0.6398 0.4899,0.68154 0.0117,0.0418 0.0745,3.82906 0.13975,8.41624 0.0807,5.6756 0.18493,8.43276 0.32616,8.62965 0.12053,0.16806 1.38416,0.38489 3.01494,0.51742 3.20949,0.26083 4.41204,0.55303 5.80171,1.40977 1.34863,0.83146 1.48602,0.80125 1.35799,-0.29855 l -0.10531,-0.90472 0.97086,0.51426 c 1.27255,0.67407 2.12592,1.85639 2.49386,3.45524 0.58606,2.54659 0.50455,23.74169 -0.0973,25.30948 -0.35702,0.92991 -1.30635,1.18073 -2.62469,0.69345 -1.58973,-0.58756 -4.13738,-0.74997 -6.09091,-0.38831 -2.50934,0.4646 -2.5386,0.49809 -2.64784,3.0307 -0.0719,1.66637 -0.15989,2.17291 -0.41149,2.36871 -0.41363,0.32192 -0.40335,0.59717 0.0545,1.46044 0.59484,1.12163 0.95059,4.85472 0.97538,10.23585 0.0234,5.08965 -0.0882,6.39942 -0.60734,7.12309 -0.32389,0.45148 -0.36556,0.45141 -1.33012,-0.004 -2.16044,-1.01677 -8.67042,-0.86728 -10.46658,0.24032 -1.45034,0.89434 -2.11333,2.94799 -2.11333,6.54621 0,1.30466 0.0756,1.74997 0.36577,2.15445 0.44236,0.61666 0.45022,0.91872 0.0712,2.73603 -0.37866,1.81577 -0.27503,4.1498 0.22671,5.10699 0.77355,1.47566 1.37174,1.65806 6.08962,1.85683 4.42972,0.18662 4.69626,0.23914 5.53315,1.08968 0.37532,0.38145 0.93417,0.53968 2.37747,0.67312 1.32042,0.1221 2.13385,0.33462 2.70979,0.70807 0.95391,0.61852 1.64592,0.72063 1.64592,0.24288 z"
       id="path3439" />
    <path
       style="opacity:0.930349;fill:#ffffff;stroke-width:0.215928"
       d="m 122.22055,248.31352 c -1.15223,-0.48716 -1.85138,-0.55389 -6.99522,-0.66744 -5.14931,-0.11371 -5.71442,-0.16767 -5.70859,-0.54564 0.004,-0.23073 0.0815,-1.93583 0.17322,-3.78915 0.16279,-3.2885 0.34894,-4.32261 0.85287,-4.7375 0.36339,-0.29918 0.3017,-0.88507 -0.11244,-1.06834 -0.51338,-0.22712 -0.73574,-1.62221 -0.73185,-4.59153 0.004,-3.0485 0.20973,-4.4668 0.71642,-4.9388 0.48524,-0.45199 0.47317,-0.68952 -0.0817,-1.60882 -0.44255,-0.73318 -0.45711,-0.87726 -0.4544,-4.49832 0.003,-2.05748 0.071,-3.8906 0.15418,-4.07361 0.11372,-0.24994 1.36384,-0.39114 5.02484,-0.56755 4.98922,-0.24038 6.49869,-0.52213 8.10524,-1.5128 0.89018,-0.54893 0.97248,-0.94126 0.45007,-2.14586 -0.18963,-0.43722 -0.43478,-1.54063 -0.54485,-2.45208 -0.34847,-2.88611 -0.61837,-9.10342 -0.54253,-12.49723 0.0628,-2.80868 0.12436,-3.35417 0.4322,-3.82836 0.89698,-1.38175 2.42031,-1.8613 7.64896,-2.40783 2.0979,-0.21933 3.96663,-0.51231 4.15269,-0.65114 0.38125,-0.28445 0.45192,-0.75626 0.70223,-4.68698 0.13655,-2.1443 0.26391,-2.94704 0.55463,-3.49517 0.48713,-0.91856 0.47551,-1.19888 -0.0836,-2.01242 l -0.46097,-0.67074 0.38512,-1.21375 c 0.48562,-1.5304 0.30968,-2.24883 -0.93175,-3.80481 -1.41931,-1.7789 -2.55782,-2.04508 -5.14644,-1.20327 -2.9384,0.95559 -6.05821,0.90255 -7.48673,-0.12725 -1.06809,-0.77 -1.10016,-1.06403 -1.28787,-11.81637 -0.0945,-5.41183 -0.2298,-10.34868 -0.3007,-10.97083 -0.15392,-1.35029 -0.10472,-1.32477 -3.69511,-1.91754 -1.35791,-0.22419 -2.75696,-0.46698 -3.109,-0.53955 -0.35205,-0.0725 -1.11614,0.005 -1.69795,0.17145 -0.96991,0.27816 -1.07895,0.26325 -1.31111,-0.17938 -0.23103,-0.44042 -0.30673,-0.45148 -0.86238,-0.12585 -1.79568,1.05233 -3.41315,0.32601 -3.64769,-1.63795 -0.35442,-2.96815 -0.59463,-9.61723 -0.62604,-17.33017 -0.0195,-4.76746 -0.0965,-9.25378 -0.17137,-9.96955 l -0.13608,-1.3014 0.70584,-0.15449 c 0.38821,-0.085 3.93557,-0.17132 7.883,-0.19191 l 7.17718,-0.0375 0.93501,0.83645 c 0.84965,0.76005 0.97081,0.80329 1.32684,0.47358 0.29726,-0.2753 1.26594,-0.38293 4.01466,-0.44594 3.05942,-0.0702 3.69127,-0.0206 4.06267,0.31869 0.2419,0.22096 0.72068,0.40175 1.06395,0.40175 0.34681,0 0.73114,0.17971 0.86491,0.40445 0.27073,0.45474 0.99188,0.40615 2.41065,-0.16234 0.76965,-0.30838 1.0107,-0.29583 2.10314,0.10952 0.67863,0.25183 1.33674,0.5766 1.46247,0.72168 0.31532,0.36383 0.28872,2.70408 -0.0457,4.02555 -0.41867,1.6542 -0.36763,2.29449 0.18287,2.29449 0.42935,0 0.45737,0.0816 0.45956,1.33848 0.003,0.73614 -0.13695,2.16872 -0.30721,3.1835 -0.27389,1.63247 -0.28219,2.12269 -0.0722,4.25512 0.2263,2.29766 0.2193,2.46209 -0.15,3.52554 -0.57302,1.65017 -0.52716,1.97806 0.20071,1.43501 0.37372,-0.27882 0.37873,-0.25115 0.25608,1.41755 -0.15711,2.13787 -0.009,3.26205 0.53797,4.08488 0.38135,0.57367 0.57347,0.64565 1.7227,0.64565 0.82465,0 1.67065,0.18481 2.33412,0.50989 1.34401,0.65854 1.65395,0.64738 1.72642,-0.0622 0.0774,-0.75768 0.58471,-0.89017 3.55187,-0.92749 2.21078,-0.0277 2.444,0.0147 3.01476,0.55097 0.34024,0.31965 0.79844,1.02808 1.01823,1.57425 0.722,1.79434 0.85718,3.7699 0.74714,10.91803 -0.0984,6.38876 -0.0881,6.66159 0.31258,8.30249 0.22787,0.93314 0.67827,2.42512 1.00089,3.31548 0.51371,1.41774 0.63619,1.59686 0.98622,1.44208 0.65081,-0.28779 1.19757,-0.38041 3.51629,-0.59568 1.87925,-0.17446 2.28636,-0.29119 2.77604,-0.79588 0.51058,-0.52622 0.72159,-0.57803 1.91263,-0.46963 1.61793,0.14727 2.47729,0.71411 3.65771,2.41266 2.10197,3.02449 3.44926,8.6981 3.43909,14.48204 -0.009,3.15805 -1.03878,6.90893 -2.84569,10.33066 -1.61112,3.05099 -2.49799,3.36003 -7.4047,2.58035 -4.00935,-0.63709 -4.55831,-0.65652 -5.02825,-0.17798 -0.33784,0.34405 -0.35941,0.83374 -0.44643,10.13409 -0.11171,11.93728 0.0168,11.27294 -2.2306,11.51684 -0.83516,0.0907 -2.32637,0.16544 -3.31377,0.16629 -1.66375,0 -1.84231,0.0514 -2.43677,0.6836 -0.35282,0.37515 -1.52005,1.32163 -2.59388,2.10329 l -1.95238,1.42123 0.0406,1.27472 c 0.0222,0.70112 0.0926,5.11802 0.15619,9.81543 0.115,8.49701 0.11355,8.54423 -0.28123,9.23949 -0.66808,1.1767 -1.7759,1.43279 -6.4993,1.5026 -2.5536,0.0377 -4.78112,-0.0571 -5.66932,-0.24132 -1.04624,-0.21696 -1.77568,-0.22949 -2.56034,-0.044 -0.60351,0.1427 -2.12603,0.31641 -3.38332,0.38606 -1.97528,0.1094 -2.46002,0.053 -3.56619,-0.41471 z m 10.50619,-4.14725 c 0.22567,-0.82741 0.50226,-0.92705 2.57289,-0.92705 0.99107,0 2.00515,-0.10767 2.2535,-0.23935 0.9701,-0.51417 1.95628,-2.67404 1.91526,-4.19474 -0.0222,-0.82255 -0.0846,-0.92779 -0.63514,-1.0718 -0.80686,-0.21101 -0.77011,-0.44808 0.1474,-0.9505 l 0.75795,-0.41505 -0.11327,-1.98188 c -0.0623,-1.09003 -0.19972,-2.8423 -0.30541,-3.89396 -0.26263,-2.61335 0.15421,-9.1002 0.74924,-11.65975 0.54842,-2.35906 2.61152,-2.45635 4.72706,-0.22285 0.34645,0.36575 0.7068,0.665 0.80082,0.665 0.0994,0 0.12,-0.53502 0.0492,-1.27912 -0.0892,-0.93725 -0.0588,-1.30943 0.1136,-1.39245 0.12943,-0.0623 1.14975,-0.21327 2.26736,-0.33545 3.75741,-0.41076 4.09801,-1.37829 4.46083,-12.67212 0.10361,-3.22507 0.23585,-6.59543 0.29383,-7.4897 l 0.10547,-1.62595 1.21741,0.15629 c 0.66956,0.086 1.65929,0.23127 2.19943,0.32287 0.54011,0.0916 1.52767,0.0339 2.19458,-0.12824 0.66689,-0.16213 2.37643,-0.45407 3.79897,-0.64869 3.3105,-0.45295 3.96088,-0.83185 5.08627,-2.96304 1.1576,-2.19206 1.35313,-3.59851 0.52324,-3.76403 -0.37717,-0.0752 -0.38354,-0.11963 -0.13528,-0.94786 0.14324,-0.4779 0.26074,-1.64698 0.26109,-2.59797 0,-1.27801 0.0959,-1.94681 0.36575,-2.56381 0.52669,-1.20424 0.48183,-1.60705 -0.15916,-1.42831 -0.45069,0.12563 -0.54093,0.0538 -0.64277,-0.51163 -0.21968,-1.22005 -0.88094,-1.43667 -5.47583,-1.79387 -3.98497,-0.30975 -5.24441,-0.60002 -5.24441,-1.20865 0,-0.52442 -0.69971,-0.17061 -0.80358,0.40635 -0.34532,1.91799 -2.93272,0.3956 -4.007,-2.35772 -0.44374,-1.13729 -0.53636,-1.75291 -0.68737,-4.56874 -0.4897,-9.1317 -0.7194,-11.33155 -1.55443,-14.88584 l -0.27689,-1.17871 -1.59321,0.0615 c -0.87626,0.0338 -1.38747,-0.0176 -1.13601,-0.11458 0.25146,-0.0969 -1.18873,-0.25907 -3.20043,-0.3604 -4.64387,-0.23395 -6.63081,-0.55016 -7.2238,-1.14969 -0.92849,-0.93868 -0.97433,-1.54644 -1.05602,-14.00165 l -0.0757,-11.54859 -0.71093,-0.65586 c -0.39102,-0.36072 -1.07983,-0.71381 -1.53068,-0.78466 -0.74854,-0.11754 -0.83875,-0.0707 -1.03855,0.5407 -0.21434,0.65582 -0.2546,0.6693 -1.97255,0.66167 -2.83961,-0.0127 -6.22329,-0.42691 -6.54773,-0.80167 -0.22286,-0.25741 -1.23222,-0.33778 -4.24152,-0.33778 -3.93446,0 -4.2894,-0.0653 -5.18095,-0.95187 -0.25634,-0.25493 -0.55475,-0.22899 -1.54947,0.13471 l -1.23198,0.45046 -0.30167,-0.55753 c -0.41709,-0.77086 -0.83099,-0.4645 -0.96395,0.71345 -0.0606,0.53658 -0.16223,3.27013 -0.22592,6.0745 -0.0971,4.27412 -0.0642,5.47008 0.20281,7.39344 0.17526,1.26198 0.37005,3.09759 0.43288,4.07912 l 0.11426,1.7846 2.83466,0.19251 c 1.55906,0.10582 3.36959,0.36066 4.0234,0.56624 0.65378,0.20559 2.07814,0.54964 3.1652,0.76459 2.00811,0.39709 2.67511,0.72429 3.73856,1.83404 0.74109,0.77334 0.74512,1.10787 0.0222,1.85282 l -0.57204,0.58957 0.57204,0.62411 0.57204,0.6241 0.011,4.12439 c 0.0131,4.91505 0.2553,12.86634 0.39798,13.06521 0.0556,0.0777 1.57066,0.31514 3.36661,0.52777 2.60957,0.30898 3.58878,0.5362 4.87597,1.13152 0.88583,0.40971 1.72415,0.74495 1.86294,0.74495 0.14539,0 0.27662,-0.32268 0.30962,-0.76142 l 0.0573,-0.7614 0.91442,0.60018 c 1.07114,0.70309 1.59866,1.43697 2.04005,2.83819 0.28131,0.89303 0.32869,2.16048 0.39061,10.44929 0.0703,9.41892 -0.10441,14.61476 -0.51474,15.30399 -0.35718,0.59996 -1.31586,0.69186 -2.78975,0.26747 -2.99043,-0.86113 -8.57934,-0.23718 -8.07457,0.90138 0.0551,0.12433 0.0213,0.22608 -0.0748,0.22608 -0.0963,0 -0.23325,0.80692 -0.30429,1.79312 -0.071,0.98624 -0.24399,1.95322 -0.38433,2.14886 -0.3406,0.47481 -0.32197,0.86643 0.0957,2.00836 0.59592,1.62943 0.81851,4.3118 0.82848,9.98374 0.01,5.42827 -0.12823,6.78551 -0.72108,7.10264 -0.13192,0.0705 -0.63872,-0.059 -1.12627,-0.28796 -1.32579,-0.62253 -8.31971,-0.61789 -9.77857,0.006 -1.94339,0.83179 -2.72084,2.71128 -2.72084,6.57764 0,1.71418 0.0659,2.29413 0.29015,2.55356 0.21597,0.24991 0.2626,0.59996 0.18236,1.36967 -0.0593,0.5687 -0.15358,2.0092 -0.20958,3.20104 -0.0839,1.78454 -0.0434,2.32455 0.2291,3.05934 0.59597,1.60696 1.16057,1.80217 6.28371,2.17268 4.13179,0.29884 4.61661,0.38146 5.20345,0.88707 0.4659,0.40141 1.22231,0.65219 2.70082,0.89551 1.1295,0.18587 2.34167,0.51475 2.69375,0.73081 0.97263,0.59704 1.62325,0.52914 1.81931,-0.18974 z"
       id="path3441" />
    <path
       style="opacity:0.930349;fill:#ffffff;stroke-width:0.305366"
       d="m 125.48541,241.93413 c -7.63985,-0.94953 -9.03946,-1.47287 -9.76536,-3.65141 -0.58631,-1.7595 -1.04718,-6.22348 -0.84211,-8.15655 0.60745,-5.72654 3.77752,-7.56668 10.12082,-5.87486 1.57411,0.41983 2.99678,0.76332 3.16148,0.76332 0.22099,0 0.29945,-3.21239 0.29945,-12.25862 v -12.2586 h 5.98515 5.98515 l -0.1605,-11.08682 c -0.20073,-13.86553 -0.609,-17.33746 -2.37365,-20.18595 l -0.84049,-1.35674 -4.79502,-0.18025 c -4.59137,-0.17264 -4.82248,-0.21634 -5.44232,-1.02905 -0.36225,-0.47495 -0.7692,-1.58645 -0.92402,-2.52384 -0.29692,-1.79745 -0.85716,-12.02741 -0.77296,-14.11393 0.0279,-0.69407 -0.0357,-1.86067 -0.14153,-2.59247 -0.22339,-1.54446 0.57548,-1.20185 -8.36543,-3.58793 l -5.76772,-1.53924 0.15853,-2.90045 c 0.41632,-7.61685 0.82033,-11.27457 1.35581,-12.27468 0.12514,-0.23369 3.98298,-0.31804 10.96565,-0.23976 l 10.77261,0.12075 0.11458,10.69563 c 0.12588,11.75217 0.31417,13.46993 1.67579,15.28808 1.27549,1.70309 2.47914,2.1408 6.67602,2.4278 6.5401,0.44727 7.14531,1.35019 7.61958,11.36767 0.27997,5.91369 0.50643,7.19929 1.63382,9.27499 1.42784,2.62895 3.26728,3.36299 6.01248,2.39934 1.48566,-0.52148 4.69214,0.0998 6.31557,1.22373 1.84217,1.27537 2.16728,2.53572 2.09738,8.13155 -0.0313,2.51044 -0.85213,3.75232 -2.88086,4.35884 -2.2681,0.6781 -8.57091,1.91477 -9.57006,1.87777 -1.43454,-0.0532 -1.79824,1.38667 -2.06113,8.15972 -0.25017,6.44557 -0.66111,8.57549 -1.96156,10.16723 -1.17419,1.43723 -2.15029,1.97922 -5.20648,2.89106 -6.08347,1.81504 -5.92789,1.47491 -6.31657,13.81205 -0.30447,9.66452 -0.32716,9.78428 -2.13016,11.2434 -2.30666,1.86671 -5.12363,2.2928 -10.63194,1.60819 z"
       id="path3451" />
    <path
       style="opacity:0.930349;fill:#ffffff;stroke-width:0.305366"
       d="m 123.80431,241.58907 c -5.7892,-0.93811 -7.453,-1.66537 -7.97446,-3.48561 -0.81884,-2.85835 -1.04911,-7.564 -0.47613,-9.72936 1.0743,-4.05984 4.14001,-5.26918 9.83627,-3.88019 3.19615,0.77936 3.13971,0.8187 3.1439,-2.19082 0.003,-1.384 0.0311,-6.85648 0.0647,-12.16101 l 0.0611,-9.64467 h 6.0779 c 5.61879,0 6.07735,-0.0477 6.07068,-0.63095 -0.0872,-7.64891 -0.55709,-22.20724 -0.78247,-24.24681 -0.35576,-3.21967 -0.74978,-4.6472 -1.78623,-6.47148 l -0.7728,-1.36021 -4.72683,-0.25748 c -5.18756,-0.28257 -5.67676,-0.47634 -6.27394,-2.48486 -0.3795,-1.27638 -0.89964,-8.4108 -0.92907,-12.74329 -0.0105,-1.55228 -0.0978,-3.55181 -0.19396,-4.44338 -0.21764,-2.01819 -0.15698,-1.98663 -7.60207,-3.95186 -3.02744,-0.79911 -5.7436,-1.53031 -6.03592,-1.62485 -0.52397,-0.16947 -0.52698,-0.24313 -0.21248,-5.18963 0.36747,-5.77976 0.7586,-9.05015 1.14689,-9.58931 0.29457,-0.40906 21.03742,-0.534 21.32833,-0.12845 0.0882,0.12309 0.26128,5.06589 0.38453,10.98415 0.12325,5.91825 0.3494,11.35012 0.50256,12.07078 0.75047,3.53085 2.20905,4.50868 7.68175,5.14975 6.8628,0.80395 7.0279,1.0486 7.72422,11.44524 0.20798,3.10572 0.50209,6.10726 0.65355,6.67012 0.49216,1.82895 1.52393,3.58243 2.60758,4.43143 0.9993,0.78297 1.23152,0.81652 4.00398,0.57852 4.35305,-0.37371 7.38533,0.71796 8.2152,2.95754 0.54388,1.46776 0.78039,5.43414 0.43173,7.2393 -0.38586,1.99753 -1.25559,2.7253 -4.11947,3.44709 -2.20584,0.5559 -7.99074,1.65879 -8.70076,1.65879 -0.48222,0 -1.23749,2.05719 -1.07439,2.92651 0.0701,0.37344 0.0368,0.67898 -0.0738,0.67898 -0.11066,0 -0.28444,1.94463 -0.3862,4.3214 -0.41894,9.7852 -1.113,11.05805 -7.15831,13.12806 -1.90103,0.65094 -3.81898,1.44574 -4.26211,1.7662 -1.44192,1.04278 -1.66407,2.31841 -2.06246,11.84223 -0.266,6.35867 -0.46819,8.91689 -0.76884,9.72734 -0.28867,0.77822 -0.91294,1.43167 -2.13565,2.23548 -1.67749,1.10281 -1.8406,1.13782 -5.60724,1.20274 -2.13374,0.0368 -4.75239,-0.0746 -5.81925,-0.24743 z"
       id="path3453" />
    <path
       style="opacity:0.930349;fill:#ffffff;stroke-width:0.305366"
       d="m 61.295397,241.93563 c -1.665141,-0.1786 -3.057311,-0.54295 -3.781838,-0.9897 -3.23798,-1.99672 -5.635465,-7.96292 -4.074377,-10.13914 0.734311,-1.02366 2.098462,-1.46479 5.585253,-1.8062 1.835838,-0.17971 3.53237,-0.54974 4.138144,-0.90249 3.186434,-1.85559 3.994718,-5.73121 3.998861,-19.17391 l 0.0023,-6.89653 1.661325,0.48548 c 3.717602,1.08635 5.099988,1.26968 6.505875,0.86281 2.01838,-0.58413 3.085214,-2.08753 3.586866,-5.05476 0.470143,-2.78065 0.531638,-11.05483 0.133079,-17.90462 -0.477704,-8.2101 -1.11316,-11.00498 -2.596156,-11.41848 -1.303639,-0.36342 -4.173421,-0.26139 -8.773724,0.31201 -2.347111,0.29255 -4.482606,0.53391 -4.745581,0.53635 -0.513472,0.005 -0.505864,-1.20533 0.07695,-12.24466 0.250866,-4.75146 -0.120445,-7.6991 -1.120985,-8.89885 -0.980339,-1.17554 -2.146637,-1.51457 -6.646587,-1.93201 -8.261492,-0.76645 -9.446143,-1.37893 -9.917526,-5.12748 -0.492639,-3.91767 1.350643,-6.56091 5.367903,-7.69758 2.527919,-0.71526 12.551558,-1.0781 15.563386,-0.56338 3.090082,0.52809 3.348001,0.9183 3.576752,5.41121 0.309746,6.08302 1.719776,11.86837 3.277026,13.44548 0.917158,0.92883 3.620527,1.37173 8.423528,1.37995 l 4.15605,0.007 0.274211,10.00519 c 0.284489,10.38143 0.419768,11.57976 1.54592,13.69473 1.060092,1.99087 2.520289,2.34462 9.087429,2.20149 6.302479,-0.13739 7.009179,0.0472 7.586069,1.9818 0.18807,0.63073 0.34256,2.50712 0.34547,4.19637 0.005,2.98922 -0.0103,3.06608 -0.71516,3.54118 -0.49573,0.33416 -2.55271,0.56973 -6.595156,0.75526 -7.097982,0.32577 -7.708321,0.57583 -8.277647,3.39157 -0.404738,2.00185 -0.147779,4.94185 1.219647,13.95394 0.912476,6.01383 0.977834,8.23836 0.302957,10.31003 -0.601396,1.84595 -1.647232,2.76389 -4.297908,3.77219 -1.134907,0.43171 -2.354437,0.99384 -2.710064,1.24916 -1.741009,1.24994 -2.643349,3.75595 -4.477197,12.43442 l -1.408697,6.66647 -3.587543,0.22643 c -4.770579,0.30108 -9.465057,0.27483 -12.688641,-0.0709 z"
       id="path3455" />
    <path
       style="opacity:0.930349;fill:#ffffff;stroke-width:0.305366"
       d="m 59.959525,241.56385 c -2.774158,-0.58794 -4.701711,-2.35908 -5.999052,-5.51228 -1.209066,-2.93871 -0.964186,-5.12877 0.670335,-5.99511 0.317518,-0.16828 2.203053,-0.55544 4.190065,-0.86033 1.987011,-0.30489 3.935679,-0.72553 4.330376,-0.93471 3.199309,-1.69571 3.988538,-5.27552 4.003286,-18.15844 l 0.0091,-7.88099 0.581921,0.20268 c 1.458043,0.50786 5.27532,1.31768 6.211066,1.31768 2.621086,0 4.560227,-2.02262 5.058367,-5.27608 0.414852,-2.70938 0.362767,-15.86116 -0.08385,-21.17558 -0.420516,-5.00372 -1.012782,-7.46953 -1.96475,-8.17975 -0.597183,-0.44554 -6.552273,-0.32307 -11.977058,0.24635 l -2.303618,0.24177 0.234533,-6.09349 c 0.341184,-8.86341 0.274984,-11.97573 -0.289965,-13.63545 -0.732275,-2.15121 -1.777643,-2.61006 -7.463438,-3.27579 -2.66856,-0.31247 -5.425324,-0.71973 -6.126161,-0.90499 -2.593862,-0.68578 -3.602268,-2.12792 -3.602268,-5.1518 0,-2.96695 1.547511,-4.97489 4.794105,-6.22051 1.984905,-0.76148 14.411204,-1.17834 16.801783,-0.5636 1.909716,0.49107 2.368763,1.18925 2.582674,3.928 0.733304,9.38933 2.090338,14.31869 4.201112,15.26021 0.572815,0.25551 3.180465,0.49935 6.319402,0.59092 l 5.34419,0.15588 0.14277,3.304 c 0.07851,1.81717 0.251598,6.43305 0.384607,10.25746 0.220769,6.34748 0.299445,7.11759 0.902621,8.83624 1.136031,3.23693 1.275548,3.29033 9.14841,3.49953 l 6.783272,0.18029 0.68721,0.95805 c 0.62293,0.86844 0.69922,1.2781 0.81557,4.37879 0.12132,3.23361 0.0976,3.44364 -0.43311,3.83964 -0.31998,0.23871 -3.20552,0.62005 -6.70896,0.88663 -6.776081,0.51558 -7.387356,0.72109 -8.139177,2.73673 -0.633139,1.6974 -0.446992,5.09428 0.731034,13.33982 1.035326,7.24675 1.126737,9.87805 0.410708,11.8223 -0.615862,1.6722 -1.477939,2.37868 -4.520596,3.70452 -1.325409,0.57754 -2.714629,1.38429 -3.087134,1.79279 -1.043308,1.14406 -2.364549,5.3358 -3.795133,12.04035 -0.716404,3.35757 -1.366491,6.19377 -1.444606,6.30271 -0.255812,0.3566 -15.714514,0.35269 -17.399575,-0.005 z"
       id="path3457" />
  </g>
</svg>
