<?xml version="1.0" encoding="UTF-8" standalone="no"?>
<svg
   xmlns:dc="http://purl.org/dc/elements/1.1/"
   xmlns:cc="http://creativecommons.org/ns#"
   xmlns:rdf="http://www.w3.org/1999/02/22-rdf-syntax-ns#"
   xmlns:svg="http://www.w3.org/2000/svg"
   xmlns="http://www.w3.org/2000/svg"
   xmlns:sodipodi="http://sodipodi.sourceforge.net/DTD/sodipodi-0.dtd"
   xmlns:inkscape="http://www.inkscape.org/namespaces/inkscape"
   width="132.29163mm"
   height="132.29167mm"
   viewBox="0 0 132.29163 132.29167"
   version="1.1"
   id="svg18135"
   inkscape:version="1.0 (b51213c273, 2020-08-10)">
  <defs
     id="defs18129" />
  <sodipodi:namedview
     id="base"
     pagecolor="#ffffff"
     bordercolor="#666666"
     borderopacity="1.0"
     inkscape:pageopacity="0.0"
     inkscape:pageshadow="2"
     inkscape:zoom="0.35"
     inkscape:cx="282.5671"
     inkscape:cy="202.6961"
     inkscape:document-units="mm"
     inkscape:current-layer="layer1"
     inkscape:document-rotation="0"
     showgrid="false"
     inkscape:snap-global="false"
     fit-margin-top="0"
     fit-margin-left="0"
     fit-margin-right="0"
     fit-margin-bottom="0"
     showborder="false"
     inkscape:window-width="1318"
     inkscape:window-height="704"
     inkscape:window-x="48"
     inkscape:window-y="27"
     inkscape:window-maximized="1" />
  <metadata
     id="metadata18132">
    <rdf:RDF>
      <cc:Work
         rdf:about="">
        <dc:format>image/svg+xml</dc:format>
        <dc:type
           rdf:resource="http://purl.org/dc/dcmitype/StillImage" />
        <dc:title></dc:title>
      </cc:Work>
    </rdf:RDF>
  </metadata>
  <g
     inkscape:label="Layer 1"
     inkscape:groupmode="layer"
     id="layer1"
     transform="translate(-31.070789,-94.536656)">
    <path
       style="fill:#000000;stroke-width:0.777868"
       d="m 72.407207,226.1536 c 2.03987,-0.52033 2.920812,-2.70727 2.943724,-7.30797 0.02477,-2.31908 0.432023,-6.12022 0.934205,-8.44687 0.50227,-2.3267 0.724606,-4.5251 0.494129,-4.88538 -0.231627,-0.36027 -0.0752,-0.37953 0.34806,-0.0427 0.422025,0.3367 0.866784,0.24298 0.98826,-0.20828 0.122008,-0.45122 1.703491,-1.0163 3.515272,-1.25577 4.435938,-0.58633 5.132941,-0.89358 6.096516,-2.68781 0.566502,-1.05484 0.636753,-2.2327 0.224107,-3.74913 -0.331602,-1.21608 -0.681519,-4.03696 -0.777339,-6.26861 -0.09706,-2.23169 -0.391146,-4.47087 -0.656125,-4.976 -0.942255,-1.7967 -0.293294,-10.33994 0.928275,-12.22186 1.08514,-1.67163 1.43603,-1.72506 4.333661,-0.65952 2.55453,0.93944 3.45352,0.93506 4.737552,-0.0243 0.871731,-0.65031 1.436552,-1.37916 1.255445,-1.6196 -0.181718,-0.24055 0.161917,-1.20385 0.760262,-2.14088 1.185028,-1.85238 1.378256,-11.58273 0.278438,-14.01475 -0.378326,-0.83649 -0.342405,-1.08226 0.102011,-0.69914 0.798563,0.68811 1.56944,-2.63868 1.049397,-4.52848 -0.194299,-0.70901 -0.619596,-1.28907 -0.943316,-1.28907 -0.323374,0 -0.588099,-0.59554 -0.588099,-1.32345 0,-2.11698 -1.255012,-2.61872 -2.867275,-1.14616 -1.069312,0.97662 -1.823991,1.10309 -2.665659,0.44653 -0.645687,-0.50372 -2.258929,-0.89854 -3.585073,-0.87738 -4.016479,0.0641 -4.566261,-0.50116 -5.332717,-5.48262 -0.391675,-2.54561 -0.559777,-4.97186 -0.373716,-5.39163 0.186681,-0.41978 0.05751,-0.90187 -0.289135,-1.07131 -0.345139,-0.16937 -0.680281,-2.37447 -0.74478,-4.90018 -0.216673,-8.47227 -0.430782,-9.00083 -3.432722,-8.43954 -1.451958,0.27146 -2.831011,0.92433 -3.064318,1.45069 -0.283383,0.63916 -1.025067,0.52263 -2.232832,-0.35079 -0.994454,-0.71932 -1.652616,-0.95684 -1.462396,-0.5278 0.189247,0.42901 -0.709832,0.95183 -2.000498,1.16185 -3.326645,0.54141 -4.605279,-1.38299 -4.392939,-6.6116 0.226671,-5.57901 -0.393358,-10.30057 -1.25519,-9.55818 -0.457857,0.39475 -0.447503,-0.0388 0.03008,-1.28557 1.129999,-2.94281 0.234106,-4.8427 -2.17426,-4.61652 -1.149374,0.10792 -2.428539,-0.0958 -2.842865,-0.45258 -0.414061,-0.356832 -0.93332,-0.242287 -1.153443,0.25445 -0.219063,0.49682 -1.278369,0.65855 -2.351301,0.35941 -1.151938,-0.3211 -1.950952,-0.15655 -1.950952,0.40204 0,0.55365 -1.116815,0.79601 -2.692723,0.58441 -1.480799,-0.19891 -3.295324,0.0882 -4.032406,0.63811 -0.971539,0.72496 -1.216879,0.72208 -0.892177,-0.01 0.249764,-0.56299 0,-1.01004 -0.540314,-1.01004 -0.543588,0 -1.199185,0.47589 -1.457176,1.05756 -0.324702,0.73277 -0.74124,0.53783 -1.356315,-0.63478 -0.543588,-1.03605 -0.887754,-1.22999 -0.887754,-0.50008 0,0.72793 -0.421051,0.96703 -1.081159,0.61394 -0.594638,-0.31797 -1.816914,0.0937 -2.716346,0.91543 -0.899434,0.82152 -1.433024,1.03759 -1.186003,0.48003 0.24649,-0.55751 0.117052,-1.0137 -0.291612,-1.0137 -3.313018,0 -6.171012,7.6264 -6.082892,16.2322 0.03274,3.11864 0.374513,6.49497 0.761501,7.50294 0.511471,1.33206 0.496431,1.92893 -0.05485,2.18499 -1.105136,0.51362 1.447974,4.38798 2.891614,4.38798 0.647191,0 1.205466,-0.7192 1.247757,-1.60724 0.07255,-1.49191 0.09962,-1.48926 0.382829,0.0365 0.255426,1.37044 0.844047,1.57795 3.541283,1.24851 1.979087,-0.24161 3.082719,-0.0511 2.842599,0.49062 -0.219151,0.4935 0.221629,0.449 0.993835,-0.10027 4.080624,-2.90243 3.993742,-2.87112 3.55597,-1.28136 -0.27958,1.01589 -0.164298,1.29611 0.353898,0.85079 0.785831,-0.67701 1.127962,2.04032 0.854841,6.79175 -0.07255,1.26284 -0.08494,3.53593 -0.02477,5.05134 0.05928,1.51541 0.131916,3.52706 0.164297,4.47033 0.03274,0.94324 0.788751,2.38176 1.681017,3.19666 1.980061,1.80871 5.997248,2.32746 6.011405,0.77634 0,-0.75544 0.181815,-0.71758 0.564024,0.12186 0.31028,0.68202 1.972099,1.31295 3.77813,1.43419 1.820983,0.12223 3.224367,0.65823 3.224367,1.23146 0,0.55821 0.181728,1.26894 0.404859,1.57943 0.221631,0.31035 0.3063,2.18842 0.18677,4.17315 -0.122007,1.98474 0.08228,3.86844 0.450689,4.18595 0.448479,0.38645 0.433969,0.97346 -0.04247,1.77584 -0.526424,0.88402 -0.427863,1.59717 0.375751,2.71727 0.599061,0.83526 0.980032,1.63429 0.846348,1.77563 -1.110267,1.17336 -4.671547,2.24581 -6.831387,2.05719 -4.046296,-0.3534 -6.439798,0.59569 -6.654968,2.63882 -0.1021,0.98189 0.141913,2.33926 0.545092,3.01636 0.556858,0.93543 0.511029,1.16351 -0.191725,0.94968 -1.021704,-0.31136 -1.165298,3.34589 -0.304706,7.76676 0.300282,1.54312 0.201633,3.02719 -0.250029,3.78689 -0.408841,0.68713 -0.570042,1.88024 -0.35788,2.65136 0.278164,1.00974 -0.317978,1.73744 -2.12976,2.60076 -1.383653,0.65928 -2.812252,1.06413 -3.174555,0.89967 -1.259701,-0.57168 -5.714042,-0.0799 -6.775559,0.74835 -3.801575,2.96577 -2.046063,25.3167 1.991739,25.36102 0.587206,0.007 1.283323,0.31277 1.547332,0.68085 0.263919,0.368 0.877933,0.20897 1.364277,-0.35376 0.656393,-0.75958 0.884038,-0.73778 0.884038,0.0844 0,0.6091 0.370709,0.92567 0.82361,0.70355 0.45299,-0.22215 1.490619,-0.0601 2.305824,0.35992 0.835642,0.43062 2.200982,0.38303 3.129522,-0.10903 0.905803,-0.4801 1.646866,-0.52412 1.646866,-0.0978 0,0.81201 3.615335,0.49721 4.663582,-0.40613 0.333903,-0.28777 0.607024,-0.0371 0.607024,0.55678 0,0.60651 0.545624,0.88089 1.244838,0.626 0.684527,-0.24957 1.648104,-0.10447 2.141172,0.32246 0.824494,0.71394 7.006743,0.58808 10.119985,-0.20582 z M 44.07774,224.43986 c -0.181727,0 0.182523,0 0,0 z m 23.350914,-3.15167 c 0.697181,-1.17103 0.527573,-1.24488 -1.237316,-0.53929 -1.259701,0.50367 -1.898664,0.4876 -1.663853,-0.0416 0.209154,-0.47271 0.06724,-0.85944 -0.316739,-0.85944 -0.383714,0 -0.702223,0.51662 -0.70762,1.14805 0,0.71096 -0.19429,0.79841 -0.494308,0.22943 -0.656656,-1.24618 -4.107518,-1.68029 -4.107518,-0.51671 0,0.61929 -0.565089,0.63092 -1.689776,0.0348 -0.929602,-0.49257 -2.579742,-0.89565 -3.666829,-0.89565 -1.087441,0 -2.588146,-0.45592 -3.335225,-1.01324 -1.042585,-0.77781 -1.49177,-0.72444 -1.932993,0.22945 -0.482009,1.04182 -0.669752,1.0381 -1.160344,-0.0243 -0.321693,-0.69616 -0.893947,-0.99967 -1.271202,-0.67454 -0.384953,0.33149 -1.048512,-0.80537 -1.51088,-2.58872 -0.453698,-1.74894 -1.02197,-3.01007 -1.262975,-2.80256 -0.241535,0.20758 -0.313465,-1.3587 -0.161908,-3.48059 0.151911,-2.12186 0.614544,-4.14888 1.02719,-4.50446 0.412822,-0.35559 2.392175,-0.67706 4.398689,-0.71438 5.15037,-0.0958 5.953896,-0.24611 5.953896,-1.11302 0,-0.42092 0.434234,-0.76534 0.965169,-0.76534 1.409843,0 2.235311,-2.75392 1.926444,-6.429 -0.658779,-7.84288 -0.698858,-11.09907 -0.141911,-11.57879 0.328948,-0.28324 0.424059,-1.27998 0.211719,-2.2145 -0.536864,-2.35811 1.598558,-5.77906 2.764918,-4.42952 0.566502,0.65538 0.862274,0.67345 0.862274,0.0528 0,-0.51967 0.592867,-0.72875 1.31774,-0.46455 0.724606,0.26416 1.317474,0.77891 1.317474,1.14379 0,1.09938 4.380464,0.53346 5.449944,-0.70406 1.053026,-1.21834 1.120001,-7.32907 0.117055,-10.68047 -0.347618,-1.1615 -0.25304,-1.91195 0.271704,-2.15576 0.568183,-0.26415 0.603041,-0.71299 0.119528,-1.5268 -0.37752,-0.63404 -0.804056,-4.8301 -0.948271,-9.32456 -0.144389,-4.49448 -0.292318,-8.29563 -0.329389,-8.44701 -0.03716,-0.15134 -0.578712,0.12358 -1.203433,0.61093 -0.738054,0.5758 -1.57352,0.55971 -2.38545,-0.0459 -0.849886,-0.63405 -1.116106,-0.63162 -0.832723,0.007 0.556241,1.25485 -9.774404,1.8629 -10.552803,0.6211 -0.638167,-1.0187 -0.651615,-6.57687 -0.02477,-8.72504 0.221629,-0.75772 0.301079,-2.20424 0.174295,-3.2145 -0.126961,-1.0103 0.08228,-2.38498 0.466438,-3.05491 0.498288,-0.87127 0.464403,-1.41815 -0.119529,-1.92102 -0.448743,-0.38662 -0.765217,-1.07841 -0.703019,-1.53722 0.254276,-1.88144 -0.104577,-2.74407 -1.196176,-2.87487 -2.503211,-0.29992 -7.257392,-0.31138 -10.645171,-0.0243 -2.878963,0.24298 -3.795825,-0.0479 -4.776654,-1.51547 -2.222304,-3.3254 -1.193168,-13.40926 1.368613,-13.40926 0.434411,0 0.645865,-0.32457 0.4698,-0.7216 -0.400878,-0.90455 -0.305237,-0.9144 12.412628,-1.2756 l 10.523341,-0.29887 c 0,0 0.612863,6.76527 0.92916,7.62362 0.72275,1.96153 0.23145,4.04246 -0.78539,3.3351 -0.422111,-0.29333 -0.310987,0.0138 0.246491,0.68309 0.557746,0.66888 1.061694,2.21221 1.119735,3.42956 0.05751,1.21741 0.36478,2.4573 0.681077,2.75529 0.316474,0.29818 0.746725,1.19255 0.956145,1.9878 0.304529,1.15613 1.352864,1.41635 5.229112,1.29837 2.666357,-0.0813 5.512142,-0.64308 6.323897,-1.24866 1.387545,-1.03519 1.477613,-0.92061 1.505482,1.91615 0.169339,17.12548 0.926505,24.55614 2.515686,24.6933 3.916858,0.33809 9.262757,-0.72805 10.431593,-2.08026 0.6172,-0.71403 0.950659,-0.58307 1.245724,0.48933 0.287098,1.04286 0.718682,1.22884 1.49947,0.64621 1.31951,-0.98428 3.745827,1.12865 3.063512,2.66765 -0.248968,0.56085 -0.126953,1.56813 0.273395,2.23839 0.831484,1.39672 0.273643,8.03376 -0.749468,8.91945 -0.365577,0.31622 -2.554526,0.36353 -4.864778,0.1052 -2.878697,-0.32213 -4.519459,-0.10101 -5.21416,0.70288 -0.835908,0.96697 -0.950659,0.94393 -0.65489,-0.13121 0.283119,-1.02783 -0.21172,-1.22833 -2.333162,-0.94625 -2.187976,0.29087 -2.60832,0.63982 -2.245042,1.86307 0.246488,0.82781 0.733897,5.39116 1.084167,10.14076 0.380706,5.16134 1.012945,9.15989 1.57175,9.93869 1.048334,1.46153 1.250501,2.47082 0.337355,1.68404 -0.328684,-0.2829 -0.450956,0.26589 -0.272149,1.21978 0.179251,0.95397 0.02477,2.00099 -0.362038,2.32672 -0.378051,0.32594 -0.531908,1.1572 -0.341866,1.84763 0.189247,0.69044 -0.03981,1.58754 -0.511205,1.99357 -1.273149,1.09679 -3.186058,1.11409 -3.186058,0.0277 0,-0.56725 -0.317713,-0.50559 -0.790608,0.15343 -0.434675,0.60615 -1.280848,1.10212 -1.880174,1.10212 -2.121975,0 -4.339942,4.01107 -4.798772,8.67922 -0.241535,2.44896 -0.731418,4.94567 -1.090182,5.54823 -0.358854,0.60258 -0.466615,1.3543 -0.23897,1.67047 0.637105,0.88842 -1.077709,5.94519 -2.224429,6.55859 -0.835112,0.44678 -0.873952,0.29922 -0.214109,-0.81063 z m 53.142166,3.70077 c 0.46369,-0.24819 1.82345,-0.0591 3.02167,0.41993 1.1982,0.47904 2.26361,0.5152 2.36775,0.0802 0.10457,-0.43481 1.43824,-0.46034 2.96488,-0.0566 2.85038,0.7535 6.34043,-0.52444 6.45916,-2.36507 0.27464,-4.25506 0.0469,-16.84071 -0.32469,-18.02363 -0.31348,-0.99518 -0.0743,-1.69148 0.72213,-2.10651 1.9014,-0.99044 4.15485,-2.77114 4.15485,-3.28336 0,-0.25894 1.61236,-0.40256 3.5834,-0.319 3.39822,0.14441 3.60357,0.0243 3.97613,-2.34116 0.21667,-1.37133 0.25994,-6.01965 0.0971,-10.3297 -0.16192,-4.31006 -0.0849,-8.31001 0.17172,-8.88886 0.34018,-0.76722 1.55858,-0.8073 4.49558,-0.14788 5.99653,1.34621 6.82342,0.94473 9.16455,-4.44841 1.74649,-4.02362 2.03217,-5.52275 1.91406,-10.04738 -0.2365,-9.08508 -3.34461,-15.83977 -7.28659,-15.83977 -1.25414,0 -2.28035,0.38315 -2.28035,0.85146 0,0.46833 -1.3341,0.74651 -2.9646,0.61818 -1.77569,-0.13989 -2.97062,0.16349 -2.97913,0.75576 0,0.544 -0.61126,-0.84491 -1.34082,-3.08642 -0.72938,-2.24151 -1.13549,-4.7213 -0.90245,-5.51055 0.23411,-0.78928 0.37558,-4.53477 0.31648,-8.32329 -0.12201,-7.8722 -1.26014,-10.09053 -4.91405,-9.58408 -1.1215,0.15551 -2.57523,0.30893 -3.23066,0.34122 -0.69292,0.0347 -1.00436,0.48145 -0.74397,1.06869 0.29904,0.6746 -0.0372,0.64716 -1.01693,-0.0826 -0.8053,-0.60094 -2.01625,-0.89149 -2.69052,-0.64565 -1.71489,0.62522 -2.73704,-1.45336 -2.19487,-4.46388 0.36231,-2.01201 0.26808,-2.36495 -0.46599,-1.74843 -0.75991,0.63841 -0.77415,0.52211 -0.0823,-0.6697 0.56897,-0.97926 0.65019,-2.14143 0.25356,-3.62041 -0.32125,-1.19798 -0.34867,-3.00477 -0.0593,-4.01503 0.82919,-2.90731 0.73576,-6.18098 -0.15447,-5.41409 -0.54527,0.46978 -0.61553,0.14961 -0.24153,-1.09386 0.82971,-2.749658 0.76202,-5.387585 -0.14193,-5.530767 -0.4529,-0.07178 -0.97162,-0.233946 -1.15281,-0.360072 -0.83866,-0.584445 -2.07225,-0.516054 -3.08945,0.171489 -0.64834,0.438168 -1.28607,0.361489 -1.52786,-0.183637 -0.22916,-0.514711 -0.69099,-0.698102 -1.02817,-0.407469 -0.33744,0.29052 -0.61349,0.192985 -0.61349,-0.216964 0,-0.410009 -1.92634,-0.744365 -4.28093,-0.743021 -2.3543,9.64e-4 -4.28136,0.376463 -4.28207,0.833589 0,0.457161 -0.54456,0.14613 -1.20794,-0.690812 -0.66366,-0.837092 -1.41613,-1.229846 -1.67236,-0.872773 -0.25594,0.357087 -2.6038,0.535753 -5.21689,0.397048 -10.965104,-0.582066 -10.384711,-0.731921 -9.71779,2.508435 0.297806,1.447783 0.334797,3.098304 0.08228,3.667864 -0.421582,0.95058 -0.358322,5.94673 0.209153,16.66055 0.122016,2.2731 0.257992,5.01463 0.305246,6.09226 0.09961,2.2618 2.527444,3.54097 3.839701,2.02269 0.61605,-0.71259 0.85776,-0.70816 0.85776,0.0173 0,0.69587 0.51023,0.73777 1.64722,0.13503 0.90589,-0.48014 1.6481,-0.57325 1.64934,-0.20688 0,0.36636 1.33721,0.70275 2.96841,0.74755 1.63121,0.0448 3.15713,0.34815 3.39097,0.67408 0.23401,0.32595 0.38592,5.51462 0.33832,11.53051 -0.0646,8.27358 0.13449,11.19304 0.81848,11.98536 1.32579,1.53376 5.63646,1.83083 8.33519,0.57438 2.47464,-1.15211 4.07895,-0.51485 5.65318,2.24522 0.57447,1.00738 0.58985,1.70142 0.0575,2.59566 -0.53687,0.90195 -0.50449,1.41221 0.12448,1.95428 0.59959,0.51666 0.63569,0.91942 0.12201,1.36183 -0.40114,0.34539 -0.72904,2.46367 -0.72904,4.70695 0,3.81934 -0.11457,4.08344 -1.81177,4.15261 -6.60313,0.26937 -9.77936,0.99343 -10.53459,2.40195 -0.53686,1.00107 -0.72638,3.7516 -0.55305,8.01936 0.1444,3.57265 0.32346,6.59904 0.39619,6.72532 0.0725,0.12635 0.15686,1.15953 0.18668,2.29606 0.0301,1.13654 0.33399,2.33202 0.67453,2.65657 1.48885,1.41805 -2.81695,3.04429 -8.11073,3.06342 l -5.5877,0.0208 -0.23402,4.48824 c -0.15933,3.04596 0.0469,4.73845 0.6464,5.26689 0.65808,0.58139 0.67258,0.78223 0.0575,0.79275 -0.55784,0.01 -0.82352,1.64411 -0.82352,5.06541 0,3.39013 0.2709,5.07519 0.82352,5.12386 0.65888,0.058 0.65888,0.16524 0,0.53572 -0.49997,0.28152 -0.82352,2.21444 -0.82352,4.92237 v 4.4591 l 5.9876,-0.0461 c 3.29311,-0.0243 6.26294,0.33807 6.60012,0.80788 0.60534,0.84402 5.9431,0.77395 7.5759,-0.0995 z m -2.33645,-5.14126 c -0.70345,0 -1.44672,-0.37871 -1.6519,-0.84158 -0.2042,-0.46291 -1.9275,-0.84327 -3.82715,-0.84532 -5.22787,-0.007 -6.0152,-0.11248 -6.95666,-0.94477 -1.10858,-0.97998 -1.40984,-3.68171 -0.70496,-6.323 0.30329,-1.13657 0.31177,-2.06647 0.0248,-2.06647 -0.63728,0 -0.77468,-2.30752 -0.33647,-5.65083 0.20668,-1.57462 0.94668,-2.76775 2.09296,-3.37322 1.93272,-1.02095 9.22258,-0.95977 10.42823,0.0874 1.51344,1.31454 2.09357,-1.68493 1.81549,-9.38704 -0.15438,-4.26895 -0.6033,-8.04027 -0.99852,-8.38069 -0.48935,-0.42162 -0.50023,-0.8067 -0.0345,-1.2079 0.37592,-0.32389 0.55747,-1.55817 0.40362,-2.74275 -0.25676,-1.97299 0,-2.19984 3.03963,-2.70195 1.8261,-0.3013 4.04522,-0.16384 4.93174,0.30615 0.88669,0.46984 2.05924,0.615 2.60576,0.32249 1.11557,-0.59669 1.16264,-1.18959 1.26376,-15.94845 0.0743,-11.05388 -0.25303,-12.5241 -3.14287,-14.0628 -0.90023,-0.47919 -1.13132,-0.3065 -0.86839,0.6485 0.30578,1.11024 0.10715,1.11965 -1.35233,0.0641 -0.94075,-0.68047 -3.16509,-1.22149 -4.94272,-1.2023 -1.77789,0.0208 -3.42148,-0.2291 -3.65311,-0.55164 -0.23153,-0.32249 -0.37531,-4.49545 -0.31966,-9.27297 0.0725,-6.19376 -0.12457,-8.6904 -0.68603,-8.70044 -0.47484,-0.007 -0.39645,-0.35819 0.19659,-0.88217 0.8452,-0.74468 0.7984,-1.06496 -0.32912,-2.2528 -1.24351,-1.31 -2.1594,-1.63751 -5.28406,-1.88999 -0.73389,-0.0593 -1.64766,-0.37799 -2.03093,-0.70825 -0.38345,-0.3301 -2.03837,-0.49027 -3.67753,-0.35564 -2.59886,0.21347 -2.94046,0.0312 -2.6676,-1.42322 0.17182,-0.91733 0.0248,-2.18236 -0.33443,-2.81107 -0.67551,-1.19361 -0.59208,-15.09237 0.0971,-16.05241 0.21667,-0.30304 0.39522,-0.0788 0.39522,0.49783 0,0.73919 0.48625,0.7911 1.64713,0.17601 0.90589,-0.48015 1.64713,-0.53881 1.64713,-0.13053 0,1.03453 2.97858,1.36527 7.08221,0.78637 1.17777,-0.16628 2.14117,0.0312 2.14117,0.43947 0,0.40784 1.40834,0.71238 3.12953,0.67683 1.721,-0.0358 3.7223,0.0676 4.44689,0.22946 0.72638,0.1621 1.25404,-0.17876 1.17558,-0.75965 -0.16431,-1.21426 2.26051,-0.57172 2.8486,0.755 0.20916,0.4714 0.3224,4.65775 0.25251,9.30302 -0.20419,13.55525 -0.0549,15.67271 1.18601,16.65269 0.61905,0.48941 3.79378,0.92418 7.05505,0.96618 l 5.92948,0.0765 0.8267,3.49722 c 0.4544,1.92347 0.85334,6.45508 0.88616,10.07022 0.0469,5.30746 0.32319,6.97085 1.42931,8.63945 1.47814,2.22968 3.76919,2.78556 3.78538,0.91842 0,-0.77725 0.16678,-0.82778 0.49431,-0.15655 0.26622,0.54537 1.22501,0.9826 2.131,0.97163 6.31213,-0.0765 8.56469,0.38769 8.56469,1.76469 0,0.90104 0.30523,1.17616 0.82343,0.7421 0.64391,-0.5391 0.64144,-0.37585 0,0.74787 -0.45918,0.79063 -0.64817,2.11511 -0.42025,2.94328 0.22897,0.82812 0,2.19974 -0.4829,3.04797 -0.51961,0.89339 -0.56969,1.26856 -0.11952,0.89176 1.45566,-1.21705 1.40763,0.74916 -0.0823,3.35327 -1.28059,2.23884 -1.98873,2.61804 -5.15736,2.76118 -2.02014,0.0913 -3.86625,0.43526 -4.10256,0.76446 -0.23659,0.32909 -1.33863,0.23503 -2.44995,-0.20931 -1.11133,-0.44434 -2.27486,-0.58882 -2.58567,-0.32108 -0.31072,0.26763 -0.56501,4.20257 -0.56501,8.74407 0,10.93655 -0.86146,13.40388 -4.58766,13.13865 -2.47454,-0.17599 -2.66804,-0.0277 -2.2661,1.7371 0.41379,1.81763 0.37425,1.83884 -0.68277,0.36528 -1.25694,-1.7522 -4.0117,-2.08982 -4.68356,-0.57405 -0.4153,0.93686 -1.16035,7.96902 -1.15982,10.94919 0,0.75769 0.22163,2.88797 0.49272,4.73397 0.37601,2.56339 0.28338,3.32283 -0.3924,3.21449 -0.48687,-0.0782 -0.93977,0.27145 -1.00675,0.77658 -0.0672,0.50514 0.29905,0.7985 0.813,0.65193 0.64294,-0.18328 0.80309,0.2468 0.51342,1.37763 -0.83689,3.26726 -1.70366,4.00844 -4.26934,3.65079 -1.8431,-0.25687 -2.53533,-0.007 -2.53533,0.91874 0,0.97318 -0.29966,1.04871 -1.27448,0.32143 -1.60803,-1.19972 -3.27063,-0.95065 -3.97383,-0.95065 z"
       id="path3371"
       sodipodi:nodetypes="ccscccsscccsscccsccsssssscccssscssccsccsssscsccssscscsssccsccscccscccssccscscscscsccssccsssssssssssccsscscsccssssscccccsssssscssssssscccsscccccscsccssscscccsssscsscsccssccscsccccccscscscscccsccscssccccsscsssccccscscssscscscscsccsccscsscccssscscccsscssscsccsccccccsscscccccsccssscsscsscccccssscssccsscscccssssssscsscscccscsssscccccscsssssssscssssssss" />
  </g>
</svg>
