<?xml version="1.0" encoding="UTF-8" standalone="no"?>
<svg
   xmlns:dc="http://purl.org/dc/elements/1.1/"
   xmlns:cc="http://creativecommons.org/ns#"
   xmlns:rdf="http://www.w3.org/1999/02/22-rdf-syntax-ns#"
   xmlns:svg="http://www.w3.org/2000/svg"
   xmlns="http://www.w3.org/2000/svg"
   xmlns:sodipodi="http://sodipodi.sourceforge.net/DTD/sodipodi-0.dtd"
   xmlns:inkscape="http://www.inkscape.org/namespaces/inkscape"
   width="132.29164mm"
   height="132.29167mm"
   viewBox="0 0 132.29164 132.29167"
   version="1.1"
   id="svg17533"
   inkscape:version="1.0 (b51213c273, 2020-08-10)">
  <defs
     id="defs17527" />
  <sodipodi:namedview
     id="base"
     pagecolor="#ffffff"
     bordercolor="#666666"
     borderopacity="1.0"
     inkscape:pageopacity="0.0"
     inkscape:pageshadow="2"
     inkscape:zoom="0.35"
     inkscape:cx="252.37687"
     inkscape:cy="208.76387"
     inkscape:document-units="mm"
     inkscape:current-layer="layer1"
     inkscape:document-rotation="0"
     showgrid="false"
     inkscape:snap-global="false"
     fit-margin-top="0"
     fit-margin-left="0"
     fit-margin-right="0"
     fit-margin-bottom="0"
     showborder="false"
     inkscape:window-width="1318"
     inkscape:window-height="704"
     inkscape:window-x="48"
     inkscape:window-y="27"
     inkscape:window-maximized="1" />
  <metadata
     id="metadata17530">
    <rdf:RDF>
      <cc:Work
         rdf:about="">
        <dc:format>image/svg+xml</dc:format>
        <dc:type
           rdf:resource="http://purl.org/dc/dcmitype/StillImage" />
        <dc:title></dc:title>
      </cc:Work>
    </rdf:RDF>
  </metadata>
  <g
     inkscape:label="Layer 1"
     inkscape:groupmode="layer"
     id="layer1"
     transform="translate(-39.058621,-92.931225)">
    <path
       style="fill:#ff0000;stroke-width:0.777867"
       d="m 80.395298,224.54818 c 2.039811,-0.52034 2.920776,-2.70729 2.943656,-7.30797 0.02486,-2.31909 0.432055,-6.12022 0.934262,-8.44688 0.502278,-2.32669 0.724596,-4.52509 0.494059,-4.88537 -0.231591,-0.36027 -0.07476,-0.37953 0.34812,-0.0427 0.422031,0.3367 0.866791,0.24298 0.988249,-0.20828 0.122006,-0.45123 1.703441,-1.01631 3.515209,-1.25578 4.435977,-0.58633 5.132925,-0.89357 6.096561,-2.6878 0.566501,-1.05484 0.636741,-2.2327 0.224114,-3.74914 -0.331672,-1.21607 -0.681526,-4.03695 -0.777335,-6.26861 -0.09713,-2.23169 -0.391198,-4.47086 -0.656161,-4.97599 -0.942208,-1.79671 -0.29331,-10.33994 0.928308,-12.22186 1.085102,-1.67164 1.435991,-1.72507 4.333614,-0.65952 2.554536,0.93944 3.453476,0.93506 4.737576,-0.0243 0.87171,-0.65032 1.43648,-1.37917 1.25544,-1.61961 -0.18174,-0.24055 0.1619,-1.20385 0.76019,-2.14087 1.18506,-1.85238 1.37828,-11.58274 0.27845,-14.01475 -0.37826,-0.83649 -0.34239,-1.08226 0.10204,-0.69914 0.79855,0.68811 1.56946,-2.63869 1.04935,-4.52848 -0.19426,-0.70901 -0.61953,-1.28907 -0.94325,-1.28907 -0.32344,0 -0.58814,-0.59554 -0.58814,-1.32346 0,-2.11698 -1.25501,-2.61872 -2.86727,-1.14616 -1.06927,0.97662 -1.82401,1.10309 -2.66563,0.44653 -0.64565,-0.50372 -2.258951,-0.89855 -3.585093,-0.87738 -4.016451,0.0641 -4.56622,-0.50116 -5.3327,-5.48262 -0.391685,-2.54561 -0.559733,-4.97185 -0.373715,-5.39163 0.186716,-0.41978 0.05742,-0.90187 -0.289081,-1.07131 -0.345165,-0.16937 -0.680297,-2.37447 -0.744786,-4.90017 -0.216647,-8.47228 -0.430799,-9.00084 -3.432734,-8.43955 -1.451961,0.27145 -2.830983,0.92433 -3.06429,1.45069 -0.283357,0.63917 -1.025099,0.52263 -2.232827,-0.35079 -0.99446,-0.71932 -1.65263,-0.95684 -1.462392,-0.5278 0.189273,0.42901 -0.709865,0.95183 -2.000476,1.16185 -3.326705,0.54142 -4.605283,-1.38299 -4.392927,-6.6116 0.2266,-5.579 -0.393401,-10.30057 -1.255212,-9.55818 -0.457899,0.39475 -0.447468,-0.0389 0.02973,-1.28557 1.13003,-2.94281 0.234068,-4.842708 -2.174265,-4.616519 -1.149379,0.10792 -2.428523,-0.09583 -2.842875,-0.452586 -0.414069,-0.356828 -0.933289,-0.242284 -1.153396,0.254457 -0.219124,0.496815 -1.278374,0.658547 -2.351302,0.359405 -1.151945,-0.321097 -1.950983,-0.156552 -1.950983,0.402043 0,0.55365 -1.116759,0.796 -2.692725,0.58441 -1.480786,-0.198907 -3.295253,0.0882 -4.032351,0.63811 -0.971589,0.72496 -1.216858,0.72207 -0.892166,-0.01 0.249763,-0.563 0,-1.010044 -0.540295,-1.010044 -0.543622,0 -1.199225,0.475894 -1.457217,1.057564 -0.324692,0.73277 -0.741255,0.53783 -1.356285,-0.63478 -0.543621,-1.036054 -0.887733,-1.22999 -0.887733,-0.500079 0,0.727919 -0.42105,0.967019 -1.081157,0.613929 -0.594636,-0.317957 -1.816944,0.0937 -2.716365,0.91544 -0.89942,0.82152 -1.433018,1.03759 -1.186024,0.48003 0.246507,-0.55751 0.117034,-1.0137 -0.291585,-1.0137 -3.313001,0 -6.171014,7.62641 -6.082876,16.2322 0.03247,3.11864 0.374468,6.49497 0.761446,7.50294 0.51147,1.33206 0.496473,1.92893 -0.05459,2.18499 -1.105071,0.51362 1.448015,4.38798 2.891677,4.38798 0.647172,0 1.205446,-0.7192 1.247745,-1.60724 0.07228,-1.4919 0.09962,-1.48925 0.382767,0.0365 0.255496,1.37044 0.844116,1.57795 3.541334,1.24851 1.979056,-0.24161 3.082676,-0.0511 2.842601,0.49062 -0.219142,0.4935 0.221619,0.449 0.99377,-0.10027 4.080675,-2.90242 3.993785,-2.87111 3.555996,-1.28136 -0.279623,1.01589 -0.164315,1.29611 0.353862,0.85079 0.785838,-0.67701 1.12795,2.04032 0.85483,6.79175 -0.07228,1.26284 -0.08467,3.53595 -0.02486,5.05134 0.05945,1.51541 0.131959,3.52706 0.164314,4.47034 0.03247,0.94324 0.788811,2.38175 1.681039,3.19665 1.98002,1.80871 5.997241,2.32746 6.011406,0.77636 0,-0.75546 0.181806,-0.7176 0.564015,0.12185 0.310244,0.68202 1.972066,1.31295 3.778093,1.43419 1.820961,0.12223 3.224385,0.65824 3.224385,1.23147 0,0.55821 0.181744,1.26894 0.404885,1.57943 0.221619,0.31033 0.306236,2.18841 0.186716,4.17315 -0.122015,1.98474 0.08219,3.86843 0.450706,4.18594 0.448432,0.38644 0.433985,0.97346 -0.0422,1.77584 -0.526405,0.88403 -0.427826,1.59718 0.375706,2.71728 0.59914,0.83525 0.980101,1.63428 0.846408,1.77562 -1.110327,1.17336 -4.671578,2.24582 -6.831404,2.0572 -4.046312,-0.35341 -6.43979,0.5957 -6.654916,2.63883 -0.102099,0.98187 0.141922,2.33924 0.545082,3.01634 0.556822,0.93544 0.510983,1.16352 -0.191697,0.94969 -1.021702,-0.31136 -1.165349,3.34588 -0.304777,7.76676 0.300291,1.54312 0.201642,3.02718 -0.250037,3.78689 -0.408822,0.68713 -0.569961,1.88024 -0.357808,2.65136 0.278172,1.00974 -0.317986,1.73744 -2.129754,2.60075 -1.38365,0.65929 -2.812245,1.06413 -3.174539,0.89967 -1.259715,-0.57168 -5.714088,-0.0799 -6.775612,0.74836 -3.801529,2.96578 -2.046039,25.31669 1.991779,25.361 0.587168,0.007 1.283346,0.31277 1.547345,0.68086 0.263928,0.368 0.877922,0.20897 1.364239,-0.35377 0.656364,-0.75958 0.884,-0.73778 0.884,0.0844 0,0.6091 0.370725,0.92567 0.823652,0.70355 0.452997,-0.22216 1.490597,-0.0601 2.305818,0.35992 0.835613,0.43062 2.200958,0.38302 3.129478,-0.10903 0.905854,-0.4801 1.646897,-0.52412 1.646897,-0.0978 0,0.81201 3.615309,0.4972 4.663553,-0.40613 0.333955,-0.28777 0.607075,-0.0371 0.607075,0.55678 0,0.60651 0.545559,0.88089 1.244781,0.626 0.684499,-0.24957 1.648144,-0.10447 2.141167,0.32246 0.824475,0.71394 7.006698,0.58808 10.119995,-0.20582 z m -28.329384,-1.71375 c -0.181806,0 0.182496,0 0,0 z m 23.350809,-3.15166 c 0.697152,-1.17103 0.527582,-1.24488 -1.237313,-0.5393 -1.259707,0.50368 -1.898659,0.48761 -1.663831,-0.0416 0.209109,-0.47271 0.06706,-0.85944 -0.316738,-0.85944 -0.383731,0 -0.702194,0.51662 -0.707662,1.14805 0,0.71096 -0.194245,0.79841 -0.494262,0.22943 -0.656647,-1.24619 -4.107562,-1.6803 -4.107562,-0.51671 0,0.61929 -0.56505,0.63092 -1.689754,0.0348 -0.929555,-0.49257 -2.579699,-0.89565 -3.666801,-0.89565 -1.087446,0 -2.588139,-0.45593 -3.335199,-1.01324 -1.042581,-0.77781 -1.491774,-0.72444 -1.933013,0.22945 -0.482035,1.04181 -0.669778,1.0381 -1.160306,-0.0243 -0.321728,-0.69616 -0.893962,-0.99967 -1.27119,-0.67454 -0.38497,0.33149 -1.048527,-0.80537 -1.510921,-2.58872 -0.453687,-1.74894 -1.021914,-3.01007 -1.262962,-2.80256 -0.241535,0.20758 -0.313491,-1.3587 -0.16189,-3.48059 0.151937,-2.12186 0.614542,-4.14888 1.027169,-4.50446 0.412821,-0.3556 2.392151,-0.67707 4.398652,-0.71439 5.150347,-0.0958 5.953889,-0.24611 5.953889,-1.11301 0,-0.42092 0.43425,-0.76534 0.965157,-0.76534 1.409857,0 2.235304,-2.75392 1.926511,-6.429 -0.65885,-7.84288 -0.698938,-11.09908 -0.141912,-11.5788 0.328912,-0.28324 0.42403,-1.27997 0.211665,-2.21449 -0.536844,-2.35811 1.598572,-5.77906 2.764894,-4.42953 0.566501,0.65538 0.862306,0.67344 0.862306,0.0528 0,-0.51967 0.592902,-0.72875 1.317772,-0.46455 0.724596,0.26416 1.317427,0.77891 1.317427,1.14379 0,1.09938 4.38048,0.53346 5.449957,-0.70406 1.053013,-1.21833 1.120006,-7.32907 0.117034,-10.68046 -0.347642,-1.16151 -0.25301,-1.91196 0.271669,-2.15577 0.568227,-0.26415 0.603068,-0.71299 0.11952,-1.52679 -0.377502,-0.63404 -0.804019,-4.83011 -0.948223,-9.32457 -0.144399,-4.49447 -0.292337,-8.29563 -0.32939,-8.44701 -0.03734,-0.15134 -0.578728,0.12358 -1.203446,0.61093 -0.73807,0.5758 -1.573471,0.55971 -2.385453,-0.0459 -0.849858,-0.63405 -1.11606,-0.63162 -0.832703,0.007 0.556265,1.25485 -9.774361,1.8629 -10.552741,0.6211 -0.638183,-1.0187 -0.651666,-6.57687 -0.02495,-8.72504 0.221619,-0.75771 0.301051,-2.20423 0.174276,-3.2145 -0.126996,-1.0103 0.08219,-2.38498 0.466402,-3.05491 0.498269,-0.87127 0.464393,-1.41814 -0.119529,-1.92101 -0.448707,-0.38662 -0.76517,-1.07842 -0.702955,-1.53723 0.254248,-1.88144 -0.104586,-2.74407 -1.196182,-2.87487 -2.503249,-0.29992 -7.257426,-0.31138 -10.645161,-0.0243 -2.878955,0.24298 -3.795796,-0.0478 -4.776649,-1.51546 -2.222316,-3.32541 -1.193209,-13.40926 1.368582,-13.40926 0.434471,0 0.645863,-0.32458 0.469861,-0.72161 -0.400939,-0.90455 -0.305263,-0.9144 12.412551,-1.2756 l 10.523358,-0.29887 c 0,0 0.612817,6.76527 0.929078,7.62362 0.722791,1.96153 0.231502,4.04246 -0.78536,3.3351 -0.422094,-0.29333 -0.311005,0.0138 0.246507,0.68309 0.557724,0.66888 1.061727,2.21221 1.119731,3.42957 0.05742,1.2174 0.364788,2.45729 0.68104,2.75528 0.316473,0.29818 0.746785,1.19255 0.956177,1.9878 0.304511,1.15614 1.352826,1.41636 5.229081,1.29838 2.666324,-0.0813 5.512172,-0.64309 6.323933,-1.24867 1.387463,-1.03519 1.477601,-0.92061 1.505461,1.91616 0.169296,17.12547 0.926513,24.55614 2.515697,24.69329 3.91683,0.3381 9.262677,-0.72805 10.431485,-2.08026 0.617232,-0.71403 0.95071,-0.58308 1.245745,0.48933 0.28709,1.04286 0.718648,1.22884 1.499518,0.64621 1.31943,-0.98428 3.74575,1.12866 3.06346,2.66766 -0.249,0.56085 -0.12699,1.56812 0.2734,2.23838 0.83147,1.39672 0.27367,8.03376 -0.74948,8.91946 -0.36555,0.31622 -2.55455,0.36353 -4.864791,0.1052 -2.87868,-0.32213 -4.519428,-0.10101 -5.214084,0.70288 -0.835957,0.96697 -0.950708,0.94393 -0.654912,-0.13121 0.283143,-1.02783 -0.211675,-1.22834 -2.33313,-0.94625 -2.188014,0.29087 -2.608312,0.63982 -2.245054,1.86307 0.246516,0.82781 0.733859,5.39116 1.084191,10.14075 0.380696,5.16134 1.012934,9.1599 1.571694,9.9387 1.048314,1.46152 1.250514,2.47081 0.337414,1.68403 -0.328709,-0.2829 -0.450998,0.26589 -0.272165,1.21978 0.179249,0.95397 0.02495,2.001 -0.362081,2.32673 -0.377997,0.32594 -0.531872,1.1572 -0.341838,1.84763 0.189202,0.69043 -0.04008,1.58753 -0.511205,1.99356 -1.273181,1.09679 -3.186022,1.1141 -3.186022,0.0277 0,-0.56725 -0.317703,-0.50559 -0.790607,0.15343 -0.434736,0.60616 -1.280861,1.10213 -1.880195,1.10213 -2.122012,0 -4.339904,4.01105 -4.798768,8.67922 -0.241535,2.44895 -0.731373,4.94566 -1.090145,5.54823 -0.358843,0.60257 -0.466684,1.3543 -0.23904,1.67046 0.637148,0.88843 -1.077706,5.9452 -2.224386,6.5586 -0.835136,0.44678 -0.873985,0.29922 -0.21409,-0.81063 z m 53.142037,3.70077 c 0.46365,-0.24819 1.82345,-0.0591 3.02164,0.41993 1.19819,0.47904 2.26366,0.5152 2.36775,0.0802 0.1046,-0.43481 1.43827,-0.46034 2.96489,-0.0566 2.85034,0.7535 6.34038,-0.52444 6.45913,-2.36508 0.27466,-4.25505 0.047,-16.8407 -0.32468,-18.02362 -0.31349,-0.99519 -0.0748,-1.69149 0.72211,-2.10651 1.90142,-0.99045 4.15484,-2.77114 4.15484,-3.28336 0,-0.25894 1.61233,-0.40256 3.58344,-0.319 3.39817,0.14441 3.60355,0.0243 3.97608,-2.34117 0.21664,-1.37132 0.25999,-6.01965 0.0971,-10.32969 -0.1619,-4.31006 -0.0847,-8.31002 0.17178,-8.88887 0.34018,-0.76722 1.55856,-0.8073 4.49551,-0.14788 5.99656,1.34621 6.82344,0.94473 9.16456,-4.44841 1.74648,-4.02361 2.03217,-5.52274 1.91405,-10.04737 -0.23649,-9.08509 -3.34459,-15.83978 -7.28655,-15.83978 -1.25418,0 -2.28032,0.38315 -2.28032,0.85146 0,0.46834 -1.33415,0.74652 -2.96467,0.61819 -1.7756,-0.13989 -2.97062,0.16349 -2.97905,0.75576 0,0.544 -0.6113,-0.84491 -1.34087,-3.08643 -0.72937,-2.24151 -1.13549,-4.7213 -0.90239,-5.51055 0.23406,-0.78928 0.3755,-4.53476 0.31647,-8.32329 -0.12201,-7.8722 -1.2602,-10.09053 -4.91407,-9.58407 -1.12153,0.15551 -2.57522,0.30893 -3.23062,0.34122 -0.69293,0.0347 -1.00442,0.48145 -0.74401,1.06868 0.29904,0.6746 -0.0373,0.64716 -1.01695,-0.0826 -0.80526,-0.60093 -2.01616,-0.89148 -2.69043,-0.64564 -1.71492,0.62521 -2.73704,-1.45337 -2.19494,-4.46389 0.36229,-2.012 0.26815,-2.36494 -0.46593,-1.74842 -0.75998,0.6384 -0.77415,0.5221 -0.0822,-0.6697 0.56897,-0.97927 0.65013,-2.14144 0.25348,-3.62042 -0.32117,-1.19798 -0.34861,-3.00477 -0.0594,-4.01503 0.82919,-2.90731 0.7358,-6.18099 -0.15442,-5.41409 -0.54528,0.46979 -0.61551,0.14961 -0.24154,-1.09386 0.82975,-2.749658 0.762,-5.387586 -0.14191,-5.530768 -0.45293,-0.07178 -0.9716,-0.233946 -1.15284,-0.360071 -0.83866,-0.584446 -2.07224,-0.516056 -3.08939,0.171488 -0.64841,0.438169 -1.28612,0.361489 -1.52793,-0.183636 -0.22908,-0.514712 -0.69099,-0.698103 -1.02812,-0.40747 -0.33742,0.29052 -0.61351,0.192985 -0.61351,-0.216963 0,-0.41001 -1.92631,-0.744366 -4.28087,-0.743022 -2.35436,9.62e-4 -4.28143,0.376463 -4.28212,0.833589 0,0.457161 -0.54458,0.14613 -1.20793,-0.690812 -0.66363,-0.837092 -1.41607,-1.229846 -1.67234,-0.872773 -0.25597,0.357087 -2.60383,0.535753 -5.21684,0.397048 -10.96509,-0.582066 -10.3847,-0.731921 -9.71782,2.508435 0.2978,1.447782 0.33485,3.098308 0.0821,3.667867 -0.42153,0.950568 -0.35828,5.946728 0.20919,16.660548 0.12201,2.2731 0.25798,5.01463 0.30526,6.09227 0.0996,2.26179 2.52738,3.54096 3.83963,2.02268 0.61606,-0.71259 0.8578,-0.70816 0.8578,0.0173 0,0.69587 0.51023,0.73777 1.64718,0.13503 0.9059,-0.48014 1.64813,-0.57325 1.64938,-0.20688 0,0.36636 1.3372,0.70275 2.9684,0.74755 1.63121,0.0448 3.15713,0.34815 3.39091,0.67408 0.23407,0.32595 0.38594,5.51462 0.33839,11.53051 -0.0649,8.27358 0.13444,11.19305 0.81847,11.98536 1.32572,1.53376 5.63645,1.83083 8.33514,0.57438 2.47461,-1.1521 4.07892,-0.51485 5.65317,2.24522 0.57446,1.00739 0.58988,1.70143 0.0574,2.59567 -0.53684,0.90194 -0.50448,1.4122 0.1245,1.95427 0.59962,0.51666 0.63571,0.91942 0.12202,1.36183 -0.40115,0.34539 -0.72909,2.46368 -0.72909,4.70695 0,3.81935 -0.11454,4.08345 -1.81176,4.15262 -6.60308,0.26937 -9.77935,0.99343 -10.53457,2.40194 -0.53685,1.00107 -0.72632,3.75161 -0.55303,8.01936 0.14442,3.57266 0.32346,6.59904 0.39617,6.72532 0.0722,0.12635 0.15686,1.15954 0.18672,2.29607 0.0297,1.13654 0.33395,2.33201 0.67454,2.65656 1.48881,1.41805 -2.81695,3.0443 -8.11074,3.06343 l -5.58765,0.0208 -0.23407,4.48824 c -0.15933,3.04596 0.047,4.73847 0.64642,5.26689 0.65809,0.58138 0.67254,0.78223 0.0574,0.79275 -0.5578,0.01 -0.82352,1.64412 -0.82352,5.06542 0,3.39013 0.2709,5.0752 0.82352,5.12386 0.65885,0.058 0.65885,0.16523 0,0.53572 -0.50001,0.28152 -0.82352,2.21443 -0.82352,4.92236 v 4.4591 l 5.98755,-0.0461 c 3.2931,-0.0243 6.26296,0.33808 6.6001,0.80789 0.60535,0.84402 5.94316,0.77395 7.57589,-0.0995 z m -2.33645,-5.14127 c -0.70344,0 -1.4467,-0.3787 -1.65187,-0.84157 -0.2042,-0.46291 -1.92754,-0.84327 -3.82718,-0.84532 -5.22784,-0.007 -6.01521,-0.11248 -6.95665,-0.94479 -1.1086,-0.97996 -1.40986,-3.6817 -0.70497,-6.32299 0.30334,-1.13656 0.31177,-2.06646 0.025,-2.06646 -0.63722,0 -0.77464,-2.30752 -0.33644,-5.65083 0.20669,-1.57462 0.9467,-2.76775 2.09291,-3.37323 1.93273,-1.02094 9.22258,-0.95976 10.42823,0.0874 1.51341,1.31454 2.0936,-1.68494 1.81551,-9.38705 -0.15437,-4.26894 -0.60334,-8.04026 -0.99856,-8.38068 -0.48928,-0.42162 -0.50021,-0.8067 -0.0345,-1.2079 0.37598,-0.32389 0.5575,-1.55818 0.40362,-2.74276 -0.25673,-1.97298 0,-2.19983 3.03963,-2.70194 1.82613,-0.3013 4.04527,-0.16384 4.93176,0.30615 0.8867,0.46984 2.05924,0.615 2.60576,0.32249 1.11559,-0.59669 1.16266,-1.18959 1.26373,-15.94846 0.0748,-11.05387 -0.253,-12.5241 -3.14288,-14.0628 -0.90018,-0.47919 -1.13128,-0.3065 -0.86832,0.6485 0.30575,1.11024 0.10708,1.11965 -1.35235,0.0641 -0.94075,-0.68047 -3.16507,-1.22149 -4.94268,-1.2023 -1.7779,0.0208 -3.42155,-0.2291 -3.65312,-0.55164 -0.23159,-0.32249 -0.3753,-4.49545 -0.31972,-9.27296 0.0722,-6.19376 -0.1245,-8.69041 -0.68602,-8.70045 -0.47484,-0.007 -0.39645,-0.35819 0.19666,-0.88217 0.84516,-0.74468 0.79836,-1.06496 -0.32919,-2.25279 -1.24346,-1.31001 -2.15933,-1.63752 -5.28404,-1.89 -0.73385,-0.0593 -1.64765,-0.37799 -2.03089,-0.70825 -0.38346,-0.3301 -2.03837,-0.49027 -3.67752,-0.35564 -2.59885,0.21347 -2.94048,0.0312 -2.66757,-1.42322 0.17179,-0.91733 0.0249,-2.18235 -0.33444,-2.81106 -0.67551,-1.19362 -0.59214,-15.09238 0.0971,-16.052423 0.21665,-0.303041 0.3952,-0.07881 0.3952,0.497839 0,0.739184 0.48625,0.791094 1.6471,0.176002 0.90592,-0.480153 1.64718,-0.538812 1.64718,-0.130528 0,1.03453 2.97857,1.36527 7.08218,0.78637 1.17773,-0.16628 2.14117,0.0312 2.14117,0.43946 0,0.40784 1.40833,0.71239 3.12947,0.67684 1.72107,-0.0358 3.72232,0.0676 4.44691,0.22946 0.7264,0.1621 1.25405,-0.17877 1.17559,-0.75965 -0.16432,-1.214263 2.26047,-0.57173 2.8486,0.755 0.20911,0.4714 0.32242,4.65775 0.25247,9.30302 -0.20414,13.55525 -0.0546,15.67271 1.18602,16.6527 0.61904,0.48941 3.79379,0.92418 7.05501,0.96618 l 5.92949,0.0765 0.8267,3.49721 c 0.45445,1.92348 0.85331,6.45508 0.88621,10.07023 0.047,5.30746 0.32317,6.97084 1.42928,8.63944 1.47809,2.22969 3.76919,2.78557 3.78536,0.91842 0,-0.77725 0.16681,-0.82778 0.49427,-0.15655 0.26621,0.54537 1.22507,0.9826 2.13099,0.97163 6.31218,-0.0765 8.56471,0.3877 8.56471,1.7647 0,0.90104 0.30524,1.17615 0.82343,0.7421 0.64392,-0.5391 0.64144,-0.37585 0,0.74786 -0.45918,0.79063 -0.64816,2.11511 -0.42025,2.94328 0.22897,0.82813 0,2.19975 -0.4829,3.04798 -0.51961,0.89338 -0.56968,1.26855 -0.11952,0.89175 1.45566,-1.21704 1.40762,0.74916 -0.0823,3.35328 -1.28057,2.23884 -1.98871,2.61803 -5.15732,2.76117 -2.02018,0.0913 -3.86623,0.43526 -4.10258,0.76446 -0.23656,0.32908 -1.33866,0.23503 -2.44996,-0.20931 -1.11128,-0.44434 -2.27485,-0.58882 -2.58563,-0.32108 -0.31073,0.26763 -0.56498,4.20258 -0.56498,8.74407 0,10.93655 -0.86154,13.40389 -4.58766,13.13866 -2.47456,-0.17599 -2.66804,-0.0277 -2.26614,1.7371 0.4138,1.81763 0.37426,1.83883 -0.68277,0.36528 -1.25695,-1.75221 -4.01169,-2.08982 -4.68353,-0.57405 -0.41533,0.93685 -1.16031,7.96902 -1.15982,10.94919 0,0.75769 0.22162,2.88797 0.49273,4.73396 0.37599,2.5634 0.28336,3.32284 -0.39244,3.2145 -0.48679,-0.0782 -0.93971,0.27145 -1.00669,0.77658 -0.0671,0.50514 0.29904,0.79849 0.813,0.65193 0.64296,-0.18328 0.80306,0.2468 0.51341,1.37763 -0.83686,3.26726 -1.70365,4.00844 -4.26938,3.65079 -1.84309,-0.25688 -2.53533,-0.007 -2.53533,0.91874 0,0.97318 -0.2996,1.04871 -1.27444,0.32143 -1.60804,-1.19972 -3.27064,-0.95065 -3.9738,-0.95065 z"
       id="path3367"
       sodipodi:nodetypes="ccscccsscccsscccsccsssssscccssscssccsccsssscsccssscscsssccsccscccscccssccscscscscsccssccsssssssssssccsscscsccssssscccccsssssscssssssscccsscccccscsccssscscccsssscsscsccssccscsccccccscscscscccsccscssccccsscsssccccscscssscscscscsccsccscsscccssscscccsscssscsccsccccccsscscccccsccssscsscsscccccssscssccsscscccssssssscsscscccscsssscccccscsssssssscssssssss" />
  </g>
</svg>
