<?xml version="1.0" encoding="UTF-8" standalone="no"?>
<svg
   xmlns:dc="http://purl.org/dc/elements/1.1/"
   xmlns:cc="http://creativecommons.org/ns#"
   xmlns:rdf="http://www.w3.org/1999/02/22-rdf-syntax-ns#"
   xmlns:svg="http://www.w3.org/2000/svg"
   xmlns="http://www.w3.org/2000/svg"
   xmlns:sodipodi="http://sodipodi.sourceforge.net/DTD/sodipodi-0.dtd"
   xmlns:inkscape="http://www.inkscape.org/namespaces/inkscape"
   width="132.29172mm"
   height="132.29176mm"
   viewBox="0 0 132.29172 132.29176"
   version="1.1"
   id="svg15612"
   inkscape:version="1.0 (b51213c273, 2020-08-10)">
  <defs
     id="defs15606" />
  <sodipodi:namedview
     id="base"
     pagecolor="#ffffff"
     bordercolor="#666666"
     borderopacity="1.0"
     inkscape:pageopacity="0.0"
     inkscape:pageshadow="2"
     inkscape:zoom="0.35"
     inkscape:cx="218.93124"
     inkscape:cy="331.5363"
     inkscape:document-units="mm"
     inkscape:current-layer="layer1"
     inkscape:document-rotation="0"
     showgrid="false"
     inkscape:snap-global="false"
     fit-margin-top="0"
     fit-margin-left="0"
     fit-margin-right="0"
     fit-margin-bottom="0"
     showborder="false"
     inkscape:window-width="1318"
     inkscape:window-height="704"
     inkscape:window-x="48"
     inkscape:window-y="27"
     inkscape:window-maximized="1" />
  <metadata
     id="metadata15609">
    <rdf:RDF>
      <cc:Work
         rdf:about="">
        <dc:format>image/svg+xml</dc:format>
        <dc:type
           rdf:resource="http://purl.org/dc/dcmitype/StillImage" />
        <dc:title></dc:title>
      </cc:Work>
    </rdf:RDF>
  </metadata>
  <g
     inkscape:label="Layer 1"
     inkscape:groupmode="layer"
     id="layer1"
     transform="translate(-47.907775,-60.447688)">
    <path
       style="fill:#000000;stroke-width:0.693212"
       d="m 104.54731,192.11881 c -0.23508,-0.38217 0.21343,-0.69486 0.99651,-0.69486 0.80466,0 1.42389,-0.45333 1.42389,-1.04237 0,-0.57327 0.26224,-1.04233 0.58266,-1.04233 0.83003,0 3.25228,-4.71685 2.70477,-5.26701 -0.25055,-0.25177 0.0206,-0.93437 0.599,-1.51713 0.59837,-0.60128 0.89566,-1.69504 0.68738,-2.52892 -0.33062,-1.32325 0.3626,-3.47087 1.03586,-3.20957 0.1478,0.0573 0.8291,-0.1119 1.51432,-0.3762 0.94083,-0.36277 1.14444,-0.94457 0.83157,-2.37599 -0.34026,-1.55713 0.0103,-2.26936 1.9582,-3.98878 2.29041,-2.02082 2.51285,-2.07197 6.42962,-1.47918 3.32957,0.50391 4.46181,1.04806 6.31391,3.03455 1.24125,1.3313 2.53054,2.42053 2.86506,2.42053 0.51197,0 1.46984,1.51977 1.75189,2.77957 0.24883,1.11072 1.62962,2.68477 2.98072,3.3975 0.85576,0.45142 1.55596,1.27883 1.55596,1.83866 0,1.16867 5.16634,1.48022 5.85943,0.35334 0.22478,-0.3655 0.86557,-0.48838 1.4239,-0.27318 0.55832,0.21517 1.01517,0.0453 1.01517,-0.37779 0,-1.39149 2.7325,-3.54883 4.495,-3.54883 0.95086,0 1.72885,-0.31289 1.72885,-0.69489 0,-0.38222 0.43306,-0.69492 0.96235,-0.69492 0.52929,0 1.15759,-0.78176 1.39626,-1.73723 0.23852,-0.95547 0.75753,-1.73723 1.15309,-1.73723 0.39556,0 0.51392,-0.33362 0.26293,-0.74167 -0.2509,-0.40793 0.15879,-0.90332 0.91079,-1.10087 0.75186,-0.19755 1.76136,-1.0997 2.24339,-2.00472 0.48199,-0.90502 1.22076,-1.58224 1.64166,-1.50498 0.43288,0.0795 0.68722,-0.6355 0.58555,-1.64624 -0.15295,-1.52272 0.18662,-1.88207 2.29875,-2.4321 1.36314,-0.35499 2.44917,-0.95809 2.41339,-1.34031 -0.0777,-0.83073 -5.73883,-0.96919 -6.32236,-0.15472 -0.22374,0.3122 -0.75247,0.1492 -1.17501,-0.36221 -0.61096,-0.73974 -0.32274,-0.96425 1.40791,-1.09677 3.06681,-0.23484 3.23066,-0.70975 0.8925,-2.58729 -1.12618,-0.90429 -2.1596,-1.53167 -2.29646,-1.39412 -0.5273,0.52986 -4.99175,-4.18383 -4.99175,-5.27042 0,-1.22996 -1.79333,-2.24685 -2.82857,-1.60392 -0.34602,0.21481 -0.62913,0.0594 -0.62913,-0.34502 0,-0.40472 0.43911,-0.73589 0.97582,-0.73589 0.5367,0 1.7614,-0.93811 2.72155,-2.0847 0.96009,-1.14657 2.23253,-2.08468 2.82763,-2.08468 0.59507,0 1.08195,-0.2863 1.08195,-0.63598 0,-0.96542 3.8832,-4.44276 5.31139,-4.75628 2.37327,-0.52102 7.17489,-0.19513 8.62644,0.58553 1.10082,0.59201 1.57924,0.57392 1.97824,-0.0749 0.28939,-0.47062 0.83965,-0.66106 1.22269,-0.4232 0.84945,0.52753 1.71548,-1.47998 1.08247,-2.5092 -0.26809,-0.4358 -0.12682,-0.53592 0.34369,-0.24381 0.44083,0.27387 0.83792,0.0884 0.88667,-0.41383 0.0485,-0.50028 0.2038,-1.53502 0.34478,-2.29941 0.14092,-0.76438 0.3592,-2.3491 0.48462,-3.52161 0.12544,-1.1725 0.44216,-2.4799 0.70382,-2.90528 0.26155,-0.42542 0.12613,-0.99053 -0.30109,-1.2558 -0.55028,-0.3419 -0.50316,-0.65646 0.16154,-1.07971 0.66488,-0.42335 0.69138,-0.60051 0.0911,-0.60805 -0.59627,-0.007 -0.66927,-0.48115 -0.24642,-1.59863 0.71442,-1.88827 -0.27324,-3.54158 -2.54953,-4.26753 -0.85983,-0.27422 -1.39475,-0.77275 -1.18863,-1.10781 0.43683,-0.71028 -0.97915,-6.99757 -1.77612,-7.8863 -0.9488,-1.05798 -5.9172,-1.66021 -6.99568,-0.848 -0.55307,0.41658 -1.59773,1.77367 -2.32142,3.0158 -0.72371,1.24213 -1.71197,2.25839 -2.19613,2.25839 -1.45005,0 -3.69516,-2.27516 -4.77592,-4.8399 -0.55805,-1.32428 -1.39154,-2.64847 -1.85223,-2.94267 -0.53499,-0.34157 -0.27564,-0.53874 0.71836,-0.54551 0.8558,-0.007 1.55597,-0.24935 1.55597,-0.54076 0,-0.29149 -0.70017,-0.84313 -1.55597,-1.22568 -2.70883,-1.21095 -0.70774,-6.642962 2.05478,-5.577765 0.48636,0.187529 0.88428,-0.108448 0.88428,-0.657737 0,-0.602276 0.41179,-0.839953 1.03731,-0.59876 0.66253,0.255571 1.0373,-0.01385 1.0373,-0.74114 0,-2.005897 2.11132,-4.464383 4.23673,-4.933481 2.33817,-0.516044 2.30261,-2.158167 -0.0409,-1.890928 -1.38526,0.157829 -1.42801,0.07219 -0.45231,-0.908339 0.97572,-0.980438 0.94777,-1.222741 -0.29557,-2.563889 -1.3623,-1.469345 -1.6333,-2.185793 -1.4331,-3.788611 0.0571,-0.457774 -0.58143,-1.200888 -1.41915,-1.651414 -0.83769,-0.450487 -3.10376,-2.342721 -5.0357,-4.204951 -1.93191,-1.86222 -3.70799,-3.386153 -3.94682,-3.386575 -0.23886,-3.64e-4 -1.63918,-0.519492 -3.11191,-1.153579 -2.61273,-1.124871 -7.86383,-1.305525 -8.5554,-0.294248 -0.19041,0.278367 -0.92874,0.722744 -1.64072,0.987391 -1.01267,0.376443 -1.20489,0.93141 -0.88295,2.548979 0.28492,1.431249 0.15122,2.01622 -0.43434,1.900278 -0.46824,-0.09252 -0.94563,0.706815 -1.0693,1.790908 -0.29523,2.58797 -5.68473,6.200474 -8.35987,5.603453 -2.54983,-0.569088 -5.3939,-3.884075 -6.31524,-7.360968 -0.4344,-1.639285 -1.2238,-3.46987 -1.75419,-4.067972 -0.53039,-0.598092 -1.30985,-2.083466 -1.73216,-3.300756 -0.42232,-1.21729 -1.0486,-2.213285 -1.39174,-2.213285 -0.34302,0 -0.62387,-0.331197 -0.62387,-0.735926 0,-0.404728 0.24677,-0.582731 0.54808,-0.395506 0.9543,0.592631 0.82961,-3.330456 -0.1471,-4.626121 -1.32693,-1.760441 -3.69317,-2.027376 -5.78179,-0.652217 -2.56366,1.68792 -13.2809,1.701424 -15.132519,0.02072 -1.037438,-0.942567 -1.834397,-1.05732 -3.974543,-0.572301 -3.396286,0.76971 -4.844553,2.178124 -4.232458,4.116018 0.256732,0.812532 0.773101,1.287022 1.147698,1.054422 1.253178,-0.778304 4.040292,0.340871 3.615965,1.452169 -0.477937,1.251596 -1.701354,1.391462 -1.457571,0.166815 0.0952,-0.47777 -0.293855,-0.747288 -0.864429,-0.598956 -0.570487,0.148156 -2.074123,0.214813 -3.341357,0.148156 -1.439323,-0.07602 -2.137741,0.148852 -1.860933,0.598966 0.243685,0.396263 1.348592,0.720486 2.455249,0.720486 1.537415,0 1.914583,0.255228 1.598796,1.082256 -0.227177,0.595263 -0.809265,0.929612 -1.293223,0.742976 -1.079192,-0.416121 -1.946885,2.461049 -0.932231,3.091188 0.443983,0.275598 0.300393,0.6125 -0.371772,0.871667 -0.602428,0.232422 -1.095319,0.763316 -1.095319,1.180057 0,0.41675 0.311047,0.564463 0.691547,0.328093 0.380364,-0.236224 0.691547,-0.09843 0.691547,0.306338 0,0.404758 0.544586,0.745432 1.210222,0.757031 1.136145,0.02072 1.13766,0.06354 0.02404,0.715448 -0.942689,0.552167 -1.048854,1.054942 -0.518675,2.456246 0.853267,2.255143 0.869316,8.620421 0.02062,8.620421 -0.354726,0 -0.843913,0.629942 -1.087109,1.399889 -0.243333,0.769916 -0.69316,1.243994 -0.999906,1.053489 -0.306922,-0.190633 -1.524396,0.138147 -2.705775,0.730376 -1.973969,0.989523 -2.31811,0.975812 -4.246924,-0.169232 -1.197115,-0.710576 -1.947882,-1.641357 -1.747379,-2.166339 0.193505,-0.506272 0.06734,-0.744018 -0.280112,-0.528301 -0.895354,0.556027 -4.661584,-3.087014 -5.501608,-5.321678 -1.054972,-2.806437 -3.853433,-4.424803 -5.973132,-3.454304 -0.930794,0.426149 -2.154895,0.596442 -2.72027,0.378417 -1.872516,-0.722018 -5.566927,2.292132 -7.103511,5.795569 -0.801905,1.828376 -1.630043,3.87624 -1.840311,4.550801 -0.210335,0.674591 -1.165877,1.525868 -2.123549,1.891743 -1.519128,0.580345 -1.725007,1.044444 -1.613819,3.637757 0.07008,1.634905 -0.09588,3.634836 -0.368683,4.444286 -0.617099,1.83045 0.56211,5.12975 1.833439,5.12975 0.520043,0 1.534835,1.0996 2.255078,2.4435 0.738472,1.37793 1.69071,2.29656 2.183533,2.1065 0.505705,-0.19512 0.873939,0.19237 0.873939,0.91977 0,0.85411 0.90372,1.55643 2.820668,2.19218 1.728271,0.57313 3.845556,2.1054 5.467007,3.95639 1.45548,1.66153 2.753541,2.69859 2.884561,2.30457 0.130941,-0.39403 0.268764,0.72034 0.306228,2.47641 0.04017,1.89852 0.460862,3.45758 1.037301,3.84598 0.641475,0.43217 0.100017,0.50221 -1.600653,0.20686 -1.887528,-0.32775 -2.864827,-0.14989 -3.679995,0.6691 -1.488848,1.49611 -2.190883,1.40566 -3.156081,-0.40655 l -0.810535,-1.52183 -1.2873,1.59746 c -0.955101,1.18518 -1.722876,1.48761 -2.97492,1.17185 -0.928146,-0.23416 -1.881107,-0.11087 -2.117676,0.27387 -0.285957,0.46469 -0.896106,0.44876 -1.818719,-0.0473 -1.143544,-0.61495 -1.673625,-0.43771 -3.003588,1.00427 -1.77332,1.92274 -1.772909,1.71829 -0.02746,12.45995 1.28167,7.88059 1.997759,10.08832 3.454304,10.64994 0.576234,0.22206 1.047681,1.16331 1.047681,2.09137 0,1.4424 0.190749,1.58476 1.313973,0.98073 1.012045,-0.54426 1.411722,-0.4506 1.739511,0.40769 0.312415,0.81826 0.968082,1.00532 2.46731,0.70403 1.487548,-0.29909 2.216686,-0.0964 2.686178,0.74674 0.596994,1.07196 0.941888,1.05895 4.690085,-0.17718 2.225141,-0.73382 4.787864,-1.88974 5.694946,-2.56869 2.189437,-1.63881 2.660229,-1.57184 4.815837,0.68533 1.0084,1.05588 2.576065,2.3994 3.483695,2.98562 1.320022,0.85257 1.650275,1.66523 1.650275,4.06101 0,3.17169 -0.84102,4.20774 -3.430446,4.22598 -0.980348,0.007 -1.508914,0.43871 -1.501388,1.22669 0.0068,0.66882 -0.359956,2.53685 -0.814044,4.15117 -1.295901,4.60691 -0.330634,6.67182 5.25241,11.23536 1.118552,0.91431 2.557045,2.1161 3.196692,2.67062 0.639618,0.55454 2.245216,1.10932 3.568034,1.23285 1.322779,0.12365 3.007937,0.54882 3.744747,0.94509 0.871955,0.4689 1.575563,0.48343 2.015226,0.0418 0.439642,-0.44179 1.117682,-0.18788 1.941969,0.7274 0.696571,0.77343 1.818377,1.40624 2.492986,1.40624 0.674566,0 1.659736,0.43532 2.189226,0.96738 0.5295,0.53208 1.56308,1.12119 2.29691,1.30917 0.73378,0.18788 1.43033,0.37807 1.54787,0.42241 0.11754,0.0442 0.0206,-0.23208 -0.21379,-0.61433 z m -8.11864,-8.73695 c -0.258453,-0.25971 -1.467952,-0.58908 -2.687615,-0.73178 -2.42449,-0.28355 -3.024543,-0.65498 -3.024543,-1.87155 0,-0.44068 -0.622406,-0.91552 -1.383094,-1.05525 -0.760698,-0.13988 -2.394455,-1.01985 -3.630578,-1.95582 -1.875575,-1.4202 -2.247523,-2.15954 -2.247523,-4.46787 0,-1.81763 0.355646,-2.90313 1.037301,-3.16599 0.570536,-0.22 1.03734,-0.76432 1.03734,-1.20966 0,-0.44531 0.943403,-1.95976 2.096466,-3.36537 1.6332,-1.99098 2.004152,-2.98572 1.678708,-4.50145 -1.018642,-4.74413 -2.6139,-7.11262 -6.783707,-10.07174 -5.352173,-3.79819 -6.685674,-4.16232 -10.774739,-2.9421 -1.83165,0.54657 -5.288535,1.07158 -7.681944,1.1667 -4.177323,0.16612 -4.400903,0.0895 -5.580806,-1.91179 -1.708479,-2.89758 -2.18796,-6.29538 -1.143299,-8.10134 1.346871,-2.32832 3.187797,-4.05934 4.317149,-4.05934 1.097235,0 6.130601,-1.75966 8.16771,-2.85545 0.681109,-0.36636 1.511534,-0.49642 1.845471,-0.28907 0.334065,0.20722 0.824864,-0.64199 1.09099,-1.88743 0.266018,-1.24548 0.811151,-2.88988 1.211111,-3.65427 0.638034,-1.21926 0.673641,-2.88197 0.230959,-10.77089 -0.104826,-1.86905 -1.723248,-4.47294 -2.850499,-4.58646 -2.554503,-0.25729 -9.046682,-2.79245 -10.673734,-4.16816 -2.258655,-1.90975 -4.474354,-6.10157 -4.554159,-8.615931 -0.05043,-1.588911 1.41224,-5.42283 2.386655,-6.255879 0.223404,-0.190986 1.263696,-1.676459 2.311513,-3.300756 1.646092,-2.551838 2.235697,-2.953325 4.337353,-2.953325 1.683653,0 2.57107,0.374302 2.883182,1.216092 0.651103,1.756021 3.820408,5.017266 4.478577,4.608501 0.307606,-0.190987 0.559471,0.113623 0.559471,0.676869 0,0.563354 1.455509,2.311705 3.234508,3.885246 3.611704,3.194595 4.634705,3.277025 9.904748,0.798231 4.877393,-2.294056 7.201495,-3.875915 7.979757,-5.431286 0.395181,-0.789844 1.133467,-1.938444 1.640618,-2.552496 0.507161,-0.614061 0.615975,-1.116454 0.241622,-1.116454 -0.374176,0 -0.532593,-0.776546 -0.352048,-1.725663 0.180447,-0.949089 0.08797,-2.278066 -0.205527,-2.953286 -0.293854,-0.675219 -0.47131,-1.502149 -0.394741,-1.837637 0.07663,-0.335341 -0.496078,-0.442993 -1.27259,-0.238983 -0.776541,0.204108 -1.586148,0.0877 -1.799132,-0.258675 -0.213092,-0.346331 0.09002,-0.629668 0.673563,-0.629668 0.79995,0 0.962931,-0.491972 0.662684,-2.000436 -0.233715,-1.173919 -0.06979,-2.204338 0.396657,-2.49399 0.587748,-0.365021 0.560869,-0.783736 -0.103105,-1.607454 -0.673163,-0.834983 -0.681549,-0.983207 -0.03441,-0.592012 0.475435,0.28699 0.903329,0.190632 0.95086,-0.214126 0.0474,-0.404758 0.125449,-1.032982 0.172882,-1.396059 0.223746,-1.710195 1.988239,-2.354359 5.997808,-2.189939 4.42541,0.181322 11.0196,-1.11617 11.88522,-2.338881 0.28767,-0.406153 0.51266,-0.129514 0.51867,0.637397 0.007,1.053931 0.19488,1.169735 0.84043,0.521191 1.21686,-1.222761 2.62944,-1.016512 2.61727,0.382169 -0.0104,1.019949 -0.11445,1.051211 -0.65394,0.193746 -0.35383,-0.562214 -0.83068,-0.833972 -1.05965,-0.603896 -0.22889,0.230006 0.0877,0.924603 0.70334,1.543389 1.00898,1.01387 1.01166,1.125077 0.0275,1.125077 -0.8293,0 -0.93457,0.292863 -0.43694,1.216052 0.91182,1.69127 1.67028,5.111346 1.5075,6.797636 -0.0753,0.780838 0.66262,2.110269 1.65067,2.973528 0.98287,0.858712 1.60027,1.864921 1.37203,2.236012 -0.22821,0.37106 0.18388,0.674697 0.9157,0.674697 0.73187,0 2.07279,0.567292 2.97986,1.260642 2.5187,1.925283 6.49174,3.603598 8.53064,3.603598 2.02924,0 5.91212,-1.784032 5.91212,-2.716365 0,-0.327759 0.65371,-0.767776 1.45265,-0.977717 0.79895,-0.209981 1.26067,-0.69387 1.02603,-1.075391 -0.23474,-0.381521 -0.11032,-0.890061 0.27633,-1.130125 0.38655,-0.240024 0.70282,-1.043403 0.70282,-1.78524 0,-0.741838 0.23749,-1.348779 0.52758,-1.348779 0.29006,0 0.83473,-0.687712 1.21017,-1.528225 0.46846,-1.048716 1.43463,-1.611274 3.07919,-1.79294 1.3181,-0.145739 2.95649,-0.565838 3.64085,-0.933894 0.91368,-0.491344 1.34866,-0.39588 1.63705,0.359285 0.23681,0.620229 0.85037,0.856296 1.5457,0.594743 0.9098,-0.342255 0.99709,-0.223102 0.41398,0.565053 -0.40645,0.54929 -0.79249,1.865117 -0.8579,2.924067 -0.0962,1.558789 0.32893,2.13992 2.23291,3.052266 2.01052,0.963387 2.32648,1.440293 2.17742,3.286387 -0.26843,3.323934 -1.40437,5.488064 -3.87361,7.37961 -6.59972,5.055676 -7.85565,8.023784 -4.59915,10.869004 1.34956,1.17913 3.36622,5.36253 4.84531,10.05122 0.40817,1.29383 3.54733,2.1054 4.48792,1.16021 0.34827,-0.34996 1.99806,-0.53804 3.66622,-0.41796 2.46597,0.17751 3.01269,0.45982 2.92435,1.51019 -0.097,1.15348 0.29388,1.25356 3.64619,0.93394 4.11062,-0.39193 6.28989,0.7763 5.41315,2.90176 -0.2557,0.61953 -0.56476,2.34644 -0.68708,3.83754 -0.12236,1.4911 -0.59946,2.94528 -1.06034,3.23148 -0.46085,0.28631 -0.86978,1.41149 -0.90865,2.50063 l -0.0708,1.98023 -7.36251,0.19651 -7.36252,0.1965 -2.20026,2.71251 c -1.21015,1.49186 -2.1981,2.96697 -2.19545,3.27796 0.003,0.31117 -0.44048,1.05991 -0.98472,1.66422 -1.11605,1.23919 0.88233,2.72318 -0.21436,2.72318 -1.27535,0 -2.14778,0.43826 -2.42081,1.21608 -0.23475,0.66883 -0.59786,1.57569 -0.80679,2.01519 -0.21103,0.44413 0.48031,1.10426 1.55642,1.48595 l -0.82985,1.93233 c -1.966,0.88527 -2.41366,1.32491 -1.54752,1.51998 0.67028,0.15091 1.0493,0.54978 0.84229,0.88636 -0.2069,0.33639 -0.83321,0.43581 -1.39155,0.22069 -0.55833,-0.21516 -1.01516,-0.0356 -1.01516,0.39961 0,0.43506 0.46679,0.97102 1.0373,1.19102 0.57053,0.21999 1.03734,0.95848 1.03734,1.64108 0,0.68261 0.44271,1.41184 0.98386,1.62047 0.72801,0.28078 0.90432,-0.0611 0.67801,-1.31544 -0.16808,-0.93213 -0.007,-1.69482 0.3595,-1.69482 0.36596,0 0.55537,0.57388 0.42095,1.27531 -0.34696,1.81035 0.3858,2.70881 2.6814,3.28778 1.27559,0.32153 1.84334,0.25246 1.57024,-0.19168 -0.25055,-0.40749 0.39435,-0.66523 1.55773,-0.62251 2.1275,0.0781 2.20184,1.11524 0.08,1.11524 -1.42836,0 -2.41892,1.80945 -1.35299,2.47144 0.38194,0.23726 0.60954,0.95078 0.50575,1.58576 -0.1038,0.63498 0.0626,1.5571 0.36946,2.04917 0.62409,1.0002 -3.02506,5.64047 -5.60641,7.12909 -0.85576,0.49351 -1.55597,1.52201 -1.55597,2.28549 0,0.76349 -0.20484,1.18241 -0.45501,0.93096 -0.25022,-0.25143 -0.8281,-0.14609 -1.28408,0.23415 -1.07439,0.89597 -4.44822,0.20066 -6.21361,-1.28033 -0.7607,-0.63819 -2.09828,-2.56751 -2.97243,-4.28741 -0.87415,-1.71987 -2.73862,-4.37742 -4.14334,-5.90575 -2.27841,-2.47894 -2.89033,-2.77287 -5.67182,-2.72452 -7.44771,0.12951 -15.21985,1.69945 -15.21985,3.07437 0,0.29115 -0.6537,0.70133 -1.45265,0.91127 -0.79895,0.20999 -1.25919,0.69625 -1.02276,1.08067 0.23645,0.38446 0.0171,0.95272 -0.4897,1.26286 -0.86185,0.52846 -2.83387,4.58311 -2.97804,6.12304 -0.23784,2.53931 -2.89779,6.60151 -4.32292,6.60151 -0.37583,0 -0.78706,0.28942 -0.91384,0.64351 -0.30005,0.83788 -3.590783,1.6549 -4.199916,1.04282 z m 27.34816,-37.07495 c 1.02438,-0.39137 1.86252,-1.06544 1.86252,-1.498 0,-0.43254 0.43636,-0.61817 0.96969,-0.41255 1.40966,0.54358 1.9205,-0.27904 0.92602,-1.49109 -0.74836,-0.91217 -0.65865,-0.93938 0.69956,-0.21205 1.68554,0.90249 1.51888,0.98455 5.97433,-2.94238 2.67143,-2.35453 2.67916,-2.37611 1.0373,-2.8915 -1.83718,-0.57668 0.091,-0.87031 1.0516,-1.67141 0.80988,-0.67538 1.03614,-1.69361 0.80483,-3.62197 -0.177,-1.47532 -0.0275,-2.68242 0.33132,-2.68242 0.81999,0 0.86532,-3.26066 0.0523,-3.76552 -0.33029,-0.20514 -0.84452,-1.70898 -1.14251,-3.34178 -0.29798,-1.6328 -0.59834,-3.12504 -0.66742,-3.31616 -1.64681,-4.55497 -4.98693,-8.54354 -8.78513,-10.49063 -1.47534,-0.75633 -2.983,-1.18851 -3.3503,-0.96041 -0.36731,0.22829 -0.6678,0.10776 -0.6678,-0.26731 0,-1.05511 -4.63137,-2.34092 -6.38591,-1.77294 -0.86178,0.27905 -2.49013,0.58328 -3.61858,0.67625 -1.12848,0.0929 -2.15995,0.49518 -2.2922,0.89383 -0.13232,0.39861 -0.61229,0.58137 -1.06683,0.40614 -0.45453,-0.17509 -2.03641,0.30115 -3.5153,1.05884 -1.47892,0.75766 -2.91071,1.23981 -3.18179,1.07146 -0.27117,-0.16819 -1.8588,0.93185 -3.528293,2.44484 -1.669487,1.51299 -3.39116,2.75533 -3.825897,2.76072 -1.280672,0.0173 -1.658807,1.95097 -1.180489,6.04064 0.331328,2.83165 0.208283,3.98423 -0.47045,4.40566 -0.50547,0.31394 -0.968248,1.24231 -1.028436,2.06313 -0.09315,1.2693 0.298917,4.42218 1.159417,5.92733 0.214812,0.37547 0.610022,1.62077 0.878562,2.76738 0.795307,3.39604 2.257893,5.17279 3.983242,4.83892 0.842589,-0.163 1.702404,-0.066 1.910684,0.21585 1.0392,1.40586 6.09516,4.66407 8.93265,5.75649 3.45499,1.33015 10.66528,1.33561 14.13326,0.0104 z m -12.84179,-6.27166 c -6.09222,-3.88231 -9.30267,-10.80763 -7.59787,-16.38939 0.44274,-1.4496 0.45852,-2.53609 0.0429,-2.95378 -1.19444,-1.20023 1.62034,-5.95126 3.93348,-6.63925 1.14102,-0.3395 3.16381,-1.1127 4.495,-1.71849 3.24774,-1.47794 4.88902,-1.57833 6.7182,-0.41094 0.84242,0.53762 2.33471,0.97751 3.31626,0.97751 0.98173,0 2.56273,0.7819 3.51417,1.73792 1.88283,1.89196 5.10542,8.32169 5.11624,10.20802 0.003,0.64627 0.30623,1.361 0.67223,1.58831 0.7233,0.44918 -0.48709,3.83586 -1.66867,4.66898 -0.3771,0.26592 -0.46605,0.70398 -0.19762,0.9736 0.26842,0.26974 -0.0519,0.88686 -0.71155,1.37157 -0.65973,0.48472 -1.24133,1.14104 -1.2925,1.4585 -0.45746,2.83829 -1.32137,3.55943 -6.37368,5.3205 -2.93205,1.02199 -5.64975,1.85821 -6.03929,1.85821 -0.38954,0 -2.15678,-0.92308 -3.92715,-2.05127 z"
       id="path2612"
       sodipodi:nodetypes="csssscsssscsssssssssssssssssscssscsssssssssssssssssssscscssssssssscsssssssssssssssssscssssssscsscsssssscsssssssssccssssssssssssssscssssssscsscscsscsscsssssssssssscssssssssssscccsssssssssssssssscsssssssssssssssssscssssssscscsscccssssssssssssssssssssssssssssssssssssscccscsssssssssssssssscssssscssssssssssscssscccssssssssssscsssssssscscsssssscsccsssssssscsssssssss" />
    <path
       style="opacity:0.930349;fill:#000000;stroke-width:0.572821"
       d="m 93.667154,182.36812 c -1.469212,-0.33062 -2.428605,-0.87037 -2.428605,-1.36633 0,-0.45091 -0.964299,-1.22458 -2.142883,-1.7193 -3.436164,-1.44234 -5.285788,-3.56986 -5.285788,-6.07998 0,-1.18552 0.261619,-2.318 0.581384,-2.51658 0.319775,-0.19859 1.605501,-1.94478 2.857184,-3.88042 2.658928,-4.11186 2.81928,-5.84149 0.917247,-9.89441 -1.494458,-3.18445 -2.604292,-4.32215 -7.205375,-7.38638 -3.586849,-2.3888 -5.102273,-2.5411 -12.293515,-1.23547 -6.358794,1.15447 -7.548041,1.08939 -9.129253,-0.49947 -3.041081,-3.05584 -3.046486,-7.82594 -0.01212,-10.69039 1.231305,-1.16237 10.174148,-4.59214 11.973594,-4.59214 1.445813,0 3.167858,-6.6464 3.167858,-12.22664 0,-7.09493 -0.804612,-8.67283 -5.053275,-9.90981 -5.439758,-1.58378 -8.96812,-3.54352 -10.556457,-5.86329 -3.466336,-5.062607 -3.35243,-7.256012 0.700773,-13.495018 3.96866,-6.108882 5.509495,-6.470524 9.139164,-2.145095 1.325066,1.57907 2.779618,2.871052 3.232348,2.871052 0.45273,0 0.823143,0.333789 0.823143,0.741769 0,1.137049 4.642222,5.458865 6.600367,6.144789 2.084474,0.730168 4.935001,-0.142223 10.28131,-3.146541 4.705773,-2.644375 6.525313,-5.368744 6.16914,-9.23695 -0.419733,-4.55847 -0.70699,-5.413037 -1.81958,-5.413037 -0.83151,0 -0.988313,-0.364029 -0.80384,-1.866159 0.126045,-1.026411 0.384762,-2.253768 0.574915,-2.727512 0.190162,-0.473724 0.399413,-1.248895 0.465016,-1.722619 0.06558,-0.473724 0.393587,-1.558003 0.728873,-2.409496 0.685605,-1.741202 1.55496,-1.972132 8.957211,-2.379414 2.51988,-0.138629 5.54136,-0.655046 6.71438,-1.147529 1.92904,-0.809919 2.13277,-0.810096 2.13277,-0.0029 0,0.50472 0.32863,0.766735 0.75532,0.602217 0.41541,-0.160177 1.04901,0.181332 1.40797,0.758936 0.45769,0.736407 0.46903,1.111671 0.0379,1.256075 -0.41296,0.138324 -0.31241,1.100809 0.30632,2.932072 0.5066,1.499369 0.92108,3.472463 0.92108,4.384642 0,0.931331 0.62638,2.406511 1.4286,3.364527 0.78573,0.938294 1.4286,1.959118 1.4286,2.268452 0,1.064262 10.44428,5.88898 12.73282,5.881889 2.34115,-0.0069 6.12458,-1.355231 6.12458,-2.182072 0,-0.281245 0.5938,-0.783215 1.31958,-1.115511 0.79702,-0.364894 1.58551,-1.481525 1.9911,-2.819666 1.1121,-3.669126 2.9979,-5.514424 6.42899,-6.290931 4.04283,-0.91493 5.225,-0.246526 4.7577,2.690014 -0.34545,2.170847 -0.27869,2.280797 2.78858,4.5915 2.96505,2.233703 1.57758,5.883108 -4.42091,11.628188 -4.91649,4.708768 -5.25782,5.895538 -2.64562,9.198498 0.90634,1.14602 2.36781,3.83008 3.24773,5.9646 2.44564,5.93267 2.49625,5.9685 7.80093,5.52397 4.28676,-0.35923 4.52506,-0.317 4.83026,0.85574 0.28849,1.10854 0.71269,1.23359 4.18448,1.23359 4.93456,0 5.33941,0.44133 4.52785,4.93583 -0.33667,1.8646 -0.97813,3.96248 -1.42546,4.66197 -0.44733,0.69944 -0.81333,1.88908 -0.81333,2.64357 0,1.35469 -0.091,1.37657 -7.28582,1.7518 l -7.28581,0.37999 -1.91003,2.14431 c -2.31496,2.59891 -4.27456,6.2879 -3.88376,7.31127 0.15779,0.41319 -0.20249,0.87743 -0.80352,1.03536 -1.5962,0.41945 -2.66771,3.05837 -1.80527,4.44606 0.56368,0.90697 0.46418,1.28785 -0.59562,2.27998 -1.0813,1.01228 -1.14479,1.27218 -0.42286,1.73086 0.67733,0.43032 0.58893,0.54149 -0.43623,0.54851 -1.46807,0.0101 -1.698,1.24698 -0.42858,2.3056 0.47144,0.39317 0.85716,1.0617 0.85716,1.48563 0,0.42396 0.51429,1.04738 1.14287,1.38543 0.62858,0.33803 1.14287,0.46168 1.14287,0.27475 0,-0.18694 0.57151,0.0624 1.27003,0.55403 0.69851,0.49162 1.79138,0.89385 2.4286,0.89385 0.87866,0 1.16287,0.38152 1.17629,1.57907 0.01,0.8685 0.21566,2.55559 0.4576,3.74914 0.42554,2.09918 0.32698,2.28352 -3.01774,5.64446 -1.9017,1.91095 -3.45765,3.70304 -3.45765,3.9825 0,0.79807 -2.05231,1.69889 -3.81962,1.67655 -2.66698,-0.0337 -3.97592,-1.18857 -7.58278,-6.69008 -5.03741,-7.68353 -5.33302,-7.86167 -12.31222,-7.41926 -3.14291,0.19921 -6.87153,0.6308 -8.28583,0.95908 -2.6057,0.60482 -6.85725,3.13541 -6.85725,4.08156 0,0.28396 -0.45,1.18879 -1,2.01074 -0.55002,0.82193 -1.6429,3.32069 -2.42862,5.55281 -1.17233,3.33038 -1.8722,4.39775 -3.90162,5.95007 -2.597398,1.98685 -3.762411,2.16581 -7.955696,1.22221 z m 31.241286,-36.52994 c 0.9421,-0.6999 2.10905,-1.27256 2.59321,-1.27256 0.48416,0 0.88029,-0.2584 0.88029,-0.5742 0,-0.31583 0.49635,-0.5742 1.10301,-0.5742 0.60666,0 2.47098,-1.2712 4.14292,-2.82488 2.30967,-2.14629 2.88204,-2.98768 2.38275,-3.50268 -0.49694,-0.51256 -0.4136,-0.92254 0.3419,-1.68171 1.44787,-1.45486 2.00979,-8.75123 0.90885,-11.80094 -0.45603,-1.26324 -0.84609,-2.81363 -0.86678,-3.44523 -0.12357,-3.77079 -5.67171,-10.86014 -9.86466,-12.60498 -1.33857,-0.55702 -3.07664,-1.33737 -3.86236,-1.73413 -0.78573,-0.39674 -2.16482,-0.89792 -3.06465,-1.11374 -1.62439,-0.38957 -7.03081,0.41312 -9.22124,1.36908 -0.62858,0.27433 -2.89424,1.10065 -5.03481,1.83628 -2.14057,0.73563 -4.98376,2.2419 -6.318212,3.34724 -1.334446,1.10536 -3.035662,2.41624 -3.780478,2.91308 -1.256091,0.83789 -1.346021,1.23768 -1.241205,5.51812 0.0865,3.53335 -0.0907,4.78465 -0.75628,5.3397 -1.224736,1.02137 -1.0849,3.18717 0.537392,8.32343 1.77114,5.60754 2.784876,7.1903 4.605277,7.1903 0.777749,0 2.636136,0.87247 4.129736,1.93884 5.99963,4.28344 8.12466,4.95382 15.12266,4.77082 4.69537,-0.12275 5.81348,-0.341 7.26268,-1.41764 z"
       id="path2648" />
    <path
       style="opacity:0.930349;fill:#000000;stroke-width:0.572821"
       d="m 111.77929,140.0466 c -3.49076,-2.26441 -5.97775,-5.03244 -7.37251,-8.20565 -1.00196,-2.27952 -1.13678,-3.49505 -0.91002,-8.20406 0.35472,-7.36668 0.94986,-8.19168 7.66418,-10.62451 4.71314,-1.70773 5.21697,-1.78364 6.72916,-1.01381 0.89901,0.45766 2.55383,0.99905 3.67737,1.20312 1.12353,0.20404 2.71682,1.07834 3.54062,1.94289 1.81599,1.90582 4.97091,8.01153 4.98092,9.63956 0.004,0.64743 0.29945,1.47077 0.65659,1.82963 0.48483,0.48718 0.34005,1.17922 -0.57145,2.73159 -0.67142,1.14352 -1.22077,2.46003 -1.22077,2.92563 0,0.46558 -0.37328,0.99044 -0.82952,1.16636 -0.45623,0.17592 -1.11128,1.17775 -1.45566,2.2263 -0.6719,2.04572 -2.09311,2.93894 -7.83483,4.92395 -4.0816,1.41108 -4.03986,1.41428 -7.05408,-0.541 z"
       id="path2650" />
    <path
       style="opacity:0.930349;fill:#ffffff;stroke-width:0.572821"
       d="m 109.9952,146.0054 c -2.3571,-0.87086 -8.13986,-4.45664 -8.7272,-5.41159 -0.21037,-0.34202 -1.09889,-0.62186 -1.974497,-0.62186 -2.218549,0 -3.139814,-1.28639 -4.853092,-6.77658 -1.736374,-5.56423 -1.791391,-6.31299 -0.590415,-8.03595 0.594716,-0.85318 0.867879,-2.39635 0.810359,-4.57788 -0.140188,-5.31605 -0.06646,-5.65685 1.365071,-6.31229 0.747043,-0.34202 2.225629,-1.38465 3.285758,-2.31693 1.863776,-1.63903 8.571056,-4.71025 10.286746,-4.71025 0.46249,0 1.08518,-0.22197 1.38376,-0.49326 0.29857,-0.27131 2.00231,-0.77557 3.78607,-1.12061 3.15653,-0.61056 5.25499,-0.36084 7.65318,0.91072 0.60708,0.32188 2.21269,1.04588 3.56801,1.60889 2.87594,1.19461 6.60388,4.74603 8.12316,7.73851 1.83523,3.61482 3.01091,9.18421 2.90254,13.7499 -0.0905,3.81168 -0.26403,4.44098 -1.51029,5.47653 -1.62633,1.35136 -1.78754,1.98817 -0.50328,1.98817 1.31933,0 0.85525,0.70183 -2.22526,3.36522 -3.08763,2.66957 -2.91076,2.60024 -4.48039,1.75612 -1.43588,-0.77219 -2.03185,-0.27324 -1.06782,0.89396 0.59837,0.72449 0.55908,0.8752 -0.22819,0.8752 -0.52306,0 -1.47237,0.48807 -2.10957,1.08459 -0.6372,0.59653 -1.94433,1.24251 -2.90472,1.43553 -2.9704,0.59694 -9.78254,0.30938 -11.98993,-0.50614 z m 9.78873,-5.12473 c 6.44795,-2.19208 6.27855,-2.02281 10.62343,-10.61456 1.2681,-2.50762 1.44347,-3.30429 0.91462,-4.15522 -0.35986,-0.57901 -0.65429,-1.38658 -0.65429,-1.79453 0,-0.40797 -0.86954,-2.56496 -1.93231,-4.79335 -1.99951,-4.19252 -4.0381,-6.32507 -6.58924,-6.89294 -0.81323,-0.18103 -2.57081,-0.72704 -3.90574,-1.2134 -2.33381,-0.85025 -2.5975,-0.82291 -6.85725,0.71084 -7.5231,2.70876 -8.54486,4.26818 -8.46215,12.91503 0.0629,6.58411 0.52739,7.99957 3.88552,11.84283 2.04963,2.34571 6.50332,5.35581 7.94906,5.37252 0.5199,0.006 2.78266,-0.61376 5.02835,-1.37722 z"
       id="path2652" />
    <path
       style="opacity:0.930349;fill:#ffffff;stroke-width:0.572821"
       d="m 109.00114,145.11265 c -1.38787,-0.63272 -3.72637,-2.01883 -5.19667,-3.08024 -1.47029,-1.06144 -3.46589,-2.10481 -4.434672,-2.31862 -2.110928,-0.46588 -2.978122,-1.70727 -4.610804,-6.60027 -1.318606,-3.95178 -1.595786,-7.20475 -0.663262,-7.7839 0.314292,-0.19517 0.571435,-1.85769 0.571435,-3.69446 0,-5.6449 0.347816,-6.42094 3.915186,-8.73546 4.307317,-2.7946 6.409757,-3.82148 11.120807,-5.43158 7.07778,-2.41899 8.69881,-2.39825 14.17342,0.18133 6.25803,2.94867 9.54585,6.47116 11.25073,12.05365 2.14208,7.01406 2.07942,13.80347 -0.14244,15.436 -1.05511,0.77526 -1.17496,1.96182 -0.19815,1.96182 0.37973,0 -0.45599,1.17751 -1.85717,2.61669 -2.28702,2.34905 -2.7425,2.58038 -4.4534,2.26163 -1.61582,-0.30101 -1.87617,-0.20037 -1.71099,0.66149 0.13575,0.7083 -0.55177,1.41542 -2.26734,2.33202 -3.36747,1.79919 -11.69211,1.87435 -15.49668,0.1399 z m 11.73609,-4.24302 c 4.63592,-1.69092 6.32572,-3.33365 9.08154,-8.8287 1.63653,-3.26318 2.02855,-4.61173 1.75953,-6.05266 -0.52033,-2.78705 -3.96773,-9.63748 -5.73385,-11.39393 -2.0051,-1.99409 -8.32374,-4.13519 -11.0955,-3.75972 -3.3114,0.44854 -9.56855,3.56389 -10.7273,5.34095 -1.27202,1.95074 -1.80461,11.37176 -0.84524,14.95121 0.88852,3.31505 3.5296,6.73152 7.04031,9.10724 3.6079,2.44148 5.29068,2.54314 10.52051,0.63561 z"
       id="path2654" />
    <path
       style="opacity:0.930349;fill:#ffffff;stroke-width:0.572821"
       d="m 101.23869,190.98728 c -1.257159,-0.66621 -2.73575,-1.43547 -3.285761,-1.70944 -0.55,-0.27399 -1.450016,-0.73141 -2.000026,-1.01651 -0.55001,-0.28508 -2.800035,-0.83087 -5.000067,-1.21283 -2.200031,-0.38193 -4.642925,-1.09543 -5.428654,-1.58551 -2.941914,-1.83499 -7.26963,-5.90968 -8.281078,-7.79694 -0.957536,-1.78668 -0.983603,-2.32801 -0.304205,-6.31904 0.736243,-4.32504 0.761001,-4.36836 2.705403,-4.73489 2.149852,-0.40527 3.022696,-1.83869 3.022696,-4.96405 0,-1.45951 -0.662127,-2.40953 -3.571484,-5.12426 -1.964312,-1.83293 -4.006778,-3.3354 -4.538823,-3.33882 -0.532046,-0.003 -1.857171,0.52131 -2.944729,1.16611 -1.087559,0.64478 -3.446505,1.6912 -5.242099,2.32535 -2.956995,1.04434 -3.356936,1.06916 -4.24322,0.26319 -0.538183,-0.48942 -1.922567,-0.88984 -3.076403,-0.88984 -1.163659,0 -2.097894,-0.28553 -2.097894,-0.64117 0,-0.37424 -0.594667,-0.52691 -1.428591,-0.36671 -1.101125,0.21149 -1.428592,0.0346 -1.428592,-0.77201 0,-0.57553 -0.497553,-1.51221 -1.10568,-2.08151 -0.608116,-0.56931 -1.392701,-1.79369 -1.743509,-2.72085 -0.825694,-2.18228 -2.865178,-14.16702 -2.865178,-16.8368 0,-2.72608 1.877754,-4.84461 3.68278,-4.15501 0.702357,0.26833 1.629437,0.26178 2.074534,-0.0145 0.442594,-0.27485 1.332269,-0.36668 1.977067,-0.20406 0.703813,0.17748 1.805974,-0.20516 2.757763,-0.95748 l 1.585405,-1.25312 0.850873,1.22067 c 0.999309,1.43363 2.080104,1.56008 3.0718,0.35936 0.438821,-0.53131 1.693241,-0.86133 3.274014,-0.86133 2.230389,0 2.504519,-0.13026 2.114421,-1.00484 -0.246519,-0.55269 -0.555992,-2.23225 -0.687726,-3.73238 -0.131733,-1.5001 -0.500075,-2.72748 -0.81854,-2.72748 -0.318455,0 -1.985815,-1.29196 -3.705231,-2.87103 -1.719426,-1.57907 -3.505872,-2.87106 -3.969891,-2.87106 -0.464019,0 -2.950476,-2.13168 -5.525456,-4.73711 l -4.681787,-4.73711 0.160929,-4.880862 c 0.152258,-4.618077 0.252295,-4.958182 1.857932,-6.316398 0.933355,-0.78955 2.568696,-3.271263 3.634087,-5.514945 2.3393,-4.926477 4.036002,-6.255642 8.63297,-6.762887 4.042022,-0.445998 5.409742,0.250838 7.125551,3.630411 0.61059,1.202665 1.957168,2.876875 2.992397,3.720481 1.035219,0.843597 2.738401,2.323451 3.78483,3.288588 1.987555,1.833139 2.334453,1.855905 6.410518,0.421071 2.955744,-1.040485 4.054406,-2.821994 4.054406,-6.574356 0,-1.738156 -0.171347,-3.944212 -0.380774,-4.902326 -0.289554,-1.324726 -0.128215,-1.934329 0.673475,-2.544707 0.57984,-0.441442 0.751188,-0.810863 0.380774,-0.82091 -1.080052,-0.02927 -2.518017,-1.771529 -2.067154,-2.504587 0.22703,-0.369126 0.33858,-1.381867 0.247907,-2.250547 -0.132467,-1.26896 0.06822,-1.579404 1.021066,-1.579404 0.804984,0 1.185943,-0.36892 1.185943,-1.148442 0,-0.90664 -0.380959,-1.148413 -1.809551,-1.148413 -2.374584,0 -1.925363,-0.323261 1.095251,-0.788195 1.997661,-0.307467 2.428605,-0.211267 2.428605,0.54216 0,1.220531 1.374405,0.718924 1.627677,-0.594056 0.244086,-1.265297 -0.829545,-2.010483 -2.913403,-2.022151 -1.172211,-0.0069 -1.571458,-0.292294 -1.571458,-1.124635 0,-2.576666 5.152022,-4.250797 7.772305,-2.525585 2.194514,1.44489 12.016295,1.456273 15.297815,0.01768 2.84256,-1.246096 3.53765,-1.220943 4.93029,0.178435 1.26658,1.272732 1.54488,4.356661 0.42858,4.749045 -0.53608,0.188423 -0.48606,0.522732 0.2004,1.339832 1.15759,1.377839 4.10883,7.059139 5.7178,11.007103 1.73472,4.256504 4.02515,6.076697 7.19489,5.717687 1.41347,-0.160098 3.27479,-0.9088 4.39644,-1.768484 2.1187,-1.623845 4.34579,-5.654802 4.35153,-7.87611 0.005,-1.856662 2.7453,-3.407515 6.02134,-3.407515 3.39264,0 8.25821,1.918477 10.29853,4.060636 0.92222,0.968279 3.0268,2.807704 4.67682,4.087624 2.03946,1.582017 3.00005,2.739622 3.00005,3.615395 0,0.708552 0.54738,1.987519 1.2164,2.842165 0.90338,1.15405 1.05043,1.720694 0.57143,2.20202 -1.01801,1.022955 -0.76675,1.476456 0.92649,1.672236 1.51911,0.175635 1.4858,0.229584 -1.00002,1.619897 -1.85485,1.037402 -2.72383,1.957507 -3.11821,3.301689 -0.35349,1.204807 -0.90895,1.863517 -1.57145,1.863517 -0.56359,0 -1.0247,0.258381 -1.0247,0.574206 0,0.315807 -0.47444,0.574207 -1.05431,0.574207 -2.79895,0 -4.03418,4.83908 -1.66002,6.50324 l 1.28573,0.90122 -1.28573,0.0302 c -1.56576,0.0366 -1.59208,0.46524 -0.14286,2.32693 0.61461,0.78955 1.12318,1.74013 1.13016,2.11241 0.0199,1.0571 3.7544,4.7781 4.79549,4.7781 0.51342,0 1.8572,-1.29196 2.98617,-2.87103 1.75938,-2.46082 2.32549,-2.87106 3.96192,-2.87106 4.28311,0 5.77322,1.83456 6.14994,7.57156 0.091,1.38605 0.57067,2.08722 2.01481,2.94522 1.77444,1.05426 1.88597,1.30331 1.74859,3.90441 -0.0807,1.52805 0.005,2.93092 0.19083,3.1175 0.18568,0.18657 0.12566,1.16159 -0.13338,2.16669 -0.25904,1.0051 -0.64337,3.18403 -0.85408,4.84204 -0.24272,1.90995 -0.65793,3.0146 -1.13313,3.0146 -0.46646,0 -0.63805,0.43033 -0.45383,1.13818 0.44998,1.72906 -1.9886,2.44588 -5.64219,1.65852 -1.60928,-0.34682 -4.01757,-0.50691 -5.35177,-0.3558 -2.63828,0.2988 -6.2829,2.69194 -6.85416,4.50056 -0.19066,0.6036 -0.71429,1.09746 -1.16364,1.09746 -0.44935,0 -1.81321,0.90438 -3.03079,2.00974 -1.21758,1.10534 -2.50406,2.00971 -2.85883,2.00971 -0.35477,0 -0.64504,0.3876 -0.64504,0.86131 0,0.47479 0.50632,0.86132 1.1282,0.86132 0.65027,0 1.47687,0.66893 1.95127,1.57908 0.95255,1.82747 3.72511,4.49324 6.73468,6.4753 2.3835,1.56975 2.32881,2.28137 -0.17535,2.28137 -1.33309,0 -1.67882,0.22717 -1.52931,1.00487 0.16362,0.85119 0.75993,0.98408 3.89909,0.86891 l 3.70594,-0.13593 -2.42862,1.11725 c -1.81823,0.83649 -2.4286,1.44513 -2.4286,2.42177 0,0.80678 -0.98114,2.22269 -2.57146,3.71091 -1.41431,1.32354 -2.57147,2.68506 -2.57147,3.02562 0,0.34055 -0.22596,0.61919 -0.50211,0.61919 -0.27616,0 -0.82165,0.77518 -1.2122,1.72262 -0.39055,0.94747 -1.06462,1.72265 -1.49792,1.72265 -0.43331,0 -0.78783,0.25837 -0.78783,0.5742 0,0.31581 -0.66858,0.57421 -1.48574,0.57421 -0.91398,0 -2.20101,0.71814 -3.34442,1.86616 -2.11384,2.12236 -5.49363,3.54924 -7.15321,3.01995 -1.61756,-0.51586 -5.9186,-4.87692 -6.80098,-6.89585 -0.97004,-2.21949 -6.1785,-6.33984 -9.01431,-7.13108 -3.97005,-1.10771 -6.2503,-0.79498 -8.46769,1.16139 -1.62452,1.43326 -2.01991,2.19543 -2.01991,3.89356 0,1.81877 -0.23765,2.20159 -1.71432,2.76168 -1.46754,0.55662 -1.7143,0.94781 -1.7143,2.71762 0,1.13706 -0.24162,2.51609 -0.53692,3.06447 -0.29531,0.5484 -0.67089,1.64742 -0.83461,2.44229 -0.37205,1.80622 -3.76224,6.30661 -4.75085,6.30661 -0.40417,0 -0.73487,0.2584 -0.73487,0.5742 0,0.82273 -0.56246,0.704 -3.1429,-0.66344 z m -0.75511,-8.12537 c 0.41532,-0.41243 1.20364,-0.92053 1.75186,-1.12912 1.34468,-0.51163 3.10273,-3.51987 4.13428,-7.07427 0.46674,-1.60826 1.36752,-3.58696 2.00171,-4.39715 0.63421,-0.81015 1.1531,-1.72012 1.1531,-2.02213 0,-0.30198 1.00251,-1.24721 2.22781,-2.10045 2.4866,-1.73158 8.97333,-3.14523 14.58466,-3.17844 3.2766,-0.0194 3.46209,0.0622 5.85912,2.57596 1.36148,1.42778 3.26817,4.00752 4.23711,5.73271 2.46143,4.38257 4.55764,6.0265 7.68454,6.0265 1.63754,0 2.76026,-0.32521 3.24191,-0.93902 0.40526,-0.51646 1.9844,-2.13143 3.50923,-3.5888 4.33633,-4.14457 4.81424,-5.61274 3.43237,-10.54473 -0.19407,-0.69267 0.17388,-1.17834 1.18554,-1.56486 2.54665,-0.97292 1.7719,-1.92483 -1.24737,-1.5326 -3.23894,0.42079 -4.3651,-0.16065 -4.40155,-2.27244 -0.0365,-2.11911 -1.31558,-2.44595 -1.59139,-0.40667 -0.19638,1.45218 -0.26618,1.49854 -0.69951,0.4647 -0.26475,-0.63164 -0.86785,-1.60059 -1.34022,-2.15328 -0.7816,-0.91446 -0.74462,-1.00487 0.41108,-1.00487 1.00989,0 1.19567,-0.23514 0.90721,-1.14841 -0.19951,-0.63163 -0.10559,-1.14841 0.2087,-1.14841 0.93431,0 1.3705,-2.28394 0.61166,-3.20271 -1.0102,-1.22312 0.19648,-3.6878 1.8055,-3.6878 0.96672,0 1.15508,-0.25629 0.90229,-1.22764 -0.21355,-0.82057 0.3231,-2.20101 1.61837,-4.16301 3.49013,-5.28669 2.76496,-4.93713 11.07081,-5.33635 l 7.49729,-0.36037 v -1.50616 c 0,-0.82837 0.37089,-2.03821 0.82418,-2.68853 0.45329,-0.65031 1.13004,-2.94732 1.50387,-5.10447 0.6223,-3.59079 0.59173,-3.98676 -0.36194,-4.68746 -0.60237,-0.44261 -2.5339,-0.76538 -4.58014,-0.76538 -3.13848,0 -3.57473,-0.13934 -3.85926,-1.23263 -0.30306,-1.16458 -0.57058,-1.21546 -4.84361,-0.92115 -2.48755,0.17132 -4.80847,0.13409 -5.1576,-0.0827 -0.34914,-0.21682 -1.42439,-2.32164 -2.38946,-4.67738 -0.96506,-2.35575 -2.51555,-5.237 -3.44552,-6.40279 -0.92997,-1.16578 -1.69085,-2.47216 -1.69085,-2.90302 0,-1.18989 2.30821,-4.082774 5.15914,-6.465968 3.28806,-2.748619 4.46705,-4.643367 4.91002,-7.89098 0.35398,-2.595042 0.33163,-2.640122 -2.06061,-4.157613 -2.49633,-1.583519 -2.68154,-2.316547 -1.41592,-5.603868 0.29032,-0.754055 0.0982,-1.004863 -0.76951,-1.004863 -0.63602,0 -1.25229,-0.289092 -1.3695,-0.642446 -0.15455,-0.465876 -1.14911,-0.434693 -3.6191,0.113477 -3.91968,0.869868 -5.91675,2.606473 -7.08381,6.159855 -0.69343,2.111291 -2.34642,3.839675 -5.44118,5.689363 -2.21328,1.322831 -5.19536,0.845532 -9.73842,-1.55872 -2.38704,-1.263244 -4.71357,-2.296825 -5.17007,-2.296825 -0.45651,0 -0.83001,-0.367782 -0.83001,-0.817257 0,-0.449495 -0.64287,-1.584973 -1.42859,-2.523287 -0.82441,-0.984494 -1.42859,-2.429689 -1.42859,-3.41712 0,-0.941093 -0.36876,-2.761298 -0.81945,-4.044882 -0.45069,-1.283614 -0.58508,-2.41426 -0.29866,-2.512582 0.28643,-0.09833 0.69432,-1.053646 0.90639,-2.122957 0.37963,-1.91395 0.35786,-1.940065 -1.4017,-1.680574 -0.98302,0.144973 -1.86189,0.03879 -1.95305,-0.236028 -0.0912,-0.274801 -1.19031,-0.06885 -2.44256,0.457735 -1.356,0.57018 -4.82286,1.11448 -8.57217,1.345774 -6.846894,0.422426 -7.704843,0.689273 -7.704843,2.396276 0,0.622901 -0.321426,1.257754 -0.714291,1.410762 -0.411454,0.160255 -0.786647,1.552149 -0.884954,3.282901 -0.09383,1.652592 -0.415296,3.250529 -0.714301,3.550975 -0.920111,0.924574 -0.607862,1.464995 0.846445,1.464995 1.565613,0 1.961185,0.826272 2.249732,4.699153 0.277668,3.726974 -1.688032,6.387701 -6.78271,9.180879 -2.200031,1.206183 -4.85767,2.437773 -5.905859,2.736843 -3.151693,0.899294 -3.685888,0.529303 -12.274876,-8.502026 -5.569976,-5.856818 -6.761246,-5.726105 -11.442887,1.255652 -3.21621,4.796365 -3.713842,7.001743 -2.374858,10.524836 1.890685,4.9747 5.672887,7.81278 12.855342,9.64636 2.056031,0.52488 2.77174,1.05409 3.570595,2.64009 1.347673,2.6756 1.362461,10.07792 0.02873,14.35903 l -0.993239,3.18809 -4.740636,1.83625 c -2.607352,1.00993 -5.202769,1.83623 -5.767606,1.83623 -1.801332,0 -5.244689,4.41079 -5.237662,6.7092 0.0068,2.20317 1.293486,5.55593 2.65885,6.92791 1.345582,1.35212 1.654038,1.40966 5.524498,1.03047 2.254648,-0.2209 5.537732,-0.7368 7.295765,-1.14644 3.902656,-0.90937 5.898607,-0.35288 10.252155,2.85841 3.795132,2.79941 6.111434,6.02231 6.578747,9.15368 0.327936,2.1975 0.141185,2.81012 -1.692215,5.55115 -1.133458,1.69457 -2.443921,3.58579 -2.912143,4.20269 -0.468231,0.61693 -0.851322,2.20891 -0.851322,3.53777 0,2.00041 0.306815,2.67551 1.783299,3.92393 0.980807,0.8293 2.652262,1.87265 3.71434,2.31857 1.062069,0.44591 1.931042,1.19633 1.931042,1.66758 0,1.60638 8.392185,2.73736 9.816462,1.32292 z"
       id="path2656" />
    <path
       style="opacity:0.930349;fill:#ffffff;stroke-width:0.572821"
       d="m 99.095873,189.60487 c -2.121415,-1.09415 -5.715712,-2.38224 -7.987318,-2.8624 -4.330501,-0.91535 -5.474895,-1.48831 -9.43334,-4.7229 -3.920259,-3.20342 -4.941716,-5.331 -4.517487,-9.40946 0.439809,-4.22834 0.773961,-4.8542 3.256411,-6.09925 1.806854,-0.90623 1.980899,-1.2231 2.135982,-3.88889 0.167106,-2.87231 0.133601,-2.93608 -3.243333,-6.17276 -3.90421,-3.74205 -4.99817,-3.97237 -9.087538,-1.91333 -4.01359,2.02091 -6.909771,2.85624 -7.717511,2.22593 -0.380706,-0.29707 -2.322812,-0.87751 -4.315811,-1.28985 -2.275594,-0.47084 -3.753358,-1.09023 -3.972363,-1.66504 -0.191814,-0.50339 -0.910553,-1.74782 -1.597193,-2.76537 -1.415172,-2.09718 -3.677766,-13.03974 -3.66938,-17.74623 0.0068,-3.71206 0.760678,-4.3714 5.2831,-4.61917 1.954295,-0.10706 4.121192,-0.60111 4.907654,-1.11892 1.296516,-0.85363 1.449293,-0.85351 1.925568,0.003 0.548095,0.98416 3.03551,1.27803 3.562678,0.42094 0.171827,-0.27937 1.485838,-0.68478 2.920011,-0.90089 l 2.607605,-0.39294 -0.394008,-2.6879 c -0.216708,-1.47835 -0.551241,-3.10248 -0.743407,-3.60915 -0.421581,-1.11162 -5.137332,-5.26138 -8.152199,-7.17382 -1.19819,-0.76003 -3.982782,-3.0922 -6.187984,-5.18257 l -4.009475,-3.80067 v -3.62542 c 0,-4.104542 0.638787,-6.217413 2.507481,-8.293857 0.710538,-0.78955 2.358936,-3.278118 3.663105,-5.530198 1.95145,-3.369829 2.780527,-4.259262 4.6834,-5.024337 2.381201,-0.957387 5.483613,-1.204208 7.134592,-0.567577 0.516417,0.199128 1.780797,1.618208 2.809751,3.153524 2.638892,3.937534 8.014307,8.542794 9.971436,8.542794 0.857978,0 2.707329,-0.581376 4.109658,-1.291952 3.236521,-1.640012 4.069546,-3.766476 3.597444,-9.183167 -0.21834,-2.505156 -0.110553,-4.146435 0.305397,-4.650065 0.491807,-0.59547 0.381175,-1.016276 -0.470919,-1.791143 -1.252435,-1.138955 -1.064306,-4.122874 0.331259,-5.254001 1.099229,-0.890945 0.981033,-2.385355 -0.213473,-2.69903 -0.629169,-0.165215 -0.429761,-0.287295 0.537705,-0.329213 0.845751,-0.03663 1.696652,0.191802 1.8909,0.507608 0.773326,1.257342 2.077622,0.588595 1.895123,-0.971687 -0.140286,-1.199425 -0.597043,-1.653526 -2.037979,-2.026129 -2.90622,-0.751541 -2.254697,-2.763999 1.17485,-3.628937 0.990562,-0.249797 2.805147,-0.02102 4.778422,0.602767 3.621933,1.144749 12.452653,0.973788 15.147743,-0.293276 3.28515,-1.544489 5.71445,0.676672 4.78964,4.37927 -0.34754,1.391403 -0.55594,1.483056 -2.71164,1.192511 -1.28434,-0.173121 -2.96232,-0.07513 -3.72883,0.21771 -0.76652,0.292834 -3.88136,0.792349 -6.92187,1.110051 -8.903944,0.930368 -8.843111,0.910018 -9.894965,3.308112 -0.515968,1.176345 -1.09441,3.172362 -1.285423,4.435635 -0.191022,1.263264 -0.493174,2.828879 -0.671451,3.479172 -0.241105,0.879464 0.04369,1.350762 1.111739,1.839758 0.980436,0.448886 1.553806,1.289026 1.807646,2.648676 0.557282,2.98492 -0.147626,5.171619 -2.395179,7.430063 -2.253563,2.264503 -9.569061,6.135154 -11.59539,6.135154 -0.893799,0 -3.328445,-1.97879 -7.671769,-6.235323 -6.593985,-6.462206 -8.12403,-7.447426 -9.999497,-6.438851 -1.472086,0.791662 -4.201221,4.302851 -6.028219,7.755622 -1.735651,3.280151 -1.856691,6.043237 -0.404114,9.225106 1.925783,4.21844 4.711314,6.21762 12.724605,9.13245 3.32608,1.20983 4.00668,2.69687 4.006084,8.75281 -5.18e-4,4.94958 -0.931156,9.57178 -2.128252,10.5701 -0.422733,0.35255 -3.287062,1.49593 -6.365176,2.54083 -4.818046,1.63559 -5.815156,2.19972 -7.168009,4.05544 -2.380928,3.26591 -2.019174,7.94874 0.851967,11.0286 1.483981,1.59185 4.962309,1.71177 11.806849,0.40711 4.405409,-0.83976 4.765531,-0.82878 7.063223,0.21514 6.027594,2.73853 10.706966,8.0504 10.706966,12.15417 0,1.53266 -0.675713,3.03604 -2.594821,5.77322 -2.405753,3.43128 -2.582711,3.92717 -2.428605,6.80576 0.161984,3.02575 0.238983,3.15355 3.0234,5.01763 1.571448,1.05203 3.411074,2.46532 4.088058,3.14063 0.941594,0.93929 2.160573,1.2947 5.186739,1.51227 3.512485,0.25253 4.210062,0.12317 6.223864,-1.15426 1.5255,-0.96768 2.60821,-2.25948 3.30723,-3.94593 2.86249,-6.90603 5.14514,-10.88619 6.84551,-11.93623 2.69502,-1.66425 8.30647,-2.91652 13.06886,-2.91652 5.20074,0 5.90089,0.46467 10.1169,6.71463 4.12411,6.11373 5.31999,7.05998 8.92706,7.06351 2.84437,0.003 2.9867,-0.0808 6.68083,-3.92584 4.1021,-4.26967 4.73354,-5.70343 4.17124,-9.47127 -0.33907,-2.27212 -0.24783,-2.53096 1.11131,-3.15324 2.1214,-0.97126 1.2197,-1.82147 -1.93178,-1.82147 -2.85072,0 -4.08062,-0.71667 -4.08062,-2.3778 0,-1.36022 -1.01466,-1.88922 -2.0183,-1.05222 -0.6613,0.55147 -0.90394,0.48256 -1.22065,-0.34681 -0.23221,-0.60803 -0.11713,-1.12824 0.27895,-1.26092 0.37084,-0.12422 0.67425,-0.72108 0.67425,-1.32639 0,-0.60531 0.29027,-1.10057 0.64505,-1.10057 0.44374,0 0.52664,-0.89701 0.26563,-2.87416 -0.35196,-2.66613 -0.27825,-2.92047 1.01854,-3.51419 0.88779,-0.40648 1.52581,-1.29591 1.74832,-2.43728 0.46481,-2.38435 3.99733,-7.15639 5.8102,-7.84899 0.79419,-0.30341 2.90581,-0.55388 4.69252,-0.55663 1.7867,-0.003 4.55848,-0.16318 6.15949,-0.35648 l 2.91092,-0.35149 1.28281,-3.80653 c 0.70556,-2.0936 1.42301,-5.27869 1.59435,-7.07797 0.35084,-3.68427 0.60196,-3.48609 -5.27038,-4.15986 -1.57146,-0.18032 -3.14269,-0.71378 -3.49162,-1.18547 -0.47606,-0.64357 -1.84783,-0.85766 -5.49501,-0.85766 h -4.86056 l -1.83536,-4.12461 c -1.00944,-2.26852 -2.58675,-5.22201 -3.50512,-6.56331 -0.91838,-1.34129 -1.66978,-2.874 -1.66978,-3.40605 0,-0.53204 1.91057,-2.940236 4.24569,-5.351528 4.54763,-4.69595 5.46873,-6.351558 5.46873,-9.829689 0,-1.920186 -0.27133,-2.381122 -2.05301,-3.487616 -1.96106,-1.21788 -2.03681,-1.383586 -1.69113,-3.699877 0.34172,-2.289784 0.2669,-2.464428 -1.34285,-3.134442 -3.8973,-1.622136 -9.23393,0.844088 -11.32559,5.233907 -0.69824,1.465387 -2.35169,3.595151 -3.67434,4.73278 -3.26119,2.804973 -5.53688,2.764872 -11.91353,-0.209913 -5.70868,-2.663201 -7.13051,-4.375399 -8.61371,-10.372878 -0.82148,-3.321725 -0.86466,-4.297144 -0.26753,-6.042529 l 0.71209,-2.081375 1.49376,2.561257 c 0.82156,1.408679 2.38537,4.527278 3.47515,6.930224 2.58848,5.70761 4.13973,7.264179 7.23938,7.264179 4.5112,0 8.25482,-3.312139 9.65673,-8.543707 0.81456,-3.039705 2.57587,-4.205894 6.3084,-4.176843 3.7914,0.02947 7.8042,2.008274 12.56763,6.197275 3.80179,3.343322 7.09998,8.664756 6.44057,10.39148 -0.17672,0.462754 0.0376,1.072062 0.47625,1.354014 0.62689,0.402961 0.39102,0.836712 -1.10215,2.026855 -1.04484,0.832813 -2.13112,2.125757 -2.41393,2.873213 -0.30452,0.804861 -1.62701,1.888433 -3.24321,2.657299 -2.45469,1.167771 -2.74669,1.511794 -2.90492,3.422374 -0.0968,1.16823 0.094,2.63097 0.42402,3.2505 0.4421,0.83006 0.41321,1.19051 -0.10981,1.37009 -1.64476,0.56478 4.44595,9.03627 6.49676,9.03627 0.54023,0 2.00079,-1.16275 3.24571,-2.58393 1.98233,-2.26298 2.55106,-2.58392 4.57858,-2.58392 2.92943,0 4.50595,1.82211 5.03342,5.81757 0.27502,2.08333 0.77746,3.16327 1.92186,4.1309 1.27146,1.07503 1.60503,1.92565 1.85905,4.74057 0.3314,3.67251 -0.74606,10.85015 -1.78554,11.89467 -0.34688,0.34858 -0.63069,1.07732 -0.63069,1.61949 0,1.4231 -0.82379,1.57472 -6.66546,1.22667 -4.92008,-0.29313 -5.39307,-0.22001 -7.81933,1.20876 -1.42037,0.83643 -2.74545,2.03674 -2.94462,2.66733 -0.19918,0.63059 -0.56963,1.14653 -0.82322,1.14653 -0.89522,0 -6.89059,4.79653 -6.89059,5.51275 0,0.39937 0.45,0.87236 1.00001,1.05109 0.55001,0.1787 1.60346,1.21757 2.341,2.30852 0.73754,1.09098 2.77411,3.09393 4.5257,4.45099 l 3.18472,2.4674 -1.54501,0.54833 c -2.36569,0.83962 -1.69202,2.28739 1.16178,2.49676 l 2.3725,0.17404 -1.14399,1.26148 c -0.62921,0.69382 -1.69905,2.08595 -2.37744,3.09368 -3.23561,4.80629 -7.83371,9.8212 -9.34504,10.19209 -0.88155,0.21636 -2.50284,1.11037 -3.60285,1.98671 -5.02863,4.00607 -6.34975,3.93652 -10.33803,-0.54429 -8.38192,-9.41707 -10.46955,-10.84792 -15.85985,-10.87017 -4.07207,-0.0169 -6.14792,1.44761 -7.02748,4.95761 -0.44448,1.77373 -1.06831,2.78414 -1.9753,3.19941 -0.99985,0.45777 -1.42089,1.25719 -1.71316,3.25271 -0.21314,1.45518 -0.96267,3.93772 -1.66565,5.51679 -1.30566,2.93285 -4.46893,6.62597 -5.63183,6.57517 -0.35557,-0.0156 -2.3822,-0.92346 -4.503617,-2.01761 z"
       id="path2658" />
    <path
       style="opacity:0.930349;fill:#ffffff;stroke-width:0.572821"
       d="m 99.095873,189.60487 c -2.121415,-1.09415 -5.715712,-2.38224 -7.987318,-2.8624 -4.330501,-0.91535 -5.474895,-1.48831 -9.43334,-4.7229 -3.920259,-3.20342 -4.941716,-5.331 -4.517487,-9.40946 0.439809,-4.22834 0.773961,-4.8542 3.256411,-6.09925 1.806854,-0.90623 1.980899,-1.2231 2.135982,-3.88889 0.167106,-2.87231 0.133601,-2.93608 -3.243333,-6.17276 -3.90421,-3.74205 -4.99817,-3.97237 -9.087538,-1.91333 -4.01359,2.02091 -6.909771,2.85624 -7.717511,2.22593 -0.380706,-0.29707 -2.322812,-0.87751 -4.315811,-1.28985 -2.275594,-0.47084 -3.753358,-1.09023 -3.972363,-1.66504 -0.191814,-0.50339 -0.910553,-1.74782 -1.597193,-2.76537 -1.415172,-2.09718 -3.677766,-13.03974 -3.66938,-17.74623 0.0068,-3.71206 0.760678,-4.3714 5.2831,-4.61917 1.954295,-0.10706 4.121192,-0.60111 4.907654,-1.11892 1.296516,-0.85363 1.449293,-0.85351 1.925568,0.003 0.548095,0.98416 3.03551,1.27803 3.562678,0.42094 0.171827,-0.27937 1.485838,-0.68478 2.920011,-0.90089 l 2.607605,-0.39294 -0.394008,-2.6879 c -0.216708,-1.47835 -0.551241,-3.10248 -0.743407,-3.60915 -0.421581,-1.11162 -5.137332,-5.26138 -8.152199,-7.17382 -1.19819,-0.76003 -3.982782,-3.0922 -6.187984,-5.18257 l -4.009475,-3.80067 v -3.62542 c 0,-4.104542 0.638787,-6.217413 2.507481,-8.293857 0.710538,-0.78955 2.358936,-3.278118 3.663105,-5.530198 1.95145,-3.369829 2.780527,-4.259262 4.6834,-5.024337 2.381201,-0.957387 5.483613,-1.204208 7.134592,-0.567577 0.516417,0.199128 1.780797,1.618208 2.809751,3.153524 2.638892,3.937534 8.014307,8.542794 9.971436,8.542794 0.857978,0 2.707329,-0.581376 4.109658,-1.291952 3.236521,-1.640012 4.069546,-3.766476 3.597444,-9.183167 -0.21834,-2.505156 -0.110553,-4.146435 0.305397,-4.650065 0.491807,-0.59547 0.381175,-1.016276 -0.470919,-1.791143 -1.252435,-1.138955 -1.064306,-4.122874 0.331259,-5.254001 1.099229,-0.890945 0.981033,-2.385355 -0.213473,-2.69903 -0.629169,-0.165215 -0.429761,-0.287295 0.537705,-0.329213 0.845751,-0.03663 1.696652,0.191802 1.8909,0.507608 0.773326,1.257342 2.077622,0.588595 1.895123,-0.971687 -0.140286,-1.199425 -0.597043,-1.653526 -2.037979,-2.026129 -2.90622,-0.751541 -2.254697,-2.763999 1.17485,-3.628937 0.990562,-0.249797 2.805147,-0.02102 4.778422,0.602767 3.621933,1.144749 12.452653,0.973788 15.147743,-0.293276 3.28515,-1.544489 5.71445,0.676672 4.78964,4.37927 -0.34754,1.391403 -0.55594,1.483056 -2.71164,1.192511 -1.28434,-0.173121 -2.96232,-0.07513 -3.72883,0.21771 -0.76652,0.292834 -3.88136,0.792349 -6.92187,1.110051 -8.903944,0.930368 -8.843111,0.910018 -9.894965,3.308112 -0.515968,1.176345 -1.09441,3.172362 -1.285423,4.435635 -0.191022,1.263264 -0.493174,2.828879 -0.671451,3.479172 -0.241105,0.879464 0.04369,1.350762 1.111739,1.839758 0.980436,0.448886 1.553806,1.289026 1.807646,2.648676 0.557282,2.98492 -0.147626,5.171619 -2.395179,7.430063 -2.253563,2.264503 -9.569061,6.135154 -11.59539,6.135154 -0.893799,0 -3.328445,-1.97879 -7.671769,-6.235323 -6.593985,-6.462206 -8.12403,-7.447426 -9.999497,-6.438851 -1.472086,0.791662 -4.201221,4.302851 -6.028219,7.755622 -1.735651,3.280151 -1.856691,6.043237 -0.404114,9.225106 1.925783,4.21844 4.711314,6.21762 12.724605,9.13245 3.32608,1.20983 4.00668,2.69687 4.006084,8.75281 -5.18e-4,4.94958 -0.931156,9.57178 -2.128252,10.5701 -0.422733,0.35255 -3.287062,1.49593 -6.365176,2.54083 -4.818046,1.63559 -5.815156,2.19972 -7.168009,4.05544 -2.380928,3.26591 -2.019174,7.94874 0.851967,11.0286 1.483981,1.59185 4.962309,1.71177 11.806849,0.40711 4.405409,-0.83976 4.765531,-0.82878 7.063223,0.21514 6.027594,2.73853 10.706966,8.0504 10.706966,12.15417 0,1.53266 -0.675713,3.03604 -2.594821,5.77322 -2.405753,3.43128 -2.582711,3.92717 -2.428605,6.80576 0.161984,3.02575 0.238983,3.15355 3.0234,5.01763 1.571448,1.05203 3.411074,2.46532 4.088058,3.14063 0.941594,0.93929 2.160573,1.2947 5.186739,1.51227 3.512485,0.25253 4.210062,0.12317 6.223864,-1.15426 1.5255,-0.96768 2.60821,-2.25948 3.30723,-3.94593 2.86249,-6.90603 5.14514,-10.88619 6.84551,-11.93623 2.69502,-1.66425 8.30647,-2.91652 13.06886,-2.91652 5.20074,0 5.90089,0.46467 10.1169,6.71463 4.12411,6.11373 5.31999,7.05998 8.92706,7.06351 2.84437,0.003 2.9867,-0.0808 6.68083,-3.92584 4.1021,-4.26967 4.73354,-5.70343 4.17124,-9.47127 -0.33907,-2.27212 -0.24783,-2.53096 1.11131,-3.15324 2.1214,-0.97126 1.2197,-1.82147 -1.93178,-1.82147 -2.85072,0 -4.08062,-0.71667 -4.08062,-2.3778 0,-1.36022 -1.01466,-1.88922 -2.0183,-1.05222 -0.6613,0.55147 -0.90394,0.48256 -1.22065,-0.34681 -0.23221,-0.60803 -0.11713,-1.12824 0.27895,-1.26092 0.37084,-0.12422 0.67425,-0.72108 0.67425,-1.32639 0,-0.60531 0.29027,-1.10057 0.64505,-1.10057 0.44374,0 0.52664,-0.89701 0.26563,-2.87416 -0.35196,-2.66613 -0.27825,-2.92047 1.01854,-3.51419 0.88779,-0.40648 1.52581,-1.29591 1.74832,-2.43728 0.46481,-2.38435 3.99733,-7.15639 5.8102,-7.84899 0.79419,-0.30341 2.90581,-0.55388 4.69252,-0.55663 1.7867,-0.003 4.55848,-0.16318 6.15949,-0.35648 l 2.91092,-0.35149 1.28281,-3.80653 c 0.70556,-2.0936 1.42301,-5.27869 1.59435,-7.07797 0.35084,-3.68427 0.60196,-3.48609 -5.27038,-4.15986 -1.57146,-0.18032 -3.14269,-0.71378 -3.49162,-1.18547 -0.47606,-0.64357 -1.84783,-0.85766 -5.49501,-0.85766 h -4.86056 l -1.83536,-4.12461 c -1.00944,-2.26852 -2.58675,-5.22201 -3.50512,-6.56331 -0.91838,-1.34129 -1.66978,-2.874 -1.66978,-3.40605 0,-0.53204 1.91057,-2.940236 4.24569,-5.351528 4.54763,-4.69595 5.46873,-6.351558 5.46873,-9.829689 0,-1.920186 -0.27133,-2.381122 -2.05301,-3.487616 -1.96106,-1.21788 -2.03681,-1.383586 -1.69113,-3.699877 0.34172,-2.289784 0.2669,-2.464428 -1.34285,-3.134442 -3.8973,-1.622136 -9.23393,0.844088 -11.32559,5.233907 -0.69824,1.465387 -2.35169,3.595151 -3.67434,4.73278 -3.26119,2.804973 -5.53688,2.764872 -11.91353,-0.209913 -5.70868,-2.663201 -7.13051,-4.375399 -8.61371,-10.372878 -0.82148,-3.321725 -0.86466,-4.297144 -0.26753,-6.042529 l 0.71209,-2.081375 1.49376,2.561257 c 0.82156,1.408679 2.38537,4.527278 3.47515,6.930224 2.58848,5.70761 4.13973,7.264179 7.23938,7.264179 4.5112,0 8.25482,-3.312139 9.65673,-8.543707 0.81456,-3.039705 2.57587,-4.205894 6.3084,-4.176843 3.7914,0.02947 7.8042,2.008274 12.56763,6.197275 3.80179,3.343322 7.09998,8.664756 6.44057,10.39148 -0.17672,0.462754 0.0376,1.072062 0.47625,1.354014 0.62689,0.402961 0.39102,0.836712 -1.10215,2.026855 -1.04484,0.832813 -2.13112,2.125757 -2.41393,2.873213 -0.30452,0.804861 -1.62701,1.888433 -3.24321,2.657299 -2.45469,1.167771 -2.74669,1.511794 -2.90492,3.422374 -0.0968,1.16823 0.094,2.63097 0.42402,3.2505 0.4421,0.83006 0.41321,1.19051 -0.10981,1.37009 -1.64476,0.56478 4.44595,9.03627 6.49676,9.03627 0.54023,0 2.00079,-1.16275 3.24571,-2.58393 1.98233,-2.26298 2.55106,-2.58392 4.57858,-2.58392 2.92943,0 4.50595,1.82211 5.03342,5.81757 0.27502,2.08333 0.77746,3.16327 1.92186,4.1309 1.27146,1.07503 1.60503,1.92565 1.85905,4.74057 0.3314,3.67251 -0.74606,10.85015 -1.78554,11.89467 -0.34688,0.34858 -0.63069,1.07732 -0.63069,1.61949 0,1.4231 -0.82379,1.57472 -6.66546,1.22667 -4.92008,-0.29313 -5.39307,-0.22001 -7.81933,1.20876 -1.42037,0.83643 -2.74545,2.03674 -2.94462,2.66733 -0.19918,0.63059 -0.56963,1.14653 -0.82322,1.14653 -0.89522,0 -6.89059,4.79653 -6.89059,5.51275 0,0.39937 0.45,0.87236 1.00001,1.05109 0.55001,0.1787 1.60346,1.21757 2.341,2.30852 0.73754,1.09098 2.77411,3.09393 4.5257,4.45099 l 3.18472,2.4674 -1.54501,0.54833 c -2.36569,0.83962 -1.69202,2.28739 1.16178,2.49676 l 2.3725,0.17404 -1.14399,1.26148 c -0.62921,0.69382 -1.69905,2.08595 -2.37744,3.09368 -3.23561,4.80629 -7.83371,9.8212 -9.34504,10.19209 -0.88155,0.21636 -2.50284,1.11037 -3.60285,1.98671 -5.02863,4.00607 -6.34975,3.93652 -10.33803,-0.54429 -8.38192,-9.41707 -10.46955,-10.84792 -15.85985,-10.87017 -4.07207,-0.0169 -6.14792,1.44761 -7.02748,4.95761 -0.44448,1.77373 -1.06831,2.78414 -1.9753,3.19941 -0.99985,0.45777 -1.42089,1.25719 -1.71316,3.25271 -0.21314,1.45518 -0.96267,3.93772 -1.66565,5.51679 -1.30566,2.93285 -4.46893,6.62597 -5.63183,6.57517 -0.35557,-0.0156 -2.3822,-0.92346 -4.503617,-2.01761 z"
       id="path2660" />
  </g>
</svg>
