<?xml version="1.0" encoding="UTF-8" standalone="no"?>
<svg
   xmlns:dc="http://purl.org/dc/elements/1.1/"
   xmlns:cc="http://creativecommons.org/ns#"
   xmlns:rdf="http://www.w3.org/1999/02/22-rdf-syntax-ns#"
   xmlns:svg="http://www.w3.org/2000/svg"
   xmlns="http://www.w3.org/2000/svg"
   xmlns:sodipodi="http://sodipodi.sourceforge.net/DTD/sodipodi-0.dtd"
   xmlns:inkscape="http://www.inkscape.org/namespaces/inkscape"
   width="132.29167mm"
   height="132.29167mm"
   viewBox="0 0 132.29167 132.29167"
   version="1.1"
   id="svg14997"
   inkscape:version="1.0 (b51213c273, 2020-08-10)">
  <defs
     id="defs14991" />
  <sodipodi:namedview
     id="base"
     pagecolor="#ffffff"
     bordercolor="#666666"
     borderopacity="1.0"
     inkscape:pageopacity="0.0"
     inkscape:pageshadow="2"
     inkscape:zoom="0.35"
     inkscape:cx="192.69716"
     inkscape:cy="296.26582"
     inkscape:document-units="mm"
     inkscape:current-layer="layer1"
     inkscape:document-rotation="0"
     showgrid="false"
     inkscape:snap-global="false"
     fit-margin-top="0"
     fit-margin-left="0"
     fit-margin-right="0"
     fit-margin-bottom="0"
     showborder="false"
     inkscape:window-width="1318"
     inkscape:window-height="704"
     inkscape:window-x="48"
     inkscape:window-y="27"
     inkscape:window-maximized="1" />
  <metadata
     id="metadata14994">
    <rdf:RDF>
      <cc:Work
         rdf:about="">
        <dc:format>image/svg+xml</dc:format>
        <dc:type
           rdf:resource="http://purl.org/dc/dcmitype/StillImage" />
        <dc:title></dc:title>
      </cc:Work>
    </rdf:RDF>
  </metadata>
  <g
     inkscape:label="Layer 1"
     inkscape:groupmode="layer"
     id="layer1"
     transform="translate(-54.848875,-69.779669)">
    <path
       style="opacity:0.930349;fill:#ff0000;stroke-width:0.32559"
       d="m 98.4236,201.6023 c -4.533095,-1.12533 -4.323579,-1.02749 -4.609624,-2.15235 -0.221113,-0.86953 -0.539762,-1.15692 -1.819787,-1.64121 -2.164675,-0.81902 -4.985692,-2.79546 -5.70455,-3.99668 -0.434966,-0.72683 -0.604287,-1.64056 -0.605147,-3.2656 -0.0011,-2.15953 0.04722,-2.30156 1.127685,-3.31 0.620881,-0.57955 1.128888,-1.25179 1.128888,-1.49394 0,-0.24215 0.882001,-1.6773 1.960013,-3.18923 2.458156,-3.44766 2.703388,-4.26147 2.060076,-6.83638 -1.209024,-4.8392 -3.19533,-7.6028 -7.891402,-10.97948 -5.188135,-3.73049 -7.469357,-4.34374 -11.771873,-3.16456 -2.465405,0.67569 -8.151573,1.47057 -10.579188,1.47891 -2.632752,0.009 -3.47448,-0.54326 -4.702802,-3.08578 -1.192011,-2.46734 -1.719162,-5.16852 -1.341593,-6.87444 0.30318,-1.36983 2.244513,-4.19715 3.514752,-5.11883 0.480765,-0.34882 1.449777,-0.74131 2.153376,-0.8722 1.620069,-0.30135 6.363408,-1.98594 8.039781,-2.85529 0.70254,-0.36435 1.715366,-0.68488 2.250737,-0.71232 1.108266,-0.0568 1.264799,-0.31068 2.653351,-4.30328 0.888786,-2.55557 0.913832,-2.80923 0.892361,-9.03843 -0.02383,-6.92062 -0.173293,-7.69982 -1.869891,-9.75002 -0.610321,-0.7375 -1.258135,-1.10801 -2.226021,-1.27311 -1.899483,-0.32402 -6.434608,-1.98707 -8.982665,-3.29398 -2.605609,-1.33642 -4.390354,-3.31585 -6.020816,-6.67758 -1.524397,-3.14301 -1.622673,-5.47777 -0.348385,-8.27662 1.219528,-2.678551 5.745727,-9.157684 6.777045,-9.701117 1.035467,-0.545635 3.589108,-0.618665 4.488211,-0.128332 0.342547,0.186816 0.912398,0.918077 1.266332,1.625033 0.82178,1.641425 3.721025,4.60871 4.503029,4.60871 0.381342,0 0.726924,0.376369 0.953355,1.038228 0.472258,1.380477 4.768727,5.596848 6.647599,6.523698 1.948119,0.96097 3.474403,0.7549 7.398964,-0.99897 2.989951,-1.33624 7.191973,-3.74661 8.417129,-4.828302 0.619512,-0.546973 2.94563,-3.92796 3.730215,-5.421835 0.261555,-0.498008 0.250805,-0.732481 -0.04204,-0.916918 -0.236603,-0.148977 -0.430507,-1.213264 -0.486425,-2.669717 -0.05109,-1.332076 -0.221113,-3.013542 -0.377756,-3.736622 l -0.284787,-1.314675 -1.492621,0.0957 c -1.725351,0.110634 -2.222821,-0.319223 -1.017217,-0.878988 0.793313,-0.368308 0.821802,-0.471265 0.609527,-2.202528 -0.17433,-1.421829 -0.106143,-1.99739 0.313905,-2.650681 0.315096,-0.490037 0.45968,-1.146719 0.350271,-1.590944 -0.123465,-0.50125 -0.02394,-0.819968 0.295192,-0.94473 0.264839,-0.10355 0.481516,-0.553041 0.481516,-0.998872 0,-1.449879 0.607342,-2.514553 1.69128,-2.964904 0.63346,-0.263179 3.0345,-0.506576 6.04968,-0.613223 5.22263,-0.184733 8.76979,-0.779987 11.21455,-1.881965 1.78766,-0.805808 1.68703,-0.815923 1.68703,0.169652 0,0.950354 0.50336,1.054233 1.3454,0.277725 0.55553,-0.512316 0.58984,-0.499019 0.58984,0.228523 0,0.424858 0.39001,1.187295 0.86669,1.694287 l 0.8667,0.921825 h -0.8667 c -1.06771,0 -1.06972,0.16983 -0.0364,3.082617 0.45666,1.287247 0.91217,3.375751 1.01225,4.641134 0.21039,2.660108 0.66538,3.736414 2.39366,5.662199 0.68584,0.764251 1.24698,1.675634 1.24698,2.025319 0,0.486675 0.30563,0.688395 1.30314,0.860128 0.71672,0.123395 2.05929,0.749437 2.98349,1.391187 0.9242,0.641749 2.91407,1.772404 4.42195,2.512559 2.52165,1.237747 2.94859,1.344541 5.32191,1.331274 2.98624,-0.01666 5.12015,-0.816102 6.65889,-2.494652 0.51913,-0.566279 1.4104,-1.267137 1.98058,-1.557446 0.67095,-0.341594 1.03672,-0.769963 1.03672,-1.214186 0,-0.37753 0.19447,-0.926348 0.43216,-1.219631 0.23769,-0.293284 0.51249,-1.143416 0.61065,-1.889194 0.0982,-0.745778 0.37925,-1.434469 0.62463,-1.530406 0.24539,-0.09596 0.79914,-0.785729 1.23057,-1.532816 0.98182,-1.700205 1.53519,-2.04647 3.99773,-2.501493 1.08502,-0.2005 2.58245,-0.583741 3.32762,-0.851649 1.32517,-0.476412 1.37194,-0.46832 2.13407,0.369229 0.58309,0.640768 0.97618,0.805927 1.56183,0.656148 0.76081,-0.194581 0.76998,-0.174709 0.32876,0.713293 -0.62799,1.263924 -0.942,3.248044 -0.69523,4.392948 0.16154,0.749466 0.68698,1.245095 2.40195,2.265742 2.55226,1.518922 2.7847,2.037159 2.25324,5.02375 -0.62611,3.518423 -1.36599,4.58869 -5.72708,8.284258 -3.02188,2.56076 -5.0265,5.01037 -5.42534,6.62969 -0.36447,1.47978 0.19023,2.96023 1.82043,4.85857 1.69386,1.97245 3.62729,5.77506 4.8152,9.47033 0.42807,1.33164 1.02238,2.4636 1.49044,2.83874 1.15262,0.92392 2.80085,1.13834 4.19315,0.54555 0.71548,-0.30462 2.16395,-0.50465 3.65443,-0.50465 2.79469,0 3.90285,0.51854 3.90285,1.82631 0,0.94661 -0.22408,0.90166 4.67683,0.93837 3.90812,0.0291 5.05776,0.3325 5.47647,1.44441 0.15826,0.42022 -0.45295,4.48347 -1.13705,7.55903 -0.1731,0.77827 -0.63042,1.85013 -1.01627,2.38194 -0.47662,0.65692 -0.74644,1.59942 -0.84158,2.93986 l -0.14005,1.97293 h -3.4579 c -1.90183,0 -5.65244,0.0968 -8.33467,0.21511 l -4.87679,0.21507 -2.09278,2.691 c -1.15103,1.48004 -2.27694,3.12107 -2.50202,3.64677 -0.22508,0.52568 -0.75638,1.50531 -1.18065,2.17689 -0.64791,1.02559 -0.71851,1.37584 -0.44093,2.18721 0.316,0.92372 0.28414,0.97496 -0.72661,1.1682 -1.25652,0.24017 -1.82962,0.85679 -2.54521,2.73831 -0.51069,1.34276 -0.50625,1.42498 0.11124,2.05417 0.35376,0.36049 0.78601,0.65544 0.96053,0.65544 0.70125,0 -0.77793,2.24605 -1.8092,2.74718 -1.30347,0.63339 -1.36267,0.96403 -0.2639,1.47418 1.13981,0.52921 0.67281,1.10677 -0.68502,0.84718 -0.87669,-0.16759 -1.14502,-0.0916 -1.32025,0.3737 -0.15883,0.42173 0.10073,0.86551 0.93399,1.5971 0.68606,0.60234 1.24191,1.44601 1.37095,2.08086 0.19427,0.9558 1.18387,2.0546 1.85042,2.0546 0.13792,0 0.25077,-0.81347 0.25077,-1.8077 0,-0.99423 0.14514,-1.80768 0.32254,-1.80768 0.17739,0 0.32253,0.67527 0.32253,1.50063 0,0.82532 0.14091,1.76889 0.31314,2.09684 0.65966,1.256 4.8475,2.26529 4.8475,1.16825 0,-0.35146 0.34723,-0.49156 1.20952,-0.48798 1.46796,0.007 2.35179,0.45065 1.53274,0.77092 -0.29549,0.11553 -0.87768,0.21008 -1.29379,0.21008 -0.72931,0 -2.09354,1.35057 -2.09354,2.07261 0,0.18735 0.24418,0.61561 0.54264,0.95163 0.3137,0.35326 0.65171,1.53413 0.80114,2.79906 0.24623,2.08411 0.21269,2.26084 -0.70604,3.71977 -0.83341,1.32344 -2.50899,3.0656 -6.20156,6.44792 -0.56995,0.52207 -0.88698,1.1442 -0.88698,1.74052 0,0.78174 -0.16528,0.96355 -1.04825,1.1532 -2.79587,0.60055 -4.02054,0.56533 -5.68289,-0.16337 -2.0325,-0.89098 -3.0409,-2.03077 -5.38028,-6.08126 -2.07096,-3.58575 -5.05314,-7.49012 -6.64212,-8.69607 -1.05497,-0.80065 -1.21878,-0.82121 -6.40457,-0.80423 -7.53293,0.0247 -13.59519,1.22555 -15.43412,3.05734 -0.50328,0.50135 -1.38419,1.10951 -1.95756,1.35153 -0.78054,0.32946 -1.00218,0.59713 -0.88205,1.06524 0.10041,0.39115 -0.19154,1.03376 -0.77978,1.71648 -1.16956,1.35736 -2.84715,4.95833 -3.09549,6.64453 -0.43713,2.96788 -3.48519,7.67532 -4.96977,7.67532 -0.32832,0 -0.74413,0.28026 -0.92403,0.62277 -0.69963,1.33214 -2.96116,1.61239 -6.307673,0.78163 z m 29.8614,-40.9836 c 2.75095,-0.50009 4.30631,-1.19976 4.8134,-2.16527 0.24232,-0.46139 0.67552,-0.65396 1.47112,-0.65396 1.20484,0 1.80658,-0.7337 1.15025,-1.40248 -0.70029,-0.7136 -0.35817,-0.9113 0.65401,-0.37792 0.92031,0.48494 1.11625,0.48861 2.01588,0.0374 1.35364,-0.67881 6.96347,-5.75433 6.96347,-6.30026 0,-0.24087 -0.43543,-0.59261 -0.96761,-0.78165 -1.21034,-0.42994 -1.20755,-0.56328 0.0254,-1.21297 1.414,-0.74513 2.01624,-2.40214 1.74345,-4.79707 -0.18384,-1.61414 -0.1124,-2.08619 0.45808,-3.02682 0.85438,-1.40868 0.86082,-2.95505 0.0181,-4.34448 -0.36179,-0.59654 -1.0252,-2.74653 -1.47423,-4.77776 -0.90814,-4.108 -1.9078,-6.37916 -4.13924,-9.40406 -2.52274,-3.41975 -7.24544,-6.66684 -9.6975,-6.6675 -0.6045,-1.8e-4 -1.11519,-0.2361 -1.35381,-0.62545 -0.52179,-0.8514 -3.41893,-1.79115 -5.57774,-1.80926 -2.31875,-0.0193 -7.32143,0.97942 -8.35223,1.66763 -0.44559,0.29754 -1.29193,0.58499 -1.88075,0.63883 -0.58883,0.0539 -2.21042,0.62233 -3.60353,1.26327 -1.39312,0.64098 -2.80895,1.16541 -3.14629,1.16541 -0.7514,0 -1.50941,0.51609 -4.68067,3.18685 -1.3598,1.14517 -2.9978,2.30584 -3.640019,2.57928 -1.695594,0.72196 -1.884731,1.52425 -1.627506,6.90397 0.199024,4.16216 0.165162,4.66469 -0.343265,5.09437 -1.03081,0.87116 -1.487567,2.53311 -1.247278,4.53835 0.230889,1.9267 2.604947,9.73774 3.489342,11.48049 0.827726,1.63107 2.100376,2.45916 3.489276,2.27044 1.06161,-0.14425 1.44247,0.0313 3.38666,1.56095 4.48172,3.5261 8.47758,5.54809 12.01207,6.07838 2.8089,0.4214 7.36601,0.3675 10.04114,-0.11878 z"
       id="path2638" />
    <path
       style="opacity:0.930349;fill:#ff0000;stroke-width:0.32559"
       d="m 117.97753,153.28673 c -4.76609,-2.74301 -8.3956,-7.0865 -9.76744,-11.68884 -0.68342,-2.29278 -0.69084,-3.14797 -0.0775,-8.94166 0.0957,-0.90385 0.0391,-2.01094 -0.12589,-2.46019 -0.44726,-1.21841 0.39019,-3.33753 2.07248,-5.24419 0.78992,-0.89529 1.75628,-1.72679 2.14746,-1.84782 0.39118,-0.12101 2.55725,-0.94232 4.81348,-1.82514 2.25623,-0.88282 4.54706,-1.60513 5.09072,-1.60513 0.54367,0 1.67892,0.35652 2.52279,0.79228 0.84387,0.43574 2.38514,0.95255 3.42505,1.14844 2.74006,0.51616 4.40749,1.64544 5.98593,4.05409 1.85905,2.83686 3.72592,6.94647 4.17946,9.20046 0.20851,1.03626 0.51449,1.96936 0.67995,2.07358 0.77645,0.48899 -0.22197,4.02686 -1.42201,5.03879 -0.29421,0.2481 -0.53493,0.84766 -0.53493,1.33238 0,0.57122 -0.38684,1.26336 -1.09952,1.96725 -0.61776,0.61013 -1.18676,1.55982 -1.29863,2.16749 -0.45446,2.46852 -2.28223,3.66159 -9.12445,5.95593 -2.35702,0.79033 -4.39353,1.43699 -4.52558,1.43699 -0.13204,-3e-5 -1.45567,-0.69964 -2.94138,-1.55471 z"
       id="path2640" />
    <path
       style="opacity:0.930349;fill:#ffffff;stroke-width:0.32559"
       d="m 117.77503,160.30207 c -3.29585,-0.64279 -10.22322,-4.45881 -12.22491,-6.73419 -0.44972,-0.51122 -0.99441,-0.69846 -2.03188,-0.69846 -2.74084,0 -3.921199,-1.30333 -5.209014,-5.7517 -0.366326,-1.26539 -0.974507,-3.18313 -1.351512,-4.26164 -0.392972,-1.1242 -0.708167,-2.88539 -0.738675,-4.12734 -0.04778,-1.94472 0.04116,-2.28069 0.869411,-3.28397 l 0.922616,-1.1176 -0.228538,-4.65871 c -0.256189,-5.22214 -0.119704,-5.78657 1.57354,-6.50751 0.588762,-0.25068 1.998662,-1.25391 3.133122,-2.22942 3.18593,-2.73951 4.23216,-3.4534 5.38376,-3.67356 0.58483,-0.11176 2.10883,-0.67254 3.38667,-1.24611 1.27784,-0.57353 2.75878,-1.03877 3.29097,-1.03382 0.53218,0.006 1.27065,-0.27086 1.64101,-0.61287 0.81666,-0.7542 5.60007,-1.72677 8.37126,-1.70208 2.08527,0.0184 4.85322,1.01738 5.17303,1.86665 0.10968,0.29132 0.6198,0.47691 1.31078,0.47691 2.50818,0 7.37243,3.3867 9.89628,6.89019 1.87162,2.59814 3.31264,5.95058 3.90964,9.09555 0.3067,1.61565 0.92574,3.65492 1.37565,4.53172 0.86746,1.6905 0.87851,3.70271 0.0233,4.24287 -0.28869,0.18232 -0.41461,1.17218 -0.41461,3.25904 0,3.25867 0.0916,3.07527 -2.48007,4.96929 l -0.74533,0.54894 1.29015,0.55974 1.29017,0.55973 -2.58032,2.42563 c -1.41917,1.3341 -3.1324,2.82051 -3.80715,3.30314 l -1.22684,0.8775 -1.44274,-0.71427 c -1.87692,-0.92921 -1.9216,-0.91368 -1.12926,0.39269 0.36926,0.60885 0.67139,1.20045 0.67139,1.31468 0,0.11427 -0.52234,0.20773 -1.16076,0.20773 -0.86547,0 -1.38347,0.24296 -2.03625,0.95503 -0.50795,0.55411 -1.6117,1.18547 -2.62909,1.5039 -2.37787,0.74422 -9.10549,0.95166 -12.07581,0.37232 z m 8.46872,-6.82388 c 6.32062,-2.14419 7.77975,-3.08848 8.54772,-5.53166 0.36883,-1.17337 0.90249,-2.06897 1.53207,-2.57102 0.59438,-0.47403 0.9661,-1.07375 0.9661,-1.55873 0,-0.43351 0.44592,-1.43288 0.99093,-2.22079 1.22841,-1.77588 1.55188,-3.7943 0.84215,-5.25483 -0.28213,-0.58056 -0.59923,-1.61233 -0.70469,-2.29279 -0.28395,-1.83225 -3.46945,-8.08902 -5.04979,-9.91851 -1.4586,-1.68854 -3.38644,-2.79362 -4.89439,-2.80551 -0.50245,-0.003 -1.94445,-0.4683 -3.20444,-1.03184 -1.85799,-0.83097 -2.56911,-0.99019 -3.76326,-0.84252 -1.91425,0.23667 -10.23905,3.62814 -11.2456,4.58138 -2.01197,1.90537 -3.07778,5.07536 -2.34734,6.98151 0.14106,0.36813 0.0652,1.4527 -0.17245,2.46502 -1.31965,5.62168 0.27639,11.10924 4.58465,15.76301 2.42877,2.62358 7.1409,5.84946 8.64213,5.91634 0.15879,0.007 2.53309,-0.74849 5.27621,-1.67906 z"
       id="path2642" />
    <path
       style="opacity:0.930349;fill:#ffffff;stroke-width:0.32559"
       d="m 117.72402,160.12944 c -2.09397,-0.43931 -8.41655,-3.72002 -10.49696,-5.44676 -1.91645,-1.59065 -2.95438,-2.11019 -4.21562,-2.11019 -2.33422,0 -3.348529,-1.51447 -5.253175,-7.84357 -1.616814,-5.37267 -1.731166,-7.48806 -0.494127,-9.14073 0.815479,-1.08947 0.826226,-1.1782 0.72571,-5.99395 -0.09202,-4.41074 -0.0427,-4.95495 0.504962,-5.57236 0.333843,-0.37634 0.885068,-0.77419 1.224946,-0.88411 0.339874,-0.10996 1.881024,-1.24081 3.424764,-2.51312 1.54373,-1.27228 3.24223,-2.50453 3.77441,-2.73831 2.1078,-0.92594 7.27884,-2.78223 7.75036,-2.78223 0.27505,0 1.05125,-0.28653 1.72489,-0.63673 0.67363,-0.35018 2.51842,-0.88439 4.09953,-1.18711 4.22357,-0.80867 6.42585,-0.46487 9.48682,1.48093 0.2661,0.16915 0.99608,0.39003 1.62218,0.49084 1.75417,0.28249 5.04293,2.41832 7.39604,4.80329 2.6422,2.67799 4.45695,6.22188 5.79562,11.31795 0.52234,1.98846 1.17663,4.16525 1.45397,4.83732 0.62515,1.51493 0.64429,2.6875 0.0521,3.18837 -0.30962,0.26184 -0.4876,1.32378 -0.56444,3.36798 l -0.11223,2.98559 -1.59427,1.42934 c -0.87685,0.78615 -1.53,1.48165 -1.45143,1.54556 0.0786,0.064 0.63855,0.31773 1.24442,0.56402 l 1.1016,0.44776 -1.42414,1.28168 c -0.78326,0.7049 -2.42972,2.1411 -3.6588,3.19155 l -2.23468,1.9099 -1.38682,-0.68657 c -1.64765,-0.81572 -2.05857,-0.572 -1.28514,0.76219 0.55001,0.94877 0.54783,0.9759 -0.0786,0.9759 -0.35435,0 -0.73544,0.15029 -0.84687,0.33402 -0.11143,0.18371 -0.32541,0.25669 -0.47554,0.16215 -0.15011,-0.0946 -0.70742,0.20065 -1.23847,0.65597 -1.69574,1.45399 -3.38916,1.85213 -8.44275,1.98498 -2.57224,0.0676 -5.32996,-0.0139 -6.12825,-0.18155 z m 7.50501,-6.10847 c 6.6854,-2.17924 9.17014,-3.73942 9.75828,-6.12728 0.11636,-0.47243 0.70657,-1.44828 1.3116,-2.16855 0.60501,-0.72026 1.10004,-1.47912 1.10004,-1.68635 0,-0.20722 0.50799,-1.35221 1.12888,-2.54447 0.62088,-1.19224 1.12714,-2.62608 1.125,-3.18635 -0.006,-1.53344 -1.69606,-6.36419 -3.42864,-9.79929 -1.72575,-3.42159 -4.56632,-6.66631 -6.12037,-6.99115 -0.51131,-0.10692 -2.2595,-0.63229 -3.88489,-1.16755 -3.76604,-1.24019 -4.88501,-1.22254 -8.55955,0.13488 -8.75263,3.23338 -9.79708,4.38076 -10.15732,11.15843 -0.35125,6.60884 -0.26508,8.44288 0.50732,10.79715 1.50438,4.58542 5.71364,9.26942 10.83875,12.06122 1.70962,0.93128 2.15148,0.89799 6.3809,-0.48069 z"
       id="path3121" />
  </g>
</svg>
