<?xml version="1.0" encoding="UTF-8" standalone="no"?>
<svg
   xmlns:dc="http://purl.org/dc/elements/1.1/"
   xmlns:cc="http://creativecommons.org/ns#"
   xmlns:rdf="http://www.w3.org/1999/02/22-rdf-syntax-ns#"
   xmlns:svg="http://www.w3.org/2000/svg"
   xmlns="http://www.w3.org/2000/svg"
   xmlns:sodipodi="http://sodipodi.sourceforge.net/DTD/sodipodi-0.dtd"
   xmlns:inkscape="http://www.inkscape.org/namespaces/inkscape"
   width="132.29167mm"
   height="132.29167mm"
   viewBox="0 0 132.29167 132.29167"
   version="1.1"
   id="svg16909"
   inkscape:version="1.0 (b51213c273, 2020-08-10)">
  <defs
     id="defs16903" />
  <sodipodi:namedview
     id="base"
     pagecolor="#ffffff"
     bordercolor="#666666"
     borderopacity="1.0"
     inkscape:pageopacity="0.0"
     inkscape:pageshadow="2"
     inkscape:zoom="0.35"
     inkscape:cx="300.80815"
     inkscape:cy="308.46631"
     inkscape:document-units="mm"
     inkscape:current-layer="layer1"
     inkscape:document-rotation="0"
     showgrid="false"
     inkscape:snap-global="false"
     fit-margin-top="0"
     fit-margin-left="0"
     fit-margin-right="0"
     fit-margin-bottom="0"
     showborder="false"
     inkscape:window-width="1318"
     inkscape:window-height="704"
     inkscape:window-x="48"
     inkscape:window-y="27"
     inkscape:window-maximized="1" />
  <metadata
     id="metadata16906">
    <rdf:RDF>
      <cc:Work
         rdf:about="">
        <dc:format>image/svg+xml</dc:format>
        <dc:type
           rdf:resource="http://purl.org/dc/dcmitype/StillImage" />
        <dc:title></dc:title>
      </cc:Work>
    </rdf:RDF>
  </metadata>
  <g
     inkscape:label="Layer 1"
     inkscape:groupmode="layer"
     id="layer1"
     transform="translate(-26.244509,-66.551623)">
    <path
       style="fill:#000000;stroke-width:0.693212"
       d="m 82.883998,198.22275 c -0.235083,-0.38217 0.213435,-0.69487 0.996515,-0.69487 0.804651,0 1.42388,-0.45332 1.42388,-1.04237 0,-0.57326 0.262246,-1.04233 0.582665,-1.04233 0.830025,0 3.252277,-4.71685 2.704769,-5.267 -0.250546,-0.25177 0.02062,-0.93438 0.598997,-1.51714 0.598372,-0.60127 0.895666,-1.69503 0.687383,-2.52891 -0.330624,-1.32326 0.362605,-3.47088 1.035864,-3.20958 0.147792,0.0573 0.829096,-0.11189 1.51432,-0.3762 0.940822,-0.36277 1.144433,-0.94457 0.831568,-2.37598 -0.340261,-1.55713 0.01026,-2.26937 1.958194,-3.98879 2.290411,-2.02081 2.512857,-2.07196 6.429627,-1.47917 3.32957,0.5039 4.4618,1.04806 6.31391,3.03455 1.24125,1.33129 2.53054,2.42052 2.86506,2.42052 0.51197,0 1.46984,1.51977 1.75189,2.77958 0.24882,1.11072 1.62963,2.68477 2.98071,3.39749 0.85576,0.45142 1.55597,1.27883 1.55597,1.83866 0,1.16868 5.16634,1.48022 5.85943,0.35335 0.22478,-0.36551 0.86557,-0.48838 1.42389,-0.27319 0.55833,0.21517 1.01518,0.0453 1.01518,-0.37778 0,-1.3915 2.7325,-3.54884 4.495,-3.54884 0.95086,0 1.72885,-0.31289 1.72885,-0.69489 0,-0.38222 0.43305,-0.69491 0.96234,-0.69491 0.52929,0 1.15759,-0.78176 1.39626,-1.73723 0.23853,-0.95548 0.75753,-1.73724 1.1531,-1.73724 0.39556,0 0.51392,-0.33362 0.26293,-0.74167 -0.2509,-0.40793 0.15878,-0.90332 0.91078,-1.10087 0.75187,-0.19754 1.76137,-1.0997 2.2434,-2.00472 0.48198,-0.90501 1.22076,-1.58224 1.64166,-1.50497 0.43287,0.0795 0.68721,-0.6355 0.58554,-1.64624 -0.15294,-1.52273 0.18663,-1.88208 2.29876,-2.43211 1.36314,-0.35499 2.44917,-0.95808 2.41339,-1.3403 -0.0777,-0.83073 -5.73883,-0.96918 -6.32236,-0.15472 -0.22374,0.31221 -0.75248,0.1492 -1.17501,-0.36221 -0.61096,-0.73973 -0.32274,-0.96425 1.40791,-1.09677 3.06681,-0.23484 3.23065,-0.70975 0.8925,-2.58728 -1.12618,-0.9043 -2.1596,-1.53167 -2.29647,-1.39413 -0.52729,0.52987 -4.99174,-4.18383 -4.99174,-5.27042 0,-1.22996 -1.79333,-2.24684 -2.82857,-1.60392 -0.34603,0.21482 -0.62913,0.0594 -0.62913,-0.34501 0,-0.40473 0.43911,-0.7359 0.97581,-0.7359 0.53671,0 1.76141,-0.93811 2.72155,-2.0847 0.9601,-1.14657 2.23253,-2.08468 2.82764,-2.08468 0.59507,0 1.08195,-0.2863 1.08195,-0.63598 0,-0.96542 3.88319,-4.44275 5.31139,-4.75627 2.37327,-0.52103 7.17489,-0.19513 8.62644,0.58552 1.10082,0.59201 1.57923,0.57392 1.97824,-0.0749 0.28938,-0.47062 0.83965,-0.66106 1.22269,-0.4232 0.84945,0.52753 1.71548,-1.47997 1.08247,-2.50919 -0.26809,-0.43581 -0.12682,-0.53593 0.34369,-0.24381 0.44082,0.27387 0.83792,0.0884 0.88666,-0.41383 0.0485,-0.50027 0.20381,-1.53502 0.34479,-2.29941 0.14092,-0.76439 0.3592,-2.34911 0.48462,-3.52162 0.12544,-1.1725 0.44216,-2.4799 0.70381,-2.90528 0.26156,-0.42541 0.12614,-0.99053 -0.30108,-1.2558 -0.55029,-0.3419 -0.50317,-0.65646 0.16154,-1.0797 0.66488,-0.42334 0.69137,-0.60052 0.0911,-0.60805 -0.59628,-0.007 -0.66928,-0.48115 -0.24643,-1.59864 0.71443,-1.88826 -0.27324,-3.54157 -2.54952,-4.26753 -0.85983,-0.2742 -1.39475,-0.77275 -1.18864,-1.10781 0.43683,-0.71027 -0.97914,-6.99757 -1.77611,-7.8863 -0.9488,-1.05798 -5.91721,-1.66021 -6.99568,-0.84799 -0.55307,0.41657 -1.59774,1.77367 -2.32142,3.01579 -0.72371,1.24213 -1.71198,2.25839 -2.19613,2.25839 -1.45006,0 -3.69516,-2.27516 -4.77592,-4.83989 -0.55805,-1.32428 -1.39154,-2.64847 -1.85223,-2.94268 -0.53499,-0.34157 -0.27564,-0.53873 0.71836,-0.54551 0.8558,-0.007 1.55597,-0.24935 1.55597,-0.54076 0,-0.29148 -0.70017,-0.84313 -1.55597,-1.22568 -2.70883,-1.21095 -0.70774,-6.64295 2.05477,-5.57777 0.48636,0.18753 0.88429,-0.10844 0.88429,-0.65773 0,-0.60228 0.41179,-0.83996 1.0373,-0.59876 0.66254,0.25557 1.0373,-0.0138 1.0373,-0.74114 0,-2.0059 2.11133,-4.464387 4.23673,-4.933485 2.33818,-0.516044 2.30261,-2.158167 -0.0409,-1.890928 -1.38527,0.157829 -1.42802,0.07219 -0.45231,-0.908339 0.97571,-0.980438 0.94777,-1.222741 -0.29558,-2.563889 -1.36229,-1.469345 -1.63329,-2.185795 -1.43309,-3.788613 0.0571,-0.457774 -0.58144,-1.200888 -1.41915,-1.651414 -0.83769,-0.450487 -3.10376,-2.342721 -5.03571,-4.204951 -1.93191,-1.862221 -3.70798,-3.386154 -3.94681,-3.386576 -0.23887,-3.63e-4 -1.63918,-0.519491 -3.11191,-1.153579 -2.61273,-1.124871 -7.86382,-1.305525 -8.5554,-0.294248 -0.1904,0.278367 -0.92874,0.722745 -1.64072,0.987391 -1.01267,0.376444 -1.2049,0.93141 -0.88295,2.54898 0.28492,1.431249 0.15122,2.016219 -0.43433,1.900278 -0.46825,-0.09252 -0.94564,0.706815 -1.06931,1.790907 -0.29523,2.587971 -5.68473,6.200477 -8.35986,5.603456 -2.54985,-0.56909 -5.39391,-3.884077 -6.31526,-7.36097 -0.43439,-1.639285 -1.223783,-3.469871 -1.754177,-4.067973 -0.530394,-0.598092 -1.309859,-2.083466 -1.732163,-3.300756 -0.422323,-1.21729 -1.048599,-2.213285 -1.391743,-2.213285 -0.343018,0 -0.623872,-0.331196 -0.623872,-0.735925 0,-0.404729 0.246773,-0.582732 0.548084,-0.395507 0.954301,0.592631 0.829604,-3.330456 -0.147098,-4.626121 -1.326933,-1.760441 -3.69317,-2.027376 -5.781797,-0.652217 -2.563652,1.68792 -13.2809,1.701424 -15.132519,0.02072 -1.037438,-0.942567 -1.834397,-1.05732 -3.974543,-0.572301 -3.396286,0.76971 -4.844553,2.178124 -4.232458,4.116018 0.256733,0.812532 0.773101,1.287022 1.147698,1.054423 1.253178,-0.778305 4.040292,0.34087 3.615965,1.452168 -0.477937,1.251596 -1.701353,1.391462 -1.457571,0.166816 0.0952,-0.477771 -0.293854,-0.747289 -0.864429,-0.598957 -0.570487,0.148156 -2.074123,0.214813 -3.341356,0.148156 -1.439324,-0.07602 -2.137742,0.148853 -1.860934,0.598966 0.243685,0.396263 1.348592,0.720486 2.455249,0.720486 1.537415,0 1.914583,0.255228 1.598796,1.082256 -0.227176,0.595263 -0.809265,0.929612 -1.293223,0.742977 -1.079192,-0.416122 -1.946885,2.461049 -0.93223,3.091188 0.443982,0.275597 0.300393,0.6125 -0.371773,0.871666 -0.602428,0.232423 -1.095319,0.763317 -1.095319,1.180057 0,0.416751 0.311047,0.564464 0.691547,0.328093 0.380364,-0.236223 0.691547,-0.09843 0.691547,0.306338 0,0.404759 0.544586,0.745433 1.210222,0.757032 1.136145,0.02072 1.13766,0.06354 0.02404,0.715447 -0.942689,0.552168 -1.048854,1.054943 -0.518675,2.456246 0.853267,2.255144 0.869316,8.620424 0.02062,8.620424 -0.354726,0 -0.843913,0.629952 -1.087109,1.399889 -0.243332,0.769917 -0.69316,1.243994 -0.999906,1.053489 -0.306922,-0.190633 -1.524396,0.138147 -2.705775,0.730376 -1.973969,0.989523 -2.31811,0.975812 -4.246923,-0.169232 -1.197115,-0.710576 -1.94788,-1.641357 -1.747377,-2.166339 0.193504,-0.506272 0.06734,-0.744018 -0.280114,-0.528301 -0.895352,0.556027 -4.661583,-3.087014 -5.501606,-5.32168 -1.054972,-2.806437 -3.853434,-4.424803 -5.973133,-3.454304 -0.930794,0.426149 -2.154895,0.596442 -2.72027,0.378417 -1.872515,-0.722018 -5.566926,2.292131 -7.10351,5.795571 -0.801905,1.828376 -1.630043,3.87624 -1.840312,4.550801 -0.210334,0.674591 -1.165876,1.525878 -2.123548,1.891743 -1.519128,0.580346 -1.725007,1.044445 -1.613819,3.637765 0.07008,1.6349 -0.09588,3.63484 -0.368683,4.44428 -0.617099,1.83045 0.562109,5.12976 1.833439,5.12976 0.520042,0 1.534835,1.0996 2.255078,2.4435 0.738472,1.37793 1.69071,2.29655 2.183533,2.10649 0.505704,-0.19511 0.873938,0.19237 0.873938,0.91977 0,0.85411 0.903721,1.55643 2.820668,2.19218 1.728272,0.57313 3.845556,2.1054 5.467008,3.95639 1.45548,1.66153 2.75354,2.69859 2.88456,2.30457 0.130942,-0.39403 0.268765,0.72035 0.306228,2.47641 0.04017,1.89852 0.460862,3.45759 1.037301,3.84598 0.641475,0.43218 0.100017,0.50221 -1.600652,0.20686 -1.887529,-0.32774 -2.864827,-0.14989 -3.679995,0.66911 -1.488848,1.4961 -2.190883,1.40565 -3.156081,-0.40656 L 38.78,131.24989 l -1.2873,1.59746 c -0.955102,1.18518 -1.722876,1.48761 -2.97492,1.17186 -0.928146,-0.23417 -1.881107,-0.11087 -2.117676,0.27386 -0.285957,0.46469 -0.896106,0.44876 -1.81872,-0.0473 -1.143544,-0.61494 -1.673626,-0.43771 -3.003587,1.00428 -1.77332,1.92273 -1.772909,1.71829 -0.02746,12.45995 1.281669,7.88058 1.997759,10.08832 3.454303,10.64994 0.576235,0.22206 1.047682,1.16332 1.047682,2.09137 0,1.44239 0.190748,1.58476 1.313972,0.98072 1.012045,-0.54425 1.411722,-0.45059 1.739512,0.4077 0.312415,0.81825 0.968081,1.00531 2.46731,0.70403 1.487548,-0.2991 2.216686,-0.0964 2.686178,0.74674 0.596993,1.07195 0.941887,1.05894 4.690085,-0.17719 2.22514,-0.73382 4.787864,-1.88974 5.694946,-2.56868 2.189436,-1.63881 2.660229,-1.57184 4.815837,0.68533 1.008397,1.05588 2.576062,2.3994 3.483692,2.98561 1.320023,0.85257 1.650275,1.66524 1.650275,4.06101 0,3.17169 -0.84102,4.20773 -3.430446,4.22597 -0.980344,0.007 -1.508913,0.43871 -1.501385,1.22669 0.0068,0.66883 -0.359956,2.53685 -0.814045,4.15117 -1.2959,4.60691 -0.330635,6.67183 5.252408,11.23536 1.118552,0.91431 2.557045,2.11611 3.196692,2.67062 0.639618,0.55455 2.245216,1.10933 3.568034,1.23286 1.322779,0.12365 3.007937,0.54882 3.744748,0.94509 0.871954,0.46889 1.575562,0.48343 2.015225,0.0417 0.439642,-0.44178 1.117682,-0.18787 1.941969,0.7274 0.69657,0.77343 1.818377,1.40624 2.492986,1.40624 0.674569,0 1.659736,0.43533 2.189231,0.96739 0.529494,0.53207 1.563081,1.12119 2.29691,1.30917 0.73378,0.18787 1.430322,0.37806 1.547864,0.42241 0.117541,0.0442 0.02062,-0.23208 -0.213786,-0.61433 z m -8.118644,-8.73696 c -0.258453,-0.2597 -1.467952,-0.58907 -2.687615,-0.73178 -2.42449,-0.28354 -3.024543,-0.65497 -3.024543,-1.87155 0,-0.44067 -0.622406,-0.91552 -1.383094,-1.05525 -0.760698,-0.13987 -2.394455,-1.01985 -3.630578,-1.95581 -1.875574,-1.4202 -2.247522,-2.15955 -2.247522,-4.46787 0,-1.81763 0.355645,-2.90314 1.0373,-3.166 0.570536,-0.22 1.03734,-0.76432 1.03734,-1.20966 0,-0.44531 0.943403,-1.95976 2.096467,-3.36537 1.6332,-1.99098 2.004151,-2.98571 1.678707,-4.50144 -1.018642,-4.74412 -2.6139,-7.11262 -6.783707,-10.07174 -5.352168,-3.79818 -6.685669,-4.16232 -10.774734,-2.9421 -1.831651,0.54657 -5.288535,1.07159 -7.681944,1.16671 -4.177325,0.16611 -4.400904,0.0895 -5.580806,-1.91179 -1.70848,-2.89758 -2.187961,-6.29538 -1.143301,-8.10135 1.346873,-2.32832 3.187799,-4.05934 4.317151,-4.05934 1.097235,0 6.130601,-1.75965 8.16771,-2.85544 0.681108,-0.36637 1.511533,-0.49642 1.845471,-0.28908 0.334064,0.20723 0.824864,-0.64199 1.090989,-1.88743 0.266018,-1.24547 0.811151,-2.88988 1.21111,-3.65426 0.638036,-1.21927 0.673642,-2.88198 0.230958,-10.77089 -0.104824,-1.86906 -1.723245,-4.47295 -2.850496,-4.58647 -2.554503,-0.25729 -9.046683,-2.79245 -10.673735,-4.16816 -2.258655,-1.90975 -4.474354,-6.10157 -4.554159,-8.61593 -0.05043,-1.58891 1.41224,-5.422833 2.386656,-6.255882 0.223403,-0.190986 1.263694,-1.676458 2.311513,-3.300756 1.646092,-2.551838 2.235695,-2.953325 4.337353,-2.953325 1.683653,0 2.57107,0.374302 2.883182,1.216092 0.651102,1.756021 3.820407,5.017266 4.478576,4.608501 0.307606,-0.190987 0.559472,0.113623 0.559472,0.676869 0,0.563354 1.455508,2.311711 3.234506,3.885251 3.611701,3.19459 4.634703,3.27702 9.904745,0.79823 4.877393,-2.29406 7.201495,-3.875919 7.979757,-5.43129 0.395181,-0.789844 1.133467,-1.938444 1.640618,-2.552496 0.507161,-0.614061 0.615975,-1.116454 0.241622,-1.116454 -0.374176,0 -0.532593,-0.776546 -0.352048,-1.725664 0.180447,-0.949088 0.08797,-2.278066 -0.205527,-2.953286 -0.293854,-0.675219 -0.47131,-1.502149 -0.394741,-1.837637 0.07663,-0.335341 -0.496078,-0.442993 -1.27259,-0.238983 -0.776541,0.204107 -1.586148,0.0877 -1.799132,-0.258676 -0.213092,-0.346331 0.09002,-0.629667 0.673563,-0.629667 0.79995,0 0.962931,-0.491973 0.662684,-2.000437 -0.233715,-1.173919 -0.06979,-2.204338 0.396657,-2.49399 0.587748,-0.365021 0.560869,-0.783735 -0.103105,-1.607453 -0.673163,-0.834984 -0.681549,-0.983208 -0.0344,-0.592013 0.475435,0.28699 0.903329,0.190633 0.95086,-0.214126 0.0474,-0.404758 0.125449,-1.032982 0.172882,-1.396058 0.223746,-1.710195 1.988239,-2.35436 5.997802,-2.18994 4.425416,0.181322 11.019606,-1.116169 11.885227,-2.338881 0.287667,-0.406153 0.512654,-0.129514 0.518665,0.637397 0.0068,1.053932 0.194883,1.169735 0.840434,0.521191 1.216858,-1.222761 2.62944,-1.016512 2.617272,0.382169 -0.01036,1.019949 -0.114453,1.051211 -0.653947,0.193746 -0.353827,-0.562214 -0.830679,-0.833972 -1.059644,-0.603896 -0.228897,0.230007 0.08767,0.924603 0.703334,1.543389 1.008986,1.01387 1.011664,1.125077 0.02747,1.125077 -0.829301,0 -0.934567,0.292864 -0.436935,1.216053 0.911813,1.691269 1.670282,5.111346 1.507507,6.797636 -0.07526,0.780838 0.662616,2.110268 1.650656,2.973528 0.982879,0.858711 1.600281,1.864921 1.37203,2.236011 -0.228213,0.371062 0.183887,0.674699 0.915713,0.674699 0.731855,0 2.07278,0.567292 2.97986,1.260642 2.51869,1.925283 6.49174,3.603598 8.53062,3.603598 2.02924,0 5.91214,-1.784032 5.91214,-2.716365 0,-0.327759 0.65371,-0.767776 1.45264,-0.977718 0.79895,-0.20998 1.26067,-0.69387 1.02603,-1.075391 -0.23475,-0.38152 -0.11032,-0.890061 0.27633,-1.130125 0.38654,-0.240024 0.70283,-1.043403 0.70283,-1.78524 0,-0.741838 0.23749,-1.348779 0.52757,-1.348779 0.29006,0 0.83472,-0.687712 1.21017,-1.528225 0.46846,-1.048716 1.43462,-1.611274 3.07919,-1.79294 1.3181,-0.145739 2.95649,-0.565839 3.64085,-0.933895 0.91368,-0.491343 1.34866,-0.395879 1.63705,0.359286 0.23681,0.620229 0.85037,0.856296 1.5457,0.594743 0.9098,-0.342255 0.99709,-0.223103 0.41398,0.565053 -0.40645,0.549289 -0.79249,1.865117 -0.8579,2.924067 -0.0962,1.558789 0.32892,2.13992 2.23291,3.052266 2.01052,0.963388 2.32648,1.440294 2.17742,3.286388 -0.26844,3.323935 -1.40438,5.488064 -3.87361,7.379616 -6.59972,5.05567 -7.85565,8.02378 -4.59915,10.869 1.34956,1.17914 3.36621,5.36253 4.84531,10.05122 0.40817,1.29383 3.54733,2.1054 4.48792,1.16021 0.34826,-0.34995 1.99806,-0.53803 3.66622,-0.41796 2.46597,0.17751 3.01269,0.45982 2.92435,1.51019 -0.097,1.15349 0.29387,1.25357 3.64619,0.93394 4.11061,-0.39192 6.28988,0.7763 5.41315,2.90176 -0.25571,0.61953 -0.56476,2.34645 -0.68708,3.83755 -0.12236,1.4911 -0.59947,2.94528 -1.06034,3.23147 -0.46085,0.28631 -0.86978,1.41149 -0.90865,2.50063 l -0.0708,1.98023 -7.36251,0.19651 -7.36252,0.19651 -2.20027,2.7125 c -1.21014,1.49186 -2.19809,2.96697 -2.19544,3.27796 0.003,0.31117 -0.44049,1.05992 -0.98472,1.66422 -1.11605,1.2392 0.88233,2.72319 -0.21436,2.72319 -1.27535,0 -2.14778,0.43825 -2.42081,1.21608 -0.23475,0.66882 -0.59786,1.57568 -0.80679,2.01519 -0.21103,0.44413 0.48031,1.10425 1.55642,1.48594 l -0.82985,1.93233 c -1.96601,0.88527 -2.41366,1.32492 -1.54752,1.51998 0.67027,0.15091 1.0493,0.54978 0.84229,0.88636 -0.2069,0.33639 -0.83321,0.43581 -1.39155,0.22069 -0.55833,-0.21515 -1.01516,-0.0356 -1.01516,0.39962 0,0.43505 0.4668,0.97102 1.0373,1.19101 0.57053,0.21999 1.03734,0.95848 1.03734,1.64109 0,0.6826 0.44271,1.41183 0.98385,1.62046 0.72802,0.28079 0.90433,-0.0611 0.67801,-1.31544 -0.16807,-0.93213 -0.007,-1.69482 0.35951,-1.69482 0.36596,0 0.55537,0.57389 0.42094,1.27531 -0.34695,1.81035 0.38581,2.70881 2.6814,3.28778 1.27559,0.32153 1.84334,0.25246 1.57025,-0.19167 -0.25056,-0.4075 0.39435,-0.66523 1.55772,-0.62252 2.1275,0.0781 2.20184,1.11525 0.08,1.11525 -1.42835,0 -2.41892,1.80945 -1.35299,2.47144 0.38195,0.23725 0.60955,0.95076 0.50576,1.58574 -0.1038,0.63499 0.0625,1.5571 0.36946,2.04917 0.62409,1.0002 -3.02506,5.64048 -5.60641,7.12909 -0.85576,0.49352 -1.55597,1.52201 -1.55597,2.28549 0,0.7635 -0.20484,1.18242 -0.45501,0.93096 -0.25022,-0.25143 -0.8281,-0.14608 -1.28408,0.23415 -1.07439,0.89598 -4.44823,0.20066 -6.21361,-1.28032 -0.7607,-0.63819 -2.09828,-2.56751 -2.97242,-4.28741 -0.87416,-1.71987 -2.73863,-4.37743 -4.14335,-5.90576 -2.27842,-2.47892 -2.89033,-2.77286 -5.67182,-2.72451 -7.44771,0.12952 -15.219848,1.69944 -15.219848,3.07437 0,0.29114 -0.653692,0.70132 -1.452655,0.91126 -0.798953,0.20999 -1.25918,0.69625 -1.022757,1.08068 0.236461,0.38446 0.0171,0.95271 -0.489695,1.26285 -0.861849,0.52847 -2.833873,4.58311 -2.978039,6.12305 -0.23784,2.5393 -2.897794,6.60151 -4.322926,6.60151 -0.375819,0 -0.787058,0.28941 -0.913846,0.6435 -0.300051,0.83788 -3.590768,1.6549 -4.199901,1.04283 z m 27.348166,-37.07493 c 1.02438,-0.39138 1.86252,-1.06545 1.86252,-1.49801 0,-0.43253 0.43635,-0.61817 0.9697,-0.41255 1.40965,0.54358 1.92049,-0.27904 0.926,-1.49109 -0.74835,-0.91217 -0.65864,-0.93938 0.69957,-0.21205 1.68554,0.9025 1.51889,0.98455 5.97433,-2.94237 2.67143,-2.35454 2.67916,-2.37612 1.0373,-2.8915 -1.83718,-0.57668 0.091,-0.87031 1.0516,-1.67141 0.80988,-0.67539 1.03615,-1.69362 0.80483,-3.62198 -0.177,-1.47532 -0.0275,-2.68242 0.33132,-2.68242 0.81998,0 0.86532,-3.26066 0.0523,-3.76551 -0.33028,-0.20514 -0.84452,-1.70899 -1.1425,-3.34178 -0.29799,-1.63281 -0.59834,-3.12505 -0.66743,-3.31617 -1.64681,-4.55497 -4.98693,-8.54354 -8.78514,-10.49063 -1.47533,-0.75633 -2.98299,-1.18851 -3.3503,-0.96041 -0.36729,0.22829 -0.66778,0.10776 -0.66778,-0.26731 0,-1.05511 -4.631385,-2.34092 -6.38591,-1.77294 -0.86178,0.27905 -2.490132,0.58328 -3.618594,0.67625 -1.128473,0.0929 -2.159939,0.49518 -2.29219,0.89383 -0.13232,0.39861 -0.6123,0.58138 -1.066838,0.40614 -0.454528,-0.17509 -2.036415,0.30116 -3.515303,1.05885 -1.478908,0.75766 -2.910696,1.23981 -3.181787,1.07145 -0.271169,-0.16819 -1.858793,0.93185 -3.528293,2.44484 -1.669491,1.51299 -3.391164,2.75533 -3.825891,2.76072 -1.280682,0.0173 -1.658807,1.95098 -1.180499,6.04064 0.331328,2.83165 0.208283,3.98423 -0.47045,4.40566 -0.50547,0.31394 -0.968248,1.24231 -1.028426,2.06313 -0.09315,1.2693 0.298907,4.42218 1.159416,5.92734 0.214803,0.37547 0.610013,1.62077 0.878562,2.76737 0.795298,3.39605 2.257884,5.17279 3.983232,4.83892 0.842594,-0.163 1.70241,-0.066 1.910703,0.21586 1.039187,1.40586 6.09515,4.66407 8.932649,5.75648 3.454979,1.33016 10.665271,1.33562 14.133249,0.0104 z m -12.841797,-6.27167 c -6.092219,-3.88231 -9.302662,-10.80763 -7.597868,-16.38939 0.442741,-1.44959 0.458526,-2.53609 0.04291,-2.95378 -1.194447,-1.20023 1.620347,-5.95126 3.933472,-6.63925 1.141022,-0.3395 3.163822,-1.11269 4.495016,-1.71849 3.247722,-1.47794 4.889015,-1.57833 6.718193,-0.41094 0.842417,0.53762 2.334707,0.97751 3.316254,0.97751 0.98173,0 2.56273,0.7819 3.51418,1.73792 1.88283,1.89196 5.10541,8.3217 5.11623,10.20802 0.003,0.64627 0.30624,1.361 0.67223,1.58831 0.7233,0.44918 -0.48709,3.83586 -1.66868,4.66898 -0.37709,0.26592 -0.46603,0.70399 -0.19761,0.9736 0.26842,0.26974 -0.0519,0.88686 -0.71155,1.37158 -0.65973,0.48471 -1.24133,1.14103 -1.2925,1.45849 -0.45746,2.83829 -1.32136,3.55943 -6.373676,5.3205 -2.932043,1.02199 -5.649752,1.85822 -6.039294,1.85822 -0.389541,0 -2.156781,-0.92309 -3.927149,-2.05128 z"
       id="path3147"
       sodipodi:nodetypes="csssscsssscsssssssssssssssssscssscsssssssssssssssssssscscssssssssscsssssssssssssssssscssssssscsscsssssscsssssssssccssssssssssssssscssssssscsscscsscsscsssssssssssscssssssssssscccsssssssssssssssscsssssssssssssssssscssssssscscsscccssssssssssssssssssssssssssssssssssssscccscsssssssssssssssscssssscssssssssssscssscccssssssssssscsssssssscscsssssscsccsssssssscsssssssss" />
    <path
       style="opacity:0.930349;fill:#000000;stroke-width:0.572821"
       d="m 72.003838,188.47205 c -1.469212,-0.33062 -2.428605,-0.87037 -2.428605,-1.36633 0,-0.45091 -0.964299,-1.22458 -2.142883,-1.7193 -3.436163,-1.44234 -5.285788,-3.56986 -5.285788,-6.07998 0,-1.18551 0.26162,-2.318 0.581384,-2.51658 0.319775,-0.19858 1.605501,-1.94477 2.857184,-3.88042 2.658928,-4.11184 2.81928,-5.84148 0.917247,-9.8944 -1.494458,-3.18444 -2.604292,-4.32215 -7.205375,-7.38638 -3.586845,-2.38879 -5.102268,-2.54109 -12.293511,-1.23547 -6.358793,1.15447 -7.54804,1.0894 -9.129252,-0.49946 -3.041082,-3.05585 -3.046487,-7.82595 -0.01212,-10.6904 1.231304,-1.16237 10.174148,-4.59214 11.973593,-4.59214 1.445814,0 3.16786,-6.64639 3.16786,-12.22664 0,-7.09493 -0.804611,-8.67283 -5.053277,-9.9098 -5.439757,-1.58379 -8.968118,-3.54353 -10.556455,-5.86329 -3.466337,-5.06262 -3.352432,-7.25602 0.700773,-13.495029 3.968659,-6.108883 5.509495,-6.470526 9.139164,-2.145096 1.325066,1.57907 2.779617,2.871052 3.232347,2.871052 0.45273,0 0.823144,0.333789 0.823144,0.741769 0,1.13705 4.64222,5.458864 6.600362,6.144794 2.084483,0.73017 4.935001,-0.14223 10.281319,-3.14654 4.705763,-2.64438 6.525303,-5.36875 6.16914,-9.236956 -0.419733,-4.558471 -0.707,-5.413038 -1.81959,-5.413038 -0.8315,0 -0.988304,-0.364029 -0.80384,-1.866159 0.126045,-1.026412 0.384762,-2.253769 0.574915,-2.727512 0.190172,-0.473724 0.399413,-1.248896 0.465025,-1.72262 0.06558,-0.473724 0.393578,-1.558003 0.728864,-2.409496 0.685605,-1.741201 1.55496,-1.972131 8.957212,-2.379414 2.519884,-0.138628 5.541358,-0.655046 6.71438,-1.147529 1.929038,-0.809919 2.132776,-0.810096 2.132776,-0.0029 0,0.50472 0.32863,0.766735 0.755313,0.602217 0.415413,-0.160177 1.04902,0.181332 1.407988,0.758937 0.457676,0.736406 0.469023,1.111671 0.03792,1.256074 -0.41297,0.138324 -0.312405,1.100809 0.306316,2.932072 0.506604,1.49937 0.921079,3.472464 0.921079,4.384643 0,0.931331 0.626384,2.406511 1.428601,3.364527 0.785729,0.938294 1.428592,1.959118 1.428592,2.268451 0,1.064264 10.44428,5.888983 12.73283,5.881892 2.34116,-0.0069 6.12458,-1.355232 6.12458,-2.182073 0,-0.281245 0.5938,-0.783215 1.31958,-1.115512 0.79702,-0.364893 1.5855,-1.481524 1.99109,-2.819666 1.11211,-3.669126 2.9979,-5.514424 6.429,-6.290932 4.04283,-0.914929 5.225,-0.246526 4.7577,2.690015 -0.34545,2.170847 -0.27869,2.280797 2.78858,4.5915 2.96505,2.233704 1.57758,5.883109 -4.42091,11.628189 -4.91649,4.70877 -5.25782,5.89554 -2.64562,9.1985 0.90634,1.14602 2.36781,3.83008 3.24773,5.9646 2.44564,5.93267 2.49625,5.96851 7.80092,5.52397 4.28677,-0.35922 4.52507,-0.317 4.83027,0.85574 0.28849,1.10855 0.71269,1.23359 4.18447,1.23359 4.93457,0 5.33941,0.44133 4.52786,4.93583 -0.33667,1.86461 -0.97814,3.96248 -1.42546,4.66197 -0.44734,0.69945 -0.81333,1.88908 -0.81333,2.64357 0,1.35469 -0.091,1.37657 -7.28582,1.75181 l -7.28581,0.37998 -1.91003,2.14431 c -2.31496,2.59892 -4.27457,6.2879 -3.88376,7.31127 0.15779,0.41319 -0.20249,0.87743 -0.80352,1.03537 -1.59621,0.41944 -2.66772,3.05836 -1.80527,4.44605 0.56367,0.90698 0.46417,1.28785 -0.59563,2.27999 -1.08129,1.01227 -1.14478,1.27218 -0.42285,1.73085 0.67733,0.43033 0.58892,0.5415 -0.43623,0.54851 -1.46807,0.0101 -1.69799,1.24698 -0.42858,2.3056 0.47144,0.39317 0.85716,1.0617 0.85716,1.48563 0,0.42396 0.51429,1.04738 1.14287,1.38544 0.62858,0.33803 1.14287,0.46167 1.14287,0.27474 0,-0.18694 0.57151,0.0624 1.27003,0.55403 0.6985,0.49162 1.79138,0.89386 2.4286,0.89386 0.87866,0 1.16287,0.38152 1.17629,1.57907 0.01,0.86849 0.21566,2.55557 0.4576,3.74913 0.42554,2.09918 0.32697,2.28351 -3.01774,5.64446 -1.9017,1.91094 -3.45765,3.70304 -3.45765,3.98249 0,0.79808 -2.05231,1.69889 -3.81963,1.67655 -2.66697,-0.0337 -3.97591,-1.18856 -7.58276,-6.69007 -5.03743,-7.68352 -5.33303,-7.86166 -12.31223,-7.41925 -3.142905,0.19921 -6.871526,0.63079 -8.285838,0.95907 -2.605699,0.60481 -6.857246,3.13541 -6.857246,4.08155 0,0.28397 -0.449993,1.18879 -1.000004,2.01074 -0.55002,0.82193 -1.642895,3.32069 -2.428605,5.55282 -1.172338,3.33037 -1.872212,4.39774 -3.901629,5.95007 -2.597391,1.98684 -3.762418,2.16581 -7.955693,1.22221 z m 31.241292,-36.52993 c 0.9421,-0.6999 2.10904,-1.27255 2.59321,-1.27255 0.48417,0 0.88029,-0.2584 0.88029,-0.57421 0,-0.31583 0.49635,-0.5742 1.10301,-0.5742 0.60666,0 2.47098,-1.2712 4.14292,-2.82488 2.30967,-2.14629 2.88204,-2.98768 2.38274,-3.50267 -0.49692,-0.51257 -0.41359,-0.92254 0.34191,-1.68172 1.44786,-1.45486 2.00979,-8.75123 0.90885,-11.80094 -0.45603,-1.26324 -0.84609,-2.81363 -0.86679,-3.44523 -0.12356,-3.77079 -5.6717,-10.86014 -9.86465,-12.60497 -1.33857,-0.55703 -3.07664,-1.33738 -3.86236,-1.73413 -0.78573,-0.39675 -2.164823,-0.89793 -3.064654,-1.11375 -1.624384,-0.38957 -7.030813,0.41312 -9.221236,1.36908 -0.628583,0.27433 -2.894246,1.10065 -5.034812,1.83628 -2.140567,0.73563 -4.983764,2.2419 -6.318213,3.34725 -1.334449,1.10535 -3.035665,2.41623 -3.780481,2.91307 -1.256091,0.83789 -1.346021,1.23768 -1.241205,5.51812 0.0865,3.53336 -0.0907,4.78465 -0.75628,5.3397 -1.224736,1.02138 -1.0849,3.18717 0.537392,8.32344 1.77114,5.60753 2.784876,7.19029 4.605277,7.19029 0.777753,0 2.636135,0.87247 4.129743,1.93885 5.99963,4.28343 8.124656,4.95381 15.122657,4.77082 4.695372,-0.12276 5.813472,-0.34101 7.262682,-1.41765 z"
       id="path3149" />
    <path
       style="opacity:0.930349;fill:#000000;stroke-width:0.572821"
       d="m 90.115978,146.15055 c -3.490761,-2.26442 -5.977745,-5.03244 -7.37251,-8.20566 -1.001958,-2.27952 -1.13678,-3.49505 -0.910024,-8.20406 0.354727,-7.36668 0.949863,-8.19168 7.664185,-10.62451 4.713141,-1.70773 5.21697,-1.78364 6.729158,-1.01381 0.899009,0.45767 2.55383,0.99905 3.677367,1.20312 1.123536,0.20404 2.716816,1.07835 3.540626,1.94289 1.81598,1.90582 4.97091,8.01153 4.98092,9.63956 0.004,0.64743 0.29945,1.47077 0.65659,1.82963 0.48482,0.48718 0.34005,1.17922 -0.57145,2.73159 -0.67142,1.14352 -1.22078,2.46004 -1.22078,2.92563 0,0.46558 -0.37327,0.99044 -0.82951,1.16637 -0.45623,0.17592 -1.11128,1.17774 -1.45566,2.22629 -0.6719,2.04573 -2.09311,2.93894 -7.834837,4.92396 -4.081597,1.41107 -4.039853,1.41427 -7.054075,-0.541 z"
       id="path3151" />
    <path
       style="opacity:0.930349;fill:#ffffff;stroke-width:0.572821"
       d="m 88.331888,152.10934 c -2.357099,-0.87086 -8.139864,-4.45663 -8.727201,-5.41159 -0.210365,-0.34201 -1.098886,-0.62186 -1.974497,-0.62186 -2.218552,0 -3.139817,-1.28639 -4.853095,-6.77657 -1.736374,-5.56424 -1.791391,-6.31299 -0.590415,-8.03596 0.594716,-0.85318 0.867879,-2.39634 0.810359,-4.57788 -0.140188,-5.31605 -0.06646,-5.65685 1.365071,-6.31229 0.747043,-0.34202 2.225629,-1.38464 3.285762,-2.31693 1.863777,-1.63903 8.571052,-4.71025 10.286744,-4.71025 0.462494,0 1.085183,-0.22197 1.383758,-0.49326 0.298575,-0.27131 2.002314,-0.77557 3.786072,-1.12061 3.15653,-0.61056 5.254991,-0.36083 7.653184,0.91072 0.60708,0.32189 2.21268,1.04588 3.56801,1.60889 2.87594,1.19461 6.60389,4.74603 8.12316,7.73851 1.83523,3.61482 3.01091,9.18421 2.90254,13.7499 -0.0905,3.81168 -0.26403,4.44098 -1.51029,5.47653 -1.62634,1.35136 -1.78754,1.98817 -0.50328,1.98817 1.31933,0 0.85524,0.70183 -2.22527,3.36523 -3.08762,2.66956 -2.91075,2.60023 -4.48038,1.75612 -1.43588,-0.7722 -2.03185,-0.27324 -1.06783,0.89396 0.59838,0.72448 0.55909,0.87519 -0.22818,0.87519 -0.52306,0 -1.47237,0.48807 -2.10957,1.08459 -0.63721,0.59653 -1.94434,1.24251 -2.90473,1.43553 -2.970392,0.59695 -9.782531,0.30939 -11.989922,-0.50614 z m 9.788731,-5.12472 c 6.447951,-2.19208 6.278551,-2.02281 10.623431,-10.61457 1.2681,-2.50762 1.44347,-3.30429 0.91462,-4.15522 -0.35986,-0.57901 -0.65429,-1.38657 -0.65429,-1.79452 0,-0.40797 -0.86954,-2.56497 -1.9323,-4.79335 -1.99952,-4.19253 -4.03811,-6.32507 -6.58925,-6.89295 -0.813232,-0.18103 -2.570816,-0.72704 -3.905744,-1.2134 -2.333807,-0.85025 -2.597499,-0.82291 -6.857246,0.71085 -7.523098,2.70875 -8.544858,4.26818 -8.462151,12.91502 0.06294,6.58411 0.527384,7.99957 3.885522,11.84283 2.049629,2.34571 6.503321,5.35581 7.949056,5.37252 0.519897,0.006 2.782657,-0.61376 5.028352,-1.37721 z"
       id="path3153" />
    <path
       style="opacity:0.930349;fill:#ffffff;stroke-width:0.572821"
       d="m 87.337827,151.2166 c -1.387873,-0.63273 -3.726372,-2.01884 -5.196669,-3.08025 -1.470288,-1.06144 -3.465887,-2.10481 -4.434672,-2.31862 -2.110932,-0.46588 -2.978127,-1.70727 -4.610808,-6.60027 -1.318606,-3.95178 -1.595786,-7.20475 -0.663261,-7.78389 0.314291,-0.19517 0.571434,-1.8577 0.571434,-3.69447 0,-5.6449 0.347816,-6.42094 3.915186,-8.73546 4.307317,-2.7946 6.409765,-3.82147 11.120815,-5.43158 7.077776,-2.41898 8.698807,-2.39825 14.173418,0.18133 6.25803,2.94867 9.54585,6.47116 11.25073,12.05365 2.14207,7.01406 2.07942,13.80348 -0.14244,15.436 -1.05511,0.77526 -1.17496,1.96182 -0.19815,1.96182 0.37973,0 -0.45599,1.17752 -1.85717,2.61669 -2.28702,2.34906 -2.74251,2.58038 -4.4534,2.26164 -1.61582,-0.30102 -1.87617,-0.20038 -1.71099,0.66149 0.13575,0.70829 -0.55177,1.41541 -2.26734,2.33201 -3.367467,1.7992 -11.692109,1.87435 -15.496683,0.13991 z m 11.736087,-4.24303 c 4.635926,-1.69092 6.325736,-3.33365 9.081546,-8.8287 1.63652,-3.26318 2.02855,-4.61173 1.75953,-6.05266 -0.52033,-2.78705 -3.96773,-9.63748 -5.73385,-11.39393 -2.0051,-1.99409 -8.32374,-4.13519 -11.095499,-3.75972 -3.311399,0.44854 -9.568554,3.56389 -10.727306,5.34095 -1.272013,1.95074 -1.804606,11.37176 -0.845233,14.95121 0.888512,3.31506 3.529593,6.73153 7.040303,9.10724 3.607902,2.44148 5.290685,2.54314 10.520509,0.63561 z"
       id="path3155" />
    <path
       style="opacity:0.930349;fill:#ffffff;stroke-width:0.572821"
       d="m 79.575375,197.09122 c -1.257156,-0.66622 -2.735752,-1.43548 -3.285762,-1.70944 -0.55,-0.274 -1.450016,-0.73142 -2.000026,-1.01651 -0.55001,-0.28509 -2.800035,-0.83087 -5.000066,-1.21284 -2.200032,-0.38193 -4.642926,-1.09542 -5.428655,-1.58551 -2.941914,-1.83498 -7.269629,-5.90967 -8.281073,-7.79694 -0.957537,-1.78667 -0.983604,-2.32801 -0.304205,-6.31904 0.736241,-4.32504 0.761001,-4.36836 2.705399,-4.73488 2.149851,-0.40528 3.022696,-1.8387 3.022696,-4.96405 0,-1.45951 -0.662128,-2.40952 -3.571485,-5.12426 -1.964308,-1.83293 -4.006773,-3.33539 -4.53882,-3.33882 -0.532045,-0.003 -1.857169,0.52132 -2.944728,1.16611 -1.087558,0.64478 -3.446504,1.6912 -5.242099,2.32536 -2.956995,1.04433 -3.356936,1.06915 -4.243219,0.26318 -0.538184,-0.48942 -1.922568,-0.88984 -3.076404,-0.88984 -1.163658,0 -2.097894,-0.28552 -2.097894,-0.64116 0,-0.37425 -0.594667,-0.52692 -1.428592,-0.36672 -1.101124,0.2115 -1.428591,0.0346 -1.428591,-0.772 0,-0.57554 -0.497554,-1.51222 -1.10568,-2.08152 -0.608116,-0.56931 -1.392702,-1.79368 -1.743509,-2.72085 -0.825694,-2.18228 -2.865178,-14.16702 -2.865178,-16.83679 0,-2.72608 1.877754,-4.84462 3.68278,-4.15501 0.702357,0.26833 1.629437,0.26177 2.074534,-0.0145 0.442594,-0.27485 1.332269,-0.36668 1.977067,-0.20406 0.703813,0.17748 1.805975,-0.20516 2.757764,-0.95747 l 1.585405,-1.25313 0.850872,1.22068 c 0.99931,1.43362 2.080105,1.56007 3.0718,0.35935 0.438822,-0.53131 1.693242,-0.86132 3.274014,-0.86132 2.230389,0 2.504519,-0.13026 2.114421,-1.00485 -0.246519,-0.55269 -0.555992,-2.23225 -0.687725,-3.73237 -0.131734,-1.50011 -0.500075,-2.72749 -0.81854,-2.72749 -0.318456,0 -1.985816,-1.29196 -3.705232,-2.87103 -1.719425,-1.57907 -3.505871,-2.87106 -3.96989,-2.87106 -0.464019,0 -2.950477,-2.13168 -5.525457,-4.73711 l -4.681787,-4.73711 0.160929,-4.88086 c 0.152258,-4.61808 0.252295,-4.95818 1.857932,-6.316402 0.933355,-0.78955 2.568695,-3.271263 3.634087,-5.514945 2.339301,-4.926478 4.036002,-6.255644 8.632971,-6.762888 4.042022,-0.445998 5.409741,0.250838 7.125551,3.630411 0.610589,1.202666 1.957168,2.876875 2.992395,3.720482 1.03522,0.843597 2.738402,2.323452 3.784828,3.288588 1.987555,1.833139 2.334452,1.855905 6.410517,0.421071 2.955744,-1.040485 4.054406,-2.821994 4.054406,-6.574356 0,-1.738157 -0.171347,-3.944214 -0.380774,-4.902328 -0.289553,-1.324726 -0.128215,-1.934328 0.673475,-2.544707 0.57984,-0.441441 0.751188,-0.810862 0.380774,-0.820909 -1.080052,-0.02927 -2.518017,-1.77153 -2.067154,-2.504587 0.22703,-0.369127 0.33858,-1.381867 0.247907,-2.250548 -0.132467,-1.26896 0.06822,-1.579404 1.021066,-1.579404 0.804984,0 1.185944,-0.36892 1.185944,-1.148442 0,-0.90664 -0.38096,-1.148413 -1.809552,-1.148413 -2.374584,0 -1.925363,-0.32326 1.095251,-0.788194 1.997661,-0.307468 2.428605,-0.211268 2.428605,0.542159 0,1.220531 1.374405,0.718924 1.627677,-0.594055 0.244086,-1.265297 -0.829545,-2.010484 -2.913403,-2.022152 -1.172211,-0.0069 -1.571458,-0.292294 -1.571458,-1.124635 0,-2.576666 5.152022,-4.250797 7.772304,-2.525585 2.194519,1.44489 12.016296,1.456273 15.297816,0.01768 2.842562,-1.246096 3.537657,-1.220944 4.93029,0.178435 1.266579,1.272732 1.544882,4.356662 0.428579,4.749045 -0.536073,0.188423 -0.48606,0.522733 0.200405,1.339831 1.157589,1.37784 4.108832,7.05914 5.717802,11.007105 1.73472,4.256503 4.02515,6.076698 7.19488,5.717688 1.41348,-0.160099 3.2748,-0.908801 4.39645,-1.768486 2.1187,-1.623845 4.34579,-5.654801 4.35152,-7.87611 0.005,-1.856661 2.74531,-3.407515 6.02135,-3.407515 3.39263,0 8.25821,1.918477 10.29852,4.060636 0.92223,0.968279 3.0268,2.807704 4.67683,4.087625 2.03946,1.582017 3.00005,2.739622 3.00005,3.615394 0,0.708553 0.54738,1.987521 1.21639,2.842167 0.90339,1.15405 1.05044,1.720694 0.57144,2.20202 -1.01801,1.022955 -0.76675,1.476456 0.92648,1.672236 1.51912,0.175635 1.48581,0.229584 -1.00001,1.619897 -1.85485,1.037402 -2.72383,1.957508 -3.11822,3.301691 -0.35348,1.2048 -0.90895,1.86351 -1.57145,1.86351 -0.56358,0 -1.0247,0.25838 -1.0247,0.57421 0,0.31581 -0.47444,0.57421 -1.05431,0.57421 -2.79895,0 -4.03417,4.83908 -1.66001,6.50324 l 1.28573,0.90123 -1.28573,0.0301 c -1.56576,0.0366 -1.59209,0.46525 -0.14286,2.32694 0.61461,0.78955 1.12317,1.74013 1.13016,2.11241 0.0198,1.05709 3.7544,4.77809 4.79549,4.77809 0.51342,0 1.8572,-1.29196 2.98617,-2.87103 1.75938,-2.46082 2.32549,-2.87106 3.96192,-2.87106 4.28311,0 5.77322,1.83456 6.14994,7.57156 0.091,1.38605 0.57067,2.08723 2.0148,2.94522 1.77445,1.05427 1.88598,1.30332 1.74859,3.90441 -0.0807,1.52806 0.005,2.93092 0.19084,3.1175 0.18568,0.18657 0.12566,1.16159 -0.13338,2.16669 -0.25904,1.0051 -0.64337,3.18403 -0.85408,4.84204 -0.24272,1.90996 -0.65794,3.0146 -1.13314,3.0146 -0.46645,0 -0.63804,0.43033 -0.45382,1.13818 0.44997,1.72907 -1.9886,2.44588 -5.6422,1.65852 -1.60927,-0.34681 -4.01757,-0.50691 -5.35176,-0.3558 -2.63829,0.29881 -6.2829,2.69194 -6.85417,4.50056 -0.19065,0.60361 -0.71428,1.09746 -1.16364,1.09746 -0.44934,0 -1.8132,0.90439 -3.03079,2.00974 -1.21758,1.10535 -2.50406,2.00971 -2.85882,2.00971 -0.35478,0 -0.64504,0.3876 -0.64504,0.86131 0,0.47479 0.50632,0.86133 1.1282,0.86133 0.65027,0 1.47687,0.66892 1.95127,1.57908 0.95255,1.82746 3.72511,4.49324 6.73468,6.4753 2.3835,1.56975 2.3288,2.28136 -0.17535,2.28136 -1.33309,0 -1.67882,0.22717 -1.52932,1.00488 0.16363,0.85119 0.75994,0.98408 3.8991,0.8689 l 3.70594,-0.13592 -2.42862,1.11724 c -1.81823,0.83648 -2.4286,1.44512 -2.4286,2.42177 0,0.80678 -0.98114,2.22268 -2.57147,3.71091 -1.41431,1.32353 -2.57147,2.68505 -2.57147,3.02562 0,0.34054 -0.22595,0.61918 -0.5021,0.61918 -0.27616,0 -0.82165,0.77519 -1.2122,1.72262 -0.39055,0.94747 -1.06462,1.72265 -1.49792,1.72265 -0.43331,0 -0.78783,0.25837 -0.78783,0.57421 0,0.3158 -0.66859,0.5742 -1.48574,0.5742 -0.91398,0 -2.20101,0.71814 -3.34442,1.86616 -2.11384,2.12236 -5.49363,3.54924 -7.15322,3.01996 -1.61755,-0.51587 -5.91859,-4.87692 -6.80097,-6.89585 -0.97003,-2.21949 -6.1785,-6.33984 -9.01431,-7.13108 -3.970051,-1.10772 -6.250298,-0.79498 -8.467688,1.16138 -1.624521,1.43327 -2.019917,2.19543 -2.019917,3.89357 0,1.81877 -0.237644,2.20159 -1.714314,2.76168 -1.467541,0.55662 -1.714304,0.9478 -1.714304,2.71761 0,1.13706 -0.241622,2.5161 -0.536923,3.06448 -0.29531,0.54839 -0.670885,1.64741 -0.834608,2.44229 -0.372046,1.80621 -3.762243,6.3066 -4.75085,6.3066 -0.404173,0 -0.734865,0.2584 -0.734865,0.57421 0,0.82272 -0.562462,0.70399 -3.142906,-0.66345 z m -0.755107,-8.12537 c 0.415315,-0.41244 1.203644,-0.92054 1.751856,-1.12912 1.344682,-0.51164 3.102735,-3.51988 4.134279,-7.07428 0.466746,-1.60826 1.367524,-3.58696 2.001717,-4.39714 0.634203,-0.81016 1.153093,-1.72013 1.153093,-2.02214 0,-0.30197 1.002516,-1.2472 2.227819,-2.10044 2.486594,-1.73159 8.973329,-3.14523 14.584658,-3.17843 3.2766,-0.0195 3.46209,0.0622 5.85912,2.57594 1.36147,1.42779 3.26817,4.00753 4.23711,5.73271 2.46143,4.38257 4.55764,6.0265 7.68454,6.0265 1.63753,0 2.76026,-0.3252 3.24191,-0.93901 0.40526,-0.51647 1.9844,-2.13143 3.50923,-3.58881 4.33633,-4.14457 4.81424,-5.61273 3.43237,-10.54471 -0.19408,-0.69267 0.17388,-1.17834 1.18554,-1.56486 2.54664,-0.97293 1.7719,-1.92483 -1.24737,-1.53261 -3.23894,0.42079 -4.3651,-0.16064 -4.40155,-2.27244 -0.0366,-2.1191 -1.31559,-2.44595 -1.59139,-0.40667 -0.19639,1.45219 -0.26618,1.49855 -0.69951,0.4647 -0.26475,-0.63163 -0.86785,-1.60059 -1.34023,-2.15328 -0.78159,-0.91446 -0.74462,-1.00486 0.41109,-1.00486 1.00989,0 1.19567,-0.23514 0.90721,-1.14841 -0.19951,-0.63164 -0.10559,-1.14842 0.2087,-1.14842 0.93431,0 1.3705,-2.28394 0.61165,-3.20271 -1.01019,-1.22312 0.19649,-3.68779 1.80551,-3.68779 0.96672,0 1.15508,-0.25629 0.90228,-1.22765 -0.21354,-0.82057 0.32311,-2.201 1.61838,-4.16301 3.49013,-5.28669 2.76496,-4.93712 11.07081,-5.33634 l 7.49729,-0.36038 v -1.50615 c 0,-0.82838 0.37088,-2.03821 0.82418,-2.68854 0.45329,-0.65031 1.13004,-2.94732 1.50387,-5.10447 0.6223,-3.59079 0.59173,-3.98676 -0.36195,-4.68746 -0.60237,-0.44261 -2.5339,-0.76538 -4.58014,-0.76538 -3.13847,0 -3.57472,-0.13934 -3.85925,-1.23263 -0.30307,-1.16458 -0.57058,-1.21546 -4.84361,-0.92115 -2.48755,0.17132 -4.80848,0.13409 -5.1576,-0.0827 -0.34914,-0.21682 -1.42439,-2.32164 -2.38946,-4.67737 -0.96506,-2.35576 -2.51556,-5.237 -3.44552,-6.4028 -0.92997,-1.16578 -1.69086,-2.47216 -1.69086,-2.90302 0,-1.18989 2.30821,-4.08277 5.15915,-6.46597 3.28806,-2.748619 4.46704,-4.643367 4.91002,-7.89098 0.35397,-2.595042 0.33163,-2.640122 -2.06062,-4.157612 -2.49632,-1.583519 -2.68153,-2.316547 -1.41591,-5.603868 0.29032,-0.754055 0.0982,-1.004864 -0.76951,-1.004864 -0.63603,0 -1.25229,-0.289092 -1.3695,-0.642445 -0.15455,-0.465877 -1.14911,-0.434694 -3.61911,0.113476 -3.91967,0.869869 -5.91673,2.606474 -7.0838,6.159856 -0.69344,2.11129 -2.34642,3.839674 -5.44119,5.689362 -2.21326,1.322831 -5.19536,0.845532 -9.73841,-1.55872 -2.38704,-1.263244 -4.713574,-2.296825 -5.170076,-2.296825 -0.456503,0 -0.830006,-0.367781 -0.830006,-0.817256 0,-0.449495 -0.642873,-1.584973 -1.428592,-2.523287 -0.824405,-0.984494 -1.428592,-2.429689 -1.428592,-3.41712 0,-0.941094 -0.368752,-2.761298 -0.819449,-4.044883 -0.450687,-1.283613 -0.585079,-2.414259 -0.298653,-2.512581 0.286426,-0.09833 0.694313,-1.053647 0.906388,-2.122958 0.379631,-1.91395 0.357854,-1.940065 -1.401703,-1.680574 -0.983017,0.144973 -1.861891,0.03879 -1.953053,-0.236027 -0.09119,-0.274802 -1.190303,-0.06885 -2.442552,0.457734 -1.356001,0.57018 -4.822865,1.114481 -8.572176,1.345774 -6.846896,0.422427 -7.704845,0.689273 -7.704845,2.396277 0,0.6229 -0.321426,1.257754 -0.714291,1.410761 -0.411454,0.160255 -0.786647,1.55215 -0.884954,3.282901 -0.09383,1.652593 -0.415296,3.25053 -0.714301,3.550976 -0.920111,0.924574 -0.607862,1.464994 0.846445,1.464994 1.565613,0 1.961185,0.826272 2.249732,4.699153 0.277668,3.726974 -1.688032,6.387702 -6.78271,9.180876 -2.200031,1.20619 -4.85767,2.43778 -5.905859,2.73685 -3.151692,0.89929 -3.685888,0.5293 -12.274871,-8.50203 -5.569977,-5.856817 -6.761247,-5.726105 -11.442887,1.255652 -3.216211,4.796368 -3.713843,7.001748 -2.374859,10.524838 1.890686,4.9747 5.672887,7.81278 12.855343,9.64636 2.056031,0.52489 2.771739,1.05409 3.570594,2.6401 1.347674,2.67559 1.362461,10.07791 0.02874,14.35903 l -0.99324,3.18808 -4.740636,1.83625 c -2.607351,1.00994 -5.202768,1.83624 -5.767606,1.83624 -1.801331,0 -5.24469,4.41078 -5.237662,6.70919 0.0068,2.20317 1.293486,5.55593 2.658851,6.92792 1.345581,1.35212 1.654038,1.40965 5.524498,1.03047 2.254648,-0.22091 5.537732,-0.7368 7.295765,-1.14644 3.902655,-0.90937 5.898605,-0.35289 10.25215,2.8584 3.795132,2.79941 6.111434,6.02232 6.578747,9.15368 0.327936,2.1975 0.141185,2.81011 -1.692215,5.55114 -1.133457,1.69458 -2.443921,3.58579 -2.912143,4.20269 -0.468231,0.61693 -0.851322,2.20892 -0.851322,3.53778 0,2.0004 0.306815,2.67551 1.783299,3.92392 0.980807,0.82931 2.652263,1.87265 3.714341,2.31857 1.062068,0.44591 1.931041,1.19633 1.931041,1.66758 0,1.60638 8.392189,2.73736 9.81647,1.32293 z"
       id="path3157" />
    <path
       style="opacity:0.930349;fill:#ffffff;stroke-width:0.572821"
       d="m 77.432561,195.70881 c -2.121419,-1.09416 -5.715716,-2.38224 -7.987322,-2.86241 -4.330501,-0.91534 -5.474895,-1.4883 -9.43334,-4.7229 -3.920254,-3.20342 -4.941712,-5.33099 -4.517482,-9.40945 0.439809,-4.22835 0.773959,-4.8542 3.256406,-6.09926 1.806854,-0.90623 1.980899,-1.22309 2.135983,-3.88888 0.167105,-2.87231 0.1336,-2.93608 -3.243334,-6.17276 -3.904204,-3.74205 -4.998167,-3.97236 -9.087533,-1.91333 -4.01359,2.02091 -6.909772,2.85624 -7.717512,2.22593 -0.380706,-0.29706 -2.322811,-0.87751 -4.31581,-1.28985 -2.275595,-0.47083 -3.753359,-1.09023 -3.972364,-1.66503 -0.191815,-0.5034 -0.910553,-1.74782 -1.597193,-2.76538 -1.415172,-2.09717 -3.677766,-13.03973 -3.66938,-17.74623 0.0068,-3.71206 0.760678,-4.3714 5.2831,-4.61917 1.954294,-0.10706 4.121193,-0.60111 4.907655,-1.11892 1.296516,-0.85363 1.449293,-0.8535 1.925568,0.003 0.548095,0.98416 3.03551,1.27803 3.562678,0.42094 0.171826,-0.27937 1.485838,-0.68477 2.92001,-0.90089 l 2.607606,-0.39294 -0.394008,-2.6879 c -0.216708,-1.47835 -0.551242,-3.10248 -0.743408,-3.60915 -0.42158,-1.11162 -5.137332,-5.26137 -8.152198,-7.17382 -1.198191,-0.76003 -3.982784,-3.0922 -6.187985,-5.18257 l -4.009475,-3.80066 v -3.62543 c 0,-4.10454 0.638787,-6.21741 2.507481,-8.293859 0.710537,-0.78955 2.358936,-3.278118 3.663105,-5.530198 1.951451,-3.36983 2.780527,-4.259263 4.683401,-5.024338 2.381201,-0.957387 5.483613,-1.204208 7.134592,-0.567577 0.516417,0.199128 1.780796,1.618208 2.80975,3.153524 2.638891,3.937535 8.014304,8.542795 9.971432,8.542795 0.857978,0 2.707329,-0.581376 4.109658,-1.291952 3.236521,-1.640012 4.069546,-3.766476 3.597444,-9.183168 -0.21834,-2.505157 -0.110553,-4.146435 0.305398,-4.650065 0.491806,-0.59547 0.381174,-1.016277 -0.47092,-1.791143 -1.252435,-1.138955 -1.064306,-4.122874 0.331259,-5.254002 1.099229,-0.890945 0.981033,-2.385355 -0.213473,-2.69903 -0.629169,-0.165215 -0.429761,-0.287295 0.537705,-0.329212 0.845751,-0.03663 1.696653,0.191801 1.8909,0.507607 0.773326,1.257342 2.077622,0.588595 1.895123,-0.971687 -0.140286,-1.199425 -0.597043,-1.653526 -2.037979,-2.026129 -2.906219,-0.751541 -2.254697,-2.763999 1.17485,-3.628937 0.990562,-0.249797 2.805147,-0.02102 4.778422,0.602767 3.621937,1.144749 12.452654,0.973789 15.147746,-0.293276 3.285147,-1.544489 5.714445,0.676673 4.789643,4.37927 -0.347543,1.391404 -0.555943,1.483057 -2.71164,1.192511 -1.284347,-0.173121 -2.962322,-0.07513 -3.728835,0.21771 -0.766513,0.292834 -3.881358,0.792349 -6.921871,1.110051 -8.903944,0.930369 -8.843111,0.910019 -9.894965,3.308113 -0.515967,1.176344 -1.09441,3.172361 -1.285423,4.435635 -0.191022,1.263264 -0.493174,2.828879 -0.671451,3.479171 -0.241105,0.879465 0.04369,1.350763 1.111739,1.839759 0.980436,0.448886 1.553806,1.289026 1.807646,2.648676 0.557282,2.984921 -0.147626,5.17162 -2.395178,7.430064 -2.253564,2.2645 -9.569062,6.13516 -11.59539,6.13516 -0.8938,0 -3.328441,-1.97879 -7.671766,-6.235328 -6.593984,-6.462207 -8.12403,-7.447428 -9.999497,-6.438852 -1.472085,0.791662 -4.20122,4.302851 -6.028219,7.755622 -1.735651,3.280148 -1.856692,6.043238 -0.404115,9.225108 1.925785,4.21844 4.711315,6.21762 12.724606,9.13245 3.32608,1.20983 4.00668,2.69687 4.006084,8.75281 -5.17e-4,4.94958 -0.931156,9.57178 -2.128251,10.57011 -0.422734,0.35254 -3.287062,1.49592 -6.365176,2.54082 -4.818046,1.6356 -5.815156,2.19973 -7.16801,4.05545 -2.380928,3.26591 -2.019174,7.94873 0.851967,11.02859 1.48398,1.59186 4.96231,1.71178 11.80685,0.40711 4.405409,-0.83975 4.765529,-0.82878 7.063223,0.21514 6.027589,2.73853 10.706962,8.0504 10.706962,12.15417 0,1.53267 -0.675714,3.03603 -2.594821,5.77321 -2.405754,3.43128 -2.582711,3.92717 -2.428605,6.80577 0.161983,3.02575 0.238983,3.15354 3.023399,5.01763 1.571448,1.05203 3.411074,2.46531 4.088058,3.14063 0.941594,0.93928 2.160573,1.29469 5.186739,1.51226 3.512489,0.25253 4.210066,0.12317 6.223864,-1.15425 1.525501,-0.96768 2.608211,-2.25949 3.307235,-3.94594 2.862491,-6.90603 5.145142,-10.88619 6.845508,-11.93622 2.695024,-1.66425 8.306472,-2.91653 13.068863,-2.91653 5.20074,0 5.90089,0.46467 10.11689,6.71463 4.12412,6.11373 5.32,7.05998 8.92707,7.06351 2.84437,0.003 2.9867,-0.0808 6.68083,-3.92584 4.1021,-4.26966 4.73354,-5.70342 4.17124,-9.47127 -0.33908,-2.2721 -0.24784,-2.53094 1.11131,-3.15323 2.1214,-0.97126 1.21969,-1.82147 -1.93178,-1.82147 -2.85073,0 -4.08062,-0.71666 -4.08062,-2.3778 0,-1.36022 -1.01467,-1.88922 -2.01831,-1.05221 -0.66129,0.55147 -0.90393,0.48255 -1.22065,-0.34681 -0.23221,-0.60804 -0.11712,-1.12824 0.27896,-1.26093 0.37084,-0.12421 0.67425,-0.72108 0.67425,-1.32639 0,-0.60531 0.29027,-1.10057 0.64505,-1.10057 0.44374,0 0.52664,-0.89701 0.26563,-2.87416 -0.35196,-2.66612 -0.27825,-2.92047 1.01853,-3.51419 0.8878,-0.40648 1.52582,-1.29591 1.74833,-2.43728 0.46481,-2.38434 3.99733,-7.15639 5.8102,-7.84898 0.79418,-0.30342 2.90581,-0.55389 4.69252,-0.55664 1.7867,-0.003 4.55848,-0.16317 6.15948,-0.35648 l 2.91092,-0.35148 1.28282,-3.80654 c 0.70556,-2.09359 1.42301,-5.27868 1.59434,-7.07797 0.35085,-3.68427 0.60196,-3.48608 -5.27037,-4.15986 -1.57146,-0.18032 -3.14269,-0.71378 -3.49162,-1.18547 -0.47606,-0.64356 -1.84784,-0.85766 -5.49501,-0.85766 h -4.86056 l -1.83536,-4.12461 c -1.00944,-2.26852 -2.58676,-5.22201 -3.50513,-6.56331 -0.91837,-1.34128 -1.66977,-2.874 -1.66977,-3.40605 0,-0.53203 1.91056,-2.94023 4.24569,-5.35153 4.54763,-4.69595 5.46873,-6.351558 5.46873,-9.829689 0,-1.920186 -0.27134,-2.381122 -2.05301,-3.487618 -1.96106,-1.217879 -2.03681,-1.383585 -1.69113,-3.699877 0.34171,-2.289784 0.26689,-2.464427 -1.34286,-3.134441 -3.8973,-1.622137 -9.23391,0.844088 -11.32558,5.233906 -0.69824,1.465388 -2.35169,3.595152 -3.67434,4.732781 -3.26119,2.804974 -5.53688,2.764873 -11.91353,-0.209912 -5.708684,-2.663202 -7.130512,-4.375401 -8.613711,-10.372879 -0.821482,-3.321725 -0.864663,-4.297145 -0.267533,-6.04253 l 0.712092,-2.081374 1.493755,2.561256 c 0.82156,1.408679 2.385375,4.527279 3.475157,6.930224 2.58847,5.707611 4.13973,7.264181 7.23938,7.264181 4.5112,0 8.25482,-3.31214 9.65673,-8.543709 0.81456,-3.039704 2.57587,-4.205894 6.3084,-4.176842 3.7914,0.02946 7.80419,2.008274 12.56762,6.197275 3.8018,3.343322 7.09999,8.664757 6.44058,10.391481 -0.17673,0.462754 0.0376,1.072062 0.47625,1.354014 0.62688,0.402961 0.39102,0.836712 -1.10215,2.026856 -1.04485,0.832813 -2.13112,2.125757 -2.41393,2.873217 -0.30452,0.80486 -1.62702,1.88843 -3.24321,2.6573 -2.45469,1.16777 -2.74669,1.51179 -2.90492,3.42237 -0.0968,1.16823 0.094,2.63097 0.42401,3.2505 0.44211,0.83006 0.41322,1.19051 -0.10981,1.37009 -1.64475,0.56478 4.44595,9.03627 6.49677,9.03627 0.54022,0 2.00079,-1.16275 3.24571,-2.58393 1.98233,-2.26297 2.55106,-2.58392 4.57858,-2.58392 2.92943,0 4.50595,1.82211 5.03341,5.81757 0.27502,2.08333 0.77746,3.16327 1.92187,4.1309 1.27145,1.07503 1.60503,1.92565 1.85904,4.74057 0.33141,3.67252 -0.74605,10.85015 -1.78553,11.89467 -0.34688,0.34858 -0.6307,1.07732 -0.6307,1.61949 0,1.4231 -0.82379,1.57473 -6.66545,1.22668 -4.92008,-0.29314 -5.39308,-0.22002 -7.81933,1.20875 -1.42038,0.83643 -2.74545,2.03674 -2.94463,2.66733 -0.19917,0.63059 -0.56962,1.14654 -0.82321,1.14654 -0.89522,0 -6.89059,4.79652 -6.89059,5.51274 0,0.39938 0.45,0.87237 1.00001,1.05109 0.55001,0.1787 1.60346,1.21757 2.341,2.30853 0.73753,1.09098 2.77411,3.09393 4.5257,4.45098 l 3.18472,2.46741 -1.54501,0.54832 c -2.36569,0.83962 -1.69202,2.28739 1.16178,2.49676 l 2.3725,0.17405 -1.14399,1.26146 c -0.62921,0.69383 -1.69905,2.08596 -2.37744,3.09369 -3.23561,4.80628 -7.83371,9.82119 -9.34504,10.19209 -0.88156,0.21635 -2.50284,1.11036 -3.60285,1.9867 -5.02864,4.00607 -6.34975,3.93652 -10.33803,-0.54429 -8.38193,-9.41706 -10.46956,-10.84792 -15.859847,-10.87016 -4.072079,-0.0169 -6.147922,1.44761 -7.02749,4.95761 -0.444471,1.77373 -1.068304,2.78413 -1.975299,3.19941 -0.999847,0.45776 -1.42089,1.25718 -1.713161,3.25271 -0.213131,1.45517 -0.962666,3.93772 -1.665649,5.51679 -1.305655,2.93285 -4.468929,6.62597 -5.631826,6.57516 -0.355567,-0.0156 -2.382198,-0.92345 -4.503617,-2.0176 z"
       id="path3159" />
    <path
       style="opacity:0.930349;fill:#ffffff;stroke-width:0.572821"
       d="m 77.432561,195.70881 c -2.121419,-1.09416 -5.715716,-2.38224 -7.987322,-2.86241 -4.330501,-0.91534 -5.474895,-1.4883 -9.43334,-4.7229 -3.920254,-3.20342 -4.941712,-5.33099 -4.517482,-9.40945 0.439809,-4.22835 0.773959,-4.8542 3.256406,-6.09926 1.806854,-0.90623 1.980899,-1.22309 2.135983,-3.88888 0.167105,-2.87231 0.1336,-2.93608 -3.243334,-6.17276 -3.904204,-3.74205 -4.998167,-3.97236 -9.087533,-1.91333 -4.01359,2.02091 -6.909772,2.85624 -7.717512,2.22593 -0.380706,-0.29706 -2.322811,-0.87751 -4.31581,-1.28985 -2.275595,-0.47083 -3.753359,-1.09023 -3.972364,-1.66503 -0.191815,-0.5034 -0.910553,-1.74782 -1.597193,-2.76538 -1.415172,-2.09717 -3.677766,-13.03973 -3.66938,-17.74623 0.0068,-3.71206 0.760678,-4.3714 5.2831,-4.61917 1.954294,-0.10706 4.121193,-0.60111 4.907655,-1.11892 1.296516,-0.85363 1.449293,-0.8535 1.925568,0.003 0.548095,0.98416 3.03551,1.27803 3.562678,0.42094 0.171826,-0.27937 1.485838,-0.68477 2.92001,-0.90089 l 2.607606,-0.39294 -0.394008,-2.6879 c -0.216708,-1.47835 -0.551242,-3.10248 -0.743408,-3.60915 -0.42158,-1.11162 -5.137332,-5.26137 -8.152198,-7.17382 -1.198191,-0.76003 -3.982784,-3.0922 -6.187985,-5.18257 l -4.009475,-3.80066 v -3.62543 c 0,-4.10454 0.638787,-6.21741 2.507481,-8.293859 0.710537,-0.78955 2.358936,-3.278118 3.663105,-5.530198 1.951451,-3.36983 2.780527,-4.259263 4.683401,-5.024338 2.381201,-0.957387 5.483613,-1.204208 7.134592,-0.567577 0.516417,0.199128 1.780796,1.618208 2.80975,3.153524 2.638891,3.937535 8.014304,8.542795 9.971432,8.542795 0.857978,0 2.707329,-0.581376 4.109658,-1.291952 3.236521,-1.640012 4.069546,-3.766476 3.597444,-9.183168 -0.21834,-2.505157 -0.110553,-4.146435 0.305398,-4.650065 0.491806,-0.59547 0.381174,-1.016277 -0.47092,-1.791143 -1.252435,-1.138955 -1.064306,-4.122874 0.331259,-5.254002 1.099229,-0.890945 0.981033,-2.385355 -0.213473,-2.69903 -0.629169,-0.165215 -0.429761,-0.287295 0.537705,-0.329212 0.845751,-0.03663 1.696653,0.191801 1.8909,0.507607 0.773326,1.257342 2.077622,0.588595 1.895123,-0.971687 -0.140286,-1.199425 -0.597043,-1.653526 -2.037979,-2.026129 -2.906219,-0.751541 -2.254697,-2.763999 1.17485,-3.628937 0.990562,-0.249797 2.805147,-0.02102 4.778422,0.602767 3.621937,1.144749 12.452654,0.973789 15.147746,-0.293276 3.285147,-1.544489 5.714445,0.676673 4.789643,4.37927 -0.347543,1.391404 -0.555943,1.483057 -2.71164,1.192511 -1.284347,-0.173121 -2.962322,-0.07513 -3.728835,0.21771 -0.766513,0.292834 -3.881358,0.792349 -6.921871,1.110051 -8.903944,0.930369 -8.843111,0.910019 -9.894965,3.308113 -0.515967,1.176344 -1.09441,3.172361 -1.285423,4.435635 -0.191022,1.263264 -0.493174,2.828879 -0.671451,3.479171 -0.241105,0.879465 0.04369,1.350763 1.111739,1.839759 0.980436,0.448886 1.553806,1.289026 1.807646,2.648676 0.557282,2.984921 -0.147626,5.17162 -2.395178,7.430064 -2.253564,2.2645 -9.569062,6.13516 -11.59539,6.13516 -0.8938,0 -3.328441,-1.97879 -7.671766,-6.235328 -6.593984,-6.462207 -8.12403,-7.447428 -9.999497,-6.438852 -1.472085,0.791662 -4.20122,4.302851 -6.028219,7.755622 -1.735651,3.280148 -1.856692,6.043238 -0.404115,9.225108 1.925785,4.21844 4.711315,6.21762 12.724606,9.13245 3.32608,1.20983 4.00668,2.69687 4.006084,8.75281 -5.17e-4,4.94958 -0.931156,9.57178 -2.128251,10.57011 -0.422734,0.35254 -3.287062,1.49592 -6.365176,2.54082 -4.818046,1.6356 -5.815156,2.19973 -7.16801,4.05545 -2.380928,3.26591 -2.019174,7.94873 0.851967,11.02859 1.48398,1.59186 4.96231,1.71178 11.80685,0.40711 4.405409,-0.83975 4.765529,-0.82878 7.063223,0.21514 6.027589,2.73853 10.706962,8.0504 10.706962,12.15417 0,1.53267 -0.675714,3.03603 -2.594821,5.77321 -2.405754,3.43128 -2.582711,3.92717 -2.428605,6.80577 0.161983,3.02575 0.238983,3.15354 3.023399,5.01763 1.571448,1.05203 3.411074,2.46531 4.088058,3.14063 0.941594,0.93928 2.160573,1.29469 5.186739,1.51226 3.512489,0.25253 4.210066,0.12317 6.223864,-1.15425 1.525501,-0.96768 2.608211,-2.25949 3.307235,-3.94594 2.862491,-6.90603 5.145142,-10.88619 6.845508,-11.93622 2.695024,-1.66425 8.306472,-2.91653 13.068863,-2.91653 5.20074,0 5.90089,0.46467 10.11689,6.71463 4.12412,6.11373 5.32,7.05998 8.92707,7.06351 2.84437,0.003 2.9867,-0.0808 6.68083,-3.92584 4.1021,-4.26966 4.73354,-5.70342 4.17124,-9.47127 -0.33908,-2.2721 -0.24784,-2.53094 1.11131,-3.15323 2.1214,-0.97126 1.21969,-1.82147 -1.93178,-1.82147 -2.85073,0 -4.08062,-0.71666 -4.08062,-2.3778 0,-1.36022 -1.01467,-1.88922 -2.01831,-1.05221 -0.66129,0.55147 -0.90393,0.48255 -1.22065,-0.34681 -0.23221,-0.60804 -0.11712,-1.12824 0.27896,-1.26093 0.37084,-0.12421 0.67425,-0.72108 0.67425,-1.32639 0,-0.60531 0.29027,-1.10057 0.64505,-1.10057 0.44374,0 0.52664,-0.89701 0.26563,-2.87416 -0.35196,-2.66612 -0.27825,-2.92047 1.01853,-3.51419 0.8878,-0.40648 1.52582,-1.29591 1.74833,-2.43728 0.46481,-2.38434 3.99733,-7.15639 5.8102,-7.84898 0.79418,-0.30342 2.90581,-0.55389 4.69252,-0.55664 1.7867,-0.003 4.55848,-0.16317 6.15948,-0.35648 l 2.91092,-0.35148 1.28282,-3.80654 c 0.70556,-2.09359 1.42301,-5.27868 1.59434,-7.07797 0.35085,-3.68427 0.60196,-3.48608 -5.27037,-4.15986 -1.57146,-0.18032 -3.14269,-0.71378 -3.49162,-1.18547 -0.47606,-0.64356 -1.84784,-0.85766 -5.49501,-0.85766 h -4.86056 l -1.83536,-4.12461 c -1.00944,-2.26852 -2.58676,-5.22201 -3.50513,-6.56331 -0.91837,-1.34128 -1.66977,-2.874 -1.66977,-3.40605 0,-0.53203 1.91056,-2.94023 4.24569,-5.35153 4.54763,-4.69595 5.46873,-6.351558 5.46873,-9.829689 0,-1.920186 -0.27134,-2.381122 -2.05301,-3.487618 -1.96106,-1.217879 -2.03681,-1.383585 -1.69113,-3.699877 0.34171,-2.289784 0.26689,-2.464427 -1.34286,-3.134441 -3.8973,-1.622137 -9.23391,0.844088 -11.32558,5.233906 -0.69824,1.465388 -2.35169,3.595152 -3.67434,4.732781 -3.26119,2.804974 -5.53688,2.764873 -11.91353,-0.209912 -5.708684,-2.663202 -7.130512,-4.375401 -8.613711,-10.372879 -0.821482,-3.321725 -0.864663,-4.297145 -0.267533,-6.04253 l 0.712092,-2.081374 1.493755,2.561256 c 0.82156,1.408679 2.385375,4.527279 3.475157,6.930224 2.58847,5.707611 4.13973,7.264181 7.23938,7.264181 4.5112,0 8.25482,-3.31214 9.65673,-8.543709 0.81456,-3.039704 2.57587,-4.205894 6.3084,-4.176842 3.7914,0.02946 7.80419,2.008274 12.56762,6.197275 3.8018,3.343322 7.09999,8.664757 6.44058,10.391481 -0.17673,0.462754 0.0376,1.072062 0.47625,1.354014 0.62688,0.402961 0.39102,0.836712 -1.10215,2.026856 -1.04485,0.832813 -2.13112,2.125757 -2.41393,2.873217 -0.30452,0.80486 -1.62702,1.88843 -3.24321,2.6573 -2.45469,1.16777 -2.74669,1.51179 -2.90492,3.42237 -0.0968,1.16823 0.094,2.63097 0.42401,3.2505 0.44211,0.83006 0.41322,1.19051 -0.10981,1.37009 -1.64475,0.56478 4.44595,9.03627 6.49677,9.03627 0.54022,0 2.00079,-1.16275 3.24571,-2.58393 1.98233,-2.26297 2.55106,-2.58392 4.57858,-2.58392 2.92943,0 4.50595,1.82211 5.03341,5.81757 0.27502,2.08333 0.77746,3.16327 1.92187,4.1309 1.27145,1.07503 1.60503,1.92565 1.85904,4.74057 0.33141,3.67252 -0.74605,10.85015 -1.78553,11.89467 -0.34688,0.34858 -0.6307,1.07732 -0.6307,1.61949 0,1.4231 -0.82379,1.57473 -6.66545,1.22668 -4.92008,-0.29314 -5.39308,-0.22002 -7.81933,1.20875 -1.42038,0.83643 -2.74545,2.03674 -2.94463,2.66733 -0.19917,0.63059 -0.56962,1.14654 -0.82321,1.14654 -0.89522,0 -6.89059,4.79652 -6.89059,5.51274 0,0.39938 0.45,0.87237 1.00001,1.05109 0.55001,0.1787 1.60346,1.21757 2.341,2.30853 0.73753,1.09098 2.77411,3.09393 4.5257,4.45098 l 3.18472,2.46741 -1.54501,0.54832 c -2.36569,0.83962 -1.69202,2.28739 1.16178,2.49676 l 2.3725,0.17405 -1.14399,1.26146 c -0.62921,0.69383 -1.69905,2.08596 -2.37744,3.09369 -3.23561,4.80628 -7.83371,9.82119 -9.34504,10.19209 -0.88156,0.21635 -2.50284,1.11036 -3.60285,1.9867 -5.02864,4.00607 -6.34975,3.93652 -10.33803,-0.54429 -8.38193,-9.41706 -10.46956,-10.84792 -15.859847,-10.87016 -4.072079,-0.0169 -6.147922,1.44761 -7.02749,4.95761 -0.444471,1.77373 -1.068304,2.78413 -1.975299,3.19941 -0.999847,0.45776 -1.42089,1.25718 -1.713161,3.25271 -0.213131,1.45517 -0.962666,3.93772 -1.665649,5.51679 -1.305655,2.93285 -4.468929,6.62597 -5.631826,6.57516 -0.355567,-0.0156 -2.382198,-0.92345 -4.503617,-2.0176 z"
       id="path3161" />
    <path
       style="opacity:0.930349;fill:#ffffff;stroke-width:0.405045"
       d="m 74.624277,188.76256 c -0.222231,-0.0757 -1.096776,-0.25436 -1.943426,-0.39691 -0.907151,-0.15275 -2.151767,-0.81141 -3.030505,-1.60371 -0.820124,-0.73948 -2.241043,-1.72605 -3.157596,-2.19239 -1.875496,-0.95428 -3.666292,-2.89229 -4.034399,-4.36604 -0.374264,-1.49841 0.105667,-2.81293 1.879709,-5.14852 2.63596,-3.47031 3.757141,-6.09843 3.516574,-8.24309 -0.305016,-2.71922 -2.468091,-6.81566 -4.463329,-8.45268 -5.768153,-4.73257 -8.008728,-5.45129 -14.041098,-4.50387 -6.236232,0.9794 -9.41168,1.17442 -10.407112,0.63909 -0.47383,-0.25482 -1.356076,-1.31132 -1.96055,-2.34776 -2.163474,-3.70961 -1.050064,-7.78354 2.630794,-9.62604 2.35071,-1.17666 6.991398,-2.93375 9.24898,-3.50191 1.994955,-0.50207 2.61376,-1.44024 3.532328,-5.35537 0.819693,-3.4937 0.819277,-11.9686 -7.76e-4,-14.02784 -0.750282,-1.88422 -1.233024,-2.19678 -6.083858,-3.93894 -6.105683,-2.19286 -8.16381,-3.78077 -10.265348,-7.9201 -1.312485,-2.58516 -0.992569,-4.84367 1.242276,-8.770084 2.191286,-3.849879 4.728205,-6.676371 5.992357,-6.676371 0.596782,0 1.956932,1.006455 3.840987,2.842187 1.604356,1.563199 3.086145,2.842187 3.292864,2.842187 0.206719,0 0.621555,0.557755 0.921858,1.239466 0.688946,1.564005 4.787516,5.021295 6.707458,5.657995 1.234393,0.40938 1.86539,0.35593 4.169319,-0.35312 3.095961,-0.95279 7.727549,-3.54946 9.729784,-5.454945 2.257297,-2.148209 2.811285,-3.965546 2.421431,-7.943358 -0.334827,-3.416216 -0.774909,-4.514786 -1.808623,-4.514786 -0.748637,0 -0.718103,-1.928377 0.07614,-4.809849 1.436489,-5.211307 1.349872,-5.153489 8.602906,-5.742172 2.861493,-0.232236 6.152817,-0.705774 7.314042,-1.052291 1.8628,-0.55588 2.166418,-0.559239 2.579417,-0.02848 0.257446,0.330852 0.831745,0.668354 1.276225,0.749979 0.578287,0.106228 0.785895,0.433545 0.72993,1.150829 -0.04301,0.551313 0.29055,2.646801 0.741247,4.656636 0.450697,2.009835 0.89034,4.019681 0.977006,4.466298 0.0867,0.446636 0.905821,1.865353 1.820351,3.152709 1.426315,2.007743 2.133081,2.569369 4.9694,3.948898 3.78745,1.842126 7.66127,3.252082 8.93499,3.252082 3.82926,0 7.82564,-2.999034 9.88972,-7.421647 0.92507,-1.982109 1.70124,-3.022576 2.77362,-3.718086 1.90228,-1.23378 5.48248,-2.015767 6.56457,-1.433841 0.86955,0.467615 0.92851,0.689745 0.80871,3.046049 -0.0768,1.511194 0.0913,1.798911 2.16809,3.710337 1.48009,1.362224 2.25141,2.391523 2.25141,3.004396 0,1.832246 -1.70891,4.416062 -5.87367,8.880792 -4.95557,5.31252 -5.1045,5.81544 -2.77604,9.37471 0.79859,1.22068 2.4211,4.26794 3.6056,6.7717 2.49334,5.27028 2.41169,5.21922 7.82225,4.89258 3.80936,-0.22997 4.49506,-0.11932 4.49506,0.72537 0,0.94905 1.43509,1.40157 4.44473,1.40157 3.88729,0 4.44785,0.34838 4.43263,2.75495 -0.0168,2.6672 -2.48752,9.89474 -3.51267,10.27579 -0.43138,0.16035 -3.63682,0.42478 -7.12322,0.58767 l -6.33889,0.2961 -1.55678,1.87383 c -2.32426,2.7976 -4.08407,5.76394 -4.08407,6.8841 0,0.63356 -0.5231,1.45139 -1.44242,2.25515 -1.46938,1.28468 -1.83841,2.64051 -1.23697,4.54467 0.18193,0.57599 0.009,1.07817 -0.54743,1.58357 -0.44762,0.40706 -0.81385,1.08292 -0.81385,1.50197 0,0.41902 -0.27274,0.86704 -0.60609,0.99556 -0.93605,0.36095 -0.7245,1.55395 0.6343,3.57709 0.76955,1.14579 1.6515,1.9454 2.32338,2.10649 0.59564,0.14278 1.31139,0.44043 1.59055,0.66144 0.27916,0.221 1.09121,0.52179 1.80455,0.66838 1.40724,0.28921 1.56257,0.66726 2.12161,5.16335 l 0.2701,2.17226 -2.96753,3.1511 c -1.63213,1.73309 -3.34523,3.68192 -3.80691,4.33073 -0.71158,1.00003 -1.17707,1.20781 -3.05709,1.36445 -2.0302,0.16919 -2.33812,0.0786 -3.64207,-1.07185 -0.7834,-0.69119 -2.38636,-2.67552 -3.56214,-4.40967 -6.04774,-8.91978 -6.15162,-8.97926 -14.43767,-8.26762 -6.509719,0.55908 -7.977025,0.89968 -11.144757,2.58696 -2.214418,1.17949 -2.45997,1.46482 -4.073876,4.7336 -0.944575,1.91316 -2.128896,4.60736 -2.631825,5.98711 -1.540298,4.22572 -6.032304,7.74603 -8.716782,6.83116 z m 29.167643,-36.80409 c 1.51451,-0.75 2.84456,-1.48012 2.95567,-1.62253 0.11112,-0.14237 0.89061,-0.54697 1.7322,-0.89907 2.28172,-0.95466 6.45447,-5.09287 6.18387,-6.13268 -0.11823,-0.45428 0.13631,-1.55771 0.56563,-2.45204 1.31892,-2.74742 1.48897,-7.59074 0.4232,-12.0523 -1.32967,-5.56624 -2.89899,-8.55317 -6.25797,-11.91102 -2.51071,-2.50986 -3.35115,-3.0586 -7.07876,-4.62186 -4.119686,-1.72769 -4.31538,-1.76782 -7.51692,-1.54078 -2.494051,0.17686 -4.544384,0.68917 -8.498304,2.1234 -2.866156,1.03969 -5.847596,2.26842 -6.625427,2.73055 -2.925259,1.73803 -7.200694,5.25449 -7.429102,6.11033 -0.130423,0.48868 -0.239608,2.64761 -0.242648,4.79759 -0.0039,2.97427 -0.150451,4.02991 -0.611615,4.4145 -1.057142,0.88159 -0.744679,4.45658 0.812587,9.29704 1.514564,4.70775 2.600627,6.538 3.879609,6.538 1.008624,0 3.537871,1.28939 6.541948,3.33501 4.459908,3.037 6.655081,3.58897 13.488772,3.39163 4.63064,-0.1337 5.08751,-0.2233 7.67726,-1.50577 z"
       id="path3163" />
    <path
       style="opacity:0.930349;fill:#ffffff;stroke-width:0.405045"
       d="m 72.262584,187.96609 c -0.854459,-0.30614 -1.945439,-0.91293 -2.424402,-1.34847 -0.478963,-0.43553 -1.890666,-1.43722 -3.137129,-2.22601 -2.646056,-1.67448 -3.99675,-3.39156 -3.99675,-5.08094 0,-0.76567 0.75847,-2.37075 2.080887,-4.40362 3.374118,-5.18679 3.828051,-7.09981 2.553389,-10.76077 -1.512902,-4.34517 -6.490674,-9.02436 -11.030478,-10.36884 -2.141079,-0.63408 -2.648708,-0.63405 -7.746134,0 -3.000195,0.37345 -6.413514,0.67789 -7.58515,0.67659 -2.095585,-0.003 -2.149752,-0.0332 -3.328626,-1.90117 -1.463712,-2.31922 -1.836967,-4.10436 -1.238917,-5.92526 0.869048,-2.64601 2.929659,-4.00278 9.728292,-6.40539 3.456961,-1.22167 4.40452,-1.73613 5.116446,-2.7778 1.288214,-1.88488 1.851676,-5.98216 1.691493,-12.30003 -0.17976,-7.08998 -0.261138,-7.21786 -6.042149,-9.49593 -5.443329,-2.14501 -6.32713,-2.63671 -8.100292,-4.50664 -2.011249,-2.12103 -3.171298,-4.47059 -3.170915,-6.42237 5.17e-4,-2.01662 1.675718,-5.636142 4.179779,-9.030379 1.997127,-2.707084 3.318424,-3.409685 4.649867,-2.472589 1.027734,0.723364 6.265195,5.76704 8.342875,8.034238 2.139415,2.33453 4.904483,4.07175 6.480916,4.07175 4.067611,0 12.884243,-4.97839 14.618398,-8.25439 1.281113,-2.420172 0.62655,-9.982588 -0.915517,-10.577213 -1.387033,-0.534843 0.242336,-7.835057 2.008246,-8.997741 0.575452,-0.378898 3.136778,-0.862336 6.549337,-1.236167 3.082366,-0.337658 6.312935,-0.802042 7.179035,-1.03197 2.149177,-0.570514 4.284231,0.505191 4.284231,2.158501 0,0.610673 0.387019,2.936649 0.86004,5.16887 1.398859,6.601287 3.5708,9.128581 10.305004,11.991009 4.69679,1.9964 7.69302,2.295235 10.36401,1.033631 2.26843,-1.071443 4.68298,-3.694387 6.42611,-6.980726 1.44393,-2.722209 2.92427,-3.804465 6.12738,-4.479566 2.89322,-0.609809 3.49568,-0.161267 3.49568,2.602545 0,1.848775 0.15716,2.171701 2.02032,4.151297 1.3221,1.404682 2.02034,2.499323 2.02034,3.167235 0,1.235931 -1.35834,3.322226 -4.39239,6.746385 -6.12014,6.90703 -6.30313,7.43665 -3.93471,11.38764 0.75376,1.25743 2.28302,4.12308 3.39832,6.36809 1.11532,2.245 2.31152,4.3184 2.65823,4.60754 0.44021,0.36714 1.96577,0.51099 5.05696,0.47684 4.10872,-0.0454 4.44518,0.0101 4.68565,0.77136 0.28869,0.914 0.8193,1.07244 4.74588,1.41693 1.49731,0.13135 2.99741,0.34488 3.33356,0.4745 0.95763,0.36926 0.75873,3.82507 -0.42508,7.38568 -1.63526,4.91842 -1.52358,4.82505 -6.11974,5.11672 -2.17572,0.13809 -5.28729,0.35522 -6.9146,0.48255 l -2.95876,0.23148 -2.38547,3.23288 c -1.312,1.7781 -2.57087,3.92478 -2.79748,4.77044 -0.22661,0.84568 -0.79507,1.88591 -1.26323,2.31164 -1.4422,1.31149 -2.06485,2.93103 -1.77946,4.62839 0.14735,0.87631 0.0877,1.65256 -0.13774,1.79254 -0.83809,0.5205 -2.165,3.92233 -1.91709,4.91491 0.43925,1.75862 2.46301,3.60505 5.0894,4.64347 2.80902,1.11063 3.10013,1.52666 3.56714,5.09801 l 0.31857,2.43616 -2.44957,2.64757 c -1.34725,1.45617 -3.13875,3.42032 -3.9811,4.3648 -1.39936,1.56902 -1.69978,1.71721 -3.48109,1.71721 -2.58566,0 -3.31888,-0.63051 -7.46454,-6.4188 -3.45427,-4.82298 -4.60444,-6.11168 -6.18435,-6.92935 -1.91468,-0.99089 -12.778895,-0.19389 -16.5177,1.21176 -4.393767,1.65188 -5.460097,2.92264 -8.471533,10.0954 -1.674456,3.98831 -2.865589,5.6904 -5.141554,7.3471 -1.847895,1.34509 -3.892246,1.53312 -6.502139,0.59806 z M 105.76053,151.2039 c 4.74999,-2.43575 9.0684,-6.09542 9.0684,-7.68507 0,-0.47691 0.38424,-2.00331 0.85388,-3.39199 0.73237,-2.16555 0.82215,-3.13151 0.63084,-6.78812 -0.38659,-7.38914 -2.21952,-11.75391 -6.91432,-16.46506 -2.73357,-2.74308 -3.77804,-3.49056 -6.49038,-4.64487 -5.770252,-2.45568 -9.648424,-2.20338 -18.700101,1.21647 -4.379106,1.65448 -7.116011,3.27511 -10.326191,6.11454 l -1.760858,1.55748 -0.275655,4.56062 c -0.151614,2.50832 -0.471105,4.79725 -0.709981,5.08647 -1.021936,1.23733 -0.227117,6.86839 1.671143,11.83945 1.212079,3.17413 1.848315,3.95386 3.675,4.50379 0.904561,0.27234 3.458732,1.61055 5.675955,2.9738 5.280051,3.24648 6.518188,3.56195 13.533948,3.44824 l 5.7134,-0.0926 z"
       id="path3165" />
    <path
       style="opacity:0.930349;fill:#ffffff;stroke-width:0.405045"
       d="m 90.300306,145.90806 c -3.151224,-2.06898 -6.025121,-5.24477 -7.251411,-8.01313 -0.799305,-1.80442 -0.949384,-2.81215 -0.949384,-6.37492 0,-8.14571 0.854469,-9.62256 6.923748,-11.96707 4.436891,-1.71392 5.698914,-1.89896 7.535501,-1.10484 0.825773,0.35707 2.265908,0.84358 3.200309,1.08114 0.934401,0.23756 2.255631,0.90266 2.936071,1.47799 1.56639,1.32444 4.17339,5.76815 5.0907,8.67725 0.38728,1.22821 0.87515,2.61949 1.08414,3.0917 0.28926,0.65354 0.12946,1.33146 -0.66917,2.83896 -0.57703,1.08922 -1.04916,2.18787 -1.04916,2.44144 0,0.25357 -0.28692,0.70034 -0.63761,0.99278 -0.3507,0.29247 -1.08005,1.40908 -1.62079,2.48135 -0.75605,1.49922 -1.42549,2.17298 -2.89796,2.91669 -2.10221,1.06175 -7.793766,3.10226 -8.653151,3.10226 -0.297871,0 -1.666695,-0.73872 -3.041833,-1.6416 z"
       id="path3167" />
    <path
       style="opacity:0.930349;fill:#ffffff;stroke-width:0.405045"
       d="m 90.238808,145.4939 c -3.047639,-2.045 -5.526834,-4.80296 -6.80173,-7.56657 -0.862201,-1.86897 -0.972568,-2.67377 -0.963332,-7.02484 0.01222,-5.7549 0.704498,-7.95826 2.931827,-9.33132 2.123237,-1.30887 7.450077,-3.25559 8.903924,-3.25398 2.37004,0.003 7.653803,2.24838 9.051293,3.84706 1.57075,1.79683 3.3984,5.2846 4.58604,8.75172 l 0.90864,2.65257 -1.26373,2.62578 c -1.7808,3.70007 -3.04169,5.71074 -4.3555,6.94543 -1.2419,1.16715 -8.023717,4.00388 -9.572078,4.00388 -0.531753,0 -2.073156,-0.74238 -3.425354,-1.64973 z"
       id="path3169" />
  </g>
</svg>
