<?xml version="1.0" encoding="UTF-8" standalone="no"?>
<svg
   xmlns:dc="http://purl.org/dc/elements/1.1/"
   xmlns:cc="http://creativecommons.org/ns#"
   xmlns:rdf="http://www.w3.org/1999/02/22-rdf-syntax-ns#"
   xmlns:svg="http://www.w3.org/2000/svg"
   xmlns="http://www.w3.org/2000/svg"
   xmlns:sodipodi="http://sodipodi.sourceforge.net/DTD/sodipodi-0.dtd"
   xmlns:inkscape="http://www.inkscape.org/namespaces/inkscape"
   width="132.2917mm"
   height="132.29167mm"
   viewBox="0 0 132.2917 132.29167"
   version="1.1"
   id="svg16239"
   inkscape:version="1.0 (b51213c273, 2020-08-10)">
  <defs
     id="defs16233" />
  <sodipodi:namedview
     id="base"
     pagecolor="#ffffff"
     bordercolor="#666666"
     borderopacity="1.0"
     inkscape:pageopacity="0.0"
     inkscape:pageshadow="2"
     inkscape:zoom="0.35"
     inkscape:cx="270.24747"
     inkscape:cy="258.08311"
     inkscape:document-units="mm"
     inkscape:current-layer="layer1"
     inkscape:document-rotation="0"
     showgrid="false"
     inkscape:snap-global="false"
     inkscape:window-width="1318"
     inkscape:window-height="704"
     inkscape:window-x="48"
     inkscape:window-y="27"
     inkscape:window-maximized="1"
     fit-margin-top="0"
     fit-margin-left="0"
     fit-margin-right="0"
     fit-margin-bottom="0"
     showborder="false" />
  <metadata
     id="metadata16236">
    <rdf:RDF>
      <cc:Work
         rdf:about="">
        <dc:format>image/svg+xml</dc:format>
        <dc:type
           rdf:resource="http://purl.org/dc/dcmitype/StillImage" />
        <dc:title></dc:title>
      </cc:Work>
    </rdf:RDF>
  </metadata>
  <g
     inkscape:label="Layer 1"
     inkscape:groupmode="layer"
     id="layer1"
     transform="translate(-34.330356,-79.882178)">
    <path
       style="fill:#ff0000;stroke-width:0.693212"
       d="m 90.969884,211.5533 c -0.235083,-0.38217 0.213434,-0.69486 0.996514,-0.69486 0.804652,0 1.423881,-0.45333 1.423881,-1.04237 0,-0.57327 0.262245,-1.04233 0.582665,-1.04233 0.830025,0 3.252276,-4.71686 2.704768,-5.26701 -0.250545,-0.25177 0.02062,-0.93437 0.598998,-1.51714 0.598371,-0.60127 0.895666,-1.69503 0.687383,-2.52891 -0.330624,-1.32325 0.362604,-3.47087 1.035867,-3.20958 0.147792,0.0573 0.829096,-0.11189 1.51432,-0.37619 0.94082,-0.36277 1.14443,-0.94457 0.83157,-2.37599 -0.34026,-1.55713 0.0103,-2.26936 1.95819,-3.98878 2.29041,-2.02082 2.51286,-2.07197 6.42963,-1.47918 3.32957,0.50391 4.4618,1.04806 6.31391,3.03455 1.24124,1.3313 2.53054,2.42053 2.86506,2.42053 0.51197,0 1.46984,1.51976 1.75188,2.77957 0.24883,1.11072 1.62963,2.68477 2.98072,3.3975 0.85576,0.45142 1.55597,1.27883 1.55597,1.83866 0,1.16867 5.16634,1.48021 5.85943,0.35334 0.22477,-0.3655 0.86556,-0.48838 1.42389,-0.27318 0.55833,0.21517 1.01517,0.0453 1.01517,-0.37779 0,-1.39149 2.73251,-3.54883 4.49501,-3.54883 0.95086,0 1.72885,-0.31289 1.72885,-0.6949 0,-0.38221 0.43305,-0.69491 0.96234,-0.69491 0.52929,0 1.15759,-0.78176 1.39626,-1.73723 0.23852,-0.95547 0.75753,-1.73723 1.15309,-1.73723 0.39556,0 0.51393,-0.33363 0.26293,-0.74167 -0.2509,-0.40794 0.15879,-0.90333 0.91079,-1.10087 0.75186,-0.19755 1.76136,-1.0997 2.2434,-2.00472 0.48198,-0.90502 1.22076,-1.58224 1.64165,-1.50498 0.43288,0.0795 0.68722,-0.6355 0.58555,-1.64624 -0.15294,-1.52272 0.18662,-1.88208 2.29876,-2.4321 1.36313,-0.355 2.44917,-0.9581 2.41338,-1.34032 -0.0777,-0.83073 -5.73883,-0.96918 -6.32235,-0.15471 -0.22375,0.3122 -0.75248,0.1492 -1.17502,-0.36221 -0.61096,-0.73974 -0.32273,-0.96426 1.40791,-1.09678 3.06682,-0.23483 3.23066,-0.70975 0.8925,-2.58727 -1.12617,-0.90429 -2.15959,-1.53167 -2.29646,-1.39412 -0.52729,0.52986 -4.99175,-4.18384 -4.99175,-5.27043 0,-1.22996 -1.79332,-2.24684 -2.82856,-1.60391 -0.34603,0.21481 -0.62913,0.0594 -0.62913,-0.34502 0,-0.40473 0.4391,-0.73589 0.97581,-0.73589 0.53671,0 1.7614,-0.93811 2.72155,-2.08471 0.9601,-1.14656 2.23253,-2.08467 2.82764,-2.08467 0.59506,0 1.08194,-0.28631 1.08194,-0.63599 0,-0.96542 3.8832,-4.44275 5.31139,-4.75627 2.37328,-0.52102 7.17489,-0.19513 8.62644,0.58552 1.10082,0.59201 1.57924,0.57392 1.97824,-0.0749 0.28939,-0.47062 0.83965,-0.66105 1.2227,-0.4232 0.84944,0.52754 1.71547,-1.47997 1.08246,-2.50919 -0.26809,-0.43581 -0.12682,-0.53592 0.34369,-0.24382 0.44083,0.27387 0.83793,0.0884 0.88667,-0.41382 0.0485,-0.50028 0.2038,-1.53502 0.34478,-2.29941 0.14093,-0.76439 0.35921,-2.3491 0.48463,-3.52162 0.12544,-1.17249 0.44215,-2.4799 0.70381,-2.90528 0.26155,-0.42541 0.12613,-0.99052 -0.30109,-1.2558 -0.55028,-0.3419 -0.50316,-0.65646 0.16155,-1.0797 0.66487,-0.42335 0.69137,-0.60052 0.0911,-0.60805 -0.59627,-0.007 -0.66927,-0.48115 -0.24642,-1.59864 0.71443,-1.88826 -0.27324,-3.54157 -2.54953,-4.26753 -0.85982,-0.27421 -1.39474,-0.77274 -1.18863,-1.10781 0.43683,-0.71027 -0.97915,-6.99757 -1.77612,-7.8863 -0.94879,-1.05797 -5.9172,-1.66021 -6.99568,-0.84799 -0.55307,0.41657 -1.59773,1.77367 -2.32141,3.0158 -0.72372,1.24212 -1.71198,2.25838 -2.19613,2.25838 -1.45006,0 -3.69517,-2.27516 -4.77592,-4.83989 -0.55806,-1.32429 -1.39154,-2.64847 -1.85224,-2.94268 -0.53499,-0.34157 -0.27563,-0.53873 0.71837,-0.54551 0.8558,-0.007 1.55596,-0.24934 1.55596,-0.54075 0,-0.29149 -0.70016,-0.84314 -1.55596,-1.22569 -2.70884,-1.21095 -0.70774,-6.64296 2.05477,-5.57776 0.48636,0.18752 0.88429,-0.10845 0.88429,-0.65774 0,-0.60228 0.41178,-0.83995 1.0373,-0.59876 0.66254,0.25557 1.0373,-0.0139 1.0373,-0.74114 0,-2.0059 2.11132,-4.46438 4.23673,-4.93348 2.33818,-0.51605 2.30261,-2.15817 -0.0409,-1.89093 -1.38526,0.15783 -1.42801,0.0722 -0.45231,-0.90834 0.97572,-0.98044 0.94778,-1.22274 -0.29557,-2.56389 -1.3623,-1.46934 -1.6333,-2.18579 -1.4331,-3.78861 0.0571,-0.45778 -0.58143,-1.20089 -1.41915,-1.65142 -0.83768,-0.450483 -3.10376,-2.342714 -5.0357,-4.204944 -1.93191,-1.86222 -3.70799,-3.386153 -3.94681,-3.386575 -0.23887,-3.64e-4 -1.63919,-0.519492 -3.11192,-1.153579 -2.61272,-1.124871 -7.86382,-1.305526 -8.5554,-0.294249 -0.19041,0.278368 -0.92873,0.722745 -1.64072,0.987392 -1.01267,0.376443 -1.20489,0.93141 -0.88295,2.54898 0.28492,1.431248 0.15123,2.016219 -0.43433,1.900278 -0.46824,-0.09252 -0.94563,0.706814 -1.0693,1.790907 -0.29523,2.58797 -5.68473,6.20047 -8.35988,5.60345 -2.54983,-0.56909 -5.3939,-3.88408 -6.31524,-7.360965 -0.43439,-1.639285 -1.2238,-3.46987 -1.75418,-4.067972 -0.53039,-0.598092 -1.30986,-2.083466 -1.73216,-3.300757 -0.42232,-1.21729 -1.0486,-2.213285 -1.39175,-2.213285 -0.34301,0 -0.62387,-0.331196 -0.62387,-0.735925 0,-0.404729 0.24678,-0.582731 0.54809,-0.395507 0.9543,0.592632 0.8296,-3.330456 -0.1471,-4.626121 -1.32693,-1.760441 -3.69317,-2.027376 -5.781801,-0.652217 -2.563652,1.68792 -13.280899,1.701425 -15.132518,0.02072 -1.037438,-0.942567 -1.834397,-1.05732 -3.974543,-0.572301 -3.396285,0.76971 -4.844552,2.178124 -4.232458,4.116018 0.256733,0.812532 0.773101,1.287022 1.147698,1.054423 1.253178,-0.778305 4.040292,0.34087 3.615966,1.452168 -0.477937,1.251596 -1.701354,1.391462 -1.457572,0.166816 0.0952,-0.47777 -0.293854,-0.747288 -0.864429,-0.598956 -0.570486,0.148155 -2.074123,0.214813 -3.341356,0.148155 -1.439323,-0.07602 -2.137741,0.148853 -1.860933,0.598966 0.243684,0.396263 1.348592,0.720486 2.455249,0.720486 1.537415,0 1.914582,0.255228 1.598795,1.082256 -0.227176,0.595264 -0.809264,0.929613 -1.293222,0.742977 -1.079192,-0.416121 -1.946886,2.461049 -0.932231,3.091188 0.443982,0.275598 0.300393,0.6125 -0.371772,0.871667 -0.602428,0.232422 -1.095319,0.763317 -1.095319,1.180057 0,0.41675 0.311046,0.564464 0.691547,0.328093 0.380363,-0.236224 0.691547,-0.09843 0.691547,0.306338 0,0.404758 0.544585,0.745432 1.210221,0.757031 1.136145,0.02072 1.13766,0.06355 0.02404,0.715448 -0.942689,0.552167 -1.048853,1.054943 -0.518675,2.456246 0.853267,2.255143 0.869316,8.620423 0.02062,8.620423 -0.354727,0 -0.843914,0.62994 -1.087109,1.39989 -0.243333,0.76992 -0.69316,1.24399 -0.999906,1.05349 -0.306922,-0.19063 -1.524396,0.13815 -2.705775,0.73037 -1.973969,0.98953 -2.31811,0.97582 -4.246924,-0.16923 -1.197115,-0.71057 -1.947882,-1.64136 -1.747379,-2.16634 0.193505,-0.50627 0.06734,-0.74401 -0.280112,-0.5283 -0.895353,0.55603 -4.661585,-3.08701 -5.501608,-5.32168 -1.054972,-2.80644 -3.853434,-4.4248 -5.973132,-3.454301 -0.930794,0.426145 -2.154895,0.596441 -2.72027,0.378413 -1.872515,-0.722014 -5.566927,2.292138 -7.103511,5.795578 -0.801905,1.82837 -1.630043,3.87624 -1.84031,4.5508 -0.210336,0.67459 -1.165877,1.52587 -2.12355,1.89174 -1.519128,0.58035 -1.725006,1.04444 -1.613818,3.63776 0.07008,1.6349 -0.09588,3.63483 -0.368683,4.44429 -0.617099,1.83044 0.56211,5.12975 1.833439,5.12975 0.520043,0 1.534834,1.0996 2.255078,2.4435 0.738471,1.37792 1.690709,2.29656 2.183532,2.10649 0.505705,-0.19512 0.873939,0.19237 0.873939,0.91977 0,0.85411 0.90372,1.55644 2.820668,2.19218 1.728271,0.57313 3.845556,2.1054 5.467007,3.9564 1.45548,1.66153 2.75354,2.69858 2.88456,2.30456 0.130942,-0.39402 0.268765,0.72035 0.306228,2.47641 0.04017,1.89852 0.460862,3.45758 1.037301,3.84598 0.641475,0.43218 0.100017,0.50222 -1.600652,0.20687 -1.887528,-0.32775 -2.864827,-0.1499 -3.679995,0.6691 -1.488848,1.49611 -2.190882,1.40565 -3.156081,-0.40656 l -0.810535,-1.52183 -1.287299,1.59747 c -0.955102,1.18517 -1.722876,1.4876 -2.974921,1.17184 -0.928145,-0.23416 -1.881106,-0.11086 -2.117675,0.27387 -0.285957,0.46469 -0.896107,0.44876 -1.81872,-0.0473 -1.143544,-0.61494 -1.673625,-0.43771 -3.003587,1.00428 -1.77332,1.92274 -1.772909,1.71829 -0.02746,12.45995 1.281669,7.88059 1.997759,10.08831 3.454304,10.64994 0.576234,0.22206 1.047681,1.16331 1.047681,2.09136 0,1.44241 0.190748,1.58477 1.313972,0.98074 1.012045,-0.54427 1.411722,-0.4506 1.739511,0.40769 0.312415,0.81826 0.968082,1.00532 2.46731,0.70403 1.487548,-0.29909 2.216686,-0.0964 2.686178,0.74673 0.596994,1.07197 0.941888,1.05895 4.690085,-0.17717 2.22514,-0.73383 4.787864,-1.88974 5.694946,-2.56869 2.189436,-1.63881 2.660229,-1.57185 4.815838,0.68533 1.008399,1.05588 2.576064,2.3994 3.483694,2.98562 1.320022,0.85255 1.650275,1.66522 1.650275,4.061 0,3.17169 -0.84102,4.20774 -3.430446,4.22598 -0.980348,0.007 -1.508914,0.43871 -1.501388,1.22669 0.0068,0.66882 -0.359956,2.53685 -0.814044,4.15117 -1.295901,4.60691 -0.330634,6.67182 5.25241,11.23536 1.118552,0.91431 2.557045,2.1161 3.196692,2.67062 0.639618,0.55454 2.245216,1.10932 3.568034,1.23285 1.322778,0.12365 3.007937,0.54882 3.744747,0.94509 0.871955,0.4689 1.575563,0.48343 2.015225,0.0417 0.439642,-0.44178 1.117682,-0.18787 1.941969,0.72741 0.696571,0.77343 1.818377,1.40624 2.492986,1.40624 0.674569,0 1.659736,0.43532 2.189231,0.96738 0.529494,0.53208 1.563081,1.12119 2.29691,1.30917 0.73378,0.18788 1.430322,0.37807 1.547863,0.42241 0.117542,0.0442 0.02062,-0.23208 -0.213785,-0.61433 z m -8.118644,-8.73695 c -0.258453,-0.25971 -1.467951,-0.58908 -2.687615,-0.73178 -2.42449,-0.28355 -3.024543,-0.65498 -3.024543,-1.87155 0,-0.44068 -0.622406,-0.91552 -1.383094,-1.05525 -0.760697,-0.13988 -2.394454,-1.01985 -3.630577,-1.95582 -1.875575,-1.4202 -2.247523,-2.15954 -2.247523,-4.46787 0,-1.81763 0.355645,-2.90314 1.037301,-3.166 0.570536,-0.21999 1.03734,-0.76431 1.03734,-1.20965 0,-0.44532 0.943402,-1.95976 2.096466,-3.36538 1.6332,-1.99097 2.004151,-2.98571 1.678708,-4.50144 -1.018643,-4.74412 -2.6139,-7.11261 -6.783707,-10.07173 -5.352173,-3.79819 -6.685672,-4.16233 -10.774737,-2.9421 -1.831651,0.54657 -5.288535,1.07158 -7.681944,1.1667 -4.177324,0.16612 -4.400903,0.0895 -5.580805,-1.91179 -1.70848,-2.89758 -2.187962,-6.29538 -1.143301,-8.10134 1.346873,-2.32833 3.187798,-4.05934 4.317151,-4.05934 1.097234,0 6.1306,-1.75966 8.167709,-2.85545 0.681108,-0.36637 1.511534,-0.49642 1.845471,-0.28907 0.334064,0.20722 0.824864,-0.642 1.090989,-1.88743 0.266018,-1.24548 0.811151,-2.88988 1.21111,-3.65427 0.638036,-1.21927 0.673642,-2.88197 0.230958,-10.77089 -0.104824,-1.86906 -1.723245,-4.47295 -2.850496,-4.58646 -2.554503,-0.2573 -9.046683,-2.79246 -10.673735,-4.16816 -2.258654,-1.90976 -4.474354,-6.10158 -4.554158,-8.61594 -0.05043,-1.58891 1.41224,-5.42283 2.386656,-6.25588 0.223402,-0.19099 1.263694,-1.67646 2.311513,-3.30076 1.646091,-2.55183 2.235695,-2.95332 4.337352,-2.95332 1.683653,0 2.57107,0.3743 2.883182,1.21609 0.651102,1.75602 3.820407,5.01727 4.478576,4.6085 0.307606,-0.19098 0.559472,0.11363 0.559472,0.67687 0,0.56336 1.455508,2.31171 3.234506,3.88525 3.611704,3.19459 4.634705,3.27703 9.904748,0.79823 4.877393,-2.29406 7.201495,-3.87592 7.979756,-5.43129 0.395181,-0.78984 1.133467,-1.93844 1.640618,-2.55249 0.507161,-0.61406 0.615975,-1.11646 0.241622,-1.11646 -0.374176,0 -0.532593,-0.77654 -0.352048,-1.72566 0.180447,-0.94909 0.08797,-2.27807 -0.205527,-2.95329 -0.293854,-0.67522 -0.47131,-1.50215 -0.394741,-1.83764 0.07663,-0.33534 -0.496077,-0.44299 -1.272589,-0.23898 -0.776542,0.20411 -1.586148,0.0877 -1.799133,-0.25867 -0.213092,-0.346335 0.09002,-0.629672 0.673563,-0.629672 0.79995,0 0.962931,-0.491968 0.662685,-2.000432 -0.233715,-1.173919 -0.06979,-2.204338 0.396656,-2.49399 0.587748,-0.365021 0.560869,-0.783736 -0.103105,-1.607454 -0.673162,-0.834983 -0.681548,-0.983208 -0.0344,-0.592013 0.475435,0.286991 0.90333,0.190633 0.95086,-0.214125 0.0474,-0.404758 0.125449,-1.032982 0.172882,-1.396059 0.223746,-1.710195 1.988239,-2.354359 5.997802,-2.18994 4.425416,0.181323 11.019605,-1.116169 11.885229,-2.338881 0.287668,-0.406153 0.512655,-0.129514 0.518666,0.637398 0.0068,1.053931 0.194883,1.169735 0.840431,0.52119 1.21686,-1.22276 2.62945,-1.016512 2.61728,0.382169 -0.0104,1.01995 -0.11446,1.051211 -0.65395,0.193747 -0.35382,-0.562215 -0.83068,-0.833972 -1.05964,-0.603897 -0.2289,0.230007 0.0877,0.924604 0.70333,1.543389 1.00898,1.01387 1.01166,1.125078 0.0275,1.125078 -0.8293,0 -0.93458,0.292863 -0.43695,1.216052 0.91183,1.69127 1.67028,5.111346 1.50751,6.797636 -0.0753,0.780839 0.66262,2.110264 1.65067,2.973524 0.98286,0.85871 1.60027,1.86492 1.37202,2.23601 -0.22821,0.37106 0.18388,0.6747 0.91571,0.6747 0.73186,0 2.07278,0.56729 2.97985,1.26064 2.51871,1.92529 6.49174,3.6036 8.53064,3.6036 2.02924,0 5.91212,-1.78403 5.91212,-2.71636 0,-0.32776 0.65372,-0.76778 1.45266,-0.97772 0.79894,-0.20998 1.26066,-0.69387 1.02602,-1.07539 -0.23474,-0.38152 -0.11033,-0.89006 0.27633,-1.13013 0.38655,-0.24002 0.70283,-1.0434 0.70283,-1.78524 0,-0.74184 0.23748,-1.34878 0.52757,-1.34878 0.29006,0 0.83473,-0.687709 1.21017,-1.528218 0.46846,-1.048716 1.43462,-1.611275 3.0792,-1.792941 1.31809,-0.145739 2.95648,-0.565838 3.64085,-0.933894 0.91368,-0.491344 1.34866,-0.39588 1.63704,0.359285 0.2368,0.62023 0.85036,0.856296 1.5457,0.594743 0.90979,-0.342255 0.99708,-0.223102 0.41399,0.565053 -0.40645,0.54929 -0.79249,1.865118 -0.8579,2.924062 -0.0962,1.55879 0.32892,2.13992 2.23291,3.05227 2.01051,0.96339 2.32648,1.44029 2.17741,3.28639 -0.26843,3.32393 -1.40437,5.48806 -3.8736,7.37961 -6.59973,5.05568 -7.85565,8.02378 -4.59915,10.869 1.34956,1.17914 3.36621,5.36253 4.8453,10.05122 0.40817,1.29383 3.54734,2.1054 4.48792,1.16021 0.34827,-0.34995 1.99806,-0.53803 3.66623,-0.41796 2.46597,0.17752 3.01268,0.45982 2.92435,1.5102 -0.097,1.15348 0.29387,1.25356 3.64618,0.93393 4.11062,-0.39192 6.28989,0.7763 5.41316,2.90176 -0.25571,0.61954 -0.56476,2.34645 -0.68709,3.83755 -0.12236,1.4911 -0.59946,2.94528 -1.06033,3.23147 -0.46086,0.28632 -0.86979,1.41149 -0.90866,2.50063 l -0.0708,1.98024 -7.36251,0.1965 -7.36252,0.19651 -2.20027,2.7125 c -1.21014,1.49186 -2.1981,2.96697 -2.19545,3.27797 0.003,0.31117 -0.44048,1.05991 -0.98471,1.66422 -1.11605,1.23919 0.88232,2.72318 -0.21437,2.72318 -1.27534,0 -2.14778,0.43826 -2.4208,1.21608 -0.23475,0.66883 -0.59787,1.57568 -0.80679,2.01519 -0.21103,0.44413 0.48031,1.10426 1.55641,1.48594 l -0.82985,1.93234 c -1.966,0.88527 -2.41366,1.32491 -1.54752,1.51997 0.67028,0.15092 1.04931,0.54978 0.84229,0.88636 -0.20689,0.33639 -0.83321,0.43582 -1.39155,0.2207 -0.55832,-0.21516 -1.01517,-0.0356 -1.01517,0.39961 0,0.43506 0.46681,0.97102 1.03731,1.19102 0.57054,0.21999 1.03734,0.95848 1.03734,1.64108 0,0.68261 0.44271,1.41183 0.98386,1.62047 0.72801,0.28078 0.90433,-0.0611 0.67801,-1.31545 -0.16807,-0.93212 -0.007,-1.69481 0.35951,-1.69481 0.36595,0 0.55536,0.57388 0.42094,1.2753 -0.34696,1.81036 0.38581,2.70881 2.6814,3.28778 1.27559,0.32153 1.84334,0.25245 1.57024,-0.19168 -0.25055,-0.4075 0.39436,-0.66523 1.55773,-0.62252 2.1275,0.0781 2.20184,1.11525 0.08,1.11525 -1.42836,0 -2.41892,1.80945 -1.35299,2.47144 0.38195,0.23725 0.60954,0.95078 0.50575,1.58576 -0.1038,0.63498 0.0626,1.5571 0.36947,2.04917 0.62409,1.0002 -3.02506,5.64047 -5.60642,7.12909 -0.85575,0.49351 -1.55596,1.522 -1.55596,2.28549 0,0.76349 -0.20484,1.18241 -0.45502,0.93096 -0.25021,-0.25143 -0.8281,-0.14609 -1.28407,0.23415 -1.0744,0.89597 -4.44823,0.20066 -6.21361,-1.28033 -0.7607,-0.63819 -2.09829,-2.56751 -2.97243,-4.28741 -0.87416,-1.71987 -2.73863,-4.37742 -4.14334,-5.90576 -2.27842,-2.47893 -2.89034,-2.77286 -5.67182,-2.72451 -7.44771,0.12951 -15.219857,1.69945 -15.219857,3.07437 0,0.29115 -0.653702,0.70133 -1.452655,0.91127 -0.798953,0.20999 -1.25919,0.69624 -1.022758,1.08067 0.236452,0.38446 0.01711,0.95271 -0.489705,1.26285 -0.861848,0.52847 -2.833862,4.58312 -2.978038,6.12305 -0.23784,2.53931 -2.897784,6.60151 -4.322916,6.60151 -0.375828,0 -0.787058,0.28942 -0.913846,0.64351 -0.300051,0.83788 -3.590778,1.6549 -4.199911,1.04282 z m 27.34817,-37.07494 c 1.02438,-0.39137 1.86251,-1.06544 1.86251,-1.49801 0,-0.43253 0.43636,-0.61816 0.9697,-0.41254 1.40966,0.54357 1.92049,-0.27905 0.92601,-1.49109 -0.74835,-0.91217 -0.65865,-0.93939 0.69956,-0.21206 1.68554,0.9025 1.51889,0.98456 5.97434,-2.94237 2.67143,-2.35454 2.67916,-2.37611 1.0373,-2.8915 -1.83718,-0.57668 0.091,-0.87031 1.0516,-1.67141 0.80988,-0.67539 1.03614,-1.69362 0.80483,-3.62198 -0.177,-1.47531 -0.0275,-2.68242 0.33131,-2.68242 0.81999,0 0.86532,-3.26065 0.0523,-3.76551 -0.33029,-0.20514 -0.84451,-1.70899 -1.1425,-3.34178 -0.29798,-1.63281 -0.59835,-3.12504 -0.66743,-3.31617 -1.6468,-4.55496 -4.98693,-8.54354 -8.78513,-10.49063 -1.47534,-0.75633 -2.98299,-1.18851 -3.3503,-0.96041 -0.3673,0.22829 -0.66779,0.10776 -0.66779,-0.26731 0,-1.05511 -4.63139,-2.34092 -6.38591,-1.77294 -0.86178,0.27905 -2.49013,0.58328 -3.618586,0.67625 -1.128485,0.0929 -2.159951,0.49518 -2.292202,0.89383 -0.13232,0.39861 -0.61229,0.58138 -1.066828,0.40615 -0.454529,-0.1751 -2.036415,0.30115 -3.515304,1.05884 -1.478917,0.75766 -2.910705,1.23981 -3.181786,1.07145 -0.271169,-0.16819 -1.858802,0.93185 -3.528293,2.44484 -1.669491,1.513 -3.391164,2.75533 -3.8259,2.76072 -1.280673,0.0173 -1.658808,1.95098 -1.18049,6.04065 0.331328,2.83164 0.208283,3.98422 -0.47045,4.40566 -0.50547,0.31394 -0.968248,1.2423 -1.028436,2.06312 -0.09315,1.26931 0.298917,4.42218 1.159417,5.92734 0.214812,0.37547 0.610022,1.62077 0.878562,2.76738 0.795307,3.39604 2.257893,5.17278 3.983241,4.83892 0.842594,-0.16301 1.70241,-0.066 1.910693,0.21585 1.039197,1.40586 6.09515,4.66407 8.932649,5.75648 3.454991,1.33016 10.665283,1.33562 14.133263,0.0104 z m -12.841801,-6.27166 c -6.092219,-3.88231 -9.302662,-10.80764 -7.597868,-16.3894 0.442741,-1.44959 0.458526,-2.53609 0.04291,-2.95377 -1.194446,-1.20023 1.620338,-5.95126 3.933473,-6.63926 1.141022,-0.3395 3.163812,-1.11269 4.495006,-1.71848 3.24773,-1.47794 4.88901,-1.57834 6.71819,-0.41095 0.84243,0.53762 2.33472,0.97751 3.31627,0.97751 0.98172,0 2.56272,0.7819 3.51417,1.73792 1.88282,1.89196 5.10541,8.3217 5.11624,10.20802 0.003,0.64628 0.30623,1.36101 0.67222,1.58831 0.7233,0.44918 -0.48708,3.83587 -1.66867,4.66898 -0.3771,0.26593 -0.46604,0.70399 -0.19762,0.97361 0.26842,0.26973 -0.0519,0.88686 -0.71155,1.37157 -0.65973,0.48471 -1.24132,1.14104 -1.29249,1.45849 -0.45746,2.83829 -1.32137,3.55944 -6.37368,5.32051 -2.93205,1.02199 -5.64975,1.85821 -6.03929,1.85821 -0.38954,0 -2.156781,-0.92308 -3.927152,-2.05127 z"
       id="path3123"
       sodipodi:nodetypes="csssscsssscsssssssssssssssssscssscsssssssssssssssssssscscssssssssscsssssssssssssssssscssssssscsscsssssscsssssssssccssssssssssssssscssssssscsscscsscsscsssssssssssscssssssssssscccsssssssssssssssscsssssssssssssssssscssssssscscsscccssssssssssssssssssssssssssssssssssssscccscsssssssssssssssscssssscssssssssssscssscccssssssssssscsssssssscscsssssscsccsssssssscsssssssss" />
    <path
       style="opacity:0.930349;fill:#ff0000;stroke-width:0.286409"
       d="m 81.383826,202.25881 c -4.015593,-0.98301 -3.830005,-0.89755 -4.083385,-1.88015 -0.19588,-0.75956 -0.478152,-1.01061 -1.612049,-1.43365 -1.917554,-0.71544 -4.416522,-2.44193 -5.053315,-3.49123 -0.385299,-0.63492 -0.535291,-1.43309 -0.536063,-2.85261 -9.77e-4,-1.88643 0.04183,-2.01049 0.998948,-2.8914 0.55001,-0.50626 1.000013,-1.09348 1.000013,-1.30501 0,-0.21152 0.781321,-1.46518 1.736257,-2.7859 2.177541,-3.01164 2.394777,-3.72253 1.824896,-5.9718 -1.071001,-4.2272 -2.830549,-6.6413 -6.990514,-9.59094 -4.595844,-3.25871 -6.61665,-3.7944 -10.427976,-2.76436 -2.183953,0.59025 -7.220984,1.28461 -9.371471,1.29188 -2.332185,0.008 -3.07783,-0.47454 -4.165917,-2.69552 -1.055941,-2.15531 -1.522911,-4.51488 -1.188446,-6.00506 0.268569,-1.1966 1.988289,-3.66636 3.113516,-4.47147 0.425871,-0.30471 1.28426,-0.64757 1.907536,-0.7619 1.43513,-0.26324 5.636966,-1.73479 7.121963,-2.49418 0.622328,-0.31828 1.519539,-0.59827 1.993781,-0.62224 0.981746,-0.0496 1.120419,-0.27139 2.350453,-3.75906 0.787312,-2.23239 0.809497,-2.45397 0.79048,-7.89537 -0.0211,-6.0454 -0.153501,-6.72607 -1.656414,-8.51697 -0.540647,-0.64424 -1.114506,-0.96789 -1.971897,-1.11212 -1.682637,-0.28303 -5.700038,-1.73576 -7.957208,-2.87739 -2.308151,-1.16741 -3.889149,-2.8965 -5.333476,-5.83309 -1.350361,-2.74552 -1.437418,-4.78501 -0.308604,-7.22991 1.080297,-2.3398 5.089783,-7.99953 6.003365,-8.47425 0.917267,-0.47662 3.179372,-0.54042 3.975833,-0.1121 0.303442,0.16319 0.808248,0.80198 1.121777,1.41952 0.727955,1.43385 3.29622,4.02587 3.988959,4.02587 0.337798,0 0.643938,0.32877 0.84451,0.90693 0.418345,1.20588 4.224325,4.88903 5.888713,5.69866 1.725711,0.83944 3.077763,0.65944 6.554293,-0.87263 2.648616,-1.16725 6.370923,-3.27279 7.456214,-4.21769 0.548798,-0.47779 2.609354,-3.4312 3.304371,-4.73615 0.231702,-0.43503 0.222182,-0.63984 -0.03724,-0.80096 -0.209593,-0.13013 -0.38136,-1.05982 -0.430885,-2.33208 -0.04525,-1.16362 -0.19588,-2.63244 -0.334631,-3.26407 l -0.252286,-1.14841 -1.322221,0.0836 c -1.528384,0.0966 -1.969063,-0.27886 -0.901091,-0.767826 0.702748,-0.321735 0.727984,-0.411669 0.539953,-1.923983 -0.154429,-1.242011 -0.09403,-1.744786 0.278059,-2.315457 0.279125,-0.428065 0.407203,-1.001701 0.310284,-1.389744 -0.10937,-0.437856 -0.02111,-0.716262 0.261503,-0.82525 0.234594,-0.09045 0.426535,-0.483104 0.426535,-0.87255 0,-1.266515 0.538008,-2.19655 1.498212,-2.589945 0.561133,-0.229899 2.688065,-0.442512 5.359034,-0.535667 4.626418,-0.161375 7.768639,-0.681348 9.934295,-1.64396 1.58359,-0.703898 1.494442,-0.712737 1.494442,0.148194 0,0.830171 0.445898,0.920911 1.191808,0.242608 0.49211,-0.447531 0.52251,-0.435912 0.52251,0.199619 0,0.37113 0.34548,1.037137 0.76774,1.480012 l 0.76776,0.805244 h -0.76776 c -0.94582,0 -0.9476,0.148362 -0.0322,2.692775 0.40452,1.124448 0.80803,2.948827 0.89668,4.054183 0.18637,2.323697 0.58943,3.263887 2.1204,4.946117 0.60754,0.6676 1.10463,1.46373 1.10463,1.76918 0,0.42513 0.27073,0.60135 1.15436,0.75136 0.63491,0.10779 1.82421,0.65466 2.6429,1.21524 0.81869,0.5606 2.5814,1.54826 3.91713,2.19481 2.23378,1.08121 2.61197,1.1745 4.71435,1.16291 2.64535,-0.0145 4.53564,-0.71289 5.89872,-2.17916 0.45987,-0.49466 1.24938,-1.10689 1.75448,-1.36048 0.59436,-0.29839 0.91835,-0.67258 0.91835,-1.06064 0,-0.32978 0.17228,-0.80919 0.38284,-1.06538 0.21056,-0.25619 0.45398,-0.99881 0.54094,-1.65027 0.087,-0.65147 0.33595,-1.25306 0.55332,-1.33687 0.21738,-0.0839 0.7079,-0.686356 1.09007,-1.338963 0.86974,-1.485178 1.35995,-1.787656 3.54136,-2.185137 0.96115,-0.175145 2.28763,-0.509916 2.94773,-0.743939 1.17389,-0.416161 1.21532,-0.4091 1.89044,0.322533 0.51653,0.55973 0.86475,0.704006 1.38354,0.573166 0.67396,-0.169969 0.68207,-0.152615 0.29123,0.623087 -0.5563,1.104079 -0.83446,2.837273 -0.61586,3.837383 0.1431,0.65468 0.60854,1.08763 2.12774,1.9792 2.26088,1.32683 2.4668,1.77953 1.996,4.38842 -0.55463,3.07346 -1.21005,4.00837 -5.07327,7.23657 -2.6769,2.2369 -4.45267,4.37673 -4.80598,5.79126 -0.32286,1.29263 0.16851,2.58586 1.61261,4.24412 1.5005,1.723 3.21321,5.04471 4.26549,8.27265 0.3792,1.16322 0.90567,2.15203 1.32029,2.47974 1.02103,0.80706 2.48112,0.99437 3.71446,0.47655 0.6338,-0.26609 1.91691,-0.44082 3.23724,-0.44082 2.47566,0 3.4573,0.45296 3.4573,1.59534 0,0.82689 -0.19851,0.78762 4.14292,0.81969 3.46196,0.0254 4.48036,0.29044 4.85127,1.26173 0.14019,0.36708 -0.40124,3.91647 -1.00724,6.60308 -0.15335,0.67983 -0.55846,1.61615 -0.90026,2.0807 -0.42221,0.57385 -0.66122,1.39715 -0.74551,2.56807 l -0.12406,1.72342 h -3.06313 c -1.68473,0 -5.00716,0.0846 -7.38319,0.1879 l -4.32005,0.18788 -1.85387,2.35066 c -1.01962,1.29287 -2.01699,2.72638 -2.21638,3.1856 -0.19938,0.45918 -0.67003,1.31492 -1.04587,1.90158 -0.57393,0.89588 -0.63648,1.20184 -0.39059,1.9106 0.27993,0.8069 0.25171,0.85165 -0.64367,1.02046 -1.11305,0.2098 -1.62074,0.74844 -2.25463,2.392 -0.4524,1.17295 -0.44845,1.24478 0.0985,1.7944 0.31338,0.31489 0.69628,0.57254 0.85088,0.57254 0.62119,0 -0.68911,1.962 -1.60266,2.39976 -1.15466,0.55329 -1.2071,0.84211 -0.23378,1.28774 1.00969,0.46229 0.59601,0.9668 -0.60681,0.74005 -0.77661,-0.1464 -1.01431,-0.08 -1.16954,0.32643 -0.14069,0.3684 0.0892,0.75606 0.82738,1.39513 0.60774,0.52615 1.10013,1.26313 1.21443,1.8177 0.1721,0.83491 1.04873,1.79474 1.63918,1.79474 0.12218,0 0.22215,-0.71057 0.22215,-1.57907 0,-0.86849 0.12856,-1.57907 0.28571,-1.57907 0.15714,0 0.28572,0.58988 0.28572,1.31085 0,0.72095 0.12482,1.54519 0.27738,1.83166 0.58436,1.09716 4.29412,1.97881 4.29412,1.02051 0,-0.30703 0.30757,-0.42939 1.07144,-0.42627 1.30038,0.006 2.08329,0.39365 1.35775,0.67341 -0.26175,0.10094 -0.77749,0.18351 -1.1461,0.18351 -0.64605,0 -1.85454,1.17979 -1.85454,1.81051 0,0.16366 0.21632,0.53775 0.48071,0.83129 0.27789,0.30857 0.57729,1.3401 0.70967,2.44507 0.21812,1.82052 0.18841,1.97491 -0.62543,3.24933 -0.73827,1.15607 -2.22257,2.6779 -5.49359,5.63248 -0.50488,0.45604 -0.78572,0.99949 -0.78572,1.52039 0,0.68288 -0.14641,0.8417 -0.92859,1.00736 -2.47669,0.5246 -3.56154,0.49384 -5.03413,-0.14271 -1.80045,-0.7783 -2.69374,-1.77394 -4.76605,-5.31218 -1.83454,-3.13227 -4.47627,-6.54287 -5.88386,-7.5963 -0.93452,-0.69941 -1.07964,-0.71736 -5.67341,-0.70252 -6.67297,0.0216 -12.043152,1.07056 -13.672152,2.67068 -0.445839,0.43794 -1.226172,0.96919 -1.734086,1.18061 -0.69143,0.28779 -0.887769,0.52161 -0.78135,0.93052 0.08894,0.34169 -0.169686,0.90304 -0.690775,1.4994 -1.03604,1.1857 -2.522103,4.33127 -2.742105,5.80422 -0.387215,2.59254 -3.087321,6.70465 -4.402408,6.70465 -0.290843,0 -0.659185,0.24482 -0.81854,0.54402 -0.619767,1.16366 -2.623116,1.40847 -5.587588,0.68277 z m 26.452404,-35.80054 c 2.43689,-0.43684 3.8147,-1.04803 4.26391,-1.89145 0.21464,-0.40304 0.59839,-0.57124 1.30316,-0.57124 1.0673,0 1.60034,-0.64091 1.01894,-1.22513 -0.62034,-0.62334 -0.31729,-0.79604 0.57936,-0.33011 0.81523,0.42361 0.9888,0.42682 1.78573,0.0327 1.19911,-0.59296 6.16852,-5.02659 6.16852,-5.50348 0,-0.2104 -0.38572,-0.51767 -0.85715,-0.6828 -1.07217,-0.37557 -1.06969,-0.49204 0.0225,-1.05957 1.25259,-0.65089 1.78606,-2.09835 1.54443,-4.1904 -0.16286,-1.41001 -0.0996,-1.82235 0.40579,-2.64402 0.75683,-1.23053 0.76254,-2.58135 0.016,-3.79505 -0.32048,-0.5211 -0.90816,-2.39919 -1.30593,-4.17355 -0.80447,-3.58847 -1.69001,-5.5724 -3.66671,-8.21476 -2.23472,-2.98727 -6.41829,-5.82371 -8.59041,-5.82428 -0.5355,-1.5e-4 -0.98789,-0.20625 -1.19927,-0.54635 -0.46222,-0.74373 -3.02861,-1.56462 -4.94098,-1.58045 -2.05403,-0.0169 -6.485601,0.85555 -7.398733,1.45674 -0.394722,0.2599 -1.144443,0.51101 -1.66605,0.55804 -0.521607,0.047 -1.958077,0.54362 -3.192147,1.10351 -1.23408,0.55992 -2.488275,1.01801 -2.787104,1.01801 -0.665617,0 -1.337098,0.45083 -4.14632,2.78382 -1.204563,1.00035 -2.655576,2.01424 -3.224479,2.25309 -1.502024,0.63065 -1.669559,1.33149 -1.441699,6.03085 0.176293,3.63579 0.146297,4.07477 -0.304088,4.45011 -0.913132,0.76099 -1.317745,2.21275 -1.104887,3.9644 0.20453,1.68304 2.307564,8.50625 3.090996,10.02859 0.733233,1.42479 1.860591,2.14816 3.090937,1.98331 0.940412,-0.12601 1.277799,0.0273 3.00004,1.36355 3.970086,3.08015 7.509785,4.84643 10.640769,5.30965 2.488245,0.36812 6.525105,0.32104 8.894845,-0.10376 z"
       id="path3125" />
    <path
       style="opacity:0.930349;fill:#ff0000;stroke-width:0.286409"
       d="m 98.70547,160.05355 c -4.222003,-2.39612 -7.437157,-6.19029 -8.652393,-10.21059 -0.605399,-2.00283 -0.611967,-2.74986 -0.06861,-7.81084 0.08474,-0.78955 0.0346,-1.75663 -0.111521,-2.14907 -0.396207,-1.06433 0.345646,-2.91544 1.835882,-4.58097 0.699748,-0.78206 1.55578,-1.50842 1.902307,-1.61413 0.346526,-0.10571 2.265311,-0.82315 4.263969,-1.59432 1.998661,-0.77119 4.027966,-1.40214 4.509556,-1.40214 0.48161,0 1.48726,0.31144 2.23479,0.69207 0.74753,0.38064 2.11285,0.8321 3.03403,1.00321 2.42727,0.45088 3.90434,1.43734 5.30258,3.54139 1.64683,2.4781 3.30057,6.06797 3.70233,8.0369 0.18471,0.90522 0.45576,1.72031 0.60233,1.81134 0.68782,0.42715 -0.19663,3.51761 -1.25967,4.40156 -0.26062,0.21672 -0.47386,0.74047 -0.47386,1.16388 0,0.49898 -0.34269,1.10358 -0.974,1.71846 -0.54724,0.53297 -1.05129,1.36256 -1.15038,1.89337 -0.40259,2.15635 -2.02168,3.19853 -8.08279,5.2027 -2.08794,0.69039 -3.89196,1.25527 -4.00894,1.25527 -0.11696,-3e-5 -1.28949,-0.61116 -2.605587,-1.35809 z"
       id="path3127" />
    <path
       style="opacity:0.930349;fill:#ffffff;stroke-width:0.286409"
       d="m 98.526079,166.18168 c -2.919593,-0.5615 -9.056117,-3.89492 -10.829309,-5.88254 -0.398377,-0.44657 -0.880888,-0.61012 -1.799924,-0.61012 -2.42794,0 -3.473549,-1.13851 -4.614346,-5.02431 -0.324506,-1.10536 -0.863256,-2.78058 -1.197223,-3.72268 -0.3481,-0.98203 -0.627322,-2.52049 -0.654347,-3.60537 -0.04232,-1.69879 0.03646,-1.99227 0.770159,-2.86866 l 0.817299,-0.97626 -0.202458,-4.06954 c -0.226932,-4.56172 -0.106028,-5.05478 1.393904,-5.68453 0.521548,-0.21899 1.770494,-1.09533 2.775453,-1.94748 2.822212,-2.39305 3.749009,-3.01666 4.769146,-3.20898 0.51806,-0.0976 1.868078,-0.58748 3.00004,-1.08851 1.131962,-0.50101 2.443833,-0.9074 2.91527,-0.90309 0.471437,0.005 1.125589,-0.23659 1.453672,-0.53535 0.723429,-0.65882 4.960765,-1.50839 7.415595,-1.48683 1.84722,0.0161 4.29917,0.88872 4.58247,1.63059 0.0972,0.25447 0.54905,0.4166 1.16114,0.4166 2.22185,0 6.5308,2.95839 8.76651,6.01881 1.65796,2.26956 2.93447,5.19802 3.46333,7.94525 0.27168,1.41134 0.82004,3.19272 1.2186,3.95862 0.76843,1.47672 0.77821,3.23444 0.0206,3.70629 -0.25573,0.15927 -0.36727,1.02394 -0.36727,2.84689 0,2.84655 0.0811,2.68635 -2.19695,4.34084 l -0.66023,0.47951 1.14287,0.48894 1.14288,0.48895 -2.28575,2.11887 c -1.25717,1.16539 -2.7748,2.46382 -3.37253,2.88541 l -1.08677,0.76652 -1.27805,-0.62394 c -1.66265,-0.81169 -1.70222,-0.79812 -1.00034,0.34304 0.32711,0.53185 0.59474,1.04863 0.59474,1.14841 0,0.0998 -0.4627,0.18146 -1.02824,0.18146 -0.76667,0 -1.22553,0.21222 -1.8038,0.83424 -0.44995,0.48404 -1.42769,1.03557 -2.32895,1.31372 -2.1064,0.6501 -8.06599,0.8313 -10.697221,0.32523 z m 7.501941,-5.96089 c 5.59905,-1.87303 6.89161,-2.69788 7.5719,-4.8321 0.32672,-1.02498 0.79947,-1.8073 1.35716,-2.24586 0.52652,-0.41408 0.85581,-0.93795 0.85581,-1.3616 0,-0.37869 0.39501,-1.25168 0.87781,-1.93993 1.08817,-1.5513 1.37472,-3.31446 0.74601,-4.59028 -0.24992,-0.50713 -0.53082,-1.40842 -0.62424,-2.00282 -0.25154,-1.60054 -3.07338,-7.06603 -4.47331,-8.66416 -1.29209,-1.475 -2.99984,-2.44031 -4.33564,-2.4507 -0.44509,-0.003 -1.72248,-0.40907 -2.83862,-0.90135 -1.64588,-0.72589 -2.27582,-0.86496 -3.33365,-0.73597 -1.69571,0.20674 -9.07015,3.1693 -9.96179,4.00199 -1.782272,1.66441 -2.726417,4.43349 -2.079361,6.09858 0.12496,0.32158 0.05776,1.26899 -0.152767,2.15328 -1.168996,4.91073 0.244837,9.70428 4.061257,13.76952 2.151503,2.29178 6.325691,5.10969 7.655551,5.16811 0.14065,0.006 2.2439,-0.65383 4.67388,-1.46671 z"
       id="path3129" />
    <path
       style="opacity:0.930349;fill:#ffffff;stroke-width:0.286409"
       d="m 89.669654,211.58575 c -0.471437,-0.17098 -1.4823,-0.74217 -2.246379,-1.26929 -0.76407,-0.52713 -1.677212,-0.95841 -2.029202,-0.95841 -0.351989,0 -1.076856,-0.31869 -1.610817,-0.70821 -0.533962,-0.38956 -1.270097,-0.92775 -1.635849,-1.19602 -0.515566,-0.37817 -0.836602,-0.42437 -1.428591,-0.20557 -0.57252,0.2116 -1.15238,0.1509 -2.317358,-0.24264 -0.854577,-0.28867 -2.381455,-0.65769 -3.39306,-0.8201 -1.011615,-0.16239 -2.196298,-0.48074 -2.632617,-0.70746 -1.188758,-0.61774 -5.928085,-4.69814 -7.628256,-6.56771 -1.686106,-1.85408 -2.195407,-3.17288 -2.017023,-5.22292 0.145642,-1.67374 1.062088,-6.39788 1.359236,-7.00662 0.11456,-0.23471 0.709687,-0.53271 1.322505,-0.66228 0.612827,-0.12959 1.401176,-0.29473 1.751895,-0.36702 1.024448,-0.21113 1.550326,-1.61837 1.550326,-4.14865 0,-1.23408 -0.136523,-2.50011 -0.303384,-2.81342 -0.166851,-0.31328 -0.916299,-1.02352 -1.665434,-1.57829 -0.749125,-0.55477 -1.74777,-1.42381 -2.219208,-1.93121 -1.223905,-1.31727 -2.994214,-2.5712 -3.629998,-2.5712 -0.29932,0 -1.396554,0.51654 -2.438312,1.14791 -2.084297,1.26319 -5.575273,2.69953 -7.835092,3.22369 -1.338798,0.31053 -1.493041,0.29111 -1.922598,-0.24193 -0.785679,-0.97498 -1.479962,-1.20238 -3.194218,-1.04618 -1.53593,0.13995 -1.66306,0.10246 -2.141925,-0.63195 -0.509087,-0.78071 -1.043078,-0.84693 -2.442045,-0.30271 -0.365575,0.14222 -0.501179,-0.0764 -0.655129,-1.05653 -0.145935,-0.92903 -0.467723,-1.48841 -1.296096,-2.25303 -0.772231,-0.71282 -1.241391,-1.48597 -1.567948,-2.58395 -1.062743,-3.57316 -3.17214,-16.84955 -2.87031,-18.06549 0.22743,-0.91624 1.388372,-2.46438 2.296275,-3.06213 0.635356,-0.41835 0.792326,-0.41692 1.87147,0.0169 1.079768,0.43413 1.235829,0.43547 1.872476,0.0164 0.505538,-0.33284 1.031808,-0.40643 1.934023,-0.27048 1.469407,0.2214 2.232051,-0.11715 3.464831,-1.53804 l 0.874262,-1.0077 0.780665,1.33858 c 0.949766,1.62852 1.629652,1.72246 3.217335,0.44458 1.083512,-0.8721 1.164988,-0.8899 3.325043,-0.72677 1.217875,0.092 2.214321,0.10218 2.214321,0.0226 0,-0.0795 -0.199272,-0.45025 -0.442819,-0.82377 -0.248767,-0.3815 -0.507074,-1.60379 -0.589449,-2.78918 -0.180964,-2.6042 -0.347454,-3.46625 -0.634975,-3.28768 -0.122057,0.0757 -1.39105,-0.99312 -2.819993,-2.37536 -1.617053,-1.56418 -3.166363,-2.77719 -4.103041,-3.21242 -3.578199,-1.66265 -3.81213,-1.8215 -4.041701,-2.74469 -0.16691,-0.67117 -0.422997,-0.93716 -1.017293,-1.05659 -0.582314,-0.11701 -1.158342,-0.69508 -2.158864,-2.1665 -0.892089,-1.31197 -1.649952,-2.10684 -2.188624,-2.29553 -1.062117,-0.37206 -1.812992,-1.83524 -1.790756,-3.48951 0.03782,-2.8172 0.43669,-8.20444 0.634594,-8.5722 0.115352,-0.21438 0.837716,-0.73116 1.605256,-1.14844 1.260342,-0.68519 1.483599,-0.96721 2.305023,-2.91196 1.809854,-4.28485 2.137262,-4.8759 3.579226,-6.46129 1.821172,-2.00233 3.360151,-2.847067 4.719836,-2.59077 0.61618,0.11615 1.513401,0.008 2.408354,-0.290917 2.679668,-0.894369 4.68034,0.190167 6.300589,3.415427 0.987004,1.96474 3.784859,4.94186 4.91123,5.22595 0.447051,0.11272 0.752077,0.38962 0.752077,0.68269 0,0.94448 2.718686,2.88701 4.043117,2.88891 0.416546,0 1.445139,-0.32066 2.285748,-0.71391 0.84062,-0.39321 1.878663,-0.71621 2.306782,-0.71775 0.590582,-0.003 0.891014,-0.22794 1.245145,-0.9359 0.256723,-0.51319 0.730349,-1.14283 1.052519,-1.3992 0.476871,-0.37947 0.610002,-0.88723 0.716265,-2.73167 0.07174,-1.24607 -0.0259,-3.16807 -0.217168,-4.27111 -0.68448,-3.948403 -0.691038,-3.712347 0.115079,-4.145842 0.972382,-0.522929 0.932778,-0.849578 -0.128899,-1.062938 -0.477009,-0.09586 -0.993269,-0.410808 -1.147229,-0.6999 -0.161036,-0.302351 -0.460099,-0.456105 -0.704145,-0.362006 -0.694245,0.267701 -0.49728,-0.700784 0.218643,-1.075057 0.353583,-0.184868 0.686817,-0.373517 0.740524,-0.419284 0.05376,-0.04577 -0.06627,-0.538634 -0.266575,-1.095319 -0.483332,-1.343121 -0.01964,-2.476075 1.013365,-2.476075 0.841499,0 1.849058,-1.284194 1.378519,-1.757004 -0.159823,-0.160609 -1.019522,-0.391392 -1.910428,-0.512872 -2.548864,-0.347589 -2.708678,-0.888275 -0.262538,-0.888275 1.111807,0 2.412487,-0.07857 2.890405,-0.174624 0.755136,-0.151759 0.881435,-0.08633 0.964299,0.499496 0.134392,0.950119 0.963165,1.006091 1.550893,0.104754 0.473431,-0.726044 0.468525,-0.777106 -0.13275,-1.381297 -0.482795,-0.485156 -0.995009,-0.636837 -2.2593,-0.669051 -1.404607,-0.03585 -1.684679,-0.13695 -1.987887,-0.717785 -0.531802,-1.018712 -0.447941,-1.364277 0.582264,-2.399469 1.802094,-1.810835 5.427296,-2.386967 7.277575,-1.156565 2.599014,1.728306 11.587326,1.725684 15.28549,-0.0039 3.363709,-1.573668 5.993049,-0.352528 6.210659,2.88439 0.10727,1.595491 -6e-5,2.153276 -0.41435,2.153276 -0.7749,0 -0.80279,0.635139 -0.0584,1.328802 0.4093,0.381374 1.18914,1.661118 1.733,2.843936 0.54384,1.182787 1.24853,2.51705 1.56599,2.965042 0.31745,0.447972 1.02417,2.07117 1.57048,3.607105 2.28639,6.428052 6.03629,8.895572 10.30839,6.783142 2.20688,-1.09124 4.32405,-3.31969 4.74025,-4.989406 0.25109,-1.007329 0.52714,-1.455321 1.01053,-1.640002 0.62901,-0.24032 0.65568,-0.35523 0.49179,-2.118853 -0.1717,-1.847587 -0.16568,-1.868113 0.6526,-2.22677 0.45425,-0.199099 1.31056,-0.675622 1.90291,-1.05894 1.00099,-0.647769 1.26444,-0.685738 3.73281,-0.53775 2.0197,0.121068 3.19886,0.371464 4.92309,1.045377 1.247,0.487415 2.39783,0.886791 2.55741,0.887518 0.15957,0 1.63817,1.241932 3.28575,2.758253 1.6476,1.516322 3.9107,3.446663 5.02912,4.289637 1.97195,1.486336 2.03762,1.575906 2.16995,2.959826 0.10777,1.12705 0.38671,1.74294 1.32649,2.92898 l 1.19002,1.50185 -0.71708,0.9447 c -0.39439,0.51959 -0.71708,1.01083 -0.71708,1.09167 0,0.0808 0.60067,0.18637 1.33483,0.23449 1.70026,0.11146 1.91688,0.67797 0.47607,1.24503 -2.98923,1.17647 -4.51938,2.68765 -4.85465,4.79449 -0.15316,0.96248 -0.26363,1.08205 -0.99989,1.08205 -0.60484,0 -0.89614,0.18083 -1.08184,0.67165 -0.20859,0.55126 -0.41224,0.64832 -1.13634,0.54154 -1.22717,-0.18099 -2.15876,0.52364 -2.7504,2.08034 -0.68502,1.80242 -0.34062,2.90632 1.23943,3.97264 1.36271,0.91964 1.33592,1.34694 -0.0845,1.34694 -1.11982,0 -1.46513,0.3543 -0.84743,0.86944 0.23761,0.19814 0.97351,1.40785 1.63533,2.68822 1.84597,3.57127 4.29172,5.68897 5.60723,4.85514 0.24718,-0.15667 1.22373,-1.36238 2.17009,-2.67931 1.99872,-2.78141 2.47971,-3.01303 5.35179,-2.57744 2.41098,0.36569 3.21876,0.73445 3.63901,1.66127 0.54677,1.20587 1.44011,5.28564 1.44225,6.58667 0.002,1.1819 0.0396,1.22965 1.52808,1.93724 1.99202,0.94694 2.67602,2.10185 2.22076,3.74968 -0.42977,1.55554 -0.40047,1.85647 0.1818,1.8671 0.4762,0.009 0.4762,0.0273 0,0.39054 -0.56374,0.43002 -0.65878,1.19046 -0.18551,1.48438 0.1975,0.12266 0.23627,0.52951 0.10419,1.09359 -0.11568,0.49406 -0.48279,2.70703 -0.81578,4.91774 -0.5823,3.86553 -0.63054,4.01674 -1.25981,3.94879 -0.60121,-0.0649 -0.63906,0.0112 -0.46634,0.93624 0.23075,1.23598 -0.21506,1.86189 -1.32617,1.86189 -0.46146,0 -0.92385,0.20808 -1.07817,0.48516 -0.25208,0.45265 -0.39187,0.44784 -2.08566,-0.0718 -1.36545,-0.41887 -2.66531,-0.55692 -5.24408,-0.55692 -3.15293,0 -3.50902,0.0555 -4.42863,0.69022 -1.50563,1.03923 -3.73277,3.24437 -4.02117,3.98146 -0.16006,0.40912 -0.58666,0.71881 -1.14452,0.83095 -0.54568,0.10965 -1.6876,0.92246 -2.95508,2.10338 -1.13615,1.05859 -2.40952,2.01138 -2.8297,2.11734 -0.52364,0.13206 -0.76399,0.38166 -0.76399,0.79337 0,0.52569 0.11932,0.57821 0.95562,0.42055 0.72476,-0.13662 1.13889,-0.0353 1.71432,0.41954 0.41728,0.32984 0.75869,0.79314 0.75869,1.02956 0,1.10964 4.04243,5.55764 5.05092,5.55764 0.49443,0 2.58302,1.40645 3.33433,2.24532 0.74965,0.83701 0.42971,1.11516 -1.54815,1.34582 -1.87643,0.21885 -2.39335,0.71011 -1.59319,1.51414 0.39381,0.39573 0.61024,0.41426 1.41652,0.1213 1.00523,-0.36526 3.89102,-0.45876 4.99428,-0.16179 1.04111,0.28025 0.58561,0.7699 -1.37505,1.47819 -2.41192,0.8713 -2.56527,1.03148 -2.56527,2.67951 0,1.01954 -0.11054,1.40036 -0.40648,1.40036 -0.22356,0 -1.02715,0.73045 -1.78574,1.62324 -0.75859,0.89278 -1.80934,1.80401 -2.33501,2.02499 -0.81097,0.34088 -0.92916,0.50816 -0.78027,1.10424 0.12894,0.51626 0.0594,0.70252 -0.26217,0.70252 -0.25577,0 -0.72663,0.65669 -1.13317,1.58038 -0.46773,1.06276 -0.93074,1.67026 -1.41358,1.85473 -0.39492,0.15087 -0.98031,0.53785 -1.30088,0.85999 -0.32056,0.32213 -0.9084,0.58567 -1.30632,0.58567 -1.63559,0 -4.08136,1.80905 -4.54677,3.36308 -0.15813,0.52805 -0.33401,0.60673 -1.03928,0.46498 -0.57538,-0.11564 -1.01428,-0.0202 -1.36207,0.29602 -1.26776,1.1529 -5.2574,0.78559 -5.7551,-0.52984 -0.14223,-0.37588 -0.94879,-1.19578 -1.79239,-1.82201 -1.70703,-1.26714 -2.15257,-1.86112 -2.89548,-3.86007 -0.28006,-0.75354 -0.83324,-1.59331 -1.22928,-1.86617 -0.39605,-0.27285 -1.72257,-1.41661 -2.94781,-2.54166 -2.46714,-2.26538 -3.52721,-2.75278 -7.14291,-3.28403 -3.25986,-0.47896 -3.97552,-0.26711 -6.17534,1.82815 l -1.86757,1.7788 -0.0472,2.00974 -0.0472,2.00974 -1.413942,0.47117 c -1.631834,0.5438 -1.824098,0.88406 -1.851738,3.27715 -0.01613,1.39214 -0.164936,1.93574 -0.746897,2.72752 -0.463315,0.63036 -0.671491,1.21109 -0.574221,1.60186 0.204159,0.82026 -1.641967,4.50078 -2.56111,5.10593 -0.390138,0.25687 -0.709345,0.71484 -0.709345,1.01769 0,0.64342 -0.335306,0.89307 -1.546515,1.15144 -0.588549,0.12554 -0.868886,0.34915 -0.842408,0.67194 0.04506,0.54926 -0.0049,0.55467 -1.182561,0.12754 z m -3.256586,-9.24925 c 0.533961,-0.38788 1.362558,-0.88709 1.841336,-1.10938 1.708967,-0.79337 3.413507,-3.50014 4.231422,-6.71944 0.536639,-2.11214 1.87705,-4.88464 2.89539,-5.98876 0.467615,-0.50701 0.666105,-0.97703 0.557634,-1.32047 -0.131343,-0.41584 0.07213,-0.6328 0.924108,-0.98555 0.600894,-0.2488 1.349677,-0.7539 1.663971,-1.12249 1.060974,-1.24425 5.718771,-2.28149 12.178161,-2.71194 3.98088,-0.26529 5.18813,-0.11161 6.50057,0.82746 1.63465,1.16964 4.39404,4.82869 6.60593,8.75979 1.28109,2.27681 2.77251,3.71715 4.44021,4.28815 1.49943,0.51338 3.85679,0.62813 4.28991,0.2088 0.14927,-0.14453 0.5881,-0.30604 0.97514,-0.35887 0.54681,-0.0746 0.74831,-0.32013 0.90374,-1.10095 0.1319,-0.66264 0.52474,-1.24932 1.15346,-1.72262 1.79394,-1.35053 4.74794,-4.49309 5.36387,-5.70629 0.55604,-1.09521 0.58854,-1.40759 0.33647,-3.23531 -0.15469,-1.1217 -0.48885,-2.25611 -0.74999,-2.54606 -0.36628,-0.4067 -0.40248,-0.65161 -0.16281,-1.10161 0.31318,-0.58801 0.58448,-0.71528 2.2374,-1.04956 0.97699,-0.1976 1.24309,-0.82079 0.47663,-1.11633 -0.93188,-0.35932 -2.65797,-0.18252 -2.92657,0.2998 -0.20485,0.3678 -0.51077,0.43383 -1.36466,0.2946 -1.83327,-0.29894 -2.52059,-1.01736 -2.6855,-2.80705 -0.10347,-1.12295 -0.26102,-1.55042 -0.57143,-1.55042 -0.31909,0 -0.43763,0.36671 -0.46401,1.43551 -0.0261,1.05631 -0.13857,1.41047 -0.42587,1.34073 -0.51103,-0.12408 -0.7606,-0.53434 -1.12124,-1.84317 -0.16316,-0.59214 -0.39602,-1.07663 -0.51749,-1.07663 -0.40511,0 -1.48645,-1.17884 -1.32385,-1.44323 0.0882,-0.14333 0.50887,-0.19671 0.93492,-0.11865 0.42606,0.0781 0.93972,0.0312 1.14148,-0.10412 0.44949,-0.30154 0.15154,-1.20504 -0.3974,-1.20504 -0.6895,0 -0.43305,-0.54125 0.48166,-1.01656 0.49472,-0.25707 1.05736,-0.88445 1.28573,-1.43368 0.49212,-1.1835 0.49761,-1.28211 0.0714,-1.28211 -0.18406,0 -0.55859,-0.20365 -0.83228,-0.45254 -0.47232,-0.42952 -0.46865,-0.5226 0.0724,-1.83082 0.56848,-1.37459 1.38167,-2.0232 2.53655,-2.0232 0.63308,0 0.67851,-0.21831 0.27011,-1.2977 -0.22859,-0.60415 -0.17802,-0.91844 0.24554,-1.52599 0.29339,-0.42081 0.74858,-1.2275 1.01155,-1.79268 0.26297,-0.56513 1.30246,-2.06284 2.30999,-3.32819 l 1.83185,-2.30065 3.91831,-0.18883 c 2.15508,-0.10385 5.48755,-0.18881 7.4055,-0.18881 h 3.48719 l 0.14351,-1.79648 c 0.10246,-1.28268 0.3518,-2.10489 0.87179,-2.87487 0.40057,-0.59312 0.80656,-1.62577 0.90221,-2.29477 0.0957,-0.669 0.3875,-2.34266 0.64856,-3.71924 0.45496,-2.39899 0.45281,-2.52713 -0.052,-3.08756 -0.79479,-0.8825 -2.52792,-1.22038 -5.70108,-1.11136 l -2.86449,0.0984 -0.15096,-0.85357 c -0.0931,-0.52621 -0.42434,-0.99255 -0.86379,-1.21598 -1.03243,-0.52486 -5.24874,-0.47829 -6.3032,0.0696 -0.66815,0.34719 -1.07902,0.37785 -1.94046,0.14476 -1.46157,-0.39547 -1.85191,-0.89279 -2.86255,-3.64709 -1.27567,-3.47657 -2.72923,-6.20866 -4.1712,-7.84012 -1.5169,-1.71623 -1.77463,-2.52456 -1.30603,-4.09621 0.36695,-1.2307 2.30945,-3.34394 6.19812,-6.7429 2.35511,-2.05851 3.158,-3.47901 3.60443,-6.3772 0.37682,-2.44625 0.0944,-2.99517 -2.22753,-4.33011 -2.03209,-1.16826 -2.33499,-1.79309 -1.8736,-3.864802 0.19289,-0.866097 0.47056,-1.649175 0.61704,-1.74015 0.14647,-0.09095 0.26632,-0.361829 0.26632,-0.601913 0,-0.331549 -0.19775,-0.392874 -0.82236,-0.255021 -0.68017,0.150119 -0.92254,0.04331 -1.4018,-0.617814 l -0.57943,-0.799292 -1.38396,0.495291 c -0.76119,0.272406 -2.09112,0.625681 -2.95542,0.785052 -2.33194,0.42999 -2.99352,0.784089 -3.65379,1.955681 -0.3285,0.582888 -0.86222,1.284628 -1.18606,1.559428 -0.34276,0.29084 -0.5888,0.84453 -0.5888,1.32501 0,0.45397 -0.266,1.16522 -0.59112,1.58053 -0.35499,0.4535 -0.52327,0.96992 -0.42127,1.29284 0.12928,0.40933 -0.0459,0.6275 -0.73409,0.91391 -0.49714,0.20693 -1.36989,0.84917 -1.93944,1.42725 -1.24223,1.26077 -3.80841,2.2936 -5.68208,2.28689 -1.66633,-0.006 -5.19777,-1.4199 -7.76581,-3.10929 -1.01634,-0.66859 -2.3985,-1.35494 -3.07148,-1.52523 -0.88086,-0.22288 -1.22358,-0.45621 -1.22358,-0.83303 0,-0.28786 -0.64648,-1.26573 -1.43661,-2.17305 -1.53982,-1.768173 -1.60365,-1.929643 -1.80111,-4.556516 -0.0713,-0.947438 -0.40643,-2.49779 -0.74492,-3.445229 -1.03329,-2.892236 -1.02159,-2.727492 -0.19361,-2.727492 0.94138,0 0.94091,-0.299326 -0.002,-1.425622 -0.41242,-0.492512 -0.66661,-0.979121 -0.56486,-1.081342 0.10174,-0.102231 0.38217,0.09704 0.62319,0.442767 0.59767,0.857366 0.9773,0.789284 0.9773,-0.175223 0,-1.533519 -1.31386,-1.974391 -2.6758,-0.89788 l -0.752852,0.595038 v -0.721675 c 0,-0.95115 -0.480742,-1.214098 -1.133858,-0.62017 -1.224534,1.113567 -6.920604,2.157097 -11.789112,2.159778 -4.402525,0.0029 -5.934447,0.772186 -5.934447,2.981965 0,0.874131 -0.249969,1.078612 -0.894718,0.731888 -0.693238,-0.372819 -0.723674,0.194886 -0.05053,0.942312 0.454343,0.504494 0.452779,0.588683 -0.0261,1.403287 -0.407017,0.692338 -0.470695,1.202097 -0.316716,2.535161 0.188442,1.631546 0.175902,1.672835 -0.564329,1.859539 -0.513426,0.129481 -0.725609,0.349293 -0.659361,0.683084 0.07624,0.38384 0.403293,0.49217 1.486121,0.49217 h 1.388431 l 0.381116,1.43553 c 0.209612,0.78955 0.358382,2.25107 0.330614,3.24785 -0.03001,1.07646 0.07888,1.89264 0.268012,2.01015 0.506594,0.3146 -2.504011,4.64864 -3.950763,5.68746 -1.588132,1.14033 -7.066487,3.89183 -9.051804,4.54626 -0.950928,0.31347 -1.876913,0.43222 -2.481452,0.31824 -1.880198,-0.35441 -6.75709,-4.68202 -7.178738,-6.37016 -0.103057,-0.4126 -0.380716,-0.68312 -0.701145,-0.68312 -0.788407,0 -2.504627,-1.63787 -3.760503,-3.5888 -0.609895,-0.94744 -1.326424,-1.81045 -1.592296,-1.91777 -0.265871,-0.10735 -1.239612,-0.20425 -2.163867,-0.21535 -1.614219,-0.0194 -1.726874,0.0282 -2.857184,1.20519 -1.707178,1.77774 -4.45592,5.83858 -5.22863,7.72446 -1.022767,2.49622 -1.117408,3.88658 -0.409949,6.02282 0.728493,2.19974 2.779744,5.36584 4.163552,6.42645 1.360887,1.04301 5.742037,2.90886 8.559723,3.64538 4.206538,1.09958 4.801967,2.21676 4.971243,9.32738 0.128342,5.39136 0.281305,4.51614 -1.861314,10.65058 -0.291489,0.83456 -0.561319,1.18948 -0.826575,1.0872 -0.216591,-0.0835 -1.713473,0.38074 -3.326392,1.0317 -1.612928,0.65097 -4.018271,1.48426 -5.345214,1.85177 -1.913185,0.52988 -2.642586,0.89188 -3.523513,1.74871 -1.875282,1.82399 -2.594557,3.32581 -2.563955,5.35345 0.04281,2.83483 1.656999,6.47842 3.222876,7.27459 1.32836,0.67543 6.917336,0.27774 11.420162,-0.81262 4.539514,-1.09925 5.974175,-0.74499 10.667309,2.63406 4.146164,2.98522 5.827892,5.27601 6.88475,9.37812 0.562003,2.18134 0.354756,2.82961 -1.813295,5.672 -0.797174,1.04513 -1.528911,2.21849 -1.626064,2.60749 -0.09715,0.38901 -0.575472,1.02089 -1.062909,1.40424 -0.81464,0.64062 -0.895432,0.8603 -0.999945,2.71891 -0.06255,1.11208 -0.03665,2.33052 0.05757,2.7076 0.28279,1.13217 2.178245,2.73664 4.678551,3.9603 1.624198,0.79491 2.357177,1.3107 2.357177,1.65875 0,0.86151 0.920072,1.40024 3.00004,1.75671 1.10002,0.18851 2.192896,0.45231 2.428605,0.58621 0.912487,0.51837 3.02465,0.28546 4.029238,-0.44433 z"
       id="path3131" />
    <path
       style="opacity:0.930349;fill:#ffffff;stroke-width:0.286409"
       d="m 88.268508,210.63133 c -0.927784,-0.56216 -2.294761,-1.2542 -3.037748,-1.53789 -0.742987,-0.28369 -1.798301,-0.8587 -2.345145,-1.27782 -0.755664,-0.57917 -1.295138,-0.75331 -2.248041,-0.72565 -1.08962,0.0316 -3.22573,-0.4088 -7.160111,-1.47633 -1.960511,-0.53195 -8.486185,-6.16487 -9.848978,-8.50156 -0.708818,-1.21538 -0.744278,-1.44711 -0.578941,-3.78347 0.09686,-1.36883 0.405179,-3.44721 0.685145,-4.61865 0.550508,-2.30344 0.424512,-2.1869 3.11505,-2.88087 0.929181,-0.23967 1.263147,-0.50267 1.569131,-1.23568 0.441646,-1.05798 0.505793,-5.27702 0.091,-5.98215 -0.291792,-0.49593 -3.718915,-3.56902 -5.645715,-5.0625 -0.657172,-0.50938 -1.486475,-0.92925 -1.842902,-0.9331 -0.356437,-0.004 -1.929868,0.63941 -3.496526,1.42942 -2.979534,1.50245 -6.659265,2.8702 -7.721861,2.8702 -0.34248,0 -1.004675,-0.32299 -1.471569,-0.71777 -0.707907,-0.59856 -1.146348,-0.71775 -2.639858,-0.71775 -1.446918,0 -1.89354,-0.1139 -2.324933,-0.5929 -0.405073,-0.44978 -0.808982,-0.57105 -1.673283,-0.50243 -1.068998,0.0849 -1.150542,0.0359 -1.321127,-0.79214 -0.09999,-0.48542 -0.707838,-1.5513 -1.35077,-2.36863 -0.643175,-0.81761 -1.363438,-2.16398 -1.601336,-2.99329 -1.095192,-3.8179 -2.973621,-16.22439 -2.651657,-17.51341 0.106096,-0.42473 0.70092,-1.3089 1.32185,-1.9648 0.976742,-1.03174 1.236328,-1.16422 1.925305,-0.98245 0.962305,0.25389 1.868048,0.24243 4.570402,-0.0578 1.855041,-0.20609 2.169284,-0.33632 3.162005,-1.31039 l 1.102258,-1.08155 0.695829,1.08358 c 0.894963,1.39364 1.920369,1.56019 3.264347,0.53011 0.85099,-0.65225 1.232849,-0.73852 3.268384,-0.73852 1.267644,0 2.304808,-0.0726 2.304808,-0.16139 0,-0.0888 -0.185285,-0.76705 -0.411738,-1.50731 -0.226453,-0.74024 -0.491083,-2.19218 -0.58807,-3.22653 l -0.176332,-1.88062 -3.045372,-2.65992 c -2.017658,-1.76225 -3.892969,-3.09978 -5.556967,-3.96337 -1.874402,-0.97279 -2.555794,-1.48048 -2.685836,-2.0011 -0.09588,-0.38371 -0.545622,-0.89064 -0.999525,-1.12648 -0.453893,-0.23585 -1.482818,-1.26961 -2.286491,-2.29722 -0.803674,-1.02763 -1.819863,-2.05474 -2.258196,-2.28254 -0.509263,-0.2646 -0.972539,-0.87605 -1.283292,-1.69369 -0.436799,-1.1493 -0.453131,-1.72722 -0.160362,-5.67642 0.255296,-3.44366 0.423878,-4.4591 0.777636,-4.68395 2.120735,-1.34803 2.772688,-2.01891 3.436701,-3.53653 1.72965,-3.95305 2.483486,-5.2871 3.81474,-6.75078 1.616037,-1.77676 2.88891,-2.48883 4.448981,-2.48883 0.595371,0 1.803775,-0.1497 2.685327,-0.332669 0.881563,-0.182962 1.940122,-0.247617 2.352359,-0.143648 1.148147,0.289567 2.387544,1.486027 3.408737,3.290597 1.045775,1.84805 3.704763,4.79176 4.88009,5.40266 0.429497,0.22325 0.976644,0.78628 1.215901,1.2512 0.239247,0.4649 1.01396,1.18621 1.721576,1.60292 1.535587,0.90428 2.677411,0.85896 5.692502,-0.22592 1.745542,-0.62808 2.112222,-0.89487 3.071468,-2.23465 1.070571,-1.49526 1.089318,-1.56625 1.091175,-4.13286 9.77e-4,-1.43631 -0.150392,-3.61677 -0.336518,-4.845509 -0.327301,-2.160678 -0.317976,-2.248402 0.283836,-2.671998 0.849592,-0.597955 0.783256,-0.899186 -0.306355,-1.391148 -0.510719,-0.230567 -1.185728,-0.626358 -1.50002,-0.879514 -0.568884,-0.458206 -0.568581,-0.462439 0.06734,-0.948341 0.565726,-0.432278 0.618525,-0.658926 0.461741,-1.982326 L 74.02154,90.52303 75.205274,90.047097 c 0.808864,-0.325216 1.239016,-0.697279 1.358308,-1.174843 0.09598,-0.384398 0.111579,-0.762207 0.0346,-0.83957 -0.07702,-0.07739 -0.954789,-0.292912 -1.950668,-0.479017 -1.456398,-0.27218 -1.673331,-0.376876 -1.108641,-0.535128 0.386131,-0.108202 1.501115,-0.209627 2.477739,-0.225371 1.517212,-0.02445 1.821554,0.05746 2.090787,0.56303 0.450443,0.845728 1.47926,0.618069 1.836381,-0.406359 0.404652,-1.160759 -0.546305,-1.9079 -2.428341,-1.9079 -2.173846,0 -3.034952,-1.479393 -1.631636,-2.803186 1.8161,-1.713181 4.967421,-2.244851 7.21295,-1.216937 2.137204,0.978337 3.975677,1.216859 8.38996,1.088493 3.599819,-0.104676 4.49268,-0.229015 6.403421,-0.891829 4.379676,-1.519258 6.111936,-0.79948 6.643176,2.760335 0.16983,1.137934 0.11696,1.357697 -0.40548,1.685564 -0.78675,0.4937 -0.75962,0.765458 0.2116,2.120247 1.05988,1.47848 3.4649,6.186079 4.85575,9.50469 1.50905,3.600644 2.8249,5.331774 4.78538,6.295604 1.32582,0.6518 1.8119,0.74581 3.14247,0.60783 0.9499,-0.0985 2.09332,-0.46904 2.88359,-0.93442 1.80483,-1.06281 3.75166,-3.18015 4.14879,-4.512131 0.18215,-0.610889 0.62964,-1.346598 0.99443,-1.634934 0.56994,-0.450497 0.66326,-0.781762 0.66326,-2.354625 v -1.83035 l 1.74584,-0.964439 c 1.71793,-0.949019 1.7899,-0.962121 4.50007,-0.8181 4.33444,0.230311 6.79947,1.287149 10.39982,4.458784 1.56254,1.376436 3.78981,3.263642 4.9495,4.193771 1.74581,1.400194 2.13833,1.869394 2.28176,2.727494 0.28622,1.7122 0.40935,1.9976 1.45651,3.37611 l 1.00531,1.32342 -0.59779,0.8125 c -0.83962,1.14114 -0.75753,1.3775 0.55139,1.58783 0.63207,0.10155 1.20599,0.27698 1.27541,0.38984 0.0694,0.11286 -0.54111,0.51577 -1.3567,0.89536 -2.49671,1.16209 -4.21081,3.02097 -4.21081,4.56653 0,0.4193 -0.30856,0.73263 -1.01245,1.02817 -0.55684,0.2338 -1.08489,0.6148 -1.17344,0.84667 -0.10163,0.26612 -0.55279,0.42159 -1.2235,0.42159 -1.62284,0 -2.87642,1.6562 -2.87642,3.80025 0,0.68233 0.30235,1.18295 1.28702,2.13098 l 1.28701,1.23917 -1.14415,0.18384 c -1.06349,0.17089 -1.50663,0.71276 -0.89403,1.09322 0.13758,0.0854 0.93534,1.32836 1.77281,2.76207 1.86263,3.18866 3.55829,4.8683 4.91476,4.8683 0.84198,0 1.12499,-0.23078 2.48103,-2.02312 2.00497,-2.6501 2.95279,-3.43186 4.16075,-3.43186 1.64454,0 3.96269,0.60981 4.61953,1.2152 0.62106,0.57241 1.49952,3.70723 1.93947,6.92116 0.16105,1.1765 0.32805,1.46245 1.08987,1.86617 0.49482,0.26222 1.30151,0.86436 1.79265,1.33808 l 0.89299,0.86132 -0.0804,4.16301 c -0.0495,2.55706 -0.30222,5.40968 -0.65531,7.39466 -0.62351,3.50513 -0.72681,3.8024 -1.32121,3.8024 -0.2602,0 -0.4253,0.41383 -0.48315,1.211 -0.0807,1.11252 -0.16915,1.23364 -1.08787,1.48965 -0.55,0.15327 -1.08367,0.40265 -1.18592,0.55422 -0.1153,0.17092 -1.0919,0.0849 -2.57147,-0.22667 -1.67524,-0.35268 -3.29003,-0.47222 -5.42325,-0.40145 l -3.03771,0.10075 -1.67664,1.32196 c -0.92217,0.72709 -2.06238,1.84146 -2.53381,2.47636 -0.47143,0.63491 -1.37145,1.41428 -2.00003,1.73192 -0.62858,0.31766 -1.89124,1.23955 -2.8059,2.04864 -0.91467,0.8091 -2.03968,1.66681 -2.50004,1.90603 -1.16907,0.60749 -1.14521,1.5686 0.0389,1.5686 1.29721,0 1.92176,0.45332 2.58861,1.87887 0.80808,1.72746 3.60409,4.58799 5.14169,5.26034 1.34166,0.58668 3.64401,2.45414 3.37213,2.73517 -0.0905,0.0936 -0.85747,0.30225 -1.70426,0.46362 -1.7405,0.33168 -2.08632,0.56914 -1.93838,1.33101 0.0955,0.49157 0.3746,0.52463 3.59827,0.42596 2.22466,-0.0681 3.49479,-0.003 3.49479,0.18201 0,0.1589 -0.73929,0.58306 -1.64288,0.94255 -2.15098,0.85579 -2.53768,1.22057 -2.75739,2.60122 -0.14198,0.89224 -0.55241,1.52609 -1.82015,2.81093 -0.90026,0.9124 -2.0547,1.9472 -2.56542,2.29957 -0.51072,0.35236 -0.92859,0.87024 -0.92859,1.15083 0,0.2806 -0.23934,0.7278 -0.53186,0.99383 -0.29253,0.26601 -0.75632,0.98384 -1.03067,1.59517 -0.53386,1.18966 -2.50264,2.68678 -4.01525,3.05333 -2.03743,0.49373 -4.42236,2.39487 -4.42236,3.52527 0,0.19037 -0.45669,0.33569 -1.07144,0.34091 -0.5893,0.005 -1.32102,0.19882 -1.62606,0.43066 -0.61912,0.47055 -2.9076,0.56337 -3.92685,0.15929 -1.29757,-0.51444 -5.04535,-4.50049 -5.7616,-6.12792 -0.53382,-1.21291 -1.2627,-2.06508 -3.35557,-3.92322 -1.47049,-1.30557 -3.15481,-2.62043 -3.74292,-2.92192 -1.50858,-0.77335 -4.35553,-1.39778 -6.39552,-1.40277 -1.94551,-0.005 -3.33121,0.7185 -5.32107,2.77727 -0.98604,1.0202 -1.06353,1.22909 -1.14288,3.08122 l -0.0851,1.98688 -1.217583,0.40677 c -1.457125,0.48683 -1.649213,0.81211 -1.88542,3.19303 -0.103653,1.04472 -0.427406,2.23089 -0.75367,2.76139 -0.314585,0.51145 -0.571973,1.25262 -0.571973,1.64703 0,0.90261 -1.920349,4.80097 -2.469264,5.01262 -0.225055,0.0868 -0.590719,0.59432 -0.812559,1.12782 -0.272332,0.65495 -0.593709,0.97005 -0.989369,0.97005 -0.322306,0 -0.843161,0.2584 -1.157452,0.57421 -0.314292,0.31583 -0.667865,0.57389 -0.785729,0.57348 -0.117854,0 -0.973379,-0.46067 -1.901153,-1.02283 z m -2.45605,-7.85073 c 0.235718,-0.096 1.15752,-0.5997 2.048436,-1.11941 2.31554,-1.35078 3.668667,-3.31224 4.668035,-6.76665 0.682799,-2.36013 1.489562,-4.12713 2.605328,-5.70623 0.530228,-0.75042 0.964065,-1.59856 0.964065,-1.88477 0,-0.29509 0.402003,-0.73266 0.928585,-1.01074 0.510719,-0.26971 1.367221,-0.81161 1.903345,-1.20425 1.948928,-1.42732 7.329068,-2.46176 13.168308,-2.53187 3.13551,-0.0376 3.69348,0.0292 4.57096,0.54713 1.40241,0.82783 3.98584,4.01328 6.32231,7.79561 2.89285,4.68299 4.43644,5.82077 7.90188,5.82446 2.03437,0.003 3.33749,-0.57873 3.71053,-1.65399 0.16333,-0.47084 1.4787,-2.00077 2.92303,-3.39987 1.44433,-1.3991 2.95297,-3.10432 3.35254,-3.78944 0.63984,-1.09712 0.70647,-1.46091 0.55873,-3.05062 -0.0923,-0.9927 -0.39154,-2.27652 -0.66507,-2.85294 -0.60172,-1.26792 -0.36246,-1.61808 1.40825,-2.06088 0.90045,-0.22519 1.203,-0.44178 1.203,-0.86132 0,-0.46733 -0.23219,-0.57527 -1.39703,-0.64962 -0.76837,-0.049 -1.53337,0.0478 -1.70002,0.21535 -0.43571,0.4378 -1.79611,0.37476 -2.76387,-0.12811 -0.78728,-0.40909 -1.14248,-1.1673 -1.47857,-3.15623 -0.18857,-1.11598 -0.94119,-0.64587 -1.03421,0.64598 -0.11908,1.65378 -0.82529,1.54007 -1.33728,-0.21532 -0.11514,-0.39477 -0.60611,-1.13765 -1.09103,-1.65087 l -0.88168,-0.93307 h 1.06503 c 1.23899,0 1.73874,-0.71432 0.92041,-1.31558 -0.46692,-0.34309 -0.4269,-0.44035 0.52756,-1.28244 1.43007,-1.26172 1.61315,-2.16458 0.60303,-2.97393 l -0.7874,-0.63092 0.58515,-1.15257 c 0.68718,-1.35349 1.05288,-1.68335 2.16202,-1.95017 0.75913,-0.18263 0.80828,-0.27499 0.65418,-1.22918 -0.13786,-0.8537 0.0256,-1.36237 0.94738,-2.94834 0.61269,-1.05415 1.82831,-2.83405 2.70139,-3.95528 l 1.58742,-2.03863 1.78734,-0.15535 c 0.98305,-0.0854 4.28496,-0.22615 7.33758,-0.31268 3.05264,-0.0865 5.5998,-0.20713 5.66038,-0.26799 0.0606,-0.0609 0.21667,-0.86792 0.34685,-1.79346 0.1302,-0.92553 0.51728,-2.16061 0.86019,-2.74461 0.68092,-1.15967 1.81688,-6.83689 1.67107,-8.35146 -0.14304,-1.48563 -1.37456,-1.92315 -5.41476,-1.9237 -3.30501,0 -3.32735,-0.005 -3.50458,-0.71456 -0.3307,-1.32402 -1.24883,-1.63665 -4.36313,-1.48576 -1.54345,0.0747 -3.25628,0.21823 -3.80629,0.31877 -1.68499,0.308 -2.60498,-0.51551 -3.71673,-3.32695 -1.31051,-3.31409 -2.62571,-5.90216 -3.75627,-7.39167 -2.21879,-2.92323 -2.41419,-3.71883 -1.34781,-5.48783 0.33317,-0.55267 2.24854,-2.59476 4.2564,-4.53794 3.96733,-3.83958 4.75951,-5.08771 5.05499,-7.9646 0.23958,-2.33258 0.0142,-2.79024 -2.03488,-4.13172 -1.01043,-0.66152 -1.91205,-1.39889 -2.00359,-1.63864 -0.29097,-0.76192 -0.18027,-2.096676 0.26214,-3.160661 0.62401,-1.500725 0.55267,-1.821884 -0.40475,-1.821884 -0.55004,0 -1.0114,-0.238286 -1.35717,-0.700961 l -0.52383,-0.700941 -2.57147,0.712756 c -1.4143,0.39205 -3.0533,0.841761 -3.64222,0.999384 -1.69048,0.45247 -3.88971,3.775987 -4.69835,7.100207 -0.0887,0.36491 -0.49849,0.87603 -0.91049,1.13578 -0.41199,0.25978 -1.19322,0.85252 -1.73606,1.31722 -3.61198,3.09201 -7.41217,2.86092 -13.43784,-0.81725 -0.92092,-0.56215 -2.15894,-1.19064 -2.75114,-1.39666 -0.59221,-0.20604 -1.21281,-0.61721 -1.3791,-0.91376 -0.16629,-0.29652 -0.91307,-1.35973 -1.65952,-2.36265 -0.74644,-1.00293 -1.35715,-1.935637 -1.35715,-2.072685 0,-1.101722 -0.70615,-4.900805 -1.1541,-6.209129 -0.5712,-1.668258 -0.53475,-2.120493 0.17094,-2.120493 0.50007,0 0.5391,-0.618481 0.0688,-1.091007 -0.26666,-0.267966 -0.23109,-0.344514 0.16011,-0.344514 0.4065,0 0.48596,-0.206514 0.4143,-1.076648 -0.0814,-0.988177 -0.16665,-1.084142 -1.03749,-1.168134 -0.53198,-0.05127 -1.25373,0.109302 -1.64289,0.365512 -0.671721,0.442256 -0.694064,0.433652 -0.694064,-0.267387 0,-0.854518 -0.548828,-0.940632 -1.596942,-0.250553 -1.241537,0.817433 -4.950991,1.528706 -9.546082,1.830487 -2.43575,0.159941 -4.833459,0.35629 -5.328237,0.436295 -1.392438,0.225224 -2.283794,1.094543 -2.497179,2.435464 -0.15998,1.005257 -0.268647,1.148953 -0.752272,0.994699 -0.42549,-0.135692 -0.565297,-0.04773 -0.565297,0.355848 0,0.294867 0.150793,0.687663 0.33511,0.872864 0.256332,0.257595 0.256332,0.510466 0,1.075804 -0.184317,0.406477 -0.33511,1.492387 -0.33511,2.41314 0,1.400557 -0.101552,1.741879 -0.621497,2.08876 -1.014049,0.676557 -0.499665,1.378017 1.01054,1.378017 1.553747,0 1.572112,0.0398 1.904095,4.12531 l 0.253566,3.12044 -1.115962,1.65129 c -1.616995,2.39268 -3.217286,3.66677 -6.95955,5.54088 -5.704867,2.85697 -6.670251,3.03048 -8.915467,1.60244 -1.67597,-1.06599 -5.270295,-4.65755 -5.270295,-5.26624 0,-0.23468 -0.48215,-0.67589 -1.071442,-0.98044 -1.219624,-0.63033 -2.052512,-1.4815 -3.753885,-3.83628 l -1.192785,-1.65084 h -2.09243 -2.092429 l -1.454786,1.54568 c -0.800126,0.85012 -2.180444,2.66434 -3.067354,4.03158 -3.145897,4.84964 -3.438627,7.43672 -1.307248,11.55338 2.141896,4.13695 4.073984,5.51624 10.842209,7.74012 1.67599,0.5507 3.334758,1.1895 3.686152,1.41961 1.607836,1.05276 2.045622,2.91795 2.10233,8.95691 0.03646,3.88076 -0.02462,4.43079 -0.740377,6.66993 -1.107664,3.46517 -1.373545,3.89438 -2.631464,4.24806 -1.6626,0.46749 -9.901679,3.38561 -10.562809,3.74114 -0.731777,0.39353 -2.235551,2.09789 -2.773773,3.14375 -1.353929,2.63093 -0.35977,7.54652 2.009732,9.93712 l 0.814455,0.82169 3.857197,-0.16222 c 2.29908,-0.0966 5.011364,-0.41463 6.71438,-0.78703 4.010228,-0.87694 5.6346,-0.82539 7.733705,0.24544 2.469128,1.25958 6.274513,4.21103 7.616018,5.90701 1.799084,2.27445 3.339627,6.27547 2.976338,7.72995 -0.19805,0.79293 -3.454206,5.88953 -4.736912,7.41432 -0.831109,0.98797 -0.874681,1.16564 -0.874681,3.56625 v 2.52646 l 1.222937,1.17099 c 0.672625,0.64403 2.181656,1.68783 3.353408,2.31951 1.387384,0.74798 2.261128,1.42249 2.505076,1.93394 0.386257,0.80982 0.885511,1.01029 5.061613,2.03244 1.586294,0.38828 2.794346,0.36804 3.857196,-0.0646 z"
       id="path3133" />
    <path
       style="opacity:0.930349;fill:#ffffff;stroke-width:0.286409"
       d="m 88.268508,210.63133 c -0.927784,-0.56216 -2.294761,-1.2542 -3.037748,-1.53789 -0.742987,-0.28369 -1.798301,-0.8587 -2.345145,-1.27782 -0.755664,-0.57917 -1.295138,-0.75331 -2.248041,-0.72565 -1.08962,0.0316 -3.22573,-0.4088 -7.160111,-1.47633 -1.960511,-0.53195 -8.486185,-6.16487 -9.848978,-8.50156 -0.708818,-1.21538 -0.744278,-1.44711 -0.578941,-3.78347 0.09686,-1.36883 0.405179,-3.44721 0.685145,-4.61865 0.550508,-2.30344 0.424512,-2.1869 3.11505,-2.88087 0.929181,-0.23967 1.263147,-0.50267 1.569131,-1.23568 0.441646,-1.05798 0.505793,-5.27702 0.091,-5.98215 -0.291792,-0.49593 -3.718915,-3.56902 -5.645715,-5.0625 -0.657172,-0.50938 -1.486475,-0.92925 -1.842902,-0.9331 -0.356437,-0.004 -1.929868,0.63941 -3.496526,1.42942 -2.979534,1.50245 -6.659265,2.8702 -7.721861,2.8702 -0.34248,0 -1.004675,-0.32299 -1.471569,-0.71777 -0.707907,-0.59856 -1.146348,-0.71775 -2.639858,-0.71775 -1.446918,0 -1.89354,-0.1139 -2.324933,-0.5929 -0.405073,-0.44978 -0.808982,-0.57105 -1.673283,-0.50243 -1.068998,0.0849 -1.150542,0.0359 -1.321127,-0.79214 -0.09999,-0.48542 -0.707838,-1.5513 -1.35077,-2.36863 -0.643175,-0.81761 -1.363438,-2.16398 -1.601336,-2.99329 -1.095192,-3.8179 -2.973621,-16.22439 -2.651657,-17.51341 0.106096,-0.42473 0.70092,-1.3089 1.32185,-1.9648 0.976742,-1.03174 1.236328,-1.16422 1.925305,-0.98245 0.962305,0.25389 1.868048,0.24243 4.570402,-0.0578 1.855041,-0.20609 2.169284,-0.33632 3.162005,-1.31039 l 1.102258,-1.08155 0.695829,1.08358 c 0.894963,1.39364 1.920369,1.56019 3.264347,0.53011 0.85099,-0.65225 1.232849,-0.73852 3.268384,-0.73852 1.267644,0 2.304808,-0.0726 2.304808,-0.16139 0,-0.0888 -0.185285,-0.76705 -0.411738,-1.50731 -0.226453,-0.74024 -0.491083,-2.19218 -0.58807,-3.22653 l -0.176332,-1.88062 -3.045372,-2.65992 c -2.017658,-1.76225 -3.892969,-3.09978 -5.556967,-3.96337 -1.874402,-0.97279 -2.555794,-1.48048 -2.685836,-2.0011 -0.09588,-0.38371 -0.545622,-0.89064 -0.999525,-1.12648 -0.453893,-0.23585 -1.482818,-1.26961 -2.286491,-2.29722 -0.803674,-1.02763 -1.819863,-2.05474 -2.258196,-2.28254 -0.509263,-0.2646 -0.972539,-0.87605 -1.283292,-1.69369 -0.436799,-1.1493 -0.453131,-1.72722 -0.160362,-5.67642 0.255296,-3.44366 0.423878,-4.4591 0.777636,-4.68395 2.120735,-1.34803 2.772688,-2.01891 3.436701,-3.53653 1.72965,-3.95305 2.483486,-5.2871 3.81474,-6.75078 1.616037,-1.77676 2.88891,-2.48883 4.448981,-2.48883 0.595371,0 1.803775,-0.1497 2.685327,-0.332669 0.881563,-0.182962 1.940122,-0.247617 2.352359,-0.143648 1.148147,0.289567 2.387544,1.486027 3.408737,3.290597 1.045775,1.84805 3.704763,4.79176 4.88009,5.40266 0.429497,0.22325 0.976644,0.78628 1.215901,1.2512 0.239247,0.4649 1.01396,1.18621 1.721576,1.60292 1.535587,0.90428 2.677411,0.85896 5.692502,-0.22592 1.745542,-0.62808 2.112222,-0.89487 3.071468,-2.23465 1.070571,-1.49526 1.089318,-1.56625 1.091175,-4.13286 9.77e-4,-1.43631 -0.150392,-3.61677 -0.336518,-4.845509 -0.327301,-2.160678 -0.317976,-2.248402 0.283836,-2.671998 0.849592,-0.597955 0.783256,-0.899186 -0.306355,-1.391148 -0.510719,-0.230567 -1.185728,-0.626358 -1.50002,-0.879514 -0.568884,-0.458206 -0.568581,-0.462439 0.06734,-0.948341 0.565726,-0.432278 0.618525,-0.658926 0.461741,-1.982326 L 74.02154,90.52303 75.205274,90.047097 c 0.808864,-0.325216 1.239016,-0.697279 1.358308,-1.174843 0.09598,-0.384398 0.111579,-0.762207 0.0346,-0.83957 -0.07702,-0.07739 -0.954789,-0.292912 -1.950668,-0.479017 -1.456398,-0.27218 -1.673331,-0.376876 -1.108641,-0.535128 0.386131,-0.108202 1.501115,-0.209627 2.477739,-0.225371 1.517212,-0.02445 1.821554,0.05746 2.090787,0.56303 0.450443,0.845728 1.47926,0.618069 1.836381,-0.406359 0.404652,-1.160759 -0.546305,-1.9079 -2.428341,-1.9079 -2.173846,0 -3.034952,-1.479393 -1.631636,-2.803186 1.8161,-1.713181 4.967421,-2.244851 7.21295,-1.216937 2.137204,0.978337 3.975677,1.216859 8.38996,1.088493 3.599819,-0.104676 4.49268,-0.229015 6.403421,-0.891829 4.379676,-1.519258 6.111936,-0.79948 6.643176,2.760335 0.16983,1.137934 0.11696,1.357697 -0.40548,1.685564 -0.78675,0.4937 -0.75962,0.765458 0.2116,2.120247 1.05988,1.47848 3.4649,6.186079 4.85575,9.50469 1.50905,3.600644 2.8249,5.331774 4.78538,6.295604 1.32582,0.6518 1.8119,0.74581 3.14247,0.60783 0.9499,-0.0985 2.09332,-0.46904 2.88359,-0.93442 1.80483,-1.06281 3.75166,-3.18015 4.14879,-4.512131 0.18215,-0.610889 0.62964,-1.346598 0.99443,-1.634934 0.56994,-0.450497 0.66326,-0.781762 0.66326,-2.354625 v -1.83035 l 1.74584,-0.964439 c 1.71793,-0.949019 1.7899,-0.962121 4.50007,-0.8181 4.33444,0.230311 6.79947,1.287149 10.39982,4.458784 1.56254,1.376436 3.78981,3.263642 4.9495,4.193771 1.74581,1.400194 2.13833,1.869394 2.28176,2.727494 0.28622,1.7122 0.40935,1.9976 1.45651,3.37611 l 1.00531,1.32342 -0.59779,0.8125 c -0.83962,1.14114 -0.75753,1.3775 0.55139,1.58783 0.63207,0.10155 1.20599,0.27698 1.27541,0.38984 0.0694,0.11286 -0.54111,0.51577 -1.3567,0.89536 -2.49671,1.16209 -4.21081,3.02097 -4.21081,4.56653 0,0.4193 -0.30856,0.73263 -1.01245,1.02817 -0.55684,0.2338 -1.08489,0.6148 -1.17344,0.84667 -0.10163,0.26612 -0.55279,0.42159 -1.2235,0.42159 -1.62284,0 -2.87642,1.6562 -2.87642,3.80025 0,0.68233 0.30235,1.18295 1.28702,2.13098 l 1.28701,1.23917 -1.14415,0.18384 c -1.06349,0.17089 -1.50663,0.71276 -0.89403,1.09322 0.13758,0.0854 0.93534,1.32836 1.77281,2.76207 1.86263,3.18866 3.55829,4.8683 4.91476,4.8683 0.84198,0 1.12499,-0.23078 2.48103,-2.02312 2.00497,-2.6501 2.95279,-3.43186 4.16075,-3.43186 1.64454,0 3.96269,0.60981 4.61953,1.2152 0.62106,0.57241 1.49952,3.70723 1.93947,6.92116 0.16105,1.1765 0.32805,1.46245 1.08987,1.86617 0.49482,0.26222 1.30151,0.86436 1.79265,1.33808 l 0.89299,0.86132 -0.0804,4.16301 c -0.0495,2.55706 -0.30222,5.40968 -0.65531,7.39466 -0.62351,3.50513 -0.72681,3.8024 -1.32121,3.8024 -0.2602,0 -0.4253,0.41383 -0.48315,1.211 -0.0807,1.11252 -0.16915,1.23364 -1.08787,1.48965 -0.55,0.15327 -1.08367,0.40265 -1.18592,0.55422 -0.1153,0.17092 -1.0919,0.0849 -2.57147,-0.22667 -1.67524,-0.35268 -3.29003,-0.47222 -5.42325,-0.40145 l -3.03771,0.10075 -1.67664,1.32196 c -0.92217,0.72709 -2.06238,1.84146 -2.53381,2.47636 -0.47143,0.63491 -1.37145,1.41428 -2.00003,1.73192 -0.62858,0.31766 -1.89124,1.23955 -2.8059,2.04864 -0.91467,0.8091 -2.03968,1.66681 -2.50004,1.90603 -1.16907,0.60749 -1.14521,1.5686 0.0389,1.5686 1.29721,0 1.92176,0.45332 2.58861,1.87887 0.80808,1.72746 3.60409,4.58799 5.14169,5.26034 1.34166,0.58668 3.64401,2.45414 3.37213,2.73517 -0.0905,0.0936 -0.85747,0.30225 -1.70426,0.46362 -1.7405,0.33168 -2.08632,0.56914 -1.93838,1.33101 0.0955,0.49157 0.3746,0.52463 3.59827,0.42596 2.22466,-0.0681 3.49479,-0.003 3.49479,0.18201 0,0.1589 -0.73929,0.58306 -1.64288,0.94255 -2.15098,0.85579 -2.53768,1.22057 -2.75739,2.60122 -0.14198,0.89224 -0.55241,1.52609 -1.82015,2.81093 -0.90026,0.9124 -2.0547,1.9472 -2.56542,2.29957 -0.51072,0.35236 -0.92859,0.87024 -0.92859,1.15083 0,0.2806 -0.23934,0.7278 -0.53186,0.99383 -0.29253,0.26601 -0.75632,0.98384 -1.03067,1.59517 -0.53386,1.18966 -2.50264,2.68678 -4.01525,3.05333 -2.03743,0.49373 -4.42236,2.39487 -4.42236,3.52527 0,0.19037 -0.45669,0.33569 -1.07144,0.34091 -0.5893,0.005 -1.32102,0.19882 -1.62606,0.43066 -0.61912,0.47055 -2.9076,0.56337 -3.92685,0.15929 -1.29757,-0.51444 -5.04535,-4.50049 -5.7616,-6.12792 -0.53382,-1.21291 -1.2627,-2.06508 -3.35557,-3.92322 -1.47049,-1.30557 -3.15481,-2.62043 -3.74292,-2.92192 -1.50858,-0.77335 -4.35553,-1.39778 -6.39552,-1.40277 -1.94551,-0.005 -3.33121,0.7185 -5.32107,2.77727 -0.98604,1.0202 -1.06353,1.22909 -1.14288,3.08122 l -0.0851,1.98688 -1.217583,0.40677 c -1.457125,0.48683 -1.649213,0.81211 -1.88542,3.19303 -0.103653,1.04472 -0.427406,2.23089 -0.75367,2.76139 -0.314585,0.51145 -0.571973,1.25262 -0.571973,1.64703 0,0.90261 -1.920349,4.80097 -2.469264,5.01262 -0.225055,0.0868 -0.590719,0.59432 -0.812559,1.12782 -0.272332,0.65495 -0.593709,0.97005 -0.989369,0.97005 -0.322306,0 -0.843161,0.2584 -1.157452,0.57421 -0.314292,0.31583 -0.667865,0.57389 -0.785729,0.57348 -0.117854,0 -0.973379,-0.46067 -1.901153,-1.02283 z m -2.45605,-7.85073 c 0.235718,-0.096 1.15752,-0.5997 2.048436,-1.11941 2.31554,-1.35078 3.668667,-3.31224 4.668035,-6.76665 0.682799,-2.36013 1.489562,-4.12713 2.605328,-5.70623 0.530228,-0.75042 0.964065,-1.59856 0.964065,-1.88477 0,-0.29509 0.402003,-0.73266 0.928585,-1.01074 0.510719,-0.26971 1.367221,-0.81161 1.903345,-1.20425 1.948928,-1.42732 7.329068,-2.46176 13.168308,-2.53187 3.13551,-0.0376 3.69348,0.0292 4.57096,0.54713 1.40241,0.82783 3.98584,4.01328 6.32231,7.79561 2.89285,4.68299 4.43644,5.82077 7.90188,5.82446 2.03437,0.003 3.33749,-0.57873 3.71053,-1.65399 0.16333,-0.47084 1.4787,-2.00077 2.92303,-3.39987 1.44433,-1.3991 2.95297,-3.10432 3.35254,-3.78944 0.63984,-1.09712 0.70647,-1.46091 0.55873,-3.05062 -0.0923,-0.9927 -0.39154,-2.27652 -0.66507,-2.85294 -0.60172,-1.26792 -0.36246,-1.61808 1.40825,-2.06088 0.90045,-0.22519 1.203,-0.44178 1.203,-0.86132 0,-0.46733 -0.23219,-0.57527 -1.39703,-0.64962 -0.76837,-0.049 -1.53337,0.0478 -1.70002,0.21535 -0.43571,0.4378 -1.79611,0.37476 -2.76387,-0.12811 -0.78728,-0.40909 -1.14248,-1.1673 -1.47857,-3.15623 -0.18857,-1.11598 -0.94119,-0.64587 -1.03421,0.64598 -0.11908,1.65378 -0.82529,1.54007 -1.33728,-0.21532 -0.11514,-0.39477 -0.60611,-1.13765 -1.09103,-1.65087 l -0.88168,-0.93307 h 1.06503 c 1.23899,0 1.73874,-0.71432 0.92041,-1.31558 -0.46692,-0.34309 -0.4269,-0.44035 0.52756,-1.28244 1.43007,-1.26172 1.61315,-2.16458 0.60303,-2.97393 l -0.7874,-0.63092 0.58515,-1.15257 c 0.68718,-1.35349 1.05288,-1.68335 2.16202,-1.95017 0.75913,-0.18263 0.80828,-0.27499 0.65418,-1.22918 -0.13786,-0.8537 0.0256,-1.36237 0.94738,-2.94834 0.61269,-1.05415 1.82831,-2.83405 2.70139,-3.95528 l 1.58742,-2.03863 1.78734,-0.15535 c 0.98305,-0.0854 4.28496,-0.22615 7.33758,-0.31268 3.05264,-0.0865 5.5998,-0.20713 5.66038,-0.26799 0.0606,-0.0609 0.21667,-0.86792 0.34685,-1.79346 0.1302,-0.92553 0.51728,-2.16061 0.86019,-2.74461 0.68092,-1.15967 1.81688,-6.83689 1.67107,-8.35146 -0.14304,-1.48563 -1.37456,-1.92315 -5.41476,-1.9237 -3.30501,0 -3.32735,-0.005 -3.50458,-0.71456 -0.3307,-1.32402 -1.24883,-1.63665 -4.36313,-1.48576 -1.54345,0.0747 -3.25628,0.21823 -3.80629,0.31877 -1.68499,0.308 -2.60498,-0.51551 -3.71673,-3.32695 -1.31051,-3.31409 -2.62571,-5.90216 -3.75627,-7.39167 -2.21879,-2.92323 -2.41419,-3.71883 -1.34781,-5.48783 0.33317,-0.55267 2.24854,-2.59476 4.2564,-4.53794 3.96733,-3.83958 4.75951,-5.08771 5.05499,-7.9646 0.23958,-2.33258 0.0142,-2.79024 -2.03488,-4.13172 -1.01043,-0.66152 -1.91205,-1.39889 -2.00359,-1.63864 -0.29097,-0.76192 -0.18027,-2.096676 0.26214,-3.160661 0.62401,-1.500725 0.55267,-1.821884 -0.40475,-1.821884 -0.55004,0 -1.0114,-0.238286 -1.35717,-0.700961 l -0.52383,-0.700941 -2.57147,0.712756 c -1.4143,0.39205 -3.0533,0.841761 -3.64222,0.999384 -1.69048,0.45247 -3.88971,3.775987 -4.69835,7.100207 -0.0887,0.36491 -0.49849,0.87603 -0.91049,1.13578 -0.41199,0.25978 -1.19322,0.85252 -1.73606,1.31722 -3.61198,3.09201 -7.41217,2.86092 -13.43784,-0.81725 -0.92092,-0.56215 -2.15894,-1.19064 -2.75114,-1.39666 -0.59221,-0.20604 -1.21281,-0.61721 -1.3791,-0.91376 -0.16629,-0.29652 -0.91307,-1.35973 -1.65952,-2.36265 -0.74644,-1.00293 -1.35715,-1.935637 -1.35715,-2.072685 0,-1.101722 -0.70615,-4.900805 -1.1541,-6.209129 -0.5712,-1.668258 -0.53475,-2.120493 0.17094,-2.120493 0.50007,0 0.5391,-0.618481 0.0688,-1.091007 -0.26666,-0.267966 -0.23109,-0.344514 0.16011,-0.344514 0.4065,0 0.48596,-0.206514 0.4143,-1.076648 -0.0814,-0.988177 -0.16665,-1.084142 -1.03749,-1.168134 -0.53198,-0.05127 -1.25373,0.109302 -1.64289,0.365512 -0.671721,0.442256 -0.694064,0.433652 -0.694064,-0.267387 0,-0.854518 -0.548828,-0.940632 -1.596942,-0.250553 -1.241537,0.817433 -4.950991,1.528706 -9.546082,1.830487 -2.43575,0.159941 -4.833459,0.35629 -5.328237,0.436295 -1.392438,0.225224 -2.283794,1.094543 -2.497179,2.435464 -0.15998,1.005257 -0.268647,1.148953 -0.752272,0.994699 -0.42549,-0.135692 -0.565297,-0.04773 -0.565297,0.355848 0,0.294867 0.150793,0.687663 0.33511,0.872864 0.256332,0.257595 0.256332,0.510466 0,1.075804 -0.184317,0.406477 -0.33511,1.492387 -0.33511,2.41314 0,1.400557 -0.101552,1.741879 -0.621497,2.08876 -1.014049,0.676557 -0.499665,1.378017 1.01054,1.378017 1.553747,0 1.572112,0.0398 1.904095,4.12531 l 0.253566,3.12044 -1.115962,1.65129 c -1.616995,2.39268 -3.217286,3.66677 -6.95955,5.54088 -5.704867,2.85697 -6.670251,3.03048 -8.915467,1.60244 -1.67597,-1.06599 -5.270295,-4.65755 -5.270295,-5.26624 0,-0.23468 -0.48215,-0.67589 -1.071442,-0.98044 -1.219624,-0.63033 -2.052512,-1.4815 -3.753885,-3.83628 l -1.192785,-1.65084 h -2.09243 -2.092429 l -1.454786,1.54568 c -0.800126,0.85012 -2.180444,2.66434 -3.067354,4.03158 -3.145897,4.84964 -3.438627,7.43672 -1.307248,11.55338 2.141896,4.13695 4.073984,5.51624 10.842209,7.74012 1.67599,0.5507 3.334758,1.1895 3.686152,1.41961 1.607836,1.05276 2.045622,2.91795 2.10233,8.95691 0.03646,3.88076 -0.02462,4.43079 -0.740377,6.66993 -1.107664,3.46517 -1.373545,3.89438 -2.631464,4.24806 -1.6626,0.46749 -9.901679,3.38561 -10.562809,3.74114 -0.731777,0.39353 -2.235551,2.09789 -2.773773,3.14375 -1.353929,2.63093 -0.35977,7.54652 2.009732,9.93712 l 0.814455,0.82169 3.857197,-0.16222 c 2.29908,-0.0966 5.011364,-0.41463 6.71438,-0.78703 4.010228,-0.87694 5.6346,-0.82539 7.733705,0.24544 2.469128,1.25958 6.274513,4.21103 7.616018,5.90701 1.799084,2.27445 3.339627,6.27547 2.976338,7.72995 -0.19805,0.79293 -3.454206,5.88953 -4.736912,7.41432 -0.831109,0.98797 -0.874681,1.16564 -0.874681,3.56625 v 2.52646 l 1.222937,1.17099 c 0.672625,0.64403 2.181656,1.68783 3.353408,2.31951 1.387384,0.74798 2.261128,1.42249 2.505076,1.93394 0.386257,0.80982 0.885511,1.01029 5.061613,2.03244 1.586294,0.38828 2.794346,0.36804 3.857196,-0.0646 z"
       id="path3135" />
    <path
       style="opacity:0.930349;fill:#ffffff;stroke-width:0.286409"
       d="m 98.480891,166.03088 c -1.854912,-0.38376 -7.455696,-3.24956 -9.298616,-4.75793 -1.697668,-1.38948 -2.617105,-1.84332 -3.734357,-1.84332 -2.06776,0 -2.966261,-1.32293 -4.653481,-6.85163 -1.432238,-4.6932 -1.533535,-6.54107 -0.437717,-7.98473 0.722383,-0.95167 0.731903,-1.02918 0.642862,-5.23591 -0.08151,-3.85293 -0.03782,-4.32831 0.447316,-4.86764 0.29573,-0.32875 0.784028,-0.67628 1.085105,-0.7723 0.301077,-0.096 1.666285,-1.08389 3.033789,-2.1953 1.367504,-1.11138 2.872098,-2.18779 3.343536,-2.39201 1.867159,-0.80883 6.447873,-2.43037 6.865563,-2.43037 0.243655,0 0.931254,-0.25029 1.527974,-0.55619 0.596729,-0.30591 2.230919,-0.77256 3.631525,-1.03699 3.74141,-0.70639 5.69227,-0.40608 8.4038,1.29365 0.23572,0.14775 0.88237,0.34069 1.43699,0.42876 1.55391,0.24676 4.46723,2.11249 6.5517,4.19584 2.34058,2.33931 3.94815,5.43502 5.13399,9.8866 0.46271,1.73699 1.04231,3.6385 1.28798,4.22556 0.55379,1.32335 0.57075,2.34763 0.0461,2.78515 -0.27428,0.22872 -0.43193,1.15636 -0.50001,2.94205 l -0.0994,2.608 -1.41226,1.24859 c -0.77675,0.68672 -1.35532,1.29427 -1.28573,1.35009 0.0696,0.0559 0.56565,0.27755 1.10235,0.49268 l 0.97583,0.39114 -1.26154,1.1196 c -0.69385,0.61576 -2.15235,1.87032 -3.24111,2.78793 l -1.97956,1.66836 -1.22851,-0.59975 c -1.45956,-0.71255 -1.82356,-0.49966 -1.13844,0.66581 0.48723,0.82878 0.48529,0.85248 -0.0696,0.85248 -0.3139,0 -0.65149,0.13128 -0.75019,0.29176 -0.0987,0.1605 -0.28827,0.22424 -0.42124,0.14166 -0.13299,-0.0826 -0.62667,0.17527 -1.09709,0.57301 -1.50215,1.2701 -3.00226,1.61789 -7.47892,1.73395 -2.27861,0.059 -4.72149,-0.0122 -5.428649,-0.1586 z m 6.648229,-5.33596 c 5.92219,-1.90362 8.12328,-3.2665 8.64427,-5.35238 0.10308,-0.41267 0.62593,-1.26511 1.16187,-1.8943 0.53595,-0.62916 0.97446,-1.29207 0.97446,-1.47307 0,-0.18102 0.45,-1.18121 1.00001,-2.2227 0.55001,-1.04146 0.99847,-2.29397 0.99656,-2.78337 -0.005,-1.33952 -1.50242,-5.55934 -3.03721,-8.56002 -1.52874,-2.98887 -4.04503,-5.82323 -5.42167,-6.10699 -0.45294,-0.0934 -2.00155,-0.55234 -3.44138,-1.01989 -3.3361,-1.08335 -4.32734,-1.06794 -7.582395,0.11781 -7.75343,2.82447 -8.678643,3.82673 -8.997753,9.74727 -0.311145,5.77303 -0.23481,7.37513 0.449397,9.43167 1.33264,4.00552 5.061368,8.09715 9.601396,10.53588 1.514445,0.81351 1.905865,0.78443 5.652445,-0.41991 z"
       id="path3137" />
    <path
       style="opacity:0.930349;fill:#ffffff;stroke-width:0.286409"
       d="m 82.13866,202.29275 c -3.48477,-0.77767 -4.216947,-1.09491 -4.793572,-2.07695 -0.397605,-0.67714 -1.113518,-1.21964 -2.420815,-1.83436 -1.020939,-0.48006 -2.385599,-1.35342 -3.032577,-1.94074 -1.988894,-1.80557 -2.298103,-4.67642 -0.708524,-6.57834 1.408564,-1.68531 4.59253,-6.87811 4.793972,-7.81859 0.469648,-2.19262 -1.562358,-6.98933 -3.993006,-9.42584 -1.842372,-1.8468 -5.495889,-4.37713 -7.540534,-5.22237 -2.038643,-0.84277 -3.599074,-0.83419 -7.861574,0.0431 -4.787777,0.98543 -8.625628,1.2254 -9.80416,0.613 -1.057021,-0.54926 -2.120769,-2.27162 -2.758201,-4.46593 -0.61143,-2.10482 -0.570137,-3.3099 0.164042,-4.78706 1.036857,-2.08619 2.596899,-3.48385 4.458542,-3.9945 0.901342,-0.24723 2.860249,-0.90799 4.353127,-1.46835 1.49288,-0.56038 3.377112,-1.21878 4.187185,-1.46315 1.607208,-0.48481 1.673033,-0.56893 2.869175,-3.66669 0.751988,-1.9475 0.776407,-2.19202 0.788458,-7.89536 0.01337,-6.32246 -0.153692,-7.34024 -1.461015,-8.90146 -0.513923,-0.61371 -1.2766,-1.01197 -2.7612,-1.44177 -2.710273,-0.78469 -6.341849,-2.193 -7.775349,-3.01533 -2.860405,-1.64079 -5.564677,-5.87657 -5.79505,-9.07691 -0.09367,-1.30126 0.02765,-1.94882 0.600783,-3.2068 0.849296,-1.86408 3.460511,-5.8539 4.99102,-7.62601 0.95863,-1.10997 1.25375,-1.27245 2.535921,-1.39625 1.849307,-0.17857 2.406891,0.13609 3.694017,2.08465 1.090961,1.65158 3.107595,3.58234 3.741655,3.58234 0.203397,0 0.576879,0.40236 0.82996,0.89415 1.181096,2.29506 5.324081,5.80972 7.229681,6.13325 1.458969,0.24769 4.657332,-0.8202 8.4228,-2.81225 3.52799,-1.8664 4.705156,-2.87337 6.522322,-5.57937 1.378236,-2.05238 1.432511,-2.20463 1.138754,-3.19468 -0.169646,-0.57179 -0.387361,-1.94402 -0.483811,-3.04935 -0.286797,-3.28696 -0.294538,-3.30172 -1.734458,-3.30172 -1.219575,0 -1.668669,-0.35317 -0.850335,-0.668709 0.27286,-0.105213 0.450121,-0.792306 0.544938,-2.11222 0.158758,-2.210063 0.449368,-3.828714 0.763591,-4.253115 0.116916,-0.157908 0.298399,-0.765978 0.403303,-1.351303 0.113388,-0.632594 0.4821,-1.294505 0.909154,-1.632037 0.768439,-0.607383 1.276509,-0.683007 7.831896,-1.165511 4.079887,-0.300318 6.818043,-0.830525 8.320252,-1.611108 0.72051,-0.3744 0.774873,-0.356368 0.941988,0.312713 0.186536,0.746826 0.701895,0.918465 1.213655,0.404228 0.21528,-0.216306 0.48144,0.03565 0.90971,0.861324 0.52115,1.004687 0.54204,1.167093 0.15014,1.167093 -0.5452,0 -0.47316,0.749842 0.39996,4.163014 0.32314,1.263274 0.72353,3.055694 0.88976,3.983145 0.22079,1.232009 0.61255,2.099356 1.45413,3.219426 0.63355,0.8432 1.29453,1.8476 1.46883,2.23203 0.19922,0.43937 0.64709,0.76526 1.20601,0.8776 0.48901,0.0983 1.72795,0.67698 2.7532,1.28603 5.08753,3.02216 7.37289,3.71551 10.42352,3.16232 2.05679,-0.37296 2.85267,-0.7661 4.56427,-2.25467 0.72082,-0.62691 1.50654,-1.25001 1.74603,-1.38469 0.23949,-0.13467 0.76455,-1.19582 1.1668,-2.35811 0.7319,-2.11479 2.53074,-4.926549 3.46639,-5.418305 0.27356,-0.143775 1.41125,-0.468047 2.52821,-0.720604 1.11696,-0.252556 2.3384,-0.574236 2.71432,-0.714839 0.53851,-0.201446 0.85482,-0.111354 1.49115,0.424785 0.44421,0.374272 1.00439,0.680493 1.24487,0.680493 0.30517,0 0.37439,0.15175 0.2292,0.502432 -0.32153,0.776576 -0.51405,3.119608 -0.32012,3.896058 0.11121,0.44524 0.84799,1.1384 2.03846,1.9178 2.16977,1.4205 2.34647,1.84433 1.85661,4.45307 -0.46263,2.46373 -1.4075,3.8239 -4.55336,6.55471 -2.93241,2.54548 -4.37465,4.19715 -5.01978,5.74866 -0.60671,1.4591 -0.21503,2.77811 1.46598,4.93669 1.30665,1.67787 3.26438,5.4887 4.2687,8.30927 0.28113,0.78952 0.87899,1.80553 1.32856,2.25781 0.78473,0.78943 0.89407,0.81491 2.73537,0.63782 6.23267,-0.59946 7.14724,-0.47949 7.48936,0.98255 0.16486,0.70458 0.22568,0.71874 3.98955,0.92977 4.79142,0.26864 5.29494,0.51573 5.0272,2.46691 -0.42725,3.11365 -1.12507,6.00962 -1.73977,7.22007 -0.36192,0.71269 -0.74504,1.97408 -0.85137,2.80308 l -0.19331,1.5073 h -2.9018 c -1.59599,0 -4.90169,0.0844 -7.346,0.18619 l -4.4442,0.18523 -1.74491,2.32597 c -2.68915,3.58467 -3.87353,5.7811 -3.73947,6.93489 0.0998,0.85864 0.0245,0.9893 -0.65633,1.13955 -0.86812,0.19162 -1.40633,0.72497 -2.07954,2.06087 -0.6528,1.29541 -0.57817,1.96309 0.29671,2.6546 l 0.75973,0.6005 -1.33117,1.2817 c -1.42382,1.37088 -1.57864,1.70869 -0.9026,1.96938 0.75967,0.2929 0.45605,0.69984 -0.48965,0.65623 -1.31026,-0.0604 -1.34663,0.70393 -0.10297,2.16392 0.56166,0.65936 1.0212,1.35193 1.0212,1.53908 0,0.52933 1.13743,1.85322 1.59219,1.85322 0.2913,0 0.41753,-0.38968 0.44178,-1.36376 l 0.0339,-1.36372 0.33544,1.42081 c 0.37728,1.59807 1.19462,2.28783 3.0928,2.61008 0.81902,0.13905 1.24371,0.068 1.61572,-0.27027 0.5616,-0.51072 1.90045,-0.61654 2.17397,-0.17182 0.10213,0.16604 -0.17091,0.28709 -0.64763,0.28709 -0.75158,0 -1.6253,0.65573 -2.17036,1.62881 -0.10377,0.18525 0.0624,0.76665 0.36908,1.29198 0.30676,0.52531 0.64544,1.62733 0.75263,2.44892 0.26219,2.00974 -0.43782,3.17208 -4.00304,6.64673 -1.81053,1.76457 -2.81123,2.96536 -2.91792,3.50142 -0.16695,0.83877 -0.22104,0.86454 -2.72307,1.29666 -2.64761,0.4573 -4.98304,-1.25301 -7.67072,-5.61746 -2.03179,-3.29935 -4.39433,-6.42374 -5.6335,-7.45013 -1.37076,-1.13537 -3.03583,-1.3137 -8.60945,-0.92203 -5.14874,0.3618 -8.24272,0.93796 -9.926622,1.84847 -2.207677,1.19376 -3.801976,2.35961 -3.817165,2.79134 -0.0078,0.23686 -0.59284,1.3268 -1.298921,2.4221 -0.807974,1.25337 -1.601444,3.02588 -2.140898,4.78251 -0.955894,3.11265 -2.760568,6.14534 -3.960205,6.65497 -0.410223,0.17426 -1.073132,0.61433 -1.473141,0.97789 -0.867273,0.78831 -2.714894,1.04515 -4.558508,0.63374 z m 24.57178,-35.57833 c 2.79831,-0.36461 4.6176,-0.98885 5.43742,-1.86571 0.36425,-0.38964 0.92916,-0.71038 1.25533,-0.7128 0.92447,-0.007 1.40694,-0.44329 1.23223,-1.11463 -0.1789,-0.6874 -0.10539,-0.7209 0.66867,-0.3046 0.4116,0.22135 0.80162,0.18184 1.50194,-0.15207 1.42433,-0.67919 6.19036,-4.96316 6.19036,-5.56427 0,-0.28581 -0.34347,-0.67693 -0.76327,-0.86914 l -0.76327,-0.34946 0.8688,-0.53091 c 1.0865,-0.66393 1.51205,-1.86058 1.52502,-4.2884 0.006,-1.09837 0.18179,-2.19686 0.41845,-2.61286 0.5342,-0.93899 0.53674,-2.6894 0.005,-3.72186 -0.23275,-0.45225 -0.81704,-2.2869 -1.29841,-4.07698 -1.05697,-3.93046 -2.04275,-6.11755 -3.82234,-8.48043 -2.10279,-2.79201 -6.50905,-5.81747 -8.48342,-5.82495 -0.4078,-0.003 -0.97532,-0.26249 -1.26117,-0.57988 -1.66194,-1.84535 -7.96741,-1.86333 -12.843711,-0.0366 -0.791798,0.29659 -2.082499,0.75889 -2.868228,1.02729 -4.926761,1.68296 -5.88847,2.15533 -8.204743,4.02976 -1.301755,1.05343 -2.844682,2.16463 -3.428725,2.46929 -0.584044,0.30469 -1.19476,0.80343 -1.357164,1.10834 -0.164701,0.30926 -0.295271,2.41577 -0.295271,4.76376 0,3.9055 -0.04643,4.2747 -0.642863,5.11497 -0.544156,0.76656 -0.639442,1.25831 -0.62052,3.20245 0.01877,1.93222 0.237292,2.95032 1.37634,6.41333 1.648711,5.01251 2.404679,6.04394 4.611209,6.29142 1.158967,0.12999 1.889688,0.49864 3.99025,2.01317 2.648079,1.90927 5.427491,3.44111 7.426511,4.09302 2.432331,0.79318 6.588915,1.02214 10.145175,0.55879 z"
       id="path3139" />
    <path
       style="opacity:0.930349;fill:#ffffff;stroke-width:0.286409"
       d="m 80.625054,201.78705 c -1.490989,-0.39733 -2.221143,-0.7866 -3.142906,-1.67559 -0.660397,-0.63691 -2.119786,-1.68938 -3.243088,-2.33879 -2.353365,-1.36058 -3.427446,-2.5062 -3.695418,-3.94156 -0.318289,-1.70487 0.05718,-2.85209 1.708342,-5.21991 4.006699,-5.74573 4.422317,-7.02557 3.323616,-10.2345 -1.258916,-3.67687 -3.582861,-6.44645 -7.738593,-9.22258 -3.9894,-2.66502 -5.453217,-2.87119 -12.155099,-1.71212 -4.754854,0.82234 -7.755724,0.91929 -8.967347,0.28969 -1.220823,-0.63437 -2.665962,-3.7511 -2.812655,-6.06603 -0.09809,-1.54802 -0.0093,-1.99264 0.607782,-3.04261 1.453807,-2.47382 2.241802,-2.96201 7.990041,-4.95021 2.925767,-1.01196 5.563776,-1.97125 5.862243,-2.13176 0.66552,-0.3579 1.930332,-3.12013 2.368273,-5.17207 0.201917,-0.94608 0.285992,-3.64402 0.223178,-7.16161 -0.09841,-5.51047 -0.118774,-5.67444 -0.862836,-6.94618 -0.902237,-1.54212 -1.08855,-1.64901 -5.523755,-3.16876 -1.885742,-0.64616 -4.175964,-1.57403 -5.089385,-2.06195 -3.261393,-1.74212 -5.879991,-5.65507 -6.13232,-9.16345 -0.13121,-1.82436 -0.08037,-2.0227 1.066923,-4.163 1.411851,-2.63382 4.148128,-6.53769 5.121813,-7.30733 0.795007,-0.62838 3.098866,-0.73704 3.810602,-0.17971 0.252069,0.19738 1.120676,1.19867 1.930243,2.22507 0.809566,1.02638 1.988719,2.2157 2.620341,2.64288 0.631622,0.4272 1.535027,1.36323 2.007567,2.0801 1.670393,2.53408 5.502834,5.3178 7.328307,5.32296 1.267449,0.004 4.695715,-1.17497 7.414626,-2.54896 3.811933,-1.92637 5.899085,-3.78676 7.69637,-6.8602 0.704106,-1.20407 0.711652,-1.278 0.366445,-3.58881 -0.193856,-1.29767 -0.43587,-2.93719 -0.537802,-3.64335 -0.177808,-1.23185 -0.233236,-1.29346 -1.366781,-1.51871 -1.165741,-0.23166 -1.176561,-0.24512 -0.81339,-1.012889 0.202439,-0.427966 0.449505,-1.682499 0.549043,-2.787855 0.09953,-1.105356 0.470773,-2.849514 0.824981,-3.875896 0.865592,-2.50825 1.341623,-2.721099 7.060046,-3.156638 4.880364,-0.371729 8.546871,-0.973897 9.756272,-1.602337 1.005392,-0.522438 1.004815,-0.522516 1.193384,0.202065 0.122086,0.469118 0.322902,0.579481 0.864893,0.475384 0.89634,-0.172179 1.33674,0.68782 1.15285,2.251225 -0.0814,0.692122 0.23796,2.658675 0.84512,5.20405 0.85621,3.589485 1.14672,4.354891 2.36757,6.237781 l 1.39159,2.14625 4.98499,2.51889 4.98499,2.5189 2.58654,-0.014 c 3.04179,-0.0164 4.03028,-0.37469 6.49379,-2.35386 1.49918,-1.20447 1.8776,-1.73517 3.22491,-4.52274 0.83954,-1.73696 1.89258,-3.504166 2.34008,-3.927084 0.57779,-0.546068 1.60557,-0.970155 3.54564,-1.463001 l 2.73201,-0.694027 1.14191,0.596766 1.14191,0.596756 -0.12192,2.334222 -0.12192,2.334188 1.07149,0.82886 c 3.09979,2.39786 3.07905,2.36837 2.91816,4.1513 -0.22927,2.54078 -0.99623,3.89129 -3.65681,6.43911 -3.85986,3.69625 -5.09686,5.0769 -5.7344,6.40025 -0.83178,1.72657 -0.58414,2.81202 1.28204,5.61939 1.68418,2.53358 2.85161,4.75294 4.02002,7.64237 0.41124,1.01697 1.09921,2.22082 1.52882,2.6752 l 0.78112,0.82614 4.18349,-0.2003 c 4.49102,-0.21501 4.55161,-0.19993 5.53093,1.37706 0.22129,0.35634 1.09633,0.52055 3.88022,0.7282 4.11547,0.307 4.8342,0.56877 4.8342,1.76076 0,1.33702 -0.75374,4.90688 -1.42799,6.76325 -0.593,1.63268 -0.90252,2.72962 -1.27563,4.52076 l -0.16446,0.78952 -5.49463,0.003 c -3.02205,0 -6.33426,0.0817 -7.36044,0.17917 l -1.86581,0.17712 -1.89149,2.62287 c -2.409,3.34051 -3.37703,5.17718 -3.37703,6.4074 0,0.82883 -0.13084,1.02288 -0.8626,1.27919 -1.03977,0.36425 -2.2803,2.3361 -2.2803,3.6246 0,0.59486 0.21053,1.03979 0.63259,1.33684 l 0.63259,0.44523 -1.20403,1.23277 c -1.18403,1.21228 -1.54944,2.18303 -0.84688,2.24984 0.19643,0.0188 -0.027,0.1166 -0.49651,0.21755 -1.19836,0.2577 -1.21633,0.96534 -0.0687,2.70708 0.54048,0.82035 1.1971,1.84682 1.45915,2.28106 0.53599,0.88821 1.60096,1.07749 1.6152,0.28712 0.007,-0.38228 0.15541,-0.30513 0.62096,0.32253 0.72706,0.98023 2.10733,1.6154 3.51032,1.6154 h 1.01577 l -0.4723,0.72434 c -0.4447,0.68198 -0.43673,0.81778 0.13627,2.32238 0.72899,1.91421 0.77174,3.26816 0.14184,4.49214 -0.25671,0.49883 -1.71872,2.21651 -3.24891,3.81707 -1.53019,1.6006 -2.95947,3.28002 -3.17618,3.7321 -0.44436,0.92706 -1.17661,1.20688 -3.26667,1.2483 -1.12812,0.0224 -1.72489,-0.15033 -2.7275,-0.78924 -1.44826,-0.92293 -2.25064,-1.88498 -4.82534,-5.78553 -0.99021,-1.50014 -2.48447,-3.5872 -3.32059,-4.63794 -2.19322,-2.7562 -2.85136,-2.96201 -8.76625,-2.74105 -7.21987,0.26968 -10.40103,0.98969 -13.661307,3.09194 -1.618207,1.04343 -3.625358,4.40375 -5.218807,8.73715 -1.505904,4.09534 -2.555452,5.7186 -4.606889,7.1251 -2.059951,1.41235 -3.766963,1.61475 -6.800694,0.80636 z M 109.56763,166.296 c 0.86429,-0.27347 1.95068,-0.77346 2.41419,-1.11112 0.46353,-0.33766 1.23496,-0.75398 1.71432,-0.92517 0.54795,-0.19567 0.90548,-0.5423 0.96291,-0.93353 0.0736,-0.50133 0.22545,-0.58845 0.78116,-0.44831 0.96882,0.24434 2.87407,-0.94484 5.44414,-3.398 2.17499,-2.07605 2.52797,-2.84749 1.54481,-3.37622 -0.54418,-0.29265 -0.53184,-0.3368 0.30405,-1.0873 0.78959,-0.70891 0.91261,-1.06484 1.31215,-3.7963 0.7912,-5.40913 0.79089,-5.42345 -0.18631,-8.50101 -2.5036,-7.88469 -3.10063,-9.14528 -5.63299,-11.89382 -1.91076,-2.07386 -4.56737,-3.87099 -6.61704,-4.47625 -0.84155,-0.24852 -1.97471,-0.75504 -2.51811,-1.12557 -1.27912,-0.87226 -2.92605,-1.10368 -6.53641,-0.91851 -2.560382,0.1313 -3.477834,0.33848 -7.314518,1.65178 -5.666103,1.93952 -7.396632,2.74295 -9.711126,4.50862 -1.042579,0.79538 -2.521174,1.87396 -3.285762,2.39687 -0.764597,0.52291 -1.468567,1.06677 -1.564371,1.20857 -0.09579,0.14178 -0.265461,2.26302 -0.377011,4.71383 -0.167575,3.68166 -0.305466,4.65394 -0.793441,5.59468 -0.870899,1.67896 -0.612446,4.8942 0.713412,8.8749 1.8619,5.59009 2.577569,6.57809 5.053021,6.97586 0.666926,0.10717 2.192026,0.91553 3.907542,2.07117 3.608703,2.43096 6.321144,3.80282 8.50453,4.30136 2.442894,0.55778 9.744584,0.36939 11.880854,-0.30653 z"
       id="path3141" />
    <path
       style="opacity:0.930349;fill:#ffffff;stroke-width:0.286409"
       d="m 98.853184,159.92943 c -3.211805,-1.86807 -6.3007,-5.05901 -7.745438,-8.00132 l -1.111837,-2.26431 -0.01007,-5.4661 c -0.01163,-6.29652 0.153744,-6.98262 2.182252,-9.05493 1.120438,-1.14464 1.744887,-1.46385 5.47599,-2.79926 2.316246,-0.82902 4.371579,-1.50803 4.567399,-1.50893 0.3103,-0.003 2.41955,0.66952 7.05247,2.24342 0.74268,0.2523 1.76671,0.94653 2.4724,1.67616 2.35541,2.4353 5.84315,10.65795 5.43024,12.80229 -0.0992,0.51517 -0.56382,1.50521 -1.03248,2.20006 -0.46866,0.69489 -0.85212,1.45146 -0.85212,1.68133 0,0.22984 -0.38917,0.91166 -0.86483,1.51512 -0.47565,0.6035 -1.00775,1.52646 -1.18245,2.05106 -0.68937,2.07018 -2.0943,2.94612 -7.96735,4.96755 -2.07367,0.71373 -3.85088,1.29536 -3.94936,1.2925 -0.0985,-0.003 -1.20765,-0.60343 -2.464819,-1.33464 z"
       id="path3143" />
    <path
       style="opacity:0.930349;fill:#ffffff;stroke-width:0.286409"
       d="m 98.869595,159.74258 c -2.983085,-1.80587 -6.057162,-5.02467 -7.547105,-7.90243 l -1.234764,-2.38489 0.100974,-5.64896 c 0.113075,-6.32572 0.158896,-6.50037 2.250729,-8.579 0.99367,-0.9874 1.871078,-1.45044 4.814449,-2.5407 1.97964,-0.73329 4.004742,-1.39988 4.500232,-1.48131 1.1272,-0.18529 7.60323,1.92946 8.93721,2.9184 1.26582,0.93842 2.1326,2.16269 3.61445,5.1052 1.47005,2.91906 2.69053,6.39951 2.69053,7.6726 0,0.84324 -1.87031,4.80987 -3.08504,6.54287 -0.30488,0.43496 -0.64079,1.07089 -0.74644,1.41314 -0.3507,1.136 -1.35055,2.11677 -3.02247,2.96485 -1.87137,0.94922 -8.10875,3.16989 -8.82089,3.14045 -0.25753,-0.0106 -1.360876,-0.55976 -2.451865,-1.22022 z"
       id="path3145" />
  </g>
</svg>
