<?xml version="1.0" encoding="UTF-8" standalone="no"?>
<svg
   xmlns:dc="http://purl.org/dc/elements/1.1/"
   xmlns:cc="http://creativecommons.org/ns#"
   xmlns:rdf="http://www.w3.org/1999/02/22-rdf-syntax-ns#"
   xmlns:svg="http://www.w3.org/2000/svg"
   xmlns="http://www.w3.org/2000/svg"
   xmlns:sodipodi="http://sodipodi.sourceforge.net/DTD/sodipodi-0.dtd"
   xmlns:inkscape="http://www.inkscape.org/namespaces/inkscape"
   width="132.29172mm"
   height="132.29167mm"
   viewBox="0 0 132.29172 132.29167"
   version="1.1"
   id="svg13772"
   inkscape:version="1.0 (b51213c273, 2020-08-10)">
  <defs
     id="defs13766" />
  <sodipodi:namedview
     id="base"
     pagecolor="#ffffff"
     bordercolor="#666666"
     borderopacity="1.0"
     inkscape:pageopacity="0.0"
     inkscape:pageshadow="2"
     inkscape:zoom="0.35"
     inkscape:cx="224.92543"
     inkscape:cy="271.95822"
     inkscape:document-units="mm"
     inkscape:current-layer="layer1"
     inkscape:document-rotation="0"
     showgrid="false"
     inkscape:snap-global="false"
     fit-margin-top="0"
     fit-margin-left="0"
     fit-margin-right="0"
     fit-margin-bottom="0"
     showborder="false"
     inkscape:window-width="1318"
     inkscape:window-height="704"
     inkscape:window-x="48"
     inkscape:window-y="27"
     inkscape:window-maximized="1" />
  <metadata
     id="metadata13769">
    <rdf:RDF>
      <cc:Work
         rdf:about="">
        <dc:format>image/svg+xml</dc:format>
        <dc:type
           rdf:resource="http://purl.org/dc/dcmitype/StillImage" />
        <dc:title></dc:title>
      </cc:Work>
    </rdf:RDF>
  </metadata>
  <g
     inkscape:label="Layer 1"
     inkscape:groupmode="layer"
     id="layer1"
     transform="translate(-46.321814,-76.211053)">
    <path
       style="fill:#ff0000;stroke-width:0.693212"
       d="m 102.96135,207.88218 c -0.23508,-0.38217 0.21343,-0.69487 0.99651,-0.69487 0.80466,0 1.42389,-0.45332 1.42389,-1.04237 0,-0.57326 0.26224,-1.04233 0.58266,-1.04233 0.83002,0 3.25228,-4.71685 2.70477,-5.267 -0.25055,-0.25177 0.0206,-0.93438 0.59901,-1.51714 0.59836,-0.60127 0.89565,-1.69503 0.68737,-2.52891 -0.33062,-1.32326 0.3626,-3.47088 1.03586,-3.20958 0.1478,0.0573 0.8291,-0.11189 1.51433,-0.3762 0.94081,-0.36277 1.14443,-0.94457 0.83157,-2.37598 -0.34027,-1.55713 0.0103,-2.26937 1.9582,-3.98879 2.2904,-2.02081 2.51285,-2.07196 6.42962,-1.47917 3.32956,0.5039 4.4618,1.04806 6.3139,3.03455 1.24125,1.33129 2.53054,2.42052 2.86507,2.42052 0.51196,0 1.46983,1.51977 1.75188,2.77958 0.24882,1.11072 1.62963,2.68477 2.98073,3.39749 0.85575,0.45142 1.55596,1.27883 1.55596,1.83866 0,1.16868 5.16634,1.48022 5.85943,0.35335 0.22478,-0.36551 0.86556,-0.48838 1.42388,-0.27319 0.55833,0.21517 1.01518,0.0453 1.01518,-0.37778 0,-1.3915 2.7325,-3.54884 4.495,-3.54884 0.95086,0 1.72885,-0.31289 1.72885,-0.69489 0,-0.38222 0.43306,-0.69491 0.96235,-0.69491 0.52929,0 1.15759,-0.78176 1.39626,-1.73723 0.23852,-0.95548 0.75753,-1.73724 1.15309,-1.73724 0.39556,0 0.51392,-0.33362 0.26293,-0.74167 -0.2509,-0.40793 0.15879,-0.90332 0.91078,-1.10087 0.75187,-0.19754 1.76137,-1.0997 2.2434,-2.00472 0.48199,-0.90501 1.22076,-1.58224 1.64166,-1.50497 0.43288,0.0794 0.68721,-0.6355 0.58555,-1.64624 -0.15295,-1.52273 0.18662,-1.88208 2.29875,-2.43211 1.36314,-0.35499 2.44917,-0.95809 2.41339,-1.34031 -0.0777,-0.83073 -5.73883,-0.96918 -6.32236,-0.15472 -0.22374,0.31221 -0.75247,0.1492 -1.17501,-0.36221 -0.61096,-0.73973 -0.32274,-0.96425 1.40791,-1.09677 3.06681,-0.23484 3.23065,-0.70975 0.8925,-2.58727 -1.12618,-0.9043 -2.1596,-1.53167 -2.29646,-1.39413 -0.5273,0.52987 -4.99175,-4.18383 -4.99175,-5.27042 0,-1.22996 -1.79333,-2.24684 -2.82857,-1.60392 -0.34602,0.21482 -0.62913,0.0594 -0.62913,-0.34501 0,-0.40473 0.43911,-0.7359 0.97582,-0.7359 0.5367,0 1.7614,-0.93811 2.72155,-2.0847 0.96009,-1.14657 2.23252,-2.08468 2.82763,-2.08468 0.59507,0 1.08195,-0.2863 1.08195,-0.63598 0,-0.96542 3.8832,-4.44275 5.31139,-4.75627 2.37327,-0.52103 7.17489,-0.19513 8.62644,0.58552 1.10082,0.59201 1.57924,0.57392 1.97824,-0.0749 0.28939,-0.47062 0.83965,-0.66106 1.22269,-0.4232 0.84945,0.52753 1.71548,-1.47997 1.08247,-2.50919 -0.26809,-0.43581 -0.12682,-0.53593 0.34369,-0.24382 0.44083,0.27387 0.83792,0.0884 0.88666,-0.41382 0.0485,-0.50028 0.20381,-1.53503 0.34479,-2.29941 0.14092,-0.76439 0.3592,-2.34911 0.48462,-3.52162 0.12544,-1.1725 0.44216,-2.4799 0.70382,-2.90528 0.26155,-0.42541 0.12613,-0.99053 -0.30109,-1.2558 -0.55028,-0.3419 -0.50316,-0.65646 0.16154,-1.0797 0.66488,-0.42335 0.69137,-0.60052 0.0911,-0.60805 -0.59627,-0.007 -0.66927,-0.48115 -0.24642,-1.59864 0.71442,-1.88827 -0.27324,-3.54157 -2.54953,-4.26753 -0.85983,-0.27421 -1.39475,-0.77275 -1.18863,-1.10781 0.43682,-0.71027 -0.97915,-6.99757 -1.77612,-7.8863 -0.9488,-1.05798 -5.9172,-1.66021 -6.99568,-0.84799 -0.55307,0.41657 -1.59773,1.77367 -2.32142,3.01579 -0.72371,1.24213 -1.71198,2.25839 -2.19613,2.25839 -1.45005,0 -3.69516,-2.27516 -4.77592,-4.83989 -0.55805,-1.32429 -1.39154,-2.64847 -1.85223,-2.94268 -0.53499,-0.34157 -0.27564,-0.53873 0.71836,-0.54551 0.8558,-0.007 1.55597,-0.24935 1.55597,-0.54076 0,-0.29148 -0.70017,-0.84313 -1.55597,-1.22568 -2.70883,-1.21095 -0.70774,-6.64296 2.05477,-5.57777 0.48637,0.18753 0.88429,-0.10844 0.88429,-0.65773 0,-0.60228 0.41179,-0.83996 1.0373,-0.59876 0.66254,0.25557 1.03731,-0.0139 1.03731,-0.74114 0,-2.0059 2.11132,-4.46439 4.23673,-4.93348 2.33817,-0.51605 2.3026,-2.15817 -0.0409,-1.89093 -1.38526,0.15783 -1.42801,0.0722 -0.45231,-0.90834 0.97572,-0.98044 0.94777,-1.22274 -0.29557,-2.56389 -1.3623,-1.46935 -1.6333,-2.185795 -1.4331,-3.788615 0.0571,-0.457774 -0.58143,-1.200888 -1.41915,-1.651414 -0.83769,-0.450487 -3.10376,-2.34272 -5.0357,-4.20495 -1.93192,-1.862221 -3.70799,-3.386154 -3.94682,-3.386576 -0.23886,-3.63e-4 -1.63918,-0.519491 -3.11191,-1.153579 -2.61273,-1.124871 -7.86382,-1.305525 -8.55539,-0.294248 -0.19041,0.278367 -0.92875,0.722745 -1.64073,0.987391 -1.01267,0.376444 -1.2049,0.93141 -0.88295,2.54898 0.28492,1.431249 0.15122,2.016219 -0.43433,1.900278 -0.46824,-0.09252 -0.94564,0.706815 -1.0693,1.790906 -0.29524,2.587971 -5.68474,6.200477 -8.35987,5.603457 -2.54984,-0.569089 -5.39391,-3.884078 -6.31525,-7.36097 -0.43439,-1.639285 -1.22379,-3.469871 -1.75419,-4.067973 -0.53038,-0.598092 -1.30985,-2.083466 -1.73216,-3.300756 -0.42232,-1.21729 -1.0486,-2.213285 -1.39173,-2.213285 -0.34303,0 -0.62388,-0.331196 -0.62388,-0.735925 0,-0.404729 0.24677,-0.582732 0.54808,-0.395507 0.9543,0.592631 0.82962,-3.330456 -0.1471,-4.626121 -1.32693,-1.760441 -3.69316,-2.027376 -5.78179,-0.652217 -2.56365,1.68792 -13.280902,1.701424 -15.13252,0.02072 -1.037428,-0.942567 -1.834387,-1.05732 -3.974543,-0.572301 -3.396276,0.76971 -4.844553,2.178124 -4.232459,4.116018 0.256733,0.812532 0.773101,1.287022 1.147708,1.054423 1.253169,-0.778305 4.040283,0.34087 3.615966,1.452168 -0.477937,1.251596 -1.701364,1.391462 -1.457582,0.166816 0.0952,-0.477771 -0.293854,-0.747289 -0.864429,-0.598957 -0.570486,0.148156 -2.074113,0.214813 -3.341346,0.148156 -1.439324,-0.07602 -2.137751,0.148853 -1.860943,0.598966 0.243684,0.396263 1.348602,0.720486 2.455259,0.720486 1.537405,0 1.914572,0.255228 1.598785,1.082256 -0.227176,0.595263 -0.809264,0.929612 -1.293222,0.742977 -1.079192,-0.416122 -1.946886,2.461049 -0.932231,3.091188 0.443982,0.275597 0.300393,0.6125 -0.371772,0.871666 -0.602428,0.232423 -1.09531,0.763317 -1.09531,1.180057 0,0.416751 0.311037,0.564464 0.691538,0.328093 0.380363,-0.236223 0.691547,-0.09843 0.691547,0.306338 0,0.404759 0.544595,0.745433 1.210222,0.757032 1.136154,0.02072 1.137669,0.06354 0.02404,0.715447 -0.942689,0.552168 -1.048854,1.054942 -0.518675,2.456245 0.853267,2.255144 0.869315,8.62043 0.02062,8.62043 -0.354727,0 -0.843914,0.62994 -1.087109,1.39989 -0.243333,0.76991 -0.69316,1.24399 -0.999906,1.05349 -0.306922,-0.19064 -1.524396,0.13814 -2.705775,0.73037 -1.973969,0.98953 -2.318111,0.97582 -4.246924,-0.16923 -1.197115,-0.71058 -1.947882,-1.64136 -1.747379,-2.16634 0.193505,-0.50627 0.06734,-0.74402 -0.280112,-0.5283 -0.895354,0.55603 -4.661584,-3.08701 -5.501608,-5.321684 -1.054972,-2.806437 -3.853434,-4.424803 -5.973132,-3.454304 -0.930794,0.426149 -2.154895,0.596442 -2.72027,0.378417 -1.872516,-0.722018 -5.566927,2.292131 -7.103511,5.795581 -0.801905,1.82837 -1.630043,3.87623 -1.840311,4.5508 -0.210335,0.67459 -1.165877,1.52586 -2.123549,1.89174 -1.519128,0.58034 -1.725007,1.04444 -1.613819,3.63776 0.07008,1.6349 -0.09588,3.63483 -0.368683,4.44428 -0.617099,1.83045 0.56211,5.12976 1.833439,5.12976 0.520043,0 1.534835,1.0996 2.255078,2.44349 0.738472,1.37793 1.69071,2.29656 2.183533,2.1065 0.505704,-0.19512 0.873939,0.19237 0.873939,0.91977 0,0.85411 0.90372,1.55643 2.820668,2.19218 1.728271,0.57313 3.845556,2.1054 5.467007,3.95639 1.45548,1.66153 2.753541,2.69859 2.884561,2.30457 0.130941,-0.39403 0.268764,0.72035 0.306228,2.47641 0.04017,1.89852 0.460861,3.45758 1.0373,3.84598 0.641475,0.43218 0.100017,0.50221 -1.600652,0.20686 -1.887528,-0.32774 -2.864827,-0.14989 -3.679995,0.66911 -1.488848,1.4961 -2.190883,1.40565 -3.156081,-0.40656 l -0.810535,-1.52183 -1.2873,1.59746 c -0.955102,1.18518 -1.722876,1.48761 -2.97492,1.17185 -0.928146,-0.23416 -1.881107,-0.11086 -2.117676,0.27387 -0.285957,0.46469 -0.896106,0.44876 -1.818719,-0.0473 -1.143544,-0.61494 -1.673626,-0.43771 -3.003588,1.00428 -1.77332,1.92273 -1.772909,1.71828 -0.02746,12.45995 1.28167,7.88058 1.997759,10.08831 3.454304,10.64994 0.576234,0.22206 1.047681,1.16331 1.047681,2.09136 0,1.4424 0.190749,1.58477 1.313973,0.98073 1.012045,-0.54426 1.411721,-0.45059 1.739511,0.4077 0.312415,0.81825 0.968082,1.00531 2.46731,0.70402 1.487548,-0.29909 2.216686,-0.0964 2.686178,0.74674 0.596994,1.07196 0.941888,1.05895 4.690085,-0.17718 2.225141,-0.73382 4.787864,-1.88974 5.694946,-2.56869 2.189436,-1.6388 2.660229,-1.57184 4.815837,0.68534 1.008399,1.05587 2.576065,2.3994 3.483695,2.98561 1.320022,0.85256 1.650275,1.66523 1.650275,4.061 0,3.1717 -0.841021,4.20774 -3.430446,4.22598 -0.980348,0.007 -1.508915,0.43871 -1.501389,1.22669 0.0068,0.66883 -0.359955,2.53685 -0.814044,4.15117 -1.2959,4.60691 -0.330633,6.67183 5.252411,11.23536 1.118552,0.91431 2.557045,2.11611 3.196692,2.67062 0.639618,0.55455 2.245216,1.10933 3.568034,1.23286 1.322779,0.12365 3.007937,0.54882 3.744747,0.94509 0.871955,0.46889 1.575563,0.48343 2.015225,0.0417 0.439643,-0.44178 1.117682,-0.18787 1.941969,0.7274 0.696571,0.77343 1.818378,1.40624 2.492986,1.40624 0.67457,0 1.659734,0.43533 2.189228,0.96739 0.529495,0.53207 1.56308,1.12119 2.29691,1.30917 0.73378,0.18787 1.43032,0.37806 1.54787,0.42241 0.11754,0.0442 0.0206,-0.23208 -0.21379,-0.61433 z m -8.118632,-8.73696 c -0.258453,-0.2597 -1.467961,-0.58907 -2.687615,-0.73178 -2.4245,-0.28354 -3.024553,-0.65497 -3.024553,-1.87155 0,-0.44067 -0.622405,-0.91552 -1.383093,-1.05525 -0.760698,-0.13987 -2.394455,-1.01985 -3.630578,-1.95581 -1.875575,-1.4202 -2.247523,-2.15955 -2.247523,-4.46787 0,-1.81763 0.355655,-2.90314 1.037311,-3.166 0.570526,-0.22 1.03733,-0.76432 1.03733,-1.20966 0,-0.44531 0.943412,-1.95976 2.096466,-3.36537 1.63321,-1.99098 2.004151,-2.98572 1.678708,-4.50145 -1.018633,-4.74411 -2.6139,-7.11261 -6.783707,-10.07173 -5.352164,-3.79818 -6.685665,-4.16232 -10.774739,-2.9421 -1.83165,0.54657 -5.288535,1.07159 -7.681944,1.16671 -4.177323,0.16611 -4.400903,0.0895 -5.580806,-1.91179 -1.708479,-2.89758 -2.18796,-6.29538 -1.143299,-8.10135 1.346871,-2.32832 3.187797,-4.05934 4.317149,-4.05934 1.097235,0 6.130601,-1.75965 8.16771,-2.85544 0.681109,-0.36637 1.511534,-0.49642 1.845471,-0.28908 0.334064,0.20723 0.824864,-0.64199 1.090989,-1.88743 0.266018,-1.24547 0.811151,-2.88988 1.211112,-3.65426 0.638034,-1.21927 0.673641,-2.88198 0.230958,-10.77089 -0.104825,-1.86906 -1.723247,-4.47295 -2.850498,-4.58647 -2.554503,-0.25729 -9.046682,-2.79245 -10.673734,-4.16816 -2.258656,-1.90975 -4.474354,-6.10157 -4.554159,-8.61593 -0.05043,-1.58891 1.41224,-5.42283 2.386655,-6.25588 0.223404,-0.19099 1.263696,-1.67646 2.311513,-3.30076 1.646092,-2.55183 2.235697,-2.95332 4.337353,-2.95332 1.683653,0 2.57107,0.3743 2.883182,1.21609 0.651102,1.75602 3.820408,5.01727 4.478577,4.6085 0.307606,-0.19099 0.559471,0.11362 0.559471,0.67687 0,0.56335 1.455509,2.31171 3.234507,3.88525 3.611714,3.19459 4.634716,3.27702 9.904749,0.79823 4.877393,-2.29406 7.201495,-3.87592 7.979756,-5.43129 0.395181,-0.78984 1.133477,-1.93844 1.640619,-2.55249 0.507171,-0.61407 0.615975,-1.11646 0.241632,-1.11646 -0.374187,0 -0.532603,-0.77654 -0.352049,-1.72566 0.180437,-0.94909 0.08797,-2.278069 -0.205536,-2.953291 -0.293855,-0.675219 -0.471311,-1.502149 -0.394741,-1.837637 0.07663,-0.335341 -0.496078,-0.442993 -1.27259,-0.238983 -0.776531,0.204107 -1.586148,0.0877 -1.799132,-0.258676 -0.213092,-0.346331 0.09002,-0.629667 0.673572,-0.629667 0.799941,0 0.962931,-0.491973 0.662675,-2.000437 -0.233715,-1.173919 -0.06979,-2.204338 0.396657,-2.49399 0.587747,-0.365021 0.560869,-0.783735 -0.103096,-1.607453 -0.673172,-0.834984 -0.681558,-0.983208 -0.0344,-0.592013 0.475425,0.28699 0.903319,0.190633 0.95085,-0.214126 0.0474,-0.404758 0.125449,-1.032982 0.172882,-1.396058 0.223745,-1.710195 1.988239,-2.35436 5.997799,-2.18994 4.425421,0.181322 11.019611,-1.116169 11.885231,-2.338881 0.28766,-0.406153 0.51266,-0.129514 0.51866,0.637397 0.007,1.053932 0.19488,1.169735 0.84044,0.521191 1.21686,-1.222761 2.62943,-1.016512 2.61726,0.382169 -0.0104,1.01995 -0.11445,1.051211 -0.65393,0.193746 -0.35384,-0.562214 -0.83069,-0.833972 -1.05966,-0.603896 -0.22889,0.230007 0.0877,0.924603 0.70334,1.543389 1.00898,1.01387 1.01167,1.125077 0.0275,1.125077 -0.82929,0 -0.93457,0.292864 -0.43693,1.216053 0.91181,1.691269 1.67028,5.111346 1.5075,6.797636 -0.0753,0.780838 0.66262,2.110268 1.65066,2.973528 0.98288,0.858712 1.60028,1.864923 1.37203,2.236012 -0.2282,0.37106 0.18389,0.6747 0.91571,0.6747 0.73187,0 2.07279,0.56729 2.97986,1.26064 2.5187,1.92528 6.49174,3.6036 8.53063,3.6036 2.02925,0 5.91213,-1.78403 5.91213,-2.71637 0,-0.32775 0.65371,-0.76777 1.45265,-0.97771 0.79895,-0.20998 1.26067,-0.69387 1.02603,-1.07539 -0.23475,-0.38152 -0.11033,-0.89007 0.27632,-1.130129 0.38656,-0.240024 0.70283,-1.043405 0.70283,-1.785242 0,-0.741838 0.23749,-1.348779 0.52757,-1.348779 0.29007,0 0.83474,-0.687712 1.21017,-1.528225 0.46847,-1.048716 1.43463,-1.611274 3.07919,-1.79294 1.3181,-0.145739 2.95649,-0.565839 3.64085,-0.933895 0.91368,-0.491343 1.34866,-0.395879 1.63705,0.359286 0.23681,0.620229 0.85037,0.856296 1.5457,0.594743 0.9098,-0.342255 0.99709,-0.223103 0.41398,0.565053 -0.40645,0.549289 -0.79249,1.865117 -0.8579,2.924067 -0.0962,1.558789 0.32893,2.13992 2.23291,3.052268 2.01052,0.963393 2.32648,1.440293 2.17742,3.286383 -0.26843,3.32394 -1.40437,5.48807 -3.87361,7.37962 -6.59972,5.05567 -7.85565,8.02378 -4.59915,10.869 1.34956,1.17914 3.36621,5.36253 4.84531,10.05122 0.40817,1.29383 3.54733,2.1054 4.48792,1.16021 0.34826,-0.34995 1.99806,-0.53803 3.66622,-0.41796 2.46597,0.17751 3.01269,0.45982 2.92435,1.51019 -0.097,1.15349 0.29388,1.25357 3.64619,0.93394 4.11061,-0.39192 6.28989,0.7763 5.41315,2.90176 -0.2557,0.61953 -0.56476,2.34645 -0.68708,3.83755 -0.12236,1.4911 -0.59946,2.94528 -1.06034,3.23147 -0.46085,0.28631 -0.86978,1.41149 -0.90865,2.50063 l -0.0708,1.98023 -7.36251,0.19651 -7.36252,0.19651 -2.20026,2.7125 c -1.21015,1.49186 -2.1981,2.96697 -2.19545,3.27796 0.003,0.31117 -0.44048,1.05992 -0.98472,1.66422 -1.11605,1.2392 0.88233,2.72319 -0.21436,2.72319 -1.27535,0 -2.14778,0.43825 -2.42081,1.21608 -0.23475,0.66882 -0.59786,1.57568 -0.80679,2.01519 -0.21103,0.44413 0.48031,1.10425 1.55642,1.48594 l -0.82985,1.93233 c -1.966,0.88527 -2.41366,1.32492 -1.54752,1.51998 0.67028,0.15091 1.0493,0.54978 0.84229,0.88636 -0.2069,0.33639 -0.83321,0.43581 -1.39155,0.22069 -0.55833,-0.21515 -1.01516,-0.0356 -1.01516,0.39962 0,0.43505 0.4668,0.97102 1.0373,1.19101 0.57053,0.21999 1.03734,0.95848 1.03734,1.64109 0,0.6826 0.44271,1.41183 0.98385,1.62046 0.72802,0.28079 0.90433,-0.0611 0.67802,-1.31544 -0.16808,-0.93213 -0.007,-1.69482 0.3595,-1.69482 0.36596,0 0.55537,0.57389 0.42095,1.27531 -0.34696,1.81035 0.3858,2.7088 2.68139,3.28777 1.27559,0.32153 1.84334,0.25246 1.57025,-0.19167 -0.25055,-0.4075 0.39435,-0.66523 1.55773,-0.62252 2.12749,0.0781 2.20184,1.11525 0.08,1.11525 -1.42835,0 -2.41891,1.80945 -1.35299,2.47144 0.38195,0.23725 0.60955,0.95077 0.50576,1.58575 -0.1038,0.63499 0.0626,1.5571 0.36946,2.04917 0.62409,1.0002 -3.02506,5.64048 -5.60641,7.12909 -0.85576,0.49352 -1.55597,1.52201 -1.55597,2.28549 0,0.7635 -0.20484,1.18242 -0.45501,0.93096 -0.25022,-0.25143 -0.8281,-0.14608 -1.28408,0.23415 -1.07438,0.89598 -4.44822,0.20066 -6.2136,-1.28032 -0.76071,-0.63819 -2.09829,-2.56751 -2.97243,-4.28741 -0.87415,-1.71987 -2.73862,-4.37743 -4.14335,-5.90576 -2.2784,-2.47893 -2.89032,-2.77287 -5.67182,-2.72452 -7.4477,0.12952 -15.21984,1.69945 -15.21984,3.07438 0,0.29114 -0.6537,0.70132 -1.45265,0.91126 -0.79895,0.20999 -1.25919,0.69625 -1.02277,1.08068 0.23646,0.38446 0.0171,0.95271 -0.48969,1.26285 -0.86185,0.52847 -2.83388,4.58311 -2.97804,6.12305 -0.23784,2.5393 -2.8978,6.60151 -4.322914,6.60151 -0.375829,0 -0.787059,0.28941 -0.913846,0.6435 -0.300048,0.83788 -3.590776,1.6549 -4.199909,1.04283 z m 27.348152,-37.07493 c 1.02438,-0.39138 1.86252,-1.06545 1.86252,-1.49801 0,-0.43253 0.43636,-0.61817 0.9697,-0.41255 1.40966,0.54358 1.9205,-0.27904 0.92601,-1.49109 -0.74836,-0.91217 -0.65865,-0.93938 0.69956,-0.21205 1.68554,0.9025 1.51889,0.98455 5.97433,-2.94237 2.67144,-2.35454 2.67916,-2.37612 1.03731,-2.8915 -1.83719,-0.57668 0.091,-0.87031 1.0516,-1.67141 0.80987,-0.67539 1.03614,-1.69362 0.80482,-3.62198 -0.17699,-1.47532 -0.0275,-2.68242 0.33133,-2.68242 0.81998,0 0.86532,-3.26066 0.0523,-3.76551 -0.33029,-0.20514 -0.84452,-1.70899 -1.14251,-3.34178 -0.29799,-1.63281 -0.59834,-3.12505 -0.66742,-3.31617 -1.64681,-4.55497 -4.98693,-8.54354 -8.78514,-10.49063 -1.47534,-0.75633 -2.98299,-1.18851 -3.3503,-0.96041 -0.3673,0.22829 -0.66779,0.10776 -0.66779,-0.26731 0,-1.05511 -4.63138,-2.34092 -6.38591,-1.77294 -0.86178,0.27905 -2.49013,0.58328 -3.61859,0.67625 -1.12847,0.0929 -2.15994,0.49518 -2.29219,0.89383 -0.13232,0.39861 -0.6123,0.58138 -1.06684,0.40614 -0.45452,-0.17509 -2.03641,0.30116 -3.5153,1.05885 -1.47891,0.75766 -2.9107,1.23981 -3.18179,1.07145 -0.27116,-0.16819 -1.858793,0.93185 -3.52829,2.44484 -1.669491,1.51299 -3.391165,2.75533 -3.825891,2.76072 -1.280673,0.0173 -1.658808,1.95098 -1.18049,6.04064 0.331318,2.83165 0.208284,3.98423 -0.47045,4.40566 -0.50547,0.31394 -0.968248,1.24231 -1.028436,2.06313 -0.09315,1.2693 0.298917,4.42218 1.159417,5.92734 0.214812,0.37547 0.610013,1.62077 0.878562,2.76737 0.795307,3.39605 2.257883,5.17279 3.983232,4.83892 0.842604,-0.163 1.702416,-0.066 1.910699,0.21586 1.039187,1.40586 6.095147,4.66407 8.932647,5.75648 3.45498,1.33016 10.66528,1.33562 14.13325,0.0104 z m -12.84179,-6.27167 c -6.09221,-3.88231 -9.30267,-10.80763 -7.59786,-16.38939 0.44273,-1.44959 0.45852,-2.53609 0.0429,-2.95378 -1.19445,-1.20023 1.62034,-5.95126 3.93348,-6.63925 1.14102,-0.3395 3.16381,-1.11269 4.495,-1.71849 3.24773,-1.47794 4.88902,-1.57833 6.7182,-0.41094 0.84242,0.53762 2.3347,0.97751 3.31625,0.97751 0.98173,0 2.56274,0.7819 3.51418,1.73792 1.88283,1.89196 5.10541,8.3217 5.11624,10.20802 0.003,0.64627 0.30623,1.361 0.67223,1.58831 0.7233,0.44918 -0.48709,3.83586 -1.66867,4.66898 -0.37711,0.26592 -0.46605,0.70399 -0.19762,0.9736 0.26842,0.26974 -0.0519,0.88686 -0.71156,1.37158 -0.65972,0.48471 -1.24132,1.14103 -1.2925,1.45849 -0.45746,2.83829 -1.32136,3.55943 -6.37367,5.3205 -2.93205,1.02199 -5.64975,1.85822 -6.03929,1.85822 -0.38954,0 -2.15678,-0.92309 -3.92716,-2.05128 z"
       id="path2606"
       sodipodi:nodetypes="csssscsssscsssssssssssssssssscssscsssssssssssssssssssscscssssssssscsssssssssssssssssscssssssscsscsssssscsssssssssccssssssssssssssscssssssscsscscsscsscsssssssssssscssssssssssscccsssssssssssssssscsssssssssssssssssscssssssscscsscccssssssssssssssssssssssssssssssssssssscccscsssssssssssssssscssssscssssssssssscssscccssssssssssscsssssssscscsssssscsccsssssssscsssssssss" />
  </g>
</svg>
