<?xml version="1.0" encoding="UTF-8" standalone="no"?>
<svg
   xmlns:dc="http://purl.org/dc/elements/1.1/"
   xmlns:cc="http://creativecommons.org/ns#"
   xmlns:rdf="http://www.w3.org/1999/02/22-rdf-syntax-ns#"
   xmlns:svg="http://www.w3.org/2000/svg"
   xmlns="http://www.w3.org/2000/svg"
   xmlns:sodipodi="http://sodipodi.sourceforge.net/DTD/sodipodi-0.dtd"
   xmlns:inkscape="http://www.inkscape.org/namespaces/inkscape"
   width="132.29167mm"
   height="132.29167mm"
   viewBox="0 0 132.29167 132.29167"
   version="1.1"
   id="svg2017"
   inkscape:version="1.0 (b51213c273, 2020-08-10)">
  <defs
     id="defs2011" />
  <sodipodi:namedview
     id="base"
     pagecolor="#ffffff"
     bordercolor="#666666"
     borderopacity="1.0"
     inkscape:pageopacity="0.0"
     inkscape:pageshadow="2"
     inkscape:zoom="0.35"
     inkscape:cx="289.65456"
     inkscape:cy="306.25262"
     inkscape:document-units="mm"
     inkscape:current-layer="layer1"
     inkscape:document-rotation="0"
     showgrid="false"
     inkscape:snap-global="false"
     fit-margin-top="0"
     fit-margin-left="0"
     fit-margin-right="0"
     fit-margin-bottom="0"
     showborder="false"
     inkscape:window-width="1318"
     inkscape:window-height="704"
     inkscape:window-x="48"
     inkscape:window-y="27"
     inkscape:window-maximized="1" />
  <metadata
     id="metadata2014">
    <rdf:RDF>
      <cc:Work
         rdf:about="">
        <dc:format>image/svg+xml</dc:format>
        <dc:type
           rdf:resource="http://purl.org/dc/dcmitype/StillImage" />
        <dc:title></dc:title>
      </cc:Work>
    </rdf:RDF>
  </metadata>
  <g
     inkscape:label="Layer 1"
     inkscape:groupmode="layer"
     id="layer1"
     transform="translate(-29.195564,-67.137328)">
    <path
       style="fill:#000000;stroke-width:0.764829"
       d="m 100.24895,194.70717 c 0,-1.61884 0.34448,-3.4063 0.74993,-3.97244 0.4057,-0.56613 3.05534,-1.53648 5.88807,-2.15613 5.14794,-1.12662 5.15043,-1.1285 5.01169,-3.64293 -0.28297,-5.10557 -2.19961,-11.11516 -4.0763,-12.7723 -1.5629,-1.38029 -2.16459,-1.52315 -3.58693,-0.85084 -1.01968,0.48195 -2.58106,0.58243 -3.87111,0.24996 -2.912384,-0.75251 -5.135384,-0.78893 -6.804445,-0.1114 -1.239615,0.50309 -1.355276,1.76251 -1.090701,11.87579 0.162984,6.22207 0.348807,11.91544 0.413063,12.65192 0.159999,1.83126 -0.184544,2.02114 -4.200547,2.32133 -1.925903,0.14394 -5.061575,0.46479 -6.968351,0.71308 -4.452517,0.57916 -5.775573,-0.21821 -7.575277,-0.24275 -0.654188,-0.009 -3.200232,1.03029 -3.200232,-0.8205 0,-0.74815 -0.496809,-1.5289 -1.103979,-1.73453 -0.60723,-0.2065 -1.480497,-1.68485 -1.940944,-3.28653 l -0.836968,-2.9122 7.841314,-0.2037 7.841313,-0.20375 -0.147636,-8.62515 -0.147697,-8.6251 -2.701597,-1.76908 c -6.331033,-4.14521 -11.362154,-8.20624 -12.366733,-9.98203 -1.477392,-2.61147 -1.025532,-7.15768 1.032901,-10.39471 2.054473,-3.23004 2.13566,-4.32288 0.414646,-5.58424 -1.095634,-0.80302 -1.421114,-0.76063 -2.075059,0.27169 -0.426646,0.67317 -1.477087,1.22381 -2.334396,1.22381 -0.857555,0 -2.863119,1.0114 -4.457085,2.24742 -2.466317,1.91248 -3.338367,2.18412 -5.852375,1.82394 -1.624782,-0.23366 -3.904363,-1.2024 -5.065228,-2.15425 -3.194141,-2.61879 -6.415936,-4.25172 -7.365517,-3.73341 -0.467209,0.25534 -0.877531,1.81932 -0.911394,3.47613 -0.03411,1.65655 -0.533961,4.14414 -1.111043,5.52797 -0.888981,2.13199 -1.399249,2.49216 -3.344823,2.36205 -1.262699,-0.0842 -3.051684,-0.82422 -3.975746,-1.6438 -1.4417,-1.27895 -1.661326,-2.29901 -1.548468,-7.19296 0.104636,-4.60705 0.476161,-6.13046 1.926206,-7.92885 2.003678,-2.48512 2.914219,-2.49926 13.636191,-0.21188 4.266999,0.91033 5.812726,0.94266 9.335637,0.19558 8.562012,-1.81415 18.000395,-6.33045 17.179143,-8.22039 -0.771494,-1.77607 -3.452504,-1.96218 -9.907481,-0.68834 -8.635585,1.7041 -17.881081,1.65413 -25.383088,-0.13587 -5.157866,-1.23167 -6.284866,-1.78204 -7.270748,-3.55111 -0.641642,-1.15152 -1.136563,-3.11972 -1.099654,-4.37339 0.08301,-2.80569 3.170694,-10.27573 4.681948,-11.32542 0.610276,-0.42353 1.236875,-1.41697 1.392794,-2.20778 0.427253,-2.16916 3.446352,-1.88337 3.797657,0.35942 0.153787,0.98827 0.593953,2.13361 0.976015,2.54515 0.389736,0.41998 0.233756,2.71796 -0.354046,5.24003 -0.576473,2.4707 -0.832399,4.60054 -0.568738,4.73334 1.019076,0.51288 18.18896,-0.8114 22.046548,-1.70054 1.56662,-0.36103 5.471898,-1.02662 8.678281,-1.47893 6.901293,-0.97332 9.152615,-2.53428 7.950518,-5.51275 -0.417083,-1.03421 -1.491217,-2.23736 -2.386349,-2.67365 -0.895437,-0.43628 -1.884364,-1.10999 -2.19809,-1.49738 -0.313787,-0.38739 -1.703474,-0.7544 -3.088288,-0.81604 -1.384814,-0.0625 -3.171059,-0.63407 -3.969899,-1.27249 -1.005554,-0.80382 -2.992605,-1.1605 -6.462955,-1.1605 -6.429455,0 -12.300284,-1.3933 -13.60915,-3.23026 -0.822471,-1.15372 -0.828014,-2.518032 -0.03106,-6.832466 0.549674,-2.964916 1.417764,-6.522802 1.928642,-7.906367 0.510632,-1.383513 1.145819,-3.759167 1.411308,-5.279088 l 0.482617,-2.763313 9.511288,0.480284 c 5.231319,0.263513 10.729648,0.813077 12.218733,1.219993 2.263928,0.618576 2.99632,0.516968 4.476209,-0.622072 0.972909,-0.748961 3.13287,-1.904837 4.7998,-2.568811 2.104538,-0.838305 3.195604,-1.817376 3.57121,-3.204438 0.298377,-1.098322 0.753587,-2.32052 1.013534,-2.715763 0.261468,-0.395566 0.366347,-1.447952 0.236861,-2.338701 -0.28918,-1.971428 1.3811,-2.655196 4.972957,-2.037158 1.95477,0.33629 3.377103,1.378617 5.487548,4.021065 3.874215,4.851517 5.311955,5.148165 8.610915,1.776604 l 2.64538,-2.70323 2.71396,1.395776 c 3.2919,1.69323 3.74163,3.632869 1.85391,7.997862 -1.26976,2.936353 -1.28791,3.471502 -0.18765,5.477462 2.06215,3.75454 3.90284,9.291763 3.89882,11.727178 0,1.27432 -0.71643,3.700263 -1.5872,5.390753 -0.87053,1.69081 -2.20765,4.62308 -2.97111,6.51656 -1.0452,2.59135 -2.58325,4.32422 -6.22,7.00793 -2.65732,1.9611 -5.327301,3.56552 -5.932948,3.56552 -0.605949,0 -1.35375,0.35996 -1.661934,0.80028 -0.307939,0.44037 -0.838855,6.50489 -1.179988,13.47667 -0.521962,10.67941 -0.425061,13.01623 0.615818,14.8328 2.028038,3.53998 4.363892,4.98707 9.385152,5.81402 4.58291,0.75493 4.80936,0.71959 6.33657,-0.99537 1.24364,-1.39604 1.58379,-2.91543 1.58379,-7.07204 0,-5.02951 0.0923,-5.29356 1.85361,-5.29356 3.17752,0 5.47098,1.96083 5.47098,4.6774 0,4.61469 -2.28488,10.67372 -4.67244,12.38954 -2.43678,1.75111 -6.57923,2.12328 -9.30397,0.83535 -1.20149,-0.5678 -1.90769,-0.5678 -2.55092,0 -1.42939,1.26264 -5.867776,0.9057 -8.110446,-0.65198 -1.138146,-0.79081 -2.377761,-1.44795 -2.754585,-1.46016 -1.285416,-0.0436 -3.459204,-3.39001 -4.245742,-6.53857 -2.194129,-8.78297 -2.560478,-11.28056 -1.89362,-12.91053 0.416838,-1.01899 0.345152,-4.98271 -0.175286,-9.62999 -0.716131,-6.40597 -1.138757,-7.94106 -2.237496,-8.1269 -1.790265,-0.30235 -2.601712,5.95747 -2.542939,19.61885 0.04324,10.26105 1.219944,16.71806 3.16369,17.37687 0.589934,0.20101 2.019027,1.78968 3.175628,3.53261 1.67978,2.53105 2.554631,3.16888 4.347331,3.16888 1.234682,0 2.660729,0.3676 3.169171,0.8169 1.116281,0.98585 11.820094,1.3727 14.783224,0.53434 1.16367,-0.32897 3.52876,-0.78887 5.25593,-1.02199 5.23503,-0.70604 9.70228,-5.78821 10.01205,-11.38949 1.18273,-21.40068 2.31284,-29.03563 4.79365,-32.37916 0.85573,-1.15346 1.07413,-2.53105 0.71577,-4.51114 -1.04832,-5.78874 6.05506,-14.23816 10.65832,-12.67801 1.45589,0.49336 6.08278,6.1998 6.08278,7.50209 0,0.48437 0.91542,1.94071 2.03444,3.23655 1.21348,1.4053 2.03973,3.31804 2.0471,4.73985 0.0311,4.02327 1.17871,4.63937 2.88681,1.53627 0.83143,-1.51045 1.39895,-3.06975 1.26148,-3.46499 -0.13844,-0.3953 -0.57525,-2.71388 -0.97205,-5.15257 -0.3968,-2.43865 -1.11287,-5.18781 -1.59056,-6.10954 -1.15166,-2.22026 -9.9333,-5.555998 -14.4815,-5.500541 -3.01538,0.03819 -3.81173,0.430044 -6.66443,3.292491 -1.9256,1.93146 -3.23994,3.97707 -3.23994,5.04112 0,0.98478 -0.70688,2.80027 -1.57028,4.03441 -0.97266,1.38954 -2.08431,5.38914 -2.92098,10.50691 -1.70042,10.40504 -4.05937,14.32778 -7.44944,12.38733 -1.67674,-0.95949 0.96493,-17.31275 3.80101,-23.531 0.3608,-0.79054 1.49371,-3.5397 2.51741,-6.10932 2.44909,-6.146279 4.49065,-8.511013 8.02586,-9.296661 9.00126,-2.000205 11.19107,-2.248765 13.36949,-1.517231 1.23072,0.413208 3.1981,0.751166 4.37224,0.751166 3.99999,0 7.07627,2.667672 9.08495,7.877806 2.02706,5.25875 2.3445,9.12168 1.41922,17.27876 -0.41678,3.67418 -1.03783,5.67686 -1.95044,6.28914 -1.43927,0.96579 -4.17077,1.16733 -6.2532,0.46183 -1.78381,-0.60469 -6.1689,-6.50128 -6.1689,-8.29558 0,-2.47726 -2.50512,-6.3617 -4.10279,-6.3617 -2.47308,0 -4.84963,3.41663 -4.84963,6.97237 0,1.75164 -0.32907,3.72958 -0.73172,4.39544 -0.74628,1.23494 -1.40978,7.0821 -2.25747,19.89834 -0.31811,4.80618 -0.96499,8.04488 -1.95301,9.77506 -0.81236,1.42294 -1.56686,4.32508 -1.67637,6.4489 -0.16919,3.27129 -0.60138,4.21611 -2.82901,6.1835 -1.44633,1.27733 -3.89358,2.7888 -5.43833,3.35875 -2.1646,0.79867 -2.89364,1.54467 -3.17721,3.25145 -0.203,1.21839 -0.10458,2.59243 0.2184,3.05372 0.32268,0.46157 0.23687,1.72992 -0.1938,2.81899 -0.62721,1.5892 -0.38632,2.66902 1.21994,5.46713 1.10057,1.91791 2.18768,4.86346 2.41559,6.54583 0.61886,4.57149 -0.9025,5.77873 -8.79151,6.97619 -3.58107,0.5436 -7.60969,1.29336 -8.95235,1.66633 -3.44112,0.95546 -5.29411,-0.6055 -5.27779,-4.44568 z m -0.826248,-88.47565 c 0.557105,-0.59302 1.481408,-1.0782 2.053868,-1.0782 1.29004,0 4.61982,-4.644 5.4116,-7.54695 0.65242,-2.39303 -0.57678,-7.547219 -1.79977,-7.547219 -0.43036,0 -0.78441,-0.404227 -0.78654,-0.898334 0,-1.447682 -5.377123,-6.197322 -7.451876,-6.589877 -6.812126,-1.289003 -12.076699,-0.800598 -12.076699,1.120591 0,0.423214 -0.88831,1.701945 -1.974138,2.841522 -1.085828,1.139633 -2.413758,3.807039 -2.951128,5.927571 -1.267633,5.002613 -0.07071,8.483316 4.181485,12.153456 2.999122,2.58914 3.344579,2.69537 8.751244,2.69537 4.010462,0 5.920038,-0.30998 6.641954,-1.07793 z M 91.813625,103.757 c -1.109825,-0.37275 -2.230368,-1.26216 -2.489704,-1.97659 -0.258363,-0.71448 -1.562904,-1.942918 -2.896374,-2.729644 -2.771152,-1.63481 -3.414926,-3.667345 -2.6198,-8.272776 0.48755,-2.823341 0.835443,-3.262638 2.737044,-3.456871 1.198381,-0.122209 2.616389,-0.688071 3.15163,-1.257753 2.223363,-2.365863 7.816705,-0.719645 10.875819,3.200942 1.52873,1.959218 2.08212,3.708389 2.26758,7.1658 0.26457,4.915902 0.47744,4.627702 -5.044883,6.794702 -3.486368,1.36808 -3.490692,1.36835 -5.981312,0.53219 z m 2.882853,-7.049286 c 2.118424,-2.178412 2.384826,-2.983851 1.479827,-4.4772 -1.271895,-2.09907 -3.828658,-1.807587 -5.236251,0.596575 -1.060307,1.810868 -1.057506,2.228702 0.03045,3.593767 1.485431,1.873102 2.139985,1.923341 3.731209,0.286858 z M 71.13898,98.985843 c 0.312508,-0.275987 0.343266,-0.823405 0.06767,-1.216492 -0.532133,-0.760364 -1.029246,-4.081904 -1.315626,-8.788135 l -0.175346,-2.875194 -6.32269,-0.209187 -6.322384,-0.209186 0.525982,2.90537 c 0.52111,2.877936 0.501682,2.905693 -2.03474,2.905693 -2.369477,0 -2.520463,0.143939 -2.015432,1.920059 0.301483,1.056204 0.58171,2.754332 0.625685,3.773584 0.07997,1.848358 0.101529,1.853791 8.238724,2.075187 4.487292,0.122263 8.414374,0 8.726943,-0.279811 z"
       id="path717"
       sodipodi:nodetypes="csscsscssssssscscccccssssssscsssssscsscsscsssscsssssssscssscssccssscccssscssccsssssssssssssssscsscsccssssssssssscscsccssssssssssssssssssssssssscssssccsssscsssssssscssssscsscsscccssscccsscssss" />
  </g>
</svg>
