<?xml version="1.0" encoding="UTF-8" standalone="no"?>
<svg
   xmlns:dc="http://purl.org/dc/elements/1.1/"
   xmlns:cc="http://creativecommons.org/ns#"
   xmlns:rdf="http://www.w3.org/1999/02/22-rdf-syntax-ns#"
   xmlns:svg="http://www.w3.org/2000/svg"
   xmlns="http://www.w3.org/2000/svg"
   xmlns:sodipodi="http://sodipodi.sourceforge.net/DTD/sodipodi-0.dtd"
   xmlns:inkscape="http://www.inkscape.org/namespaces/inkscape"
   width="132.29163mm"
   height="132.29167mm"
   viewBox="0 0 132.29163 132.29167"
   version="1.1"
   id="svg1967"
   inkscape:version="1.0 (b51213c273, 2020-08-10)">
  <defs
     id="defs1961" />
  <sodipodi:namedview
     id="base"
     pagecolor="#ffffff"
     bordercolor="#666666"
     borderopacity="1.0"
     inkscape:pageopacity="0.0"
     inkscape:pageshadow="2"
     inkscape:zoom="0.35"
     inkscape:cx="207.49918"
     inkscape:cy="286.60644"
     inkscape:document-units="mm"
     inkscape:current-layer="layer1"
     inkscape:document-rotation="0"
     showgrid="false"
     inkscape:snap-global="false"
     fit-margin-top="0"
     fit-margin-left="0"
     fit-margin-right="0"
     fit-margin-bottom="0"
     showborder="false"
     inkscape:window-width="1318"
     inkscape:window-height="704"
     inkscape:window-x="48"
     inkscape:window-y="27"
     inkscape:window-maximized="1" />
  <metadata
     id="metadata1964">
    <rdf:RDF>
      <cc:Work
         rdf:about="">
        <dc:format>image/svg+xml</dc:format>
        <dc:type
           rdf:resource="http://purl.org/dc/dcmitype/StillImage" />
        <dc:title></dc:title>
      </cc:Work>
    </rdf:RDF>
  </metadata>
  <g
     inkscape:label="Layer 1"
     inkscape:groupmode="layer"
     id="layer1"
     transform="translate(-50.93251,-72.335378)">
    <path
       style="fill:#000000;stroke-width:0.764829"
       d="m 112.17075,199.90522 c 0,-1.61884 -0.34448,-3.4063 -0.74993,-3.97244 -0.4057,-0.56613 -3.05534,-1.53649 -5.88807,-2.15613 -5.14794,-1.12662 -5.15043,-1.12851 -5.01169,-3.64294 0.28297,-5.10556 2.19961,-11.11515 4.0763,-12.7723 1.5629,-1.38028 2.16459,-1.52314 3.58692,-0.85083 1.01969,0.48195 2.58107,0.58243 3.87111,0.24995 2.9124,-0.75251 5.1354,-0.78892 6.80446,-0.11139 1.23961,0.50309 1.35527,1.76251 1.0907,11.87579 -0.16299,6.22207 -0.34881,11.91544 -0.41306,12.65192 -0.16,1.83125 0.18454,2.02114 4.20054,2.32133 1.92591,0.14394 5.06158,0.46479 6.96835,0.71308 4.45252,0.57916 5.77558,-0.21822 7.57528,-0.24275 0.65419,-0.009 3.20023,1.03029 3.20023,-0.8205 0,-0.74815 0.49681,-1.5289 1.10398,-1.73453 0.60723,-0.2065 1.4805,-1.68485 1.94095,-3.28653 l 0.83696,-2.9122 -7.84131,-0.2037 -7.84131,-0.20375 0.14763,-8.62515 0.1477,-8.6251 2.7016,-1.76908 c 6.33103,-4.14521 11.36215,-8.20624 12.36673,-9.98204 1.47739,-2.61146 1.02553,-7.15767 -1.0329,-10.39471 -2.05447,-3.23004 -2.13566,-4.32287 -0.41465,-5.58423 1.09564,-0.80302 1.42112,-0.76063 2.07506,0.27169 0.42665,0.67317 1.47709,1.22381 2.3344,1.22381 0.85755,0 2.86312,1.0114 4.45708,2.24742 2.46632,1.91248 3.33837,2.18411 5.85238,1.82394 1.62478,-0.23366 3.90436,-1.20241 5.06523,-2.15426 3.19414,-2.61878 6.41593,-4.25171 7.36551,-3.7334 0.46721,0.25534 0.87753,1.81931 0.9114,3.47613 0.0341,1.65654 0.53396,4.14413 1.11104,5.52797 0.88898,2.13199 1.39925,2.49216 3.34482,2.36204 1.2627,-0.0842 3.05169,-0.82421 3.97575,-1.64379 1.4417,-1.27895 1.66133,-2.29901 1.54847,-7.19297 -0.10464,-4.60704 -0.47616,-6.13046 -1.92621,-7.92885 -2.00368,-2.48511 -2.91422,-2.49926 -13.63619,-0.21187 -4.267,0.91032 -5.81273,0.94265 -9.33564,0.19557 -8.56201,-1.81414 -18.00039,-6.33045 -17.17914,-8.22038 0.77149,-1.77607 3.4525,-1.96218 9.90748,-0.68834 8.63559,1.70409 17.88108,1.65412 25.38309,-0.13588 5.15787,-1.23166 6.28487,-1.78203 7.27075,-3.55111 0.64164,-1.15151 1.13656,-3.11972 1.09965,-4.37338 -0.083,-2.8057 -3.17069,-10.27573 -4.68195,-11.32542 -0.61027,-0.42354 -1.23687,-1.41697 -1.39279,-2.20778 -0.42725,-2.16916 -3.44635,-1.88338 -3.79766,0.35942 -0.15378,0.98827 -0.59395,2.1336 -0.97601,2.54514 -0.38974,0.41999 -0.23376,2.71797 0.35404,5.24004 0.57648,2.4707 0.8324,4.60053 0.56874,4.73334 -1.01907,0.51288 -18.18896,-0.81141 -22.04655,-1.70055 -1.56662,-0.36103 -5.47189,-1.02662 -8.67828,-1.47893 -6.90129,-0.97332 -9.15261,-2.53428 -7.95052,-5.51275 0.41709,-1.0342 1.49122,-2.23736 2.38635,-2.67364 0.89544,-0.43629 1.88437,-1.11 2.19809,-1.49739 0.31379,-0.38739 1.70348,-0.75439 3.08829,-0.81603 1.38481,-0.0625 3.17106,-0.63407 3.9699,-1.27249 1.00555,-0.80383 2.9926,-1.16051 6.46296,-1.16051 6.42945,0 12.30028,-1.3933 13.60915,-3.23025 0.82247,-1.15373 0.82801,-2.51804 0.0311,-6.83247 -0.54968,-2.964912 -1.41777,-6.522798 -1.92864,-7.906364 -0.51064,-1.383513 -1.14583,-3.759167 -1.41131,-5.279087 l -0.48262,-2.763313 -9.51129,0.480284 c -5.23132,0.263513 -10.72965,0.813077 -12.21873,1.219992 -2.26393,0.618576 -2.99632,0.516969 -4.47621,-0.622072 -0.97291,-0.74896 -3.13287,-1.904836 -4.7998,-2.56881 -2.10454,-0.838305 -3.19561,-1.817376 -3.57121,-3.204438 -0.29838,-1.098322 -0.75359,-2.32052 -1.01353,-2.715763 -0.26147,-0.395565 -0.36635,-1.447952 -0.23687,-2.338701 0.28918,-1.971428 -1.3811,-2.655196 -4.97295,-2.037158 -1.95477,0.33629 -3.37711,1.378617 -5.48755,4.021065 -3.87422,4.851517 -5.31196,5.148165 -8.61092,1.776604 l -2.64538,-2.70323 -2.71396,1.395776 c -3.291899,1.69323 -3.741627,3.632869 -1.85391,7.997862 1.26976,2.936352 1.28791,3.471501 0.18765,5.477461 -2.06215,3.754539 -3.902843,9.291763 -3.898824,11.727172 0,1.27432 0.716434,3.70027 1.587204,5.39076 0.870526,1.69081 2.20765,4.62307 2.97111,6.51656 1.0452,2.59135 2.58325,4.32422 6.22,7.00792 2.65732,1.9611 5.3273,3.56553 5.93295,3.56553 0.60595,0 1.35375,0.35996 1.66194,0.80027 0.30794,0.44038 0.83885,6.50489 1.17998,13.47667 0.52197,10.67942 0.42507,13.01624 -0.61581,14.83281 -2.02804,3.53997 -4.3639,4.98706 -9.38516,5.81402 -4.58291,0.75493 -4.80936,0.71959 -6.336573,-0.99537 -1.243635,-1.39604 -1.583793,-2.91543 -1.583793,-7.07204 0,-5.02951 -0.09233,-5.29356 -1.853604,-5.29356 -3.177516,0 -5.470984,1.96083 -5.470984,4.6774 0,4.61469 2.28488,10.67372 4.672447,12.38954 2.436778,1.75111 6.579227,2.12327 9.303967,0.83534 1.20149,-0.56779 1.90769,-0.56779 2.55091,0 1.4294,1.26265 5.86779,0.90571 8.11046,-0.65197 1.13815,-0.79081 2.37776,-1.44796 2.75459,-1.46017 1.28541,-0.0436 3.4592,-3.39001 4.24574,-6.53856 2.19413,-8.78297 2.56047,-11.28056 1.89362,-12.91054 -0.41684,-1.01898 -0.34516,-4.98271 0.17528,-9.62999 0.71613,-6.40597 1.13876,-7.94106 2.2375,-8.1269 1.79026,-0.30235 2.60171,5.95748 2.54294,19.61886 -0.0432,10.26104 -1.21995,16.71806 -3.16369,17.37687 -0.58994,0.20101 -2.01903,1.78968 -3.17563,3.53261 -1.67978,2.53105 -2.55463,3.16888 -4.34733,3.16888 -1.23468,0 -2.66073,0.3676 -3.16917,0.8169 -1.11628,0.98585 -11.82011,1.3727 -14.78323,0.53434 -1.163669,-0.32898 -3.528761,-0.78887 -5.255925,-1.022 -5.235035,-0.70603 -9.70229,-5.7882 -10.012057,-11.38948 -1.182728,-21.40068 -2.312834,-29.03563 -4.793649,-32.37917 -0.855725,-1.15345 -1.074133,-2.53105 -0.715765,-4.51114 1.048312,-5.78874 -6.055069,-14.23816 -10.658327,-12.678 -1.45589,0.49335 -6.08278,6.19979 -6.08278,7.50208 0,0.48438 -0.915413,1.94072 -2.034435,3.23655 -1.213486,1.4053 -2.039734,3.31804 -2.047103,4.73985 -0.03106,4.02328 -1.17871,4.63938 -2.886812,1.53628 -0.831424,-1.51046 -1.398944,-3.06975 -1.261479,-3.46499 0.138438,-0.3953 0.575255,-2.71389 0.972056,-5.15258 0.3968,-2.43864 1.112869,-5.18781 1.590553,-6.10954 1.151667,-2.22026 9.933304,-5.55599 14.481503,-5.50054 3.015383,0.0382 3.811726,0.43005 6.664432,3.29249 1.925595,1.93147 3.239942,3.97707 3.239942,5.04113 0,0.98477 0.706872,2.80026 1.570273,4.0344 0.972664,1.38954 2.084317,5.38914 2.92098,10.50692 1.700428,10.40503 4.059369,14.32777 7.449445,12.38733 1.676734,-0.95949 -0.96493,-17.31276 -3.801007,-23.531 -0.360806,-0.79054 -1.493714,-3.53971 -2.517418,-6.10933 -2.449082,-6.14627 -4.490644,-8.51101 -8.025858,-9.29665 -9.001264,-2.000207 -11.19107,-2.248766 -13.369486,-1.517233 -1.230723,0.413208 -3.198101,0.751163 -4.372242,0.751163 -3.999986,0 -7.076275,2.66768 -9.084947,7.87781 -2.027066,5.25875 -2.344507,9.12168 -1.419227,17.27876 0.416778,3.67417 1.037834,5.67685 1.950447,6.28914 1.439264,0.96578 4.170765,1.16733 6.253194,0.46183 1.783808,-0.6047 6.168902,-6.50129 6.168902,-8.29559 0,-2.47726 2.505115,-6.3617 4.102794,-6.3617 2.473081,0 4.849622,3.41664 4.849622,6.97237 0,1.75165 0.329074,3.72958 0.731723,4.39544 0.746278,1.23495 1.409786,7.0821 2.257473,19.89835 0.318109,4.80617 0.96499,8.04487 1.953003,9.77506 0.812361,1.42294 1.566861,4.32508 1.67637,6.44889 0.169196,3.2713 0.601385,4.21611 2.829013,6.18351 1.446328,1.27732 3.893583,2.7888 5.438336,3.35875 2.164591,0.79866 2.893633,1.54467 3.17721,3.25145 0.202999,1.21839 0.104576,2.59242 -0.218408,3.05372 -0.322678,0.46157 -0.236863,1.72992 0.193803,2.81899 0.627208,1.5892 0.386324,2.66902 -1.219942,5.46713 -1.100568,1.91791 -2.187675,4.86346 -2.415585,6.54582 -0.618864,4.57149 0.902501,5.77874 8.791503,6.9762 3.581075,0.54359 7.609685,1.29335 8.952355,1.66633 3.44112,0.95546 5.29411,-0.60551 5.27779,-4.44568 z m 0.82625,-88.47565 c -0.55711,-0.59303 -1.48141,-1.07821 -2.05387,-1.07821 -1.29004,0 -4.61982,-4.644 -5.4116,-7.54694 -0.65242,-2.39303 0.57678,-7.547219 1.79977,-7.547219 0.43036,0 0.7844,-0.404227 0.78654,-0.898334 0,-1.447682 5.37712,-6.197323 7.45188,-6.589878 6.81213,-1.289003 12.0767,-0.800597 12.0767,1.120591 0,0.423215 0.88831,1.701946 1.97414,2.841522 1.08582,1.139634 2.41375,3.80704 2.95112,5.927572 1.26764,5.002606 0.0707,8.483306 -4.18148,12.153456 -2.99912,2.58914 -3.34458,2.69537 -8.75125,2.69537 -4.01046,0 -5.92004,-0.30998 -6.64195,-1.07793 z m 7.60908,-2.47452 c 1.10982,-0.37276 2.23037,-1.26216 2.4897,-1.97659 0.25837,-0.71448 1.56291,-1.94292 2.89638,-2.72964 2.77115,-1.63482 3.41492,-3.66735 2.6198,-8.27278 -0.48755,-2.823341 -0.83545,-3.262638 -2.73705,-3.456871 -1.19838,-0.12221 -2.61639,-0.688071 -3.15163,-1.257754 -2.22336,-2.365863 -7.8167,-0.719645 -10.87582,3.200943 -1.52873,1.959217 -2.08212,3.708389 -2.26758,7.165792 -0.26458,4.91591 -0.47744,4.6277 5.04489,6.79471 3.48636,1.36807 3.49069,1.36834 5.98131,0.53219 z m -2.88286,-7.04929 c -2.11842,-2.178408 -2.38482,-2.983847 -1.47982,-4.477197 1.27189,-2.099069 3.82866,-1.807587 5.23625,0.596576 1.06031,1.810868 1.05751,2.228701 -0.0305,3.593761 -1.48543,1.8731 -2.13999,1.92334 -3.73121,0.28686 z m 23.5575,2.27813 c -0.31251,-0.27599 -0.34326,-0.8234 -0.0677,-1.21649 0.53214,-0.76037 1.02925,-4.081903 1.31563,-8.788134 l 0.17535,-2.875195 6.32268,-0.209186 6.32239,-0.209187 -0.52598,2.90537 c -0.52111,2.877937 -0.50168,2.905693 2.03474,2.905693 2.36948,0 2.52046,0.14394 2.01543,1.920059 -0.30148,1.056205 -0.58171,2.75433 -0.62568,3.77358 -0.08,1.84836 -0.10153,1.85379 -8.23873,2.07519 -4.48729,0.12226 -8.41437,0 -8.72694,-0.27981 z"
       id="path713"
       sodipodi:nodetypes="csscsscssssssscscccccssssssscsssssscsscsscsssscsssssssscssscssccssscccssscssccsssssssssssssssscsscsccssssssssssscscsccssssssssssssssssssssssssscssssccsssscsssssssscssssscsscsscccssscccsscssss" />
  </g>
</svg>
