<?xml version="1.0" encoding="UTF-8" standalone="no"?>
<svg
   xmlns:dc="http://purl.org/dc/elements/1.1/"
   xmlns:cc="http://creativecommons.org/ns#"
   xmlns:rdf="http://www.w3.org/1999/02/22-rdf-syntax-ns#"
   xmlns:svg="http://www.w3.org/2000/svg"
   xmlns="http://www.w3.org/2000/svg"
   xmlns:sodipodi="http://sodipodi.sourceforge.net/DTD/sodipodi-0.dtd"
   xmlns:inkscape="http://www.inkscape.org/namespaces/inkscape"
   width="132.29166mm"
   height="132.29167mm"
   viewBox="0 0 132.29166 132.29167"
   version="1.1"
   id="svg391"
   inkscape:version="1.0 (b51213c273, 2020-08-10)">
  <defs
     id="defs385" />
  <sodipodi:namedview
     id="base"
     pagecolor="#ffffff"
     bordercolor="#666666"
     borderopacity="1.0"
     inkscape:pageopacity="0.0"
     inkscape:pageshadow="2"
     inkscape:zoom="0.35"
     inkscape:cx="271.75626"
     inkscape:cy="366.11686"
     inkscape:document-units="mm"
     inkscape:current-layer="layer1"
     inkscape:document-rotation="0"
     showgrid="false"
     inkscape:snap-global="false"
     fit-margin-top="0"
     fit-margin-left="0"
     fit-margin-right="0"
     fit-margin-bottom="0"
     showborder="false"
     inkscape:window-width="1318"
     inkscape:window-height="704"
     inkscape:window-x="48"
     inkscape:window-y="27"
     inkscape:window-maximized="1" />
  <metadata
     id="metadata388">
    <rdf:RDF>
      <cc:Work
         rdf:about="">
        <dc:format>image/svg+xml</dc:format>
        <dc:type
           rdf:resource="http://purl.org/dc/dcmitype/StillImage" />
        <dc:title></dc:title>
      </cc:Work>
    </rdf:RDF>
  </metadata>
  <g
     inkscape:label="Layer 1"
     inkscape:groupmode="layer"
     id="layer1"
     transform="translate(-33.931155,-51.298248)">
    <path
       style="fill:#ff0000;stroke-width:0.764829"
       d="m 104.98454,178.86809 c 0,-1.61884 0.34449,-3.4063 0.74993,-3.97244 0.4057,-0.56613 3.05534,-1.53649 5.88807,-2.15614 5.14794,-1.12661 5.15043,-1.1285 5.01169,-3.64293 -0.28297,-5.10556 -2.19961,-11.11515 -4.0763,-12.7723 -1.5629,-1.38028 -2.16459,-1.52315 -3.58692,-0.85084 -1.01969,0.48196 -2.58107,0.58243 -3.87111,0.24996 -2.91239,-0.75251 -5.135393,-0.78892 -6.804455,-0.11139 -1.239615,0.50309 -1.355275,1.76251 -1.0907,11.87579 0.162983,6.22207 0.348807,11.91544 0.413062,12.65192 0.16,1.83125 -0.184544,2.02113 -4.200547,2.32133 -1.925902,0.14394 -5.061575,0.46479 -6.96835,0.71308 -4.452517,0.57915 -5.775574,-0.21822 -7.575277,-0.24275 -0.654189,-0.009 -3.200233,1.03028 -3.200233,-0.8205 0,-0.74816 -0.496808,-1.52891 -1.103979,-1.73454 -0.607229,-0.20649 -1.480497,-1.68484 -1.940944,-3.28652 l -0.836967,-2.9122 7.841313,-0.2037 7.841313,-0.20376 -0.147635,-8.62514 -0.147698,-8.62511 -2.701596,-1.76907 c -6.331033,-4.14521 -11.362154,-8.20624 -12.366734,-9.98204 -1.477391,-2.61146 -1.025531,-7.15767 1.032901,-10.39471 2.054474,-3.23004 2.13566,-4.32287 0.414647,-5.58423 -1.095634,-0.80302 -1.421115,-0.76063 -2.07506,0.27169 -0.426645,0.67317 -1.477086,1.22381 -2.334395,1.22381 -0.857555,0 -2.86312,1.0114 -4.457086,2.24742 -2.466317,1.91248 -3.338366,2.18411 -5.852374,1.82394 -1.624782,-0.23366 -3.904364,-1.2024 -5.065228,-2.15426 -3.194141,-2.61878 -6.415936,-4.25171 -7.365517,-3.7334 -0.467209,0.25534 -0.877531,1.81931 -0.911394,3.47613 -0.03411,1.65654 -0.533961,4.14413 -1.111043,5.52797 -0.888981,2.13199 -1.399249,2.49216 -3.344823,2.36204 -1.262698,-0.0842 -3.051684,-0.82421 -3.975745,-1.6438 -1.441701,-1.27894 -1.661327,-2.299 -1.548469,-7.19296 0.104637,-4.60704 0.476162,-6.13046 1.926206,-7.92885 2.003678,-2.48511 2.914219,-2.49926 13.636191,-0.21187 4.266998,0.91033 5.812726,0.94265 9.335637,0.19558 8.562012,-1.81415 18.000395,-6.33046 17.179143,-8.22039 -0.771494,-1.77607 -3.452505,-1.96218 -9.907481,-0.68834 -8.635585,1.70409 -17.881081,1.65412 -25.383088,-0.13588 -5.157865,-1.23166 -6.284866,-1.78203 -7.270748,-3.5511 -0.641642,-1.15152 -1.136563,-3.11972 -1.099654,-4.37339 0.08301,-2.8057 3.170694,-10.275727 4.681949,-11.325423 0.610275,-0.423536 1.236874,-1.416969 1.392793,-2.207778 0.427254,-2.169157 3.446353,-1.883375 3.797657,0.35942 0.153787,0.988269 0.593953,2.133602 0.976015,2.545144 0.389736,0.419986 0.233756,2.717968 -0.354045,5.240037 -0.576473,2.4707 -0.832399,4.60053 -0.568738,4.73334 1.019075,0.51288 18.188959,-0.81141 22.046547,-1.70055 1.56662,-0.36103 5.471898,-1.02662 8.678281,-1.47893 6.901293,-0.97331 9.152614,-2.534277 7.950518,-5.512746 -0.417083,-1.034205 -1.491218,-2.237362 -2.38635,-2.673646 -0.895436,-0.436285 -1.884363,-1.109994 -2.19809,-1.497384 -0.313786,-0.38739 -1.703473,-0.754394 -3.088287,-0.816036 -1.384814,-0.0625 -3.171059,-0.634067 -3.969899,-1.272491 -1.005554,-0.803826 -2.992605,-1.160502 -6.462955,-1.160502 -6.429456,0 -12.300284,-1.393302 -13.60915,-3.230257 -0.822471,-1.153724 -0.828014,-2.518034 -0.03106,-6.832464 0.549674,-2.964916 1.417763,-6.522801 1.928641,-7.906367 0.510633,-1.383513 1.14582,-3.759167 1.411309,-5.279088 l 0.482617,-2.763313 9.511288,0.480284 c 5.231319,0.263513 10.729647,0.813078 12.218733,1.219993 2.263928,0.618576 2.996319,0.516968 4.476208,-0.622072 0.972909,-0.748961 3.132871,-1.904837 4.799801,-2.568811 2.104537,-0.838305 3.195604,-1.817376 3.571209,-3.204438 0.298378,-1.098321 0.753587,-2.32052 1.013534,-2.715763 0.261469,-0.395565 0.366348,-1.447951 0.236862,-2.338701 -0.289181,-1.971428 1.381099,-2.655196 4.972956,-2.037158 1.954771,0.33629 3.377103,1.378617 5.487543,4.021066 3.87422,4.851517 5.31196,5.148164 8.61092,1.776603 l 2.64538,-2.70323 2.71396,1.395776 c 3.2919,1.69323 3.74163,3.632869 1.85391,7.997863 -1.26976,2.936352 -1.28791,3.471501 -0.18765,5.477461 2.06215,3.75454 3.90284,9.291763 3.89882,11.727175 0,1.27432 -0.71643,3.700267 -1.5872,5.390754 -0.87053,1.690809 -2.20765,4.623074 -2.97111,6.516561 -1.0452,2.591349 -2.58325,4.324222 -6.22,7.007921 -2.65731,1.96111 -5.3273,3.56553 -5.93295,3.56553 -0.60595,0 -1.35375,0.35996 -1.66193,0.80028 -0.30794,0.44037 -0.83886,6.50489 -1.17999,13.47666 -0.52196,10.67942 -0.42506,13.01624 0.61582,14.83281 2.02804,3.53997 4.36389,4.98706 9.38515,5.81402 4.58291,0.75493 4.80936,0.71959 6.33657,-0.99537 1.24364,-1.39605 1.5838,-2.91543 1.5838,-7.07204 0,-5.02951 0.0923,-5.29356 1.8536,-5.29356 3.17752,0 5.47098,1.96083 5.47098,4.6774 0,4.61468 -2.28488,10.67371 -4.67244,12.38954 -2.43678,1.7511 -6.57923,2.12327 -9.30397,0.83534 -1.20149,-0.5678 -1.90769,-0.5678 -2.55091,0 -1.4294,1.26265 -5.86779,0.9057 -8.11046,-0.65198 -1.13814,-0.79081 -2.377757,-1.44795 -2.754581,-1.46016 -1.285416,-0.0436 -3.459204,-3.39001 -4.245741,-6.53856 -2.194129,-8.78297 -2.560478,-11.28056 -1.89362,-12.91054 0.416838,-1.01898 0.345152,-4.98271 -0.175287,-9.62999 -0.716131,-6.40597 -1.138756,-7.94106 -2.237495,-8.1269 -1.790266,-0.30235 -2.601712,5.95748 -2.542939,19.61886 0.04324,10.26104 1.219944,16.71806 3.16369,17.37687 0.589933,0.20101 2.019027,1.78967 3.175627,3.53261 1.679781,2.53105 2.554631,3.16888 4.347331,3.16888 1.234682,0 2.660725,0.36759 3.169165,0.8169 1.11628,0.98584 11.82011,1.3727 14.78323,0.53434 1.16367,-0.32898 3.52876,-0.78888 5.25593,-1.022 5.23503,-0.70603 9.70229,-5.7882 10.01205,-11.38948 1.18273,-21.40068 2.31284,-29.03563 4.79365,-32.37917 0.85573,-1.15345 1.07414,-2.53105 0.71577,-4.511135 -1.04831,-5.78874 6.05506,-14.238163 10.65832,-12.678007 1.45589,0.493355 6.08278,6.199797 6.08278,7.502087 0,0.484372 0.91542,1.940715 2.03444,3.23655 1.21348,1.405297 2.03973,3.318045 2.0471,4.739855 0.0311,4.02327 1.17871,4.63937 2.88681,1.53627 0.83143,-1.51046 1.39895,-3.06975 1.26148,-3.46499 -0.13844,-0.3953 -0.57525,-2.713884 -0.97206,-5.152579 -0.3968,-2.438641 -1.11287,-5.187807 -1.59055,-6.109538 -1.15167,-2.220257 -9.9333,-5.555994 -14.4815,-5.500538 -3.01538,0.03819 -3.81173,0.430045 -6.66443,3.292491 -1.9256,1.931463 -3.23994,3.977066 -3.23994,5.041124 0,0.984773 -0.70688,2.800266 -1.57028,4.034405 -0.97266,1.389536 -2.08431,5.389135 -2.92098,10.506915 -1.70042,10.40504 -4.05936,14.32777 -7.44944,12.38733 -1.67674,-0.95949 0.96493,-17.31276 3.80101,-23.531002 0.3608,-0.790539 1.49371,-3.539705 2.51741,-6.109323 2.44909,-6.146277 4.49065,-8.51101 8.02586,-9.296656 9.00127,-2.000205 11.19107,-2.248765 13.36949,-1.517231 1.23072,0.413208 3.1981,0.751166 4.37224,0.751166 3.99998,0 7.07627,2.667674 9.08494,7.877804 2.02707,5.258755 2.34451,9.12168 1.41923,17.278762 -0.41678,3.67418 -1.03783,5.67685 -1.95045,6.28914 -1.43926,0.96578 -4.17076,1.16733 -6.25319,0.46183 -1.78381,-0.6047 -6.1689,-6.50128 -6.1689,-8.29559 0,-2.47726 -2.50511,-6.361697 -4.10279,-6.361697 -2.47308,0 -4.84963,3.416636 -4.84963,6.972367 0,1.75165 -0.32907,3.72959 -0.73172,4.39544 -0.74628,1.23495 -1.40978,7.0821 -2.25747,19.89835 -0.31811,4.80617 -0.96499,8.04487 -1.953,9.77506 -0.81237,1.42294 -1.56687,4.32508 -1.67637,6.44889 -0.1692,3.2713 -0.60139,4.21611 -2.82902,6.18351 -1.44633,1.27732 -3.89358,2.7888 -5.43833,3.35875 -2.16459,0.79866 -2.89364,1.54466 -3.17721,3.25145 -0.203,1.21838 -0.10458,2.59242 0.2184,3.05372 0.32268,0.46156 0.23687,1.72991 -0.1938,2.81898 -0.62721,1.58921 -0.38632,2.66903 1.21995,5.46714 1.10056,1.91791 2.18767,4.86346 2.41558,6.54582 0.61886,4.57149 -0.9025,5.77874 -8.79151,6.9762 -3.58107,0.54359 -7.60968,1.29335 -8.95235,1.66633 -3.44111,0.95545 -5.29411,-0.60551 -5.27779,-4.44568 z m -0.82625,-88.475651 c 0.55711,-0.593026 1.48142,-1.078205 2.05387,-1.078205 1.29004,0 4.61982,-4.643998 5.4116,-7.546947 0.65242,-2.393027 -0.57678,-7.547216 -1.79977,-7.547216 -0.43036,0 -0.7844,-0.404226 -0.78654,-0.898334 0,-1.447682 -5.37712,-6.197322 -7.45188,-6.589876 -6.812122,-1.289004 -12.076694,-0.800599 -12.076694,1.12059 0,0.423215 -0.888311,1.701945 -1.974139,2.841522 -1.085827,1.139633 -2.413757,3.807039 -2.951127,5.927571 -1.267633,5.00261 -0.07071,8.483309 4.181484,12.153454 2.999122,2.589143 3.34458,2.695376 8.751244,2.695376 4.010462,0 5.920042,-0.309987 6.641952,-1.077935 z m -7.609074,-2.474518 c -1.109825,-0.37276 -2.230368,-1.262164 -2.489705,-1.976592 -0.258363,-0.714482 -1.562903,-1.94292 -2.896373,-2.729641 -2.771153,-1.634815 -3.414927,-3.667347 -2.619801,-8.272778 0.487551,-2.823341 0.835443,-3.262637 2.737044,-3.456871 1.198381,-0.122209 2.61639,-0.688071 3.15163,-1.257753 2.223364,-2.365863 7.816709,-0.719645 10.875819,3.200942 1.52873,1.959218 2.08212,3.708389 2.26758,7.165798 0.26458,4.915901 0.47744,4.627699 -5.04488,6.794704 -3.48637,1.368075 -3.490695,1.368344 -5.981314,0.532191 z m 2.882852,-7.04929 c 2.118422,-2.178409 2.384822,-2.983848 1.479832,-4.477197 -1.271899,-2.09907 -3.828662,-1.807587 -5.236256,0.596575 -1.060306,1.810868 -1.057505,2.228702 0.03045,3.593765 1.485431,1.8731 2.139985,1.923339 3.731209,0.286857 z m -23.557497,2.278134 c 0.312508,-0.275993 0.343266,-0.823405 0.06767,-1.216497 -0.532133,-0.760364 -1.029246,-4.081901 -1.315626,-8.788132 l -0.175347,-2.875194 -6.32269,-0.209186 -6.322383,-0.209187 0.525982,2.90537 c 0.521109,2.877937 0.501681,2.905693 -2.034741,2.905693 -2.369477,0 -2.520463,0.143939 -2.015432,1.920059 0.301483,1.056204 0.58171,2.75433 0.625686,3.77358 0.07997,1.848359 0.101529,1.853791 8.238723,2.075188 4.487292,0.122263 8.414374,0 8.726944,-0.279812 z"
       id="path719"
       sodipodi:nodetypes="csscsscssssssscscccccssssssscsssssscsscsscsssscsssssssscssscssccssscccssscssccsssssssssssssssscsscsccssssssssssscscsccssssssssssssssssssssssssscssssccsssscsssssssscssssscsscsscccssscccsscssss" />
  </g>
</svg>
