<?xml version="1.0" encoding="UTF-8" standalone="no"?>
<svg
   xmlns:dc="http://purl.org/dc/elements/1.1/"
   xmlns:cc="http://creativecommons.org/ns#"
   xmlns:rdf="http://www.w3.org/1999/02/22-rdf-syntax-ns#"
   xmlns:svg="http://www.w3.org/2000/svg"
   xmlns="http://www.w3.org/2000/svg"
   xmlns:sodipodi="http://sodipodi.sourceforge.net/DTD/sodipodi-0.dtd"
   xmlns:inkscape="http://www.inkscape.org/namespaces/inkscape"
   width="132.29163mm"
   height="132.29167mm"
   viewBox="0 0 132.29163 132.29167"
   version="1.1"
   id="svg350"
   inkscape:version="1.0 (b51213c273, 2020-08-10)">
  <defs
     id="defs344" />
  <sodipodi:namedview
     id="base"
     pagecolor="#ffffff"
     bordercolor="#666666"
     borderopacity="1.0"
     inkscape:pageopacity="0.0"
     inkscape:pageshadow="2"
     inkscape:zoom="0.35"
     inkscape:cx="288.13063"
     inkscape:cy="336.20588"
     inkscape:document-units="mm"
     inkscape:current-layer="layer1"
     inkscape:document-rotation="0"
     showgrid="false"
     inkscape:snap-global="false"
     fit-margin-top="0"
     fit-margin-left="0"
     fit-margin-right="0"
     fit-margin-bottom="0"
     showborder="false"
     inkscape:window-width="1318"
     inkscape:window-height="704"
     inkscape:window-x="48"
     inkscape:window-y="27"
     inkscape:window-maximized="1" />
  <metadata
     id="metadata347">
    <rdf:RDF>
      <cc:Work
         rdf:about="">
        <dc:format>image/svg+xml</dc:format>
        <dc:type
           rdf:resource="http://purl.org/dc/dcmitype/StillImage" />
        <dc:title></dc:title>
      </cc:Work>
    </rdf:RDF>
  </metadata>
  <g
     inkscape:label="Layer 1"
     inkscape:groupmode="layer"
     id="layer1"
     transform="translate(-29.598772,-59.212193)">
    <path
       style="fill:#ff0000;stroke-width:0.764829"
       d="m 90.837012,186.78203 c 0,-1.61884 -0.344484,-3.4063 -0.749934,-3.97244 -0.405692,-0.56613 -3.055337,-1.53648 -5.888064,-2.15613 -5.147938,-1.12662 -5.150436,-1.1285 -5.011692,-3.64293 0.282969,-5.10557 2.199611,-11.11516 4.076301,-12.7723 1.562904,-1.38029 2.164591,-1.52315 3.586923,-0.85084 1.019685,0.48195 2.581066,0.58243 3.871111,0.24996 2.912392,-0.75251 5.135391,-0.78893 6.804453,-0.1114 1.239616,0.50309 1.355276,1.76251 1.090701,11.87579 -0.162984,6.22207 -0.348807,11.91544 -0.413063,12.65192 -0.159999,1.83126 0.184545,2.02114 4.200552,2.32133 1.9259,0.14394 5.06157,0.46479 6.96835,0.71308 4.45251,0.57916 5.77557,-0.21821 7.57527,-0.24275 0.65419,-0.009 3.20024,1.03029 3.20024,-0.8205 0,-0.74815 0.4968,-1.5289 1.10397,-1.73453 0.60723,-0.2065 1.4805,-1.68485 1.94095,-3.28653 l 0.83697,-2.9122 -7.84132,-0.2037 -7.84131,-0.20375 0.14764,-8.62515 0.14769,-8.6251 2.7016,-1.76908 c 6.33103,-4.14521 11.36215,-8.20624 12.36673,-9.98203 1.47739,-2.61147 1.02553,-7.15768 -1.0329,-10.39471 -2.05447,-3.23004 -2.13566,-4.32288 -0.41465,-5.58424 1.09564,-0.80302 1.42112,-0.76063 2.07506,0.27169 0.42665,0.67317 1.47709,1.22381 2.3344,1.22381 0.85755,0 2.86312,1.0114 4.45708,2.24742 2.46632,1.91248 3.33837,2.18412 5.85238,1.82394 1.62478,-0.23366 3.90436,-1.2024 5.06522,-2.15425 3.19415,-2.61879 6.41594,-4.25172 7.36552,-3.73341 0.46721,0.25534 0.87753,1.81932 0.91139,3.47613 0.0341,1.65655 0.53397,4.14414 1.11105,5.52797 0.88898,2.13199 1.39925,2.49216 3.34482,2.36205 1.2627,-0.0842 3.05168,-0.82422 3.97575,-1.6438 1.4417,-1.27895 1.66132,-2.29901 1.54846,-7.19296 -0.10463,-4.60705 -0.47616,-6.13046 -1.9262,-7.92885 -2.00368,-2.48512 -2.91422,-2.49926 -13.63619,-0.21188 -4.267,0.91033 -5.81273,0.94266 -9.33564,0.19558 -8.56201,-1.81415 -18.00039,-6.33045 -17.17914,-8.22039 0.7715,-1.77607 3.45251,-1.96218 9.90748,-0.68834 8.63559,1.7041 17.88108,1.65413 25.38309,-0.13587 5.15786,-1.23167 6.28486,-1.78204 7.27074,-3.55111 0.64165,-1.15152 1.13657,-3.11972 1.09966,-4.37339 -0.083,-2.80569 -3.1707,-10.27572 -4.68195,-11.32541 -0.61028,-0.42354 -1.23687,-1.41697 -1.39279,-2.20778 -0.42726,-2.16916 -3.44636,-1.88338 -3.79766,0.35942 -0.15379,0.98827 -0.59395,2.1336 -0.97602,2.54514 -0.38973,0.41999 -0.23375,2.71797 0.35405,5.24004 0.57647,2.4707 0.8324,4.60053 0.56874,4.73333 -1.01908,0.51288 -18.18896,-0.8114 -22.04655,-1.70054 -1.56661,-0.36103 -5.47189,-1.02662 -8.67828,-1.47893 -6.90129,-0.97332 -9.15261,-2.53428 -7.95051,-5.51275 0.41708,-1.0342 1.49121,-2.23736 2.38635,-2.67364 0.89543,-0.43629 1.88436,-1.11 2.19808,-1.49739 0.31379,-0.38739 1.70348,-0.75439 3.08829,-0.81603 1.38482,-0.0625 3.17106,-0.63407 3.9699,-1.27249 1.00556,-0.80383 2.99261,-1.16051 6.46296,-1.16051 6.42945,0 12.30028,-1.393298 13.60914,-3.230253 0.82247,-1.153725 0.82802,-2.518034 0.0311,-6.832466 -0.54967,-2.96492 -1.41776,-6.522801 -1.92864,-7.906369 -0.51063,-1.383513 -1.14582,-3.759167 -1.41131,-5.279088 l -0.48261,-2.763313 -9.51129,0.480284 c -5.23132,0.263513 -10.72965,0.813077 -12.21873,1.219993 -2.26393,0.618576 -2.99632,0.516968 -4.47621,-0.622072 -0.97291,-0.748961 -3.13287,-1.904837 -4.7998,-2.568811 -2.10454,-0.838305 -3.1956,-1.817376 -3.57121,-3.204438 -0.29838,-1.098322 -0.75359,-2.32052 -1.01353,-2.715763 -0.26147,-0.395566 -0.36635,-1.447952 -0.23686,-2.338701 0.28918,-1.971428 -1.3811,-2.655196 -4.97296,-2.037158 -1.95477,0.33629 -3.377103,1.378617 -5.487549,4.021065 -3.874216,4.851517 -5.311958,5.148165 -8.610918,1.776604 l -2.645381,-2.70323 -2.713962,1.395776 c -3.291896,1.69323 -3.741623,3.632869 -1.85391,7.997862 1.269764,2.936353 1.287914,3.471502 0.187651,5.477462 -2.062147,3.754538 -3.902842,9.291765 -3.898823,11.727178 0,1.27432 0.716435,3.700267 1.587205,5.390754 0.870526,1.69081 2.207652,4.623074 2.971105,6.516564 1.045204,2.59135 2.583257,4.32422 6.220002,7.00792 2.657319,1.9611 5.327306,3.56553 5.932953,3.56553 0.605951,0 1.353752,0.35996 1.661935,0.80027 0.30794,0.44038 0.838855,6.50489 1.179989,13.47667 0.521962,10.67941 0.425061,13.01623 -0.615819,14.8328 -2.02804,3.53998 -4.363898,4.98707 -9.385153,5.81402 -4.582915,0.75493 -4.809362,0.71959 -6.336575,-0.99537 -1.243634,-1.39604 -1.583793,-2.91543 -1.583793,-7.07204 0,-5.02951 -0.09233,-5.29356 -1.853605,-5.29356 -3.177516,0 -5.470984,1.96083 -5.470984,4.6774 0,4.61469 2.28488,10.67372 4.672448,12.38954 2.436778,1.75111 6.579223,2.12328 9.303964,0.83535 1.201489,-0.5678 1.907691,-0.5678 2.550917,0 1.429397,1.26264 5.867783,0.9057 8.110455,-0.65198 1.138146,-0.79081 2.377762,-1.44795 2.754586,-1.46016 1.285416,-0.0436 3.459202,-3.39001 4.245742,-6.53857 2.19413,-8.78297 2.56048,-11.28056 1.89362,-12.91053 -0.41684,-1.01899 -0.34515,-4.98271 0.17529,-9.62999 0.71613,-6.40597 1.13875,-7.94106 2.23749,-8.1269 1.79027,-0.30235 2.60171,5.95747 2.54294,19.61885 -0.0432,10.26105 -1.21994,16.71806 -3.16369,17.37687 -0.58993,0.20101 -2.01903,1.78968 -3.17563,3.53261 -1.67978,2.53105 -2.554628,3.16888 -4.347328,3.16888 -1.234682,0 -2.66073,0.3676 -3.169171,0.8169 -1.116281,0.98585 -11.820104,1.3727 -14.78323,0.53434 -1.163667,-0.32897 -3.528759,-0.78887 -5.255924,-1.02199 -5.235035,-0.70604 -9.70229,-5.78821 -10.012056,-11.38949 -1.182729,-21.40068 -2.312835,-29.03563 -4.79365,-32.37916 -0.855725,-1.15345 -1.074133,-2.53105 -0.715764,-4.51114 1.048311,-5.78874 -6.055069,-14.238159 -10.658327,-12.678004 -1.455891,0.493355 -6.08278,6.199794 -6.08278,7.502084 0,0.48438 -0.915414,1.94072 -2.034436,3.23655 -1.213486,1.4053 -2.039734,3.31804 -2.047103,4.73985 -0.03106,4.02327 -1.17871,4.63937 -2.886812,1.53628 -0.831425,-1.51046 -1.398945,-3.06975 -1.26148,-3.46499 0.138439,-0.3953 0.575255,-2.71389 0.972056,-5.15258 0.396801,-2.43864 1.11287,-5.18781 1.590554,-6.10954 1.151667,-2.220256 9.933305,-5.555993 14.481504,-5.500536 3.015383,0.03819 3.811725,0.430044 6.664431,3.29249 1.925596,1.931463 3.239942,3.977066 3.239942,5.041126 0,0.98477 0.706872,2.80026 1.570273,4.0344 0.972664,1.38954 2.084317,5.38914 2.92098,10.50691 1.700428,10.40504 4.059369,14.32778 7.449445,12.38733 1.676734,-0.95949 -0.96493,-17.31275 -3.801007,-23.53099 -0.360806,-0.79054 -1.493714,-3.53971 -2.517418,-6.10933 -2.449082,-6.146274 -4.490644,-8.511008 -8.025858,-9.296653 -9.001264,-2.000206 -11.191069,-2.248765 -13.369486,-1.517232 -1.230723,0.413208 -3.198101,0.751166 -4.372242,0.751166 -3.999986,0 -7.076276,2.66767 -9.084948,7.877805 -2.027065,5.258754 -2.344506,9.121684 -1.419226,17.278754 0.416778,3.67418 1.037834,5.67686 1.950446,6.28914 1.439264,0.96579 4.170766,1.16733 6.253195,0.46183 1.783808,-0.60469 6.168902,-6.50128 6.168902,-8.29558 0,-2.47726 2.505115,-6.3617 4.102795,-6.3617 2.47308,0 4.849622,3.41664 4.849622,6.97237 0,1.75164 0.329074,3.72958 0.731722,4.39544 0.746278,1.23494 1.409786,7.0821 2.257473,19.89834 0.31811,4.80618 0.96499,8.04488 1.953004,9.77506 0.81236,1.42294 1.566861,4.32508 1.676369,6.4489 0.169197,3.27129 0.601385,4.21611 2.829013,6.1835 1.446328,1.27733 3.893583,2.7888 5.438337,3.35875 2.16459,0.79867 2.893632,1.54467 3.177209,3.25145 0.203,1.21839 0.104577,2.59243 -0.218408,3.05372 -0.322678,0.46157 -0.236863,1.72992 0.193803,2.81899 0.627208,1.5892 0.386324,2.66902 -1.219942,5.46713 -1.100568,1.91791 -2.187675,4.86346 -2.415585,6.54583 -0.618863,4.57149 0.902501,5.77873 8.791504,6.97619 3.581077,0.5436 7.609688,1.29336 8.952356,1.66633 3.441116,0.95546 5.294113,-0.6055 5.27779,-4.44568 z M 91.66326,98.30639 c -0.557105,-0.59303 -1.481411,-1.07821 -2.053865,-1.07821 -1.290045,0 -4.619823,-4.643995 -5.411599,-7.546945 -0.652422,-2.393028 0.576777,-7.547216 1.799765,-7.547216 0.430361,0 0.784406,-0.404232 0.786538,-0.898334 0,-1.447682 5.377127,-6.197325 7.451881,-6.58988 6.81213,-1.289003 12.0767,-0.800598 12.0767,1.120591 0,0.423214 0.88831,1.701945 1.97414,2.841522 1.08583,1.139635 2.41376,3.807042 2.95113,5.927573 1.26763,5.002611 0.0707,8.48331 -4.18149,12.153455 -2.99912,2.589144 -3.34458,2.695374 -8.751243,2.695374 -4.010463,0 -5.920041,-0.30998 -6.641957,-1.07793 z m 7.60908,-2.474521 c 1.10982,-0.372759 2.23037,-1.262164 2.48971,-1.976592 0.25836,-0.714482 1.5629,-1.94292 2.89637,-2.729646 2.77115,-1.63481 3.41492,-3.667348 2.6198,-8.272774 -0.48755,-2.823341 -0.83545,-3.262637 -2.73704,-3.456873 -1.19839,-0.122209 -2.61639,-0.688071 -3.15163,-1.257753 -2.223369,-2.365863 -7.816712,-0.719645 -10.875825,3.200944 -1.528735,1.959218 -2.082126,3.708389 -2.267584,7.165798 -0.264574,4.915903 -0.47744,4.6277 5.044886,6.794706 3.486369,1.368074 3.490693,1.368343 5.981313,0.53219 z m -2.882853,-7.04929 c -2.118425,-2.178409 -2.384827,-2.983848 -1.479828,-4.477198 1.271896,-2.09907 3.828659,-1.807591 5.236251,0.596576 1.06031,1.810867 1.05751,2.228696 -0.0305,3.593764 -1.48543,1.873102 -2.139984,1.923341 -3.731208,0.286858 z m 23.557493,2.278129 c -0.3125,-0.275987 -0.34326,-0.823405 -0.0677,-1.216492 0.53214,-0.760364 1.02925,-4.081906 1.31563,-8.788133 l 0.17535,-2.875196 6.32269,-0.209187 6.32238,-0.209186 -0.52598,2.905372 c -0.52111,2.877932 -0.50168,2.905693 2.03474,2.905693 2.36948,0 2.52046,0.14394 2.01543,1.920059 -0.30148,1.056205 -0.58171,2.75433 -0.62568,3.773582 -0.08,1.848358 -0.10153,1.853791 -8.23873,2.075187 -4.48729,0.122263 -8.41437,0 -8.72694,-0.279811 z"
       id="path715"
       sodipodi:nodetypes="csscsscssssssscscccccssssssscsssssscsscsscsssscsssssssscssscssccssscccssscssccsssssssssssssssscsscsccssssssssssscscsccssssssssssssssssssssssssscssssccsssscsssssssscssssscsscsscccssscccsscssss" />
  </g>
</svg>
