<?xml version="1.0" encoding="UTF-8" standalone="no"?>
<svg
   xmlns:dc="http://purl.org/dc/elements/1.1/"
   xmlns:cc="http://creativecommons.org/ns#"
   xmlns:rdf="http://www.w3.org/1999/02/22-rdf-syntax-ns#"
   xmlns:svg="http://www.w3.org/2000/svg"
   xmlns="http://www.w3.org/2000/svg"
   xmlns:sodipodi="http://sodipodi.sourceforge.net/DTD/sodipodi-0.dtd"
   xmlns:inkscape="http://www.inkscape.org/namespaces/inkscape"
   width="103.24806"
   height="103.24925"
   viewBox="0 0 27.317716 27.318032"
   version="1.1"
   id="svg938"
   inkscape:version="1.0.1 (3bc2e813f5, 2020-09-07)"
   sodipodi:docname="rblacklogo.svg">
  <defs
     id="defs932" />
  <sodipodi:namedview
     id="base"
     pagecolor="#ffffff"
     bordercolor="#666666"
     borderopacity="1.0"
     inkscape:pageopacity="0.0"
     inkscape:pageshadow="2"
     inkscape:zoom="0.35"
     inkscape:cx="-91.233587"
     inkscape:cy="-76.9504"
     inkscape:document-units="mm"
     inkscape:current-layer="layer1"
     inkscape:document-rotation="0"
     showgrid="false"
     units="px"
     fit-margin-top="0"
     fit-margin-left="0"
     fit-margin-right="0"
     fit-margin-bottom="0"
     showborder="false"
     inkscape:window-width="988"
     inkscape:window-height="518"
     inkscape:window-x="212"
     inkscape:window-y="88"
     inkscape:window-maximized="0" />
  <metadata
     id="metadata935">
    <rdf:RDF>
      <cc:Work
         rdf:about="">
        <dc:format>image/svg+xml</dc:format>
        <dc:type
           rdf:resource="http://purl.org/dc/dcmitype/StillImage" />
        <dc:title></dc:title>
      </cc:Work>
    </rdf:RDF>
  </metadata>
  <g
     inkscape:label="Layer 1"
     inkscape:groupmode="layer"
     id="layer1"
     transform="translate(-129.97222,-168.52646)">
    <path
       style="fill:#000000;stroke-width:0.264583"
       d="m 154.75291,195.84282 -2.33823,-0.0104 -6.00713,-6.00714 -6.00713,-6.00712 0.0802,-2.40438 0.0802,-2.40437 5.18159,-0.005 5.18158,-0.005 v -2.05727 -2.05727 l -7.29382,0.004 -7.29381,0.004 v 7.1976 7.1976 l 3.65096,0.007 3.65097,0.007 1.59473,1.59473 1.59473,1.59473 -0.0157,1.67547 -0.0157,1.67546 h -8.41207 -8.41206 l 0.002,-13.656 0.002,-13.656 13.656,-0.002 13.65599,-0.002 1e-5,8.41491 v 8.41492 l -2.52988,0.01 c -1.39144,0.005 -2.58671,0.0666 -2.65617,0.13603 -0.0695,0.0695 1.06686,1.30765 2.52516,2.75153 l 2.65144,2.62522 0.0106,2.38332 c 0.006,1.31083 -0.0363,2.43028 -0.0937,2.48767 -0.0574,0.0574 -1.15655,0.0997 -2.44258,0.0939 z"
       id="path899" />
  </g>
</svg>
