<?xml version="1.0" encoding="UTF-8" standalone="no"?>
<svg
   xmlns:dc="http://purl.org/dc/elements/1.1/"
   xmlns:cc="http://creativecommons.org/ns#"
   xmlns:rdf="http://www.w3.org/1999/02/22-rdf-syntax-ns#"
   xmlns:svg="http://www.w3.org/2000/svg"
   xmlns="http://www.w3.org/2000/svg"
   xmlns:sodipodi="http://sodipodi.sourceforge.net/DTD/sodipodi-0.dtd"
   xmlns:inkscape="http://www.inkscape.org/namespaces/inkscape"
   width="198.4375mm"
   height="119.0625mm"
   viewBox="0 0 198.4375 119.0625"
   version="1.1"
   id="svg2058"
   inkscape:version="1.0 (b51213c273, 2020-08-10)">
  <defs
     id="defs2052" />
  <sodipodi:namedview
     id="base"
     pagecolor="#ffffff"
     bordercolor="#666666"
     borderopacity="1.0"
     inkscape:pageopacity="0.0"
     inkscape:pageshadow="2"
     inkscape:zoom="0.35"
     inkscape:cx="362.3157"
     inkscape:cy="321.89064"
     inkscape:document-units="mm"
     inkscape:current-layer="layer1"
     inkscape:document-rotation="0"
     showgrid="false"
     inkscape:snap-global="false"
     fit-margin-top="0"
     fit-margin-left="0"
     fit-margin-right="0"
     fit-margin-bottom="0"
     showborder="false"
     inkscape:window-width="1318"
     inkscape:window-height="704"
     inkscape:window-x="48"
     inkscape:window-y="27"
     inkscape:window-maximized="1" />
  <metadata
     id="metadata2055">
    <rdf:RDF>
      <cc:Work
         rdf:about="">
        <dc:format>image/svg+xml</dc:format>
        <dc:type
           rdf:resource="http://purl.org/dc/dcmitype/StillImage" />
        <dc:title></dc:title>
      </cc:Work>
    </rdf:RDF>
  </metadata>
  <g
     inkscape:label="Layer 1"
     inkscape:groupmode="layer"
     id="layer1"
     transform="translate(-9.9706383,-62.999769)">
    <path
       style="fill:#000000;stroke-width:1.07012"
       d="m 102.34648,63.957818 c 15.52558,0.232739 14.43937,-0.160674 17.98761,6.547694 1.89165,3.577512 5.88321,4.602165 20.46518,5.253321 18.86878,0.842683 39.54925,2.532562 47.43465,3.875948 3.55738,0.605902 8.65146,1.360689 11.3195,1.67695 2.66804,0.317116 5.43375,1.0411 6.14588,1.610303 1.27702,1.020992 3.20305,9.949845 2.59223,12.015076 -0.17515,0.584226 -0.51812,13.96883 -0.76705,29.74304 -0.2487,15.77451 -0.64423,31.43037 -0.87808,34.79068 -0.28935,4.13365 -0.0582,5.88461 0.71946,5.41277 0.64794,-0.39347 0.83117,-0.19656 0.42217,0.45535 -0.60335,0.96224 -18.18866,1.16821 -22.78846,0.26896 -0.59288,-0.11594 -7.86962,-0.16875 -16.17072,-0.11195 -8.30113,0.0573 -16.06306,-0.0962 -17.24914,-0.33737 -1.18579,-0.24091 -4.80634,-0.78844 -8.04564,-1.22054 -3.23918,-0.43188 -6.52822,-1.41427 -7.30803,-2.18321 -0.7803,-0.7684 -2.13224,-1.12743 -3.0042,-0.79782 -0.88793,0.33732 -1.65829,-0.039 -1.7499,-0.84192 -0.0902,-0.79253 -0.22434,-1.91939 -0.29763,-2.50357 -0.0736,-0.58412 -0.53975,-1.7019 -1.03622,-2.48355 -0.49624,-0.78164 -0.59978,-6.27882 -0.22821,-12.21586 0.60485,-9.71145 0.74977,-16.35346 0.52485,-24.01422 -0.11362,-3.89587 3.01362,-5.64465 8.75015,-4.89204 9.55566,1.25396 12.41193,1.83572 13.34294,2.71928 0.51991,0.49305 1.58461,4.83062 2.36606,9.63867 0.78116,4.80828 2.05399,9.13858 2.82777,9.62241 1.92202,1.20201 20.40038,0 22.16183,-1.43489 1.07811,-0.88167 1.2579,-3.53103 0.7509,-11.06567 -0.36664,-5.44846 -0.83078,-10.75436 -1.03125,-11.79113 -0.19958,-1.0362 -0.40346,-2.25466 -0.44738,-2.70712 -0.15473,-1.52844 -5.29128,-2.78741 -13.75853,-3.37234 -4.63355,-0.32126 -10.85002,-0.91033 -13.81466,-1.31244 -2.96468,-0.40206 -5.87505,-0.58394 -6.46845,-0.40435 -0.59276,0.18064 -8.59716,0.46049 -17.78778,0.62468 -9.19057,0.16458 -17.07349,0.34522 -17.51854,0.40264 -1.36539,0.17669 -0.86656,2.54582 1.58829,7.54016 1.29245,2.62939 2.65611,5.73648 3.03068,6.90479 0.87979,2.74533 -1.66242,11.52759 -4.96864,17.16566 -3.42821,5.84516 -5.84894,15.30448 -5.84894,22.85467 0,6.61439 1.38749,8.31235 6.79259,8.31235 2.14252,0 3.04819,1.0093 4.94781,5.51344 2.0287,4.80995 2.1266,5.70944 0.7665,7.04959 -2.03851,2.00909 -4.73095,0.91703 -6.02794,-2.44453 -1.35145,-3.50292 -2.08404,-3.40771 -1.8307,0.23679 0.1549,2.24985 -0.32595,2.99428 -2.09669,3.24442 -1.74552,0.24496 -2.63185,-0.52182 -3.67687,-3.18576 -1.33848,-3.41009 -1.39111,-3.43463 -1.85189,-0.85434 -0.994596,5.56864 -4.569231,5.03447 -4.569231,-0.68253 0,-4.85796 -2.487167,-4.26811 -3.233888,0.76677 -0.391355,2.64707 -1.14468,3.71898 -2.768768,3.94787 -1.717002,0.24077 -2.490401,-0.52271 -3.363086,-3.32395 -0.622925,-2.00096 -1.015824,-4.77121 -0.87225,-6.15657 0.14256,-1.38521 0.321739,-3.35485 0.399171,-4.3775 0.101914,-1.39031 1.088286,-1.85882 3.91075,-1.85882 4.218789,0 4.252126,-0.0917 2.562043,-7.15503 -2.582402,-10.79114 -2.309053,-10.63095 -19.033297,-11.15523 l -8.924937,-0.28103 -1.082642,3.96093 c -1.072368,3.9253 -1.195485,10.25018 -0.26901,13.83231 0.317782,1.23372 1.531263,1.85911 3.604402,1.85911 1.984758,0 3.530202,0.74885 4.239629,2.05453 1.406023,2.58871 1.464785,12.47927 0.07754,13.3231 -0.570004,0.3454 -2.044289,-1.31478 -3.275524,-3.69284 -2.347357,-4.53395 -4.957209,-4.80097 -3.83385,-0.39337 0.449009,1.76399 0.13455,2.75808 -1.004727,3.18971 -2.334621,0.8828 -4.746528,-1.41768 -4.087903,-3.89919 0.30553,-1.14701 0.06592,-2.08572 -0.534736,-2.08572 -1.185689,0 -2.666296,2.77709 -2.832158,5.31151 -0.06981,1.03953 -1.228438,1.59309 -3.338288,1.59309 -2.507093,0 -3.24016,-0.4776 -3.260036,-2.12417 0,-1.41792 -0.644587,-2.02055 -1.886482,-1.81272 -1.023593,0.1726 -1.860914,-0.18862 -1.860914,-0.79653 0,-0.60979 -0.727617,-1.10888 -1.617042,-1.10888 -1.986348,0 -2.162777,-4.25533 -0.269058,-6.51038 0.741221,-0.88299 2.681543,-2.41923 4.312191,-3.41417 2.651245,-1.61805 2.964541,-2.42584 2.964541,-7.64147 0,-5.51273 -1.353484,-9.59451 -3.772965,-11.37836 -1.716521,-1.26533 -7.30452,0.27699 -10.241756,2.82809 -4.808136,4.175 -15.922962,9.12033 -20.498708,9.12033 h -4.296564 v -8.96664 c 0,-4.93135 -0.420106,-9.22201 -0.933423,-9.53476 -1.6539475,-1.00697 0,-5.78691 2.598227,-7.45707 5.654286,-3.65024 10.311949,-5.88636 9.597603,-4.60743 -0.415575,0.74489 0.639713,0 2.345813,-1.65162 5.639572,-5.46462 10.989391,-8.85831 16.806934,-10.66133 5.072561,-1.5718 11.629203,-5.71557 11.629203,-7.34954 0,-1.25906 -7.225735,-4.78851 -11.251405,-5.49576 -2.333895,-0.40995 -6.302491,-2.14157 -8.818606,-3.847045 -2.516404,-1.705896 -5.851796,-3.101472 -7.41196,-3.101472 -2.238564,0 -13.525478,-4.343661 -15.521136,-5.972789 -0.232153,-0.18872 -0.638028,-3.168982 -0.905396,-6.623278 -0.3381413,-4.381403 -0.06981,-6.534054 0.887883,-7.117423 0.755451,-0.460013 12.242721,-0.914701 25.527799,-1.010202 26.607259,-0.192665 26.070594,-0.04873 26.10065,-6.947953 0.04149,-5.83284 1.069664,-6.257056 13.911914,-5.654054 6.291395,0.293063 17.906366,0.633901 25.810893,0.75279 z m -27.578116,8.890727 c -3.044433,0.577809 -3.251498,4.383781 -0.424885,7.82282 1.837129,2.235933 2.277164,2.321737 5.390057,1.050987 3.575791,-1.459327 4.293806,-3.849375 2.27364,-7.569021 -1.09234,-2.010989 -2.336647,-2.235458 -7.238812,-1.304786 z m 27.220926,1.071048 c -3.208322,0.817488 -3.797236,2.488496 -2.049551,5.817582 1.557261,2.967712 5.050851,4.011474 6.372541,1.904603 0.3708,-0.593781 1.0781,-0.835457 1.56783,-0.537212 1.31456,0.800518 1.92971,-1.719211 1.1609,-4.756658 -0.68541,-2.709588 -2.92349,-3.480062 -7.05172,-2.428315 z m 21.25965,10.865734 c -3.7775,1.638065 -5.21255,4.749956 -4.13697,8.971826 0.86025,3.376953 2.78084,3.723111 20.96565,3.773169 8.49665,0.04086 15.77386,0.240912 16.17072,0.480267 0.39525,0.240813 6.75675,0.739908 14.13301,1.109547 7.37612,0.369504 14.0335,1.181144 14.79458,1.803534 1.81725,1.48629 2.39871,5.32725 3.01594,19.92266 0.45723,10.81359 0.28518,12.41181 -1.60973,15.0355 -1.16705,1.61477 -2.12175,3.64697 -2.12175,4.51712 0,0.86954 -0.76707,1.87128 -1.70509,2.22571 -2.66851,1.00892 -7.79993,0.75645 -8.53777,-0.42046 -0.44351,-0.70649 -1.38375,-0.68766 -2.79358,0.0573 -1.16898,0.61626 -5.09125,1.13446 -8.71638,1.15167 -5.68309,0.039 -6.97718,-0.3492 -9.39821,-2.73245 -2.36205,-2.32497 -2.89298,-3.98138 -3.3465,-10.44323 -0.53415,-7.60838 -0.56907,-7.68397 -3.77348,-8.03498 -1.77847,-0.1967 -4.01335,-1.04337 -4.96599,-1.88577 -3.30736,-2.92427 -4.18604,0.54182 -4.90729,19.35834 l -0.68742,17.93614 24.14609,-0.3011 c 28.54555,-0.35743 24.92602,-0.40192 32.3076,0.40663 4.86933,0.5337 6.35826,0.30923 7.87754,-1.18826 1.14662,-1.12934 1.57616,-2.51418 1.10716,-3.56797 -1.57649,-3.54066 -1.63764,-15.67392 -0.10965,-22.00356 1.677,-6.95333 1.53439,-39.390943 -0.1794,-41.080822 -0.48443,-0.477221 -4.23232,-1.373857 -8.32826,-1.99245 -4.09624,-0.61869 -8.32632,-1.894621 -9.40006,-2.834943 -1.58291,-1.38631 -2.1195,-1.443307 -2.83553,-0.301096 -0.72444,1.15514 -2.98326,1.180857 -12.60122,0.144559 -17.74432,-1.914919 -40.06143,-1.966021 -44.36175,-0.100398 z"
       id="path827"
       sodipodi:nodetypes="cssscscscssssssccsssccsssscscccscsssssssssscccssccsccssccscsscssccscsccsssssscscsccscsssssccscccccssssssccssscsccssscsssccsscssccscscssssccc" />
  </g>
</svg>
